<?xml version="1.0" encoding="UTF-8" standalone="no"?>
<!-- Created with Inkscape (http://www.inkscape.org/) -->

<svg
   width="22"
   height="22"
   viewBox="0 0 22 22.000001"
   version="1.1"
   id="svg5"
   inkscape:version="1.2 (dc2aedaf03, 2022-05-15)"
   sodipodi:docname="device.svg"
   xmlns:inkscape="http://www.inkscape.org/namespaces/inkscape"
   xmlns:sodipodi="http://sodipodi.sourceforge.net/DTD/sodipodi-0.dtd"
   xmlns:xlink="http://www.w3.org/1999/xlink"
   xmlns="http://www.w3.org/2000/svg"
   xmlns:svg="http://www.w3.org/2000/svg">
  <sodipodi:namedview
     id="namedview7"
     pagecolor="#ffffff"
     bordercolor="#000000"
     borderopacity="0.25"
     inkscape:showpageshadow="2"
     inkscape:pageopacity="0.0"
     inkscape:pagecheckerboard="0"
     inkscape:deskcolor="#d1d1d1"
     inkscape:document-units="px"
     showgrid="false"
     inkscape:zoom="9.6931818"
     inkscape:cx="19.446659"
     inkscape:cy="20.684642"
     inkscape:window-width="1854"
     inkscape:window-height="1048"
     inkscape:window-x="0"
     inkscape:window-y="0"
     inkscape:window-maximized="1"
     inkscape:current-layer="svg5" />
  <defs
     id="defs2">
    <style
     id="current-color-scheme"
     type="text/css">
   .ColorScheme-Text { color:#dfdfdf; } .ColorScheme-Highlight { color:#5294e2; }
    </style>
    <linearGradient
       inkscape:collect="always"
       xlink:href="#linearGradient3598"
       id="linearGradient3251"
       x1="4.2333336"
       y1="-1.3229167"
       x2="4.2333336"
       y2="10.31875"
       gradientUnits="userSpaceOnUse"
       gradientTransform="matrix(3.7795275,0,0,3.7795275,22.000001,-10)" />
    <linearGradient
       inkscape:collect="always"
       id="linearGradient3598">
      <stop
         style="stop-color:#999999;stop-opacity:1"
         offset="0"
         id="stop3594" />
      <stop
         style="stop-color:#b7b7b7;stop-opacity:1"
         offset="0.60000002"
         id="stop2347" />
      <stop
         style="stop-color:#dbdbdb;stop-opacity:1"
         offset="1"
         id="stop3596" />
    </linearGradient>
    <linearGradient
       inkscape:collect="always"
       xlink:href="#linearGradient3043"
       id="linearGradient3045"
       x1="6.3500051"
       y1="1.3229166"
       x2="6.3500051"
       y2="9.260417"
       gradientUnits="userSpaceOnUse"
       gradientTransform="matrix(2.6996548,0,0,2.6996548,20.857179,-10.428553)" />
    <linearGradient
       inkscape:collect="always"
       id="linearGradient3043">
      <stop
         style="stop-color:#808080;stop-opacity:1;"
         offset="0"
         id="stop3039" />
      <stop
         style="stop-color:#999999;stop-opacity:1"
         offset="1"
         id="stop3041" />
    </linearGradient>
    <linearGradient
       inkscape:collect="always"
       xlink:href="#linearGradient1871"
       id="linearGradient1659"
       x1="2.6654696"
       y1="0.52916664"
       x2="2.69718"
       y2="6.8791666"
       gradientUnits="userSpaceOnUse"
       gradientTransform="matrix(3.7795275,0,0,3.7795275,23.000005,-10)" />
    <linearGradient
       inkscape:collect="always"
       id="linearGradient1871">
      <stop
         style="stop-color:#ffffff;stop-opacity:1;"
         offset="0"
         id="stop1867" />
      <stop
         style="stop-color:#ffffff;stop-opacity:0.1"
         offset="0.12"
         id="stop2515" />
      <stop
         style="stop-color:#ffffff;stop-opacity:0.102"
         offset="0.89999998"
         id="stop2581" />
      <stop
         style="stop-color:#ffffff;stop-opacity:0.502"
         offset="1"
         id="stop1869" />
    </linearGradient>
  </defs>
  <g
     id="22-22-device-notifier">
    <rect
       style="fill:none;fill-opacity:1;stroke-width:2;stroke-linecap:round;stroke-linejoin:round"
       id="rect184"
       width="22"
       height="22"
       x="0"
       y="0" />
    <path
       d="M 7,3 V 6.0000001 H 8 V 4 h 5 v 2.0000001 h 1 V 3 Z m 2,2.0000001 v 1 h 1 v -1 z m 2,0 v 1 h 1 v -1 z M 8,6.9999997 c -0.657999,0 -1.178188,0.05961 -1.617188,0.224609 C 5.960876,7.3760227 5.606883,7.6731147 5.384766,8.0625007 4.968766,8.8144997 5.015,9.7361427 5,10.994142 v 4.011718 c 0.015,1.257999 -0.03023,2.178642 0.384766,2.931641 0.206999,0.376 0.560047,0.672891 0.998046,0.837891 0.438,0.163999 0.960189,0.224609 1.617188,0.224609 h 5 c 0.657999,0 1.179188,-0.05961 1.617188,-0.224609 0.438999,-0.164 0.789094,-0.461891 0.996093,-0.837891 C 16.029281,17.184502 15.985,16.263859 16,15.00586 V 10.994142 C 15.986,9.7361427 16.03023,8.8154997 15.615234,8.0625007 15.393118,7.6731147 15.039124,7.3760227 14.617188,7.2246087 14.180188,7.0606097 13.656999,6.9999997 13,6.9999997 Z m 0,1.000001 h 5 c 0.591999,0 1.005625,0.06316 1.265625,0.160156 0.26,0.098 0.371656,0.203719 0.472656,0.386719 0.202,0.366 0.246719,1.195126 0.261719,2.4531253 v 3.994141 c -0.015,1.263998 -0.05972,2.090984 -0.261719,2.458984 -0.1,0.183 -0.212656,0.288719 -0.472656,0.386719 -0.26,0.097 -0.673626,0.160156 -1.265625,0.160156 H 8 c -0.591999,0 -1.005625,-0.06316 -1.265625,-0.160156 -0.26,-0.098 -0.371656,-0.202719 -0.472656,-0.386719 C 6.059719,17.087126 6.015,16.26 6,15.000001 v -4 C 6.015,9.7420017 6.05972,8.9128757 6.261719,8.5468757 c 0.1,-0.183 0.213656,-0.289719 0.472656,-0.386719 0.26,-0.097 0.673626,-0.160156 1.265625,-0.160156 z"
       style="fill:currentColor;stroke-width:2;stroke-linecap:round;stroke-linejoin:round"
       class="ColorScheme-Text"
       id="path3052" />
  </g>
  <g
     id="16-16-device-notifier">
    <rect
       style="fill:none;fill-opacity:1;stroke-width:1.45455;stroke-linecap:round;stroke-linejoin:round"
       id="rect1109"
       width="16"
       height="16"
       x="-16"
       y="6" />
    <path
       id="rect2830"
       style="fill:currentColor;stroke-width:2;stroke-linecap:round;stroke-linejoin:round"
       class="ColorScheme-Text"
       d="m -12,6 v 3 h 1 V 7 h 5 v 2 h 1 V 6 Z m 2,2 v 1 h 1 V 8 Z m 2,0 v 1 h 1 V 8 Z m -3,2 c -0.657999,0 -1.178188,0.05961 -1.617188,0.224609 -0.421936,0.151414 -0.775929,0.448506 -0.998046,0.837891 -0.416,0.751999 -0.369766,1.673642 -0.384766,2.931641 v 4.011718 c 0.015,1.257999 -0.03023,2.178642 0.384766,2.931641 0.206999,0.376 0.560047,0.672891 0.998046,0.837891 C -12.179188,21.93939 -11.656999,22 -11,22 h 5 c 0.6579993,0 1.1791879,-0.05961 1.6171875,-0.224609 0.4389996,-0.164 0.789094,-0.461891 0.9960937,-0.837891 C -2.9707192,20.184501 -3.015,19.263858 -3,18.005859 V 13.994141 C -3.014,12.736142 -2.969766,11.815499 -3.3847656,11.0625 -3.6068824,10.673115 -3.9608759,10.376023 -4.3828125,10.224609 -4.8198121,10.06061 -5.3430007,10 -6,10 Z m 0,1 h 5 c 0.5919994,0 1.0056253,0.06316 1.265625,0.160156 0.2599997,0.098 0.3716564,0.203719 0.4726562,0.386719 C -4.059719,11.912875 -4.015,12.742001 -4,14 v 3.994141 c -0.015,1.263998 -0.059719,2.090984 -0.2617188,2.458984 -0.1,0.183 -0.2126565,0.288719 -0.4726562,0.386719 C -4.9943747,20.936844 -5.4080006,21 -6,21 h -5 c -0.591999,0 -1.005625,-0.06316 -1.265625,-0.160156 -0.26,-0.098 -0.371656,-0.202719 -0.472656,-0.386719 C -12.940281,20.087125 -12.985,19.259999 -13,18 v -4 c 0.015,-1.257999 0.05972,-2.087125 0.261719,-2.453125 0.1,-0.183 0.213656,-0.289719 0.472656,-0.386719 C -12.005625,11.063156 -11.591999,11 -11,11 Z"
       sodipodi:nodetypes="cccccccccccccccccccsccccccssccccccsssscsccccssccccccs" />
  </g>
  <g
     id="device-notifier">
    <rect
       style="fill:none;fill-opacity:1;stroke-width:2.90909;stroke-linecap:round;stroke-linejoin:round"
       id="rect949"
       width="32"
       height="32"
       x="22"
       y="-10" />
    <path
       d="m 35.194065,-8.0000001 c -1.42091,0 -2.54873,0.030799 -3.50573,0.1914101 -0.95699,0.1606399 -1.79139,0.4725999 -2.41202,1.0917899 -0.62062,0.6191898 -0.93643,1.4561201 -1.09566,2.4140701 -0.159232,0.9579499 -0.186648,2.0870498 -0.179679,3.51170982 V 10.796879 c -0.007,1.42131 0.02071,2.5495 0.179679,3.50585 0.159231,0.95796 0.47504,1.79488 1.09566,2.41407 0.62063,0.61919 1.45503,0.93115 2.41202,1.09179 C 32.645335,17.969238 33.773155,18 35.194065,18 h 5.614789 c 1.42092,0 2.5466,-0.03069 3.50183,-0.191411 0.95524,-0.16075 1.78773,-0.47425 2.40616,-1.09375 0.61843,-0.6195 0.93131,-1.45363 1.091749,-2.41015 0.160449,-0.95653 0.191399,-2.08403 0.191399,-3.50781 V -0.79688038 c 0,-1.42377972 -0.03099,-2.55127972 -0.191399,-3.50780972 -0.16044,-0.95653 -0.47332,-1.7906498 -1.091749,-2.41015 -0.618431,-0.61951 -1.45092,-0.9329999 -2.40616,-1.0937499 -0.95523,-0.1607601 -2.080911,-0.1914101 -3.50183,-0.1914101 z"
       style="color:#000000;font-style:normal;font-variant:normal;font-weight:normal;font-stretch:normal;font-size:medium;line-height:normal;font-family:sans-serif;font-variant-ligatures:normal;font-variant-position:normal;font-variant-caps:normal;font-variant-numeric:normal;font-variant-alternates:normal;font-feature-settings:normal;text-indent:0;text-align:start;text-decoration:none;text-decoration-line:none;text-decoration-style:solid;text-decoration-color:#000000;letter-spacing:normal;word-spacing:normal;text-transform:none;writing-mode:lr-tb;direction:ltr;text-orientation:mixed;dominant-baseline:auto;baseline-shift:baseline;text-anchor:start;white-space:normal;shape-padding:0;clip-rule:nonzero;display:inline;overflow:visible;visibility:visible;opacity:0.1;isolation:auto;mix-blend-mode:normal;color-interpolation:sRGB;color-interpolation-filters:linearRGB;solid-color:#000000;solid-opacity:1;vector-effect:none;fill:#000000;fill-opacity:1;fill-rule:nonzero;stroke:none;stroke-width:1.99996;stroke-linecap:butt;stroke-linejoin:miter;stroke-miterlimit:4;stroke-dasharray:none;stroke-dashoffset:0;stroke-opacity:1;marker:none;color-rendering:auto;image-rendering:auto;shape-rendering:auto;text-rendering:auto;enable-background:accumulate"
       id="path1922"
       sodipodi:nodetypes="scccccsccsscsccccccss" />
    <path
       style="color:#000000;fill:#c0bfbc;stroke-width:0.990369;stroke-linecap:round;stroke-linejoin:round;stroke-dashoffset:1"
       d="M 32.500001,15.499655 H 43.5 v 5.000001 H 32.500001 Z"
       id="path1911" />
    <path
       style="color:#000000;fill:#000000;fill-opacity:0.4;stroke-width:0.999999;stroke-linecap:round;stroke-linejoin:round;stroke-dashoffset:1"
       d="m 32.500001,15 c -0.276132,2.7e-5 -0.499973,0.223869 -0.5,0.499999 v 5 c 2.7e-5,0.276133 0.223869,0.499973 0.5,0.500001 H 43.5 c 0.276133,-2.8e-5 0.499973,-0.223869 0.500001,-0.500001 v -5 C 43.999973,15.223869 43.776131,15.000027 43.5,15 Z m 0.5,1 h 10 v 3.999999 h -10 z"
       id="path1913"
       sodipodi:nodetypes="cccccccccccccc" />
    <rect
       style="fill:#f6f5f4;fill-opacity:1;stroke-width:0.999999"
       id="rect1575"
       width="10"
       height="7"
       x="33"
       y="11.999999" />
    <path
       d="m 35.075062,-8.5 c -5.561749,0 -6.603699,0.5840899 -6.574469,6.2822698 V 10.217729 c -0.02929,5.69818 1.01272,6.28227 6.574469,6.28227 h 5.85044 c 5.56037,0 6.574469,-0.58403 6.574469,-6.28227 V -2.2177302 C 47.499971,-7.91597 46.485872,-8.5 40.925502,-8.5 Z"
       style="color:#000000;display:inline;overflow:visible;visibility:visible;fill:url(#linearGradient3251);fill-opacity:1;fill-rule:nonzero;stroke:none;stroke-width:0.999999;marker:none;enable-background:accumulate"
       id="path2042"
       sodipodi:nodetypes="sccssccss" />
    <path
       d="m 35.85715,1.2857016 h 1.428567 V 7.6947545 C 36.920318,7.4626696 36.543434,7.2580274 36.178006,7.0753277 35.642294,6.8074715 35.147366,6.5489439 34.84151,6.294116 34.535682,6.0392595 34.428569,5.8690741 34.428569,5.5714753 c 0.788997,0 1.428567,-0.6395913 1.428567,-1.4285677 0,-0.788976 -0.639591,-1.4285673 -1.428567,-1.4285673 -0.788977,0 -1.428568,0.6395913 -1.428568,1.4285673 v 1.4285677 c 0,0.773783 0.428599,1.4072099 0.926354,1.8219945 0.497728,0.4147847 1.076997,0.6919695 1.61271,0.9598544 0.535713,0.267881 1.027854,0.526384 1.333711,0.7812118 0.305828,0.254858 0.412941,0.425042 0.412941,0.722641 -0.395713,0 -0.714283,0.318569 -0.714283,0.714283 v 1.428568 c 0,0.395713 0.318569,0.714283 0.714283,0.714283 h 1.428568 c 0.395713,0 0.714283,-0.318569 0.714283,-0.714283 V 10.57146 c 0,-0.395713 -0.318569,-0.714283 -0.714283,-0.714283 V 8.4286102 c 0,-0.2976117 0.107142,-0.4677993 0.412941,-0.7226415 0.305842,-0.2548562 0.800784,-0.5133841 1.336496,-0.7812121 0.535713,-0.2678275 1.112211,-0.5450411 1.609924,-0.959854 0.497742,-0.4147847 0.926355,-1.0481397 0.926355,-1.821995 V 2.0000569 c 0,-0.3957131 -0.318573,-0.7142835 -0.714284,-0.7142835 H 40.85715 c -0.395713,0 -0.714284,0.3185688 -0.714284,0.7142835 v 1.4285673 c 0,0.3957131 0.318569,0.7142834 0.714284,0.7142834 h 0.714283 c 0,0.2976114 -0.107138,0.4677989 -0.412941,0.7226411 -0.305843,0.2548574 -0.797998,0.5133842 -1.333711,0.7812117 -0.365797,0.1829141 -0.743855,0.3869847 -1.110496,0.6194268 V 1.2857016 h 1.428567 l -2.142851,-4.2857018 z"
       style="opacity:0.2;fill:#ffffff;fill-opacity:1;stroke-width:0.188987;enable-background:new"
       id="path2894" />
    <path
       d="m 35.85715,0.2857021 h 1.428568 V 6.694755 C 36.920319,6.4626701 36.543434,6.258028 36.178007,6.0753283 35.642294,5.807472 35.147367,5.548944 34.84151,5.2941162 34.535683,5.03926 34.428569,4.8690747 34.428569,4.5714754 c 0.788998,0 1.428567,-0.6395909 1.428567,-1.4285673 0,-0.7889763 -0.639591,-1.4285672 -1.428567,-1.4285672 -0.788976,0 -1.428568,0.6395909 -1.428568,1.4285672 v 1.4285673 c 0,0.7737834 0.428599,1.4072103 0.926355,1.8219946 0.497727,0.414785 1.076997,0.6919699 1.61271,0.9598545 0.535712,0.2678853 1.027854,0.5263846 1.33371,0.781212 0.305828,0.2548577 0.412942,0.4250417 0.412942,0.7226407 -0.395714,0 -0.714284,0.3185688 -0.714284,0.7142838 v 1.428567 c 0,0.395713 0.318569,0.714284 0.714284,0.714284 h 1.428567 c 0.395713,0 0.714284,-0.318569 0.714284,-0.714284 V 9.571461 c 0,-0.395713 -0.318573,-0.7142838 -0.714284,-0.7142838 V 7.42861 c 0,-0.2976113 0.107146,-0.4677985 0.412942,-0.7226404 C 39.433069,6.4511131 39.92801,6.1925851 40.463723,5.9247575 40.999436,5.6569296 41.575934,5.379716 42.073647,4.9649031 42.571388,4.5501184 43.000001,3.916763 43.000001,3.1429081 V 1.000057 c 0,-0.3957127 -0.318569,-0.7142834 -0.714283,-0.7142834 H 40.85715 c -0.395713,0 -0.714284,0.3185688 -0.714284,0.7142834 v 1.4285673 c 0,0.3957135 0.318573,0.7142838 0.714284,0.7142838 h 0.714284 c 0,0.2976114 -0.107142,0.4677986 -0.412942,0.7226408 -0.305843,0.2548573 -0.797997,0.5133842 -1.33371,0.7812121 -0.365798,0.182914 -0.743855,0.3869847 -1.110497,0.6194267 V 0.2857021 h 1.428567 l -2.142851,-4.2857022 z"
       style="fill:url(#linearGradient3045);fill-opacity:1;stroke-width:0.714282;enable-background:new"
       id="path1826"
       sodipodi:nodetypes="ccccccsssscsccsssssscscscssssssscccccccc" />
    <path
       id="path2368"
       style="color:#000000;display:inline;opacity:0.4;fill:url(#linearGradient1659);fill-opacity:1;stroke-width:0.999999;enable-background:new"
       d="m 35.074221,-8.0000001 c -2.7633,0 -4.289361,0.1903 -5.048831,0.875 -0.37973,0.34235 -0.63559,0.83215 -0.802729,1.625 -0.16715,0.79285 -0.22266,1.8700123 -0.22266,3.2792999 v 0.002 12.4374992 0.002 c 0,1.409278 0.0555,2.48645 0.222658,3.2793 0.167139,0.79285 0.42299,1.28265 0.80273,1.625 0.75948,0.6847 2.28553,0.875 5.04883,0.875 h 5.85156 c 2.76262,0 4.28071,-0.190579 5.03711,-0.875 0.378201,-0.34221 0.63408,-0.83142 0.80273,-1.625 0.168692,-0.79368 0.23438,-1.87358 0.23438,-3.2833 V -2.2168001 c 0,-1.4097199 -0.0657,-2.4896201 -0.23438,-3.2832 -0.16865,-0.79358 -0.424529,-1.28279 -0.80273,-1.625 -0.7564,-0.68442 -2.27449,-0.875 -5.03711,-0.875 z m 0.4375,0.95312 h 5.02539 c 1.453119,0 2.55451,0.0404 3.324219,0.16407 0.76971,0.1236499 1.15722,0.30849 1.40039,0.54101 0.243179,0.2325204 0.43694,0.6031599 0.5664,1.3398499 0.12946,0.7366998 0.171882,1.7916298 0.171882,3.1816399 V 9.773439 c 0,1.39001 -0.0424,2.44494 -0.171882,3.18164 -0.129449,0.7367 -0.323221,1.10732 -0.5664,1.33984 -0.24317,0.23252 -0.63068,0.41737 -1.40039,0.54102 -0.769709,0.12364 -1.8711,0.16406 -3.324219,0.16406 h -5.02539 c -1.45312,0 -2.557721,-0.0403 -3.330081,-0.164061 -0.77237,-0.123757 -1.16371,-0.308191 -1.4082,-0.541019 -0.24449,-0.232838 -0.436419,-0.60259 -0.564459,-1.33789 -0.128031,-0.7353 -0.167955,-2.3689 -0.162101,-3.17773 v -0.002 -11.5996094 -0.002 c 0,-1.389128 0.03409,-2.4424301 0.162101,-3.17773 0.128039,-0.7353101 0.319971,-1.1050598 0.564459,-1.33789 0.24449,-0.2328401 0.63583,-0.41725 1.4082,-0.54102 0.77236,-0.1237598 1.87696,-0.1640598 3.330081,-0.1640598 z"
       sodipodi:nodetypes="ssssccsssssssccsssscssssccsssssssscccsssscc" />
    <path
       d="m 35.074667,-9 c -2.79831,0 -4.57403,0.1009198 -5.71861,1.1328099 -0.5723,0.51595 -0.91751,1.24088 -1.11131,2.16016 -0.19379,0.9192801 -0.25152,2.0523598 -0.24413,3.4921897 V 10.216799 c -0.007,1.43868 0.0505,2.57146 0.244131,3.49023 0.193799,0.91928 0.53901,1.64421 1.11131,2.16016 1.14459,1.03189 2.9203,1.13281 5.71861,1.13281 h 5.851278 c 2.79762,0 4.5662,-0.10066 5.7069,-1.13281 0.57034,-0.51608 0.91607,-1.24161 1.1113,-2.16016 0.19522,-0.91855 0.255851,-2.05084 0.255851,-3.49023 V -2.2168001 c 0,-1.43939 -0.0606,-2.5716801 -0.255851,-3.49023 -0.19523,-0.91855 -0.54096,-1.64408 -1.1113,-2.16016 C 45.492146,-8.89934 43.723566,-9 40.925946,-9 Z m 0,0.9999999 h 5.851279 c 2.76262,0 4.28059,0.1905801 5.03699,0.875 0.3782,0.3422101 0.63405,0.83142 0.80271,1.625 0.168681,0.7935799 0.23438,1.8734801 0.23438,3.2832 V 10.216799 c 0,1.40972 -0.0657,2.48962 -0.23438,3.2832 -0.16866,0.79358 -0.42451,1.28279 -0.80271,1.625 -0.7564,0.68442 -2.27437,0.875 -5.03699,0.875 h -5.851279 c -2.7633,0 -4.28923,-0.190299 -5.04871,-0.875 -0.37974,-0.34235 -0.63557,-0.83215 -0.80271,-1.625 -0.16715,-0.79285 -0.2299,-1.87004 -0.22265,-3.2793 v -0.002 -12.4374493 -0.002 c -0.007,-1.4092703 0.0555,-2.48645 0.22265,-3.2793 0.16714,-0.79285 0.42298,-1.28265 0.80271,-1.6250001 0.75947,-0.6847 2.28541,-0.875 5.04871,-0.875 z"
       style="color:#000000;display:inline;opacity:0.4;fill:#000000;stroke-width:0.999987;-inkscape-stroke:none;enable-background:new"
       id="path2244"
       sodipodi:nodetypes="scccccsssccccccsscssccccssssccccccccc" />
  </g>
</svg>
