<?xml version="1.0" encoding="UTF-8" standalone="no"?>
<!-- Created with Inkscape (http://www.inkscape.org/) -->

<svg
   width="22"
   height="22"
   viewBox="0 0 22 22"
   version="1.1"
   id="svg250"
   inkscape:version="1.2 (dc2aedaf03, 2022-05-15)"
   sodipodi:docname="kmail.svg"
   xmlns:inkscape="http://www.inkscape.org/namespaces/inkscape"
   xmlns:sodipodi="http://sodipodi.sourceforge.net/DTD/sodipodi-0.dtd"
   xmlns:xlink="http://www.w3.org/1999/xlink"
   xmlns="http://www.w3.org/2000/svg"
   xmlns:svg="http://www.w3.org/2000/svg">
  <sodipodi:namedview
     id="namedview252"
     pagecolor="#ffffff"
     bordercolor="#000000"
     borderopacity="0.25"
     inkscape:showpageshadow="2"
     inkscape:pageopacity="0.0"
     inkscape:pagecheckerboard="0"
     inkscape:deskcolor="#d1d1d1"
     inkscape:document-units="px"
     showgrid="false"
     inkscape:zoom="7.584615"
     inkscape:cx="11.404666"
     inkscape:cy="2.3073023"
     inkscape:window-width="1854"
     inkscape:window-height="1018"
     inkscape:window-x="0"
     inkscape:window-y="0"
     inkscape:window-maximized="1"
     inkscape:current-layer="svg250" />
  <defs
     id="defs247">
     <style
       id="current-color-scheme"
       type="text/css">
   .ColorScheme-Text { color:#dfdfdf; } .ColorScheme-Highlight { color:#5294e2; }
    </style>
    <linearGradient
       inkscape:collect="always"
       xlink:href="#linearGradient3217"
       id="linearGradient3219"
       x1="0.39684063"
       y1="1.0583555"
       x2="13.890591"
       y2="11.641689"
       gradientUnits="userSpaceOnUse"
       gradientTransform="matrix(3.7795275,0,0,3.7795275,22,-9.999999)" />
    <linearGradient
       inkscape:collect="always"
       id="linearGradient3217">
      <stop
         style="stop-color:#facb80;stop-opacity:1"
         offset="0"
         id="stop3213" />
      <stop
         style="stop-color:#feeaa2;stop-opacity:1"
         offset="1"
         id="stop3215" />
    </linearGradient>
    <linearGradient
       inkscape:collect="always"
       xlink:href="#linearGradient1871"
       id="linearGradient867"
       x1="4.6278176"
       y1="11.864628"
       x2="4.6278176"
       y2="18.214628"
       gradientUnits="userSpaceOnUse"
       gradientTransform="matrix(3.7795275,0,0,3.7795275,12.288335,-50.842076)" />
    <linearGradient
       inkscape:collect="always"
       id="linearGradient1871">
      <stop
         style="stop-color:#ffffff;stop-opacity:1;"
         offset="0"
         id="stop1867" />
      <stop
         style="stop-color:#ffffff;stop-opacity:0.1"
         offset="0.12"
         id="stop2515" />
      <stop
         style="stop-color:#ffffff;stop-opacity:0.102"
         offset="0.89999998"
         id="stop2581" />
      <stop
         style="stop-color:#ffffff;stop-opacity:0.502"
         offset="1"
         id="stop1869" />
    </linearGradient>
  </defs>
  <g
     id="16-16-kmail">
    <rect
       style="fill:none;stroke-width:2;stroke-linecap:round;stroke-linejoin:round"
       id="rect425"
       width="16"
       height="16"
       x="-16"
       y="5.999999" />
    <path
       d="m -12.005809,8 c -1.258199,0.0145 -2.178942,-0.030604 -2.931641,0.3847656 -0.37637,0.2076598 -0.673231,0.5593873 -0.837891,0.9980469 C -15.940011,9.8214821 -15.99995,10.342391 -15.99995,11 v 1.486327 5.513672 c 0,0.657609 0.0599,1.178588 0.224609,1.617188 0.16468,0.438609 0.461531,0.788523 0.837891,0.996093 0.752719,0.41513 1.673542,0.371649 2.931641,0.386719 h 0.0019 8.005859 0.0039 c 1.258199,-0.0145 2.178942,0.0306 2.931641,-0.384766 0.37637,-0.207659 0.673221,-0.559387 0.837891,-0.998046 C -0.06007,19.178517 0,18.657618 0,17.999999 V 12.464844 11 C 0,10.342401 -0.0599,9.8214121 -0.224609,9.3828125 -0.389239,8.9442129 -0.68609,8.5942785 -1.06245,8.3867188 -1.815169,7.9715892 -2.736092,8.01508 -3.994091,8 h -0.002 -8.005859 z m 0.0059,1 h 8 c 1.258599,0.0152 2.089078,0.059899 2.455078,0.2617188 0.18342,0.1011598 0.287226,0.2128465 0.384766,0.4726562 0.0974,0.2597697 0.160156,0.673246 0.160156,1.265625 v 1.259766 l -1.001953,0.605467 c -0.002,-0.529619 -0.007,-1.078543 -0.03711,-1.359373 -0.04254,-0.39736 -0.13817,-0.76408 -0.41215,-1.03711 -0.27398,-0.27303 -0.63786,-0.368222 -1.037109,-0.414062 -0.39926,-0.0458 -1.87636,-0.04709 -2.50586,-0.05469 h -0.002 -5.005859 -0.0039 c -0.629419,0.007 -1.106409,0.009 -1.505809,0.05469 -0.399319,0.0458 -0.763159,0.140932 -1.037109,0.414062 -0.27395,0.27313 -0.36959,0.63969 -0.41211,1.03711 -0.03,0.280839 -0.03551,0.829754 -0.03711,1.359373 l -1.001953,-0.605467 V 11 c 0,-0.592389 0.0626,-1.0057353 0.160156,-1.265625 0.0976,-0.2599097 0.201356,-0.3714664 0.384766,-0.4726562 C -14.08906,9.059799 -13.25844,9.0147 -11.999941,9 Z m 1,2 h 5 c 0.627409,0.008 2.091885,0.01393 2.396484,0.04883 0.30591,0.0351 0.409503,0.09321 0.445313,0.128906 0.0358,0.0357 0.0928,0.132534 0.125,0.433594 0.0316,0.29639 0.033203,1.229419 0.033203,1.855469 l -5.001953,3.017578 -4.998047,-3.017578 c 4e-5,-0.626069 0.001,-1.559059 0.0332,-1.855468 0.0322,-0.301161 0.0892,-0.397865 0.125,-0.433595 0.0358,-0.0357 0.13752,-0.09381 0.443359,-0.128906 0.30457,-0.0349 0.771099,-0.04163 1.398438,-0.04883 z m -4,2.203124 6,4.294922 -2,2 c 0,0 2.724101,-1.229101 4,-2 1.750258,-1.057569 4.528241,-3.139563 6,-4.263672 v 4.765625 c 0,0.592389 -0.0626,1.005735 -0.160156,1.265625 -0.0976,0.25991 -0.201356,0.371466 -0.384766,0.472656 -0.36596,0.20192 -1.196579,0.247009 -2.455078,0.261719 h -7.994141 -0.0059 c -1.258599,-0.0152 -2.089078,-0.0599 -2.455078,-0.261719 -0.18342,-0.10116 -0.287226,-0.212856 -0.384766,-0.472656 -0.0976,-0.25978 -0.160156,-0.673256 -0.160156,-1.265625 z"
       style="fill:currentColor;fill-opacity:1;stroke-width:2;stroke-linecap:round;stroke-linejoin:round"
       class="ColorScheme-Text"
       id="path2217" />
  </g>
  <g
     id="22-22-kmail">
    <rect
       style="fill:none;stroke-width:2;stroke-linecap:round;stroke-linejoin:round"
       id="rect423"
       width="22"
       height="22"
       x="0"
       y="0" />
    <path
       id="path808"
       style="fill:currentColor;fill-opacity:1;stroke-width:2;stroke-linecap:round;stroke-linejoin:round"
       class="ColorScheme-Text"
       d="M 6.9941406,5 C 5.7359419,5.0145 4.8151992,4.969396 4.0625,5.3847656 3.6861304,5.5924254 3.3892692,5.9441529 3.2246094,6.3828125 3.0599395,6.8214821 3,7.3423907 3,8 V 9.4863281 15 c 0,0.657609 0.0599,1.178588 0.2246094,1.617188 0.1646798,0.438609 0.461531,0.788523 0.8378906,0.996093 C 4.8152192,18.028411 5.7360419,17.98493 6.9941406,18 h 0.00195 8.0058592 0.0039 c 1.258199,-0.0145 2.178942,0.0306 2.931641,-0.384766 0.37637,-0.207659 0.673221,-0.559387 0.837891,-0.998046 C 18.93993,16.178518 19,15.657619 19,15 V 9.4648438 8 C 19,7.3424007 18.9401,6.8214121 18.775391,6.3828125 18.610711,5.9442129 18.31386,5.5942785 17.9375,5.3867188 17.184781,4.9715892 16.263858,5.01508 15.005859,5 h -0.002 -8.0058591 z M 7,6 h 8 c 1.258599,0.0152 2.089078,0.059899 2.455078,0.2617188 0.18342,0.1011598 0.287226,0.2128465 0.384766,0.4726562 C 17.937244,6.9941447 18,7.4076206 18,8 v 1.2597656 l -1.001953,0.6054688 c -0.002,-0.5296195 -0.007,-1.0785453 -0.03711,-1.359375 C 16.918438,8.1084998 16.822808,7.7417797 16.548828,7.46875 16.274848,7.1957203 15.910968,7.1005275 15.511719,7.0546875 15.112459,7.0088875 13.635359,7.0076 13.005859,7 h -0.002 -5.0058591 -0.00391 C 7.3646713,7.007 6.8876809,7.0089875 6.4882812,7.0546875 6.0889616,7.1004875 5.7251216,7.1956203 5.4511719,7.46875 5.1772221,7.7418797 5.0815825,8.1084398 5.0390625,8.5058594 c -0.03,0.2808397 -0.035509,0.8297555 -0.037109,1.359375 L 4,9.2597656 V 8 C 4,7.4076106 4.0625963,6.9942647 4.1601562,6.734375 4.2577562,6.4744653 4.3615121,6.3629086 4.5449219,6.2617188 4.9108815,6.059799 5.7415013,6.0147 7,6 Z m 1,2 h 5 c 0.627409,0.008 2.091885,0.013928 2.396484,0.048828 0.30591,0.0351 0.409503,0.093206 0.445313,0.1289063 0.0358,0.0357 0.0928,0.132534 0.125,0.4335937 C 15.998397,8.9077178 16,9.8407475 16,10.466797 L 10.998047,13.484375 6,10.466797 c 4e-5,-0.6260695 0.001,-1.5590592 0.033203,-1.8554689 0.0322,-0.3011597 0.0892,-0.3978638 0.125,-0.4335937 0.0358,-0.0357 0.1375197,-0.093806 0.4433594,-0.1289063 C 6.9061322,8.0139282 7.3726606,8.0072 8,8 Z m -4,2.203125 6,4.294922 -2,2 c 0,0 2.724101,-1.229101 4,-2 1.750258,-1.057569 4.528241,-3.139563 6,-4.263672 V 15 c 0,0.592389 -0.0626,1.005735 -0.160156,1.265625 -0.0976,0.25991 -0.201356,0.371466 -0.384766,0.472656 C 17.089118,16.940201 16.258499,16.98529 15,17 H 7.0058594 7 C 5.7414013,16.9848 4.9109215,16.940101 4.5449219,16.738281 4.3615021,16.637121 4.2576962,16.525425 4.1601562,16.265625 4.0625563,16.005845 4,15.592369 4,15 Z"
       sodipodi:nodetypes="cccscsccccccccscsccccccccccscccsccccccscccsccccccccccccccccccccscccccccsc" />
  </g>
  <g
     id="kmail">
    <rect
       style="fill:none;stroke-width:2.90909;stroke-linecap:round;stroke-linejoin:round"
       id="rect481"
       width="32"
       height="32"
       x="22"
       y="-10" />
    <path
       d="m 29.257811,-5.9991811 c -1.193186,0.00888 -2.160919,0.074683 -2.964843,0.2441424 -0.91928,0.1938142 -1.644206,0.5390169 -2.160156,1.1113281 C 23.100922,-3.499092 23,-1.723342 23,1.0750392 V 12.926601 c 0,2.797689 0.10066,4.566312 1.132812,5.70703 0.51608,0.570361 1.241607,0.916101 2.160156,1.111328 0.91855,0.19525 2.050844,0.255859 3.490234,0.255859 h 8.216797 8.216797 c 1.439391,0 2.571683,-0.06057 3.490233,-0.255859 0.918551,-0.195213 1.644077,-0.540968 2.160156,-1.111329 1.032152,-1.140718 1.132814,-2.909341 1.132814,-5.70703 V 1.0750373 c 0,-2.7983812 -0.100918,-4.5741388 -1.132814,-5.7187498 -0.515947,-0.5723112 -1.240876,-0.917529 -2.160156,-1.1113281 -0.918773,-0.1937004 -2.051552,-0.251435 -3.490234,-0.2441405 h -8.216796 -8.214844 -0.002 c -0.179834,-8.976e-4 -0.354936,-0.00127 -0.525391,0 z"
       style="color:#000000;display:inline;overflow:visible;visibility:visible;opacity:0.1;fill:#000000;fill-opacity:1;fill-rule:nonzero;stroke:none;stroke-width:0.999999;marker:none;enable-background:accumulate"
       id="path1438" />
    <path
       d="m 52.49987,0.0751628 c 0,-5.5617523 -0.584092,-6.6037001 -6.282271,-6.5744692 h -8.21765 -8.217809 c -5.69818,-0.02948 -6.28227,1.0127169 -6.28227,6.5744692 V 11.925604 c 0,5.560369 0.58403,6.574469 6.28227,6.574469 h 8.217809 8.21765 c 5.698239,0 6.282271,-1.0141 6.282271,-6.574469 z"
       style="color:#000000;display:inline;overflow:visible;visibility:visible;fill:url(#linearGradient3219);fill-opacity:1;fill-rule:nonzero;stroke:none;stroke-width:0.999999;marker:none;enable-background:accumulate"
       id="path908" />
    <path
       id="rect2491"
       style="fill:#faf8f6;stroke-width:0.999999;stroke-linejoin:round"
       d="m 30,-4 h 16 c 0.839531,0 1.706507,0.072888 2.250001,0.6249997 C 48.78245,-2.8341087 49,-1.8224695 49,-1.0000001 V 9.000001 c 0,1.662001 -1.338,3.000001 -3,3.000001 H 30 c -1.662,0 -3,-1.338 -3,-3.000001 V -1.0000001 c 0,-0.8425932 0.194332,-1.8310877 0.75,-2.3750002 C 28.290377,-3.9039452 29.180593,-4 30,-4 Z"
       sodipodi:nodetypes="sssssssssss" />
    <path
       id="rect3166"
       style="opacity:0.5;fill:#666666;fill-opacity:1;stroke-width:1.22474;stroke-linejoin:round"
       d="M 31,-2e-7 V 1 H 45 V -2e-7 Z m 0,2.0000001 v 1.0000002 h 7 V 1.9999999 Z"
       sodipodi:nodetypes="cccccccccc" />
    <path
       id="rect1261"
       style="fill:#ffc95f;fill-opacity:1;stroke-width:0.999999;stroke-linejoin:round"
       d="m 23.5,3.0000001 v 8.9257819 c 0,5.560369 0.58301,6.574219 6.28125,6.574219 H 38 46.216797 c 5.698239,0 6.283203,-1.01385 6.283203,-6.574219 V 3.0000001 L 38,9.8 Z"
       sodipodi:nodetypes="csscssccc" />
    <path
       id="rect3659"
       style="fill:#e93549;stroke-width:0.999999;stroke-linejoin:round"
       d="M 23,5.5000004 V 9.125 L 24.5,10 V 6.3750003 Z m 29.999999,0 -1.5,0.8749999 V 10 l 1.5,-0.875 z" />
    <path
       id="rect4105"
       style="fill:#ffffff;fill-opacity:1;stroke-width:0.999999;stroke-linejoin:round"
       d="m 23.5,10.791017 v 1.134765 c 0,0.982557 0.01861,1.820935 0.08008,2.539063 l 0.919922,0.535156 v -3.625 z m 29,0 -1,0.583984 v 3.625 l 0.919922,-0.535156 c 0.06147,-0.718128 0.08008,-1.556506 0.08008,-2.539063 z" />
    <path
       id="rect1238"
       style="opacity:0.2;fill:#ffffff;stroke-width:2;stroke-linejoin:round"
       d="M 52.5,3.0000001 23.935547,16.300782 c 0.02709,0.01187 0.02917,0.03278 0.01563,0.06055 0.652698,1.727033 2.207697,2.138669 5.830078,2.138669 h 8.21875 8.216797 c 0.71228,0 1.344915,-0.0161 1.90625,-0.05469 0.280667,-0.01929 0.542815,-0.04465 0.789062,-0.07617 6.79e-4,-8.7e-5 0.0013,8.7e-5 0.002,0 0.245478,-0.03147 0.474052,-0.06988 0.6875,-0.115235 6.54e-4,-1.39e-4 0.0013,1.39e-4 0.002,0 0.21329,-0.04539 0.412224,-0.09722 0.595703,-0.158203 0.09202,-0.03058 0.180689,-0.06283 0.265625,-0.09766 0.08494,-0.03483 0.166013,-0.07204 0.24414,-0.111328 0.07813,-0.03929 0.153014,-0.08104 0.22461,-0.125 0.0716,-0.04396 0.139738,-0.09177 0.205078,-0.140625 0.06534,-0.04885 0.128139,-0.09838 0.1875,-0.152344 0.05936,-0.05396 0.116264,-0.11064 0.169922,-0.169922 0.05366,-0.05928 0.104112,-0.12268 0.152344,-0.1875 0.04823,-0.06482 0.09364,-0.132552 0.136718,-0.203125 0.04308,-0.07057 0.08289,-0.144161 0.121094,-0.220703 0.03821,-0.07654 0.07381,-0.155554 0.107422,-0.238281 0.06722,-0.165454 0.127245,-0.34367 0.177734,-0.535157 0.05049,-0.191486 0.09294,-0.39599 0.128906,-0.615234 0.03597,-0.219244 0.06423,-0.452446 0.08789,-0.701172 0.02366,-0.248726 0.04113,-0.513035 0.05469,-0.792968 0.01356,-0.279934 0.02362,-0.575807 0.0293,-0.888672 0.0057,-0.312868 0.0078,-0.642712 0.0078,-0.990235 z" />
    <path
       d="m 29.77925,-5.9993995 c -1.40927,-0.00718 -2.48645,0.055521 -3.2793,0.2226519 -0.79285,0.1671307 -1.28265,0.4229783 -1.625,0.8027301 -0.6847,0.7594998 -0.875,2.2854576 -0.875,5.0488289 V 11.926371 c 0,2.76268 0.190579,4.280689 0.875,5.037109 0.342209,0.37821 0.83141,0.634072 1.625,0.80273 0.79359,0.16868 1.87347,0.234368 3.2832,0.234368 h 8.216799 8.2168 c 1.40973,0 2.48961,-0.06569 3.2832,-0.234368 0.793591,-0.168643 1.282791,-0.42452 1.625,-0.80273 0.68442,-0.75642 0.874999,-2.274429 0.874999,-5.037109 V 0.0748114 c 0,-2.7633713 -0.190299,-4.2893404 -0.874999,-5.0488289 -0.342349,-0.3797291 -0.83215,-0.6355805 -1.625,-0.8027187 -0.79285,-0.1671685 -1.87003,-0.2296441 -3.2793,-0.222652 h -0.002 -8.2187 -8.218749 z m 6.35742,1.0429719 c 2.722209,-0.003 5.44385,-0.002 8.166009,0.015496 1.70821,0.075591 3.46996,-0.1250646 5.16016,0.2480504 0.892519,0.1163338 1.308301,1.0352126 1.3457,1.83984 0.13062,4.9924307 0.03553,10.0043715 0.06452,15.0078202 -0.06501,1.35024 0.255118,2.825961 -0.505859,4.035152 -0.636382,0.685308 -1.704241,0.581919 -2.558602,0.705079 -5.32545,0.13319 -10.658739,0.07249 -15.992179,0.0644 -1.87955,-0.0864 -3.84814,0.167395 -5.67774,-0.40625 -0.91711,-0.355729 -0.90353,-1.53315 -0.98633,-2.355458 -0.13787,-4.66511 -0.02838,-9.3606021 -0.0254,-14.0332131 0.0729,-1.2515377 -0.105612,-2.5447596 0.214851,-3.7675766 0.18398,-0.9107905 1.188189,-1.160383 1.978509,-1.2382828 2.9379,-0.1598362 5.87168,-0.07971 8.816411,-0.1152378 z"
       style="color:#000000;display:inline;overflow:visible;visibility:visible;fill:url(#linearGradient867);fill-opacity:1;fill-rule:nonzero;stroke:none;stroke-width:0.999999;marker:none;enable-background:accumulate"
       id="path1034" />
    <path
       d="m 29.7832,-6.9993984 c -1.43868,-0.00718 -2.57146,0.050495 -3.49023,0.2441575 -0.91928,0.1938142 -1.64421,0.5390174 -2.16016,1.1113286 C 23.10092,-4.4992937 23,-2.7235432 23,0.0748378 V 11.926398 c 0,2.797689 0.10066,4.566311 1.13281,5.707029 0.51608,0.570361 1.24161,0.916101 2.16016,1.111329 0.91855,0.19525 2.05084,0.255874 3.49023,0.255874 H 38 46.216799 c 1.43939,0 2.57168,-0.06059 3.49023,-0.255874 0.91855,-0.195213 1.64408,-0.540968 2.160159,-1.111329 1.032151,-1.140718 1.132811,-2.90934 1.132811,-5.707029 V 0.0748378 c 0,-2.798381 -0.100913,-4.5741391 -1.132811,-5.7187501 -0.515947,-0.5723112 -1.240879,-0.9175295 -2.160159,-1.1113286 -0.91877,-0.1937008 -2.05155,-0.2514521 -3.49023,-0.2441575 H 38 29.78516 Z m -0.004,0.9999989 h 0.002 8.218749 8.21875 0.002 c 1.40927,-0.00718 2.48645,0.055521 3.2793,0.2226519 0.792848,0.1671307 1.282648,0.4229896 1.624998,0.8027301 0.684699,0.7594885 0.875002,2.2854576 0.875002,5.0488289 V 11.926371 c 0,2.76268 -0.190601,4.280689 -0.875002,5.037109 -0.342199,0.37821 -0.831421,0.634061 -1.624998,0.80273 -0.79358,0.16868 -1.87348,0.234368 -3.2832,0.234368 h -8.216793 -8.2168 c -1.40972,0 -2.48962,-0.06569 -3.2832,-0.234368 -0.79358,-0.168658 -1.28279,-0.424509 -1.625,-0.802719 -0.68442,-0.756419 -0.875,-2.274429 -0.875,-5.037108 V 0.0748227 c 0,-2.7633712 0.190299,-4.289329 0.875,-5.0488289 0.34235,-0.3797518 0.83215,-0.6355918 1.625,-0.80273 0.79285,-0.1671685 1.87004,-0.2299087 3.2793,-0.222652 z"
       style="color:#000000;display:inline;opacity:0.4;fill:#000000;stroke-width:0.999999;-inkscape-stroke:none;enable-background:new"
       id="path1156" />
  </g>
  <g
     id="mail-unread-new">
    <rect
       style="fill:none;fill-opacity:1;stroke-width:2;stroke-linecap:round;stroke-linejoin:round"
       id="rect2789"
       width="22"
       height="22"
       x="0"
       y="-22" />
    <path
       id="path2963"
       style="fill:#808080;fill-opacity:1;stroke-width:2;stroke-linecap:round;stroke-linejoin:round"
       d="m 5.0000002,-17 c -0.4379996,0 -0.7861253,0.03944 -1.078125,0.148438 -0.2919997,0.109999 -0.5260626,0.309547 -0.6640625,0.560546 -0.2769997,0.502 -0.2478125,1.114126 -0.2578125,1.953125 v 6.675782 c 0.01,0.838999 -0.019187,1.451125 0.2578125,1.953125 0.1379999,0.250999 0.3720628,0.450547 0.6640625,0.560546 C 4.2138749,-5.038438 4.5620006,-5 5.0000002,-5 H 17 c 0.439,0 0.786125,-0.03944 1.078125,-0.148438 0.293,-0.109999 0.528016,-0.309547 0.666016,-0.560546 C 19.02114,-6.210984 18.99,-6.82311 19,-7.662109 v -6.675782 c -0.01,-0.838999 0.02114,-1.451125 -0.255859,-1.953125 -0.148319,-0.259945 -0.384471,-0.459045 -0.666016,-0.560546 C 17.786125,-16.961562 17.438,-17 17,-17 Z m 0,1 H 17 c 0.38,0 0.605563,0.03898 0.726562,0.08398 0.083,0.031 0.127579,0.08042 0.142579,0.107422 0.095,0.172 0.119859,0.614657 0.130859,1.472656 v 6.673829 c -0.01,0.854999 -0.03686,1.299703 -0.130859,1.470703 -0.03398,0.05123 -0.08401,0.08875 -0.142579,0.107422 C 17.605563,-6.038988 17.38,-5.999998 17,-5.999998 H 5.0000002 c -0.3799996,0 -0.6065626,-0.03898 -0.7265625,-0.08398 -0.058187,-0.01785 -0.1077774,-0.05619 -0.140625,-0.107422 -0.096,-0.174 -0.1228125,-0.616704 -0.1328125,-1.470703 v -6.673829 c 0.01,-0.855999 0.036813,-1.298656 0.1328125,-1.472656 0.032599,-0.05105 0.082807,-0.08937 0.140625,-0.107422 0.1209999,-0.045 0.3475629,-0.08398 0.7265625,-0.08398 z m 0.5371094,1.578125 -0.2851563,0.4375 L 11.125,-9.763672 17,-14 16.714844,-14.421875 11.125,-11.048828 Z"
       sodipodi:nodetypes="scccccsssccccccsscsccccccssccccccccccccccc" />
  </g>
  <g
     id="16-16-mail-unread-new">
    <rect
       style="fill:none;fill-opacity:1;stroke-width:2;stroke-linecap:round;stroke-linejoin:round"
       id="rect2791"
       width="16"
       height="16"
       x="-16"
       y="-16" />
    <path
       d="m -14,-14 c -0.437999,0 -0.786125,0.03944 -1.078125,0.148438 -0.291999,0.109999 -0.526062,0.309547 -0.664062,0.560546 -0.277,0.502 -0.247813,1.114126 -0.257813,1.953125 v 6.6757822 c 0.01,0.838999 -0.01919,1.451125 0.257813,1.953125 0.138,0.250999 0.372063,0.450547 0.664062,0.560546 0.292,0.11 0.640126,0.148438 1.078125,0.148438 h 12 c 0.439,0 0.786125,-0.03944 1.078125,-0.148438 0.293,-0.109999 0.528016,-0.309547 0.666016,-0.560546 C 0.02114,-3.2109838 -0.01,-3.8231098 0,-4.6621088 v -6.6757822 c -0.01,-0.838999 0.02114,-1.451125 -0.255859,-1.953125 -0.148319,-0.259945 -0.384471,-0.459045 -0.666016,-0.560546 C -1.213875,-13.961562 -1.562,-14 -2,-14 Z m 0,1 h 12 c 0.38,0 0.605563,0.03898 0.726562,0.08398 0.083,0.031 0.127579,0.08042 0.142579,0.107422 0.095,0.172 0.119859,0.614657 0.130859,1.472656 v 6.6738292 c -0.01,0.854999 -0.03686,1.299703 -0.130859,1.470703 -0.03398,0.05123 -0.08401,0.08875 -0.142579,0.107422 -0.120999,0.045 -0.346562,0.08399 -0.726562,0.08399 h -12 c -0.379999,0 -0.606562,-0.03898 -0.726562,-0.08398 -0.05819,-0.01785 -0.107778,-0.05619 -0.140625,-0.107422 -0.096,-0.174 -0.122813,-0.616704 -0.132813,-1.470703 v -6.6738292 c 0.01,-0.855999 0.03681,-1.298656 0.132813,-1.472656 0.0326,-0.05105 0.08281,-0.08937 0.140625,-0.107422 0.121,-0.045 0.347563,-0.08398 0.726562,-0.08398 z m 0.53711,1.578125 -0.285157,0.4375 L -7.875,-6.7636718 -2,-11 -2.285156,-11.421875 -7.875,-8.0488278 Z"
       style="fill:#808080;fill-opacity:1;stroke-width:2;stroke-linecap:round;stroke-linejoin:round"
       id="path3705" />
  </g>
  <g
     id="16-16-mail-mark-unread-new"
     transform="translate(0,-1)">
    <rect
       style="fill:none;fill-opacity:1;stroke-width:2;stroke-linecap:round;stroke-linejoin:round"
       id="rect3921"
       width="16"
       height="16"
       x="-16"
       y="-37" />
    <path
       d="m -8,-36 c -3.865993,0 -7,3.134007 -7,7 0,3.865993 3.134007,7 7,7 3.865993,0 7,-3.134007 7,-7 0,-3.865993 -3.134007,-7 -7,-7 z m 0,2 c 2.761424,0 5,2.238576 5,5 0,2.761424 -2.238576,5 -5,5 -2.761424,0 -5,-2.238576 -5,-5 0,-2.761424 2.238576,-5 5,-5 z"
       style="opacity:0.5;fill:#808080;fill-opacity:1;stroke-width:2;stroke-linecap:round;stroke-linejoin:round"
       id="path6317" />
  </g>
  <g
     id="mail-mark-unread-new"
     transform="translate(0,-1)">
    <rect
       style="fill:none;fill-opacity:1;stroke-width:2;stroke-linecap:round;stroke-linejoin:round"
       id="rect3919"
       width="22"
       height="22"
       x="0"
       y="-43" />
    <path
       id="path3975"
       style="opacity:0.5;fill:#808080;fill-opacity:1;stroke-width:2;stroke-linecap:round;stroke-linejoin:round"
       d="m 11,-39 c -3.8659932,0 -7,3.134007 -7,7 0,3.865993 3.1340068,7 7,7 3.865993,0 7,-3.134007 7,-7 0,-3.865993 -3.134007,-7 -7,-7 z m 0,2 c 2.761424,0 5,2.238576 5,5 0,2.761424 -2.238576,5 -5,5 -2.7614237,0 -5,-2.238576 -5,-5 0,-2.761424 2.2385763,-5 5,-5 z"
       sodipodi:nodetypes="ssssssssss" />
  </g>
</svg>
