<?xml version="1.0" encoding="UTF-8" standalone="no"?>
<svg
   version="1.1"
   viewBox="0 0 32 16"
   id="svg11"
   sodipodi:docname="mobile.svg"
   inkscape:version="1.2 (dc2aedaf03, 2022-05-15)"
   xmlns:inkscape="http://www.inkscape.org/namespaces/inkscape"
   xmlns:sodipodi="http://sodipodi.sourceforge.net/DTD/sodipodi-0.dtd"
   xmlns="http://www.w3.org/2000/svg"
   xmlns:svg="http://www.w3.org/2000/svg">
  <sodipodi:namedview
     id="namedview13"
     pagecolor="#ffffff"
     bordercolor="#000000"
     borderopacity="0.25"
     inkscape:showpageshadow="2"
     inkscape:pageopacity="0.0"
     inkscape:pagecheckerboard="0"
     inkscape:deskcolor="#d1d1d1"
     showgrid="false"
     inkscape:zoom="24.815029"
     inkscape:cx="20.451316"
     inkscape:cy="12.230492"
     inkscape:window-width="1854"
     inkscape:window-height="1018"
     inkscape:window-x="0"
     inkscape:window-y="0"
     inkscape:window-maximized="1"
     inkscape:current-layer="svg11" />
  <defs
     id="defs3">
    <style
       id="current-color-scheme"
       type="text/css">.ColorScheme-Text {
            color:#dfdfdf;
        }</style>
  </defs>
  <g
     id="mobile-task-switcher"
     transform="matrix(3.7803186 0 0 3.7803186 -.00289876 -.00254929)"
     class="ColorScheme-Text"
     fill="currentColor">
    <path
       class="ColorScheme-Text"
       d="m1.0815353 0.5297303c-0.30537362 0-0.55112919 0.24575557-0.55112919 0.5511292v2.0727416c0 0.3053733 0.24575557 0.5511292 0.55112919 0.5511292h2.0727416c0.3053734 0 0.5511292-0.2457559 0.5511292-0.5511292v-2.0727416c0-0.30537363-0.2457558-0.5511292-0.5511292-0.5511292zm0.064595 0.32995387h1.9466512c0.1571218 0 0.2834453 0.126582 0.2834453 0.28370373v1.9497516c0 0.1571218-0.1263235 0.2837038-0.2834453 0.2837038h-1.9466508c-0.15712152 0-0.28370352-0.126582-0.28370352-0.2837038v-1.9497516c0-0.15712173 0.126582-0.28370373 0.28370312-0.28370373z"
       stroke-opacity="0"
       stroke-width=".132292"
       id="path5" />
  </g>
  <g
     id="mobile-close-app"
     transform="matrix(3.7734101 0 0 3.7734101 .05466992 .00852106)"
     fill="currentColor">
    <rect
       style="fill:none;stroke-width:0.530025;stroke-linecap:square;stroke-linejoin:round"
       id="rect999"
       width="3.4451597"
       height="3.4451597"
       x="4.6231565"
       y="0.39526021" />
    <path
       d="M 4.9141106,0.46127843 4.6895089,0.68588021 6.1211013,2.1174727 4.6895089,3.549065 4.9141106,3.7736667 6.345703,2.3420745 7.7772953,3.7736667 8.0018973,3.549065 6.5703047,2.1174727 8.0018973,0.68588021 7.7772953,0.46127843 6.345703,1.8928708"
       style="fill:currentColor;stroke-width:0.265003;stroke-linecap:square"
       class="ColorScheme-Text"
       id="path414" />
  </g>
</svg>
