<?xml version="1.0" encoding="UTF-8" standalone="no"?>
<!-- Created with Inkscape (http://www.inkscape.org/) -->

<svg
   width="22"
   height="22"
   viewBox="0 0 22 22"
   version="1.1"
   id="svg386"
   inkscape:version="1.2 (dc2aedaf03, 2022-05-15)"
   sodipodi:docname="printer.svg"
   xmlns:inkscape="http://www.inkscape.org/namespaces/inkscape"
   xmlns:sodipodi="http://sodipodi.sourceforge.net/DTD/sodipodi-0.dtd"
   xmlns:xlink="http://www.w3.org/1999/xlink"
   xmlns="http://www.w3.org/2000/svg"
   xmlns:svg="http://www.w3.org/2000/svg">
  <sodipodi:namedview
     id="namedview388"
     pagecolor="#ffffff"
     bordercolor="#000000"
     borderopacity="0.25"
     inkscape:showpageshadow="2"
     inkscape:pageopacity="0.0"
     inkscape:pagecheckerboard="0"
     inkscape:deskcolor="#d1d1d1"
     inkscape:document-units="px"
     showgrid="false"
     inkscape:zoom="18.113636"
     inkscape:cx="14.050188"
     inkscape:cy="0.24843162"
     inkscape:window-width="1854"
     inkscape:window-height="1018"
     inkscape:window-x="0"
     inkscape:window-y="0"
     inkscape:window-maximized="1"
     inkscape:current-layer="svg386"
     showguides="false" />
  <defs
     id="defs383">
     <style
       id="current-color-scheme"
       type="text/css">
   .ColorScheme-Text { color:#dfdfdf; } .ColorScheme-Highlight { color:#5294e2; }
    </style>
    <linearGradient
       inkscape:collect="always"
       id="linearGradient8935">
      <stop
         style="stop-color:#cdcdcd;stop-opacity:1;"
         offset="0"
         id="stop8931" />
      <stop
         style="stop-color:#d9d9d9;stop-opacity:1;"
         offset="1"
         id="stop8933" />
    </linearGradient>
    <linearGradient
       inkscape:collect="always"
       xlink:href="#linearGradient8935"
       id="linearGradient8937"
       x1="38.001003"
       y1="-3"
       x2="38.001003"
       y2="15.000001"
       gradientUnits="userSpaceOnUse" />
    <linearGradient
       inkscape:collect="always"
       xlink:href="#linearGradient1871"
       id="linearGradient3634"
       x1="2.1704102"
       y1="1.8520216"
       x2="2.1708996"
       y2="6.6146169"
       gradientUnits="userSpaceOnUse"
       gradientTransform="matrix(3.7795275,0,0,3.7795275,21.999051,-10.000446)" />
    <linearGradient
       inkscape:collect="always"
       id="linearGradient1871">
      <stop
         style="stop-color:#ffffff;stop-opacity:1;"
         offset="0"
         id="stop1867" />
      <stop
         style="stop-color:#ffffff;stop-opacity:0.1"
         offset="0.12"
         id="stop2515" />
      <stop
         style="stop-color:#ffffff;stop-opacity:0.102"
         offset="0.89999998"
         id="stop2581" />
      <stop
         style="stop-color:#ffffff;stop-opacity:0.502"
         offset="1"
         id="stop1869" />
    </linearGradient>
  </defs>
  <g
     id="16-16-printer">
    <rect
       style="fill:none;stroke-width:1.45455;stroke-linecap:round;stroke-linejoin:round"
       id="rect559"
       width="16"
       height="16"
       x="-16"
       y="6" />
    <path
       d="m -13,6 v 4.025391 c -0.749999,0.018 -1.410501,0.06938 -1.9375,0.359375 -0.389385,0.222117 -0.686477,0.57611 -0.837891,0.998047 C -15.940391,11.821813 -16,12.343001 -16,13 v 3 c 0,0.657999 0.05961,1.179188 0.224609,1.617188 0.164,0.438999 0.460891,0.790047 0.837891,0.998046 0.282,0.156 0.5995,0.23411 0.9375,0.28711 v -1.025391 c -0.157658,-0.02379 -0.311042,-0.07029 -0.455078,-0.138672 -0.183,-0.1 -0.286766,-0.212656 -0.384766,-0.472656 C -14.936844,17.005625 -15,16.591999 -15,16 v -3 c 0,-0.591999 0.06316,-1.005625 0.160156,-1.265625 0.098,-0.259999 0.201766,-0.371656 0.384766,-0.472656 C -14.090079,11.059719 -13.259999,11.015 -12,11 h 8 c 1.258999,0.015 2.087125,0.05972 2.453125,0.261719 0.184,0.101 0.289719,0.213657 0.386719,0.472656 C -1.063156,11.994375 -1,12.408001 -1,13 v 3 c 0,0.591999 -0.06316,1.005625 -0.160156,1.265625 -0.098,0.26 -0.202719,0.371656 -0.386719,0.472656 -0.107,0.06 -0.267125,0.103672 -0.453125,0.138672 v 1.025391 c 0.338,-0.053 0.6545,-0.13011 0.9375,-0.28711 0.389009,-0.222299 0.686728,-0.576271 0.837891,-0.998046 C -0.05961,17.179188 0,16.656999 0,16 V 13 C 0,12.342001 -0.05961,11.821813 -0.224609,11.382813 -0.375772,10.961037 -0.673491,10.607066 -1.0625,10.384766 -1.589499,10.094766 -2.250001,10.043391 -3,10.025391 V 6 Z m 1,1 h 8 v 2.9999996 h -8 z m 9.5,5 C -2.776142,12 -3,12.223858 -3,12.5 -3,12.776143 -2.776142,13 -2.5,13 -2.223858,13 -2,12.776143 -2,12.5 -2,12.223858 -2.223858,12 -2.5,12 Z M -13,16 v 6 h 10 v -6 h -1 v 5 h -8 v -5 z m 2,1 v 1 h 6 v -1 z m 0,2 v 1 h 6 v -1 z"
       style="fill:currentColor;fill-opacity:1;stroke-width:2;stroke-linecap:round;stroke-linejoin:round"
       class="ColorScheme-Text"
       id="path1457" />
  </g>
  <g
     id="22-22-printer">
    <rect
       style="fill:none;stroke-width:2;stroke-linecap:round;stroke-linejoin:round"
       id="rect561"
       width="22"
       height="22"
       x="0"
       y="0" />
    <path
       id="path760"
       style="fill:currentColor;fill-opacity:1;stroke-width:2;stroke-linecap:round;stroke-linejoin:round"
       class="ColorScheme-Text"
       d="m 6,3 v 4.0253906 c -0.7499993,0.018 -1.4105005,0.069375 -1.9375,0.359375 C 3.6731152,7.6068829 3.3760233,7.960876 3.2246094,8.3828125 3.0596095,8.8218121 3,9.3430008 3,10 v 3 c 0,0.657999 0.05961,1.179188 0.2246094,1.617188 0.1639998,0.438999 0.460891,0.790047 0.8378906,0.998046 0.2819997,0.156 0.5995003,0.23411 0.9375,0.28711 V 14.876953 C 4.842342,14.853163 4.6889582,14.806661 4.5449219,14.738281 4.3619221,14.638281 4.2581562,14.525625 4.1601562,14.265625 4.0631563,14.005625 4,13.591999 4,13 V 10 C 4,9.4080007 4.0631563,8.9943747 4.1601562,8.734375 4.2581562,8.4743753 4.3619221,8.3627186 4.5449219,8.2617188 4.9099215,8.059719 5.7400013,8.015 7,8 h 8 c 1.258999,0.015 2.087125,0.059719 2.453125,0.2617188 0.184,0.1009998 0.289719,0.2136565 0.386719,0.4726562 C 17.936844,8.9943747 18,9.4080007 18,10 v 3 c 0,0.591999 -0.06316,1.005625 -0.160156,1.265625 -0.098,0.26 -0.202719,0.371656 -0.386719,0.472656 -0.107,0.06 -0.267125,0.103672 -0.453125,0.138672 v 1.025391 c 0.338,-0.053 0.6545,-0.13011 0.9375,-0.28711 0.389009,-0.222299 0.686728,-0.576271 0.837891,-0.998046 C 18.94039,14.179188 19,13.656999 19,13 V 10 C 19,9.3420008 18.94039,8.8218121 18.775391,8.3828125 18.624228,7.9610365 18.326509,7.6070658 17.9375,7.3847656 17.410501,7.0947659 16.749999,7.0433906 16,7.0253906 V 3 Z m 1,1 h 8 V 7 H 7 Z m 9.5,5 C 16.223858,9 16,9.2238579 16,9.5 16,9.7761426 16.223858,10 16.5,10 16.776142,10 17,9.7761426 17,9.5 17,9.2238579 16.776142,9 16.5,9 Z M 6,13 v 6 h 10 v -6 h -1 v 5 H 7 v -5 z m 2,1 v 1 h 6 v -1 z m 0,2 v 1 h 6 v -1 z"
       sodipodi:nodetypes="ccccssccccccssccccccssccccccssccccccccccsssssccccccccccccccccccc" />
  </g>
  <g
     id="printer">
    <rect
       style="fill:none;stroke-width:2;stroke-linecap:round;stroke-linejoin:round"
       id="rect563"
       width="32"
       height="32"
       x="22"
       y="-10" />
    <path
       d="m 29.203125,-1.9997036 c -1.423302,0 -2.552964,0.03318 -3.507813,0.193361 -0.957419,0.160607 -1.787861,0.470632 -2.408203,1.089843 -0.620566,0.619519 -0.932838,1.452003 -1.09375,2.408203 C 22.032902,2.6452044 22,3.7712384 22,5.1917036 l 0.002,4.6153215 c 0,1.4204709 0.03099,2.5524389 0.191406,3.5078129 0.160829,0.958098 0.471797,1.790659 1.091797,2.412109 0.620264,0.621715 1.455225,0.934366 2.414062,1.09375 0.955545,0.158843 2.084687,0.186606 3.507813,0.179687 h 9.794923 7.792968 c 1.423096,0.007 2.551955,-0.02083 3.507476,-0.179687 0.95888,-0.159384 1.791899,-0.471983 2.412109,-1.093752 0.619929,-0.62145 0.93092,-1.453958 1.091751,-2.412109 0.160373,-0.955433 0.19336,-2.087335 0.19336,-3.5078119 V 5.191702 c 0,-1.4204697 -0.03292,-2.5465146 -0.19336,-3.4999996 -0.160912,-0.956198 -0.473153,-1.788713 -1.093751,-2.408203 -0.620274,-0.619169 -1.450697,-0.929236 -2.408202,-1.089844 -0.954786,-0.160162 -2.082218,-0.193359 -3.505523,-0.193359 h -7.798828 z"
       style="color:#000000;opacity:0.3;fill:#000000;stroke-width:0.999999;-inkscape-stroke:none"
       id="path31375"
       sodipodi:nodetypes="sccscccsccccccssscscscs" />
    <path
       d="m 29.99409,-3.4999999 c -2.5191,0.0252 -4.3144,-0.0131 -5.627,0.6123 -0.65627,0.31271 -1.1554,0.81569 -1.4512,1.4962 -0.29578,0.6805 -0.41602,1.5338 -0.41602,2.6415 V 10.75 c 0,1.1077 0.12024,1.961 0.41602,2.6415 0.29578,0.6805 0.7949,1.1835 1.4512,1.4962 1.3125,0.62543 3.1079,0.58715 5.627,0.6123 h 0.004 16.004 0.004 c 2.5191,-0.0252 4.3144,0.0131 5.627,-0.6123 0.65627,-0.31272 1.1554,-0.81569 1.4512,-1.4962 0.29542,-0.6805 0.41584,-1.5338 0.41584,-2.6415 V 1.2500001 c 0,-1.1077 -0.12024,-1.961 -0.41602,-2.6415 -0.29578,-0.6805 -0.7949,-1.1835 -1.4512,-1.4962 -1.3125,-0.62543 -3.1079,-0.58715 -5.627,-0.6123 h -0.004 -16.004 z"
       style="color:#000000;fill:url(#linearGradient8937);fill-opacity:1"
       id="path6741"
       sodipodi:nodetypes="cccssscccccccsssccccc" />
    <path
       style="color:#000000;opacity:0.3;fill:#000000;stroke-width:0.999999;-inkscape-stroke:none"
       d="m 29.203125,-4 c -1.423302,0 -2.552964,0.033184 -3.507813,0.1933606 -0.957419,0.1606073 -1.787861,0.4706321 -2.408203,1.0898437 -0.620566,0.6195186 -0.932838,1.4520027 -1.09375,2.40820314 C 22.032902,0.64490814 22,1.770942 22,3.1914072 l 0.002,5.6156179 c 0,1.4204709 0.03099,2.5524389 0.191406,3.5078129 0.160829,0.958098 0.471797,1.790659 1.091797,2.412109 0.620264,0.621715 1.455225,0.934366 2.414062,1.09375 0.955545,0.158843 2.084687,0.186606 3.507813,0.179687 h 9.794923 7.792968 c 1.423096,0.007 2.551955,-0.02083 3.507476,-0.179687 0.95888,-0.159384 1.791899,-0.471983 2.412109,-1.093752 0.619929,-0.62145 0.93092,-1.453958 1.091751,-2.412109 0.160373,-0.955433 0.19336,-2.087335 0.19336,-3.5078119 V 3.1914056 c 0,-1.4204697 -0.03292,-2.54651446 -0.19336,-3.49999965 C 53.645393,-1.2647915 53.333152,-2.0973065 52.712554,-2.7167972 52.09228,-3.3359661 51.261857,-3.6460329 50.304352,-3.8066409 49.349566,-3.9668029 48.222134,-4 46.798829,-4 h -7.798828 z m 0,0.9999994 H 39 46.798828 c 1.407091,0 2.492413,0.037606 3.339507,0.1796863 0.844493,0.1416529 1.446156,0.3883162 1.869142,0.8105473 0.422662,0.4219079 0.670671,1.02438655 0.812499,1.86718754 0.142266,0.8455128 0.179687,1.92965696 0.179687,3.33398396 v 5.6156196 c 0,1.4043209 -0.03742,2.4942309 -0.179687,3.3417969 -0.141809,0.844847 -0.391469,1.447104 -0.814453,1.871094 -0.422589,0.42365 -1.02277,0.674096 -1.867188,0.814453 -0.846675,0.140781 -1.931635,0.166016 -3.337553,0.166016 h -0.002 -7.796875 -9.796875 -0.002 c -1.407155,0.0069 -2.492642,-0.02519 -3.339845,-0.166016 C 25.018826,14.694013 24.416741,14.443599 23.994046,14.019915 23.571087,13.595966 23.321404,12.993621 23.179593,12.148821 23.037306,11.301397 23.00186,10.211352 23.00186,8.8070241 l -0.002,-5.6156185 c 0,-1.4043318 0.0374,-2.48848666 0.179687,-3.33398396 0.141828,-0.8427979 0.389807,-1.44520744 0.8125,-1.86718754 0.423107,-0.422287 1.024751,-0.6688932 1.869191,-0.8105472 0.847149,-0.1421159 1.9347,-0.1796875 3.341797,-0.1796875 z"
       id="path2933"
       sodipodi:nodetypes="sscscccsscccccssscssscsccssscsssccsccccsscccsccsc" />
    <path
       id="path3395"
       style="color:#000000;opacity:0.3;fill:url(#linearGradient3634);fill-opacity:1;stroke-width:0.999999"
       d="m 29.202638,-3.0006794 c -1.407097,0 -2.494649,0.037568 -3.341797,0.1796863 -0.84444,0.1416563 -1.446033,0.388261 -1.869141,0.810548 -0.422692,0.4219801 -0.670673,1.02438951 -0.8125,1.86718751 -0.142268,0.8454973 -0.179687,1.92965299 -0.179687,3.33398399 l 0.0019,5.6155941 c 0,1.4043275 0.03546,2.4943725 0.177735,3.3417985 0.141811,0.844798 0.391494,1.447143 0.814453,1.871092 0.422694,0.423684 1.024779,0.674097 1.86914,0.814453 0.847206,0.140845 1.932692,0.172933 3.339847,0.166016 h 0.0019 8.796414 8.796437 0.002 c 1.405811,0.007 2.49317,-0.02525 3.339844,-0.166016 0.844417,-0.140356 1.444598,-0.390803 1.867187,-0.814453 0.422984,-0.423988 0.672643,-1.026247 0.814453,-1.871092 0.142269,-0.847568 0.179688,-1.937478 0.179688,-3.3417985 V 3.1907264 c 0,-1.404327 -0.03742,-2.48847119 -0.179688,-3.33398399 -0.141722,-0.842801 -0.389781,-1.44527961 -0.812444,-1.86718751 -0.422983,-0.422231 -1.024647,-0.668894 -1.86914,-0.8105469 -0.847094,-0.14208 -1.934706,-0.1796874 -3.341797,-0.1796874 h -8.798391 z m 0,0.9999998 h 8.796413 8.796438 c 1.38962,0 2.443594,0.040894 3.177734,0.1640618 0.73414,0.1231483 1.100105,0.3075175 1.328125,0.5351565 0.228031,0.2276409 0.409983,0.59202861 0.533204,1.32421871 0.123209,0.7321901 0.164062,1.78319199 0.164062,3.16992099 v 5.6155951 c 0,1.3867305 -0.0407,2.4390785 -0.164062,3.1738285 -0.123342,0.734741 -0.306807,1.103141 -0.535157,1.332031 -0.228351,0.228889 -0.591508,0.411413 -1.324219,0.533203 -0.732699,0.121792 -1.787074,0.152345 -3.175781,0.152345 h -0.002 -8.798344 -8.798366 -0.002 c -1.388701,0.007 -2.443071,-0.0305 -3.175781,-0.152345 -0.732721,-0.1218 -1.095869,-0.304323 -1.324219,-0.533203 -0.22835,-0.22889 -0.411817,-0.597301 -0.535156,-1.332031 -0.12333,-0.73474 -0.164063,-1.787098 -0.164063,-3.1738285 V 3.1926794 c 0,-1.386729 0.0409,-2.43773119 0.164063,-3.16992129 0.12322,-0.7321901 0.305173,-1.09657881 0.533203,-1.32421861 0.22802,-0.227641 0.593985,-0.4120063 1.328125,-0.5351566 0.734138,-0.1231596 1.788124,-0.1640625 3.177734,-0.1640625 z"
       sodipodi:nodetypes="sccccccsccccccccssscssscsccscscsscssscccccccsscccsc" />
    <path
       id="path16648"
       style="color:#000000;fill:#000000;fill-opacity:1;opacity:0.15"
       d="M 22.5 7 L 22.5 10.75 C 22.5 11.857699 22.620236 12.710126 22.916016 13.390625 C 23.211795 14.071124 23.710888 14.574019 24.367188 14.886719 C 25.679686 15.512148 27.475043 15.47485 29.994141 15.5 L 29.998047 15.5 L 46.001953 15.5 L 46.005859 15.5 C 48.524957 15.4748 50.320214 15.512118 51.632812 14.886719 C 52.289082 14.573999 52.788185 14.071134 53.083984 13.390625 C 53.379404 12.710126 53.5 11.857699 53.5 10.75 L 53.5 7 L 22.5 7 z " />
    <path
       d="m 27.750012,-2 h 20.5 c 0.4155,0 0.75,0.223 0.75,0.5 V -1 h -22 v -0.5 c 0,-0.277 0.3345,-0.5 0.75,-0.5 z"
       style="opacity:0.3;enable-background:new;fill:#000000"
       id="path12488" />
    <path
       d="m 26,11 h 24 v 1.5 c 0,0.831 -0.669,1.5 -1.5,1.5 h -21 C 26.669,14 26,13.331 26,12.5"
       style="opacity:0.3;enable-background:new;fill:#000000"
       id="path10918" />
    <path
       id="rect14403"
       style="stroke-width:2;stroke-linecap:round;stroke-linejoin:round;fill:#939393;fill-opacity:1"
       d="M 30.5 -9 C 29.669001 -9 29 -8.3309992 29 -7.5 L 29 -1 L 47 -1 L 47 -7.5 C 47 -8.3309992 46.330999 -9 45.5 -9 L 30.5 -9 z M 29 11 L 29 19.5 C 29 20.330999 29.669001 21 30.5 21 L 45.5 21 C 46.330999 21 47 20.330999 47 19.5 L 47 11 L 29 11 z " />
    <path
       id="rect22641"
       style="fill:#faf8f6;stroke-width:2;stroke-linecap:round;stroke-linejoin:round"
       d="m 31,-8 c -0.553999,0 -1,0.4460006 -1,1 v 6 h 16 v -6 c 0,-0.5539994 -0.446001,-1 -1,-1 z m -1,19 v 8 c 0,0.553999 0.446001,1 1,1 h 14 c 0.553999,0 1,-0.446001 1,-1 v -8 z" />
    <path
       id="rect32899"
       style="opacity:0.5;fill:#939393;fill-opacity:1;stroke-width:2;stroke-linecap:round;stroke-linejoin:round"
       d="m 32.5,14 c -0.277,0 -0.5,0.223 -0.5,0.5 0,0.277 0.223,0.5 0.5,0.5 h 11 C 43.777,15 44,14.777 44,14.5 44,14.223 43.777,14 43.5,14 Z m 0,3 c -0.277,0 -0.5,0.223 -0.5,0.5 0,0.277 0.223,0.5 0.5,0.5 h 11 C 43.777,18 44,17.777 44,17.5 44,17.223 43.777,17 43.5,17 Z" />
    <rect
       style="opacity:0.4;fill:#000000;fill-opacity:1;stroke-width:2;stroke-linecap:round;stroke-linejoin:round"
       id="rect19681"
       width="24"
       height="1"
       x="26"
       y="11" />
    <rect
       style="opacity:0.2;fill:#ffffff;fill-opacity:1;stroke-width:2;stroke-linecap:round;stroke-linejoin:round"
       id="rect21135"
       width="31.00013"
       height="0.99999994"
       x="22.5"
       y="6" />
    <circle
       style="opacity:1;fill:#f22c42;fill-opacity:1;stroke-width:2;stroke-linecap:round;stroke-linejoin:round"
       id="path25189"
       cx="43.5"
       cy="4.5"
       r="0.5" />
    <circle
       style="opacity:1;fill:#f34f17;fill-opacity:1;stroke-width:2;stroke-linecap:round;stroke-linejoin:round"
       id="path26955"
       cx="46.5"
       cy="4.5"
       r="0.5" />
    <circle
       style="opacity:1;fill:#46a926;fill-opacity:1;stroke-width:2;stroke-linecap:round;stroke-linejoin:round"
       id="path28461"
       cx="49.5"
       cy="4.5"
       r="0.5" />
  </g>
</svg>
