<?xml version="1.0" encoding="UTF-8" standalone="no"?>
<!-- Created with Inkscape (http://www.inkscape.org/) -->

<svg
   width="22"
   height="22"
   viewBox="0 0 22 22"
   version="1.1"
   id="svg2021"
   sodipodi:docname="view.svg"
   inkscape:version="1.2 (dc2aedaf03, 2022-05-15)"
   xmlns:inkscape="http://www.inkscape.org/namespaces/inkscape"
   xmlns:sodipodi="http://sodipodi.sourceforge.net/DTD/sodipodi-0.dtd"
   xmlns:xlink="http://www.w3.org/1999/xlink"
   xmlns="http://www.w3.org/2000/svg"
   xmlns:svg="http://www.w3.org/2000/svg">
  <sodipodi:namedview
     id="namedview2023"
     pagecolor="#ffffff"
     bordercolor="#666666"
     borderopacity="1.0"
     inkscape:pageshadow="2"
     inkscape:pageopacity="0.0"
     inkscape:pagecheckerboard="0"
     inkscape:document-units="px"
     showgrid="false"
     units="px"
     inkscape:zoom="12.615428"
     inkscape:cx="-2.5365767"
     inkscape:cy="2.8932828"
     inkscape:window-width="1920"
     inkscape:window-height="1006"
     inkscape:window-x="0"
     inkscape:window-y="0"
     inkscape:window-maximized="1"
     inkscape:current-layer="svg2021"
     inkscape:showpageshadow="2"
     inkscape:deskcolor="#d1d1d1" />
  <defs
     id="defs2018">
    <style
       id="current-color-scheme"
       type="text/css">
        .ColorScheme-Text { color:#dfdfdf; } .ColorScheme-Highlight { color:#0077c4; }
    </style>
    <linearGradient
       inkscape:collect="always"
       xlink:href="#linearGradient1160"
       id="linearGradient1561"
       x1="16.142578"
       y1="7"
       x2="16.142578"
       y2="31"
       gradientUnits="userSpaceOnUse"
       gradientTransform="matrix(0.26458333,0,0,0.26458333,-3.28125e-8,1.1765937e-5)" />
    <linearGradient
       inkscape:collect="always"
       id="linearGradient1160">
      <stop
         style="stop-color:#3daee9;stop-opacity:1;"
         offset="0"
         id="stop1156" />
      <stop
         style="stop-color:#57b8ec;stop-opacity:1"
         offset="1"
         id="stop1158" />
    </linearGradient>
  </defs>
  <g
     id="22-22-view-history">
    <rect
       style="opacity:1;fill:none;stroke-width:2;stroke-linecap:square;stroke-linejoin:round"
       id="rect25342"
       width="22"
       height="22"
       x="0"
       y="0" />
    <path
       id="path25414"
       style="opacity:1;fill:currentColor;stroke-width:2;stroke-linecap:square;stroke-linejoin:round"
       class="ColorScheme-Text"
       d="M 10.724609 4 C 8.7466114 4 6.955233 4.7685794 5.6152344 6.0175781 L 4.5898438 4.9921875 C 4.35456 5.6465198 4.1386432 6.307246 3.9433594 6.9746094 C 3.7493826 7.6450427 3.5720742 8.3206487 3.4121094 9 C 4.0811077 8.8500001 4.7583601 8.6745623 5.4433594 8.4765625 C 6.1333587 8.2735627 6.7919684 8.0562654 7.4179688 7.8222656 L 6.3242188 6.7265625 C 7.5203726 5.6162326 9.092551 4.999743 10.724609 5 C 14.318605 5 17.224609 7.9060036 17.224609 11.5 C 17.224609 15.093995 14.318605 18 10.724609 18 C 7.3290038 18.0018 4.5063707 15.385914 4.25 12 L 3.25 12 C 3.5072418 15.938789 6.7774273 19.001538 10.724609 19 C 14.871604 19 18.224609 15.646995 18.224609 11.5 C 18.224609 7.3530041 14.871604 4 10.724609 4 z M 10.224609 7 L 10.224609 12.207031 L 12.621094 14.603516 L 13.328125 13.896484 L 11.224609 11.792969 L 11.224609 7 L 10.224609 7 z " />
  </g>
  <g
     id="view-history"
     transform="matrix(3.779527,0,0,3.779527,22,-9.9999936)">
    <rect
       style="opacity:1;fill:none;stroke-width:0.529167;stroke-linecap:square;stroke-linejoin:round"
       id="rect25143"
       width="8.4666662"
       height="8.4666662"
       x="0"
       y="0" />
    <path
       id="rect990"
       style="fill:#0077c4;fill-opacity:1;stroke-width:0.264583;stroke-linejoin:round"
       d="m 1.8608683,0.6614701 c -0.4005527,0 -0.704363,0.0157959 -0.94412843,0.0645955 -0.2397389,0.0488077 -0.4222097,0.13515908 -0.5462199,0.2790527 -0.1240102,0.1438937 -0.1796264,0.3304249 -0.2072225,0.5539714 -0.0276225,0.2235279 -0.0288098,0.4904358 -0.0310058,0.8211385 v 5.159e-4 3.9697835 5.292e-4 c 0.0045,0.6614054 -0.010068,1.0765657 0.1979207,1.3658082 0.1039813,0.1446213 0.2644486,0.2371823 0.4697388,0.2873208 0.20531663,0.050137 0.46118613,0.065618 0.79633383,0.065618 h 5.0270832 c 0.4005527,0 0.7044955,-0.015796 0.9441283,-0.064596 C 7.8071296,7.9563947 7.9891489,7.8702736 8.1126829,7.7261551 8.2362169,7.5820365 8.2909957,7.3952664 8.3173217,7.171667 8.3435155,6.9480729 8.3431599,6.6807408 8.3431599,6.3500117 V 2.9104284 c 0,-0.3307292 9.1e-5,-0.5980559 -0.025839,-0.8216553 C 8.2908623,1.865179 8.2362158,1.6784035 8.1126818,1.534285 7.9891479,1.3901664 7.8071286,1.3040479 7.5674955,1.2552323 7.3278637,1.2064167 7.0239209,1.1906367 6.6233682,1.1906367 H 3.7651449 L 3.1982545,0.6614701 h -0.052193 c -0.6087269,-2.646e-5 -1.2851929,0 -1.2851932,0 z" />
    <path
       id="rect1302"
       style="fill:url(#linearGradient1561);fill-opacity:1;stroke-width:0.214996;stroke-linejoin:round"
       d="M 4.271057,1.8520951 3.7041666,2.3812617 h -1.984375 c -1.57879513,0 -1.58744703,0.2636973 -1.58749993,1.5678629 v 0.019637 c 0,0.6502664 0.00497,1.3000236 0.00258,1.9471679 -5.29e-5,0.00265 -5.29e-5,0.00516 0,0.00775 0.014288,0.4667779 -0.026606,0.9623192 0.056844,1.4738117 0,0.00265 0.00258,0.00519 0.00258,0.00775 0.07067,0.3536686 0.3781045,0.5803927 0.703833,0.6216677 0.47945153,0.071353 0.94105433,0.027805 1.37097573,0.042891 0.00265,4.5e-5 0.00511,4.5e-5 0.00775,0 1.7182572,-0.00185 3.4416008,0.00651 5.1635092,-0.03359 0.00953,-9.26e-5 0.019055,-7.408e-4 0.028422,-0.00206 0.1516592,-0.023522 0.3191677,-0.069226 0.4718058,-0.1638141 0.1526381,-0.094586 0.293288,-0.251841 0.3374469,-0.4630209 0,-0.00529 0.0031,-0.010649 0.0031,-0.01602 0.079825,-0.6035146 0.040209,-1.1955364 0.053227,-1.7632 2.65e-5,-0.00185 2.65e-5,-0.00378 0,-0.00568 -0.00291,-0.926121 0.0052,-1.8560933 -0.00723,-2.7874267 C 8.2802295,2.0406752 8.0496708,1.8520951 6.7473916,1.8520951 Z"
       sodipodi:nodetypes="ccscscccccccccscccccsc" />
    <path
       d="m 4.365625,3.1750004 c -0.5233459,0 -0.9974792,0.2034646 -1.3520208,0.5339292 L 2.7424062,3.4374671 C 2.6801539,3.6105927 2.6231542,3.7855624 2.5714854,3.9621358 2.5201621,4.1395214 2.4733159,4.3181718 2.4309917,4.4979171 2.6079979,4.4582296 2.7868562,4.4119275 2.9680958,4.35954 3.1506583,4.3058296 3.3250187,4.2481504 3.4906479,4.1862379 L 3.2014583,3.8965192 C 3.5179407,3.6027441 3.9338092,3.4395157 4.365625,3.4395838 c 0.9509125,0 1.7197916,0.7688791 1.7197916,1.7197916 0,0.9509125 -0.7688791,1.7197917 -1.7197916,1.7197917 -0.8984216,4.878e-4 -1.6453457,-0.6916426 -1.7131771,-1.5875 H 2.3878646 C 2.4559266,6.3338063 3.3212657,7.1441573 4.365625,7.1437504 5.462852,7.1437504 6.35,6.2566025 6.35,5.1593754 6.35,4.0621483 5.462852,3.1750004 4.365625,3.1750004 Z m -0.1322917,0.79375 V 5.3464358 L 4.867275,5.9806421 5.0546,5.7933171 4.4979166,5.2368983 V 3.9687504 Z"
       style="font-weight:400;font-size:15px;font-family:Ubuntu;letter-spacing:0;word-spacing:0;text-anchor:middle;opacity:0.75;fill:#ffffff;stroke-width:0.264583"
       id="path23333"
       sodipodi:nodetypes="sccccccccsccccssccccccc" />
    <path
       d="M 4.271057,1.5874999 3.7041666,2.1166667 h -1.984375 c -1.57879508,0 -1.58744708,0.2636974 -1.58749998,1.5678629 v 0.019637 c 0,0.041892 4.789e-4,0.083687 5.167e-4,0.1255737 C 0.13494832,2.6312648 0.19164932,2.38125 1.7197916,2.38125 h 1.984375 L 4.271057,1.8520833 h 2.4763347 c 1.3022792,0 1.5328426,0.1885738 1.5797482,0.9828859 0.00505,0.3782017 0.00632,0.7561863 0.00672,1.1337808 h 5.292e-4 C 8.3344771,3.5031516 8.3333815,3.0369735 8.3271532,2.5703857 8.2802343,1.7760738 8.0496709,1.5874999 6.7473917,1.5874999 Z"
       style="opacity:0.1;fill:#000000;fill-opacity:1;stroke-width:0.0568844;stroke-linejoin:round"
       id="path1056" />
    <path
       id="rect2157"
       style="opacity:0.4;fill:#131313;fill-opacity:1;stroke-width:0.264583;stroke-linejoin:round"
       d="m 1.8588008,0.52917845 c -0.4036113,0 -0.7140144,0.015136 -0.96944982,0.067179 C 0.63284549,0.64863245 0.4184109,0.74614325 0.2697506,0.91881835 0.1217513,1.0907256 0.0611563,1.3069554 0.032039,1.5430697 0.002932,1.7788593 0.002192,2.0486472 0,2.3791944 v 5.16e-4 0.00103 3.9697835 0.00103 5.292e-4 c 0.00448,0.6590884 -0.021747,1.101958 0.2227254,1.442289 0.1258869,0.175248 0.3185962,0.283198 0.5446696,0.338469 0.2235998,0.05467 0.4884702,0.06925 0.8273397,0.06925 h 5.0219151 c 0.4036113,0 0.7141178,-0.01513 0.96945,-0.06718 0.256351,-0.052268 0.4703498,-0.149362 0.618567,-0.322456 C 8.3522217,7.6401341 8.4120048,7.423444 8.4397945,7.1871698 8.4673893,6.9513705 8.4666662,6.68067 8.4666662,6.3500117 V 2.9104284 c 0,-0.3307288 4.233e-4,-0.6010571 -0.026872,-0.8366414 V 2.0732711 C 8.4118765,1.8370971 8.3522532,1.6208598 8.2046668,1.4485021 8.056449,1.2754076 7.842449,1.1777995 7.5860998,1.1255244 7.3307559,1.0734543 7.0202576,1.058345 6.6166498,1.058345 H 3.8132034 L 3.2468297,0.52917845 H 3.1429601 c -0.6081031,-2.65e-5 -1.2841593,0 -1.2841593,0 z m 0,0.2645833 c 0,0 0.6760724,-2.65e-5 1.2841593,0 L 3.7093338,1.3229284 h 2.907316 c 0.3966662,0 0.6933152,0.016451 0.9167399,0.062012 0.2224196,0.045356 0.372178,0.1205022 0.4707724,0.2356446 0.099225,0.1158792 0.1486889,0.272676 0.1736328,0.4836914 0.024514,0.211614 0.024805,0.4754235 0.024805,0.8061523 V 6.350012 c 0,0.3307993 -6.72e-5,0.594764 -0.024805,0.8061524 -0.024807,0.2109242 -0.074376,0.3682923 -0.1736328,0.4842077 -0.098595,0.115143 -0.2483544,0.189775 -0.4707724,0.235128 -0.2234366,0.04555 -0.5200769,0.06201 -0.9167399,0.06201 H 1.5947343 c -0.3307304,0 -0.5776871,-0.01587 -0.76429444,-0.06149 C 0.64635895,7.8310201 0.519042,7.7538301 0.4371822,7.6398581 0.266218,7.4018584 0.2685631,7.0139901 0.2640662,6.3510485 v -5.292e-4 -3.9692542 -0.00103 c 0.00219,-0.3302618 0.00393,-0.5936068 0.029972,-0.8046021 V 1.5751162 C 0.3200552,1.3641379 0.3704912,1.2073045 0.4702548,1.0914247 0.5693578,0.97631295 0.71958582,0.90112025 0.94206066,0.85578025 1.1656585,0.81022425 1.4621378,0.79376825 1.8588005,0.79376825 Z"
       sodipodi:nodetypes="ccscccccccscsscscssccssscccccccssscsscscsscccccccccccc" />
    <path
       d="m 1.8588012,0.79375006 c -0.396611,0 -0.6926544,0.0164557 -0.9162231,0.0620117 -0.22244585,0.04534 -0.37271571,0.12053279 -0.4718058,0.23564454 -0.099751,0.1158798 -0.150203,0.272712 -0.1762166,0.4836914 v 5.159e-4 c -0.026039,0.2109962 -0.027782,0.4743403 -0.029972,0.8046029 v 0.00103 0.2635498 c 0.00219,-0.330259 0.00393,-0.5936032 0.029972,-0.8045985 v -5.159e-4 c 0.026014,-0.2109803 0.076466,-0.3678125 0.1762166,-0.4836923 0.09909,-0.1151118 0.24935993,-0.1903045 0.4718058,-0.2356445 0.2235687,-0.045556 0.5196121,-0.062012 0.9162231,-0.062012 0,0 0.6761515,-2.65e-5 1.2841593,0 L 3.7093342,1.5875 h 2.9067993 c 0.3966147,0 0.6933444,0.016451 0.91674,0.062012 0.2223908,0.045356 0.372191,0.1205022 0.4707721,0.2356446 0.099212,0.1158792 0.1486921,0.272676 0.1736328,0.4836914 0.024511,0.211614 0.024805,0.4754237 0.024805,0.8061524 V 2.9104167 c 0,-0.3307287 -2.911e-4,-0.5945383 -0.024805,-0.8061523 C 8.1523377,1.893249 8.1028574,1.7364522 8.0036456,1.620573 7.9050645,1.5054305 7.7552643,1.4302844 7.5328735,1.3849284 7.3094779,1.3393674 7.0127482,1.3229167 6.6161335,1.3229167 H 3.7093342 L 3.1429605,0.79375006 c -0.6080078,-2.651e-5 -1.2841593,0 -1.2841593,0 z"
       style="opacity:0.2;fill:#ffffff;fill-opacity:1;stroke-width:0.0699995;stroke-linejoin:round"
       id="path860" />
    <path
       d="M 4.271057,1.852095 3.7041666,2.3812617 h -1.984375 c -1.5787951,0 -1.5874471,0.2636974 -1.5875,1.5678629 v 0.019637 h 0.00155 C 0.1416016,2.8803828 0.2477096,2.645845 1.7197914,2.645845 H 3.7041666 L 4.271057,2.1166783 h 2.4763347 c 1.3022794,0 1.5328384,0.1886636 1.5797482,0.9828859 V 2.8349809 C 8.2802301,2.0407586 8.0496714,1.852095 6.7473917,1.852095 Z"
       style="opacity:0.2;fill:#ffffff;fill-opacity:1;stroke-width:0.0150507;stroke-linejoin:round"
       id="path1252" />
    <path
       id="rect4964"
       style="opacity:0.05;fill:#ffffff;stroke-width:0.999999;stroke-linejoin:round"
       d="m 31,21 -8.998047,8.998047 h 3.005859 c 1.499198,0 2.62036,-0.06222 3.464844,-0.234375 0.840635,-0.171399 1.406655,-0.453485 1.779297,-0.888672 0.375144,-0.438105 0.562492,-1.032884 0.65625,-1.830078 0.07012,-0.599211 0.08734,-1.310751 0.0918,-2.15625 z"
       transform="scale(0.26458333)" />
  </g>
  <g
     id="22-22-view-refresh">
    <rect
       style="opacity:1;fill:none;fill-opacity:1;stroke-width:2;stroke-linecap:square;stroke-linejoin:round"
       id="rect25551"
       width="22"
       height="22"
       x="0"
       y="22" />
    <path
       id="path26457"
       style="opacity:1;fill:currentColor;stroke-width:2;stroke-linecap:square;stroke-linejoin:round"
       class="ColorScheme-Text"
       d="M 11.101562 26 C 7.1966571 25.945039 4.0012862 29.09471 4 33 C 4.0009903 36.054564 5.9817033 38.756111 8.8945312 39.675781 C 11.808292 40.593368 14.980688 39.516934 16.734375 37.015625 L 17.021484 36.605469 L 16.201172 36.03125 L 15.914062 36.441406 C 14.413032 38.587547 11.692761 39.511174 9.1953125 38.722656 C 6.6971164 37.936104 4.9985017 35.619092 5 33 C 4.9985 30.380909 6.6971163 28.063895 9.1953125 27.277344 C 11.138981 26.670084 13.258009 27.090803 14.822266 28.394531 L 13.605469 29.613281 C 14.337467 29.886281 15.104158 30.141906 15.910156 30.378906 C 16.710154 30.609906 17.502158 30.814235 18.285156 30.990234 C 18.098063 30.196075 17.890966 29.40676 17.664062 28.623047 C 17.435479 27.844128 17.18341 27.072288 16.908203 26.308594 L 15.537109 27.679688 C 14.298845 26.621136 12.730394 26.027183 11.101562 26 z " />
  </g>
  <g
     id="view-refresh">
    <rect
       style="opacity:1;fill:none;fill-opacity:1;stroke-width:2;stroke-linecap:square;stroke-linejoin:round"
       id="rect26956"
       width="31.999994"
       height="31.999994"
       x="22"
       y="22" />
    <path
       id="path26997"
       style="opacity:1;fill:currentColor;stroke-width:2;stroke-linecap:square;stroke-linejoin:round"
       class="ColorScheme-Text"
       d="m 38.203125,24.002421 c -7.809866,-0.110069 -14.200692,6.189359 -14.203125,14 0.0019,6.109154 3.963357,11.512288 9.789062,13.351563 5.827525,1.835256 12.172363,-0.317627 15.679688,-5.320313 l 0.574219,-0.820312 -0.873047,-0.613282 C 46.838512,48.556753 42.592455,50.989754 38,51.000468 c -7.179695,0 -13,-5.820305 -13,-13 0,-7.179695 5.820305,-13 13,-13 3.061583,0.01054 6.021221,1.101299 8.357422,3.080078 l -3.148438,3.148438 c 1.463972,0.545988 3.001312,1.055306 4.613282,1.529296 1.599968,0.461992 3.18403,0.870663 4.75,1.222657 -0.374249,-1.587009 -0.788443,-3.164336 -1.242188,-4.730469 -0.457092,-1.559154 -0.961229,-3.104134 -1.511719,-4.632812 l -2.742187,2.74414 c -2.477035,-2.117545 -5.614705,-3.305481 -8.873047,-3.359375 z" />
  </g>
</svg>
