<?xml version="1.0" encoding="UTF-8" standalone="no"?>
<!-- Created with Inkscape (http://www.inkscape.org/) -->

<svg
   width="124"
   height="52"
   viewBox="0 0 124 52"
   version="1.1"
   id="svg5"
   inkscape:version="1.2 (dc2aedaf03, 2022-05-15)"
   sodipodi:docname="configure-icons.svg"
   xmlns:inkscape="http://www.inkscape.org/namespaces/inkscape"
   xmlns:sodipodi="http://sodipodi.sourceforge.net/DTD/sodipodi-0.dtd"
   xmlns="http://www.w3.org/2000/svg"
   xmlns:svg="http://www.w3.org/2000/svg">
  <sodipodi:namedview
     id="namedview7"
     pagecolor="#ffffff"
     bordercolor="#000000"
     borderopacity="0.25"
     inkscape:showpageshadow="2"
     inkscape:pageopacity="0.0"
     inkscape:pagecheckerboard="0"
     inkscape:deskcolor="#d1d1d1"
     inkscape:document-units="px"
     showgrid="false"
     inkscape:zoom="7.3390841"
     inkscape:cx="64.108817"
     inkscape:cy="35.494892"
     inkscape:window-width="1854"
     inkscape:window-height="1048"
     inkscape:window-x="0"
     inkscape:window-y="0"
     inkscape:window-maximized="1"
     inkscape:current-layer="svg5" />
  <defs
     id="defs2">
    <style
       id="current-color-scheme"
       type="text/css">
   .ColorScheme-Text { color:#dfdfdf; } .ColorScheme-Highlight { color:#0077c4; }
  </style>
  </defs>
  <g
     id="menu">
    <rect
       style="fill:none;stroke-width:2;stroke-linecap:round;stroke-linejoin:round"
       id="rect184"
       width="16"
       height="16"
       x="0"
       y="0" />
    <path
       id="rect290"
       style="fill:currentColor;stroke-width:2;stroke-linecap:round;stroke-linejoin:round"
       class="ColorScheme-Text"
       d="M 3,3 V 4 H 13 V 3 Z M 3,7 V 8 H 13 V 7 Z m 0,4 v 1 h 10 v -1 z" />
  </g>
  <g
     id="configure"
     transform="translate(39.999992,-66)">
    <rect
       style="opacity:1;fill:none;fill-opacity:1;stroke-width:1.45455;stroke-linecap:round;stroke-linejoin:round"
       id="rect19183"
       width="16"
       height="16.000006"
       x="-21.999992"
       y="66" />
    <path
       id="path19200"
       class="ColorScheme-Text"
       style="opacity:1;fill:currentColor;fill-opacity:1;stroke-width:2;stroke-linecap:round;stroke-linejoin:round"
       d="m -15.326165,66.11912 v 1.005859 c -0.734874,0.139239 -1.44646,0.393165 -2.103516,0.757812 l -0.648437,-0.773437 -2.005859,1.705078 0.638672,0.759766 c -0.232345,0.285644 -0.446908,0.590853 -0.636719,0.919922 -0.191531,0.332051 -0.35082,0.67404 -0.482422,1.021484 l -0.996094,-0.177734 -0.439453,2.595703 0.986328,0.173828 c 0.01393,0.749824 0.147934,1.490685 0.394531,2.195312 l -0.888671,0.513672 h -0.002 l 1.332032,2.271485 0.878906,-0.507813 c 0.476856,0.54996 1.04736,1.033661 1.705078,1.425781 l -0.353516,0.97461 2.478516,0.884765 0.347656,-0.958984 c 0.742618,0.119532 1.492675,0.119007 2.222657,0.002 l 0.353515,0.972656 2.46875,-0.917968 -0.345703,-0.951172 c 0.6322452,-0.375539 1.2090074,-0.855367 1.7050789,-1.429688 l 0.890625,0.513672 1.3007813,-2.287109 -0.875,-0.50586 c 0.2487087,-0.716532 0.3734785,-1.456209 0.3828125,-2.191406 l 1.0176241,-0.179734 -0.4746094,-2.589844 -1.0019531,0.175781 c -0.2627237,-0.690987 -0.6358425,-1.343859 -1.109375,-1.927734 l 0.6621094,-0.789063 -2.0273438,-1.679687 -0.6503909,0.77539 c -0.669584,-0.375331 -1.375011,-0.629108 -2.091797,-0.767578 V 66.11912 Z m 1.310547,1.878906 c 3.313705,0 6.0000008,2.686293 6.0000008,6 0,3.313705 -2.6862958,6 -6.0000008,6 -3.313706,0 -6,-2.686295 -6,-6 0,-3.313707 2.686294,-6 6,-6 z m 0.0098,1.001953 c -0.120843,-2.39e-4 -0.241154,0.0033 -0.361329,0.01172 -1.602346,0.11249 -3.121863,0.990524 -3.982421,2.482422 -1.376888,2.387054 -0.553068,5.453418 1.835937,6.833984 2.389026,1.380578 5.453192,0.560874 6.830079,-1.826172 1.3768877,-2.387054 0.5530772,-5.451455 -1.835938,-6.832032 -0.783894,-0.453013 -1.640456,-0.668245 -2.486328,-0.669922 z m -0.0098,0.998047 c 2.209137,0 4,1.790863 4,4 0,2.209136 -1.790863,4 -4,4 -2.209137,0 -4,-1.790864 -4,-4 0,-2.209137 1.790863,-4 4,-4 z" />
  </g>
  <g
     id="rotate"
     transform="translate(3.9999996,-1.5132129e-5)">
    <rect
       style="fill:none;fill-opacity:1;stroke-width:2;stroke-linecap:round;stroke-linejoin:round"
       id="rect4675"
       width="16"
       height="15.999992"
       x="32"
       y="1.5132129e-05" />
    <path
       id="path4759"
       style="fill:currentColor;fill-opacity:1;stroke-width:2;stroke-linecap:round;stroke-linejoin:round"
       class="ColorScheme-Text"
       d="M 39.912109,1 C 39.799502,1.00105 39.68715,1.00521 39.574219,1.011719 38.765175,1.060223 37.970755,1.2492448 37.226562,1.5703127 34.179128,2.8872843 32.474633,6.162522 33.144531,9.4140627 33.817933,12.664626 36.680417,14.996206 40,14.998047 h 0.5 v -0.0332 L 40.833984,14.943357 40.767574,13.94531 40,13.998047 h -0.002 c -2.846332,10e-4 -5.301134,-1.999227 -5.875,-4.7871095 -0.577521,-2.7876625 0.885121,-5.5970453 3.5,-6.7226563 2.072247,-0.8894742 4.468349,-0.540813 6.201172,0.9023438 l -1.21875,1.2207031 c 0.731998,0.2729996 1.498689,0.5286256 2.304687,0.765625 0.799998,0.2309996 1.592002,0.4353285 2.375,0.6113281 C 47.098114,5.1941283 46.890966,4.4048072 46.664062,3.6210938 46.435479,2.8421732 46.18341,2.0703351 45.908203,1.3066406 l -1.375,1.3769532 C 43.244151,1.5802413 41.601216,0.98430079 39.912109,1 Z M 40,5.9980469 c -1.104568,0 -2,0.8954316 -2,2 0,1.1045689 0.895432,2 2,2 1.104568,0 2,-0.8954311 2,-2 0,-1.1045684 -0.895432,-2 -2,-2 z m 0,1 c 0.552284,0 1,0.4477158 1,1 0,0.5522844 -0.447716,1 -1,1 -0.552284,0 -1,-0.4477156 -1,-1 0,-0.5522842 0.447716,-1 1,-1 z m 5.212891,3.9726561 -0.457032,0.683594 -0.07227,0.08398 0.75,0.660157 0.0918,-0.103516 0.03906,-0.05078 0.480469,-0.71875 z m -1.169922,1.445313 -0.396485,0.345703 -0.339843,0.226562 0.554687,0.832031 0.367188,-0.24414 0.05078,-0.03906 0.421875,-0.36914 z m -1.550781,1.027343 -0.199219,0.09766 -0.675781,0.230468 0.322265,0.947266 0.716797,-0.246094 0.06055,-0.02344 0.216797,-0.109375 z" />
  </g>
  <g
     id="move">
    <rect
       style="fill:none;fill-opacity:1;stroke-width:2;stroke-linecap:round;stroke-linejoin:round"
       id="rect9281"
       width="16"
       height="15.999992"
       x="54"
       y="1.5195459e-05" />
    <path
       id="path9335"
       style="fill:currentColor;fill-opacity:1;stroke-width:2;stroke-linecap:round;stroke-linejoin:round"
       class="ColorScheme-Text"
       d="m 62,2 c -0.891718,0.8488254 -2,3 -2,3 h 4 C 64,5 62.933645,2.8395164 62,2 Z m -3,4 c 0,0 -2.151175,1.1082819 -3,2 0.839516,0.9336451 3,2 3,2 z m 6,0 v 4 C 65,10 67.160484,8.9336451 68,8 67.151175,7.1082819 65,6 65,6 Z m -3,1 a 1,1 0 0 0 -1,1 1,1 0 0 0 1,1 1,1 0 0 0 1,-1 1,1 0 0 0 -1,-1 z m -2,4 c 0,0 1.108282,2.151175 2,3 0.933645,-0.839516 2,-3 2,-3 z" />
  </g>
  <g
     id="size-vertical">
    <rect
       style="fill:none;fill-opacity:1;stroke-width:2;stroke-linecap:round;stroke-linejoin:round"
       id="rect9492"
       width="16"
       height="15.999992"
       x="72"
       y="1.5195459e-05" />
    <path
       id="path9494"
       style="fill:currentColor;fill-opacity:1;stroke-width:2;stroke-linecap:round;stroke-linejoin:round"
       class="ColorScheme-Text"
       d="m 80,2 c -0.891718,0.8488254 -2,3 -2,3 h 4 C 82,5 80.933645,2.8395164 80,2 Z m 0,5 a 1,1 0 0 0 -1,1 1,1 0 0 0 1,1 1,1 0 0 0 1,-1 1,1 0 0 0 -1,-1 z m -2,4 c 0,0 1.108282,2.151175 2,3 0.933645,-0.839516 2,-3 2,-3 z" />
  </g>
  <g
     id="size-horizonal">
    <rect
       style="fill:none;fill-opacity:1;stroke-width:2;stroke-linecap:round;stroke-linejoin:round"
       id="rect9523"
       width="16"
       height="15.999992"
       x="90"
       y="1.5195459e-05" />
    <path
       id="path9594"
       style="fill:currentColor;fill-opacity:1;stroke-width:2;stroke-linecap:round;stroke-linejoin:round"
       class="ColorScheme-Text"
       d="m 95,6 c 0,0 -2.151175,1.1082819 -3,2 0.839516,0.9336451 3,2 3,2 z m 6,0 v 4 c 0,0 2.16048,-1.0663549 3,-2 -0.84883,-0.8917181 -3,-2 -3,-2 z m -3,1 c -0.552285,0 -1,0.4477153 -1,1 0,0.5522847 0.447715,1 1,1 0.552285,0 1,-0.4477153 1,-1 0,-0.5522847 -0.447715,-1 -1,-1 z"
       sodipodi:nodetypes="ccccccccsssss" />
  </g>
  <g
     id="size-diagonal-tr2bl"
     transform="translate(0,-1.5258789e-5)">
    <rect
       style="fill:none;fill-opacity:1;stroke-width:2;stroke-linecap:round;stroke-linejoin:round"
       id="rect16769"
       width="16"
       height="15.999992"
       x="108"
       y="1.5258789e-05" />
    <path
       d="M 113,14.000017 V 13.00003 h -2.29297 L 114,9.707041 113.29297,9.000042 110,12.292994 V 10.00003 h -1 v 3.999987 z m 6,-12 v 0.999987 h 2.29297 L 118,6.292993 118.70703,6.999992 122,3.70704 v 2.292964 h 1 V 2.000017 Z M 117,2 v 1 h -4.00781 c -1.259,0.015 -2.08713,0.05972 -2.45313,0.261719 -0.183,0.1 -0.28972,0.212656 -0.38672,0.472656 -0.097,0.26 -0.16015,0.673627 -0.16015,1.265625 v 3 h -0.98828 V 5 c 0,-0.657998 0.0606,-1.179188 0.22461,-1.617188 0.15141,-0.421935 0.4485,-0.77593 0.83789,-0.998046 0.753,-0.416 1.67364,-0.369766 2.93164,-0.384766 z m 5.99609,6 v 3 c 0,0.657998 -0.0596,1.179188 -0.22461,1.617188 -0.165,0.438998 -0.46089,0.790048 -0.83789,0.998046 C 121.1806,14.031234 120.25995,13.985 119.00195,14 H 115 v -1 h 3.99609 c 1.258,-0.015 2.08908,-0.05972 2.45508,-0.261719 0.183,-0.1 0.28677,-0.212656 0.38477,-0.472656 0.098,-0.26 0.16015,-0.673627 0.16015,-1.265625 V 8 Z"
       style="fill:currentColor;fill-opacity:1;stroke:none;stroke-width:3.77953"
       class="ColorScheme-Text"
       id="path16887" />
  </g>
  <g
     id="help"
     transform="translate(0,4)">
    <rect
       style="fill:none;stroke-width:2;stroke-linecap:round;stroke-linejoin:round"
       id="rect1046"
       width="16"
       height="16"
       x="-3.7060548e-07"
       y="32" />
    <path
       id="path3413"
       style="fill:currentColor;fill-opacity:1;stroke-width:2;stroke-linecap:round;stroke-linejoin:round"
       class="ColorScheme-Text"
       d="M 7.9999996,32 A 8,8 0 0 0 -3.7060547e-7,40 8,8 0 0 0 7.9999996,48 8,8 0 0 0 16,40 8,8 0 0 0 7.9999996,32 Z m 0,1 A 7,7 0 0 1 15,40 7,7 0 0 1 7.9999996,47 7,7 0 0 1 0.99999963,40 7,7 0 0 1 7.9999996,33 Z m 0.230469,1.998047 v 0.002 c -0.44423,4e-5 -0.865519,0.05093 -1.261719,0.152343 -0.35967,0.0942 -0.678307,0.222414 -0.972656,0.371094 l 0.300781,0.832031 c 0.573299,-0.291009 1.161672,-0.451171 1.763672,-0.451171 0.506099,0 0.907184,0.134146 1.183594,0.410156 0.272739,0.26298 0.412109,0.61515 0.412109,1.03125 0,0.25941 -0.061221,0.501596 -0.181641,0.722656 -0.10768,0.21489 -0.249598,0.419681 -0.423828,0.613281 -0.17065,0.18961 -0.349642,0.37893 -0.539062,0.56836 l -0.00195,0.002 c -0.1846,0.17537 -0.360674,0.369071 -0.527344,0.582031 l -0.00195,0.002 c -0.16393,0.20035 -0.298743,0.417407 -0.408203,0.654297 -0.0974,0.23103 -0.148438,0.490007 -0.148438,0.779297 0,0.17351 0.019875,0.337244 0.046875,0.496094 h 0.90625 c -7.4e-4,-0.0194 -0.00391,-0.03839 -0.00391,-0.05859 v -0.154297 c 0,-0.32294 0.064079,-0.617713 0.193359,-0.876953 0.1256,-0.26086 0.278991,-0.497678 0.462891,-0.710938 h 0.00195 v -0.002 c 0.18149,-0.21952 0.382433,-0.428836 0.601562,-0.628906 0.21328,-0.19473 0.4081554,-0.398488 0.5839854,-0.611328 0.17393,-0.21054 0.31863,-0.436378 0.4375,-0.673828 0.1153,-0.23959 0.173828,-0.51094 0.173828,-0.81836 0,-0.243279 -0.03885,-0.496939 -0.121094,-0.761718 l -0.002,-0.002 v -0.002 c -0.0712,-0.267079 -0.203051,-0.505413 -0.40039,-0.720703 -0.19548,-0.21325 -0.4591764,-0.390434 -0.7968764,-0.527343 h -0.00586 c -0.32127,-0.14279 -0.744295,-0.21872 -1.271484,-0.21875 z m -0.226563,8.304687 c -0.270719,0 -0.468411,0.08256 -0.61914,0.25 -0.15477,0.17198 -0.228516,0.365267 -0.228516,0.597657 0,0.232379 0.073836,0.425686 0.228516,0.597656 0.150729,0.16747 0.348421,0.25 0.61914,0.25 0.27075,0 0.468411,-0.08254 0.619141,-0.25 0.15476,-0.17197 0.228516,-0.365277 0.228515,-0.597656 0,-0.23239 -0.073725,-0.425677 -0.228515,-0.597657 -0.15073,-0.167469 -0.348391,-0.25 -0.619141,-0.25 z" />
  </g>
  <g
     id="delete"
     transform="translate(2,4)">
    <rect
       style="fill:none;fill-opacity:1;stroke-width:2;stroke-linecap:round;stroke-linejoin:round"
       id="rect4044"
       width="16"
       height="16"
       x="16"
       y="32" />
    <path
       id="rect4115"
       style="fill:#da1636;fill-opacity:1;stroke-width:2.25;stroke-linecap:round;stroke-linejoin:round"
       d="m 23.5,32 c -1.099999,0 -2.146484,0.320313 -2.146485,0.320312 L 21,32.427734 v 1.683594 C 19.970371,34.293786 18.964608,34.591683 18.001953,35 L 18,36 h -1 v 1 h 1 l 0.0039,9 c 0,0.439 0.03844,0.788032 0.148438,1.082031 0.111,0.294 0.312453,0.527969 0.564453,0.667969 C 19.137759,48 19.836917,48 20.669916,48 h 5.664062 c 0.832999,0 1.434501,0 1.953125,-0.25 0.252,-0.14 0.448594,-0.373969 0.558594,-0.667969 C 28.955703,46.788032 29,46.439 29,46 l -0.002,-8 h -1 L 28,46 c 0,0.376 -0.03989,0.602516 -0.08789,0.728516 -0.034,0.09 -0.07933,0.129484 -0.111328,0.146484 C 27.627782,46.972 27.190984,47 26.333985,47 H 20.669923 C 19.812924,47 19.373219,46.972 19.19922,46.875 19.14539,46.84132 19.107,46.78908 19.087892,46.728516 v -0.002 C 19.041891,46.604563 19.003906,46.379 19.003906,46 V 45.998 L 19,37 H 30 V 36 H 28.998047 L 29,35 C 28.036778,34.591337 27.03036,34.293431 26,34.111328 V 32.449219 L 25.669922,32.330078 C 25.669922,32.330078 24.756999,32 23.5,32 Z m 0,1 c 0.889999,0 1.29,0.15375 1.5,0.21875 v 0.740234 C 24.502519,33.904324 24.002425,33.8763 23.501953,33.875 22.999954,33.875 22.498999,33.906938 22,33.960938 V 33.226562 C 22.266,33.156563 22.772001,33 23.5,33 Z M 21,38 v 6 h 1 v -6 z m 2,0 v 6 h 1 v -6 z m 2,0 v 6 h 1 v -6 z"
       sodipodi:nodetypes="scccccccccccsscsccccccsscccscccccccccsscccccsccccccccccccccc" />
  </g>
  <g
     id="add">
    <rect
       style="fill:none;fill-opacity:1;stroke-width:2;stroke-linecap:round;stroke-linejoin:round"
       id="rect4261"
       width="16"
       height="16"
       x="36"
       y="36" />
    <path
       id="rect9847"
       style="fill:currentColor;fill-opacity:1;stroke-width:2;stroke-linecap:round;stroke-linejoin:round"
       class="ColorScheme-Text"
       d="m 43,38 v 5 h -5 v 1 h 5 v 5 h 1 v -5 h 5 v -1 h -5 v -5 z"
       sodipodi:nodetypes="ccccccccccccc" />
  </g>
  <g
     id="remove">
    <rect
       style="fill:none;fill-opacity:1;stroke-width:2;stroke-linecap:round;stroke-linejoin:round"
       id="rect4263"
       width="16"
       height="15.999992"
       x="54"
       y="36.000008" />
    <rect
       style="fill:currentColor;fill-opacity:1;stroke-width:2;stroke-linecap:round;stroke-linejoin:round"
       class="ColorScheme-Text"
       id="rect9849"
       width="11"
       height="1"
       x="56"
       y="43.000004" />
  </g>
  <g
     id="filter"
     transform="translate(-36)">
    <rect
       style="fill:none;fill-opacity:1;stroke-width:2;stroke-linecap:round;stroke-linejoin:round"
       id="rect6581"
       width="16"
       height="15.999992"
       x="108"
       y="36.000008" />
    <path
       id="rect5475"
       style="fill:currentColor;stroke-width:2;stroke-linecap:round;stroke-linejoin:round"
       class="ColorScheme-Text"
       d="m 110,38 h 12 v 1 l -5,5 v 7 l -1,-2e-5 L 115,49 v -5 l -5,-5 z"
       sodipodi:nodetypes="cccccccccc" />
  </g>
  <g
     id="close"
     transform="translate(-18)">
    <rect
       style="fill:none;fill-opacity:1;stroke-width:2;stroke-linecap:round;stroke-linejoin:round"
       id="rect7395"
       width="16"
       height="15.999992"
       x="108"
       y="36.000008" />
    <path
       d="m 112.795,39.912004 3.205,3.205 3.205,-3.205 0.883,0.883 -3.205,3.205 3.205,3.205 -0.883,0.883 -3.205,-3.205 -3.204,3.205 -0.883,-0.883 3.204,-3.205 -3.205,-3.205 z"
       style="fill:currentColor;fill-opacity:1;stroke-width:2;stroke-linecap:round;stroke-linejoin:round"
       class="ColorScheme-Text"
       id="path7913" />
  </g>
  <g
     id="showbackground">
    <rect
       style="fill:none;fill-opacity:1;stroke-width:2;stroke-linecap:round;stroke-linejoin:round"
       id="rect10299"
       width="16"
       height="15.999992"
       x="108"
       y="36.000008" />
    <path
       d="m 112,37.000003 c -1.662,0 -3,1.338001 -3,2.999999 v 8.000002 c 0,1.661998 1.338,3 3,3 h 8 c 1.662,0 3,-1.338002 3,-3 v -8.000002 c 0,-1.661998 -1.338,-2.999999 -3,-2.999999 z m 0,1.000002 h 8 c 1.108,0 2,0.891998 2,1.999997 v 8.000002 c 0,1.107998 -0.892,1.999997 -2,1.999997 h -8 c -1.108,0 -2,-0.891999 -2,-1.999997 v -8.000002 c 0,-1.107999 0.892,-1.999997 2,-1.999997 z m 2,2.999996 c -0.554,0 -1,0.445999 -1,1.000002 v 3.999999 c 0,0.554003 0.446,0.999999 1,0.999999 h 4 c 0.554,0 1,-0.445996 1,-0.999999 v -3.999999 c 0,-0.554003 -0.446,-1.000002 -1,-1.000002 z"
       style="fill:currentColor;stroke-width:3.77953;fill-opacity:1"
       class="ColorScheme-Text"
       id="path17017" />
  </g>
  <g
     id="return-to-source"
     transform="translate(-18)">
    <rect
       style="fill:none;fill-opacity:1;stroke-width:2;stroke-linecap:round;stroke-linejoin:round"
       id="rect10572"
       width="16"
       height="16"
       x="90"
       y="18.000008" />
    <path
       id="rect10587"
       style="fill:currentColor;fill-opacity:1;stroke-width:2;stroke-linecap:round;stroke-linejoin:round"
       class="ColorScheme-Text"
       d="m 95.994141,20 c -1.257998,0.015 -2.178643,-0.03023 -2.931641,0.384766 -0.389009,0.222298 -0.686728,0.576272 -0.837891,0.998046 C 92.059611,21.819812 92,22.343002 92,23 v 6 c 0,0.657998 0.05961,1.179188 0.224609,1.617188 0.164,0.438998 0.461891,0.790048 0.837891,0.998046 0.752998,0.416 1.673643,0.369766 2.931641,0.384766 h 4.011719 c 1.258,-0.015 2.17864,0.03023 2.93164,-0.384766 0.38938,-0.222115 0.68647,-0.576111 0.83789,-0.998046 C 103.93939,30.179188 104,29.656998 104,29 v -6 c 0,-0.657998 -0.0596,-1.179188 -0.22461,-1.617188 -0.15142,-0.421935 -0.44851,-0.77593 -0.83789,-0.998046 C 102.1855,19.968766 101.26386,20.015 100.00586,20 H 95.998047 Z M 96,21 h 4 l -2,2 z m -3,4 h 10 v 2 H 93 Z m 5,4 2,2 h -4 z"
       sodipodi:nodetypes="cccssccccccsscccccccccccccccccc" />
  </g>
  <g
     id="collapse">
    <rect
       style="fill:none;fill-opacity:1;stroke-width:2;stroke-linecap:round;stroke-linejoin:round"
       id="rect10826"
       width="16"
       height="16"
       x="90"
       y="18.000008" />
    <path
       id="path10600"
       style="fill:currentColor;fill-opacity:1;stroke-width:1.63299;stroke-linecap:round;stroke-linejoin:round"
       class="ColorScheme-Text"
       d="m 96,21 2,2 2,-2 z m -4,5 v 1 h 12 v -1 z m 6,4 -2,2 h 4 z"
       sodipodi:nodetypes="ccccccccccccc" />
  </g>
  <g
     id="restore">
    <rect
       style="fill:none;fill-opacity:1;stroke-width:2;stroke-linecap:round;stroke-linejoin:round"
       id="rect10939"
       width="16"
       height="16"
       x="108"
       y="18.000008" />
    <path
       id="rect10941"
       style="fill:currentColor;fill-opacity:1;stroke-width:2;stroke-linecap:round;stroke-linejoin:round"
       class="ColorScheme-Text"
       d="m 116,21 -2,2 h 4 z m -6,5 v 1 h 12 v -1 z m 4,4 2,2 2,-2 z"
       sodipodi:nodetypes="ccccccccccccc" />
  </g>
  <g
     id="size-diagonal-tl2br">
    <rect
       style="fill:none;fill-opacity:1;stroke-width:2;stroke-linecap:round;stroke-linejoin:round"
       id="rect16396"
       width="16"
       height="16"
       x="0"
       y="18" />
    <path
       id="rect16417"
       style="fill:currentColor;fill-opacity:1;stroke-width:2;stroke-linecap:round;stroke-linejoin:round"
       class="ColorScheme-Text"
       d="M 1 20 L 1 24 L 2 24 L 2 21.707031 L 5.2929688 25 L 6 24.292969 L 2.7070312 21 L 5 21 L 5 20 L 1 20 z M 7 20 L 7 21 L 11.007812 21 C 12.266809 21.015 13.094939 21.05972 13.460938 21.261719 C 13.643936 21.361719 13.750656 21.474375 13.847656 21.734375 C 13.944656 21.994375 14.007813 22.408003 14.007812 23 L 14.007812 26 L 14.996094 26 L 14.996094 23 C 14.996094 22.342003 14.935484 21.820812 14.771484 21.382812 C 14.620072 20.960878 14.322976 20.606881 13.933594 20.384766 C 13.180596 19.968766 12.25995 20.015 11.001953 20 L 7 20 z M 1.0039062 26 L 1.0039062 29 C 1.0039062 29.657997 1.0635164 30.179188 1.2285156 30.617188 C 1.3935152 31.056185 1.6894074 31.407237 2.0664062 31.615234 C 2.819404 32.031234 3.7400506 31.985 4.9980469 32 L 9 32 L 9 31 L 5.0039062 31 C 3.7459101 30.985 2.9148271 30.94028 2.5488281 30.738281 C 2.3658287 30.638281 2.2620623 30.525625 2.1640625 30.265625 C 2.0660627 30.005625 2.0039062 29.591997 2.0039062 29 L 2.0039062 26 L 1.0039062 26 z M 10.707031 27 L 10 27.707031 L 13.292969 31 L 11 31 L 11 32 L 15 32 L 15 28 L 14 28 L 14 30.292969 L 10.707031 27 z " />
  </g>
  <g
     id="maximize">
    <rect
       style="fill:none;fill-opacity:1;stroke-width:2;stroke-linecap:round;stroke-linejoin:round"
       id="rect16398"
       width="16"
       height="16.000008"
       x="18"
       y="18" />
    <path
       id="path16597"
       style="fill:currentColor;fill-opacity:1;stroke-width:2;stroke-linecap:round;stroke-linejoin:round"
       class="ColorScheme-Text"
       d="M 22.998047 20 C 21.74005 20.015 20.819403 19.96977 20.066406 20.384766 C 19.677023 20.606881 19.379928 20.960878 19.228516 21.382812 C 19.063516 21.820812 19.003906 22.343003 19.003906 23 L 19.003906 29 C 19.003906 29.657997 19.063517 30.179188 19.228516 30.617188 C 19.393514 31.056185 19.689408 31.407237 20.066406 31.615234 C 20.819403 32.031234 21.74005 31.985 22.998047 32 L 29.001953 32 C 30.25995 31.985 31.181596 32.03023 31.933594 31.615234 C 32.322976 31.39312 32.620072 31.039122 32.771484 30.617188 C 32.935484 30.179188 32.996093 29.656997 32.996094 29 L 32.996094 26 L 32.007812 26 L 32.007812 29 C 32.007812 29.591997 31.944652 30.005625 31.847656 30.265625 C 31.749656 30.525625 31.644936 30.637281 31.460938 30.738281 C 31.094935 30.940281 30.266809 30.985 29.007812 31 L 23.003906 31 C 21.745911 30.985 20.914827 30.94028 20.548828 30.738281 C 20.365828 30.638281 20.262062 30.525625 20.164062 30.265625 C 20.066064 30.005625 20.003906 29.591997 20.003906 29 L 20.003906 23 C 20.003906 22.408003 20.067068 21.994375 20.164062 21.734375 C 20.262062 21.474375 20.365828 21.362719 20.548828 21.261719 C 20.914797 21.059719 21.74591 21.015 23.003906 21 L 23.007812 21 L 27 21 L 27 20 L 22.998047 20 z M 29 20 L 29 21 L 31.292969 21 L 28 24.292969 L 28.707031 25 L 32 21.707031 L 32 24 L 33 24 L 33 20 L 29 20 z " />
  </g>
  <g
     id="unmaximize">
    <rect
       style="fill:none;fill-opacity:1;stroke-width:2;stroke-linecap:round;stroke-linejoin:round"
       id="rect16400"
       width="16"
       height="15.999992"
       x="36"
       y="18" />
    <path
       id="path16638"
       style="fill:currentColor;fill-opacity:1;stroke-width:2;stroke-linecap:round;stroke-linejoin:round"
       class="ColorScheme-Text"
       d="M 40.998047 20 C 39.74005 20.015 38.819403 19.96977 38.066406 20.384766 C 37.677023 20.606881 37.379928 20.960878 37.228516 21.382812 C 37.063516 21.820812 37.003906 22.343003 37.003906 23 L 37.003906 29 C 37.003906 29.657997 37.063517 30.179188 37.228516 30.617188 C 37.393514 31.056185 37.689408 31.407237 38.066406 31.615234 C 38.819403 32.031234 39.74005 31.985 40.998047 32 L 47.001953 32 C 48.25995 31.985 49.181596 32.03023 49.933594 31.615234 C 50.322976 31.39312 50.620072 31.039122 50.771484 30.617188 C 50.935484 30.179188 50.996093 29.656997 50.996094 29 L 50.996094 26 L 50.007812 26 L 50.007812 29 C 50.007812 29.591997 49.944652 30.005625 49.847656 30.265625 C 49.749656 30.525625 49.644936 30.637281 49.460938 30.738281 C 49.094935 30.940281 48.266809 30.985 47.007812 31 L 41.003906 31 C 39.745911 30.985 38.914827 30.94028 38.548828 30.738281 C 38.365828 30.638281 38.262062 30.525625 38.164062 30.265625 C 38.066064 30.005625 38.003906 29.591997 38.003906 29 L 38.003906 23 C 38.003906 22.408003 38.067068 21.994375 38.164062 21.734375 C 38.262062 21.474375 38.365828 21.362719 38.548828 21.261719 C 38.914797 21.059719 39.74591 21.015 41.003906 21 L 41.007812 21 L 45 21 L 45 20 L 40.998047 20 z M 50.292969 20 L 47 23.292969 L 47 21 L 46 21 L 46 25 L 50 25 L 50 24 L 47.707031 24 L 51 20.707031 L 50.292969 20 z " />
  </g>
  <g
     id="status">
    <rect
       style="fill:none;fill-opacity:1;stroke-width:2;stroke-linecap:round;stroke-linejoin:round"
       id="rect16402"
       width="16"
       height="15.999992"
       x="54"
       y="18.000015" />
    <path
       id="rect17405"
       style="fill:currentColor;fill-opacity:1;stroke-width:2;stroke-linecap:round;stroke-linejoin:round"
       class="ColorScheme-Text"
       d="M 58.994141 19 C 57.735952 19.0145 56.815199 18.969396 56.0625 19.384766 C 55.68613 19.592425 55.389269 19.944153 55.224609 20.382812 C 55.05994 20.821482 55 21.342381 55 22 L 55 30 C 55 30.657609 55.0599 31.178588 55.224609 31.617188 C 55.389289 32.055797 55.68614 32.405711 56.0625 32.613281 C 56.815219 33.028411 57.736052 32.98493 58.994141 33 L 58.996094 33 L 65.001953 33 L 65.005859 33 C 66.264058 32.9855 67.184801 33.030604 67.9375 32.615234 C 68.31387 32.407575 68.610721 32.055847 68.775391 31.617188 C 68.93992 31.178518 69 30.657619 69 30 L 69 22 C 69 21.342391 68.9401 20.821412 68.775391 20.382812 C 68.610711 19.944203 68.31386 19.594289 67.9375 19.386719 C 67.184781 18.971589 66.263858 19.01507 65.005859 19 L 65.003906 19 L 58.998047 19 L 58.994141 19 z M 59 20 L 65 20 C 66.258599 20.0152 67.089078 20.059899 67.455078 20.261719 C 67.638498 20.362879 67.742304 20.474575 67.839844 20.734375 C 67.937244 20.994155 68 21.407631 68 22 L 68 30 C 68 30.592389 67.937394 31.005735 67.839844 31.265625 C 67.742244 31.525535 67.638488 31.637091 67.455078 31.738281 C 67.089118 31.940201 66.258499 31.98529 65 32 L 59.005859 32 L 59 32 C 57.741411 31.9848 56.910922 31.940101 56.544922 31.738281 C 56.361502 31.637121 56.257696 31.525425 56.160156 31.265625 C 56.062656 31.005845 56 30.592369 56 30 L 56 22 C 56 21.407611 56.062596 20.994265 56.160156 20.734375 C 56.257756 20.474465 56.363465 20.362909 56.546875 20.261719 C 56.912825 20.059809 57.741511 20.0147 59 20 z M 66.433594 22 C 66.433594 22 65.650793 22.174273 65.376953 22.439453 C 65.103123 22.704623 64.915708 23.042493 64.767578 23.414062 C 64.471318 24.157222 64.325192 25.015538 64.195312 25.898438 C 64.065423 26.781227 63.954925 27.646382 63.796875 28.238281 C 63.717875 28.534241 63.623451 28.756628 63.550781 28.861328 C 63.478081 28.966038 63.487284 28.947266 63.458984 28.947266 C 63.414284 28.947266 63.371084 28.939256 63.277344 28.847656 C 63.183644 28.756956 63.064579 28.584549 62.949219 28.355469 C 62.718499 27.897309 62.501444 27.221902 62.302734 26.533203 C 62.104025 25.844544 61.9212 24.967143 61.712891 24.402344 C 61.353441 23.794704 61.193373 23.407822 60.115234 23.132812 C 59.283585 23.150512 58.823184 23.570022 58.458984 25.025391 C 58.395284 25.37835 58.332245 26.715703 58.265625 26.908203 C 58.244925 26.967603 58.235756 26.976 58.222656 27 L 57.003906 27.5 L 58.337891 28.052734 C 58.57376 28.108534 58.81212 27.911709 58.943359 27.755859 C 59.074589 27.60005 59.145435 27.436251 59.203125 27.269531 C 59.120025 24.712734 59.902734 23.161505 60.783203 24.783203 C 60.960423 25.263693 61.144226 26.134744 61.347656 26.839844 C 61.551076 27.544883 61.770757 28.26241 62.066406 28.849609 C 62.214236 29.143169 62.382786 29.409007 62.603516 29.623047 C 62.824255 29.837067 63.124535 30 63.458984 30 C 63.831264 30 64.162719 29.762015 64.355469 29.484375 C 64.548229 29.206705 64.661803 28.88494 64.757812 28.525391 C 64.949832 27.806291 65.054341 26.923793 65.181641 26.058594 C 65.30894 25.193395 65.46114 24.392018 65.6875 23.824219 C 65.80068 23.540299 65.931724 23.332044 66.052734 23.214844 C 66.173754 23.097654 66.288678 23.008692 66.455078 23.007812 C 66.773658 23.000813 67.006476 22.72889 67.003906 22.5 C 66.985806 22.2513 66.814973 21.98307 66.433594 22 z " />
  </g>
</svg>
