<?xml version="1.0" encoding="UTF-8" standalone="no"?>
<!-- Created with Inkscape (http://www.inkscape.org/) -->

<svg
   width="148"
   height="148"
   viewBox="0 0 148 148.00001"
   version="1.1"
   id="svg4404"
   inkscape:version="1.2 (dc2aedaf03, 2022-05-15)"
   sodipodi:docname="background.svg"
   xmlns:inkscape="http://www.inkscape.org/namespaces/inkscape"
   xmlns:sodipodi="http://sodipodi.sourceforge.net/DTD/sodipodi-0.dtd"
   xmlns:xlink="http://www.w3.org/1999/xlink"
   xmlns="http://www.w3.org/2000/svg"
   xmlns:svg="http://www.w3.org/2000/svg">
  <sodipodi:namedview
     id="namedview4406"
     pagecolor="#ffffff"
     bordercolor="#000000"
     borderopacity="0.25"
     inkscape:showpageshadow="2"
     inkscape:pageopacity="0.0"
     inkscape:pagecheckerboard="0"
     inkscape:deskcolor="#d1d1d1"
     inkscape:document-units="px"
     showgrid="false"
     inkscape:zoom="16"
     inkscape:cx="28.46875"
     inkscape:cy="67.65625"
     inkscape:window-width="1920"
     inkscape:window-height="1006"
     inkscape:window-x="0"
     inkscape:window-y="0"
     inkscape:window-maximized="1"
     inkscape:current-layer="bottom" />
  <defs
     id="defs4401">
    <linearGradient
       gradientTransform="matrix(1.8125001,0,0,0.5,-86.625818,10.500304)"
       y2="225.51292"
       x2="65"
       y1="233"
       x1="65"
       gradientUnits="userSpaceOnUse"
       id="linearGradient3908"
       xlink:href="#linearGradient3809-7"
       inkscape:collect="always" />
    <linearGradient
       id="linearGradient3809-7">
      <stop
         id="stop3811-0"
         offset="0"
         style="stop-color:#232629;stop-opacity:0.23921569;" />
      <stop
         style="stop-color:#111314;stop-opacity:0.09803922;"
         offset="0.5"
         id="stop3817-7" />
      <stop
         id="stop3815-7"
         offset="1"
         style="stop-color:#000000;stop-opacity:0;" />
    </linearGradient>
    <linearGradient
       gradientTransform="matrix(0.40624999,0,0,0.5,-162.31273,-180.49978)"
       y2="225.51292"
       x2="65"
       y1="233"
       x1="65"
       gradientUnits="userSpaceOnUse"
       id="linearGradient3982"
       xlink:href="#linearGradient3809-7"
       inkscape:collect="always" />
    <linearGradient
       gradientTransform="matrix(1.8125001,0,0,0.5,-86.625826,-260.50021)"
       y2="225.51292"
       x2="65"
       y1="233"
       x1="65"
       gradientUnits="userSpaceOnUse"
       id="linearGradient4019"
       xlink:href="#linearGradient3809-7"
       inkscape:collect="always" />
    <radialGradient
       r="6"
       fy="238"
       fx="50"
       cy="238"
       cx="50"
       gradientTransform="matrix(0,2,2,0,-418.00046,-9.9994107)"
       gradientUnits="userSpaceOnUse"
       id="radialGradient4137"
       xlink:href="#linearGradient3828-4"
       inkscape:collect="always" />
    <linearGradient
       id="linearGradient3828-4">
      <stop
         id="stop3830-4"
         offset="0"
         style="stop-color:#232629;stop-opacity:0.239" />
      <stop
         style="stop-color:#1a1c1e;stop-opacity:0.239"
         offset="0.33000001"
         id="stop3836-3" />
      <stop
         style="stop-color:#111314;stop-opacity:0.098"
         offset="0.66000003"
         id="stop3832-8" />
      <stop
         id="stop3834-9"
         offset="1"
         style="stop-color:#000000;stop-opacity:0;" />
    </linearGradient>
    <radialGradient
       r="6"
       fy="238"
       fx="50"
       cy="238"
       cx="50"
       gradientTransform="rotate(-90,-27.49973,206.50004)"
       gradientUnits="userSpaceOnUse"
       id="radialGradient4057"
       xlink:href="#linearGradient3828-4"
       inkscape:collect="always" />
    <radialGradient
       r="6"
       fy="238"
       fx="50"
       cy="238"
       cx="50"
       gradientTransform="rotate(-90,-27.49996,206.50027)"
       gradientUnits="userSpaceOnUse"
       id="radialGradient4097"
       xlink:href="#linearGradient3828-4"
       inkscape:collect="always" />
    <linearGradient
       gradientTransform="matrix(0.40624999,0,0,0.5,-162.31274,-180.50028)"
       y2="225.51292"
       x2="65"
       y1="233"
       x1="65"
       gradientUnits="userSpaceOnUse"
       id="linearGradient3945"
       xlink:href="#linearGradient3809-7"
       inkscape:collect="always" />
    <radialGradient
       r="6"
       fy="238"
       fx="50"
       cy="238"
       cx="50"
       gradientTransform="matrix(0,2,2,0,-417.99956,-9.9994107)"
       gradientUnits="userSpaceOnUse"
       id="radialGradient4177"
       xlink:href="#linearGradient3828-4"
       inkscape:collect="always" />
    <radialGradient
       inkscape:collect="always"
       xlink:href="#linearGradient3828-4"
       id="radialGradient1024"
       gradientUnits="userSpaceOnUse"
       gradientTransform="matrix(0,2,2,0,-418.00046,-9.9994107)"
       cx="50"
       cy="238"
       fx="50"
       fy="238"
       r="6" />
    <radialGradient
       inkscape:collect="always"
       xlink:href="#linearGradient3828-4"
       id="radialGradient1026"
       gradientUnits="userSpaceOnUse"
       gradientTransform="rotate(-90,-27.49973,206.50004)"
       cx="50"
       cy="238"
       fx="50"
       fy="238"
       r="6" />
    <radialGradient
       inkscape:collect="always"
       xlink:href="#linearGradient3828-4"
       id="radialGradient1028"
       gradientUnits="userSpaceOnUse"
       gradientTransform="rotate(-90,-27.49996,206.50027)"
       cx="50"
       cy="238"
       fx="50"
       fy="238"
       r="6" />
    <radialGradient
       inkscape:collect="always"
       xlink:href="#linearGradient3828-4"
       id="radialGradient1032"
       gradientUnits="userSpaceOnUse"
       gradientTransform="matrix(0,2,2,0,-417.99956,-9.9994107)"
       cx="50"
       cy="238"
       fx="50"
       fy="238"
       r="6" />
    <radialGradient
       inkscape:collect="always"
       xlink:href="#linearGradient3828-4"
       id="radialGradient1078"
       gradientUnits="userSpaceOnUse"
       gradientTransform="matrix(0,2,2,0,-418.00046,-9.9994107)"
       cx="50"
       cy="238"
       fx="50"
       fy="238"
       r="6" />
    <radialGradient
       inkscape:collect="always"
       xlink:href="#linearGradient3828-4"
       id="radialGradient1080"
       gradientUnits="userSpaceOnUse"
       gradientTransform="rotate(-90,-27.49973,206.50004)"
       cx="50"
       cy="238"
       fx="50"
       fy="238"
       r="6" />
    <radialGradient
       inkscape:collect="always"
       xlink:href="#linearGradient3828-4"
       id="radialGradient1082"
       gradientUnits="userSpaceOnUse"
       gradientTransform="rotate(-90,-27.49996,206.50027)"
       cx="50"
       cy="238"
       fx="50"
       fy="238"
       r="6" />
    <radialGradient
       inkscape:collect="always"
       xlink:href="#linearGradient3828-4"
       id="radialGradient1086"
       gradientUnits="userSpaceOnUse"
       gradientTransform="matrix(0,2,2,0,-417.99956,-9.9994107)"
       cx="50"
       cy="238"
       fx="50"
       fy="238"
       r="6" />
    <linearGradient
       inkscape:collect="always"
       xlink:href="#linearGradient3809-7"
       id="linearGradient5270"
       gradientUnits="userSpaceOnUse"
       gradientTransform="matrix(1.8125001,0,0,0.5,-86.625818,10.500304)"
       x1="65"
       y1="233"
       x2="65"
       y2="225.51292" />
    <linearGradient
       inkscape:collect="always"
       xlink:href="#linearGradient3809-7"
       id="linearGradient5272"
       gradientUnits="userSpaceOnUse"
       gradientTransform="matrix(0.40624999,0,0,0.5,-162.31273,-180.49978)"
       x1="65"
       y1="233"
       x2="65"
       y2="225.51292" />
    <linearGradient
       inkscape:collect="always"
       xlink:href="#linearGradient3809-7"
       id="linearGradient5274"
       gradientUnits="userSpaceOnUse"
       gradientTransform="matrix(1.8125001,0,0,0.5,-86.625826,-260.50021)"
       x1="65"
       y1="233"
       x2="65"
       y2="225.51292" />
    <linearGradient
       inkscape:collect="always"
       xlink:href="#linearGradient3809-7"
       id="linearGradient5276"
       gradientUnits="userSpaceOnUse"
       gradientTransform="matrix(0.40624999,0,0,0.5,-162.31274,-180.50028)"
       x1="65"
       y1="233"
       x2="65"
       y2="225.51292" />
    <linearGradient
       inkscape:collect="always"
       xlink:href="#linearGradient3809-7"
       id="linearGradient5278"
       gradientUnits="userSpaceOnUse"
       gradientTransform="matrix(1.8125001,0,0,0.5,-86.625818,10.500304)"
       x1="65"
       y1="233"
       x2="65"
       y2="225.51292" />
    <linearGradient
       inkscape:collect="always"
       xlink:href="#linearGradient3809-7"
       id="linearGradient5280"
       gradientUnits="userSpaceOnUse"
       gradientTransform="matrix(0.40624999,0,0,0.5,-162.31273,-180.49978)"
       x1="65"
       y1="233"
       x2="65"
       y2="225.51292" />
    <linearGradient
       inkscape:collect="always"
       xlink:href="#linearGradient3809-7"
       id="linearGradient5282"
       gradientUnits="userSpaceOnUse"
       gradientTransform="matrix(1.8125001,0,0,0.5,-86.625826,-260.50021)"
       x1="65"
       y1="233"
       x2="65"
       y2="225.51292" />
    <linearGradient
       inkscape:collect="always"
       xlink:href="#linearGradient3809-7"
       id="linearGradient5284"
       gradientUnits="userSpaceOnUse"
       gradientTransform="matrix(0.40624999,0,0,0.5,-162.31274,-180.50028)"
       x1="65"
       y1="233"
       x2="65"
       y2="225.51292" />
  </defs>
  <rect
     y="8.625"
     x="5.0000005"
     height="4.375"
     width="5"
     id="hint-stretch-borders"
     style="opacity:0.875;fill:#008000;fill-opacity:1;stroke:none;stroke-width:0;stroke-miterlimit:4;stroke-dasharray:none;stroke-opacity:1" />
  <g
     id="top"
     transform="matrix(0.5517241,0,0,2,10.793569,-227.0006)">
    <path
       inkscape:connector-curvature="0"
       id="path2667"
       d="M 4,127.0003 V 129 h 58 v -1.9997 c -0.02169,-6.7e-4 -0.04064,0 -0.0625,0 H 4.0625 c -0.021861,0 -0.040806,-6.7e-4 -0.0625,0 z"
       style="color:#232323;opacity:1;fill:currentColor;stroke-width:0.999926"
       class="ColorScheme-Background" />
    <path
       d="m 3.9991565,126.99537 v 0.49993 H 61.99916 v -0.49993 c -0.0217,-1.6e-4 -0.04064,0 -0.06249,0 H 4.0616569 c -0.021859,0 -0.040799,-1.6e-4 -0.062495,0 z"
       style="opacity:1;fill:#000000;fill-opacity:1;fill-rule:nonzero;stroke:none;stroke-width:0.951971"
       id="path7797" />
    <rect
       y="123.0003"
       x="3.9991782"
       height="4"
       width="58.000004"
       id="rect3800-4"
       style="fill:url(#linearGradient5270);fill-opacity:1;stroke:none" />
  </g>
  <g
     id="right"
     transform="matrix(2,0,0,2.4615385,-78.999535,-286.53907)">
    <path
       inkscape:connector-curvature="0"
       id="path2679"
       d="m 62,129 v 13 h 1.999703 c 6.68e-4,-0.0217 0,-0.0406 0,-0.0625 v -12.875 c 0,-0.0219 6.68e-4,-0.0408 0,-0.0625 z"
       style="color:#232323;opacity:1;fill:currentColor;stroke-width:0.999926"
       class="ColorScheme-Background" />
    <path
       d="m 63.499767,129 v 13 h 0.499926 c 1.68e-4,-0.0217 0,-0.0406 0,-0.0625 v -12.875 c 0,-0.0219 1.68e-4,-0.0408 0,-0.0625 z"
       style="opacity:1;fill:#000000;fill-opacity:1;fill-rule:nonzero;stroke:none;stroke-width:0.45066"
       id="path9237" />
    <rect
       transform="matrix(0,-1,-1,0,0,0)"
       y="-67.999771"
       x="-142.00024"
       height="4"
       width="13"
       id="rect3862-6"
       style="fill:url(#linearGradient5272);fill-opacity:1;stroke:none" />
  </g>
  <g
     id="bottom"
     transform="matrix(0.5517241,0,0,2,10.793571,-221.0006)">
    <path
       inkscape:connector-curvature="0"
       id="path2691"
       d="M 4,142.0003 V 144 c 0.021694,6.7e-4 0.040639,0 0.0625,0 h 57.875 c 0.02186,0 0.04081,6.7e-4 0.0625,0 v -1.9997 z"
       style="color:#232323;opacity:1;fill:currentColor;stroke-width:0.999926"
       class="ColorScheme-Background" />
    <path
       d="m 4,143.50026 v 0.49992 c 0.02169,1.7e-4 0.04063,0 0.0625,0 h 57.875026 c 0.02185,0 0.04081,1.7e-4 0.06248,0 v -0.49992 z"
       style="opacity:1;fill:#000000;fill-opacity:1;fill-rule:nonzero;stroke:none;stroke-width:0.951899"
       id="path9265" />
    <rect
       transform="scale(1,-1)"
       style="fill:url(#linearGradient5274);fill-opacity:1;stroke:none"
       id="rect3880-4"
       width="58.000004"
       height="4"
       x="3.9991746"
       y="-148.0002" />
  </g>
  <g
     transform="translate(-44.999535,-27.00061)"
     id="bottomleft">
    <path
       inkscape:connector-curvature="0"
       id="path2697"
       d="m 54,90 c 0.06722,2.1827 1.817292,3.93278 4,4 v -4 z"
       style="color:#232323;opacity:1;fill:currentColor"
       class="ColorScheme-Background" />
    <path
       d="m 54,90 c 0.06722,2.1827 1.817292,3.93278 4,4 v -1 c -1.637032,-0.05042 -2.94958,-1.362974 -3,-3 z"
       style="opacity:1;fill:#000000;fill-opacity:1;fill-rule:nonzero;stroke:none"
       id="path9194" />
    <path
       inkscape:transform-center-y="5"
       inkscape:transform-center-x="5"
       inkscape:connector-curvature="0"
       id="shadow-bottomleft-9"
       d="M 45.999547,102.00061 V 90.000609 h 8.000001 c 0,2.20914 1.790861,4 4,4 v 8.000001 z"
       style="fill:url(#radialGradient4137);fill-opacity:1;stroke:none"
       inkscape:label="#path3870" />
  </g>
  <g
     transform="matrix(0.744186,0,0,2.4635078,-31.650704,-13.343751)"
     id="center">
    <g
       transform="matrix(0.344,0,0,0.8118505,3.584,-783.88382)"
       id="toolbutton-pressed-center">
      <path
         inkscape:connector-curvature="0"
         id="path11378"
         d="m 164,987.7235 v 16 h 125 v -16 z"
         style="color:#232323;opacity:1;fill:currentColor"
         class="ColorScheme-Background" />
    </g>
  </g>
  <g
     transform="matrix(-2,0,0,2,53.000452,-227.0006)"
     id="topright">
    <path
       inkscape:connector-curvature="0"
       style="color:#232323;opacity:1;fill:currentColor"
       d="m 4,127 c -1.0913544,0.0336 -1.9663917,0.90865 -2,2 h 2 z"
       id="path5336"
       class="ColorScheme-Background" />
    <path
       inkscape:connector-curvature="0"
       style="opacity:0.2;fill:#ffffff;fill-opacity:0.901961;fill-rule:nonzero;stroke:none"
       d="m -12,12 c -2.182709,0.06722 -3.932783,1.8173 -4,4 h 1 c 0,-1.5625 1.34375,-3 3,-3 z"
       transform="matrix(0.5,0,0,0.5,10,121)"
       id="path5338"
       sodipodi:nodetypes="ccccc" />
    <path
       d="m 4.0002261,126.99533 c -1.091353,0.0336 -1.9663917,0.90865 -2,2 h 0.5 c 0.025206,-0.81851 0.681485,-1.4748 1.5,-1.5 z"
       style="color:#ffffff;fill:#000000;fill-opacity:1;stroke-width:0.25"
       id="path9138"
       sodipodi:nodetypes="ccccc" />
    <path
       inkscape:transform-center-y="-2.5"
       inkscape:transform-center-x="2.5"
       inkscape:connector-curvature="0"
       id="shadow-topright-0"
       d="m -1.99978,123.0003 v 6 h 4 c 0,-1.10457 0.895431,-2 2,-2 v -4 z"
       style="fill:url(#radialGradient4057);fill-opacity:1;stroke:none"
       inkscape:label="#path3838" />
  </g>
  <rect
     y="19"
     x="28"
     height="14"
     width="4"
     id="hint-top-margin"
     style="opacity:0.875;fill:#008000;fill-opacity:1;stroke:none" />
  <rect
     style="opacity:0.875;fill:#008000;fill-opacity:1;stroke:none"
     id="hint-bottom-margin"
     width="4"
     height="14"
     x="28"
     y="61" />
  <rect
     y="44"
     x="43"
     height="4"
     width="14"
     id="hint-right-margin"
     style="opacity:0.875;fill:#008000;fill-opacity:1;stroke:none" />
  <g
     id="topleft"
     transform="matrix(2,0,0,2,5.0004653,-227.0006)">
    <path
       inkscape:connector-curvature="0"
       id="path4234"
       d="m 4,127 c -1.0913544,0.0336 -1.9663917,0.90865 -2,2 h 2 z"
       style="color:#232323;opacity:1;fill:currentColor"
       class="ColorScheme-Background"
       sodipodi:nodetypes="cccc" />
    <path
       id="path8285"
       style="color:#ffffff;fill:#000000;fill-opacity:1;stroke-width:0.5"
       d="m 3.9997673,127.0003 c -1.091353,0.0336 -1.9663917,0.90865 -2,2 h 0.5 c 0.025206,-0.81851 0.6814853,-1.4748 1.5,-1.5 z"
       sodipodi:nodetypes="ccccc" />
    <path
       style="fill:url(#radialGradient4097);fill-opacity:1;stroke:none"
       d="m -2.0002265,123.0003 v 6 h 4 c 0,-1.10457 0.895431,-2 2,-2 v -4 z"
       id="shadow-topleft-2"
       inkscape:connector-curvature="0"
       inkscape:transform-center-x="2.4999995"
       inkscape:transform-center-y="-2.5"
       inkscape:label="#rect3045" />
  </g>
  <g
     transform="matrix(-2,0,0,2.4615385,137.0006,-286.53907)"
     id="left">
    <path
       inkscape:connector-curvature="0"
       style="color:#232323;opacity:1;fill:currentColor;stroke-width:0.999926"
       d="m 62.000297,129 v 13 H 64 c 6.68e-4,-0.0217 0,-0.0406 0,-0.0625 v -12.875 c 0,-0.0219 6.68e-4,-0.0408 0,-0.0625 z"
       id="path4246"
       class="ColorScheme-Background" />
    <path
       d="m 64.0003,128.99618 v 13 h -0.499926 c -1.67e-4,-0.0217 0,-0.0406 0,-0.0625 v -12.875 c 0,-0.0219 -1.67e-4,-0.0408 0,-0.0625 z"
       style="opacity:1;fill:#000000;fill-opacity:1;fill-rule:nonzero;stroke:none;stroke-width:0.450661"
       id="path8384" />
    <rect
       transform="matrix(0,-1,-1,0,0,0)"
       style="fill:url(#linearGradient5276);fill-opacity:1;stroke:none"
       id="rect3844-2"
       width="13"
       height="4"
       x="-142.00024"
       y="-68.000298" />
  </g>
  <g
     transform="matrix(-1,0,0,1,103.00045,-27.00061)"
     id="bottomright">
    <path
       inkscape:connector-curvature="0"
       style="color:#232323;opacity:1;fill:currentColor"
       d="m 54,90 c 0.06722,2.1827 1.817292,3.93278 4,4 v -4 z"
       id="path4279"
       class="ColorScheme-Background" />
    <path
       d="m 58.000443,93.99061 c -2.182706,-0.0672 -3.932783,-1.8173 -4,-4 h 1 c 0.05041,1.63702 1.36297,2.9496 3,3 z"
       style="fill:#000000;fill-opacity:1;stroke-width:0.25"
       id="path9166" />
    <path
       style="fill:url(#radialGradient4177);fill-opacity:1;stroke:none"
       d="M 46.00044,102.00061 V 90.000609 h 8 c 0,2.20914 1.79086,4 4,4 v 8.000001 z"
       id="shadow-bottomright-2"
       inkscape:connector-curvature="0"
       inkscape:transform-center-x="5"
       inkscape:transform-center-y="5"
       inkscape:label="#path3874" />
  </g>
  <rect
     style="opacity:0.875;fill:#008000;fill-opacity:1;stroke:none"
     id="hint-left-margin"
     width="14"
     height="4"
     x="1"
     y="44.062355" />
  <rect
     style="opacity:0.875;fill:#ff00ff;fill-opacity:1;stroke:none;stroke-width:0.755929"
     id="hint-right-inset"
     width="8"
     height="4"
     x="49"
     y="49" />
  <rect
     y="49"
     x="1"
     height="4"
     width="8"
     id="hint-left-inset"
     style="opacity:0.875;fill:#ff00ff;fill-opacity:1;stroke:none;stroke-width:0.755929" />
  <rect
     style="opacity:0.875;fill:#ff00ff;fill-opacity:1;stroke:none;stroke-width:0.755929"
     id="hint-top-inset"
     width="4"
     height="8"
     x="34"
     y="19" />
  <rect
     y="67"
     x="34"
     height="8"
     width="4"
     id="hint-bottom-inset"
     style="opacity:0.875;fill:#ff00ff;fill-opacity:1;stroke:none;stroke-width:0.755929" />
  <g
     transform="matrix(0.5517241,0,0,2,87.793104,-165.0006)"
     id="blurred-mask-top">
    <path
       class="ColorScheme-Background"
       style="color:#ffffff;fill:#000000;fill-opacity:1;stroke-width:0.999926"
       d="M 4,127.0003 V 129 h 58 v -1.9997 c -0.02169,-6.7e-4 -0.04064,0 -0.0625,0 H 4.0625 c -0.021861,0 -0.040806,-6.7e-4 -0.0625,0 z"
       id="path973"
       inkscape:connector-curvature="0" />
    <rect
       style="fill:none;fill-opacity:0.239216;stroke:none"
       id="rect977"
       width="58.000004"
       height="4"
       x="3.9991782"
       y="123.0003" />
  </g>
  <g
     transform="matrix(2,0,0,2.4615385,-2.0000007,-224.53907)"
     id="blurred-mask-right">
    <path
       class="ColorScheme-Background"
       style="color:#ffffff;fill:#000000;fill-opacity:1;stroke-width:0.999926"
       d="m 62,129 v 13 h 1.999703 c 6.68e-4,-0.0217 0,-0.0406 0,-0.0625 v -12.875 c 0,-0.0219 6.68e-4,-0.0408 0,-0.0625 z"
       id="path981"
       inkscape:connector-curvature="0" />
    <rect
       style="fill:none;fill-opacity:1;stroke:none"
       id="rect985"
       width="13"
       height="4"
       x="-142.00024"
       y="-67.999771"
       transform="matrix(0,-1,-1,0,0,0)" />
  </g>
  <g
     transform="matrix(0.5517241,0,0,2,87.793104,-159.0006)"
     id="blurred-mask-bottom">
    <path
       class="ColorScheme-Background"
       style="color:#ffffff;fill:#000000;fill-opacity:1;stroke-width:0.999926"
       d="M 4,142.0003 V 144 c 0.021694,6.7e-4 0.040639,0 0.0625,0 h 57.875 c 0.02186,0 0.04081,6.7e-4 0.0625,0 v -1.9997 z"
       id="path989"
       inkscape:connector-curvature="0" />
    <rect
       y="-148.0002"
       x="3.9991746"
       height="4"
       width="58.000004"
       id="rect993"
       style="fill:none;fill-opacity:1;stroke:none"
       transform="scale(1,-1)" />
  </g>
  <g
     id="blurred-mask-bottomleft"
     transform="translate(31.999999,34.99939)">
    <path
       class="ColorScheme-Background"
       style="color:#ffffff;fill:#000000;fill-opacity:1"
       d="m 54,90 c 0.06722,2.1827 1.817292,3.93278 4,4 v -4 z"
       id="path997"
       inkscape:connector-curvature="0" />
    <path
       inkscape:label="#path3870"
       style="fill:none;fill-opacity:1;stroke:none"
       d="M 45.999547,102.00061 V 90.000609 h 8.000001 c 0,2.20914 1.790861,4 4,4 v 8.000001 z"
       id="path1001"
       inkscape:connector-curvature="0"
       inkscape:transform-center-x="5"
       inkscape:transform-center-y="5" />
  </g>
  <g
     id="blurred-mask-center"
     transform="matrix(0.744186,0,0,2.4635078,45.34883,48.656249)">
    <g
       id="g1007"
       transform="matrix(0.344,0,0,0.8118505,3.584,-783.88382)">
      <path
         class="ColorScheme-Background"
         style="color:#ffffff;fill:#000000;fill-opacity:1"
         d="m 164,987.7235 v 16 h 125 v -16 z"
         id="path1005"
         inkscape:connector-curvature="0" />
    </g>
  </g>
  <g
     id="blurred-mask-topright"
     transform="matrix(-2,0,0,2,129.99998,-165.0006)">
    <path
       class="ColorScheme-Background"
       id="path1011"
       d="m 4,127 c -1.0913544,0.0336 -1.9663917,0.90865 -2,2 h 2 z"
       style="color:#ffffff;fill:#000000;fill-opacity:1"
       inkscape:connector-curvature="0" />
    <path
       inkscape:label="#path3838"
       style="fill:none;fill-opacity:1;stroke:none"
       d="m -1.99978,123.0003 v 6 h 4 c 0,-1.10457 0.895431,-2 2,-2 v -4 z"
       id="path1015"
       inkscape:connector-curvature="0"
       inkscape:transform-center-x="2.5"
       inkscape:transform-center-y="-2.5" />
  </g>
  <g
     transform="matrix(2,0,0,2,81.999994,-165.0006)"
     id="blurred-mask-topleft">
    <path
       class="ColorScheme-Background"
       style="color:#ffffff;fill:#000000;fill-opacity:1"
       d="m 4,127 c -1.0913544,0.0336 -1.9663917,0.90865 -2,2 h 2 z"
       id="path1025"
       inkscape:connector-curvature="0" />
    <path
       inkscape:label="#rect3045"
       inkscape:transform-center-y="-2.5"
       inkscape:transform-center-x="2.4999995"
       inkscape:connector-curvature="0"
       id="path1029"
       d="m -2.0002265,123.0003 v 6 h 4 c 0,-1.10457 0.895431,-2 2,-2 v -4 z"
       style="fill:none;fill-opacity:1;stroke:none" />
  </g>
  <g
     id="blurred-mask-left"
     transform="matrix(-2,0,0,2.4615385,214.00013,-224.53907)">
    <path
       class="ColorScheme-Background"
       id="path1033"
       d="m 62.000297,129 v 13 H 64 c 6.68e-4,-0.0217 0,-0.0406 0,-0.0625 v -12.875 c 0,-0.0219 6.68e-4,-0.0408 0,-0.0625 z"
       style="color:#ffffff;fill:#000000;fill-opacity:1;stroke-width:0.999926"
       inkscape:connector-curvature="0" />
    <rect
       y="-68.000298"
       x="-142.00024"
       height="4"
       width="13"
       id="rect1037"
       style="fill:none;fill-opacity:1;stroke:none"
       transform="matrix(0,-1,-1,0,0,0)" />
  </g>
  <g
     id="blurred-mask-bottomright"
     transform="matrix(-1,0,0,1,179.99998,34.99939)">
    <path
       class="ColorScheme-Background"
       id="path1041"
       d="m 54,90 c 0.06722,2.1827 1.817292,3.93278 4,4 v -4 z"
       style="color:#ffffff;fill:#000000;fill-opacity:1"
       inkscape:connector-curvature="0" />
    <path
       inkscape:label="#path3874"
       inkscape:transform-center-y="5"
       inkscape:transform-center-x="5"
       inkscape:connector-curvature="0"
       id="path1045"
       d="M 46.00044,102.00061 V 90.000609 h 8 c 0,2.20914 1.79086,4 4,4 v 8.000001 z"
       style="fill:none;fill-opacity:1;stroke:none" />
  </g>
  <g
     id="blurred-top"
     transform="matrix(0.5517241,0,0,2,10.793569,-165.00059)">
    <path
       inkscape:connector-curvature="0"
       id="path932"
       d="M 4,127.0003 V 129 h 58 v -1.9997 c -0.02169,-6.7e-4 -0.04064,0 -0.0625,0 H 4.0625 c -0.021861,0 -0.040806,-6.7e-4 -0.0625,0 z"
       style="color:#232323;opacity:0.8;fill:currentColor;stroke-width:0.999926"
       class="ColorScheme-Background" />
    <path
       inkscape:connector-curvature="0"
       style="fill:#000000;fill-opacity:1;fill-rule:nonzero;stroke:none"
       d="M 4,127.00007 V 127.5 h 58 v -0.49993 c -0.02169,-1.6e-4 -0.04064,0 -0.0625,0 H 4.0625 c -0.021861,0 -0.040806,-1.6e-4 -0.0625,0 z"
       id="path934" />
    <rect
       y="123.0003"
       x="3.9991782"
       height="4"
       width="58.000004"
       id="rect936"
       style="fill:url(#linearGradient5278);fill-opacity:1;stroke:none" />
  </g>
  <g
     id="blurred-right"
     transform="matrix(2,0,0,2.4615385,-78.999535,-224.53907)">
    <path
       inkscape:connector-curvature="0"
       id="path940"
       d="m 62,129 v 13 h 1.999703 c 6.68e-4,-0.0217 0,-0.0406 0,-0.0625 v -12.875 c 0,-0.0219 6.68e-4,-0.0408 0,-0.0625 z"
       style="color:#232323;opacity:0.8;fill:currentColor;stroke-width:0.999926"
       class="ColorScheme-Background" />
    <path
       inkscape:connector-curvature="0"
       style="opacity:1;fill:#000000;fill-opacity:1;fill-rule:nonzero;stroke:none"
       d="m 63.500223,129 v 13 h 0.5 c 1.67e-4,-0.0217 0,-0.0406 0,-0.0625 v -12.875 c 0,-0.0219 1.67e-4,-0.0408 0,-0.0625 z"
       id="path942" />
    <rect
       transform="matrix(0,-1,-1,0,0,0)"
       y="-67.999771"
       x="-142.00024"
       height="4"
       width="13"
       id="rect944"
       style="fill:url(#linearGradient5280);fill-opacity:1;stroke:none" />
  </g>
  <g
     id="blurred-bottom"
     transform="matrix(0.5517241,0,0,2,10.793571,-159.00059)">
    <path
       inkscape:connector-curvature="0"
       id="path948"
       d="M 4,142.0003 V 144 c 0.021694,6.7e-4 0.040639,0 0.0625,0 h 57.875 c 0.02186,0 0.04081,6.7e-4 0.0625,0 v -1.9997 z"
       style="color:#232323;opacity:0.8;fill:currentColor;stroke-width:0.999926"
       class="ColorScheme-Background" />
    <path
       inkscape:connector-curvature="0"
       style="opacity:1;fill:#000000;fill-opacity:1;fill-rule:nonzero;stroke:none"
       d="m 4,143.50022 v 0.5 c 0.021694,1.7e-4 0.040639,0 0.0625,0 h 57.875 c 0.02186,0 0.04081,1.7e-4 0.0625,0 v -0.5 z"
       id="path950" />
    <rect
       transform="scale(1,-1)"
       style="fill:url(#linearGradient5282);fill-opacity:1;stroke:none"
       id="rect952"
       width="58.000004"
       height="4"
       x="3.9991746"
       y="-148.0002" />
  </g>
  <g
     transform="translate(-44.999535,34.999398)"
     id="blurred-bottomleft">
    <path
       inkscape:connector-curvature="0"
       id="path956"
       d="m 54,90 c 0.06722,2.1827 1.817292,3.93278 4,4 v -4 z"
       style="color:#232323;opacity:0.8;fill:currentColor"
       class="ColorScheme-Background" />
    <path
       style="opacity:1;fill:#000000;fill-opacity:1;fill-rule:nonzero;stroke:none"
       d="m 54,97 c 0.06722,2.1827 1.817292,3.93278 4,4 v -1 c -1.637032,-0.05042 -2.94958,-1.362974 -3,-3 z"
       transform="translate(0,-6.9999975)"
       id="path958"
       inkscape:connector-curvature="0" />
    <path
       inkscape:transform-center-y="5"
       inkscape:transform-center-x="5"
       inkscape:connector-curvature="0"
       id="path960"
       d="M 45.999547,102.00061 V 90.000609 h 8.000001 c 0,2.20914 1.790861,4 4,4 v 8.000001 z"
       style="fill:url(#radialGradient1024);fill-opacity:1;stroke:none"
       inkscape:label="#path3870" />
  </g>
  <g
     transform="matrix(0.744186,0,0,2.4635078,-31.650704,48.656257)"
     id="blurred-center">
    <g
       transform="matrix(0.344,0,0,0.8118505,3.584,-783.88382)"
       id="g966">
      <path
         inkscape:connector-curvature="0"
         id="path964"
         d="m 164,987.7235 v 16 h 125 v -16 z"
         style="color:#232323;opacity:0.8;fill:currentColor"
         class="ColorScheme-Background" />
    </g>
  </g>
  <g
     transform="matrix(-2,0,0,2,53.00045,-165.00059)"
     id="blurred-topright">
    <path
       inkscape:connector-curvature="0"
       style="color:#232323;opacity:0.8;fill:currentColor"
       d="m 4,127 c -1.0913544,0.0336 -1.9663917,0.90865 -2,2 h 2 z"
       id="path970"
       class="ColorScheme-Background" />
    <path
       inkscape:connector-curvature="0"
       style="opacity:1;fill:#232323;fill-opacity:1;fill-rule:nonzero;stroke:none"
       d="m -12,12 c -2.182709,0.06722 -3.932783,1.8173 -4,4 h 1 c 0,-1.5625 1.34375,-3 3,-3 z"
       transform="matrix(0.5,0,0,0.5,10,121)"
       id="path972"
       sodipodi:nodetypes="ccccc" />
    <path
       inkscape:transform-center-y="-2.5"
       inkscape:transform-center-x="2.5"
       inkscape:connector-curvature="0"
       id="path974"
       d="m -1.99978,123.0003 v 6 h 4 c 0,-1.10457 0.895431,-2 2,-2 v -4 z"
       style="fill:url(#radialGradient1026);fill-opacity:1;stroke:none"
       inkscape:label="#path3838" />
  </g>
  <rect
     y="81.000008"
     x="28"
     height="14"
     width="4"
     id="blurred-hint-top-margin"
     style="opacity:0.875;fill:#008000;fill-opacity:1;stroke:none" />
  <rect
     style="opacity:0.875;fill:#008000;fill-opacity:1;stroke:none"
     id="blurred-hint-bottom-margin"
     width="4"
     height="14"
     x="28"
     y="122.99999" />
  <rect
     y="106.00001"
     x="43"
     height="4"
     width="14"
     id="blurred-hint-right-margin"
     style="opacity:0.875;fill:#008000;fill-opacity:1;stroke:none" />
  <g
     id="blurred-topleft"
     transform="matrix(2,0,0,2,5.0004653,-165.00059)">
    <path
       inkscape:connector-curvature="0"
       id="path984"
       d="m 4,127 c -1.0913544,0.0336 -1.9663917,0.90865 -2,2 h 2 z"
       style="color:#232323;opacity:0.8;fill:currentColor"
       class="ColorScheme-Background" />
    <path
       inkscape:connector-curvature="0"
       sodipodi:nodetypes="ccccc"
       id="path986"
       transform="matrix(0.5,0,0,0.5,10,121)"
       d="m -12,12 c -2.182709,0.06722 -3.932783,1.8173 -4,4 h 1 c 0,-1.5625 1.34375,-3 3,-3 z"
       style="opacity:1;fill:#000000;fill-opacity:1;fill-rule:nonzero;stroke:none" />
    <path
       style="fill:url(#radialGradient1028);fill-opacity:1;stroke:none"
       d="m -2.0002265,123.0003 v 6 h 4 c 0,-1.10457 0.895431,-2 2,-2 v -4 z"
       id="path988"
       inkscape:connector-curvature="0"
       inkscape:transform-center-x="2.4999995"
       inkscape:transform-center-y="-2.5"
       inkscape:label="#rect3045" />
  </g>
  <g
     transform="matrix(-2,0,0,2.4615385,137.0006,-224.53907)"
     id="blurred-left">
    <path
       inkscape:connector-curvature="0"
       style="color:#232323;opacity:0.8;fill:currentColor;stroke-width:0.999926"
       d="m 62.000297,129 v 13 H 64 c 6.68e-4,-0.0217 0,-0.0406 0,-0.0625 v -12.875 c 0,-0.0219 6.68e-4,-0.0408 0,-0.0625 z"
       id="path992"
       class="ColorScheme-Background" />
    <path
       inkscape:connector-curvature="0"
       id="path994"
       d="m 63.500223,129 v 13 h 0.5 c 1.67e-4,-0.0217 0,-0.0406 0,-0.0625 v -12.875 c 0,-0.0219 1.67e-4,-0.0408 0,-0.0625 z"
       style="opacity:1;fill:#000000;fill-opacity:1;fill-rule:nonzero;stroke:none" />
    <rect
       transform="matrix(0,-1,-1,0,0,0)"
       style="fill:url(#linearGradient5284);fill-opacity:1;stroke:none"
       id="rect996"
       width="13"
       height="4"
       x="-142.00024"
       y="-68.000298" />
  </g>
  <g
     transform="matrix(-1,0,0,1,103.00045,34.999398)"
     id="blurred-bottomright">
    <path
       inkscape:connector-curvature="0"
       style="color:#232323;opacity:0.8;fill:currentColor"
       d="m 54,90 c 0.06722,2.1827 1.817292,3.93278 4,4 v -4 z"
       id="path1000"
       class="ColorScheme-Background" />
    <path
       style="opacity:1;fill:#000000;fill-opacity:1;fill-rule:nonzero;stroke:none"
       d="m 93,97 c -0.05042,1.637026 -1.362968,2.949585 -3,3 v 1 c 2.182708,-0.0672 3.93278,-1.8173 4,-4 z"
       transform="matrix(-1,0,0,1,148,-6.9999975)"
       id="path1002"
       inkscape:connector-curvature="0" />
    <path
       style="fill:url(#radialGradient1032);fill-opacity:1;stroke:none"
       d="M 46.00044,102.00061 V 90.000609 h 8 c 0,2.20914 1.79086,4 4,4 v 8.000001 z"
       id="path1004"
       inkscape:connector-curvature="0"
       inkscape:transform-center-x="5"
       inkscape:transform-center-y="5"
       inkscape:label="#path3874" />
  </g>
  <rect
     style="opacity:0.875;fill:#008000;fill-opacity:1;stroke:none"
     id="blurred-hint-left-margin"
     width="14"
     height="4"
     x="1"
     y="106.06236" />
  <rect
     y="110.99999"
     x="49"
     height="4"
     width="8"
     id="blurred-hint-right-inset"
     style="opacity:0.875;fill:#ff00ff;fill-opacity:1;stroke:none;stroke-width:0.755929" />
  <rect
     style="opacity:0.875;fill:#ff00ff;fill-opacity:1;stroke:none;stroke-width:0.755929"
     id="blurred-hint-left-inset"
     width="8"
     height="4"
     x="1"
     y="110.99999" />
  <rect
     y="81.000008"
     x="34"
     height="8"
     width="4"
     id="blurred-hint-top-inset"
     style="opacity:0.875;fill:#ff00ff;fill-opacity:1;stroke:none;stroke-width:0.755929" />
  <rect
     style="opacity:0.875;fill:#ff00ff;fill-opacity:1;stroke:none;stroke-width:0.755929"
     id="blurred-hint-bottom-inset"
     width="4"
     height="8"
     x="34"
     y="128.99998" />
  <g
     id="shadow-top"
     transform="matrix(0.5517241,0,0,2,87.793569,-227.1006)">
    <path
       inkscape:connector-curvature="0"
       id="path983"
       d="M 4,127.0003 V 129 h 58 v -1.9997 c -0.02169,-6.7e-4 -0.04064,0 -0.0625,0 H 4.0625 c -0.021861,0 -0.040806,-6.7e-4 -0.0625,0 z"
       style="color:#ffffff;opacity:1;fill:none;stroke-width:0.999926"
       class="ColorScheme-Background" />
    <rect
       y="123.0003"
       x="3.9991782"
       height="4"
       width="58.000004"
       id="rect987"
       style="fill:url(#linearGradient3908);fill-opacity:1;stroke:none" />
  </g>
  <g
     id="shadow-right"
     transform="matrix(2,0,0,2.4615385,-1.9995347,-286.63907)">
    <path
       inkscape:connector-curvature="0"
       id="path991"
       d="m 62,129 v 13 h 1.999703 c 6.68e-4,-0.0217 0,-0.0406 0,-0.0625 v -12.875 c 0,-0.0219 6.68e-4,-0.0408 0,-0.0625 z"
       style="color:#ffffff;opacity:1;fill:none;stroke-width:0.999926"
       class="ColorScheme-Background" />
    <rect
       transform="matrix(0,-1,-1,0,0,0)"
       y="-67.999771"
       x="-142.00024"
       height="4"
       width="13"
       id="rect995"
       style="fill:url(#linearGradient3982);fill-opacity:1;stroke:none" />
  </g>
  <g
     id="shadow-bottom"
     transform="matrix(0.5517241,0,0,2,87.793571,-221.1006)">
    <path
       inkscape:connector-curvature="0"
       id="path999"
       d="M 4,142.0003 V 144 c 0.021694,6.7e-4 0.040639,0 0.0625,0 h 57.875 c 0.02186,0 0.04081,6.7e-4 0.0625,0 v -1.9997 z"
       style="color:#ffffff;opacity:1;fill:none;stroke-width:0.999926"
       class="ColorScheme-Background" />
    <rect
       transform="scale(1,-1)"
       style="fill:url(#linearGradient4019);fill-opacity:1;stroke:none"
       id="rect1005"
       width="58.000004"
       height="4"
       x="3.9991746"
       y="-148.0002" />
  </g>
  <g
     transform="translate(32.000465,-27.10061)"
     id="shadow-bottomleft">
    <path
       inkscape:connector-curvature="0"
       id="path1010"
       d="m 54,90 c 0.06722,2.1827 1.817292,3.93278 4,4 v -4 z"
       style="color:#ffffff;opacity:1;fill:none"
       class="ColorScheme-Background" />
    <path
       inkscape:transform-center-y="5"
       inkscape:transform-center-x="5"
       inkscape:connector-curvature="0"
       id="path1014"
       d="M 45.999547,102.00061 V 90.000609 h 8.000001 c 0,2.20914 1.790861,4 4,4 v 8.000001 z"
       style="fill:url(#radialGradient1078);fill-opacity:1;stroke:none"
       inkscape:label="#path3870" />
  </g>
  <g
     transform="matrix(0.744186,0,0,2.4635078,45.349296,-13.443751)"
     id="shadow-center">
    <g
       transform="matrix(0.344,0,0,0.8118505,3.584,-783.88382)"
       id="g1020">
      <path
         inkscape:connector-curvature="0"
         id="path1018"
         d="m 164,987.7235 v 16 h 125 v -16 z"
         style="color:#ffffff;opacity:1;fill:none"
         class="ColorScheme-Background" />
    </g>
  </g>
  <g
     transform="matrix(-2,0,0,2,130.00045,-227.1006)"
     id="shadow-topright">
    <path
       inkscape:connector-curvature="0"
       style="color:#ffffff;opacity:1;fill:none"
       d="m 4,127 c -1.0913544,0.0336 -1.9663917,0.90865 -2,2 h 2 z"
       id="path1024"
       class="ColorScheme-Background" />
    <path
       inkscape:transform-center-y="-2.5"
       inkscape:transform-center-x="2.5"
       inkscape:connector-curvature="0"
       id="path1028"
       d="m -1.99978,123.0003 v 6 h 4 c 0,-1.10457 0.895431,-2 2,-2 v -4 z"
       style="fill:url(#radialGradient1080);fill-opacity:1;stroke:none"
       inkscape:label="#path3838" />
  </g>
  <rect
     y="18.9"
     x="105"
     height="14"
     width="4"
     id="shadow-hint-top-margin"
     style="opacity:0.875;fill:#008000;fill-opacity:1;stroke:none" />
  <rect
     style="opacity:0.875;fill:#008000;fill-opacity:1;stroke:none"
     id="shadow-hint-bottom-margin"
     width="4"
     height="14"
     x="105"
     y="60.900002" />
  <rect
     y="43.900002"
     x="120.00001"
     height="4"
     width="14"
     id="shadow-hint-right-margin"
     style="opacity:0.875;fill:#008000;fill-opacity:1;stroke:none" />
  <g
     id="shadow-topleft"
     transform="matrix(2,0,0,2,82.000465,-227.1006)">
    <path
       inkscape:connector-curvature="0"
       id="path1038"
       d="m 4,127 c -1.0913544,0.0336 -1.9663917,0.90865 -2,2 h 2 z"
       style="color:#ffffff;opacity:1;fill:none"
       class="ColorScheme-Background" />
    <path
       style="fill:url(#radialGradient1082);fill-opacity:1;stroke:none"
       d="m -2.0002265,123.0003 v 6 h 4 c 0,-1.10457 0.895431,-2 2,-2 v -4 z"
       id="path1042"
       inkscape:connector-curvature="0"
       inkscape:transform-center-x="2.4999995"
       inkscape:transform-center-y="-2.5"
       inkscape:label="#rect3045" />
  </g>
  <g
     transform="matrix(-2,0,0,2.4615385,214.0006,-286.63907)"
     id="shadow-left">
    <path
       inkscape:connector-curvature="0"
       style="color:#ffffff;opacity:1;fill:none;stroke-width:0.999926"
       d="m 62.000297,129 v 13 H 64 c 6.68e-4,-0.0217 0,-0.0406 0,-0.0625 v -12.875 c 0,-0.0219 6.68e-4,-0.0408 0,-0.0625 z"
       id="path1046"
       class="ColorScheme-Background" />
    <rect
       transform="matrix(0,-1,-1,0,0,0)"
       style="fill:url(#linearGradient3945);fill-opacity:1;stroke:none"
       id="rect1050"
       width="13"
       height="4"
       x="-142.00024"
       y="-68.000298" />
  </g>
  <g
     transform="matrix(-1,0,0,1,180.00045,-27.10061)"
     id="shadow-bottomright">
    <path
       inkscape:connector-curvature="0"
       style="color:#ffffff;opacity:1;fill:none"
       d="m 54,90 c 0.06722,2.1827 1.817292,3.93278 4,4 v -4 z"
       id="path1054"
       class="ColorScheme-Background" />
    <path
       style="fill:url(#radialGradient1086);fill-opacity:1;stroke:none"
       d="M 46.00044,102.00061 V 90.000609 h 8 c 0,2.20914 1.79086,4 4,4 v 8.000001 z"
       id="path1058"
       inkscape:connector-curvature="0"
       inkscape:transform-center-x="5"
       inkscape:transform-center-y="5"
       inkscape:label="#path3874" />
  </g>
  <rect
     style="opacity:0.875;fill:#008000;fill-opacity:1;stroke:none"
     id="shadow-hint-left-margin"
     width="14"
     height="4"
     x="78"
     y="43.962357" />
  <rect
     y="48.900002"
     x="126.00001"
     height="4"
     width="8"
     id="shadow-hint-right-inset"
     style="opacity:0.875;fill:#ff00ff;fill-opacity:1;stroke:none;stroke-width:0.755929" />
  <rect
     style="opacity:0.875;fill:#ff00ff;fill-opacity:1;stroke:none;stroke-width:0.755929"
     id="shadow-hint-left-inset"
     width="8"
     height="4"
     x="78"
     y="48.900002" />
  <rect
     y="18.9"
     x="111"
     height="8"
     width="4"
     id="shadow-hint-top-inset"
     style="opacity:0.875;fill:#ff00ff;fill-opacity:1;stroke:none;stroke-width:0.755929" />
  <rect
     style="opacity:0.875;fill:#ff00ff;fill-opacity:1;stroke:none;stroke-width:0.755929"
     id="shadow-hint-bottom-inset"
     width="4"
     height="8"
     x="111"
     y="66.900002" />
</svg>
