<?xml version="1.0" encoding="UTF-8" standalone="no"?>
<!-- Created with Inkscape (http://www.inkscape.org/) -->

<svg
   width="173"
   height="56"
   viewBox="0 0 173 56"
   version="1.1"
   id="svg1857"
   inkscape:version="1.2 (dc2aedaf03, 2022-05-15)"
   sodipodi:docname="plasmoidheading.svg"
   xmlns:inkscape="http://www.inkscape.org/namespaces/inkscape"
   xmlns:sodipodi="http://sodipodi.sourceforge.net/DTD/sodipodi-0.dtd"
   xmlns="http://www.w3.org/2000/svg"
   xmlns:svg="http://www.w3.org/2000/svg">
  <sodipodi:namedview
     id="namedview1859"
     pagecolor="#c9c9c9"
     bordercolor="#000000"
     borderopacity="0.25"
     inkscape:showpageshadow="2"
     inkscape:pageopacity="0"
     inkscape:pagecheckerboard="0"
     inkscape:deskcolor="#d1d1d1"
     inkscape:document-units="px"
     showgrid="false"
     inkscape:zoom="8.6577329"
     inkscape:cx="-2.7143365"
     inkscape:cy="4.1003806"
     inkscape:window-width="1920"
     inkscape:window-height="1006"
     inkscape:window-x="0"
     inkscape:window-y="0"
     inkscape:window-maximized="1"
     inkscape:current-layer="layer1" />
  <defs
     id="defs1854">
     <style
       id="current-color-scheme"
       type="text/css">
        .ColorScheme-Text {
            color:#3d3d3d;
        }
        .ColorScheme-Background {
            color:#ffffff;
        }
     </style>
  </defs>
  <g
     inkscape:label="Layer 1"
     inkscape:groupmode="layer"
     id="layer1">
    <path
       id="hint-stretch-borders"
       d="m -7,-7 h 5 v 5 h -5 z"
       opacity="0.6" />
    <path
       id="header-center"
       d="M 19,12 H 51 V 44 H 19 Z"
       style="opacity:0.08;fill:#000000" />
    <path
       id="header-right"
       d="m 51,12 h 8 v 32 h -8 z"
       style="opacity:0.08;fill:#000000;stroke-width:1.1547" />
    <path
       id="header-top"
       d="M 19,12 V 4 h 32 v 8 z"
       style="opacity:0.08;fill:#000000;stroke-width:1.15469" />
    <g
       id="header-bottom"
       transform="matrix(1,0,0,1.3333333,0,-14.666667)">
      <path
         id="rect3152"
         d="m 51,44 v 5.25 H 19 V 44 Z"
         style="opacity:0.08;fill:#000000;stroke-width:0.935414" />
      <path
         id="path872"
         class="ColorScheme-Text"
         fill="currentColor"
         d="m 51,49.250014 v 0.749989 H 19 v -0.749989 z"
         style="color:#242424;opacity:0.1;stroke-width:0.353551" />
    </g>
    <path
       id="header-left"
       d="M 19,44 H 11 V 12 h 8 z"
       style="opacity:0.08;fill:#000000;stroke-width:1.1547" />
    <g
       id="header-bottomright"
       transform="matrix(1.3333333,0,0,1.3333333,-17,-14.666667)">
      <path
         id="path3176"
         d="m 57,44 h -6 v 5.25 h 6 v -4.375 z"
         style="opacity:0.08;fill:#000000;stroke-width:0.935414" />
      <path
         id="path874"
         class="ColorScheme-Text"
         fill="currentColor"
         d="m 57,49.250014 h -6 v 0.749989 h 6 v -0.624991 z"
         style="color:#242424;opacity:0.1;stroke-width:0.353551" />
    </g>
    <g
       id="header-bottomleft"
       transform="matrix(1.3333294,0,0,1.3333294,-6.333282,-14.666494)">
      <path
         id="path3182"
         d="M 19,49.249984 V 44 h -6 v 5.249984 c 6,3.6e-5 0,0 4,0 h 1 z"
         style="opacity:0.08;fill:#000000;stroke-width:0.935412" />
      <path
         id="path852"
         class="ColorScheme-Text"
         fill="currentColor"
         d="m 19,50.000018 v -0.75 h -6 v 0.75 c 6,5e-6 0,0 4,0 h 1 z"
         style="color:#242424;opacity:0.1;stroke-width:0.866019" />
    </g>
    <path
       id="header-topleft"
       style="opacity:0.08;fill:#000000;stroke-width:1.33333"
       d="m 19,4 c -4.432,0 -8,3.568 -8,8 h 8 z" />
    <path
       id="header-topright"
       style="opacity:0.08;fill:#000000;stroke-width:1.33333"
       d="m 51,4 v 8 h 8 C 59,7.568 55.432,4 51,4 Z" />
    <path
       id="footer-center"
       d="m 75,44 h 32 V 12 H 75 Z"
       style="opacity:0.08;fill:#000000" />
    <path
       id="footer-right"
       d="m 107,44 h 8 V 12 h -8 z"
       style="opacity:0.08;fill:#000000;stroke-width:1.1547" />
    <path
       id="footer-bottom"
       d="m 75,44 v 8 h 32 v -8 z"
       style="opacity:0.08;fill:#000000;stroke-width:1.1547" />
    <g
       id="footer-top"
       transform="matrix(1,0,0,1.333334,8,-3.999988)">
      <path
         id="rect3152-0"
         d="M 99,11.999969 V 6.7499849 H 67 v 5.2499841 z"
         style="opacity:0.08;fill:#000000;stroke-width:0.935413" />
      <path
         id="path894"
         class="ColorScheme-Text"
         fill="currentColor"
         d="M 99,6.7499859 V 5.9999882 H 67 v 0.7499977 z"
         style="color:#242424;opacity:0.1;stroke-width:0.866025" />
    </g>
    <path
       id="footer-left"
       d="m 75,12 h -8 v 32 h 8 z"
       style="opacity:0.08;fill:#000000;stroke-width:1.1547" />
    <g
       id="footer-topright"
       transform="matrix(1.3333333,0,0,1.3333333,-25,-3.99998)">
      <path
         id="path3176-6"
         d="M 105,11.999969 H 99 V 6.7499849 h 6 v 4.3749871 z"
         style="opacity:0.08;fill:#000000;stroke-width:0.935413" />
      <path
         id="path896"
         class="ColorScheme-Text"
         fill="currentColor"
         d="M 105,6.7499851 H 99 V 5.9999874 h 6 v 0.624998 z"
         style="color:#242424;opacity:0.1;stroke-width:0.866025" />
    </g>
    <g
       id="footer-topleft"
       transform="matrix(1.3333333,0,0,1.3333333,-14.333331,-3.99998)">
      <path
         id="path3182-1"
         d="M 67,6.7499849 V 11.999969 H 61 V 6.7499849 c 6,-3.49e-5 0,0 4,0 h 1 z"
         style="opacity:0.08;fill:#000000;stroke-width:0.935413" />
      <path
         id="path898"
         class="ColorScheme-Text"
         fill="currentColor"
         d="M 67,5.9999874 V 6.7499851 H 61 V 5.9999874 c 6,-5e-6 0,0 4,0 h 1 z"
         style="color:#242424;opacity:0.1;stroke-width:0.866025" />
    </g>
    <path
       id="footer-bottomleft"
       style="opacity:0.08;fill:#000000;stroke-width:1.33333"
       d="m 67,44 c 0,4.432 3.568,8 8,8 v -8 z" />
    <path
       id="footer-bottomright"
       style="opacity:0.08;fill:#000000;stroke-width:1.33333"
       d="m 107,44 v 8 c 4.432,0 8,-3.568 8,-8 z" />
    <path
       id="hint-top-margin"
       d="m 33,12 h 4 v 6 h -4 z"
       fill="#ff00ff" />
    <path
       id="hint-bottom-margin"
       d="m 33,38 h 4 v 6 h -4 z"
       fill="#ff00ff" />
    <path
       id="hint-right-margin"
       d="m 51,26 v 4 h -6 v -4 z"
       fill="#ff00ff" />
    <path
       id="hint-left-margin"
       d="m 25,26 v 4 h -6 v -4 z"
       fill="#ff00ff" />
  </g>
</svg>
