<?xml version="1.0" encoding="UTF-8" standalone="no"?>
<!-- Created with Inkscape (http://www.inkscape.org/) -->

<svg
   width="22"
   height="22"
   viewBox="0 0 22 22.000001"
   version="1.1"
   id="svg1369"
   inkscape:version="1.2 (dc2aedaf03, 2022-05-15)"
   sodipodi:docname="apport.svg"
   xmlns:inkscape="http://www.inkscape.org/namespaces/inkscape"
   xmlns:sodipodi="http://sodipodi.sourceforge.net/DTD/sodipodi-0.dtd"
   xmlns:xlink="http://www.w3.org/1999/xlink"
   xmlns="http://www.w3.org/2000/svg"
   xmlns:svg="http://www.w3.org/2000/svg">
  <sodipodi:namedview
     id="namedview1371"
     pagecolor="#ffffff"
     bordercolor="#000000"
     borderopacity="0.25"
     inkscape:showpageshadow="2"
     inkscape:pageopacity="0.0"
     inkscape:pagecheckerboard="0"
     inkscape:deskcolor="#d1d1d1"
     inkscape:document-units="px"
     showgrid="false"
     inkscape:zoom="13.708229"
     inkscape:cx="13.532018"
     inkscape:cy="13.969711"
     inkscape:window-width="1854"
     inkscape:window-height="1048"
     inkscape:window-x="0"
     inkscape:window-y="0"
     inkscape:window-maximized="1"
     inkscape:current-layer="svg1369" />
  <defs
     id="defs1366">
    <style
       id="current-color-scheme"
       type="text/css">
        .ColorScheme-Text { color:#dfdfdf; } .ColorScheme-Highlight { color:#5294e2; }
    </style>
    <linearGradient
       inkscape:collect="always"
       xlink:href="#linearGradient2698"
       id="linearGradient2700"
       x1="1.7197917"
       y1="1.5875"
       x2="4.8515944"
       y2="7.1437502"
       gradientUnits="userSpaceOnUse"
       gradientTransform="matrix(3.7795275,0,0,3.7795275,22.000122,-8.9999998)" />
    <linearGradient
       inkscape:collect="always"
       id="linearGradient2698">
      <stop
         style="stop-color:#fdfdfd;stop-opacity:1;"
         offset="0"
         id="stop2694" />
      <stop
         style="stop-color:#f0f0f0;stop-opacity:1;"
         offset="1"
         id="stop2696" />
    </linearGradient>
    <linearGradient
       inkscape:collect="always"
       xlink:href="#linearGradient1871"
       id="linearGradient1346"
       x1="2.4350028"
       y1="1.0583333"
       x2="2.4350028"
       y2="7.4083333"
       gradientUnits="userSpaceOnUse"
       gradientTransform="matrix(3.7795275,0,0,3.7795275,22.000122,-8.9999998)" />
    <linearGradient
       inkscape:collect="always"
       id="linearGradient1871">
      <stop
         style="stop-color:#ffffff;stop-opacity:1;"
         offset="0"
         id="stop1867" />
      <stop
         style="stop-color:#ffffff;stop-opacity:0.1"
         offset="0.12"
         id="stop2515" />
      <stop
         style="stop-color:#ffffff;stop-opacity:0.102"
         offset="0.89999998"
         id="stop2581" />
      <stop
         style="stop-color:#ffffff;stop-opacity:0.502"
         offset="1"
         id="stop1869" />
    </linearGradient>
  </defs>
  <g
     id="16-16-apport">
    <rect
       style="fill:none;stroke-width:1.45455;stroke-linecap:round;stroke-linejoin:round"
       id="rect2335"
       width="16"
       height="16"
       x="-16"
       y="6" />
    <path
       d="m -12.005859,5.999999 c -1.257999,0.015 -2.178642,-0.030234 -2.931641,0.3847657 -0.389009,0.2223002 -0.686727,0.5762709 -0.837891,0.9980469 C -15.94039,7.8208112 -16,8.343 -16,8.999999 V 15 c 0,0.658 0.05961,1.179188 0.224609,1.617188 0.164,0.438999 0.461891,0.790047 0.837891,0.998046 0.752999,0.416 1.673642,0.369766 2.931641,0.384766 h 2.009765 v 1 h 4 v -1 h 2.001953 c 1.257999,-0.015 2.178642,0.03023 2.931641,-0.384766 0.389384,-0.222116 0.686477,-0.57611 0.83789,-0.998046 C -0.06061,16.179188 0,15.657 0,15 V 8.999999 C 0,8.342 -0.05961,7.8208112 -0.22461,7.3828116 -0.375772,6.9610356 -0.673492,6.6070649 -1.0625,6.3847647 -1.815499,5.968765 -2.736142,6.014999 -3.994141,5.999999 h -8.007812 z m 0.0059,1.0000001 h 8 c 1.258998,0.015 2.087125,0.059719 2.453125,0.2617188 0.184,0.1 0.289719,0.2126565 0.386719,0.4726562 0.097,0.2599997 0.160156,0.6736259 0.160156,1.2656249 V 15 c 0,0.592 -0.06316,1.005625 -0.160156,1.265625 -0.098,0.26 -0.202719,0.371656 -0.386719,0.472656 -0.366,0.202 -1.194127,0.246719 -2.453125,0.261719 h -8.000001 c -1.258999,-0.015 -2.090078,-0.05972 -2.455078,-0.261719 -0.183,-0.1 -0.286766,-0.212656 -0.384766,-0.472656 C -14.936804,16.005625 -14.99996,15.592 -14.99996,15 V 8.999999 c 0,-0.591999 0.06316,-1.0056252 0.160156,-1.2656249 0.098,-0.2599997 0.201766,-0.3716564 0.384766,-0.4726562 0.366,-0.2019998 1.196079,-0.2467188 2.455079,-0.2617188 z m 1.003905,1.9999999 v 2 h 1 v -2 z m 5,0 v 2 h 1 v -2 z m -5,4 V 14 h 6 v -1.000001 z m 6,1.000001 v 1 h 1 v -1 z m -6,0 h -1 v 1 h 1 z m -2.003906,6 -3,1 v 1 h 16 v -1 l -3,-1 z"
       style="fill:currentColor;fill-opacity:1;stroke-width:2;stroke-linecap:round;stroke-linejoin:round"
       class="ColorScheme-Text"
       id="path2345" />
  </g>
  <g
     id="22-22-apport">
    <rect
       style="fill:none;stroke-width:2;stroke-linecap:round;stroke-linejoin:round"
       id="rect1957"
       width="22"
       height="22"
       x="0"
       y="0" />
    <path
       id="path1331"
       style="fill:currentColor;fill-opacity:1;stroke-width:2;stroke-linecap:round;stroke-linejoin:round"
       d="M 6.9941407,3.0000002 C 5.7361419,3.0150002 4.8154993,2.9697662 4.0625001,3.3847658 3.6734911,3.607066 3.3757726,3.9610367 3.2246094,4.3828127 3.0596096,4.8208123 3,5.3430009 3,6.0000002 V 12 c 0,0.658 0.05961,1.179188 0.2246094,1.617188 0.1639999,0.438999 0.461891,0.790047 0.8378907,0.998046 C 4.8154993,15.031234 5.7361419,14.985 6.9941407,15 h 2.0097656 v 1 h 3.9999997 v -1 h 2.001953 c 1.257999,-0.015 2.178642,0.03023 2.931641,-0.384766 0.389384,-0.222116 0.686477,-0.57611 0.83789,-0.998046 C 18.93939,13.179188 19,12.657 19,12 V 6.0000002 C 19,5.3420009 18.94039,4.8208123 18.77539,4.3828127 18.624228,3.9610367 18.326508,3.607066 17.9375,3.3847658 17.184501,2.9687662 16.263858,3.0150002 15.005859,3.0000002 H 6.9980469 Z m 0.00586,1 h 8.0000003 c 1.258998,0.015 2.087125,0.059719 2.453125,0.2617188 0.184,0.1 0.289719,0.2126565 0.386719,0.4726562 0.097,0.2599997 0.160156,0.6736256 0.160156,1.265625 V 12 c 0,0.592 -0.06316,1.005625 -0.160156,1.265625 -0.098,0.26 -0.202719,0.371656 -0.386719,0.472656 -0.366,0.202 -1.194127,0.246719 -2.453125,0.261719 H 7.0000001 C 5.7410013,13.985 4.9099216,13.94028 4.5449219,13.738281 4.3619221,13.638281 4.2581562,13.525625 4.1601563,13.265625 4.0631563,13.005625 4.0000001,12.592 4.0000001,12 V 6.0000002 c 0,-0.5919994 0.063156,-1.0056253 0.1601562,-1.265625 C 4.2581563,4.4743755 4.3619221,4.3627188 4.5449219,4.261719 4.9109216,4.0597192 5.7410013,4.0150002 7.0000007,4.0000002 Z m 1.0039056,2 v 2 h 1 v -2 z m 4.9999997,0 v 2 h 1 v -2 z M 8.0039063,9.9999998 V 11 H 14.003906 V 9.9999998 Z M 14.003906,11 v 1 h 1 V 11 Z M 8.0039064,11 H 7.0039063 v 1 h 1.0000001 z m -2.0039063,6 -2.9999999,1 v 1 H 19 v -1 l -3,-1 z"
       class="ColorScheme-Text"
       sodipodi:nodetypes="cccssccccccccccssccccccccsssccccccsscsccccccccccccccccccccccccccccccccc" />
  </g>
  <g
     id="apport">
    <rect
       style="fill:none;stroke-width:2.90909;stroke-linecap:round;stroke-linejoin:round"
       id="rect5283"
       width="32"
       height="32"
       x="22"
       y="-10.000001" />
    <path
       d="m 24.500182,1.1939999 c 0,-1.41239962 0.0342,-2.5223996 0.185549,-3.4237995 0.151321,-0.9014502 0.431641,-1.6199002 0.953121,-2.1426002 0.52148,-0.5226999 1.239,-0.8032501 2.1406,-0.9531201 0.901639,-0.1498798 2.0101,-0.1807498 3.4258,-0.1738299 h 7.794899 l 5.796799,1.599e-4 c 1.4145,-0.00699 2.522701,0.024 3.4238,0.1738318 0.90165,0.1498696 1.6192,0.4304099 2.1406,0.9531201 0.52148,0.5227196 0.8018,1.2410997 0.95312,2.1425998 0.151322,0.9015001 0.185548,2.01139988 0.185548,3.4237995 v 6.6149001 c 0,1.4124 -0.0342,2.5184996 -0.185548,3.4179996 -0.15137,0.899498 -0.431489,1.615998 -0.95312,2.136698 -0.52163,0.5207 -1.237699,0.80004 -2.1387,0.95117 -0.900939,0.15113 -2.052112,0.195183 -3.4258,0.18555 l -5.7968,-1.6e-4 h -7.796899 c -1.415201,0 -2.524799,-0.03439 -3.425799,-0.185548 -0.90093,-0.151132 -1.617001,-0.430422 -2.1387,-0.951172 -0.521631,-0.52075 -0.80175,-1.2372 -0.95312,-2.1367 -0.15137,-0.8995 -0.18555,-2.0055996 -0.18555,-3.4179996 z"
       style="color:#000000;fill:#4d4d4d;stroke-width:0.999999"
       id="path874"
       sodipodi:nodetypes="ccsccccccssscscccsccscc" />
    <path
       id="rect1885"
       style="fill:#4d4d4d;stroke-width:1.5"
       d="m 24.500122,14.999999 h 26.999999 c 0.831001,0 1.5,0.669 1.5,1.5 0,0.831 -0.668999,1.5 -1.5,1.5 h -27 c -0.831,0 -1.5,-0.669 -1.5,-1.5 0,-0.831 0.669,-1.5 1.500001,-1.5 z"
       sodipodi:nodetypes="sssssss" />
    <path
       id="rect2306"
       style="fill:url(#linearGradient2700);fill-opacity:1;stroke-width:0.999999"
       d="m 28.500122,-3 h 18.999999 c 0.831,0 1.5,0.6689998 1.5,1.4999999 V 10.499999 c 0,0.831 -0.669,1.5 -1.5,1.5 H 28.500122 c -0.831,0 -1.5,-0.669 -1.5,-1.5 V -1.5000001 c 0,-0.8310001 0.669,-1.4999999 1.5,-1.4999999 z" />
    <path
       d="m 31.203782,-5.0000001 c -5.6268,0 -6.2031,0.5760302 -6.2031,6.1914001 v 6.6148994 c 0,5.6153996 0.57638,6.2208996 6.2031,6.1933996 h 7.796899 l 5.796799,1.6e-4 c 5.6267,0.02759 6.2031,-0.57798 6.2031,-6.1933996 V 1.1915598 c 0,-5.6153997 -0.57633,-6.1911997 -6.2031,-6.1913997 l -5.796799,-1.602e-4 z m 0,1.0000002 h 7.796899 l 5.796799,1.599e-4 c 1.3896,4e-5 2.443601,0.040902 3.1777,0.1640617 0.73415,0.1231484 1.1001,0.305571 1.3281,0.5332101 0.22803,0.2276409 0.40999,0.5920301 0.53321,1.3242001 0.123201,0.7321898 0.164062,1.78319998 0.164062,3.1699 v 6.6148995 c 0,1.3867 -0.0407,2.4409996 -0.164062,3.1757996 -0.12333,0.73474 -0.306799,1.1012 -0.53516,1.3301 -0.228351,0.228888 -0.59346,0.41141 -1.3262,0.5332 -0.73274,0.121792 -1.7851,0.154299 -3.1738,0.154299 h -0.002 l -5.7986,-1.61e-4 h -7.798799 -0.002 c -1.3887,0 -2.443099,-0.0325 -3.175799,-0.154299 -0.73272,-0.121791 -1.0959,-0.304311 -1.3242,-0.533201 -0.2283,-0.22889 -0.41182,-0.59535 -0.53516,-1.3301 -0.12328,-0.73473 -0.16401,-1.7889996 -0.16401,-3.1757996 V 1.1913697 c 0,-1.38669992 0.0408,-2.4377 0.164062,-3.1698999 0.12322,-0.7321799 0.305178,-1.0965997 0.533209,-1.3241998 0.228019,-0.2276485 0.59398,-0.41005 1.3281,-0.5332101 0.734141,-0.1231483 1.7881,-0.1640617 3.1777,-0.1640617 z"
       style="color:#000000;font-variant-ligatures:normal;font-variant-position:normal;font-variant-caps:normal;font-variant-numeric:normal;font-variant-alternates:normal;font-variant-east-asian:normal;font-feature-settings:normal;font-variation-settings:normal;text-indent:0;text-decoration-line:none;text-decoration-style:solid;text-decoration-color:#000000;text-transform:none;text-orientation:mixed;dominant-baseline:auto;white-space:normal;shape-padding:0;shape-margin:0;inline-size:0;opacity:0.25;isolation:auto;mix-blend-mode:normal;solid-color:#000000;fill:url(#linearGradient1346);fill-opacity:1;stroke-width:0.999999;color-rendering:auto;image-rendering:auto;shape-rendering:auto;stop-color:#000000"
       id="path1144" />
    <path
       d="m 31.203282,-6 c -1.4233,0 -2.553,0.031181 -3.5078,0.1914104 -0.95742,0.1605997 -1.7898,0.4725498 -2.4102,1.0917997 -0.62057,0.6195299 -0.93089,1.4499998 -1.0918,2.4061999 -0.16046,0.9534999 -0.19336,2.08149988 -0.19336,3.5019998 v 6.6148996 c 0,1.4205 0.033,2.5503996 0.19336,3.5058996 0.16083,0.9581 0.47181,1.7926 1.0918,2.4141 0.62026,0.62171 1.4532,0.93242 2.4121,1.0918 0.95554,0.158839 2.084699,0.188561 3.5078,0.18164 h 7.794899 l 5.7948,1.6e-4 c 1.4231,0.007 2.5523,-0.02279 3.5078,-0.18164 0.95889,-0.15938 1.7918,-0.47007 2.4121,-1.0918 0.61998,-0.62145 0.93098,-1.456 1.0918,-2.4141 0.16038,-0.9554 0.19336,-2.0853996 0.19336,-3.5058996 V 1.1915697 c 0,-1.42049992 -0.03288,-2.5484999 -0.193361,-3.5019999 -0.160909,-0.9562 -0.471229,-1.7866998 -1.091799,-2.4061999 -0.62029,-0.6192498 -1.4527,-0.9311897 -2.4101,-1.0918 -0.954791,-0.16017 -2.0845,-0.19137 -3.507801,-0.19141 L 39.000081,-6 Z m 0,0.9999999 h 7.796899 l 5.7968,1.602e-4 c 1.4071,4.01e-5 2.4966,0.035603 3.3437,0.1777285 0.84445,0.1416605 1.4442,0.3902498 1.867199,0.8124998 0.422691,0.4219801 0.67264,1.0224 0.81446,1.8652002 0.142269,0.8455098 0.177729,1.93159968 0.177729,3.3358998 v 6.6149 c 0,1.4043 -0.03549,2.4922996 -0.177729,3.3397996 -0.14181,0.844811 -0.39148,1.449101 -0.81446,1.873001 -0.42269,0.4237 -1.0247,0.67214 -1.8691,0.8125 -0.84671,0.14078 -1.9339,0.17493 -3.3398,0.16797 l -5.7987,-1.6e-4 h -7.7969 c -1.407099,0.007 -2.494599,-0.0271 -3.341799,-0.16797 -0.84441,-0.14035 -1.4464,-0.38881 -1.8691,-0.8125 -0.42297,-0.42397 -0.67265,-1.0282 -0.81446,-1.873 -0.14228,-0.84748 -0.17773,-1.9354996 -0.17773,-3.3397996 V 1.1913297 c 0,-1.40439992 0.0355,-2.4903999 0.17773,-3.3358998 0.14183,-0.8427999 0.39177,-1.4432999 0.81446,-1.8651999 0.42298,-0.4222499 1.0227,-0.67084 1.8672,-0.8125001 0.84708,-0.1421103 1.9366,-0.1777285 3.343699,-0.1777285 z"
       style="color:#000000;font-variant-ligatures:normal;font-variant-position:normal;font-variant-caps:normal;font-variant-numeric:normal;font-variant-alternates:normal;font-variant-east-asian:normal;font-feature-settings:normal;font-variation-settings:normal;text-indent:0;text-decoration-line:none;text-decoration-style:solid;text-decoration-color:#000000;text-transform:none;text-orientation:mixed;dominant-baseline:auto;white-space:normal;shape-padding:0;shape-margin:0;inline-size:0;opacity:0.4;isolation:auto;mix-blend-mode:normal;solid-color:#000000;stroke-width:0.999999;color-rendering:auto;image-rendering:auto;shape-rendering:auto;stop-color:#000000"
       id="path990" />
    <path
       d="m 33,-1 v 4 h 2 v -4 z m 8,0 v 4 h 2 V -1 Z M 33,5.9999999 V 8 H 43 V 5.9999999 H 35 Z M 43,8 v 2 h 2 V 8 Z M 33,8 h -2 v 2 h 2 z"
       style="fill:#ed3146;stroke-width:1"
       id="path5461" />
  </g>
</svg>
