<?xml version="1.0" encoding="UTF-8" standalone="no"?>
<!-- Created with Inkscape (http://www.inkscape.org/) -->

<svg
   width="22"
   height="22"
   viewBox="0 0 22 22"
   version="1.1"
   id="svg643"
   inkscape:version="1.2 (dc2aedaf03, 2022-05-15)"
   sodipodi:docname="klipper.svg"
   xmlns:inkscape="http://www.inkscape.org/namespaces/inkscape"
   xmlns:sodipodi="http://sodipodi.sourceforge.net/DTD/sodipodi-0.dtd"
   xmlns:xlink="http://www.w3.org/1999/xlink"
   xmlns="http://www.w3.org/2000/svg"
   xmlns:svg="http://www.w3.org/2000/svg">
  <sodipodi:namedview
     id="namedview645"
     pagecolor="#ffffff"
     bordercolor="#000000"
     borderopacity="0.25"
     inkscape:showpageshadow="2"
     inkscape:pageopacity="0.0"
     inkscape:pagecheckerboard="0"
     inkscape:deskcolor="#d1d1d1"
     inkscape:document-units="px"
     showgrid="false"
     inkscape:zoom="9.5577099"
     inkscape:cx="8.3178922"
     inkscape:cy="7.1669888"
     inkscape:window-width="1854"
     inkscape:window-height="1018"
     inkscape:window-x="0"
     inkscape:window-y="0"
     inkscape:window-maximized="1"
     inkscape:current-layer="svg643" />
  <defs
     id="defs640">
    <style
       id="current-color-scheme"
       type="text/css">
   .ColorScheme-Text { color:#dfdfdf; } .ColorScheme-Highlight { color:#5294e2; }
    </style>
    <linearGradient
       inkscape:collect="always"
       xlink:href="#linearGradient3598"
       id="linearGradient885"
       x1="5.840589"
       y1="8.2020836"
       x2="2.6656919"
       y2="0.39687499"
       gradientUnits="userSpaceOnUse"
       gradientTransform="matrix(3.7795275,0,0,3.7795275,22.000002,-10)" />
    <linearGradient
       inkscape:collect="always"
       id="linearGradient3598">
      <stop
         style="stop-color:#fff4c9;stop-opacity:1"
         offset="0"
         id="stop3594" />
      <stop
         style="stop-color:#fee581;stop-opacity:1"
         offset="1"
         id="stop3596" />
    </linearGradient>
    <linearGradient
       inkscape:collect="always"
       xlink:href="#linearGradient1871"
       id="linearGradient1659"
       x1="2.6654696"
       y1="0.52916664"
       x2="2.69718"
       y2="7.9375"
       gradientUnits="userSpaceOnUse"
       gradientTransform="matrix(3.7795275,0,0,3.7795275,22.000002,-10)" />
    <linearGradient
       inkscape:collect="always"
       id="linearGradient1871">
      <stop
         style="stop-color:#ffffff;stop-opacity:1;"
         offset="0"
         id="stop1867" />
      <stop
         style="stop-color:#ffffff;stop-opacity:0.1"
         offset="0.12"
         id="stop2515" />
      <stop
         style="stop-color:#ffffff;stop-opacity:0.102"
         offset="0.89999998"
         id="stop2581" />
      <stop
         style="stop-color:#ffffff;stop-opacity:0.502"
         offset="1"
         id="stop1869" />
    </linearGradient>
  </defs>
  <g
     id="16-16-klipper">
    <rect
       style="opacity:1;fill:none;fill-opacity:1;stroke-width:2;stroke-linecap:round;stroke-linejoin:round"
       id="rect1804"
       width="16"
       height="16"
       x="-16"
       y="6" />
    <path
       d="M -8.007812,6 C -9.107432,6.00875 -9.995654,6.9003543 -10,8 h -1 c -0.656998,0 -1.178189,0.05961 -1.617187,0.2246094 C -13.056186,8.3886088 -13.407235,8.6855012 -13.615234,9.0625 -14.030233,9.8144976 -13.985,10.736145 -14,11.994141 v 5.011718 c 0.015,1.257997 -0.03023,2.178644 0.384766,2.931641 0.207999,0.376 0.560048,0.672891 0.998047,0.837891 C -12.178189,20.939388 -11.656998,21 -11,21 h 6 c 0.656998,0 1.178188,-0.05961 1.617188,-0.224609 0.438998,-0.164 0.790048,-0.460891 0.998046,-0.837891 C -1.969766,19.185502 -2.015,18.263857 -2,17.005859 V 11.994141 C -2.015,10.736145 -1.968766,9.8154976 -2.384766,9.0625 -2.607063,8.6734919 -2.961039,8.3757721 -3.382812,8.2246094 -3.820812,8.0596097 -4.343003,8 -5,8 H -6.003906 C -6.008206,6.9003543 -6.896475,6.0087536 -7.996094,6 Z m 0.0098,1 h 0.002 c 0.558065,0.00104 0.998047,0.4426577 0.998047,1 0.0056,0.5545986 -0.4454,1.0056309 -1,1 C -8.401517,9.0054 -8.767103,8.7640721 -8.919922,8.390625 -8.971172,8.2670099 -8.996522,8.133817 -8.996092,8 c 0,-0.5573423 0.439984,-0.9989625 0.998047,-1 z M -11,9 v 0.9980468 h 6 V 9 c 0.592997,0 1.005625,0.063156 1.265625,0.1601562 0.26,0.098 0.371656,0.2027194 0.472656,0.3867188 C -3.059719,9.9128738 -3.015,10.741004 -3,12 v 5 0.01172 c -0.01515,1.25212 -0.06038,2.076593 -0.261719,2.441405 C -3.518881,19.958636 -4.408002,20 -5,20 h -6 c -0.591998,0 -1.006626,-0.06316 -1.265625,-0.160156 -0.259999,-0.098 -0.371657,-0.202719 -0.472656,-0.386719 C -12.940281,19.087125 -12.985,18.258997 -13,17 v -5 c 0.015,-1.258996 0.05972,-2.0871262 0.261719,-2.453125 0.100999,-0.1839994 0.212657,-0.2897188 0.472656,-0.3867188 C -12.005626,9.0621562 -11.591998,9 -11,9 Z m 0,3 v 1 h 6.011719 v -1 z m 0,2 v 1 h 6.011719 v -1 z m -0.0098,2 v 1 h 3 v -1 z"
       style="fill:currentColor;fill-opacity:1;stroke-width:2;stroke-linecap:round;stroke-linejoin:round"
       class="ColorScheme-Text"
       id="path1814" />
  </g>
  <g
     id="22-22-klipper">
    <rect
       style="opacity:1;fill:none;stroke-width:2;stroke-linecap:round;stroke-linejoin:round"
       id="rect816"
       width="22"
       height="22"
       x="0"
       y="0" />
    <path
       id="path935"
       style="opacity:1;fill:currentColor;fill-opacity:1;stroke-width:2;stroke-linecap:round;stroke-linejoin:round"
       class="ColorScheme-Text"
       d="M 10.992188,3 C 9.8925684,3.00875 9.0043462,3.9003543 9,5 H 8 C 7.3430021,5 6.8218113,5.0596101 6.3828125,5.2246094 5.9438137,5.3886088 5.5927649,5.6855012 5.3847656,6.0625 4.9697667,6.8144976 5.015,7.7361445 5,8.9941406 v 5.0117184 c 0.015,1.257997 -0.030234,2.178644 0.3847656,2.931641 0.2079993,0.376 0.5600481,0.672891 0.9980469,0.837891 C 6.8218113,17.939388 7.3430021,18 8,18 h 6 c 0.656998,0 1.178188,-0.05961 1.617188,-0.224609 0.438998,-0.164 0.790048,-0.460891 0.998046,-0.837891 C 17.030234,16.185502 16.985,15.263857 17,14.005859 V 8.9941406 C 16.985,7.7361445 17.031234,6.8154976 16.615234,6.0625 16.392937,5.6734919 16.038961,5.3757721 15.617188,5.2246094 15.179188,5.0596097 14.656997,5 14,5 H 12.996094 C 12.991794,3.9003543 12.103525,3.0087536 11.003906,3 Z m 0.0098,1 h 0.002 c 0.558065,0.00104 0.998047,0.4426577 0.998047,1 0.0056,0.5545986 -0.4454,1.0056309 -1,1 C 10.598483,6.0054 10.232897,5.7640721 10.080078,5.390625 10.028828,5.2670099 10.003476,5.133817 10.003906,5 c 0,-0.5573423 0.439984,-0.9989625 0.998047,-1 z M 8,6 v 0.9980469 h 6 V 6 c 0.592997,0 1.005625,0.063156 1.265625,0.1601562 0.26,0.098 0.371656,0.2027194 0.472656,0.3867188 C 15.940281,6.9128738 15.985,7.7410039 16,9 v 5 0.01172 c -0.01515,1.25212 -0.06038,2.076593 -0.261719,2.441405 C 15.481119,16.958636 14.591998,17 14,17 H 8 C 7.4080018,17 6.9933741,16.93684 6.734375,16.839844 6.4743759,16.741844 6.3627182,16.637125 6.2617188,16.453125 6.0597194,16.087125 6.015,15.258997 6,14 V 9 C 6.015,7.7410039 6.0597192,6.9128738 6.2617188,6.546875 6.3627182,6.3628756 6.4743759,6.2571562 6.734375,6.1601562 6.9943741,6.0621563 7.4080017,6 8,6 Z m 0,3 v 1 h 6.011719 V 9 Z m 0,2 v 1 h 6.011719 v -1 z m -0.00977,2 v 1 h 3 v -1 z"
       sodipodi:nodetypes="ccsccccccssccccccsccccccccccccccccccccsscccccccccccccccccccccc" />
  </g>
  <g
     id="klipper">
    <rect
       style="opacity:1;fill:none;fill-opacity:1;stroke-width:2;stroke-linecap:round;stroke-linejoin:round"
       id="rect3639"
       width="32"
       height="32"
       x="22"
       y="-10" />
    <path
       d="m 32.194068,-8.0000001 c -1.42091,0 -2.54873,0.030799 -3.50573,0.1914101 -0.95699,0.1606399 -1.79139,0.4725999 -2.41202,1.0917899 -0.62062,0.6191898 -0.93643,1.4561201 -1.09566,2.4140701 -0.159231,0.9579499 -0.186648,2.0870498 -0.179678,3.5117098 v 7.7910197 7.7968795 c -0.007,1.42131 0.02071,2.5495 0.179678,3.50585 0.159232,0.95796 0.47504,1.79488 1.09566,2.41407 0.62063,0.61919 1.45503,0.93115 2.41202,1.09179 C 29.645338,21.969238 30.773158,22 32.194068,22 h 11.61479 c 1.42092,0 2.546599,-0.03069 3.50183,-0.191411 0.955239,-0.16075 1.787729,-0.47425 2.40616,-1.09375 0.61843,-0.619499 0.93131,-1.45363 1.091749,-2.410149 0.16045,-0.95653 0.191401,-2.08403 0.191401,-3.50781 V 6.9999995 -0.7968804 c 0,-1.4237798 -0.03099,-2.5512797 -0.1914,-3.5078097 -0.16044,-0.95653 -0.47332,-1.7906498 -1.09175,-2.41015 -0.618431,-0.61951 -1.450921,-0.9329999 -2.40616,-1.0937499 -0.955231,-0.1607601 -2.08091,-0.1914101 -3.50183,-0.1914101 z"
       style="color:#000000;font-style:normal;font-variant:normal;font-weight:normal;font-stretch:normal;font-size:medium;line-height:normal;font-family:sans-serif;font-variant-ligatures:normal;font-variant-position:normal;font-variant-caps:normal;font-variant-numeric:normal;font-variant-alternates:normal;font-feature-settings:normal;text-indent:0;text-align:start;text-decoration:none;text-decoration-line:none;text-decoration-style:solid;text-decoration-color:#000000;letter-spacing:normal;word-spacing:normal;text-transform:none;writing-mode:lr-tb;direction:ltr;text-orientation:mixed;dominant-baseline:auto;baseline-shift:baseline;text-anchor:start;white-space:normal;shape-padding:0;clip-rule:nonzero;display:inline;overflow:visible;visibility:visible;opacity:0.1;isolation:auto;mix-blend-mode:normal;color-interpolation:sRGB;color-interpolation-filters:linearRGB;solid-color:#000000;solid-opacity:1;vector-effect:none;fill:#000000;fill-opacity:1;fill-rule:nonzero;stroke:none;stroke-width:1.99996;stroke-linecap:butt;stroke-linejoin:miter;stroke-miterlimit:4;stroke-dasharray:none;stroke-dashoffset:0;stroke-opacity:1;marker:none;color-rendering:auto;image-rendering:auto;shape-rendering:auto;text-rendering:auto;enable-background:accumulate"
       id="path1922" />
    <path
       d="m 32.075058,-8.5 c -5.56175,0 -6.6037,0.5840899 -6.57447,6.2822697 V 5.9999195 14.217729 C 25.471298,19.915909 26.513308,20.5 32.075058,20.5 h 11.85044 c 5.560369,0 6.57447,-0.58403 6.57447,-6.282271 V 5.9999195 -2.2177303 C 50.499968,-7.91597 49.485867,-8.5 43.925498,-8.5 Z"
       style="color:#000000;display:inline;overflow:visible;visibility:visible;fill:url(#linearGradient885);fill-opacity:1;fill-rule:nonzero;stroke:none;stroke-width:0.999999;marker:none;enable-background:accumulate"
       id="path2042" />
    <path
       id="rect872"
       style="fill:#fdc92b;fill-opacity:1;stroke:none;stroke-width:1.03655;stroke-linecap:round;stroke-linejoin:round"
       d="m 32.074221,-8.5 c -5.56175,0 -6.603449,0.5850234 -6.574219,6.2832031 V -2 h 25 V -2.2167969 C 50.500002,-7.9150366 49.486153,-8.5 43.925783,-8.5 Z M 30.000002,2 v 1 h 16 V 2 Z m 0,3 v 1 h 16 V 5 Z m 0,3 v 1 h 16 V 8 Z m 0,3 v 1 h 8 v -1 z" />
    <path
       id="path2368"
       style="color:#000000;display:inline;opacity:0.7;fill:url(#linearGradient1659);fill-opacity:1;stroke-width:0.999999;-inkscape-stroke:none;enable-background:new"
       d="m 32.074218,-8.0000001 c -2.7633,0 -4.28936,0.1903 -5.04883,0.875 -0.37973,0.34235 -0.63559,0.83215 -0.80273,1.625 -0.16715,0.79285 -0.22966,1.8700297 -0.22266,3.2792999 v 0.002 8.2187496 8.2187496 0.002 c -0.007,1.40926 0.0555,2.48645 0.22266,3.279299 0.167138,0.79285 0.42299,1.282651 0.802729,1.625 0.75948,0.6847 2.28553,0.875 5.04883,0.875 h 11.851561 c 2.76262,0 4.28071,-0.190579 5.037109,-0.875 0.378201,-0.34221 0.63408,-0.83142 0.80273,-1.625 0.168692,-0.793679 0.23438,-1.87358 0.23438,-3.2833 V 5.9999996 -2.2168001 c 0,-1.4097199 -0.0657,-2.4896201 -0.23438,-3.2832 -0.16865,-0.79358 -0.424529,-1.28279 -0.80273,-1.625 -0.756399,-0.68442 -2.274489,-0.875 -5.037109,-0.875 z m 0.4375,0.95312 h 11.02539 c 1.45312,0 2.55451,0.0404 3.32422,0.16407 0.769709,0.1236499 1.157219,0.30849 1.400389,0.54101 0.243179,0.2325204 0.436941,0.6031599 0.5664,1.3398499 0.129461,0.7366998 0.171882,1.7916298 0.171882,3.1816399 V 5.9765594 13.77344 c 0,1.390009 -0.0424,2.444939 -0.171882,3.18164 -0.129448,0.7367 -0.323221,1.10732 -0.5664,1.339839 -0.24317,0.23252 -0.63068,0.417371 -1.400389,0.541021 C 46.091618,18.95958 44.990228,19 43.537108,19 h -11.02539 c -1.45312,0 -2.55772,-0.0403 -3.33008,-0.164062 -0.77237,-0.123759 -1.16371,-0.308189 -1.4082,-0.541019 -0.24449,-0.232839 -0.43642,-0.60259 -0.56446,-1.33789 -0.12803,-0.735299 -0.16923,-1.78861 -0.1621,-3.17773 v -0.002 -7.8007793 -7.7988301 -0.002 c -0.007,-1.3891101 0.0341,-2.44243 0.1621,-3.1777299 0.12804,-0.7353101 0.31997,-1.1050598 0.56446,-1.33789 0.24449,-0.23284 0.63583,-0.41725 1.4082,-0.54102 0.77236,-0.12376 1.87696,-0.16406 3.33008,-0.16406 z"
       sodipodi:nodetypes="sssscccsssssssscssssscssssscsssssssssscccsssscc" />
    <path
       d="m 32.074668,-9 c -2.79831,0 -4.57403,0.1009198 -5.71861,1.1328099 -0.5723,0.51595 -0.91751,1.24088 -1.11131,2.16016 -0.19379,0.9192801 -0.25152,2.0523598 -0.244129,3.4921897 v 8.21484 8.2167994 c -0.007,1.43868 0.0505,2.571461 0.244131,3.49023 0.193799,0.91928 0.539009,1.64421 1.111309,2.160161 1.14459,1.031889 2.9203,1.13281 5.71861,1.13281 h 11.851279 c 2.79762,0 4.5662,-0.100661 5.7069,-1.13281 0.570339,-0.516081 0.916069,-1.241611 1.111299,-2.160161 0.19522,-0.91855 0.255851,-2.05084 0.255851,-3.49023 V 5.9999996 -2.2168001 c 0,-1.43939 -0.0606,-2.5716801 -0.255852,-3.49023 -0.195229,-0.91855 -0.540959,-1.64408 -1.111298,-2.16016 C 48.492148,-8.89934 46.723568,-9 43.925948,-9 Z m 0,0.9999999 h 11.85128 c 2.76262,0 4.280589,0.1905801 5.03699,0.875 0.3782,0.3422101 0.634049,0.83142 0.80271,1.625 0.16868,0.7935799 0.23438,1.8734801 0.23438,3.2832 v 8.2167997 8.2167994 c 0,1.40972 -0.0657,2.48962 -0.23438,3.283201 -0.168661,0.793579 -0.42451,1.282789 -0.80271,1.625 C 48.206537,19.809419 46.688568,20 43.925948,20 h -11.85128 c -2.7633,0 -4.28923,-0.1903 -5.04871,-0.875 -0.37974,-0.342351 -0.63557,-0.83215 -0.80271,-1.625 -0.16715,-0.792851 -0.2299,-1.870041 -0.22265,-3.2793 v -0.002 -8.2187004 -8.21875 -0.002 c -0.007,-1.4092702 0.0555,-2.4864499 0.22265,-3.2792999 0.16714,-0.7928501 0.42298,-1.2826501 0.80271,-1.6250001 0.75947,-0.6847 2.28541,-0.875 5.04871,-0.875 z"
       style="color:#000000;display:inline;opacity:0.4;fill:#000000;stroke-width:0.999987;-inkscape-stroke:none;enable-background:new"
       id="path2244" />
  </g>
</svg>
