<?xml version="1.0" encoding="UTF-8" standalone="no"?>
<!-- Created with Inkscape (http://www.inkscape.org/) -->

<svg
   width="22"
   height="22"
   viewBox="0 0 22 22"
   version="1.1"
   id="svg4664"
   inkscape:version="1.2 (dc2aedaf03, 2022-05-15)"
   sodipodi:docname="preferences.svg"
   xmlns:inkscape="http://www.inkscape.org/namespaces/inkscape"
   xmlns:sodipodi="http://sodipodi.sourceforge.net/DTD/sodipodi-0.dtd"
   xmlns:xlink="http://www.w3.org/1999/xlink"
   xmlns="http://www.w3.org/2000/svg"
   xmlns:svg="http://www.w3.org/2000/svg">
  <sodipodi:namedview
     id="namedview4666"
     pagecolor="#ffffff"
     bordercolor="#000000"
     borderopacity="0.25"
     inkscape:showpageshadow="2"
     inkscape:pageopacity="0.0"
     inkscape:pagecheckerboard="0"
     inkscape:deskcolor="#d1d1d1"
     inkscape:document-units="px"
     showgrid="false"
     showguides="false"
     inkscape:zoom="3.2020688"
     inkscape:cx="96.656262"
     inkscape:cy="26.38919"
     inkscape:window-width="1854"
     inkscape:window-height="1018"
     inkscape:window-x="0"
     inkscape:window-y="0"
     inkscape:window-maximized="1"
     inkscape:current-layer="svg4664" />
  <defs
     id="defs4661">
    <style
       id="current-color-scheme"
       type="text/css">
   .ColorScheme-Text { color:#dfdfdf; } .ColorScheme-Highlight { color:#0077c4; }
    </style>
    <linearGradient
       inkscape:collect="always"
       id="linearGradient8683">
      <stop
         style="stop-color:#c7c7c7;stop-opacity:1;"
         offset="0"
         id="stop8679" />
      <stop
         style="stop-color:#6b6b6b;stop-opacity:1;"
         offset="1"
         id="stop8681" />
    </linearGradient>
    <linearGradient
       inkscape:collect="always"
       xlink:href="#linearGradient1871"
       id="linearGradient1346"
       x1="2.4350028"
       y1="1.0583333"
       x2="2.4350028"
       y2="7.4083333"
       gradientUnits="userSpaceOnUse"
       gradientTransform="matrix(3.7795275,0,0,3.7795275,22.000122,-10)" />
    <linearGradient
       inkscape:collect="always"
       id="linearGradient1871">
      <stop
         style="stop-color:#ffffff;stop-opacity:1;"
         offset="0"
         id="stop1867" />
      <stop
         style="stop-color:#ffffff;stop-opacity:0.1"
         offset="0.12"
         id="stop2515" />
      <stop
         style="stop-color:#ffffff;stop-opacity:0.102"
         offset="0.89999998"
         id="stop2581" />
      <stop
         style="stop-color:#ffffff;stop-opacity:0.502"
         offset="1"
         id="stop1869" />
    </linearGradient>
    <linearGradient
       inkscape:collect="always"
       xlink:href="#linearGradient2698"
       id="linearGradient2700"
       x1="5.0270834"
       y1="7.276042"
       x2="2.778125"
       y2="1.5875"
       gradientUnits="userSpaceOnUse"
       gradientTransform="matrix(3.7795275,0,0,3.7795275,22.000122,-10)" />
    <linearGradient
       inkscape:collect="always"
       id="linearGradient2698">
      <stop
         style="stop-color:#fdfdfd;stop-opacity:1"
         offset="0"
         id="stop2694" />
      <stop
         style="stop-color:#f0f0f0;stop-opacity:1"
         offset="1"
         id="stop2696" />
    </linearGradient>
    <linearGradient
       inkscape:collect="always"
       xlink:href="#linearGradient3598"
       id="linearGradient885"
       x1="5.840589"
       y1="8.2020836"
       x2="2.6656919"
       y2="0.39687499"
       gradientUnits="userSpaceOnUse"
       gradientTransform="matrix(3.7795275,0,0,3.7795275,66,14)" />
    <linearGradient
       inkscape:collect="always"
       id="linearGradient3598">
      <stop
         style="stop-color:#80a3fa;stop-opacity:1"
         offset="0"
         id="stop3594" />
      <stop
         style="stop-color:#5884f4;stop-opacity:1"
         offset="1"
         id="stop3596" />
    </linearGradient>
    <linearGradient
       inkscape:collect="always"
       xlink:href="#linearGradient1871"
       id="linearGradient1659"
       x1="2.6654696"
       y1="0.52916664"
       x2="2.69718"
       y2="7.9375"
       gradientUnits="userSpaceOnUse"
       gradientTransform="matrix(3.7795275,0,0,3.7795275,66,14)" />
    <linearGradient
       inkscape:collect="always"
       xlink:href="#linearGradient3598"
       id="linearGradient8062"
       gradientUnits="userSpaceOnUse"
       gradientTransform="matrix(3.7795275,0,0,3.7795275,98,14)"
       x1="5.840589"
       y1="8.2020836"
       x2="2.6656919"
       y2="0.39687499" />
    <linearGradient
       inkscape:collect="always"
       xlink:href="#linearGradient1871"
       id="linearGradient8064"
       gradientUnits="userSpaceOnUse"
       gradientTransform="matrix(3.7795275,0,0,3.7795275,98,14)"
       x1="2.6654696"
       y1="0.52916664"
       x2="2.69718"
       y2="7.9375" />
    <linearGradient
       inkscape:collect="always"
       xlink:href="#linearGradient8683"
       id="linearGradient8119"
       gradientUnits="userSpaceOnUse"
       gradientTransform="matrix(3.7795275,0,0,3.7795275,130.00001,14.000001)"
       x1="5.840589"
       y1="8.2020836"
       x2="2.6656919"
       y2="0.39687499" />
    <linearGradient
       inkscape:collect="always"
       xlink:href="#linearGradient1871"
       id="linearGradient8121"
       gradientUnits="userSpaceOnUse"
       gradientTransform="matrix(3.7795275,0,0,3.7795275,130.00001,14.000001)"
       x1="2.6654696"
       y1="0.52916664"
       x2="2.69718"
       y2="7.9375" />
  </defs>
  <g
     id="16-16-preferences-desktop-display-xrandr"
     transform="translate(-3,-3)">
    <rect
       style="opacity:1;fill:none;stroke-width:2;stroke-linecap:round;stroke-linejoin:round"
       id="rect5734"
       width="16"
       height="16"
       x="-16"
       y="6" />
    <path
       d="m -12.005857,7.0000041 c -1.258199,0.0145 -2.178942,-0.030604 -2.931641,0.3847659 -0.37637,0.207659 -0.673231,0.559387 -0.837891,0.998047 -0.112269,0.299069 -0.174015,0.640423 -0.203125,1.033203 -0.0096,0.02732 -0.01677,0.05542 -0.02148,0.08398 v 5.5 1 c 0,0.657609 0.0599,1.178488 0.224609,1.617187 0.16467,0.43866 0.461521,0.790397 0.837891,0.998047 0.752749,0.41532 1.673442,0.370196 2.931641,0.384766 h 0.0039 H -10 v 0.5 c 0,1.499998 -0.500001,1.5 -1.5,1.5 H -12 v 1 h 8 v -1 h -0.5 c -0.999999,0 -1.5,-2e-6 -1.5,-1.5 V 19 H -3.998047 -2.5 c 0.06827,-0.002 0.135401,-0.01794 0.197266,-0.04687 0.466349,-0.04388 0.873334,-0.135421 1.240234,-0.337891 0.37637,-0.20766 0.673221,-0.559387 0.837891,-0.998047 C -0.06012,17.178518 0,16.657619 0,16 V 10 C 0,9.342391 -0.0599,8.821512 -0.224609,8.382813 -0.389269,7.944153 -0.68613,7.592425 -1.0625,7.384766 -1.815247,6.9694301 -2.73594,7.014524 -3.994139,7.0000041 h -0.0039 -8.003906 z m 0.0059,0.9999999 h 8 c 1.258499,0.0147 2.087235,0.0598 2.453125,0.261719 0.18341,0.1012 0.289159,0.212736 0.386719,0.472656 0.097399,0.2599 0.160155,0.673256 0.160155,1.265625 v 6 c 0,0.592389 -0.0626,1.005735 -0.160156,1.265625 -0.0976,0.259909 -0.203309,0.371466 -0.386719,0.472656 -0.18205,0.10045 -0.479689,0.162782 -0.886719,0.201172 l -12.52539,-8.671875 c 0.02793,-0.22073 0.06857,-0.398493 0.11914,-0.533203 0.0976,-0.25991 0.203309,-0.371466 0.386719,-0.472656 0.36594,-0.20191 1.194626,-0.247009 2.453126,-0.261719 z m -3.000001,2.453125 10.900391,7.546875 h -1.900391 -4 -1.994141 -0.0059 c -1.258499,-0.0147 -2.087235,-0.0598 -2.453125,-0.261719 -0.18341,-0.10119 -0.289159,-0.212747 -0.386719,-0.472656 -0.0976,-0.25989 -0.160156,-0.673256 -0.160156,-1.265625 z m 1.472656,2.546875 c -0.265399,0.01456 -0.473028,0.234202 -0.472656,0.5 v 2.5 c 0,0.416669 0.283094,0.762635 0.527344,0.884765 0.24426,0.12212 0.472656,0.115235 0.472656,0.115235 h 3.5 c 0.481391,0.0011 0.686185,-0.611943 0.300781,-0.900391 l -4,-3 c -0.09421,-0.07084 -0.21043,-0.106117 -0.328125,-0.09961 z m 0.527344,1.5 1.998047,1.5 h -1.998047 z"
       style="fill:currentColor;fill-opacity:1;stroke-width:2;stroke-linecap:round;stroke-linejoin:round"
       class="ColorScheme-Text"
       id="path6405" />
  </g>
  <g
     id="22-22-preferences-desktop-display-randr">
    <rect
       style="fill:none;stroke-width:2;stroke-linecap:round;stroke-linejoin:round"
       id="rect4785"
       width="22"
       height="22"
       x="0"
       y="0" />
    <path
       id="path6379"
       style="fill:currentColor;fill-opacity:1;stroke-width:2;stroke-linecap:round;stroke-linejoin:round"
       class="ColorScheme-Text"
       d="M 6.9941406,4 C 5.7359419,4.0144999 4.8151992,3.969396 4.0625,4.3847656 3.6861304,4.5924254 3.3892692,4.9441529 3.2246094,5.3828124 3.1123395,5.6818822 3.0505944,6.023236 3.0214844,6.4160156 3.0119074,6.4433345 3.0047156,6.471438 3,6.5 v 5.5 1 c 0,0.657609 0.0599,1.178488 0.2246094,1.617187 0.1646698,0.43866 0.461521,0.790397 0.8378906,0.998047 C 4.8152492,16.030554 5.7359419,15.98543 6.9941406,16 H 6.9980469 9 v 0.5 C 9,17.999998 8.499999,18 7.5,18 H 7 v 1 h 8 v -1 h -0.5 c -0.999999,0 -1.5,-2e-6 -1.5,-1.5 V 16 H 15.001953 16.5 c 0.06827,-0.002 0.135401,-0.01794 0.197266,-0.04687 0.466349,-0.04388 0.873334,-0.135421 1.240234,-0.337891 0.37637,-0.20766 0.673221,-0.559387 0.837891,-0.998047 C 18.93988,14.178518 19,13.657619 19,13 V 7 C 19,6.3423906 18.9401,5.821512 18.775391,5.3828124 18.610731,4.9441529 18.31387,4.5924254 17.9375,4.3847656 17.184751,3.969426 16.264058,4.0145199 15.005859,4 h -0.0039 -8.0039061 z m 0.00586,1 h 8.0000004 c 1.258499,0.0147 2.087235,0.059799 2.453125,0.2617187 0.18341,0.1011999 0.289159,0.2127365 0.386719,0.4726563 C 17.937244,5.9942747 18,6.4076305 18,7 v 6 c 0,0.592389 -0.0626,1.005735 -0.160156,1.265625 -0.0976,0.259909 -0.203309,0.371466 -0.386719,0.472656 -0.18205,0.10045 -0.479689,0.162782 -0.886719,0.201172 L 4.0410156,6.2675781 C 4.0689456,6.0468483 4.1095863,5.8690848 4.1601562,5.734375 4.2577562,5.4744652 4.3634652,5.3629086 4.546875,5.2617187 4.9128146,5.0598089 5.7415013,5.0147099 7.0000006,5 Z M 4,7.453125 14.900391,15 H 13 9 7.0058594 7 C 5.7415013,14.9853 4.9127646,14.940201 4.546875,14.738281 4.3634652,14.637091 4.2577162,14.525534 4.1601562,14.265625 4.0625563,14.005735 4,13.592369 4,13 Z M 5.4726562,10 C 5.2072568,10.01456 4.9996276,10.234202 5,10.5 V 13 c 0,0.416669 0.283094,0.762635 0.5273438,0.884765 C 5.7716035,14.006885 6,14 6,14 h 3.5 c 0.481391,0.0011 0.686185,-0.611943 0.3007812,-0.900391 l -4,-3 C 5.7065672,10.028769 5.5903512,9.9934922 5.4726562,10 Z M 6,11.5 7.9980469,13 H 6 Z"
       sodipodi:nodetypes="ccccccscccccssccccssccccccssccccccccccsscccccccccccccccscccscccccccccc" />
  </g>
  <g
     id="preferences-desktop-display-randr">
    <rect
       style="fill:none;stroke-width:2.90909;stroke-linecap:round;stroke-linejoin:round"
       id="rect4787"
       width="32"
       height="32"
       x="22"
       y="-10" />
    <path
       d="m 24.500182,0.1939998 c 0,-1.4123996 0.0342,-2.5223995 0.185549,-3.4237995 0.151321,-0.9014502 0.431641,-1.6199002 0.953121,-2.1426001 0.52148,-0.5227 1.239,-0.8032501 2.1406,-0.9531201 0.901639,-0.1498798 2.0101,-0.1807499 3.4258,-0.1738299 h 7.794899 l 5.796799,1.598e-4 c 1.4145,-0.00699 2.522701,0.024 3.4238,0.1738318 0.90165,0.1498696 1.6192,0.43041 2.1406,0.9531201 0.52148,0.5227197 0.8018,1.2410997 0.95312,2.1425998 0.151322,0.9015001 0.185548,2.0113999 0.185548,3.4237995 v 6.6149 c 0,1.4124001 -0.0342,2.5185001 -0.185548,3.4179998 -0.15137,0.899498 -0.431489,1.615998 -0.95312,2.136698 -0.52163,0.5207 -1.237699,0.80004 -2.1387,0.95117 -0.900939,0.15113 -2.052112,0.195184 -3.4258,0.185551 l -5.7968,-1.61e-4 h -7.796899 c -1.415201,0 -2.5248,-0.03439 -3.4258,-0.185548 -0.90093,-0.151132 -1.617,-0.430422 -2.1387,-0.951172 -0.52163,-0.52075 -0.80175,-1.2372 -0.95312,-2.1367 -0.15137,-0.8994997 -0.18555,-2.0055997 -0.18555,-3.4179992 z"
       style="color:#000000;fill:#4d4d4d;stroke-width:0.999999"
       id="path874"
       sodipodi:nodetypes="ccsccccccssscscccsccscc" />
    <path
       d="m 31.203782,-6.0000002 c -5.6268,0 -6.2031,0.5760302 -6.2031,6.1914001 v 6.6148996 c 0,5.6153995 0.57638,6.2208995 6.2031,6.1933995 h 7.796899 l 5.796799,1.6e-4 c 5.6267,0.02759 6.2031,-0.57798 6.2031,-6.1933993 V 0.1915598 c 0,-5.6153997 -0.57633,-6.1911998 -6.2031,-6.1913997 l -5.796799,-1.603e-4 z m 0,1.0000002 h 7.796899 l 5.796799,1.599e-4 c 1.3896,4.01e-5 2.4436,0.040902 3.1777,0.1640618 0.73415,0.1231483 1.1001,0.305571 1.3281,0.53321 0.22803,0.227641 0.40999,0.5920301 0.53321,1.3242002 0.123201,0.7321897 0.164062,1.7832 0.164062,3.1698999 v 6.6148996 c 0,1.3866999 -0.0407,2.4409999 -0.164062,3.1757999 -0.12333,0.7347397 -0.306799,1.1011997 -0.53516,1.3300997 -0.228351,0.228888 -0.59346,0.41141 -1.3262,0.5332 -0.73274,0.121792 -1.7851,0.154299 -3.1738,0.154299 h -0.002 l -5.7986,-1.61e-4 h -7.798799 -0.002 c -1.3887,0 -2.443099,-0.0325 -3.175799,-0.154299 -0.73272,-0.121791 -1.0959,-0.304311 -1.3242,-0.533201 -0.2283,-0.22889 -0.41182,-0.59535 -0.53516,-1.3300997 -0.12328,-0.73473 -0.16401,-1.789 -0.16401,-3.1757997 V 0.1913697 c 0,-1.3867 0.0408,-2.4377 0.164062,-3.1699 0.12322,-0.7321798 0.305178,-1.0965996 0.533209,-1.3241997 0.228019,-0.2276485 0.59398,-0.4100501 1.3281,-0.5332101 0.734141,-0.1231484 1.7881,-0.1640617 3.1777,-0.1640617 z"
       style="color:#000000;font-variant-ligatures:normal;font-variant-position:normal;font-variant-caps:normal;font-variant-numeric:normal;font-variant-alternates:normal;font-variant-east-asian:normal;font-feature-settings:normal;font-variation-settings:normal;text-indent:0;text-decoration-line:none;text-decoration-style:solid;text-decoration-color:#000000;text-transform:none;text-orientation:mixed;dominant-baseline:auto;white-space:normal;shape-padding:0;shape-margin:0;inline-size:0;opacity:0.25;isolation:auto;mix-blend-mode:normal;solid-color:#000000;fill:url(#linearGradient1346);fill-opacity:1;stroke-width:0.999999;color-rendering:auto;image-rendering:auto;shape-rendering:auto;stop-color:#000000"
       id="path1144" />
    <path
       d="m 31.203282,-7 c -1.4233,0 -2.553,0.03118 -3.5078,0.19141 -0.95742,0.1606 -1.7898,0.4725501 -2.4102,1.0918 -0.62057,0.61953 -0.93089,1.4499999 -1.0918,2.4061999 -0.16046,0.9535 -0.19336,2.0814999 -0.19336,3.5019998 v 6.6149 c 0,1.4204996 0.033,2.5503996 0.19336,3.5058993 0.16083,0.9581 0.47181,1.7926 1.0918,2.4141 0.62026,0.62171 1.4532,0.93242 2.4121,1.0918 0.95554,0.158839 2.084699,0.188561 3.5078,0.181641 h 7.794899 l 5.7948,1.6e-4 c 1.4231,0.007 2.5523,-0.02279 3.5078,-0.181641 0.95889,-0.15938 1.7918,-0.47007 2.4121,-1.0918 0.61998,-0.62145 0.93098,-1.456 1.0918,-2.4141 0.16038,-0.9553997 0.19336,-2.0853997 0.19336,-3.5058995 V 0.1915696 c 0,-1.4204999 -0.03288,-2.5484999 -0.193361,-3.5019998 C 51.645671,-4.2666303 51.335351,-5.09713 50.714781,-5.7166301 50.094491,-6.33588 49.262081,-6.64782 48.304681,-6.80843 47.34989,-6.9686 46.220181,-6.9998 44.79688,-6.99984 L 39.00008,-7 Z m 0,0.9999998 h 7.796898 l 5.796801,1.603e-4 c 1.4071,4e-5 2.4966,0.035603 3.3437,0.1777285 0.84445,0.1416604 1.4442,0.3902498 1.867199,0.8124997 0.422691,0.4219801 0.67264,1.0224 0.81446,1.8652003 0.142269,0.8455097 0.177729,1.9315997 0.177729,3.3358997 v 6.6149 c 0,1.4043 -0.03549,2.4923 -0.177729,3.3397997 -0.14181,0.844811 -0.39148,1.449101 -0.81446,1.873001 -0.42269,0.4237 -1.0247,0.67214 -1.8691,0.8125 -0.84671,0.14078 -1.9339,0.17493 -3.3398,0.16797 l -5.798699,-1.6e-4 H 31.20338 c -1.407099,0.007 -2.494599,-0.0271 -3.341799,-0.16797 -0.84441,-0.14035 -1.4464,-0.38881 -1.8691,-0.8125 -0.42297,-0.42397 -0.67265,-1.0282 -0.81446,-1.873 -0.14228,-0.8474797 -0.17773,-1.9354997 -0.17773,-3.3397995 V 0.1913296 c 0,-1.4043998 0.0355,-2.4903998 0.17773,-3.3358998 0.14183,-0.8427998 0.39177,-1.4432999 0.81446,-1.8651998 0.42298,-0.42225 1.0227,-0.6708401 1.8672,-0.8125002 0.84708,-0.1421102 1.9366,-0.1777285 3.3437,-0.1777285 z"
       style="color:#000000;font-variant-ligatures:normal;font-variant-position:normal;font-variant-caps:normal;font-variant-numeric:normal;font-variant-alternates:normal;font-variant-east-asian:normal;font-feature-settings:normal;font-variation-settings:normal;text-indent:0;text-decoration-line:none;text-decoration-style:solid;text-decoration-color:#000000;text-transform:none;text-orientation:mixed;dominant-baseline:auto;white-space:normal;shape-padding:0;shape-margin:0;inline-size:0;opacity:0.4;isolation:auto;mix-blend-mode:normal;solid-color:#000000;stroke-width:0.999999;color-rendering:auto;image-rendering:auto;shape-rendering:auto;stop-color:#000000"
       id="path990" />
    <path
       id="rect1885"
       style="fill:#4d4d4d;stroke-width:0.999999"
       d="m 32.000122,17 h 12.999999 c 0.554,0 1,0.446 1,1 0,0.554 -0.446,1 -1,1 H 32.000122 c -0.554,0 -1.000001,-0.446 -1.000001,-1 0,-0.554 0.446,-1 1.000001,-1 z" />
    <path
       id="rect2306"
       style="fill:url(#linearGradient2700);fill-opacity:1;stroke-width:0.999999"
       d="m 28.500122,-4.0000001 h 18.999999 c 0.831,0 1.5,0.6689998 1.5,1.5 V 9.4999993 c 0,0.8309997 -0.669,1.4999997 -1.5,1.4999997 H 28.500122 c -0.831,0 -1.5,-0.669 -1.5,-1.4999997 V -2.5000001 c 0,-0.8310002 0.669,-1.5 1.5,-1.5 z" />
    <path
       d="M 27.000122,1.0004123 V 11.076 c 0,0.924412 0.924412,0.924 0.924412,0.924 h 17.075588 z m 2,3.9995875 9,5.0000002 h -9 z"
       style="opacity:0.1;fill:#000000;stroke-width:0.132291"
       id="path1594"
       sodipodi:nodetypes="csccccccc" />
    <path
       d="M 27.000122,-3e-7 V 10.075999 c 0,0.924413 0.924412,0.924 0.924412,0.924 h 17.075588 z m 2.000027,4.0000002 8.999973,5.0000004 h -9.000027 z"
       style="fill:#6ebc2a;stroke-width:0.499997"
       id="path4212"
       sodipodi:nodetypes="csccccccc" />
  </g>
  <g
     id="16-16-preferences-system-bluetooth"
     transform="translate(-15,5.0000708)">
    <rect
       style="opacity:1;fill:none;fill-opacity:1;stroke-width:1.45455;stroke-linecap:round;stroke-linejoin:round"
       id="rect6427"
       width="16"
       height="16"
       x="-48"
       y="30" />
    <path
       d="m -42.085938,30 c -0.746449,0.0092 -1.395278,-0.04805 -2.017578,0.306641 -0.337899,0.192369 -0.592989,0.509039 -0.730468,0.886718 C -44.964834,31.551589 -45,31.93564 -45,32.375 v 11.249999 c 0,0.4394 0.03517,0.82345 0.166016,1.18164 0.137229,0.37699 0.390759,0.69529 0.730468,0.88867 0.62233,0.35417 1.271479,0.29551 2.017578,0.30469 h 0.002 5.16601 0.004 c 0.74695,-0.009 1.39353,0.0493 2.01563,-0.30469 l 0.004,-0.002 0.002,-0.002 c 0.34077,-0.19943 0.59628,-0.51717 0.72656,-0.89063 l 0.002,-0.002 c 0.12825,-0.35514 0.16394,-0.73653 0.16394,-1.17369 V 32.375 c 0,-0.43871 -0.0365,-0.821435 -0.16602,-1.177734 -0.13102,-0.37206 -0.38675,-0.687819 -0.72656,-0.886719 l -0.002,-0.0019 -0.004,-0.002 C -35.519518,29.953131 -36.166168,30.00919 -36.913968,30 h -0.004 -5.160151 -0.0059 z m 0.0059,1 h 0.0059 5.1543 c 0.76856,0.0094 1.23333,0.01199 1.52343,0.175781 0.1307,0.07726 0.23556,0.200736 0.28907,0.353516 v 0.0039 l 0.002,0.0019 c 0.0693,0.190189 0.10534,0.458733 0.10534,0.839843 v 11.249999 c 0,0.38111 -0.036,0.64966 -0.10547,0.83985 l -0.002,0.004 -0.002,0.004 c -0.0531,0.15301 -0.1564,0.27623 -0.28711,0.35351 -0.28914,0.16329 -0.75401,0.16441 -1.52334,0.17384 h -5.154301 -0.0059 c -0.772189,-0.01 -1.238144,-0.009 -1.527344,-0.17383 -0.1148,-0.0654 -0.224359,-0.18893 -0.287109,-0.36132 C -43.963662,44.275719 -44,44.006979 -44,43.625139 V 32.375 c 0,-0.38185 0.03634,-0.650574 0.105469,-0.839844 0.0625,-0.1717 0.170509,-0.292985 0.287109,-0.359375 0.2911,-0.16593 0.755615,-0.166321 1.527344,-0.175781 z m 2.152344,0.292969 v 5.613279 L -42.355469,34.867188 -43,35.632808 -40.181641,37.999998 -43,40.367189 l 0.644531,0.76562 2.427735,-2.03906 v 5.61328 l 4.240236,-4.23828 -2.93946,-2.468751 2.93946,-2.46875 z m 0.927696,2.414059 1.75976,1.75977 -1.75976,1.48047 z m 0,5.345711 1.75976,1.48047 -1.75976,1.75976 z"
       class="ColorScheme-Text"
       style="fill:currentColor;fill-opacity:1;stroke-width:2;stroke-linecap:round;stroke-linejoin:round"
       id="path18650"
       sodipodi:nodetypes="cccsscccccccccccssccccccccccccccccsscccccccccssccscccccccccccccccccccccc" />
  </g>
  <g
     id="16-16-preferences-system-bluetooth-activated"
     transform="translate(-9,5.126282)">
    <rect
       style="opacity:1;fill:none;fill-opacity:1;stroke-width:2;stroke-linecap:round;stroke-linejoin:round"
       id="rect6590"
       width="16"
       height="16"
       x="-32"
       y="29.873789" />
    <path
       d="m -26.085938,29.873718 c -0.746449,0.0092 -1.395278,-0.04805 -2.017578,0.306641 -0.337899,0.192369 -0.592989,0.509039 -0.730468,0.886718 C -28.964834,31.425307 -29,31.809358 -29,32.248718 v 11.249999 c 0,0.4394 0.03517,0.82345 0.166016,1.18164 0.137229,0.37699 0.390759,0.69529 0.730468,0.88867 0.62233,0.35417 1.271479,0.29551 2.017578,0.30469 h 0.002 5.16601 0.004 c 0.74695,-0.009 1.39353,0.0493 2.01563,-0.30469 l 0.004,-0.002 0.002,-0.002 c 0.34077,-0.19943 0.59628,-0.51717 0.72656,-0.89063 l 0.002,-0.002 c 0.12825,-0.35514 0.16394,-0.73653 0.16394,-1.17369 V 32.248718 c 0,-0.43871 -0.0365,-0.821435 -0.16602,-1.177734 -0.13102,-0.37206 -0.38675,-0.687819 -0.72656,-0.886719 l -0.002,-0.0019 -0.004,-0.002 c -0.62114,-0.353516 -1.26779,-0.297457 -2.01559,-0.306647 h -0.004 -5.160151 -0.0059 z m 0.0059,1 h 0.0059 5.1543 c 0.76856,0.0094 1.23333,0.01199 1.52343,0.175781 0.1307,0.07726 0.23556,0.200736 0.28907,0.353516 v 0.0039 l 0.002,0.0019 c 0.0693,0.190189 0.10534,0.458733 0.10534,0.839843 v 11.249999 c 0,0.38111 -0.036,0.64966 -0.10547,0.83985 l -0.002,0.004 -0.002,0.004 c -0.0531,0.15301 -0.1564,0.27623 -0.28711,0.35351 -0.28914,0.16329 -0.75401,0.16441 -1.52334,0.17384 h -5.154301 -0.0059 c -0.772189,-0.01 -1.238144,-0.009 -1.527344,-0.17383 -0.1148,-0.0654 -0.224359,-0.18893 -0.287109,-0.36132 C -27.963662,44.149437 -28,43.880697 -28,43.498857 V 32.248718 c 0,-0.38185 0.03634,-0.650574 0.105469,-0.839844 0.0625,-0.1717 0.170509,-0.292985 0.287109,-0.359375 0.2911,-0.16593 0.755615,-0.166321 1.527344,-0.175781 z m 2.152344,0.292969 v 5.613279 L -26.355469,34.740906 -27,35.506526 -24.181641,37.873716 -27,40.240907 l 0.644531,0.76562 2.427735,-2.03906 v 5.61328 l 4.240236,-4.23828 -2.93946,-2.468751 2.93946,-2.46875 z m 0.927696,2.414059 1.75976,1.75977 -1.75976,1.48047 z m 0,5.345711 1.75976,1.48047 -1.75976,1.75976 z"
       style="fill:currentColor;fill-opacity:1;stroke-width:2;stroke-linecap:round;stroke-linejoin:round"
       class="ColorScheme-Text"
       id="path6939"
       sodipodi:nodetypes="cccsscccccccccccssccccccccccccccccsscccccccccssccscccccccccccccccccccccc" />
  </g>
  <g
     id="16-16-preferences-system-bluetooth-inactive"
     transform="translate(-3,5.126282)">
    <rect
       style="opacity:1;fill:none;fill-opacity:1;stroke-width:2;stroke-linecap:round;stroke-linejoin:round"
       id="rect6594"
       width="16"
       height="16"
       x="-16"
       y="29.873789" />
    <path
       d="m -10.085938,29.873718 c -0.746449,0.0092 -1.395278,-0.04805 -2.017578,0.306641 -0.337899,0.192369 -0.592989,0.509039 -0.730468,0.886718 C -12.964834,31.425307 -13,31.809358 -13,32.248718 v 11.249999 c 0,0.4394 0.03517,0.82345 0.166016,1.18164 0.137229,0.37699 0.390759,0.69529 0.730468,0.88867 0.62233,0.35417 1.271479,0.29551 2.017578,0.30469 h 0.002 5.16601 0.004 c 0.74695,-0.009 1.39353,0.0493 2.01563,-0.30469 l 0.004,-0.002 0.002,-0.002 c 0.34077,-0.19943 0.59628,-0.51717 0.72656,-0.89063 l 0.002,-0.002 c 0.12825,-0.35514 0.16394,-0.73653 0.16394,-1.17369 V 32.248718 c 0,-0.43871 -0.0365,-0.821435 -0.16602,-1.177734 -0.13102,-0.37206 -0.38675,-0.687819 -0.72656,-0.886719 l -0.002,-0.0019 -0.004,-0.002 c -0.62114,-0.353516 -1.26779,-0.297457 -2.01559,-0.306647 h -0.004 -5.160151 -0.0059 z m 0.0059,1 h 0.0059 5.1543 c 0.76856,0.0094 1.23333,0.01199 1.52343,0.175781 0.1307,0.07726 0.23556,0.200736 0.28907,0.353516 v 0.0039 l 0.002,0.0019 c 0.0693,0.190189 0.10534,0.458733 0.10534,0.839843 v 11.249999 c 0,0.38111 -0.036,0.64966 -0.10547,0.83985 l -0.002,0.004 -0.002,0.004 c -0.0531,0.15301 -0.1564,0.27623 -0.28711,0.35351 -0.28914,0.16329 -0.75401,0.16441 -1.52334,0.17384 h -5.154301 -0.0059 c -0.772189,-0.01 -1.238144,-0.009 -1.527344,-0.17383 -0.1148,-0.0654 -0.224359,-0.18893 -0.287109,-0.36132 C -11.963662,44.149437 -12,43.880697 -12,43.498857 V 32.248718 c 0,-0.38185 0.03634,-0.650574 0.105469,-0.839844 0.0625,-0.1717 0.170509,-0.292985 0.287109,-0.359375 0.2911,-0.16593 0.755615,-0.166321 1.527344,-0.175781 z m 2.152344,0.292969 v 5.613279 L -10.355469,34.740906 -11,35.506526 -8.181641,37.873716 -11,40.240907 l 0.644531,0.76562 2.427735,-2.03906 v 5.61328 l 4.240236,-4.23828 -2.93946,-2.468751 2.93946,-2.46875 z m 0.927696,2.414059 1.75976,1.75977 -1.75976,1.48047 z m 0,5.345711 1.75976,1.48047 -1.75976,1.75976 z"
       class="ColorScheme-Text"
       style="fill:currentColor;fill-opacity:0.5;stroke-width:2;stroke-linecap:round;stroke-linejoin:round"
       id="path6967" />
  </g>
  <g
     id="22-22-preferences-system-bluetooth"
     transform="translate(0,8)">
    <rect
       style="opacity:1;fill:none;fill-opacity:1;stroke-width:2;stroke-linecap:round;stroke-linejoin:round"
       id="rect6586"
       width="22"
       height="22"
       x="0"
       y="24" />
    <path
       d="M 8.914062,27.000001 C 8.167613,27.009201 7.518784,26.951951 6.896484,27.306642 6.558585,27.49901 6.303495,27.815681 6.166016,28.193359 6.035166,28.551589 6,28.93564 6,29.375 v 11.25 c 0,0.439399 0.03517,0.82345 0.166016,1.18164 0.137229,0.37699 0.390759,0.69529 0.730468,0.888669 C 7.518814,43.04948 8.167963,42.990819 8.914062,43 h 0.002 5.16601 0.004 c 0.74695,-0.009 1.39353,0.0493 2.01563,-0.304691 l 0.004,-0.002 0.002,-0.002 c 0.34077,-0.19943 0.59628,-0.51717 0.72656,-0.89063 l 0.002,-0.002 c 0.12825,-0.35514 0.16394,-0.73653 0.16394,-1.17369 V 29.375001 c 0,-0.43871 -0.0365,-0.821435 -0.16602,-1.177734 -0.13102,-0.372061 -0.38675,-0.68782 -0.72656,-0.886719 l -0.002,-0.0019 -0.004,-0.002 c -0.62114,-0.353516 -1.26779,-0.297457 -2.01559,-0.306647 h -0.004 -5.160151 -0.0059 z m 0.0059,1 h 0.0059 5.1543 c 0.76856,0.0094 1.23333,0.01199 1.52343,0.175781 0.1307,0.07726 0.23556,0.200736 0.28907,0.353516 v 0.0039 l 0.002,0.0019 c 0.0693,0.190189 0.10534,0.458733 0.10534,0.839842 v 11.25 c 0,0.38111 -0.036,0.649659 -0.10547,0.83985 l -0.002,0.004 -0.002,0.004 c -0.0531,0.15301 -0.1564,0.27623 -0.28711,0.35351 -0.28914,0.16329 -0.75401,0.16441 -1.52334,0.17384 H 8.925781 8.919881 C 8.147692,41.99014 7.681737,41.99114 7.392537,41.82631 7.277737,41.76091 7.168178,41.63738 7.105428,41.46499 7.036338,41.27572 7,41.00698 7,40.62514 V 29.375001 c 0,-0.38185 0.03634,-0.650574 0.105469,-0.839844 0.0625,-0.1717 0.170509,-0.292985 0.287109,-0.359375 0.2911,-0.16593 0.755615,-0.166321 1.527344,-0.175781 z m 2.152344,0.292969 v 5.613279 L 8.644531,31.867189 8,32.632809 10.818359,34.999999 8,37.36719 8.644531,38.132809 11.072266,36.09375 v 5.613279 l 4.240236,-4.23828 -2.93946,-2.468751 2.93946,-2.46875 z m 0.927696,2.414058 1.75976,1.759771 -1.75976,1.480469 z m 0,5.345712 1.75976,1.480469 -1.75976,1.75976 z"
       style="fill:currentColor;fill-opacity:1;stroke-width:2;stroke-linecap:round;stroke-linejoin:round"
       class="ColorScheme-Text"
       id="path7032"
       sodipodi:nodetypes="cccsscccccccccccssccccccccccccccccsscccccccccssccscccccccccccccccccccccc" />
  </g>
  <g
     id="22-22-preferences-system-bluetooth-activated"
     transform="translate(0,8)">
    <rect
       style="opacity:1;fill:none;fill-opacity:1;stroke-width:2;stroke-linecap:round;stroke-linejoin:round"
       id="rect6592"
       width="22"
       height="22"
       x="22"
       y="24" />
    <path
       d="m 30.914062,27.000001 c -0.746449,0.0092 -1.395278,-0.04805 -2.017578,0.306641 -0.337899,0.192369 -0.592989,0.509039 -0.730468,0.886718 C 28.035166,28.55159 28,28.935641 28,29.375001 V 40.625 c 0,0.439399 0.03517,0.82345 0.166016,1.18164 0.137229,0.37699 0.390759,0.69529 0.730468,0.888669 0.62233,0.354171 1.271479,0.29551 2.017578,0.304691 h 0.002 5.16601 0.004 c 0.74695,-0.009 1.39353,0.0493 2.01563,-0.304691 l 0.004,-0.002 0.002,-0.002 c 0.34077,-0.19943 0.59628,-0.51717 0.72656,-0.89063 l 0.002,-0.002 c 0.12825,-0.35514 0.16394,-0.73653 0.16394,-1.17369 V 29.375001 c 0,-0.43871 -0.0365,-0.821435 -0.16602,-1.177734 -0.13102,-0.37206 -0.38675,-0.687819 -0.72656,-0.886719 l -0.002,-0.0019 -0.004,-0.002 c -0.62114,-0.353516 -1.26779,-0.297457 -2.01559,-0.306647 h -0.004 -5.160151 -0.0059 z m 0.0059,1 h 0.0059 5.1543 c 0.76856,0.0094 1.23333,0.01199 1.52343,0.175781 0.1307,0.07726 0.23556,0.200736 0.28907,0.353516 v 0.0039 l 0.002,0.0019 c 0.0693,0.190189 0.10534,0.458733 0.10534,0.839843 V 40.62494 c 0,0.38111 -0.036,0.649659 -0.10547,0.83985 l -0.002,0.004 -0.002,0.004 c -0.0531,0.15301 -0.1564,0.27623 -0.28711,0.35351 -0.28914,0.16329 -0.75401,0.16441 -1.52334,0.17384 h -5.154301 -0.0059 c -0.772189,-0.01 -1.238144,-0.009 -1.527344,-0.17383 -0.1148,-0.0654 -0.224359,-0.18893 -0.287109,-0.36132 C 29.036338,41.27572 29,41.00698 29,40.62514 V 29.375001 c 0,-0.38185 0.03634,-0.650574 0.105469,-0.839844 0.0625,-0.1717 0.170509,-0.292985 0.287109,-0.359375 0.2911,-0.16593 0.755615,-0.166321 1.527344,-0.175781 z m 2.152344,0.292969 v 5.613279 L 30.644531,31.867189 30,32.632809 32.818359,34.999999 30,37.36719 l 0.644531,0.765619 2.427735,-2.039059 v 5.61328 l 4.240236,-4.23828 -2.93946,-2.468751 2.93946,-2.46875 z m 0.927696,2.414059 1.75976,1.75977 -1.75976,1.48047 z m 0,5.345711 1.75976,1.48047 -1.75976,1.75976 z"
       style="fill:currentColor;fill-opacity:1;stroke-width:2;stroke-linecap:round;stroke-linejoin:round"
       class="ColorScheme-Text"
       id="path6995"
       sodipodi:nodetypes="cccsscccccccccccssccccccccccccccccsscccccccccssccscccccccccccccccccccccc" />
  </g>
  <g
     id="22-22-preferences-system-bluetooth-inactive"
     transform="translate(0,8)">
    <rect
       style="opacity:1;fill:none;fill-opacity:1;stroke-width:2;stroke-linecap:round;stroke-linejoin:round"
       id="rect6596"
       width="22"
       height="22"
       x="44"
       y="24" />
    <path
       d="m 52.914062,27.000002 c -0.746449,0.0092 -1.395278,-0.04805 -2.017578,0.306641 -0.337899,0.192368 -0.592989,0.509039 -0.730468,0.886717 C 50.035166,28.55159 50,28.935641 50,29.375001 v 11.25 c 0,0.439399 0.03517,0.82345 0.166016,1.18164 0.137229,0.37699 0.390759,0.69529 0.730468,0.888669 0.62233,0.354171 1.271479,0.29551 2.017578,0.304691 h 0.002 5.16601 0.004 c 0.74695,-0.009 1.39353,0.0493 2.01563,-0.304691 l 0.004,-0.002 0.002,-0.002 c 0.34077,-0.19943 0.59628,-0.51717 0.72656,-0.89063 l 0.002,-0.002 c 0.12825,-0.35514 0.16394,-0.73653 0.16394,-1.17369 V 29.375002 c 0,-0.43871 -0.0365,-0.821435 -0.16602,-1.177734 -0.13102,-0.372061 -0.38675,-0.68782 -0.72656,-0.886719 l -0.002,-0.0019 -0.004,-0.002 c -0.62114,-0.353516 -1.26779,-0.297457 -2.01559,-0.306647 h -0.004 -5.160151 -0.0059 z m 0.0059,1 h 0.0059 5.1543 c 0.76856,0.0094 1.23333,0.01199 1.52343,0.175781 0.1307,0.07726 0.23556,0.200736 0.28907,0.353516 v 0.0039 l 0.002,0.0019 c 0.0693,0.190189 0.10534,0.458733 0.10534,0.839842 v 11.25 c 0,0.38111 -0.036,0.649659 -0.10547,0.83985 l -0.002,0.004 -0.002,0.004 c -0.0531,0.15301 -0.1564,0.27623 -0.28711,0.35351 -0.28914,0.16329 -0.75401,0.16441 -1.52334,0.17384 h -5.154301 -0.0059 c -0.772189,-0.01 -1.238144,-0.009 -1.527344,-0.17383 -0.1148,-0.0654 -0.224359,-0.18893 -0.287109,-0.36132 C 51.036338,41.275721 51,41.006981 51,40.625141 V 29.375002 c 0,-0.38185 0.03634,-0.650574 0.105469,-0.839844 0.0625,-0.1717 0.170509,-0.292985 0.287109,-0.359375 0.2911,-0.16593 0.755615,-0.166321 1.527344,-0.175781 z m 2.152344,0.292969 V 33.90625 L 52.644531,31.86719 52,32.63281 54.818359,35 52,37.367191 l 0.644531,0.765619 2.427735,-2.039059 v 5.613279 l 4.240236,-4.23828 -2.93946,-2.468751 2.93946,-2.46875 z m 0.927696,2.414058 1.75976,1.759771 -1.75976,1.480469 z m 0,5.345712 1.75976,1.480469 -1.75976,1.75976 z"
       style="fill:currentColor;fill-opacity:0.5;stroke-width:2;stroke-linecap:round;stroke-linejoin:round"
       class="ColorScheme-Text"
       id="path7060" />
  </g>
  <g
     id="preferences-system-bluetooth"
     transform="translate(0,8)">
    <rect
       style="opacity:1;fill:none;fill-opacity:1;stroke-width:2;stroke-linecap:round;stroke-linejoin:round"
       id="rect7563"
       width="32"
       height="32"
       x="66"
       y="14" />
    <path
       d="m 76.194066,16 c -1.42091,0 -2.54873,0.0308 -3.50573,0.19141 -0.95699,0.16064 -1.79139,0.4726 -2.41202,1.09179 -0.62062,0.61919 -0.93643,1.45612 -1.09566,2.41407 -0.159231,0.95795 -0.186648,2.08705 -0.179678,3.51171 v 7.791019 7.79688 c -0.007,1.42131 0.02071,2.5495 0.179678,3.50585 0.159232,0.95796 0.47504,1.79488 1.09566,2.41407 0.62063,0.61919 1.45503,0.93115 2.41202,1.09179 C 73.645336,45.969238 74.773156,46 76.194066,46 h 11.61479 c 1.42092,0 2.546599,-0.03069 3.50183,-0.191411 0.955239,-0.16075 1.787729,-0.47425 2.40616,-1.09375 0.61843,-0.6195 0.93131,-1.45363 1.091749,-2.41015 0.16045,-0.95653 0.191401,-2.08403 0.191401,-3.50781 v -7.79688 -7.796879 c 0,-1.42378 -0.03099,-2.55128 -0.1914,-3.50781 -0.16044,-0.95653 -0.47332,-1.79065 -1.09175,-2.41015 -0.618431,-0.61951 -1.450921,-0.933 -2.40616,-1.09375 C 90.355455,16.03065 89.229776,16 87.808856,16 Z"
       style="color:#000000;font-style:normal;font-variant:normal;font-weight:normal;font-stretch:normal;font-size:medium;line-height:normal;font-family:sans-serif;font-variant-ligatures:normal;font-variant-position:normal;font-variant-caps:normal;font-variant-numeric:normal;font-variant-alternates:normal;font-feature-settings:normal;text-indent:0;text-align:start;text-decoration:none;text-decoration-line:none;text-decoration-style:solid;text-decoration-color:#000000;letter-spacing:normal;word-spacing:normal;text-transform:none;writing-mode:lr-tb;direction:ltr;text-orientation:mixed;dominant-baseline:auto;baseline-shift:baseline;text-anchor:start;white-space:normal;shape-padding:0;clip-rule:nonzero;display:inline;overflow:visible;visibility:visible;opacity:0.1;isolation:auto;mix-blend-mode:normal;color-interpolation:sRGB;color-interpolation-filters:linearRGB;solid-color:#000000;solid-opacity:1;vector-effect:none;fill:#000000;fill-opacity:1;fill-rule:nonzero;stroke:none;stroke-width:1.99996;stroke-linecap:butt;stroke-linejoin:miter;stroke-miterlimit:4;stroke-dasharray:none;stroke-dashoffset:0;stroke-opacity:1;marker:none;color-rendering:auto;image-rendering:auto;shape-rendering:auto;text-rendering:auto;enable-background:accumulate"
       id="path1922" />
    <path
       d="m 76.075056,15.5 c -5.56175,0 -6.6037,0.58409 -6.57447,6.28227 v 8.217649 8.21781 c -0.02929,5.69818 1.01272,6.28227 6.57447,6.28227 h 11.85044 c 5.560369,0 6.57447,-0.58403 6.57447,-6.28227 v -8.21781 -8.217649 c 0,-5.69824 -1.014101,-6.28227 -6.57447,-6.28227 z"
       style="color:#000000;display:inline;overflow:visible;visibility:visible;fill:url(#linearGradient885);fill-opacity:1;fill-rule:nonzero;stroke:none;stroke-width:0.999999;marker:none;enable-background:accumulate"
       id="path2042" />
    <path
       style="color:#000000;fill:#ffffff;stroke-width:0.999999;stroke-linecap:square;-inkscape-stroke:none"
       d="m 82.007032,21 v 7.802734 L 78.848829,25.841797 78.483594,25.5 77.8,26.230469 l 0.365235,0.341796 3.611328,3.384766 -3.611328,3.384766 -0.365235,0.341796 0.683594,0.730469 0.365235,-0.341797 3.158203,-2.960937 v 7.802734 l 5.218749,-5.21875 -3.988281,-3.738281 3.988281,-3.738281 z m 1,2.414063 2.78125,2.781249 -2.78125,2.607422 z m 0,7.697265 2.78125,2.607422 -2.78125,2.78125 z"
       id="path27" />
    <path
       id="rect10194"
       style="opacity:0.1;fill:#ffffff;fill-opacity:1;stroke-width:0.999999"
       d="m 82,15.5 v 29 h 5.925781 C 93.486151,44.5 94.5,43.915037 94.5,38.216797 V 30 21.783203 C 94.5,16.084963 93.486151,15.5 87.925781,15.5 Z" />
    <path
       id="path2368"
       style="color:#000000;display:inline;opacity:0.7;fill:url(#linearGradient1659);fill-opacity:1;stroke-width:0.999999;-inkscape-stroke:none;enable-background:new"
       d="m 76.074216,16 c -2.7633,0 -4.28936,0.1903 -5.04883,0.875 -0.37973,0.34235 -0.63559,0.83215 -0.80273,1.625 -0.16715,0.79285 -0.22966,1.87003 -0.22266,3.2793 v 0.002 8.21875 8.218749 0.002 c -0.007,1.40926 0.0555,2.48645 0.22266,3.2793 0.167138,0.79285 0.42299,1.28265 0.802729,1.625 0.75948,0.6847 2.28553,0.875 5.04883,0.875 h 11.851561 c 2.76262,0 4.28071,-0.190579 5.037109,-0.875 0.378201,-0.34221 0.63408,-0.83142 0.80273,-1.625 0.168692,-0.79368 0.23438,-1.87358 0.23438,-3.2833 V 30 21.7832 c 0,-1.40972 -0.0657,-2.48962 -0.23438,-3.2832 -0.16865,-0.79358 -0.424529,-1.28279 -0.80273,-1.625 C 92.206486,16.19058 90.688396,16 87.925776,16 Z m 0.4375,0.95312 h 11.02539 c 1.45312,0 2.55451,0.0404 3.32422,0.16407 0.769709,0.12365 1.157219,0.30849 1.400389,0.54101 0.243179,0.23252 0.436941,0.60316 0.5664,1.33985 0.129461,0.7367 0.171882,1.79163 0.171882,3.18164 v 7.796869 7.79688 c 0,1.39001 -0.0424,2.44494 -0.171882,3.18164 -0.129448,0.7367 -0.323221,1.10732 -0.5664,1.33984 -0.24317,0.23252 -0.63068,0.41737 -1.400389,0.54102 -0.76971,0.12364 -1.8711,0.16406 -3.32422,0.16406 h -11.02539 c -1.45312,0 -2.55772,-0.0403 -3.33008,-0.164061 -0.77237,-0.123759 -1.16371,-0.308189 -1.4082,-0.541019 -0.24449,-0.23284 -0.43642,-0.60259 -0.56446,-1.33789 -0.12803,-0.7353 -0.16923,-1.78861 -0.1621,-3.17773 v -0.002 -7.800779 -7.79883 -0.002 c -0.007,-1.38911 0.0341,-2.44243 0.1621,-3.17773 0.12804,-0.73531 0.31997,-1.10506 0.56446,-1.33789 0.24449,-0.23284 0.63583,-0.41725 1.4082,-0.54102 0.77236,-0.12376 1.87696,-0.16406 3.33008,-0.16406 z"
       sodipodi:nodetypes="sssscccsssssssscssssscssssscsssssssssscccsssscc" />
    <path
       d="m 76.074666,15 c -2.79831,0 -4.57403,0.10092 -5.71861,1.13281 -0.5723,0.51595 -0.91751,1.24088 -1.11131,2.16016 -0.19379,0.91928 -0.25152,2.05236 -0.244129,3.49219 V 30 38.216799 c -0.007,1.43868 0.0505,2.57146 0.244131,3.49023 0.193799,0.91928 0.539009,1.64421 1.111309,2.16016 1.14459,1.03189 2.9203,1.13281 5.71861,1.13281 h 11.851279 c 2.79762,0 4.5662,-0.10066 5.7069,-1.13281 0.570339,-0.51608 0.916069,-1.24161 1.111299,-2.16016 0.19522,-0.91855 0.255851,-2.05084 0.255851,-3.49023 V 30 21.7832 c 0,-1.43939 -0.0606,-2.57168 -0.255852,-3.49023 C 94.548915,17.37442 94.203185,16.64889 93.632846,16.13281 92.492146,15.10066 90.723566,15 87.925946,15 Z m 0,1 h 11.85128 c 2.76262,0 4.280589,0.19058 5.03699,0.875 0.3782,0.34221 0.634049,0.83142 0.80271,1.625 0.16868,0.79358 0.23438,1.87348 0.23438,3.2832 V 30 38.216799 c 0,1.40972 -0.0657,2.48962 -0.23438,3.2832 -0.168661,0.79358 -0.42451,1.28279 -0.80271,1.625 -0.756401,0.68442 -2.27437,0.875 -5.03699,0.875 h -11.85128 c -2.7633,0 -4.28923,-0.190299 -5.04871,-0.875 -0.37974,-0.34235 -0.63557,-0.83215 -0.80271,-1.625 -0.16715,-0.79285 -0.2299,-1.87004 -0.22265,-3.2793 v -0.002 V 30 v -8.21875 -0.002 c -0.007,-1.40927 0.0555,-2.48645 0.22265,-3.2793 0.16714,-0.79285 0.42298,-1.28265 0.80271,-1.625 0.75947,-0.6847 2.28541,-0.875 5.04871,-0.875 z"
       style="color:#000000;display:inline;opacity:0.4;fill:#000000;stroke-width:0.999987;-inkscape-stroke:none;enable-background:new"
       id="path2244" />
  </g>
  <g
     id="preferences-system-bluetooth-activated"
     transform="translate(0,8)">
    <rect
       style="opacity:1;fill:none;fill-opacity:1;stroke-width:2;stroke-linecap:round;stroke-linejoin:round"
       id="rect7565"
       width="32"
       height="32"
       x="98"
       y="14" />
    <path
       d="m 108.19406,16 c -1.42091,0 -2.54873,0.0308 -3.50573,0.19141 -0.95699,0.16064 -1.79138,0.4726 -2.41201,1.09179 -0.62062,0.61919 -0.93643,1.456119 -1.09566,2.414069 -0.15924,0.95795 -0.18665,2.087051 -0.17968,3.511711 v 7.791018 7.796881 c -0.007,1.421309 0.0207,2.5495 0.17968,3.50585 0.15923,0.95796 0.47504,1.79488 1.09566,2.41407 0.62063,0.61919 1.45502,0.93115 2.41201,1.09179 0.957,0.160648 2.08482,0.19141 3.50573,0.19141 h 11.61479 c 1.42092,0 2.5466,-0.03069 3.50183,-0.191411 0.95524,-0.16075 1.78773,-0.47425 2.40616,-1.09375 0.61843,-0.6195 0.93131,-1.45363 1.09175,-2.41015 0.16045,-0.95653 0.1914,-2.08403 0.1914,-3.50781 v -7.79688 -7.796879 c 0,-1.42378 -0.031,-2.55128 -0.1914,-3.50781 -0.16044,-0.95653 -0.47332,-1.79065 -1.09175,-2.41015 -0.61843,-0.61951 -1.45092,-0.933 -2.40616,-1.09375 C 122.35545,16.03065 121.22977,16 119.80885,16 Z"
       style="color:#000000;font-style:normal;font-variant:normal;font-weight:normal;font-stretch:normal;font-size:medium;line-height:normal;font-family:sans-serif;font-variant-ligatures:normal;font-variant-position:normal;font-variant-caps:normal;font-variant-numeric:normal;font-variant-alternates:normal;font-feature-settings:normal;text-indent:0;text-align:start;text-decoration:none;text-decoration-line:none;text-decoration-style:solid;text-decoration-color:#000000;letter-spacing:normal;word-spacing:normal;text-transform:none;writing-mode:lr-tb;direction:ltr;text-orientation:mixed;dominant-baseline:auto;baseline-shift:baseline;text-anchor:start;white-space:normal;shape-padding:0;clip-rule:nonzero;display:inline;overflow:visible;visibility:visible;opacity:0.1;isolation:auto;mix-blend-mode:normal;color-interpolation:sRGB;color-interpolation-filters:linearRGB;solid-color:#000000;solid-opacity:1;vector-effect:none;fill:#000000;fill-opacity:1;fill-rule:nonzero;stroke:none;stroke-width:1.99996;stroke-linecap:butt;stroke-linejoin:miter;stroke-miterlimit:4;stroke-dasharray:none;stroke-dashoffset:0;stroke-opacity:1;marker:none;color-rendering:auto;image-rendering:auto;shape-rendering:auto;text-rendering:auto;enable-background:accumulate"
       id="path1922-7" />
    <path
       d="m 108.07505,15.5 c -5.56174,0 -6.60369,0.584089 -6.57446,6.28227 v 8.217648 8.21781 c -0.0293,5.69818 1.01272,6.28227 6.57446,6.28227 h 11.85044 c 5.56037,0 6.57447,-0.58403 6.57447,-6.28227 v -8.21781 -8.217649 c 0,-5.69824 -1.0141,-6.28227 -6.57447,-6.28227 z"
       style="color:#000000;display:inline;overflow:visible;visibility:visible;fill:url(#linearGradient8062);fill-opacity:1;fill-rule:nonzero;stroke:none;stroke-width:0.999999;marker:none;enable-background:accumulate"
       id="path2042-0" />
    <path
       style="color:#000000;fill:#ffffff;stroke-width:0.999999;stroke-linecap:square;-inkscape-stroke:none"
       d="m 114.00703,21 v 7.802734 L 110.84883,25.841796 110.48359,25.5 109.8,26.230468 l 0.36523,0.341796 3.61133,3.384766 -3.61133,3.384766 -0.36523,0.341796 0.68359,0.730469 0.36524,-0.341797 3.1582,-2.960937 v 7.802734 l 5.21875,-5.21875 -3.98828,-3.738281 3.98828,-3.73828 z m 1,2.414062 2.78125,2.781249 -2.78125,2.607422 z m 0,7.697265 2.78125,2.607422 -2.78125,2.78125 z"
       id="path27-9" />
    <path
       id="rect10194-3"
       style="opacity:0.1;fill:#ffffff;fill-opacity:1;stroke-width:0.999999"
       d="m 114,15.5 v 28.999999 h 5.92578 c 5.56037,0 6.57422,-0.584963 6.57422,-6.283203 V 29.999999 21.783203 C 126.5,16.084962 125.48615,15.5 119.92578,15.5 Z" />
    <path
       id="path2368-6"
       style="color:#000000;display:inline;opacity:0.7;fill:url(#linearGradient8064);fill-opacity:1;stroke-width:0.999999;-inkscape-stroke:none;enable-background:new"
       d="m 108.07421,16 c -2.7633,0 -4.28936,0.1903 -5.04882,0.875 -0.37973,0.342349 -0.63559,0.832149 -0.80273,1.625 -0.16715,0.79285 -0.22966,1.870029 -0.22266,3.279299 v 0.002 8.21875 8.218749 0.002 c -0.007,1.40926 0.0555,2.48645 0.22266,3.2793 0.16713,0.79285 0.42299,1.28265 0.80273,1.625 0.75947,0.6847 2.28552,0.875 5.04882,0.875 h 11.85156 c 2.76262,0 4.28071,-0.190579 5.03711,-0.875 0.3782,-0.34221 0.63408,-0.83142 0.80273,-1.625 0.16869,-0.79368 0.23438,-1.87358 0.23438,-3.2833 V 29.999999 21.7832 c 0,-1.40972 -0.0657,-2.48962 -0.23438,-3.2832 -0.16865,-0.79358 -0.42453,-1.28279 -0.80273,-1.625 C 124.20648,16.19058 122.68839,16 119.92577,16 Z m 0.4375,0.953119 h 11.02539 c 1.45312,0 2.55451,0.0404 3.32422,0.16407 0.76971,0.12365 1.15722,0.30849 1.40039,0.54101 0.24318,0.23252 0.43694,0.60316 0.5664,1.33985 0.12946,0.7367 0.17188,1.79163 0.17188,3.18164 v 7.796869 7.79688 c 0,1.39001 -0.0424,2.44494 -0.17188,3.18164 -0.12945,0.7367 -0.32322,1.10732 -0.5664,1.33984 -0.24317,0.23252 -0.63068,0.41737 -1.40039,0.54102 -0.76971,0.123641 -1.8711,0.16406 -3.32422,0.16406 h -11.02539 c -1.45312,0 -2.55772,-0.0403 -3.33008,-0.16406 -0.77237,-0.123759 -1.16371,-0.308189 -1.4082,-0.541019 -0.24449,-0.23284 -0.43642,-0.60259 -0.56445,-1.33789 -0.12803,-0.735301 -0.16923,-1.78861 -0.1621,-3.17773 v -0.002 -7.800779 -7.79883 -0.002 c -0.007,-1.38911 0.0341,-2.44243 0.1621,-3.17773 0.12803,-0.73531 0.31996,-1.10506 0.56445,-1.33789 0.24449,-0.23284 0.63583,-0.41725 1.4082,-0.54102 0.77236,-0.12376 1.87696,-0.16406 3.33008,-0.16406 z"
       sodipodi:nodetypes="sssscccsssssssscssssscssssscsssssssssscccsssscc" />
    <path
       d="m 108.07466,15 c -2.79831,0 -4.57403,0.100919 -5.7186,1.132809 -0.5723,0.51595 -0.91751,1.24088 -1.11131,2.160161 -0.19379,0.91928 -0.25152,2.05236 -0.24413,3.49219 v 8.214839 8.216799 c -0.007,1.43868 0.0505,2.571461 0.24413,3.49023 0.1938,0.91928 0.53901,1.64421 1.11131,2.16016 1.14458,1.03189 2.92029,1.13281 5.7186,1.13281 h 11.85128 c 2.79762,0 4.5662,-0.10066 5.7069,-1.13281 0.57034,-0.51608 0.91607,-1.24161 1.1113,-2.16016 0.19522,-0.91855 0.25585,-2.05084 0.25585,-3.49023 V 29.999999 21.7832 c 0,-1.43939 -0.0606,-2.57168 -0.25585,-3.49023 -0.19523,-0.91855 -0.54096,-1.64408 -1.1113,-2.160161 C 124.49214,15.100659 122.72356,15 119.92594,15 Z m 0,1 h 11.85128 c 2.76262,0 4.28059,0.19058 5.03699,0.875 0.3782,0.34221 0.63405,0.83142 0.80271,1.625 0.16868,0.793579 0.23438,1.87348 0.23438,3.2832 v 8.216799 8.216799 c 0,1.40972 -0.0657,2.489621 -0.23438,3.2832 -0.16866,0.79358 -0.42451,1.28279 -0.80271,1.625 -0.7564,0.684421 -2.27437,0.875 -5.03699,0.875 h -11.85128 c -2.7633,0 -4.28923,-0.190299 -5.0487,-0.875 -0.37974,-0.34235 -0.63557,-0.832149 -0.80271,-1.625 -0.16715,-0.79285 -0.2299,-1.87004 -0.22265,-3.2793 v -0.002 -8.218699 -8.218749 -0.002 c -0.007,-1.40927 0.0555,-2.486451 0.22265,-3.2793 0.16714,-0.79285 0.42298,-1.28265 0.80271,-1.625 0.75946,-0.6847 2.2854,-0.875 5.0487,-0.875 z"
       style="color:#000000;display:inline;opacity:0.4;fill:#000000;stroke-width:0.999987;-inkscape-stroke:none;enable-background:new"
       id="path2244-0" />
    <circle
       style="opacity:1;fill:#3eb34f;fill-opacity:1;stroke-width:2.10999;stroke-linecap:round;stroke-linejoin:round"
       id="path10474"
       cx="121"
       cy="37"
       r="8.5" />
    <path
       d="m 125.6539,33.456 -5.0751,5.0751 -3.2328,-3.23405 -1.005,1.0079 4.2388,4.23815 6.0811,-6.0802 z"
       style="color:#000000;font-weight:400;font-variant-ligatures:normal;font-variant-position:normal;font-variant-caps:normal;font-variant-numeric:normal;font-variant-alternates:normal;font-feature-settings:normal;text-indent:0;text-decoration-line:none;text-decoration-style:solid;text-decoration-color:#000000;text-transform:none;text-orientation:mixed;white-space:normal;shape-padding:0;overflow:visible;isolation:auto;mix-blend-mode:normal;fill:#ffffff;stroke-width:0.94727;enable-background:new"
       id="path10644"
       sodipodi:nodetypes="ccccccc" />
    <path
       id="path10476"
       style="opacity:0.3;fill:#000000;fill-opacity:1;stroke-width:2;stroke-linecap:round;stroke-linejoin:round"
       d="m 121,28 a 9,9 0 0 0 -9,9 9,9 0 0 0 9,9 9,9 0 0 0 9,-9 9,9 0 0 0 -9,-9 z m 0,1 a 8,8 0 0 1 8,8 8,8 0 0 1 -8,8 8,8 0 0 1 -8,-8 8,8 0 0 1 8,-8 z" />
  </g>
  <g
     id="preferences-system-bluetooth-inactive"
     transform="translate(0,8)">
    <rect
       style="opacity:1;fill:none;fill-opacity:1;stroke-width:2;stroke-linecap:round;stroke-linejoin:round"
       id="rect7567"
       width="32"
       height="32"
       x="130"
       y="14.000001" />
    <path
       d="m 140.19407,16.000001 c -1.42091,0 -2.54873,0.0308 -3.50573,0.19141 -0.95699,0.16064 -1.79139,0.4726 -2.41202,1.09179 -0.62062,0.61919 -0.93643,1.45612 -1.09566,2.41407 -0.15923,0.95795 -0.18664,2.08705 -0.17967,3.51171 V 31 38.79688 c -0.007,1.42131 0.0207,2.5495 0.17967,3.50585 0.15924,0.95796 0.47504,1.79488 1.09566,2.41407 0.62063,0.61919 1.45503,0.93115 2.41202,1.09179 0.957,0.160649 2.08482,0.191411 3.50573,0.191411 h 11.61479 c 1.42092,0 2.5466,-0.03069 3.50183,-0.191411 0.95524,-0.16075 1.78773,-0.47425 2.40616,-1.09375 0.61843,-0.6195 0.93131,-1.45363 1.09175,-2.41015 C 158.96905,41.34816 159,40.22066 159,38.79688 V 31 23.203121 c 0,-1.42378 -0.031,-2.55128 -0.1914,-3.50781 -0.16044,-0.95653 -0.47332,-1.79065 -1.09175,-2.41015 -0.61843,-0.61951 -1.45092,-0.933 -2.40616,-1.09375 -0.95523,-0.16076 -2.08091,-0.19141 -3.50183,-0.19141 z"
       style="color:#000000;font-style:normal;font-variant:normal;font-weight:normal;font-stretch:normal;font-size:medium;line-height:normal;font-family:sans-serif;font-variant-ligatures:normal;font-variant-position:normal;font-variant-caps:normal;font-variant-numeric:normal;font-variant-alternates:normal;font-feature-settings:normal;text-indent:0;text-align:start;text-decoration:none;text-decoration-line:none;text-decoration-style:solid;text-decoration-color:#000000;letter-spacing:normal;word-spacing:normal;text-transform:none;writing-mode:lr-tb;direction:ltr;text-orientation:mixed;dominant-baseline:auto;baseline-shift:baseline;text-anchor:start;white-space:normal;shape-padding:0;clip-rule:nonzero;display:inline;overflow:visible;visibility:visible;opacity:0.1;isolation:auto;mix-blend-mode:normal;color-interpolation:sRGB;color-interpolation-filters:linearRGB;solid-color:#000000;solid-opacity:1;vector-effect:none;fill:#000000;fill-opacity:1;fill-rule:nonzero;stroke:none;stroke-width:1.99996;stroke-linecap:butt;stroke-linejoin:miter;stroke-miterlimit:4;stroke-dasharray:none;stroke-dashoffset:0;stroke-opacity:1;marker:none;color-rendering:auto;image-rendering:auto;shape-rendering:auto;text-rendering:auto;enable-background:accumulate"
       id="path1922-9" />
    <path
       d="m 140.07506,15.500001 c -5.56175,0 -6.6037,0.58409 -6.57447,6.28227 v 8.217649 8.21781 c -0.0293,5.69818 1.01272,6.28227 6.57447,6.28227 h 11.85044 c 5.56037,0 6.57447,-0.58403 6.57447,-6.28227 v -8.21781 -8.217649 c 0,-5.69824 -1.0141,-6.28227 -6.57447,-6.28227 z"
       style="color:#000000;display:inline;overflow:visible;visibility:visible;fill:url(#linearGradient8119);fill-opacity:1;fill-rule:nonzero;stroke:none;stroke-width:0.999999;marker:none;enable-background:accumulate"
       id="path2042-2" />
    <path
       style="color:#000000;fill:#ffffff;stroke-width:0.999999;stroke-linecap:square;-inkscape-stroke:none"
       d="m 146.00704,21.000001 v 7.802734 l -3.1582,-2.960937 -0.36524,-0.341797 -0.68359,0.730469 0.36523,0.341796 3.61133,3.384766 -3.61133,3.384766 -0.36523,0.341796 0.68359,0.730469 0.36524,-0.341797 3.1582,-2.960937 v 7.802734 l 5.21875,-5.21875 -3.98828,-3.738281 3.98828,-3.738281 z m 1,2.414063 2.78125,2.781249 -2.78125,2.607422 z m 0,7.697265 2.78125,2.607422 -2.78125,2.78125 z"
       id="path27-0" />
    <path
       id="rect10194-2"
       style="opacity:0.1;fill:#ffffff;fill-opacity:1;stroke-width:0.999999"
       d="m 146.00001,15.500001 v 29 h 5.92578 c 5.56037,0 6.57422,-0.584963 6.57422,-6.283203 v -8.216797 -8.216797 c 0,-5.69824 -1.01385,-6.283203 -6.57422,-6.283203 z" />
    <path
       id="path2368-3"
       style="color:#000000;display:inline;opacity:0.7;fill:url(#linearGradient8121);fill-opacity:1;stroke-width:0.999999;-inkscape-stroke:none;enable-background:new"
       d="m 140.07422,16.000001 c -2.7633,0 -4.28936,0.1903 -5.04883,0.875 -0.37973,0.34235 -0.63559,0.83215 -0.80273,1.625 -0.16715,0.79285 -0.22966,1.87003 -0.22266,3.2793 v 0.002 8.21875 8.218749 0.002 c -0.007,1.40926 0.0555,2.48645 0.22266,3.2793 0.16714,0.79285 0.42299,1.28265 0.80273,1.625 0.75948,0.6847 2.28553,0.875 5.04883,0.875 h 11.85156 c 2.76262,0 4.28071,-0.190579 5.03711,-0.875 0.3782,-0.34221 0.63408,-0.83142 0.80273,-1.625 C 157.93431,40.70642 158,39.62652 158,38.2168 v -8.216799 -8.2168 c 0,-1.40972 -0.0657,-2.48962 -0.23438,-3.2832 -0.16865,-0.79358 -0.42453,-1.28279 -0.80273,-1.625 -0.7564,-0.68442 -2.27449,-0.875 -5.03711,-0.875 z m 0.4375,0.95312 h 11.02539 c 1.45312,0 2.55451,0.0404 3.32422,0.16407 0.76971,0.12365 1.15722,0.30849 1.40039,0.54101 0.24318,0.23252 0.43694,0.60316 0.5664,1.33985 0.12946,0.7367 0.17188,1.79163 0.17188,3.18164 v 7.796869 7.79688 c 0,1.39001 -0.0424,2.44494 -0.17188,3.18164 -0.12945,0.7367 -0.32322,1.10732 -0.5664,1.33984 -0.24317,0.23252 -0.63068,0.41737 -1.40039,0.54102 C 154.09162,42.95958 152.99023,43 151.53711,43 h -11.02539 c -1.45312,0 -2.55772,-0.0403 -3.33008,-0.164061 -0.77237,-0.123759 -1.16371,-0.308189 -1.4082,-0.541019 -0.24449,-0.23284 -0.43642,-0.60259 -0.56446,-1.33789 -0.12803,-0.7353 -0.16923,-1.78861 -0.1621,-3.17773 v -0.002 -7.800779 -7.79883 -0.002 c -0.007,-1.38911 0.0341,-2.44243 0.1621,-3.17773 0.12804,-0.73531 0.31997,-1.10506 0.56446,-1.33789 0.24449,-0.23284 0.63583,-0.41725 1.4082,-0.54102 0.77236,-0.12376 1.87696,-0.16406 3.33008,-0.16406 z"
       sodipodi:nodetypes="sssscccsssssssscssssscssssscsssssssssscccsssscc" />
    <path
       d="m 140.07467,15.000001 c -2.79831,0 -4.57403,0.10092 -5.71861,1.13281 -0.5723,0.51595 -0.91751,1.24088 -1.11131,2.16016 -0.19379,0.91928 -0.25152,2.05236 -0.24413,3.49219 v 8.21484 8.216799 c -0.007,1.43868 0.0505,2.57146 0.24413,3.49023 0.1938,0.91928 0.53901,1.64421 1.11131,2.16016 1.14459,1.03189 2.9203,1.13281 5.71861,1.13281 h 11.85128 c 2.79762,0 4.5662,-0.10066 5.7069,-1.13281 0.57034,-0.51608 0.91607,-1.24161 1.1113,-2.16016 C 158.93937,40.78848 159,39.65619 159,38.2168 v -8.216799 -8.2168 c 0,-1.43939 -0.0606,-2.57168 -0.25585,-3.49023 -0.19523,-0.91855 -0.54096,-1.64408 -1.1113,-2.16016 -1.1407,-1.03215 -2.90928,-1.13281 -5.7069,-1.13281 z m 0,1 h 11.85128 c 2.76262,0 4.28059,0.19058 5.03699,0.875 0.3782,0.34221 0.63405,0.83142 0.80271,1.625 0.16868,0.79358 0.23438,1.87348 0.23438,3.2832 v 8.2168 8.216799 c 0,1.40972 -0.0657,2.48962 -0.23438,3.2832 -0.16866,0.79358 -0.42451,1.28279 -0.80271,1.625 -0.7564,0.68442 -2.27437,0.875 -5.03699,0.875 h -11.85128 c -2.7633,0 -4.28923,-0.190299 -5.04871,-0.875 -0.37974,-0.34235 -0.63557,-0.83215 -0.80271,-1.625 -0.16715,-0.79285 -0.2299,-1.87004 -0.22265,-3.2793 v -0.002 -8.218699 -8.21875 -0.002 c -0.007,-1.40927 0.0555,-2.48645 0.22265,-3.2793 0.16714,-0.79285 0.42298,-1.28265 0.80271,-1.625 0.75947,-0.6847 2.28541,-0.875 5.04871,-0.875 z"
       style="color:#000000;display:inline;opacity:0.4;fill:#000000;stroke-width:0.999987;-inkscape-stroke:none;enable-background:new"
       id="path2244-7" />
  </g>
  <g
     id="16-16-preferences-desktop-notification"
     transform="translate(-111,-91)">
    <rect
       style="opacity:1;fill:none;fill-opacity:1;stroke-width:1;stroke-linecap:round;stroke-linejoin:round"
       id="rect12946"
       width="16"
       height="16"
       x="92"
       y="62" />
    <path
       id="path15562"
       style="fill:currentColor;fill-opacity:1;stroke-width:2;stroke-linecap:round;stroke-linejoin:round"
       class="ColorScheme-Text"
       d="m 102.77148,65.130859 c -0.12861,0.318433 -0.31095,0.612417 -0.53906,0.869141 0.4765,0.531087 0.76953,1.230354 0.76953,2 v 5 h -5.999997 v -5 c 0,-0.768652 0.292173,-1.467205 0.767578,-1.998047 C 97.540726,65.745377 97.357724,65.451384 97.228516,65.132812 96.473941,65.85621 96.001953,66.870345 96.001953,68 c 6.6e-4,0.11019 0.006,0.220318 0.01563,0.330078 v 3.236328 c 0,0.3597 -0.0337,0.689802 -0.101562,0.988282 -0.0679,0.298618 -0.187742,0.551338 -0.357422,0.761718 -0.16288,0.21718 -0.38382,0.38462 -0.66211,0.5 -0.271202,0.11906 -0.610978,0.176938 -1.017578,0.179688 V 74 h 12.242179 v -0.0039 c -0.40658,-0.003 -0.74634,-0.06061 -1.01757,-0.179688 -0.27829,-0.11538 -0.49923,-0.28283 -0.66211,-0.5 -0.16968,-0.21039 -0.28761,-0.4631 -0.35547,-0.761718 -0.0679,-0.29848 -0.1016,-0.628592 -0.10156,-0.988282 v -3.25 C 103.99336,68.211186 103.999,68.10563 104,68 c 0,-1.13092 -0.47242,-2.145729 -1.22852,-2.869141 z M 98.001953,75 c 0.0125,1.108598 0.914793,2 2.023437,2 1.1087,0 2.01094,-0.891382 2.02344,-2 z"
       sodipodi:nodetypes="ccsccsccccssccccccccccccccscc" />
    <circle
       style="opacity:1;fill:#3daee9;fill-opacity:1;stroke-width:2;stroke-linecap:round;stroke-linejoin:round"
       id="path16430"
       cx="100"
       cy="64"
       r="2" />
  </g>
  <g
     id="22-22-preferences-desktop-notification"
     transform="translate(-108,-88)">
    <rect
       style="opacity:1;fill:none;fill-opacity:1;stroke-width:2;stroke-linecap:round;stroke-linejoin:round"
       id="rect15492"
       width="22"
       height="22"
       x="108"
       y="56" />
    <path
       d="m 121.77151,62.130859 c -0.12861,0.318433 -0.31095,0.612417 -0.53906,0.869141 0.4765,0.531087 0.76953,1.230354 0.76953,1.999999 v 5 h -6 v -5 c 0,-0.768652 0.29217,-1.467205 0.76758,-1.998047 -0.22881,-0.256575 -0.41181,-0.550569 -0.54102,-0.869141 -0.75457,0.723399 -1.22656,1.737533 -1.22656,2.867188 6.6e-4,0.110191 0.006,0.220319 0.0156,0.330078 v 3.236328 c 0,0.359701 -0.0337,0.689802 -0.10156,0.988282 -0.0679,0.298619 -0.18774,0.551338 -0.35742,0.761718 -0.16288,0.21718 -0.38382,0.38462 -0.66211,0.5 -0.27121,0.119061 -0.61098,0.176939 -1.01758,0.179688 v 0.0039 h 12.24218 v -0.0039 c -0.40658,-0.003 -0.74634,-0.06061 -1.01757,-0.179688 -0.27829,-0.11538 -0.49923,-0.28283 -0.66211,-0.5 -0.16968,-0.21039 -0.28761,-0.463099 -0.35547,-0.761718 -0.0679,-0.29848 -0.1016,-0.628592 -0.10156,-0.988282 v -3.25 c 0.009,-0.105226 0.0146,-0.210781 0.0156,-0.316412 0,-1.13092 -0.47242,-2.145729 -1.22852,-2.869141 z M 117.00198,72 c 0.0125,1.108598 0.91479,2 2.02344,2 1.1087,0 2.01094,-0.891382 2.02344,-2 z"
       style="fill:currentColor;fill-opacity:1;stroke-width:2;stroke-linecap:round;stroke-linejoin:round"
       class="ColorScheme-Text"
       id="path16553" />
    <circle
       style="opacity:1;fill:#3daee9;fill-opacity:1;stroke-width:2;stroke-linecap:round;stroke-linejoin:round"
       id="path16627"
       cx="119"
       cy="61"
       r="2" />
  </g>
  <g
     id="preferences-desktop-notification">
    <rect
       style="opacity:1;fill:none;fill-opacity:1;stroke-width:2.90909;stroke-linecap:round;stroke-linejoin:round"
       id="rect16634"
       width="32"
       height="32"
       x="22"
       y="-42" />
    <path
       id="rect16974"
       style="fill:currentColor;fill-opacity:1;stroke-width:2;stroke-linecap:round;stroke-linejoin:round"
       class="ColorScheme-Text"
       d="M 34.236328,-33.671875 C 32.872985,-32.574287 32,-30.894391 32,-29 v 6 c 0,1.66199 -1.33801,3 -3,3 h 18 c -1.66199,0 -3,-1.33801 -3,-3 v -6 c 0,-1.894391 -0.872985,-3.574287 -2.236328,-4.671875 a 4,4 0 0 1 -0.460938,0.917969 C 42.342515,-31.838957 43,-30.500235 43,-29 v 8 H 33 v -8 c 0,-1.500235 0.657485,-2.838957 1.697266,-3.753906 a 4,4 0 0 1 -0.460938,-0.917969 z M 35,-19 c 0,1.656852 1.343148,3 3,3 1.656852,0 3,-1.343148 3,-3 z" />
    <circle
       style="opacity:1;fill:#3daee9;fill-opacity:1;stroke-width:2;stroke-linecap:round;stroke-linejoin:round"
       id="path17301"
       cx="38"
       cy="-35"
       r="3" />
  </g>
</svg>
