<?xml version="1.0" encoding="UTF-8" standalone="no"?>
<!-- Created with Inkscape (http://www.inkscape.org/) -->

<svg
   width="32"
   height="32"
   viewBox="0 0 32 32"
   version="1.1"
   id="svg780"
   inkscape:version="1.2 (dc2aedaf03, 2022-05-15)"
   sodipodi:docname="system.svg"
   xmlns:inkscape="http://www.inkscape.org/namespaces/inkscape"
   xmlns:sodipodi="http://sodipodi.sourceforge.net/DTD/sodipodi-0.dtd"
   xmlns="http://www.w3.org/2000/svg"
   xmlns:svg="http://www.w3.org/2000/svg">
  <sodipodi:namedview
     id="namedview782"
     pagecolor="#ffffff"
     bordercolor="#000000"
     borderopacity="0.25"
     inkscape:showpageshadow="2"
     inkscape:pageopacity="0.0"
     inkscape:pagecheckerboard="0"
     inkscape:deskcolor="#d1d1d1"
     inkscape:document-units="px"
     showgrid="false"
     inkscape:zoom="3.1132813"
     inkscape:cx="49.304893"
     inkscape:cy="28.105395"
     inkscape:window-width="1854"
     inkscape:window-height="1018"
     inkscape:window-x="0"
     inkscape:window-y="0"
     inkscape:window-maximized="1"
     inkscape:current-layer="svg780" />
  <defs
     id="defs777">
    <style
       id="current-color-scheme"
       type="text/css">
        .ColorScheme-Text { color:#dfdfdf; } .ColorScheme-Highlight { color:#0077c4; }
    </style>
  </defs>
  <g
     id="system-log-out">
    <rect
       style="opacity:1;fill:none;fill-opacity:1;stroke-width:2;stroke-linecap:round;stroke-linejoin:round"
       id="rect4308"
       width="32"
       height="32"
       x="0"
       y="-32" />
    <path
       id="path4313"
       style="opacity:1;fill:currentColor;fill-opacity:1;stroke-width:2;stroke-linecap:round;stroke-linejoin:round"
       class="ColorScheme-Text"
       d="M 16 -31 A 15 15 0 0 0 1 -16 A 15 15 0 0 0 16 -1 A 15 15 0 0 0 31 -16 A 15 15 0 0 0 16 -31 z M 16 -30 A 14 14 0 0 1 30 -16 A 14 14 0 0 1 16 -2 A 14 14 0 0 1 2 -16 A 14 14 0 0 1 16 -30 z M 19.234375 -22 L 18.527344 -21.291016 L 23.683594 -16.134766 L 5.8007812 -16.134766 L 5.8007812 -15.134766 L 23.683594 -15.134766 L 18.527344 -9.9785156 L 19.234375 -9.2714844 L 25.597656 -15.634766 L 19.234375 -22 z " />
  </g>
  <g
     id="system-shutdown"
     transform="translate(0,-32)">
    <rect
       style="fill:none;stroke-width:2;stroke-linecap:round;stroke-linejoin:round"
       id="rect1163"
       width="32"
       height="32"
       x="0"
       y="32" />
    <path
       id="path3712"
       style="fill:currentColor;stroke-width:2;stroke-linecap:round;stroke-linejoin:round"
       class="ColorScheme-Text"
       d="M 16,33 A 15,15 0 0 0 1,48 15,15 0 0 0 16,63 15,15 0 0 0 31,48 15,15 0 0 0 16,33 Z m 0,1 A 14,14 0 0 1 30,48 14,14 0 0 1 16,62 14,14 0 0 1 2,48 14,14 0 0 1 16,34 Z m -0.558594,4 v 10 h 1 V 38 Z M 8.9335938,40.933594 C 7.0576636,42.80705 6.0024722,45.348784 6,48 c 0,5.522841 4.477158,10 10,10 5.52284,0 10,-4.477158 10,-10 -0.0025,-2.651216 -1.057665,-5.19295 -2.933594,-7.066406 l -0.707031,0.707031 C 24.047759,43.326576 24.997568,45.613984 25,48 c 0,4.970557 -4.029443,9 -9,9 -4.970558,0 -9,-4.029443 -9,-9 0.0024,-2.386016 0.9522407,-4.673424 2.640625,-6.359375 z" />
  </g>
  <g
     id="system-suspend-hibernate">
    <rect
       style="opacity:1;fill:none;fill-opacity:1;stroke-width:2;stroke-linecap:round;stroke-linejoin:round"
       id="rect6769"
       width="32"
       height="32"
       x="0"
       y="32" />
    <path
       id="path6779"
       style="opacity:1;fill:currentColor;fill-opacity:1;stroke-width:2;stroke-linecap:round;stroke-linejoin:round"
       class="ColorScheme-Text"
       d="M 16 33 A 15 15 0 0 0 1 48 A 15 15 0 0 0 16 63 A 15 15 0 0 0 31 48 A 15 15 0 0 0 16 33 z M 16 34 A 14 14 0 0 1 30 48 A 14 14 0 0 1 16 62 A 14 14 0 0 1 2 48 A 14 14 0 0 1 16 34 z M 16 44 A 4 4 0 0 0 12 48 A 4 4 0 0 0 16 52 A 4 4 0 0 0 20 48 A 4 4 0 0 0 16 44 z " />
  </g>
  <g
     id="system-suspend">
    <rect
       style="opacity:1;fill:none;fill-opacity:1;stroke-width:2;stroke-linecap:round;stroke-linejoin:round"
       id="rect6771"
       width="32"
       height="32"
       x="0"
       y="64" />
    <path
       id="path6784"
       style="opacity:1;fill:currentColor;fill-opacity:1;stroke-width:2;stroke-linecap:round;stroke-linejoin:round"
       class="ColorScheme-Text"
       d="M 16 65 A 15 15 0 0 0 1 80 A 15 15 0 0 0 16 95 A 15 15 0 0 0 31 80 A 15 15 0 0 0 16 65 z M 16 66 A 14 14 0 0 1 30 80 A 14 14 0 0 1 16 94 A 14 14 0 0 1 2 80 A 14 14 0 0 1 16 66 z M 6 79 L 6 80 L 26 80 L 26 79 L 6 79 z " />
  </g>
  <g
     id="system-lock-screen"
     transform="translate(54,64)">
    <rect
       style="fill:none;stroke-width:2;stroke-linecap:round;stroke-linejoin:round"
       id="rect1057"
       width="32"
       height="32"
       x="0"
       y="0" />
    <path
       id="path1594"
       style="fill:currentColor;stroke-width:2;stroke-linecap:round;stroke-linejoin:round"
       class="ColorScheme-Text"
       d="M 16,1 A 15,15 0 0 0 1,16 15,15 0 0 0 16,31 15,15 0 0 0 31,16 15,15 0 0 0 16,1 Z m 0,1 A 14,14 0 0 1 30,16 14,14 0 0 1 16,30 14,14 0 0 1 2,16 14,14 0 0 1 16,2 Z m 0,4 c -2.761391,0 -5,2.2386084 -5,5 v 3 H 9 V 24 H 23 V 14 H 21 V 11 C 21,8.2386085 18.761391,6 16,6 Z m 0,1 c 2.224594,0 4,1.7754067 4,4 v 3 h -8 v -3 c 0,-2.2245933 1.775406,-4 4,-4 z m -6,8 h 12 v 8 H 10 Z m 5,2 v 4 h 2 v -4 z" />
  </g>
  <g
     id="system-reboot"
     transform="translate(22)">
    <rect
       style="opacity:1;fill:none;fill-opacity:1;stroke-width:2;stroke-linecap:round;stroke-linejoin:round"
       id="rect7917"
       width="32"
       height="32"
       x="32"
       y="32" />
    <path
       id="path9822"
       style="opacity:1;fill:currentColor;fill-opacity:1;stroke-width:2;stroke-linecap:round;stroke-linejoin:round"
       class="ColorScheme-Text"
       d="M 48,33 A 15,15 0 0 0 33,48 15,15 0 0 0 48,63 15,15 0 0 0 63,48 15,15 0 0 0 48,33 Z m 0,1 A 14,14 0 0 1 62,48 14,14 0 0 1 48,62 14,14 0 0 1 34,48 14,14 0 0 1 48,34 Z m -0.103516,6 c -0.107985,9.41e-4 -0.215629,0.0044 -0.324218,0.0098 -2.797079,0.137404 -5.268349,1.717834 -6.595704,4.082031 -0.343936,-0.220271 -0.424636,-0.272376 -0.902343,-0.578125 -0.087,0.609519 -0.15414,1.244897 -0.201172,1.904297 -0.04345,0.654595 -0.06813,1.29481 -0.07227,1.925781 0.56664,-0.27071 1.139398,-0.560457 1.716797,-0.873047 0.580081,-0.317754 1.130498,-0.641103 1.654297,-0.970703 0,0 -0.445178,-0.286573 -1.314453,-0.84375 1.145983,-2.08687 3.308912,-3.482848 5.765625,-3.603516 3.025521,-0.148637 5.796302,1.670823 6.863281,4.50586 L 55.46484,45.19144 C 54.277694,42.037059 51.244062,39.970831 47.896484,40 Z m 8.267578,8.599609 c -0.566638,0.270714 -1.139397,0.560458 -1.716796,0.873047 -0.58008,0.317753 -1.1305,0.641104 -1.654297,0.970703 0,0 0.445179,0.286574 1.314453,0.84375 -1.145982,2.086871 -3.308913,3.482849 -5.765625,3.603516 -3.02552,0.148637 -5.796302,-1.670823 -6.863281,-4.505859 L 40.5,50.751953 c 1.18715,3.154346 4.220783,5.220575 7.568359,5.191406 0.107985,-9.4e-4 0.21563,-0.0044 0.324219,-0.0098 2.797078,-0.137405 5.26835,-1.717834 6.595703,-4.082032 0.343937,0.220271 0.424636,0.272376 0.902344,0.578126 0.087,-0.609531 0.15414,-1.244899 0.201172,-1.904297 0.04345,-0.654597 0.06813,-1.29481 0.07227,-1.925782 z" />
  </g>
  <g
     id="system-users"
     transform="translate(22)">
    <rect
       style="opacity:1;fill:none;fill-opacity:1;stroke-width:2;stroke-linecap:round;stroke-linejoin:round"
       id="rect7919"
       width="32"
       height="32"
       x="32"
       y="0" />
    <path
       id="path9800"
       style="opacity:1;fill:currentColor;fill-opacity:1;stroke-width:2;stroke-linecap:round;stroke-linejoin:round"
       class="ColorScheme-Text"
       d="M 48,1 C 39.715729,1 33,7.7157288 33,16 33,24.284271 39.715729,31 48,31 56.284271,31 63,24.284271 63,16 63,7.7157288 56.284271,1 48,1 Z m 0,1 C 55.731986,2 62,8.2680135 62,16 62,23.731986 55.731986,30 48,30 40.268014,30 34,23.731986 34,16 34,8.2680135 40.268014,2 48,2 Z m -0.08789,6 c -0.592748,0 -1.160084,0.1092397 -1.675781,0.3320312 h -0.0059 c -0.510026,0.2114481 -0.954148,0.5243315 -1.330078,0.9238282 h -0.0078 v 0.00586 C 44.527164,9.662627 44.245286,10.146566 44.044922,10.695312 l -0.0078,0.0059 v 0.0078 0.0078 c -0.200337,0.548167 -0.302734,1.147565 -0.302734,1.792969 0,0.659948 0.09876,1.271563 0.302734,1.824218 0.200988,0.544441 0.488444,1.021142 0.855469,1.423828 v 0.0078 c 0.370761,0.394151 0.821674,0.701076 1.322266,0.921875 l 0.0078,0.0078 0.0078,0.0078 h 0.0059 0.0078 c 0.515209,0.212138 1.070467,0.318359 1.662109,0.318359 0.591672,0 1.152766,-0.106214 1.667969,-0.318359 h 0.0059 c 0.508705,-0.220459 0.955549,-0.53768 1.322266,-0.9375 l 0.0078,-0.0078 c 0.377102,-0.402283 0.669842,-0.878655 0.871094,-1.423828 0.204045,-0.552727 0.302734,-1.164302 0.302734,-1.824218 0,-0.644414 -0.102994,-1.245498 -0.302734,-1.792969 v -0.0078 -0.0078 c -0.20086,-0.553563 -0.493373,-1.036491 -0.871094,-1.4394532 -0.0023,-0.00256 -0.0055,-0.00331 -0.0078,-0.00586 -0.367307,-0.400359 -0.81196,-0.713139 -1.322266,-0.9238282 h -0.0059 C 49.06136,8.1115929 48.501068,8.0003561 47.91211,8 Z m -0.0059,0.8925781 h 0.0059 c 0.48486,0 0.91491,0.086618 1.314453,0.2597657 h 0.0078 c 0.400804,0.1650291 0.735623,0.3977176 1.017578,0.7070312 v 0.00781 c 0.289795,0.308606 0.52291,0.676492 0.6875,1.128906 v 0.0078 l 0.0078,0.01563 c 0.160383,0.43864 0.242187,0.933954 0.242187,1.490235 0,0.571375 -0.08749,1.073293 -0.25,1.513672 -0.164466,0.445528 -0.396804,0.817275 -0.689453,1.128906 v 0.0078 h -0.0059 c -0.281268,0.307333 -0.612105,0.550596 -1.011719,0.72461 -0.400448,0.164469 -0.841488,0.242187 -1.328125,0.242187 -0.483957,0 -0.91572,-0.07947 -1.314453,-0.242187 h -0.0078 C 46.180329,15.70986 45.834028,15.463436 45.541016,15.152344 45.257634,14.840702 45.034225,14.470579 44.869141,14.023438 44.70659,13.583145 44.625,13.081187 44.625,12.509766 c 0,-0.557352 0.08313,-1.050969 0.244141,-1.490235 v -0.0078 -0.0078 l 0.0078,-0.0059 c 0.165145,-0.452339 0.386174,-0.82305 0.666016,-1.1308595 0.292923,-0.3109301 0.632446,-0.5498147 1.033203,-0.7148437 h 0.0078 c 0.0021,-9.306e-4 0.0057,9.255e-4 0.0078,0 0.397299,-0.1711218 0.832928,-0.2596031 1.314453,-0.2597657 z m 0.101562,9.4277339 c -3.058369,0 -4.945106,0.272286 -6.140624,1.158204 -0.597373,0.442698 -0.986793,1.044371 -1.210938,1.757812 -0.216019,0.68753 -0.287382,1.5336 -0.294922,2.451172 v 0.101562 h 0.892578 v -0.0957 c 0.008,-0.869914 0.07979,-1.64365 0.251953,-2.191406 0.1803,-0.573816 0.448385,-0.9774 0.892579,-1.306641 0.890292,-0.659774 2.609826,-0.990234 5.609374,-0.990234 2.999547,0 4.714052,0.3306 5.603516,0.990234 0.443724,0.329088 0.713051,0.73299 0.892578,1.306641 0.171375,0.547721 0.237708,1.321654 0.244141,2.191406 v 0.0957 h 0.890625 v -0.0957 c -0.005,-0.91784 -0.07198,-1.769498 -0.28711,-2.457031 -0.223228,-0.713527 -0.611936,-1.315033 -1.208984,-1.757812 -1.179134,-0.874419 -3.065441,-1.137337 -6.052734,-1.144532 l -0.0078,-0.01367 z"
       sodipodi:nodetypes="ssssssssssccccccccccsccccccccsccccsscccccccccscccccccscccccscccssccccccccccsccccccccsscccccccccs" />
  </g>
  <g
     id="system-switch-user"
     transform="translate(22)">
    <rect
       style="opacity:1;fill:none;fill-opacity:1;stroke-width:2;stroke-linecap:round;stroke-linejoin:round"
       id="rect7921"
       width="32"
       height="32"
       x="32"
       y="-32" />
    <path
       id="path8077"
       style="opacity:1;fill:currentColor;fill-opacity:1;stroke-width:2;stroke-linecap:round;stroke-linejoin:round"
       class="ColorScheme-Text"
       d="M 48,-31 A 15,15 0 0 0 33,-16 15,15 0 0 0 48,-1 15,15 0 0 0 63,-16 15,15 0 0 0 48,-31 Z m 0,1 A 14,14 0 0 1 62,-16 14,14 0 0 1 48,-2 14,14 0 0 1 34,-16 14,14 0 0 1 48,-30 Z m -5.136719,4 V -8.1152344 L 37.707031,-13.271484 37,-12.564453 l 6.363281,6.3632811 6.363281,-6.3632811 -0.707031,-0.707031 -5.15625,5.1562496 V -26 Z m 10.089844,0 -6.363281,6.365234 0.707031,0.707032 5.15625,-5.154297 v 17.8808591 h 1 V -24.085938 l 5.158203,5.158204 0.707031,-0.707032 z" />
  </g>
  <g
     id="22-22-system-users">
    <rect
       style="opacity:1;fill:none;fill-opacity:1;stroke-width:2;stroke-linecap:round;stroke-linejoin:round"
       id="rect10787"
       width="22"
       height="22"
       x="32"
       y="10" />
    <path
       d="m 42.91215,13 c -0.592748,0 -1.160084,0.10924 -1.675781,0.332031 h -0.0059 c -0.510026,0.211448 -0.954148,0.524332 -1.330078,0.923828 h -0.0078 v 0.0059 c -0.365387,0.400908 -0.647265,0.884847 -0.847629,1.433593 l -0.0078,0.0059 v 0.0078 0.0078 c -0.200337,0.548167 -0.302734,1.147565 -0.302734,1.792969 0,0.659948 0.09876,1.271563 0.302734,1.824218 0.200988,0.544441 0.488444,1.021142 0.855469,1.423828 v 0.0078 c 0.370761,0.394151 0.821674,0.701076 1.322266,0.921875 l 0.0078,0.0078 0.0078,0.0078 h 0.0059 0.0078 c 0.515209,0.212138 1.070467,0.318359 1.662109,0.318359 0.591672,0 1.152766,-0.106214 1.667969,-0.318359 h 0.0059 c 0.508705,-0.220459 0.955549,-0.53768 1.322266,-0.9375 l 0.0078,-0.0078 c 0.377102,-0.402283 0.669842,-0.878655 0.871094,-1.423828 0.204045,-0.552727 0.302734,-1.164302 0.302734,-1.824218 0,-0.644414 -0.102994,-1.245498 -0.302734,-1.792969 v -0.0078 -0.0078 c -0.20086,-0.553563 -0.493373,-1.036491 -0.871094,-1.439453 -0.0023,-0.0026 -0.0055,-0.0033 -0.0078,-0.0059 -0.367307,-0.400359 -0.81196,-0.713139 -1.322266,-0.923828 h -0.0059 C 44.0614,13.111593 43.501108,13.000356 42.91215,13 Z m -0.0059,0.892578 h 0.0059 c 0.48486,0 0.91491,0.08662 1.314453,0.259766 h 0.0078 c 0.400804,0.165029 0.735623,0.397717 1.017578,0.707031 v 0.0078 c 0.289795,0.308606 0.52291,0.676492 0.6875,1.128906 v 0.0078 l 0.0078,0.01563 c 0.160383,0.43864 0.242187,0.933954 0.242187,1.490235 0,0.571375 -0.08749,1.073293 -0.25,1.513672 -0.164466,0.445528 -0.396804,0.817275 -0.689453,1.128906 v 0.0078 h -0.0059 c -0.281268,0.307333 -0.612105,0.550596 -1.011719,0.72461 -0.400448,0.164469 -0.841488,0.242187 -1.328125,0.242187 -0.483957,0 -0.91572,-0.07947 -1.314453,-0.242187 h -0.0078 c -0.401649,-0.174884 -0.74795,-0.421308 -1.040962,-0.7324 -0.283382,-0.311642 -0.506791,-0.681765 -0.671875,-1.128906 -0.162551,-0.440293 -0.244141,-0.942251 -0.244141,-1.513672 0,-0.557352 0.08313,-1.050969 0.244141,-1.490235 v -0.0078 -0.0078 l 0.0078,-0.0059 c 0.165145,-0.452339 0.386174,-0.82305 0.666016,-1.130859 0.292923,-0.310931 0.632446,-0.549815 1.033203,-0.714844 h 0.0078 c 0.0021,-9.31e-4 0.0057,9.25e-4 0.0078,0 0.397299,-0.171122 0.832928,-0.259603 1.314453,-0.259766 z m 0.101562,9.427734 c -3.058369,0 -4.945106,0.272286 -6.140624,1.158204 -0.597373,0.442698 -0.986793,1.044371 -1.210938,1.757812 -0.216019,0.68753 -0.287382,1.5336 -0.294922,2.451172 v 0.101562 h 0.892578 v -0.0957 c 0.008,-0.869914 0.07979,-1.64365 0.251953,-2.191406 0.1803,-0.573816 0.448385,-0.9774 0.892579,-1.306641 0.890292,-0.659774 2.609826,-0.990234 5.609374,-0.990234 2.999547,0 4.714052,0.3306 5.603516,0.990234 0.443724,0.329088 0.713051,0.73299 0.892578,1.306641 0.171375,0.547721 0.237708,1.321654 0.244141,2.191406 v 0.0957 h 0.890625 v -0.0957 c -0.005,-0.91784 -0.07198,-1.769498 -0.28711,-2.457031 -0.223228,-0.713527 -0.611936,-1.315033 -1.208984,-1.757812 -1.179134,-0.874419 -3.065441,-1.137337 -6.052734,-1.144532 l -0.0078,-0.01367 z"
       style="fill:currentColor;fill-opacity:1;stroke-width:2;stroke-linecap:round;stroke-linejoin:round"
       class="ColorScheme-Text"
       id="path16263" />
  </g>
  <g
     id="22-22-system-reboot">
    <rect
       style="opacity:1;fill:none;fill-opacity:1;stroke-width:2;stroke-linecap:round;stroke-linejoin:round"
       id="rect10789"
       width="22"
       height="22"
       x="32"
       y="42" />
    <path
       id="path11693"
       style="opacity:1;fill:currentColor;fill-opacity:1;stroke-width:2;stroke-linecap:round;stroke-linejoin:round"
       class="ColorScheme-Text"
       d="M 43 46 C 40.311078 46.0026 37.861568 47.544969 36.697266 49.96875 L 35.498047 49.199219 C 35.401107 49.886445 35.327644 50.577187 35.279297 51.269531 C 35.231297 51.979531 35.206172 52.680235 35.201172 53.365234 C 36.461871 52.771874 37.685512 52.102739 38.865234 51.361328 L 38.865234 51.359375 L 37.546875 50.515625 C 38.519759 48.377543 40.650982 47.003214 43 47 C 45.571997 47 47.760282 48.620534 48.613281 50.894531 L 49.548828 50.544922 C 48.52653 47.813138 45.916802 46.001347 43 46 z M 50.798828 52.634766 C 49.53813 53.228126 48.314488 53.897261 47.134766 54.638672 L 47.134766 54.640625 L 48.453125 55.486328 C 47.479946 57.624019 45.348785 58.996965 43 59 C 40.500043 58.9985 38.262975 57.446827 37.386719 55.105469 L 36.451172 55.455078 C 37.473142 58.187256 40.082944 59.998497 43 60 C 45.688922 59.9974 48.138432 58.455031 49.302734 56.03125 L 50.501953 56.798828 C 50.595953 56.136829 50.669703 55.447468 50.720703 54.730469 C 50.767703 54.019469 50.793828 53.319765 50.798828 52.634766 z " />
  </g>
  <g
     id="22-22-system-lock-screen">
    <rect
       style="opacity:1;fill:none;fill-opacity:1;stroke-width:2;stroke-linecap:round;stroke-linejoin:round"
       id="rect10791"
       width="22"
       height="22"
       x="32"
       y="74" />
    <path
       id="path14303"
       style="opacity:1;fill:currentColor;fill-opacity:1;stroke-width:2;stroke-linecap:round;stroke-linejoin:round"
       class="ColorScheme-Text"
       d="M 43 77 C 40.237906 77 38 79.237903 38 82 L 38 84 L 37 84 L 37 93 L 49 93 L 49 84 L 48 84 L 48 82 C 48 79.237903 45.762094 77 43 77 z M 43 78 C 45.221996 78 47 79.778002 47 82 L 47 84 L 39 84 L 39 82 C 39 79.778002 40.778004 78 43 78 z M 38 85 L 48 85 L 48 92 L 38 92 L 38 85 z M 42 87 L 42 90 L 44 90 L 44 87 L 42 87 z " />
  </g>
  <g
     id="22-22-system-switch-user">
    <rect
       style="opacity:1;fill:none;fill-opacity:1;stroke-width:2;stroke-linecap:round;stroke-linejoin:round"
       id="rect10793"
       width="22"
       height="22"
       x="32"
       y="-22" />
    <path
       id="path11864"
       style="opacity:1;fill:currentColor;fill-opacity:1;stroke-width:2;stroke-linecap:round;stroke-linejoin:round"
       class="ColorScheme-Text"
       d="M 45.5 -17.583984 C 45.033023 -16.844045 44.588174 -16.090612 44.166016 -15.324219 C 43.736016 -14.53622 43.348 -13.761952 43 -13.001953 L 45 -13.001953 L 45 -5 L 46 -5 L 46 -13 L 48 -13 C 47.630202 -13.786392 47.237 -14.561635 46.820312 -15.324219 C 46.400041 -16.088902 45.959578 -16.842259 45.5 -17.583984 z M 39 -17.013672 L 39 -9.0117188 L 37 -9.0117188 C 37.348 -8.2517226 37.736016 -7.4774523 38.166016 -6.6894531 C 38.588174 -5.9230599 39.033023 -5.1696268 39.5 -4.4296875 C 39.959578 -5.1714128 40.400041 -5.9247699 40.820312 -6.6894531 C 41.237 -7.4520364 41.630202 -8.2272808 42 -9.0136719 L 40 -9.0136719 L 40 -17.013672 L 39 -17.013672 z " />
  </g>
  <g
     id="22-22-system-log-out">
    <rect
       style="opacity:1;fill:none;fill-opacity:1;stroke-width:2;stroke-linecap:round;stroke-linejoin:round"
       id="rect10795"
       width="22"
       height="22"
       x="-22"
       y="-22" />
    <path
       id="path11386"
       style="opacity:1;fill:currentColor;fill-opacity:1;stroke-width:2;stroke-linecap:round;stroke-linejoin:round"
       class="ColorScheme-Text"
       d="M -11 -19 A 8 8 0 0 0 -19 -11 A 8 8 0 0 0 -11 -3 A 8 8 0 0 0 -3 -11 A 8 8 0 0 0 -11 -19 z M -11 -18 A 7 7 0 0 1 -4 -11 A 7 7 0 0 1 -11 -4 A 7 7 0 0 1 -18 -11 A 7 7 0 0 1 -11 -18 z M -11 -13 L -11 -11 L -15 -11 L -15 -10 L -10.998047 -10 L -10.998047 -8 C -10.210537 -8.3613416 -9.4359685 -8.7502544 -8.6757812 -9.1660156 C -7.895783 -9.5970146 -7.1410139 -10.042 -6.4160156 -10.5 C -7.1410139 -10.949 -7.893783 -11.389314 -8.6757812 -11.820312 C -9.4637805 -12.250312 -10.237049 -12.643 -10.998047 -13 L -11 -13 z " />
  </g>
  <g
     id="22-22-system-shutdown">
    <rect
       style="opacity:1;fill:none;fill-opacity:1;stroke-width:2;stroke-linecap:round;stroke-linejoin:round"
       id="rect10797"
       width="22"
       height="22"
       x="-22"
       y="10" />
    <path
       id="path28"
       style="font-variant-ligatures:normal;font-variant-position:normal;font-variant-caps:normal;font-variant-numeric:normal;font-variant-alternates:normal;font-feature-settings:normal;text-indent:0;text-decoration-line:none;text-decoration-style:solid;text-decoration-color:#000000;text-transform:none;text-orientation:mixed;white-space:normal;shape-padding:0;isolation:auto;mix-blend-mode:normal;fill:currentColor;fill-opacity:1;stroke-width:0.999999"
       class="ColorScheme-Text"
       d="m -12,13 v 8 h 1 v -8 z m 5.7871094,2.181641 -0.7050782,0.708984 A 6.5,6.5 0 0 1 -5,20.5 6.5,6.5 0 0 1 -11.5,27 6.5,6.5 0 0 1 -18,20.5 a 6.5,6.5 0 0 1 1.917969,-4.607422 l -0.69336,-0.697266 A 7.5,7.5 0 0 0 -19,20.5 7.5,7.5 0 0 0 -11.5,28 7.5,7.5 0 0 0 -4,20.5 7.5,7.5 0 0 0 -6.2128906,15.181641 Z" />
  </g>
  <g
     id="22-22-system-suspend-hibernate">
    <rect
       style="opacity:1;fill:none;fill-opacity:1;stroke-width:2;stroke-linecap:round;stroke-linejoin:round"
       id="rect10799"
       width="22"
       height="22"
       x="-22"
       y="42" />
    <path
       id="path11375"
       style="opacity:1;fill:currentColor;fill-opacity:1;stroke-width:2;stroke-linecap:round;stroke-linejoin:round"
       class="ColorScheme-Text"
       d="M -11 45 A 8 8 0 0 0 -19 53 A 8 8 0 0 0 -11 61 A 8 8 0 0 0 -3 53 A 8 8 0 0 0 -11 45 z M -11 46 A 7 7 0 0 1 -4 53 A 7 7 0 0 1 -11 60 A 7 7 0 0 1 -18 53 A 7 7 0 0 1 -11 46 z M -11 51 A 2 2 0 0 0 -13 53 A 2 2 0 0 0 -11 55 A 2 2 0 0 0 -9 53 A 2 2 0 0 0 -11 51 z " />
  </g>
  <g
     id="22-22-system-suspend">
    <rect
       style="opacity:1;fill:none;fill-opacity:1;stroke-width:2;stroke-linecap:round;stroke-linejoin:round"
       id="rect10801"
       width="22"
       height="22"
       x="-22"
       y="74" />
    <path
       id="path11338"
       style="opacity:1;fill:currentColor;fill-opacity:1;stroke-width:1.45455;stroke-linecap:round;stroke-linejoin:round"
       class="ColorScheme-Text"
       d="M -11 77 A 8 8 0 0 0 -19 85 A 8 8 0 0 0 -11 93 A 8 8 0 0 0 -3 85 A 8 8 0 0 0 -11 77 z M -11 78 A 7 7 0 0 1 -4 85 A 7 7 0 0 1 -11 92 A 7 7 0 0 1 -18 85 A 7 7 0 0 1 -11 78 z M -16 84 L -16 85 L -6 85 L -6 84 L -16 84 z " />
  </g>
  <g
     id="22-22-system-search">
    <rect
       style="opacity:1;fill:none;fill-opacity:1;stroke-width:2;stroke-linecap:round;stroke-linejoin:round"
       id="rect16312"
       width="22"
       height="22"
       x="-22"
       y="-54" />
    <path
       id="path16487"
       style="opacity:1;fill:currentColor;fill-opacity:1;stroke-width:2;stroke-linecap:round;stroke-linejoin:round"
       class="ColorScheme-Text"
       d="M -12 -50 C -15.309997 -50 -18 -47.309997 -18 -44 C -18 -40.690003 -15.309997 -38 -12 -38 C -10.670733 -38.003 -9.3807115 -38.451607 -8.3359375 -39.273438 L -5.4726562 -36.410156 L -4.4101562 -37.472656 L -7.2734375 -40.335938 C -6.4516753 -41.380749 -6.00307 -42.670746 -6 -44 C -6 -47.309997 -8.6900033 -50 -12 -50 z M -12 -49 C -9.2385788 -49 -7 -46.761421 -7 -44 C -7 -41.238579 -9.2385788 -39 -12 -39 C -14.761421 -39 -17 -41.238579 -17 -44 C -17 -46.761421 -14.761421 -49 -12 -49 z " />
  </g>
  <g
     id="system-search">
    <rect
       style="opacity:1;fill:none;fill-opacity:1;stroke-width:2;stroke-linecap:round;stroke-linejoin:round"
       id="rect16310"
       width="32"
       height="32"
       x="0"
       y="-64" />
    <path
       id="path16506"
       style="opacity:1;fill:currentColor;fill-opacity:1;stroke-width:2;stroke-linecap:round;stroke-linejoin:round"
       class="ColorScheme-Text"
       d="m 6.9289324,-57.071068 a 10,10 0 0 0 0,14.142136 10,10 0 0 0 13.3839296,0.656007 l 5.000847,5.000847 1.414213,-1.414213 -5.000847,-5.000847 a 10,10 0 0 0 -0.656007,-13.38393 10,10 0 0 0 -14.1421356,0 z m 0.7071067,0.707107 a 9,9 0 0 1 12.7279219,0 9,9 0 0 1 0,12.727922 9,9 0 0 1 -12.7279219,0 9,9 0 0 1 0,-12.727922 z" />
  </g>
  <g
     id="22-22-system-user-prompt"
     transform="translate(0,32)">
    <rect
       style="opacity:1;fill:none;fill-opacity:1;stroke-width:2;stroke-linecap:round;stroke-linejoin:round"
       id="rect16541"
       width="22"
       height="22"
       x="86"
       y="10" />
    <path
       d="m 95.5,24.499997 c 0,0.276142 -0.22386,0.500002 -0.5,0.500002 -0.27614,0 -0.5,-0.22386 -0.5,-0.500002 0,-0.276144 0.22386,-0.500001 0.5,-0.500001 0.27614,2e-6 0.5,0.223857 0.5,0.500001 z m -1.5,0 c 0,0.276142 -0.22386,0.500002 -0.5,0.500002 -0.27614,0 -0.5,-0.22386 -0.5,-0.500002 0,-0.276144 0.22386,-0.499999 0.5,-0.500001 0.27614,0 0.5,0.223857 0.5,0.500001 z m -1.5,0 c 0,0.276142 -0.22386,0.500002 -0.5,0.500002 -0.27614,0 -0.5,-0.22386 -0.5,-0.500002 0,-0.276144 0.22386,-0.500001 0.5,-0.500001 0.27614,0 0.5,0.223857 0.5,0.500001 z m -1.5,0 c 0,0.276142 -0.22386,0.500002 -0.5,0.500002 -0.27614,0 -0.5,-0.22386 -0.5,-0.500002 0,-0.276144 0.22386,-0.500001 0.5,-0.500001 0.27614,0 0.5,0.223857 0.5,0.500001 z m 4,-7.5 h 2 v 0.999999 h -2 z m -2,0 h 1 v 0.999999 h -1 z m -3,0 h 2 v 0.999999 h -2 z m -2,5 v 5.000001 h 18 v -5.000001 z m 1,1 h 16 v 2.999999 H 89 Z m -1,-7.999995 v 4.999999 h 18 v -4.999999 z m 1,1 h 16.00001 v 3 H 89 Z"
       style="fill:currentColor;stroke-width:1"
       class="ColorScheme-Text"
       id="path19513" />
  </g>
  <g
     id="system-user-prompt"
     transform="translate(0,32)">
    <rect
       style="opacity:1;fill:none;fill-opacity:1;stroke-width:2;stroke-linecap:round;stroke-linejoin:round"
       id="rect16543"
       width="32"
       height="32"
       x="108"
       y="2.3841858e-07" />
    <path
       d="m 123,10.75 v 1.5 h 5 v -1.5 z m -4,0 v 1.5 h 3 v -1.5 z m -6,0 v 1.5 h 5 v -1.5 z M 112,9 h 24 v 5 h -24 z m -1,-1 v 7 h 26 V 8 Z m 1,10 h 24 v 5 h -24 z m -1,-1 v 7 h 26 v -7 z m 3.5,2 c -0.82843,0 -1.5,0.671573 -1.5,1.5 0,0.828427 0.67157,1.5 1.5,1.5 0.82843,0 1.5,-0.671573 1.5,-1.5 0,-0.828427 -0.67157,-1.5 -1.5,-1.5 z m 4,0 c -0.82843,0 -1.5,0.671573 -1.5,1.5 0,0.828427 0.67157,1.5 1.5,1.5 0.82843,0 1.5,-0.671573 1.5,-1.5 0,-0.828427 -0.67157,-1.5 -1.5,-1.5 z m 4,0 c -0.82843,0 -1.5,0.671573 -1.5,1.5 0,0.828427 0.67157,1.5 1.5,1.5 0.82843,0 1.5,-0.671573 1.5,-1.5 0,-0.828427 -0.67157,-1.5 -1.5,-1.5 z m 4,0 c -0.82843,0 -1.5,0.671573 -1.5,1.5 0,0.828427 0.67157,1.5 1.5,1.5 0.82843,0 1.5,-0.671573 1.5,-1.5 0,-0.828427 -0.67157,-1.5 -1.5,-1.5 z"
       style="fill:currentColor"
       class="ColorScheme-Text"
       id="path19485" />
  </g>
  <g
     id="22-22-system-save-session"
     transform="translate(0,32)">
    <rect
       style="opacity:1;fill:none;fill-opacity:1;stroke-width:2;stroke-linecap:round;stroke-linejoin:round"
       id="rect16545"
       width="22"
       height="22"
       x="86"
       y="-22" />
    <path
       id="path18415"
       style="opacity:1;fill:currentColor;fill-opacity:1;stroke-width:2;stroke-linecap:round;stroke-linejoin:round"
       class="ColorScheme-Text"
       d="m 95,-18 v 7 h -2.15625 c 0,0 2.078252,5.3122528 4.15625,8.15625 C 99.078,-5.6877472 101.15625,-11 101.15625,-11 H 99 v -7 z m 1,1 h 2 v 7 h 1.587891 C 99.117891,-9.002001 98.400001,-6.7866854 97,-4.6796875 95.600001,-6.7866854 94.819609,-9.002001 94.349609,-10 H 96 Z"
       sodipodi:nodetypes="cccccccccccccccc" />
  </g>
  <g
     id="system-save-session"
     transform="translate(0,32)">
    <rect
       style="opacity:1;fill:none;fill-opacity:1;stroke-width:2;stroke-linecap:round;stroke-linejoin:round"
       id="rect16547"
       width="32"
       height="32"
       x="108"
       y="-31.999998" />
    <path
       id="path18211"
       style="opacity:1;fill:currentColor;fill-opacity:1;stroke-width:2;stroke-linecap:round;stroke-linejoin:round"
       class="ColorScheme-Text"
       d="m 124,-31 c -8.28427,0 -15,6.715729 -15,15 0,8.2842712 6.71573,15 15,15 8.28427,0 15,-6.7157288 15,-15 0,-8.284271 -6.71573,-15 -15,-15 z m 0,1 c 7.73199,0 14,6.268014 14,14 0,7.7319865 -6.26801,14 -14,14 -7.73199,0 -14,-6.2680135 -14,-14 0,-7.731986 6.26801,-14 14,-14 z m 2.9707,6 -5.98242,0.0039 v 8.978516 l -2.26758,-0.002 c 0.9274,1.850997 2.6184,5.106069 5.2793,9.0683591 2.6604,-3.9615911 4.31098,-7.2155111 5.23828,-9.0664061 h -2.26758 z m -1,0.998047 v 8.984375 H 127.5 c -0.9273,1.850895 -2.09141,4.076996 -3.5,6.0625 -1.41321,-1.953842 -2.5726,-4.213456 -3.5,-6.064453 l 1.48828,0.002 v -8.980469 z"
       sodipodi:nodetypes="sssssssssscccccccccccccccc" />
  </g>
  <g
     id="22-22-system-user-list">
    <rect
       style="opacity:1;fill:none;fill-opacity:1;stroke-width:2;stroke-linecap:round;stroke-linejoin:round"
       id="rect16561"
       width="22"
       height="22.000002"
       x="86"
       y="-22" />
    <path
       id="path17916"
       style="opacity:1;fill:currentColor;fill-opacity:1;stroke-width:2;stroke-linecap:round;stroke-linejoin:round"
       class="ColorScheme-Text"
       d="M 99.642578 -18 C 99.154759 -18 98.686127 -17.909909 98.261719 -17.726562 L 98.253906 -17.720703 C 97.836223 -17.546723 97.47027 -17.294275 97.162109 -16.966797 L 97.154297 -16.958984 C 96.853129 -16.628587 96.618061 -16.231716 96.453125 -15.779297 L 96.453125 -15.771484 C 96.285563 -15.317445 96.203125 -14.822517 96.203125 -14.287109 C 96.203125 -13.743984 96.285264 -13.236076 96.453125 -12.78125 C 96.618532 -12.333184 96.852241 -11.938827 97.154297 -11.607422 L 97.162109 -11.607422 C 97.468515 -11.281687 97.831988 -11.021693 98.246094 -10.839844 L 98.261719 -10.832031 L 98.269531 -10.832031 C 98.69354 -10.657443 99.147856 -10.574219 99.634766 -10.574219 C 100.12171 -10.574219 100.58381 -10.657438 101.00781 -10.832031 L 101.01562 -10.832031 C 101.43691 -11.014618 101.80453 -11.275389 102.10742 -11.607422 C 102.41777 -11.938493 102.65859 -12.332583 102.82422 -12.78125 C 102.99214 -13.236136 103.07422 -13.744009 103.07422 -14.287109 C 103.07422 -14.81911 102.98962 -15.311975 102.82422 -15.763672 L 102.82422 -15.771484 C 102.65892 -16.227071 102.41828 -16.627354 102.10742 -16.958984 C 101.80406 -17.291531 101.43827 -17.552063 101.01562 -17.726562 L 101.00781 -17.726562 C 100.58605 -17.907643 100.12684 -17.999707 99.642578 -18 z M 99.634766 -17.261719 L 99.642578 -17.261719 C 100.039 -17.261719 100.39365 -17.189488 100.7207 -17.048828 C 100.7227 -17.047901 100.72456 -17.049761 100.72656 -17.048828 L 100.73438 -17.048828 C 101.06162 -16.913159 101.33769 -16.717892 101.56836 -16.464844 L 101.56836 -16.457031 C 101.80663 -16.203309 101.99544 -15.899148 102.13086 -15.527344 L 102.13086 -15.519531 L 102.13672 -15.513672 C 102.26871 -15.152678 102.33594 -14.744919 102.33594 -14.287109 C 102.33594 -13.816877 102.26264 -13.401487 102.12891 -13.039062 C 101.99354 -12.672419 101.8092 -12.365842 101.56836 -12.109375 L 101.56055 -12.101562 C 101.32923 -11.849033 101.05509 -11.654777 100.72656 -11.511719 C 100.397 -11.376362 100.03526 -11.304687 99.634766 -11.304688 C 99.234316 -11.304688 98.878434 -11.376368 98.548828 -11.511719 C 98.218234 -11.655673 97.934504 -11.853351 97.693359 -12.109375 C 97.460143 -12.36585 97.276487 -12.671074 97.140625 -13.039062 C 97.006848 -13.401416 96.939453 -13.81684 96.939453 -14.287109 C 96.939453 -14.7458 97.008112 -15.152163 97.140625 -15.513672 L 97.140625 -15.519531 L 97.146484 -15.527344 L 97.146484 -15.535156 C 97.280744 -15.900255 97.459955 -16.206964 97.685547 -16.457031 L 97.693359 -16.464844 C 97.934455 -16.720781 98.213152 -16.913011 98.542969 -17.048828 L 98.548828 -17.048828 C 98.551028 -17.04976 98.554541 -17.047901 98.556641 -17.048828 C 98.883297 -17.189332 99.238936 -17.261583 99.634766 -17.261719 z M 92.615234 -16.324219 L 92.621094 -16.302734 C 92.286001 -16.291134 91.958291 -16.239165 91.662109 -16.111328 L 91.654297 -16.111328 C 91.332772 -15.977631 91.049801 -15.779749 90.8125 -15.527344 C 90.588846 -15.282045 90.421724 -14.978392 90.296875 -14.648438 L 90.289062 -14.664062 L 90.28125 -14.634766 L 90.28125 -14.626953 L 90.275391 -14.611328 C 90.147791 -14.264624 90.082031 -13.886719 90.082031 -13.482422 C 90.082031 -13.071507 90.146851 -12.693949 90.275391 -12.345703 C 90.401464 -12.004279 90.580368 -11.699944 90.8125 -11.445312 L 90.8125 -11.4375 C 91.046999 -11.188135 91.332237 -10.994836 91.648438 -10.855469 L 91.654297 -10.847656 L 91.669922 -10.839844 C 91.995112 -10.706231 92.348326 -10.640625 92.71875 -10.640625 C 93.089307 -10.640625 93.440377 -10.706146 93.765625 -10.839844 L 93.773438 -10.847656 C 93.778537 -10.849856 93.783963 -10.853269 93.789062 -10.855469 L 93.789062 -10.861328 C 94.100813 -10.999424 94.380439 -11.190924 94.607422 -11.4375 L 94.615234 -11.445312 L 94.623047 -11.460938 C 94.855883 -11.712743 95.037797 -12.009023 95.162109 -12.345703 C 95.290701 -12.693969 95.353516 -13.071523 95.353516 -13.482422 C 95.353516 -13.887055 95.289845 -14.264441 95.162109 -14.611328 L 95.162109 -14.619141 C 95.036794 -14.962701 94.851365 -15.266414 94.615234 -15.519531 L 94.607422 -15.527344 C 94.376245 -15.779068 94.093147 -15.978344 93.773438 -16.111328 L 93.765625 -16.111328 C 93.439605 -16.252086 93.090767 -16.324219 92.71875 -16.324219 L 92.615234 -16.324219 z M 92.695312 -15.585938 L 92.703125 -15.585938 L 92.71875 -15.585938 C 93.001924 -15.585938 93.248112 -15.539307 93.478516 -15.439453 L 93.486328 -15.439453 L 93.492188 -15.439453 C 93.720587 -15.344503 93.907853 -15.209023 94.068359 -15.033203 L 94.076172 -15.017578 C 94.240707 -14.841342 94.371387 -14.630352 94.466797 -14.369141 C 94.467597 -14.366941 94.466002 -14.363528 94.466797 -14.361328 L 94.474609 -14.361328 C 94.568789 -14.105389 94.615234 -13.812846 94.615234 -13.482422 C 94.615234 -13.1444 94.569054 -12.853306 94.474609 -12.597656 C 94.379269 -12.339473 94.243272 -12.126202 94.076172 -11.947266 L 94.076172 -11.939453 L 94.068359 -11.939453 C 93.905889 -11.761237 93.718998 -11.620816 93.486328 -11.519531 L 93.478516 -11.519531 C 93.24948 -11.426801 93.000077 -11.378906 92.71875 -11.378906 C 92.437315 -11.378906 92.186147 -11.426736 91.957031 -11.519531 L 91.951172 -11.519531 C 91.718603 -11.620764 91.520786 -11.760114 91.351562 -11.939453 C 91.18806 -12.119259 91.057533 -12.336043 90.960938 -12.597656 C 90.866508 -12.853535 90.8125 -13.144445 90.8125 -13.482422 C 90.8125 -13.813259 90.866511 -14.105158 90.960938 -14.361328 C 90.961736 -14.363528 90.960134 -14.366941 90.960938 -14.369141 C 91.057557 -14.633748 91.190544 -14.848291 91.351562 -15.025391 C 91.520359 -15.204214 91.712103 -15.344257 91.943359 -15.439453 L 91.951172 -15.439453 C 92.175113 -15.536493 92.420717 -15.583334 92.695312 -15.585938 z M 90.347656 -14.589844 L 90.349609 -14.587891 L 90.349609 -14.585938 L 90.347656 -14.585938 L 90.347656 -14.589844 z M 92.548828 -9.6210938 C 90.762835 -9.6152938 89.690946 -9.4488315 88.953125 -8.8984375 C 88.576991 -8.617857 88.324481 -8.2277432 88.185547 -7.7773438 C 88.046754 -7.3266601 88.001341 -6.8121252 88 -6.2109375 L 88 -5.28125 L 88.738281 -5.28125 L 88.738281 -6.2109375 C 88.739087 -6.7760235 88.782781 -7.2255501 88.886719 -7.5625 C 88.990414 -7.898666 89.140075 -8.1231442 89.388672 -8.3085938 C 89.882238 -8.6767761 90.814584 -8.883942 92.548828 -8.890625 L 92.628906 -8.890625 L 92.628906 -9.6210938 L 92.548828 -9.6210938 z M 99.716797 -9.5039062 C 97.199808 -9.5039062 95.649907 -9.279878 94.666016 -8.5507812 C 94.174379 -8.1864503 93.854389 -7.6926182 93.669922 -7.1054688 C 93.49214 -6.5396434 93.431984 -5.8371779 93.425781 -5.0820312 L 93.425781 -5.0019531 L 94.164062 -5.0019531 L 94.164062 -5.0820312 C 94.170562 -5.7979528 94.229413 -6.4320178 94.371094 -6.8828125 C 94.519474 -7.355053 94.743812 -7.6899789 95.109375 -7.9609375 C 95.84207 -8.5039205 97.248226 -8.7734375 99.716797 -8.7734375 C 102.18537 -8.7734375 103.59807 -8.5038053 104.33008 -7.9609375 C 104.69526 -7.6901082 104.92061 -7.3549173 105.06836 -6.8828125 C 105.2094 -6.4320476 105.26229 -5.7978228 105.26758 -5.0820312 L 105.26758 -5.0019531 L 106.00586 -5.0019531 L 106.00586 -5.0820312 C 106.00186 -5.8373982 105.94656 -6.5396407 105.76953 -7.1054688 C 105.58579 -7.6926862 105.25698 -8.1863811 104.76562 -8.5507812 C 103.79524 -9.270399 102.24161 -9.4823523 99.783203 -9.4882812 L 99.783203 -9.5039062 L 99.716797 -9.5039062 z " />
  </g>
  <g
     id="system-user-list">
    <rect
       style="opacity:1;fill:none;fill-opacity:1;stroke-width:2;stroke-linecap:round;stroke-linejoin:round"
       id="rect16563"
       width="32"
       height="32"
       x="108"
       y="-32" />
    <path
       id="path17659"
       style="opacity:1;fill:currentColor;fill-opacity:1;stroke-width:2;stroke-linecap:round;stroke-linejoin:round"
       class="ColorScheme-Text"
       d="M 127.14258 -23.894531 C 126.54984 -23.894531 125.9825 -23.785291 125.4668 -23.5625 L 125.46094 -23.5625 C 124.95091 -23.351051 124.50679 -23.038168 124.13086 -22.638672 L 124.12305 -22.638672 L 124.12305 -22.632812 C 123.75762 -22.231903 123.47575 -21.747965 123.27539 -21.199219 L 123.26758 -21.193359 L 123.26758 -21.185547 L 123.26758 -21.177734 C 123.06725 -20.629567 122.96484 -20.030169 122.96484 -19.384766 C 122.96484 -18.724818 123.06365 -18.113202 123.26758 -17.560547 C 123.46857 -17.016106 123.75603 -16.539405 124.12305 -16.136719 L 124.12305 -16.128906 C 124.49381 -15.734756 124.94472 -15.42783 125.44531 -15.207031 L 125.45312 -15.199219 L 125.46094 -15.191406 L 125.4668 -15.191406 L 125.47461 -15.191406 C 125.98982 -14.979268 126.54507 -14.873047 127.13672 -14.873047 C 127.72839 -14.873047 128.28949 -14.979261 128.80469 -15.191406 L 128.81055 -15.191406 C 129.31925 -15.411864 129.76608 -15.729087 130.13281 -16.128906 L 130.14062 -16.136719 C 130.51774 -16.539001 130.81046 -17.015374 131.01172 -17.560547 C 131.21576 -18.113275 131.31445 -18.724849 131.31445 -19.384766 C 131.31445 -20.029179 131.21146 -20.630263 131.01172 -21.177734 L 131.01172 -21.185547 L 131.01172 -21.193359 C 130.81088 -21.746927 130.51834 -22.229851 130.14062 -22.632812 C 130.13863 -22.635412 130.13581 -22.636072 130.13281 -22.638672 C 129.76551 -23.039031 129.32086 -23.35181 128.81055 -23.5625 L 128.80469 -23.5625 C 128.29177 -23.782938 127.73154 -23.894175 127.14258 -23.894531 z M 127.13672 -23.001953 L 127.14258 -23.001953 C 127.62744 -23.001953 128.05749 -22.915334 128.45703 -22.742188 L 128.46484 -22.742188 C 128.86565 -22.577159 129.20047 -22.34447 129.48242 -22.035156 L 129.48242 -22.027344 C 129.77221 -21.718738 130.00534 -21.350852 130.16992 -20.898438 L 130.16992 -20.890625 L 130.17773 -20.875 C 130.33812 -20.43636 130.41992 -19.941046 130.41992 -19.384766 C 130.41992 -18.813389 130.33242 -18.311472 130.16992 -17.871094 C 130.00546 -17.425564 129.77507 -17.053818 129.48242 -16.742188 L 129.48242 -16.734375 L 129.47656 -16.734375 C 129.19529 -16.427042 128.86446 -16.183779 128.46484 -16.009766 C 128.06439 -15.845296 127.62336 -15.767578 127.13672 -15.767578 C 126.65277 -15.767578 126.22101 -15.847047 125.82227 -16.009766 L 125.81445 -16.009766 C 125.41274 -16.184671 125.06646 -16.431095 124.77344 -16.742188 C 124.49006 -17.053829 124.26664 -17.423952 124.10156 -17.871094 C 123.93901 -18.311386 123.85742 -18.813344 123.85742 -19.384766 C 123.85742 -19.942117 123.94052 -20.435734 124.10156 -20.875 L 124.10156 -20.882812 L 124.10156 -20.890625 L 124.10938 -20.896484 C 124.27442 -21.348848 124.49359 -21.719535 124.77344 -22.027344 C 125.06637 -22.338273 125.40588 -22.577159 125.80664 -22.742188 L 125.81445 -22.742188 C 125.81645 -22.743118 125.82027 -22.741263 125.82227 -22.742188 C 126.21957 -22.913309 126.65519 -23.001791 127.13672 -23.001953 z M 118.60156 -21.865234 L 118.60938 -21.841797 C 118.20263 -21.827627 117.81074 -21.760665 117.45117 -21.605469 L 117.44336 -21.605469 L 117.43555 -21.599609 C 117.04831 -21.43722 116.70424 -21.202929 116.41797 -20.898438 L 116.41016 -20.890625 C 116.13865 -20.592836 115.94073 -20.226649 115.78906 -19.826172 L 115.77539 -19.841797 L 115.76758 -19.804688 L 115.75977 -19.783203 C 115.60477 -19.361954 115.52344 -18.901417 115.52344 -18.410156 C 115.52344 -17.910858 115.60354 -17.444636 115.75977 -17.021484 C 115.91296 -16.606623 116.1281 -16.239088 116.41016 -15.929688 L 116.41797 -15.929688 C 116.70367 -15.625825 117.04218 -15.382315 117.42773 -15.212891 L 117.43555 -15.212891 C 117.43855 -15.211491 117.44036 -15.206378 117.44336 -15.205078 L 117.45117 -15.205078 C 117.84631 -15.042732 118.27842 -14.962891 118.72852 -14.962891 C 119.17878 -14.962891 119.61065 -15.04262 120.00586 -15.205078 L 120.01172 -15.205078 L 120.01953 -15.205078 C 120.02553 -15.207878 120.02856 -15.217833 120.03516 -15.220703 C 120.41716 -15.390226 120.7542 -15.626122 121.03125 -15.929688 L 121.03906 -15.9375 L 121.04492 -15.951172 C 121.32565 -16.256134 121.54505 -16.614539 121.69531 -17.021484 C 121.85156 -17.444661 121.93164 -17.910877 121.93164 -18.410156 C 121.93164 -18.901823 121.85054 -19.361703 121.69531 -19.783203 L 121.69531 -19.791016 C 121.54334 -20.208184 121.32548 -20.57528 121.03906 -20.882812 C 121.03706 -20.885212 121.03325 -20.888225 121.03125 -20.890625 L 121.03125 -20.896484 C 120.75145 -21.202781 120.40683 -21.437128 120.01953 -21.599609 L 120.01172 -21.605469 L 120.00586 -21.605469 C 119.6097 -21.776512 119.18056 -21.865234 118.72852 -21.865234 L 118.60156 -21.865234 z M 118.72852 -20.970703 C 119.0726 -20.970703 119.37824 -20.908433 119.6582 -20.787109 L 119.66602 -20.787109 L 119.66602 -20.779297 L 119.67188 -20.779297 C 119.94812 -20.664006 120.17869 -20.505882 120.37305 -20.292969 L 120.38086 -20.277344 C 120.58288 -20.061216 120.74496 -19.801992 120.86133 -19.480469 L 120.86133 -19.472656 C 120.97576 -19.161666 121.03906 -18.811652 121.03906 -18.410156 C 121.03906 -17.999427 120.97606 -17.64267 120.86133 -17.332031 C 120.74536 -17.017855 120.58431 -16.760586 120.38086 -16.542969 L 120.37305 -16.535156 C 120.17563 -16.318585 119.94092 -16.148457 119.6582 -16.025391 L 119.65039 -16.025391 C 119.37172 -15.912357 119.07092 -15.855469 118.72852 -15.855469 C 118.38599 -15.855469 118.08346 -15.912271 117.80469 -16.025391 L 117.79102 -16.025391 C 117.51096 -16.148164 117.27064 -16.318724 117.06641 -16.535156 C 116.86774 -16.753633 116.71112 -17.014146 116.59375 -17.332031 C 116.479 -17.642948 116.41797 -17.999483 116.41797 -18.410156 C 116.41797 -18.803612 116.47787 -19.150642 116.58789 -19.457031 L 116.59375 -19.480469 L 116.59375 -19.488281 L 116.60156 -19.494141 C 116.71861 -19.81148 116.87261 -20.072002 117.06641 -20.285156 C 117.26912 -20.499908 117.50652 -20.663878 117.7832 -20.779297 L 117.79102 -20.787109 L 117.79688 -20.787109 C 118.06898 -20.905027 118.36556 -20.961684 118.69922 -20.964844 L 118.7207 -20.964844 L 118.72852 -20.970703 z M 115.84961 -19.753906 L 115.85156 -19.751953 L 115.85156 -19.75 C 115.85106 -19.7486 115.85061 -19.747494 115.84961 -19.746094 L 115.84961 -19.753906 z M 118.52148 -13.722656 C 116.35134 -13.715656 115.04691 -13.504716 114.15039 -12.835938 C 113.69335 -12.494998 113.38952 -12.025793 113.2207 -11.478516 C 113.05181 -10.930893 113.00163 -10.304717 113 -9.5742188 L 113 -8.4433594 L 113.89258 -8.4433594 L 113.89258 -9.5742188 C 113.89358 -10.260851 113.95188 -10.803466 114.07812 -11.212891 C 114.20412 -11.621365 114.38738 -11.895754 114.68945 -12.121094 C 115.28918 -12.568468 116.41422 -12.820005 118.52148 -12.828125 L 118.625 -12.828125 L 118.625 -13.722656 L 118.52148 -13.722656 z M 127.23828 -13.574219 C 124.1799 -13.574219 122.29319 -13.301933 121.09766 -12.416016 C 120.5003 -11.973316 120.11086 -11.371644 119.88672 -10.658203 C 119.6707 -9.9706728 119.59933 -9.1246033 119.5918 -8.2070312 L 119.5918 -8.1054688 L 120.48438 -8.1054688 L 120.48438 -8.2011719 C 120.49237 -9.071086 120.56418 -9.8448227 120.73633 -10.392578 C 120.91663 -10.966395 121.18472 -11.369978 121.62891 -11.699219 C 122.51921 -12.358993 124.23873 -12.689453 127.23828 -12.689453 C 130.23783 -12.689453 131.95234 -12.358853 132.8418 -11.699219 C 133.28553 -11.370131 133.55486 -10.96623 133.73438 -10.392578 C 133.90575 -9.8448577 133.97209 -9.070924 133.97852 -8.2011719 L 133.97852 -8.1054688 L 134.87109 -8.1054688 L 134.87109 -8.2011719 C 134.86609 -9.119012 134.79909 -9.9706698 134.58398 -10.658203 C 134.36071 -11.371726 133.9701 -11.973236 133.37305 -12.416016 C 132.19392 -13.290434 130.3076 -13.553352 127.32031 -13.560547 L 127.3125 -13.574219 L 127.23828 -13.574219 z " />
  </g>
</svg>
