<?xml version="1.0" encoding="UTF-8" standalone="no"?>
<!-- Created with Inkscape (http://www.inkscape.org/) -->

<svg
   width="22"
   height="22"
   viewBox="0 0 22 22"
   version="1.1"
   id="svg4364"
   inkscape:version="1.2 (dc2aedaf03, 2022-05-15)"
   sodipodi:docname="applications.svg"
   xmlns:inkscape="http://www.inkscape.org/namespaces/inkscape"
   xmlns:sodipodi="http://sodipodi.sourceforge.net/DTD/sodipodi-0.dtd"
   xmlns:xlink="http://www.w3.org/1999/xlink"
   xmlns="http://www.w3.org/2000/svg"
   xmlns:svg="http://www.w3.org/2000/svg">
  <sodipodi:namedview
     id="namedview4366"
     pagecolor="#ffffff"
     bordercolor="#000000"
     borderopacity="0.25"
     inkscape:showpageshadow="2"
     inkscape:pageopacity="0.0"
     inkscape:pagecheckerboard="0"
     inkscape:deskcolor="#d1d1d1"
     inkscape:document-units="px"
     showgrid="false"
     inkscape:zoom="6.3077139"
     inkscape:cx="36.146218"
     inkscape:cy="-2.9329168"
     inkscape:window-width="1920"
     inkscape:window-height="1006"
     inkscape:window-x="0"
     inkscape:window-y="0"
     inkscape:window-maximized="1"
     inkscape:current-layer="svg4364" />
  <defs
     id="defs4361">
     <style
       id="current-color-scheme"
       type="text/css">
   .ColorScheme-Text { color:#3d3d3d; } .ColorScheme-Highlight { color:#5294e2; }
    </style>
    <linearGradient
       inkscape:collect="always"
       xlink:href="#linearGradient1016"
       id="linearGradient1018"
       x1="1.8858225"
       y1="0.26458332"
       x2="5.0608225"
       y2="8.2020836"
       gradientUnits="userSpaceOnUse"
       gradientTransform="matrix(3.7795275,0,0,3.7795275,21.999876,-10)" />
    <linearGradient
       inkscape:collect="always"
       id="linearGradient1016">
      <stop
         style="stop-color:#5884f4;stop-opacity:1;"
         offset="0"
         id="stop1012" />
      <stop
         style="stop-color:#80a3fa;stop-opacity:1"
         offset="1"
         id="stop1014" />
    </linearGradient>
    <linearGradient
       inkscape:collect="always"
       xlink:href="#linearGradient1871"
       id="linearGradient1020"
       x1="4.0024891"
       y1="0.52916664"
       x2="4.0024891"
       y2="7.9374866"
       gradientUnits="userSpaceOnUse"
       gradientTransform="matrix(3.7795275,0,0,3.7795275,21.999876,-10)" />
    <linearGradient
       inkscape:collect="always"
       id="linearGradient1871">
      <stop
         style="stop-color:#ffffff;stop-opacity:1;"
         offset="0"
         id="stop1867" />
      <stop
         style="stop-color:#ffffff;stop-opacity:0.1"
         offset="0.12"
         id="stop2515" />
      <stop
         style="stop-color:#ffffff;stop-opacity:0.102"
         offset="0.89999998"
         id="stop2581" />
      <stop
         style="stop-color:#ffffff;stop-opacity:0.502"
         offset="1"
         id="stop1869" />
    </linearGradient>
  </defs>
  <g
     id="22-22-applications-other">
    <rect
       style="fill:none;stroke-width:2;stroke-linecap:square;stroke-linejoin:round"
       id="rect4485"
       width="22"
       height="22"
       x="0"
       y="0" />
    <path
       id="rect5233"
       style="fill:currentColor;stroke-width:2.4;stroke-linecap:square;stroke-linejoin:round"
       class="ColorScheme-Text"
       d="M 4 4 L 4 10 L 10 10 L 10 4 L 4 4 z M 12 4 L 12 10 L 18 10 L 18 4 L 12 4 z M 5 5 L 9 5 L 9 9 L 5 9 L 5 5 z M 13 5 L 17 5 L 17 9 L 13 9 L 13 5 z M 4 12 L 4 18 L 10 18 L 10 12 L 4 12 z M 12 12 L 12 18 L 18 18 L 18 12 L 12 12 z M 5 13 L 9 13 L 9 17 L 5 17 L 5 13 z M 13 13 L 17 13 L 17 17 L 13 17 L 13 13 z " />
  </g>
  <g
     id="applications-other">
    <rect
       style="fill:none;stroke-width:2.90909;stroke-linecap:square;stroke-linejoin:round"
       id="rect4962"
       width="32"
       height="32"
       x="22"
       y="-10" />
    <path
       d="m 31.300884,-8.0000001 c -1.63949,0 -2.94082,0.030799 -4.04505,0.19141 -1.10422,0.1606401 -2.06697,0.4726 -2.78308,1.09179 -0.71611,0.6191898 -1.0805,1.4561201 -1.26421,2.4140701 -0.183741,0.9579499 -0.215368,2.0870498 -0.207329,3.5117098 v 7.7910201 7.7968791 c -0.009,1.42131 0.02389,2.5495 0.207329,3.50585 0.183712,0.95796 0.5481,1.79488 1.26421,2.41407 0.71611,0.61919 1.67886,0.93115 2.78308,1.09179 1.10423,0.160649 2.40556,0.19141 4.04505,0.19141 h 13.40164 c 1.63949,0 2.93835,-0.03069 4.040539,-0.19141 1.10219,-0.16075 2.06274,-0.47425 2.77633,-1.09375 0.713571,-0.6195 1.07457,-1.45363 1.25969,-2.41015 0.18515,-0.95653 0.22086,-2.08403 0.22086,-3.50781 V 6.9999999 -0.7968804 c 0,-1.4237798 -0.03579,-2.5512797 -0.22086,-3.5078097 -0.185121,-0.95653 -0.54612,-1.7906502 -1.25969,-2.41015 -0.71359,-0.61951 -1.67414,-0.933 -2.77633,-1.09375 -1.102189,-0.16076 -2.401049,-0.19141 -4.040539,-0.19141 z"
       style="color:#000000;font-style:normal;font-variant:normal;font-weight:normal;font-stretch:normal;font-size:medium;line-height:normal;font-family:sans-serif;font-variant-ligatures:normal;font-variant-position:normal;font-variant-caps:normal;font-variant-numeric:normal;font-variant-alternates:normal;font-feature-settings:normal;text-indent:0;text-align:start;text-decoration:none;text-decoration-line:none;text-decoration-style:solid;text-decoration-color:#000000;letter-spacing:normal;word-spacing:normal;text-transform:none;writing-mode:lr-tb;direction:ltr;text-orientation:mixed;dominant-baseline:auto;baseline-shift:baseline;text-anchor:start;white-space:normal;shape-padding:0;clip-rule:nonzero;display:inline;overflow:visible;visibility:visible;opacity:0.1;isolation:auto;mix-blend-mode:normal;color-interpolation:sRGB;color-interpolation-filters:linearRGB;solid-color:#000000;solid-opacity:1;vector-effect:none;fill:#000000;fill-opacity:1;fill-rule:nonzero;stroke:none;stroke-width:2;stroke-linecap:butt;stroke-linejoin:miter;stroke-miterlimit:4;stroke-dasharray:none;stroke-dashoffset:0;stroke-opacity:1;marker:none;color-rendering:auto;image-rendering:auto;shape-rendering:auto;text-rendering:auto;enable-background:accumulate"
       id="path2406" />
    <path
       d="m 31.127004,-8.5000001 c -6.45163,0 -7.6603,0.58409 -7.62639,6.2822698 v 8.2176498 8.2178095 c -0.03402,5.69818 1.17476,6.28227 7.62639,6.28227 h 13.74651 c 6.450029,0 7.626389,-0.58403 7.626389,-6.28227 V 5.9999195 -2.2177303 c 0,-5.6982398 -1.17636,-6.2822698 -7.626389,-6.2822698 z"
       style="color:#000000;display:inline;overflow:visible;visibility:visible;fill:url(#linearGradient1018);fill-opacity:1;fill-rule:nonzero;stroke:none;stroke-width:0.999999;marker:none;enable-background:accumulate"
       id="path2526" />
    <path
       d="m 28.999876,-3.0000002 c -0.554,0 -1,0.4460001 -1,1.0000002 v 3.0000003 c 0,0.5539998 0.446,0.9999995 1,0.9999995 h 3 c 0.554,0 1,-0.4459997 1,-0.9999995 V -2 c 0,-0.5540001 -0.446,-1.0000002 -1,-1.0000002 z m 7.5,0 c -0.554,0 -1,0.4460001 -1,1.0000002 v 3.0000003 c 0,0.5539998 0.446,0.9999995 1,0.9999995 h 3 c 0.554,0 1,-0.4459997 1,-0.9999995 V -2 c 0,-0.5540001 -0.446,-1.0000002 -1,-1.0000002 z m 7.5,0 c -0.554,0 -1,0.4460001 -1,1.0000002 v 3.0000003 c 0,0.5539998 0.446,0.9999995 1,0.9999995 h 2.999999 c 0.554001,0 1.000001,-0.4459997 1.000001,-0.9999995 V -2 c 0,-0.5540001 -0.446,-1.0000002 -1.000001,-1.0000002 z m -15,7.4999998 c -0.554,0 -1,0.4460002 -1,0.9999999 v 3.0000007 c 0,0.5539998 0.446,0.9999988 1,0.9999988 h 3 c 0.554,0 1,-0.445999 1,-0.9999988 V 5.4999995 c 0,-0.5539997 -0.446,-0.9999999 -1,-0.9999999 z m 7.5,0 c -0.554,0 -1,0.4460002 -1,0.9999999 v 3.0000007 c 0,0.5539998 0.446,0.9999988 1,0.9999988 h 3 c 0.554,0 1,-0.445999 1,-0.9999988 V 5.4999995 c 0,-0.5539997 -0.446,-0.9999999 -1,-0.9999999 z m 7.5,0 c -0.554,0 -1,0.4460002 -1,0.9999999 v 3.0000007 c 0,0.5539998 0.446,0.9999988 1,0.9999988 h 2.999999 c 0.554001,0 1.000001,-0.445999 1.000001,-0.9999988 V 5.4999995 c 0,-0.5539997 -0.446,-0.9999999 -1.000001,-0.9999999 z M 28.999876,12 c -0.554,0 -1,0.446 -1,1 v 3 c 0,0.554 0.446,1 1,1 h 3 c 0.554,0 1,-0.446 1,-1 v -3 c 0,-0.554 -0.446,-1 -1,-1 z m 7.5,0 c -0.554,0 -1,0.446 -1,1 v 3 c 0,0.554 0.446,1 1,1 h 3 c 0.554,0 1,-0.446 1,-1 v -3 c 0,-0.554 -0.446,-1 -1,-1 z m 7.5,0 c -0.554,0 -1,0.446 -1,1 v 3 c 0,0.554 0.446,1 1,1 h 2.999999 c 0.554001,0 1.000001,-0.446 1.000001,-1 v -3 c 0,-0.554 -0.446,-1 -1.000001,-1 z"
       style="opacity:0.1;fill:#000000;stroke-width:2;stroke-linecap:round;stroke-linejoin:round"
       id="path1385"
       sodipodi:nodetypes="sssssssssssssssssssssssssssssssssssssssssssssssssssssssssssssssssssssssssssssssss" />
    <path
       id="rect1006"
       style="fill:#ffffff;stroke-width:2;stroke-linecap:round;stroke-linejoin:round"
       d="m 28.999876,-4.0000001 c -0.554,0 -1,0.4459997 -1,0.9999999 V 9.9999999e-8 C 27.999876,0.5540002 28.445876,1 28.999876,1 h 3 c 0.554,0 1,-0.4459998 1,-0.999999900000001 V -3.0000002 c 0,-0.5540002 -0.446,-0.9999999 -1,-0.9999999 z m 7.5,0 c -0.554,0 -1,0.4459997 -1,0.9999999 V 9.9999999e-8 C 35.499876,0.5540002 35.945876,1 36.499876,1 h 3 c 0.554,0 1,-0.4459998 1,-0.999999900000001 V -3.0000002 c 0,-0.5540002 -0.446,-0.9999999 -1,-0.9999999 z m 7.5,0 c -0.554,0 -1,0.4459997 -1,0.9999999 V 9.9999999e-8 C 42.999876,0.5540002 43.445876,1 43.999876,1 h 3 c 0.554,0 1,-0.4459998 1,-0.999999900000001 V -3.0000002 c 0,-0.5540002 -0.446,-0.9999999 -1,-0.9999999 z m -15,7.5000003 c -0.554,0 -1,0.4460001 -1,0.9999998 v 2.9999999 c 0,0.554 0.446,1.0000003 1,1.0000003 h 3 c 0.554,0 1,-0.4460003 1,-1.0000003 V 4.5 c 0,-0.5539997 -0.446,-0.9999998 -1,-0.9999998 z m 7.5,0 c -0.554,0 -1,0.4460001 -1,0.9999998 v 2.9999999 c 0,0.554 0.446,1.0000003 1,1.0000003 h 3 c 0.554,0 1,-0.4460003 1,-1.0000003 V 4.5 c 0,-0.5539997 -0.446,-0.9999998 -1,-0.9999998 z m 7.5,0 c -0.554,0 -1,0.4460001 -1,0.9999998 v 2.9999999 c 0,0.554 0.446,1.0000003 1,1.0000003 h 3 c 0.554,0 1,-0.4460003 1,-1.0000003 V 4.5 c 0,-0.5539997 -0.446,-0.9999998 -1,-0.9999998 z M 28.999876,11 c -0.554,0 -1,0.446 -1,1 v 3 c 0,0.554 0.446,1 1,1 h 3 c 0.554,0 1,-0.446 1,-1 v -3 c 0,-0.554 -0.446,-1 -1,-1 z m 7.5,0 c -0.554,0 -1,0.446 -1,1 v 3 c 0,0.554 0.446,1 1,1 h 3 c 0.554,0 1,-0.446 1,-1 v -3 c 0,-0.554 -0.446,-1 -1,-1 z m 7.5,0 c -0.554,0 -1,0.446 -1,1 v 3 c 0,0.554 0.446,1 1,1 h 3 c 0.554,0 1,-0.446 1,-1 v -3 c 0,-0.554 -0.446,-1 -1,-1 z"
       sodipodi:nodetypes="sssssssssssssssssssssssssssssssssssssssssssssssssssssssssssssssssssssssssssssssss" />
    <path
       d="m 31.127393,-8.0000501 c -3.21065,0 -5.03244,0.19514 -5.937379,0.89844 -0.452461,0.3516499 -0.741761,0.83286 -0.933571,1.6171798 -0.19175,0.7843302 -0.263848,1.8568599 -0.255851,3.2636798 v 0.002 8.2187496 8.2187499 0.002 c -0.008,1.40682 0.0641,2.47935 0.255851,3.26368 0.1918,0.78431 0.48111,1.26553 0.933571,1.61718 0.904949,0.7033 2.726729,0.89844 5.937379,0.89844 h 13.74581 c 3.20985,0 5.0245,-0.195511 5.925649,-0.89844 0.45057,-0.351458 0.73804,-0.83201 0.931621,-1.61718 0.193629,-0.7853 0.269529,-1.86033 0.269529,-3.26768 V 5.9999494 -2.2168504 c 0,-1.4073498 -0.0759,-2.4823698 -0.269529,-3.2675799 -0.193581,-0.7851698 -0.481051,-1.2657198 -0.931621,-1.6171798 -0.901149,-0.70293 -2.715799,-0.89844 -5.925649,-0.89844 z m 6.49791,1.04688 c 3.4564,0.017099 6.91405,-0.026801 10.36111,0.0918 0.82108,0.13276 1.806599,0.1483498 2.39057,0.8261698 0.67883,1.1647298 0.51295,2.58781 0.564449,3.8730501 0.0431,6.0289299 0.0678,12.0671892 -0.03318,18.0878892 -0.0775,0.77792 -0.120552,1.67263 -0.67967,2.27539 -0.702485,0.51038 -1.618306,0.59683 -2.458945,0.67383 -4.04734,0.0864 -8.16205,0.0456 -12.23997,0.0606 -2.45183,-0.0199 -4.91392,0.0317 -7.35337,-0.0606 -0.87782,-0.12055 -1.91496,-0.14021 -2.56049,-0.83398 -0.64774,-1.02591 -0.50263,-2.30525 -0.56053,-3.46485 -0.035,-5.6557498 -0.03511,-11.3551799 0,-17.0097597 0.0632,-1.2215297 -0.108638,-2.5772398 0.59178,-3.6523498 0.60248,-0.6266498 1.55617,-0.6398598 2.35932,-0.7734398 2.73738,-0.10739 5.48072,-0.0704 8.22639,-0.0918 0.46402,-2.9e-4 0.92853,-0.002 1.39255,-0.002 z"
       style="color:#000000;display:inline;overflow:visible;visibility:visible;fill:url(#linearGradient1020);fill-opacity:1;fill-rule:nonzero;stroke:none;stroke-width:0.999987;marker:none;enable-background:accumulate"
       id="path2790" />
    <path
       d="m 31.127394,-9 c -3.24082,0 -5.24877,0.096098 -6.55256,1.1093699 -0.65189,0.50665 -1.06214,1.24017 -1.28903,2.1679701 -0.226888,0.9278098 -0.293729,2.06555 -0.28515,3.5078199 v 8.2148393 8.2167998 c -0.009,1.44113 0.0584,2.57856 0.28515,3.50586 0.226889,0.92781 0.63713,1.66132 1.28903,2.16796 1.3038,1.0133 3.31174,1.10938 6.55256,1.10938 h 13.745739 c 3.24002,0 5.241371,-0.0957 6.540841,-1.10938 0.649749,-0.50682 1.058539,-1.24101 1.287079,-2.16796 0.22853,-0.92696 0.29882,-2.0641 0.29882,-3.50586 V 5.9999992 -2.2168001 c 0,-1.4417601 -0.0703,-2.5789001 -0.29882,-3.5058599 -0.22854,-0.9269501 -0.63733,-1.6611401 -1.287079,-2.1679701 C 50.114504,-8.9042699 48.113153,-9 44.873133,-9 Z m 0,0.9999999 h 13.745739 c 3.209841,0 5.024481,0.19551 5.92563,0.89844 0.450571,0.3514598 0.73803,0.832 0.93161,1.6171801 0.193591,0.78519 0.26953,1.8602297 0.26953,3.2675799 v 8.2167993 8.2167998 c 0,1.40735 -0.0759,2.48239 -0.26953,3.26757 -0.19358,0.78519 -0.481039,1.26573 -0.93161,1.61719 -0.901149,0.70293 -2.715789,0.89844 -5.92563,0.89844 H 31.127394 c -3.21064,0 -5.03241,-0.195141 -5.93735,-0.89844 -0.45246,-0.35165 -0.74177,-0.83287 -0.93356,-1.61719 -0.1918,-0.78431 -0.26425,-1.85685 -0.25586,-3.26367 v -0.002 -8.2186998 -8.2187496 -0.002 c -0.008,-1.4068203 0.0641,-2.47935 0.255859,-3.2636802 0.1918,-0.7843198 0.4811,-1.2655298 0.93356,-1.6171798 0.90493,-0.7033 2.72671,-0.89844 5.93735,-0.89844 z"
       style="color:#000000;display:inline;opacity:0.4;fill:#000000;stroke-width:0.999987;-inkscape-stroke:none;enable-background:new"
       id="path2670" />
  </g>
</svg>
