<?xml version="1.0" encoding="UTF-8" standalone="no"?>
<!-- Created with Inkscape (http://www.inkscape.org/) -->

<svg
   width="22"
   height="22"
   viewBox="0 0 22 22"
   version="1.1"
   id="svg5"
   sodipodi:docname="bookmarks.svg"
   inkscape:version="1.2 (dc2aedaf03, 2022-05-15)"
   xmlns:inkscape="http://www.inkscape.org/namespaces/inkscape"
   xmlns:sodipodi="http://sodipodi.sourceforge.net/DTD/sodipodi-0.dtd"
   xmlns:xlink="http://www.w3.org/1999/xlink"
   xmlns="http://www.w3.org/2000/svg"
   xmlns:svg="http://www.w3.org/2000/svg">
  <sodipodi:namedview
     id="namedview7"
     pagecolor="#ffffff"
     bordercolor="#666666"
     borderopacity="1.0"
     inkscape:pageshadow="2"
     inkscape:pageopacity="0.0"
     inkscape:pagecheckerboard="0"
     inkscape:document-units="px"
     showgrid="false"
     units="px"
     height="48px"
     showguides="true"
     inkscape:zoom="12.265625"
     inkscape:cx="14.02293"
     inkscape:cy="18.955414"
     inkscape:window-width="1920"
     inkscape:window-height="1006"
     inkscape:window-x="0"
     inkscape:window-y="0"
     inkscape:window-maximized="1"
     inkscape:current-layer="svg5"
     inkscape:showpageshadow="2"
     inkscape:deskcolor="#d1d1d1" />
  <defs
     id="defs2">
     <style
       id="current-color-scheme"
       type="text/css">
        .ColorScheme-Text { color:#3d3d3d; } .ColorScheme-Highlight { color:#0077c4; }
    </style>
    <linearGradient
       inkscape:collect="always"
       id="linearGradient1871">
      <stop
         style="stop-color:#ffffff;stop-opacity:1;"
         offset="0"
         id="stop1867" />
      <stop
         style="stop-color:#ffffff;stop-opacity:0.1"
         offset="0.12"
         id="stop2515" />
      <stop
         style="stop-color:#ffffff;stop-opacity:0.102"
         offset="0.89999998"
         id="stop2581" />
      <stop
         style="stop-color:#ffffff;stop-opacity:0.502"
         offset="1"
         id="stop1869" />
    </linearGradient>
    <linearGradient
       inkscape:collect="always"
       xlink:href="#linearGradient1871"
       id="linearGradient1198"
       x1="6.3499999"
       y1="0.52916658"
       x2="6.3499994"
       y2="12.170834"
       gradientUnits="userSpaceOnUse"
       gradientTransform="matrix(2.405154,0,0,2.405154,0.72727268,0.72727268)" />
  </defs>
  <g
     id="bookmarks"
     transform="matrix(3.7795275,0,0,3.7795275,22,-9.999998)">
    <rect
       style="fill:none;stroke-width:0.529167;stroke-linecap:square;stroke-linejoin:round"
       id="rect296"
       width="8.4666662"
       height="8.4666662"
       x="0"
       y="0" />
    <circle
       style="opacity:0.1;fill:#000000;fill-opacity:1;stroke-width:0.345109;stroke-linecap:round;stroke-linejoin:round"
       id="path3625"
       cx="4.2333331"
       cy="4.4979167"
       r="3.96875" />
    <circle
       style="fill:#f76363;fill-opacity:1;stroke-width:0.341019;stroke-linecap:round;stroke-linejoin:round"
       id="path986-6"
       cx="4.2333331"
       cy="4.2333331"
       r="3.8364584" />
    <g
       id="g837"
       transform="matrix(0.76000853,0,0,0.76000853,-0.59269259,-0.56094376)">
      <path
         d="m 4.8144641,3.1767984 c -0.9632998,1.72e-5 -1.7501836,0.7694864 -1.7717558,1.7325445 0,0.4455319 0.1166997,0.7932738 0.2362358,1.1145573 C 3.839755,7.3515529 4.9325899,8.4608979 6.3499628,9.7913022 7.7673622,8.4608185 8.8601972,7.3514735 9.4209816,6.0239002 9.5405177,5.7026167 9.6572174,5.3548748 9.6572174,4.9088667 9.6157482,3.11702 7.2447987,2.5120864 6.3499258,4.0650311 6.0339665,3.5154452 5.4483261,3.1766806 4.81439,3.1767984 Z"
         style="color:#000000;overflow:visible;fill:#ffffff;stroke-width:0.472466;enable-background:new"
         id="path869" />
    </g>
    <path
       id="path4344"
       style="opacity:0.4;fill:#000000;fill-opacity:1;stroke-width:2;stroke-linecap:round;stroke-linejoin:round"
       d="M 16,1 A 15,15 0 0 0 1,16 15,15 0 0 0 16,31 15,15 0 0 0 31,16 15,15 0 0 0 16,1 Z m 0,1 A 14,14 0 0 1 30,16 14,14 0 0 1 16,30 14,14 0 0 1 2,16 14,14 0 0 1 16,2 Z"
       transform="scale(0.26458333)" />
    <path
       id="path1110"
       style="fill:url(#linearGradient1198);fill-opacity:1;stroke-width:1.27273;stroke-linecap:round;stroke-linejoin:round"
       d="m 16,2 c -7.7319866,-1e-7 -14.0000001,6.2680134 -14,14 2e-7,7.731987 6.2680134,14 14,14 7.731986,0 14,-6.268014 14,-14 C 30,8.2680134 23.731987,2.0000002 16,2 Z m 0,1 A 13,13 0 0 1 29,16 13,13 0 0 1 16,29 13,13 0 0 1 3,16 13,13 0 0 1 16,3 Z"
       transform="scale(0.26458333)" />
  </g>
  <g
     id="22-22-bookmarks"
     transform="scale(2.5984253)">
    <rect
       style="fill:none;stroke-width:0.529167;stroke-linecap:square;stroke-linejoin:round"
       id="rect361"
       width="8.4666662"
       height="8.4666662"
       x="0"
       y="0" />
    <path
       id="path1173"
       style="fill:currentColor;stroke-width:0.769697;stroke-linecap:square;stroke-linejoin:round"
       class="ColorScheme-Text"
       d="M 2.3090908 1.5393939 C 1.5393947 1.5393939 1.1545454 1.5393947 1.1545454 2.3090908 L 1.1545454 5.772727 C 1.1545454 6.5424233 1.5393947 6.542424 2.3090908 6.542424 L 3.4636362 6.542424 C 3.8388632 6.542424 4.0799951 6.8506034 4.0799951 6.8506034 L 4.2303265 7.0497926 L 4.3844163 6.85361 C 4.3844163 6.85361 4.6350793 6.5481967 5.0045334 6.542424 L 6.1575755 6.542424 C 6.9272716 6.542424 7.3121209 6.5424233 7.3121209 5.772727 L 7.3121209 2.3090908 C 7.3121209 1.5393947 6.927272 1.5393939 6.542424 1.5393939 L 6.542424 1.9242423 C 6.542424 1.9242423 6.9272725 1.9242427 6.9272725 2.3090908 L 6.9272725 5.772727 C 6.9272725 6.1575752 6.5424236 6.1575755 6.1575755 6.1575755 L 5.0000235 6.1575755 C 4.6055542 6.1633482 4.3749211 6.3416175 4.2348365 6.4747748 C 4.0309302 6.2695569 3.7529221 6.1551471 3.4636362 6.1575755 L 2.3090908 6.1575755 C 1.9242427 6.1575755 1.5393939 6.1575752 1.5393939 5.772727 L 1.5393939 2.3090908 C 1.5393939 1.9242427 1.9242427 1.9242423 2.3090908 1.9242423 L 3.4636362 1.9242423 C 3.8419419 1.9242423 4.0792434 2.2316701 4.0792434 2.2316701 L 4.2333332 2.4376242 L 4.3874229 2.2316701 C 4.3874229 2.2316701 4.6247245 1.9242423 5.0030301 1.9242423 L 5.0030301 4.6181816 L 6.1575755 4.2333332 L 6.1575755 1.5393939 L 5.0030301 1.5393939 C 4.6043275 1.5393939 4.3738027 1.7184688 4.2333332 1.8550899 C 4.0928636 1.7184688 3.8623388 1.5393939 3.4636362 1.5393939 L 2.3090908 1.5393939 z M 2.3090908 2.6939393 L 2.3090908 3.0787878 L 3.4636362 3.0787878 L 3.4636362 2.6939393 L 2.3090908 2.6939393 z M 2.3090908 3.4636362 L 2.3090908 3.8484847 L 3.4636362 3.8484847 L 3.4636362 3.4636362 L 2.3090908 3.4636362 z M 2.3090908 4.2333332 L 2.3090908 4.6181816 L 3.4636362 4.6181816 L 3.4636362 4.2333332 L 2.3090908 4.2333332 z M 2.3090908 5.0030301 L 2.3090908 5.3878786 L 3.4636362 5.3878786 L 3.4636362 5.0030301 L 2.3090908 5.0030301 z " />
  </g>
</svg>
