<?xml version="1.0" encoding="UTF-8" standalone="no"?>
<!-- Created with Inkscape (http://www.inkscape.org/) -->

<svg
   width="22"
   height="22"
   viewBox="0 0 22 22.000001"
   version="1.1"
   id="svg5"
   inkscape:version="1.2 (dc2aedaf03, 2022-05-15)"
   sodipodi:docname="computer.svg"
   xmlns:inkscape="http://www.inkscape.org/namespaces/inkscape"
   xmlns:sodipodi="http://sodipodi.sourceforge.net/DTD/sodipodi-0.dtd"
   xmlns:xlink="http://www.w3.org/1999/xlink"
   xmlns="http://www.w3.org/2000/svg"
   xmlns:svg="http://www.w3.org/2000/svg">
  <sodipodi:namedview
     id="namedview7"
     pagecolor="#ffffff"
     bordercolor="#000000"
     borderopacity="0.25"
     inkscape:showpageshadow="2"
     inkscape:pageopacity="0.0"
     inkscape:pagecheckerboard="0"
     inkscape:deskcolor="#d1d1d1"
     inkscape:document-units="px"
     showgrid="false"
     inkscape:zoom="9.0568182"
     inkscape:cx="16.506901"
     inkscape:cy="28.431619"
     inkscape:window-width="1854"
     inkscape:window-height="1018"
     inkscape:window-x="0"
     inkscape:window-y="0"
     inkscape:window-maximized="1"
     inkscape:current-layer="svg5" />
  <defs
     id="defs2">
    <style
       id="current-color-scheme"
       type="text/css">
   .ColorScheme-Text { color:#3d3d3d; } .ColorScheme-Highlight { color:#5294e2; }
    </style>
    <linearGradient
       inkscape:collect="always"
       xlink:href="#linearGradient2698"
       id="linearGradient2700"
       x1="1.7197917"
       y1="1.5875"
       x2="4.8515944"
       y2="7.1437502"
       gradientUnits="userSpaceOnUse"
       gradientTransform="matrix(3.7795275,0,0,3.7795275,22,-10)" />
    <linearGradient
       inkscape:collect="always"
       id="linearGradient2698">
      <stop
         style="stop-color:#fdfdfd;stop-opacity:1;"
         offset="0"
         id="stop2694" />
      <stop
         style="stop-color:#f0f0f0;stop-opacity:1;"
         offset="1"
         id="stop2696" />
    </linearGradient>
    <linearGradient
       inkscape:collect="always"
       xlink:href="#linearGradient1871"
       id="linearGradient1346"
       x1="2.4350028"
       y1="1.0583333"
       x2="2.4350028"
       y2="7.4083333"
       gradientUnits="userSpaceOnUse"
       gradientTransform="matrix(3.7795275,0,0,3.7795275,21.99944,-10)" />
    <linearGradient
       inkscape:collect="always"
       id="linearGradient1871">
      <stop
         style="stop-color:#ffffff;stop-opacity:1;"
         offset="0"
         id="stop1867" />
      <stop
         style="stop-color:#ffffff;stop-opacity:0.1"
         offset="0.12"
         id="stop2515" />
      <stop
         style="stop-color:#ffffff;stop-opacity:0.102"
         offset="0.89999998"
         id="stop2581" />
      <stop
         style="stop-color:#ffffff;stop-opacity:0.502"
         offset="1"
         id="stop1869" />
    </linearGradient>
    <linearGradient
       inkscape:collect="always"
       xlink:href="#linearGradient2698"
       id="linearGradient2159"
       gradientUnits="userSpaceOnUse"
       gradientTransform="matrix(3.7795275,0,0,3.7795275,22,-9)"
       x1="1.7197917"
       y1="1.5875"
       x2="4.8515944"
       y2="7.1437502" />
    <linearGradient
       inkscape:collect="always"
       xlink:href="#linearGradient1871"
       id="linearGradient2161"
       gradientUnits="userSpaceOnUse"
       gradientTransform="matrix(3.7795275,0,0,3.7795275,21.99944,-9)"
       x1="2.4350028"
       y1="1.0583333"
       x2="2.4350028"
       y2="7.4083333" />
  </defs>
  <g
     id="16-16-computer">
    <rect
       style="fill:none;stroke-width:1.45455;stroke-linecap:round;stroke-linejoin:round"
       id="rect184"
       width="16"
       height="16"
       x="-16"
       y="6" />
    <path
       d="m -12.0059,5.9999994 c -1.257999,0.015 -2.178642,-0.030234 -2.931641,0.3847657 -0.389351,0.2221473 -0.686512,0.5761132 -0.837891,0.9980469 -0.164999,0.4379996 -0.224609,0.9601882 -0.224609,1.6171876 V 15 c 0,0.657999 0.05961,1.179188 0.224609,1.617188 0.164,0.438999 0.461891,0.790047 0.837891,0.998046 0.752999,0.416 1.673642,0.369766 2.931641,0.384766 h 2.005859 v 1 h 4 v -1 h 2.005859 c 1.257999,-0.015 2.178642,0.03023 2.931641,-0.384766 0.389351,-0.222146 0.686513,-0.576113 0.837891,-0.998046 C -0.060651,16.179188 -4.1e-5,15.656999 -4.1e-5,15 V 8.9999996 c 0,-0.6579994 -0.05961,-1.179188 -0.224609,-1.6171876 C -0.376028,6.9608783 -0.67319,6.6069124 -1.062541,6.3847651 -1.81554,5.9687654 -2.736183,6.0149994 -3.994182,5.9999994 h -8.007812 z M -12,6.9999995 h 8 c 1.258999,0.015 2.087135,0.059719 2.453125,0.2617188 0.184,0.1 0.289719,0.2126565 0.386719,0.4726562 C -1.063156,7.9943642 -1,8.4080001 -1,8.9999996 V 15 c 0,0.591999 -0.06316,1.005635 -0.160156,1.265625 -0.098,0.26 -0.202719,0.371656 -0.386719,0.472656 C -1.912865,16.940281 -2.741001,16.985 -4,17 h -8 c -1.258999,-0.015 -2.090078,-0.05972 -2.455078,-0.261719 -0.183,-0.1 -0.286766,-0.212656 -0.384766,-0.472656 C -14.936844,16.005635 -15,15.591999 -15,15 V 8.9999996 c 0,-0.5919995 0.06316,-1.0056354 0.160156,-1.2656251 0.098,-0.2599997 0.201766,-0.3716564 0.384766,-0.4726562 0.366,-0.2019998 1.196079,-0.2467188 2.455078,-0.2617188 z M -13,20 l -3,1 v 1 H 0 v -1 l -3,-1 z"
       style="fill:currentColor;fill-opacity:1;stroke-width:4;stroke-linecap:round;stroke-linejoin:round"
       class="ColorScheme-Text"
       id="path2600" />
  </g>
  <g
     id="22-22-computer">
    <rect
       style="fill:none;stroke-width:2;stroke-linecap:round;stroke-linejoin:round"
       id="rect500"
       width="22"
       height="22"
       x="0"
       y="0" />
    <path
       id="path2527"
       style="fill:currentColor;fill-opacity:1;stroke-width:4;stroke-linecap:round;stroke-linejoin:round"
       class="ColorScheme-Text"
       d="M 6.9941406,3 C 5.7361419,3.015 4.8154992,2.969766 4.0625,3.3847656 3.6731493,3.6069129 3.3759875,3.9608788 3.2246094,4.3828125 3.0596095,4.8208121 3,5.3430007 3,6 v 6 c 0,0.657999 0.05961,1.179188 0.2246094,1.617188 0.1639998,0.438999 0.461891,0.790047 0.8378906,0.998046 C 4.8154992,15.031234 5.7361419,14.985 6.9941406,15 H 9 v 1 h 4 v -1 h 2.005859 c 1.257999,-0.015 2.178642,0.03023 2.931641,-0.384766 0.389351,-0.222146 0.686513,-0.576113 0.837891,-0.998046 C 18.93939,13.179188 19,12.656999 19,12 V 6 C 19,5.3420007 18.94039,4.8208121 18.775391,4.3828125 18.624013,3.9608788 18.326851,3.6069129 17.9375,3.3847656 17.184501,2.968766 16.263858,3.015 15.005859,3 H 6.9980469 Z M 7,4 h 8 c 1.258999,0.015 2.087135,0.059719 2.453125,0.2617188 0.184,0.1 0.289719,0.2126565 0.386719,0.4726562 C 17.936844,4.9943647 18,5.4080006 18,6 v 6 c 0,0.591999 -0.06316,1.005635 -0.160156,1.265625 -0.098,0.26 -0.202719,0.371656 -0.386719,0.472656 C 17.087135,13.940281 16.258999,13.985 15,14 H 7 C 5.7410013,13.985 4.9099215,13.940281 4.5449219,13.738281 4.3619221,13.638281 4.2581562,13.525625 4.1601562,13.265625 4.0631563,13.005635 4,12.591999 4,12 V 6 C 4,5.4080006 4.0631563,4.9943647 4.1601562,4.734375 4.2581562,4.4743753 4.3619221,4.3627186 4.5449219,4.2617188 4.9109215,4.059719 5.7410013,4.015 7,4 Z M 6,17 3,18 v 1 h 16 v -1 l -3,-1 z"
       sodipodi:nodetypes="cccssccccccccccssccccccccsssccccccsscscccccccc" />
  </g>
  <g
     id="computer">
    <rect
       style="fill:none;stroke-width:2;stroke-linecap:round;stroke-linejoin:round"
       id="rect643"
       width="32"
       height="32"
       x="22"
       y="-10" />
    <path
       d="m 24.50006,0.1939998 c 0,-1.4123996 0.0342,-2.5223995 0.185549,-3.4237994 0.151321,-0.9014502 0.431641,-1.6199002 0.953121,-2.1426002 0.52148,-0.5227 1.239,-0.8032501 2.1406,-0.9531201 0.901639,-0.1498798 2.0101,-0.1807499 3.4258,-0.1738299 h 7.794899 l 5.7968,1.598e-4 c 1.4145,-0.00699 2.5227,0.024 3.4238,0.1738318 0.90165,0.1498696 1.6192,0.43041 2.1406,0.9531201 0.52148,0.5227197 0.8018,1.2410998 0.95312,2.1425998 0.151321,0.9015001 0.185548,2.0113999 0.185548,3.4237995 v 6.6149003 c 0,1.4124005 -0.0342,2.5185005 -0.185548,3.4179995 -0.15137,0.899499 -0.43149,1.615999 -0.95312,2.136699 -0.52163,0.5207 -1.2377,0.80004 -2.1387,0.95117 -0.90094,0.15113 -2.052112,0.195183 -3.4258,0.18555 l -5.7968,-1.6e-4 H 31.20303 c -1.415201,0 -2.5248,-0.03439 -3.4258,-0.185549 C 26.8763,13.16364 26.16023,12.88435 25.63853,12.3636 25.1169,11.84285 24.83678,11.1264 24.68541,10.2269 24.53404,9.3274 24.49986,8.2213 24.49986,6.8088995 Z"
       style="color:#000000;fill:#4d4d4d;stroke-width:0.999999"
       id="path874"
       sodipodi:nodetypes="ccsccccccssscscccsccscc" />
    <path
       id="rect1885"
       style="fill:#4d4d4d;stroke-width:0.999999"
       d="m 32,17.000001 h 12.999999 c 0.554,0 1,0.446 1,1 0,0.554 -0.446,1 -1,1 H 32 c -0.554,0 -1.000001,-0.446 -1.000001,-1 0,-0.554 0.446001,-1 1.000001,-1 z" />
    <path
       id="rect2306"
       style="fill:url(#linearGradient2700);fill-opacity:1;stroke-width:0.999999"
       d="m 28.5,-4.0000001 h 18.999998 c 0.831,0 1.5,0.6689998 1.5,1.5 V 9.499999 c 0,0.831 -0.669,1.5 -1.5,1.5 H 28.5 c -0.831,0 -1.5,-0.669 -1.5,-1.5 V -2.5000001 c 0,-0.8310002 0.669,-1.5 1.5,-1.5 z" />
    <path
       d="M 31.2031,-6.0000002 C 25.5763,-6.0000002 25,-5.42397 25,0.1913999 V 6.8062995 C 25,12.4217 25.57638,13.0272 31.2031,12.9997 h 7.796899 l 5.7968,1.6e-4 c 5.6267,0.02759 6.2031,-0.57798 6.2031,-6.1934005 V 0.1915598 c 0,-5.6153997 -0.57633,-6.1911998 -6.2031,-6.1913997 l -5.7968,-1.603e-4 z M 31.2031,-5 h 7.796899 l 5.7968,1.599e-4 c 1.3896,4.01e-5 2.4436,0.040902 3.1777,0.1640618 0.73415,0.1231483 1.1001,0.305571 1.3281,0.53321 0.22803,0.227641 0.40999,0.5920301 0.53321,1.3242002 0.123201,0.7321897 0.164062,1.7832 0.164062,3.1698999 v 6.6148997 c 0,1.3866995 -0.0407,2.4410005 -0.164062,3.1758005 -0.12333,0.73474 -0.3068,1.1012 -0.53516,1.3301 -0.228352,0.228888 -0.59346,0.41141 -1.3262,0.5332 -0.73274,0.121791 -1.7851,0.154299 -3.1738,0.154299 h -0.002 l -5.7986,-1.61e-4 h -7.7988 -0.002 c -1.3887,0 -2.443099,-0.0325 -3.175799,-0.154299 C 27.29073,11.72358 26.92755,11.54106 26.69925,11.31217 26.47095,11.08328 26.28743,10.71682 26.16409,9.98207 26.04081,9.24734 26.00008,8.193069 26.00008,6.8062695 V 0.1913697 c 0,-1.3867 0.0408,-2.4377 0.164062,-3.1698999 0.12322,-0.7321799 0.305178,-1.0965997 0.533209,-1.3241998 0.228019,-0.2276485 0.59398,-0.41005 1.3281,-0.5332101 0.734141,-0.1231484 1.7881,-0.1640617 3.1777,-0.1640617 z"
       style="color:#000000;font-variant-ligatures:normal;font-variant-position:normal;font-variant-caps:normal;font-variant-numeric:normal;font-variant-alternates:normal;font-variant-east-asian:normal;font-feature-settings:normal;font-variation-settings:normal;text-indent:0;text-decoration-line:none;text-decoration-style:solid;text-decoration-color:#000000;text-transform:none;text-orientation:mixed;dominant-baseline:auto;white-space:normal;shape-padding:0;shape-margin:0;inline-size:0;opacity:0.25;isolation:auto;mix-blend-mode:normal;solid-color:#000000;fill:url(#linearGradient1346);fill-opacity:1;stroke-width:0.999999;color-rendering:auto;image-rendering:auto;shape-rendering:auto;stop-color:#000000"
       id="path1144" />
    <path
       d="m 31.20316,-7 c -1.4233,0 -2.553,0.031181 -3.5078,0.1914103 -0.95742,0.1605997 -1.7898,0.4725498 -2.4102,1.0917997 -0.62057,0.61953 -0.93089,1.4499999 -1.0918,2.4061999 C 24.0329,-2.3570901 24,-1.2290902 24,0.1914097 v 6.6148998 c 0,1.4205005 0.033,2.5504005 0.19336,3.5059005 0.16083,0.9581 0.47181,1.7926 1.0918,2.4141 0.62026,0.62171 1.4532,0.93242 2.4121,1.0918 0.95554,0.158838 2.084699,0.188561 3.5078,0.18164 h 7.794899 l 5.7948,1.6e-4 c 1.4231,0.007 2.5523,-0.02279 3.5078,-0.18164 0.95889,-0.15938 1.7918,-0.47007 2.4121,-1.0918 0.61998,-0.62145 0.93098,-1.456 1.0918,-2.4141 0.16038,-0.9554 0.19336,-2.085401 0.19336,-3.5059005 V 0.1915696 c 0,-1.4204999 -0.03288,-2.5484999 -0.193361,-3.5019998 -0.160909,-0.9562 -0.471229,-1.7866998 -1.091799,-2.4061999 -0.62029,-0.6192499 -1.4527,-0.9311898 -2.4101,-1.0918001 -0.95479,-0.1601699 -2.0845,-0.1913699 -3.5078,-0.19141 L 38.999959,-7 Z m 0,0.9999998 h 7.796899 l 5.7968,1.603e-4 c 1.4071,4e-5 2.4966,0.035603 3.3437,0.1777285 0.84445,0.1416604 1.4442,0.3902498 1.8672,0.8124997 0.42269,0.4219801 0.67264,1.0224 0.81446,1.8652003 0.142269,0.8455097 0.177729,1.9315997 0.177729,3.3358997 v 6.6149002 c 0,1.4042995 -0.03549,2.4923005 -0.177729,3.3398005 -0.14181,0.844811 -0.39148,1.449101 -0.81446,1.873001 -0.42269,0.4237 -1.0247,0.67214 -1.8691,0.8125 -0.84671,0.14078 -1.9339,0.17493 -3.3398,0.16797 l -5.7987,-1.6e-4 h -7.7969 c -1.407099,0.007 -2.494599,-0.0271 -3.341799,-0.16797 -0.84441,-0.14035 -1.4464,-0.38881 -1.8691,-0.8125 -0.42297,-0.42397 -0.67265,-1.0282 -0.81446,-1.873 C 25.03562,9.29855 25.00017,8.21053 25.00017,6.8062295 V 0.1913296 c 0,-1.4043998 0.0355,-2.4903998 0.17773,-3.3358998 0.14183,-0.8427998 0.39177,-1.4432999 0.81446,-1.8651998 0.42298,-0.42225 1.0227,-0.6708401 1.8672,-0.8125002 0.84708,-0.1421102 1.9366,-0.1777285 3.343699,-0.1777285 z"
       style="color:#000000;font-variant-ligatures:normal;font-variant-position:normal;font-variant-caps:normal;font-variant-numeric:normal;font-variant-alternates:normal;font-variant-east-asian:normal;font-feature-settings:normal;font-variation-settings:normal;text-indent:0;text-decoration-line:none;text-decoration-style:solid;text-decoration-color:#000000;text-transform:none;text-orientation:mixed;dominant-baseline:auto;white-space:normal;shape-padding:0;shape-margin:0;inline-size:0;opacity:0.4;isolation:auto;mix-blend-mode:normal;solid-color:#000000;stroke-width:0.999999;color-rendering:auto;image-rendering:auto;shape-rendering:auto;stop-color:#000000"
       id="path990" />
  </g>
  <g
     id="16-16-computer-laptop"
     transform="translate(0,32)">
    <rect
       style="fill:none;stroke-width:2;stroke-linecap:round;stroke-linejoin:round"
       id="rect1215"
       width="16"
       height="16"
       x="-16"
       y="6" />
    <path
       d="m -12.00588,7 c -1.257999,0.015 -2.178642,-0.030234 -2.931641,0.384765 -0.389009,0.2223 -0.686727,0.576271 -0.83789,0.998047 -0.165,0.438 -0.224609,0.960188 -0.224609,1.617188 v 6 c 0,0.657999 0.05961,1.179188 0.224609,1.617188 0.164,0.438999 0.461891,0.790047 0.83789,0.998046 0.752999,0.416 1.673643,0.369766 2.931641,0.384766 h 8.0117185 c 1.257999,-0.015 2.178642,0.03023 2.931641,-0.384766 0.389385,-0.222116 0.686477,-0.57611 0.837891,-0.998046 0.163999,-0.438 0.224609,-0.960189 0.224609,-1.617188 v -6 c 0,-0.658 -0.05961,-1.179188 -0.224609,-1.617188 C -0.3757925,7.961036 -0.6735115,7.607065 -1.0625205,7.384765 -1.8155195,6.968766 -2.7361625,7.015 -3.9941615,7 h -8.0078125 z m 0.0059,1 h 8.0000005 c 1.258999,0.015 2.087125,0.05972 2.453125,0.261718 0.184,0.1 0.289719,0.212657 0.386719,0.472657 C -1.0631365,8.994374 -0.9999805,9.408 -0.9999805,10 v 6 c 0,0.591999 -0.06316,1.005625 -0.160156,1.265625 -0.098,0.26 -0.202719,0.371656 -0.386719,0.472656 -0.366,0.202 -1.194126,0.246719 -2.453125,0.261719 h -8.0000005 c -1.258999,-0.015 -2.090078,-0.05972 -2.455078,-0.261719 -0.183,-0.1 -0.286766,-0.212656 -0.384766,-0.472656 -0.097,-0.26 -0.160156,-0.673626 -0.160156,-1.265625 v -6 c 0,-0.592 0.06316,-1.005626 0.160156,-1.265625 0.098,-0.26 0.201766,-0.371657 0.384766,-0.472657 C -14.089059,8.059719 -13.25898,8.015 -11.99998,8 Z m -4,12 v 1 H 2.05e-5 v -1 z"
       style="fill:currentColor;fill-opacity:1;stroke-width:4;stroke-linecap:round;stroke-linejoin:round"
       class="ColorScheme-Text"
       id="path3482" />
  </g>
  <g
     id="22-22-computer-laptop"
     transform="translate(0,32)">
    <rect
       style="fill:none;stroke-width:2;stroke-linecap:round;stroke-linejoin:round"
       id="rect1217"
       width="22"
       height="22"
       x="0"
       y="0" />
    <path
       id="rect3443"
       style="fill:currentColor;fill-opacity:1;stroke-width:4;stroke-linecap:round;stroke-linejoin:round"
       class="ColorScheme-Text"
       d="M 6.9941406,4 C 5.7361419,4.015 4.8154992,3.969766 4.0625,4.3847656 3.6734911,4.6070658 3.3757725,4.9610364 3.2246094,5.3828125 3.0596095,5.8208121 3,6.3430007 3,7 v 6 c 0,0.657999 0.05961,1.179188 0.2246094,1.617188 0.1639998,0.438999 0.461891,0.790047 0.8378906,0.998046 C 4.8154992,16.031234 5.7361419,15.985 6.9941406,16 h 8.0117184 c 1.257999,-0.015 2.178642,0.03023 2.931641,-0.384766 0.389385,-0.222116 0.686477,-0.57611 0.837891,-0.998046 C 18.93939,14.179188 19,13.656999 19,13 V 7 C 19,6.3420007 18.94039,5.8208121 18.775391,5.3828125 18.624228,4.9610364 18.326509,4.6070658 17.9375,4.3847656 17.184501,3.968766 16.263858,4.015 15.005859,4 H 6.9980469 Z M 7,5 h 8 c 1.258999,0.015 2.087125,0.059719 2.453125,0.2617188 0.184,0.1 0.289719,0.2126565 0.386719,0.4726562 C 17.936844,5.9943747 18,6.4080006 18,7 v 6 c 0,0.591999 -0.06316,1.005625 -0.160156,1.265625 -0.098,0.26 -0.202719,0.371656 -0.386719,0.472656 C 17.087125,14.940281 16.258999,14.985 15,15 H 7 C 5.7410013,14.985 4.9099215,14.940281 4.5449219,14.738281 4.3619221,14.638281 4.2581562,14.525625 4.1601562,14.265625 4.0631563,14.005625 4,13.591999 4,13 V 7 C 4,6.4080006 4.0631563,5.9943747 4.1601562,5.734375 4.2581562,5.4743753 4.3619221,5.3627186 4.5449219,5.2617188 4.9109215,5.059719 5.7410013,5.015 7,5 Z M 3,17 v 1 h 16 v -1 z"
       sodipodi:nodetypes="cccssccccccssccccccccsssccccccsscscccccc" />
  </g>
  <g
     id="computer-laptop"
     transform="translate(0,32)">
    <rect
       style="fill:none;stroke-width:2;stroke-linecap:round;stroke-linejoin:round"
       id="rect1219"
       width="32"
       height="32"
       x="22"
       y="-10" />
    <path
       d="m 24.50006,1.1939998 c 0,-1.4123996 0.0342,-2.5223995 0.185549,-3.4237994 0.151321,-0.9014502 0.431641,-1.6199002 0.953121,-2.1426002 0.52148,-0.5227 1.239,-0.8032501 2.1406,-0.9531201 0.901639,-0.1498798 2.0101,-0.1807499 3.4258,-0.1738299 h 7.794899 l 5.7968,1.598e-4 c 1.4145,-0.00699 2.5227,0.024 3.4238,0.1738318 0.90165,0.1498696 1.6192,0.43041 2.1406,0.9531201 0.52148,0.5227197 0.8018,1.2410998 0.95312,2.1425998 0.151321,0.9015001 0.185548,2.0113999 0.185548,3.4237995 v 6.6149003 c 0,1.4124005 -0.0342,2.5185005 -0.185548,3.4179995 -0.15137,0.899499 -0.43149,1.615999 -0.95312,2.136699 -0.52163,0.5207 -1.2377,0.80004 -2.1387,0.95117 -0.90094,0.15113 -2.052112,0.195183 -3.4258,0.18555 l -5.7968,-1.6e-4 H 31.20303 c -1.415201,0 -2.5248,-0.03439 -3.4258,-0.185549 C 26.8763,14.16364 26.16023,13.88435 25.63853,13.3636 25.1169,12.84285 24.83678,12.1264 24.68541,11.2269 24.53404,10.3274 24.49986,9.2213 24.49986,7.8088995 Z"
       style="color:#000000;fill:#4d4d4d;stroke-width:0.999999"
       id="path874-6"
       sodipodi:nodetypes="ccsccccccssscscccsccscc" />
    <path
       id="rect1885-2"
       style="fill:#4d4d4d;stroke-width:1.5"
       d="m 24.500001,14.99975 h 27 c 0.831,0 1.5,0.669 1.5,1.5 0,0.831 -0.669,1.5 -1.5,1.5 h -27 c -0.830999,0 -1.500001,-0.669 -1.500001,-1.5 0,-0.831 0.669001,-1.5 1.500001,-1.5 z"
       sodipodi:nodetypes="sssssss" />
    <path
       id="rect2306-9"
       style="fill:url(#linearGradient2159);fill-opacity:1;stroke-width:0.999999"
       d="m 28.5,-3.0000001 h 18.999998 c 0.831,0 1.5,0.6689998 1.5,1.5 V 10.499999 c 0,0.831 -0.669,1.5 -1.5,1.5 H 28.5 c -0.831,0 -1.5,-0.669 -1.5,-1.5 V -1.5000001 c 0,-0.8310002 0.669,-1.5 1.5,-1.5 z" />
    <path
       d="M 31.2031,-5.0000002 C 25.5763,-5.0000002 25,-4.42397 25,1.1913999 V 7.8062995 C 25,13.4217 25.57638,14.0272 31.2031,13.9997 h 7.796899 l 5.7968,1.6e-4 c 5.6267,0.02759 6.2031,-0.57798 6.2031,-6.1934005 V 1.1915598 c 0,-5.6153997 -0.57633,-6.1911998 -6.2031,-6.1913997 l -5.7968,-1.603e-4 z M 31.2031,-4 h 7.796899 l 5.7968,1.599e-4 c 1.3896,4.01e-5 2.4436,0.040902 3.1777,0.1640618 0.73415,0.1231483 1.1001,0.305571 1.3281,0.53321 0.22803,0.227641 0.40999,0.5920301 0.53321,1.3242002 0.123201,0.7321897 0.164062,1.7832 0.164062,3.1698999 v 6.6148997 c 0,1.3866995 -0.0407,2.4410005 -0.164062,3.1758005 -0.12333,0.73474 -0.3068,1.1012 -0.53516,1.3301 -0.228352,0.228888 -0.59346,0.41141 -1.3262,0.5332 -0.73274,0.121791 -1.7851,0.154299 -3.1738,0.154299 h -0.002 l -5.7986,-1.61e-4 h -7.7988 -0.002 c -1.3887,0 -2.443099,-0.0325 -3.175799,-0.154299 -0.73272,-0.121791 -1.0959,-0.304311 -1.3242,-0.533201 -0.2283,-0.22889 -0.41182,-0.59535 -0.53516,-1.3301 C 26.04081,10.24734 26.00008,9.193069 26.00008,7.8062695 V 1.1913697 c 0,-1.3867 0.0408,-2.4377 0.164062,-3.1698999 0.12322,-0.7321799 0.305178,-1.0965997 0.533209,-1.3241998 0.228019,-0.2276485 0.59398,-0.41005 1.3281,-0.5332101 0.734141,-0.1231484 1.7881,-0.1640617 3.1777,-0.1640617 z"
       style="color:#000000;font-variant-ligatures:normal;font-variant-position:normal;font-variant-caps:normal;font-variant-numeric:normal;font-variant-alternates:normal;font-variant-east-asian:normal;font-feature-settings:normal;font-variation-settings:normal;text-indent:0;text-decoration-line:none;text-decoration-style:solid;text-decoration-color:#000000;text-transform:none;text-orientation:mixed;dominant-baseline:auto;white-space:normal;shape-padding:0;shape-margin:0;inline-size:0;opacity:0.25;isolation:auto;mix-blend-mode:normal;solid-color:#000000;fill:url(#linearGradient2161);fill-opacity:1;stroke-width:0.999999;color-rendering:auto;image-rendering:auto;shape-rendering:auto;stop-color:#000000"
       id="path1144-1" />
    <path
       d="m 31.20316,-6 c -1.4233,0 -2.553,0.031181 -3.5078,0.1914103 -0.95742,0.1605997 -1.7898,0.4725498 -2.4102,1.0917997 -0.62057,0.61953 -0.93089,1.4499999 -1.0918,2.4061999 C 24.0329,-1.3570901 24,-0.2290902 24,1.1914097 v 6.6148998 c 0,1.4205005 0.033,2.5504005 0.19336,3.5059005 0.16083,0.9581 0.47181,1.7926 1.0918,2.4141 0.62026,0.62171 1.4532,0.93242 2.4121,1.0918 0.95554,0.158838 2.084699,0.188561 3.5078,0.18164 h 7.794899 l 5.7948,1.6e-4 c 1.4231,0.007 2.5523,-0.02279 3.5078,-0.18164 0.95889,-0.15938 1.7918,-0.47007 2.4121,-1.0918 0.61998,-0.62145 0.93098,-1.456 1.0918,-2.4141 0.16038,-0.9554 0.19336,-2.085401 0.19336,-3.5059005 V 1.1915696 c 0,-1.4204999 -0.03288,-2.5484999 -0.193361,-3.5019998 -0.160909,-0.9562 -0.471229,-1.7866998 -1.091799,-2.4061999 -0.62029,-0.6192499 -1.4527,-0.9311898 -2.4101,-1.0918001 -0.95479,-0.1601699 -2.0845,-0.1913699 -3.5078,-0.19141 L 38.999959,-6 Z m 0,0.9999998 h 7.796899 l 5.7968,1.603e-4 c 1.4071,4e-5 2.4966,0.035603 3.3437,0.1777285 0.84445,0.1416604 1.4442,0.3902498 1.8672,0.8124997 0.42269,0.4219801 0.67264,1.0224 0.81446,1.8652003 0.142269,0.8455097 0.177729,1.9315997 0.177729,3.3358997 v 6.6149002 c 0,1.4042995 -0.03549,2.4923005 -0.177729,3.3398005 -0.14181,0.844811 -0.39148,1.449101 -0.81446,1.873001 -0.42269,0.4237 -1.0247,0.67214 -1.8691,0.8125 -0.84671,0.14078 -1.9339,0.17493 -3.3398,0.16797 l -5.7987,-1.6e-4 h -7.7969 c -1.407099,0.007 -2.494599,-0.0271 -3.341799,-0.16797 -0.84441,-0.14035 -1.4464,-0.38881 -1.8691,-0.8125 -0.42297,-0.42397 -0.67265,-1.0282 -0.81446,-1.873 -0.14228,-0.84748 -0.17773,-1.9355 -0.17773,-3.3398005 V 1.1913296 c 0,-1.4043998 0.0355,-2.4903998 0.17773,-3.3358998 0.14183,-0.8427998 0.39177,-1.4432999 0.81446,-1.8651998 0.42298,-0.42225 1.0227,-0.6708401 1.8672,-0.8125002 0.84708,-0.1421102 1.9366,-0.1777285 3.343699,-0.1777285 z"
       style="color:#000000;font-variant-ligatures:normal;font-variant-position:normal;font-variant-caps:normal;font-variant-numeric:normal;font-variant-alternates:normal;font-variant-east-asian:normal;font-feature-settings:normal;font-variation-settings:normal;text-indent:0;text-decoration-line:none;text-decoration-style:solid;text-decoration-color:#000000;text-transform:none;text-orientation:mixed;dominant-baseline:auto;white-space:normal;shape-padding:0;shape-margin:0;inline-size:0;opacity:0.4;isolation:auto;mix-blend-mode:normal;solid-color:#000000;stroke-width:0.999999;color-rendering:auto;image-rendering:auto;shape-rendering:auto;stop-color:#000000"
       id="path990-2" />
  </g>
</svg>
