<?xml version="1.0" encoding="UTF-8" standalone="no"?>
<!-- Created with Inkscape (http://www.inkscape.org/) -->

<svg
   width="22"
   height="22"
   viewBox="0 0 22 22"
   version="1.1"
   id="svg375"
   inkscape:version="1.2 (dc2aedaf03, 2022-05-15)"
   sodipodi:docname="input.svg"
   xmlns:inkscape="http://www.inkscape.org/namespaces/inkscape"
   xmlns:sodipodi="http://sodipodi.sourceforge.net/DTD/sodipodi-0.dtd"
   xmlns:xlink="http://www.w3.org/1999/xlink"
   xmlns="http://www.w3.org/2000/svg"
   xmlns:svg="http://www.w3.org/2000/svg">
  <sodipodi:namedview
     id="namedview377"
     pagecolor="#ffffff"
     bordercolor="#000000"
     borderopacity="0.25"
     inkscape:showpageshadow="2"
     inkscape:pageopacity="0.0"
     inkscape:pagecheckerboard="0"
     inkscape:deskcolor="#d1d1d1"
     inkscape:document-units="px"
     showgrid="false"
     inkscape:zoom="4.8465909"
     inkscape:cx="19.910903"
     inkscape:cy="71.906213"
     inkscape:window-width="1854"
     inkscape:window-height="1048"
     inkscape:window-x="0"
     inkscape:window-y="0"
     inkscape:window-maximized="1"
     inkscape:current-layer="svg375" />
  <defs
     id="defs372">
    <style
       id="current-color-scheme"
       type="text/css">
   .ColorScheme-Text { color:#3d3d3d; } .ColorScheme-Highlight { color:#5294e2; }
    </style>
    <linearGradient
       inkscape:collect="always"
       xlink:href="#linearGradient1374"
       id="linearGradient1376"
       x1="2.2490358"
       y1="1.0583555"
       x2="8.3342352"
       y2="4.2333555"
       gradientUnits="userSpaceOnUse"
       gradientTransform="matrix(3.7795275,0,0,3.7795275,22.000067,1.7e-7)" />
    <linearGradient
       inkscape:collect="always"
       id="linearGradient1374">
      <stop
         style="stop-color:#cdcdcd;stop-opacity:1;"
         offset="0"
         id="stop1370" />
      <stop
         style="stop-color:#d9d9d9;stop-opacity:1"
         offset="1"
         id="stop1372" />
    </linearGradient>
    <linearGradient
       inkscape:collect="always"
       xlink:href="#linearGradient1871"
       id="linearGradient867"
       x1="4.6278176"
       y1="11.864628"
       x2="4.6861434"
       y2="17.420876"
       gradientUnits="userSpaceOnUse"
       gradientTransform="matrix(3.7795275,0,0,3.7795275,12.288659,-39.842678)" />
    <linearGradient
       inkscape:collect="always"
       id="linearGradient1871">
      <stop
         style="stop-color:#ffffff;stop-opacity:1;"
         offset="0"
         id="stop1867" />
      <stop
         style="stop-color:#ffffff;stop-opacity:0.1"
         offset="0.12"
         id="stop2515" />
      <stop
         style="stop-color:#ffffff;stop-opacity:0.102"
         offset="0.89999998"
         id="stop2581" />
      <stop
         style="stop-color:#ffffff;stop-opacity:0.502"
         offset="1"
         id="stop1869" />
    </linearGradient>
    <radialGradient
       inkscape:collect="always"
       xlink:href="#linearGradient2799"
       id="radialGradient2801"
       cx="6.2918267"
       cy="7.5567431"
       fx="6.2918267"
       fy="7.5567431"
       r="2.7781248"
       gradientTransform="matrix(6.6591697,-1.3679006e-7,1.1749386e-7,7.0191232,-3.8961902,-6.7900698)"
       gradientUnits="userSpaceOnUse" />
    <linearGradient
       inkscape:collect="always"
       id="linearGradient2799">
      <stop
         style="stop-color:#cdcdcd;stop-opacity:1;"
         offset="0"
         id="stop2795" />
      <stop
         style="stop-color:#cdcdcd;stop-opacity:1"
         offset="0.50536346"
         id="stop3635" />
      <stop
         style="stop-color:#e6e6e6;stop-opacity:1"
         offset="1"
         id="stop2797" />
    </linearGradient>
    <radialGradient
       inkscape:collect="always"
       xlink:href="#linearGradient4248"
       id="radialGradient4410"
       cx="6.2918267"
       cy="7.1982756"
       fx="6.2918267"
       fy="7.1982756"
       r="2.778125"
       gradientTransform="matrix(5.9392578,0,0,5.5793027,0.63337182,4.0902811)"
       gradientUnits="userSpaceOnUse" />
    <linearGradient
       inkscape:collect="always"
       id="linearGradient4248">
      <stop
         style="stop-color:#cdcdcd;stop-opacity:0"
         offset="0"
         id="stop4244" />
      <stop
         style="stop-color:#ffffff;stop-opacity:1"
         offset="1"
         id="stop4246" />
    </linearGradient>
    <linearGradient
       inkscape:collect="always"
       xlink:href="#linearGradient1871"
       id="linearGradient5422"
       x1="23.673721"
       y1="9.0039377"
       x2="23.673721"
       y2="39.003937"
       gradientUnits="userSpaceOnUse"
       gradientTransform="translate(14.222019,14.248361)" />
    <linearGradient
       inkscape:collect="always"
       id="linearGradient1331">
      <stop
         style="stop-color:#eab305;stop-opacity:1"
         offset="0"
         id="stop1327" />
      <stop
         style="stop-color:#ffda64;stop-opacity:1"
         offset="1"
         id="stop1329" />
    </linearGradient>
    <linearGradient
       inkscape:collect="always"
       xlink:href="#linearGradient1331"
       id="linearGradient8870"
       x1="46"
       y1="40.5"
       x2="46"
       y2="53.5"
       gradientUnits="userSpaceOnUse" />
    <linearGradient
       inkscape:collect="always"
       id="linearGradient1090">
      <stop
         style="stop-color:#111111;stop-opacity:1;"
         offset="0"
         id="stop1086" />
      <stop
         style="stop-color:#4d4d4d;stop-opacity:1"
         offset="1"
         id="stop1088" />
    </linearGradient>
    <linearGradient
       inkscape:collect="always"
       xlink:href="#linearGradient1090"
       id="linearGradient9703"
       x1="47.987652"
       y1="41.211185"
       x2="47.999779"
       y2="52"
       gradientUnits="userSpaceOnUse" />
    <linearGradient
       inkscape:collect="always"
       xlink:href="#linearGradient1374"
       id="linearGradient11534"
       gradientUnits="userSpaceOnUse"
       gradientTransform="matrix(3.7795275,0,0,3.7795275,22.000067,22.000012)"
       x1="2.2490358"
       y1="1.0583555"
       x2="8.3342352"
       y2="4.2333555" />
    <linearGradient
       inkscape:collect="always"
       xlink:href="#linearGradient1871"
       id="linearGradient11536"
       gradientUnits="userSpaceOnUse"
       gradientTransform="matrix(3.7795275,0,0,3.7795275,12.288659,-17.842666)"
       x1="4.6278176"
       y1="11.864628"
       x2="4.6861434"
       y2="17.420876" />
    <linearGradient
       inkscape:collect="always"
       xlink:href="#linearGradient1331"
       id="linearGradient8870-1"
       x1="46"
       y1="40.5"
       x2="46"
       y2="53.5"
       gradientUnits="userSpaceOnUse"
       gradientTransform="translate(1.0000001,-1.9999814)" />
    <linearGradient
       inkscape:collect="always"
       xlink:href="#linearGradient1090"
       id="linearGradient9703-9"
       x1="47.987652"
       y1="41.211185"
       x2="47.999779"
       y2="52"
       gradientUnits="userSpaceOnUse"
       gradientTransform="translate(1.0000001,-1.9999814)" />
  </defs>
  <g
     id="16-16-input-keyboard"
     transform="translate(0,6)">
    <rect
       style="fill:none;fill-opacity:1;stroke-width:2;stroke-linecap:round;stroke-linejoin:round"
       id="rect1380"
       width="16"
       height="16"
       x="-16"
       y="0" />
    <path
       d="m -12.00586,2 c -1.257999,0.015 -2.179642,-0.030234 -2.931641,0.3847656 -0.389385,0.2221173 -0.686476,0.5761104 -0.83789,0.9980469 -0.165,0.4389996 -0.22461,0.9601882 -0.22461,1.6171875 v 5 c 0,0.657999 0.05961,1.179188 0.22461,1.617188 0.164,0.438999 0.460891,0.790047 0.83789,0.998046 0.751999,0.416 1.673642,0.369766 2.931641,0.384766 h 7.011718 c 1.257999,-0.014 2.178642,0.03023 2.931641,-0.384766 0.389385,-0.222116 0.686477,-0.57611 0.837891,-0.998046 0.163999,-0.438 0.224609,-0.960189 0.224609,-1.617188 V 5 c 0,-0.6579993 -0.05961,-1.1781879 -0.224609,-1.6171875 C -1.375773,2.9610365 -1.673492,2.6070658 -2.062501,2.3847656 -2.8155,1.968766 -3.736143,2.015 -4.994142,2 h -7.007812 z M -12,3 h 7 c 1.258999,0.015 2.087125,0.059719 2.453125,0.2617188 0.184,0.1009998 0.289719,0.2136565 0.386719,0.4726562 C -2.063156,3.9943747 -2,4.4080006 -2,5 v 5 c 0,0.591999 -0.06316,1.005625 -0.160156,1.265625 -0.098,0.26 -0.202719,0.371656 -0.386719,0.472656 C -2.912875,11.940281 -3.741001,11.985 -5,12 h -7 c -1.257999,-0.015 -2.087125,-0.05972 -2.453125,-0.261719 -0.183,-0.1 -0.289719,-0.212656 -0.386719,-0.472656 C -14.936844,11.005625 -15,10.591999 -15,10 V 5 c 0,-0.5919994 0.06316,-1.0056253 0.160156,-1.265625 0.098,-0.2599997 0.203719,-0.3716564 0.386719,-0.4726562 C -14.087125,3.059719 -13.257999,3.015 -12,3 Z m -1,2 v 1 h 1 V 5 Z m 2,0 v 1 h 1 V 5 Z m 2,0 v 1 h 1 V 5 Z m 2,0 v 1 h 1 V 5 Z m 2,0 v 1 h 1 V 5 Z m -7.001953,2 0.0039,1 H -11 V 7 Z M -10,7 v 1 h 1 V 7 Z m 2,0 v 1 h 1 V 7 Z m 2,0 v 1 h 1 V 7 Z m -7,2 v 1 h 1 V 9 Z m 2,0 v 1 h 5 V 9 Z m 6,0 0.01172,1 h 0.99414 L -4.00586,9 Z"
       style="fill:currentColor;stroke-width:2;stroke-linecap:round;stroke-linejoin:round"
       class="ColorScheme-Text"
       id="path1390"
       sodipodi:nodetypes="cccssccccccsscccccccccsscccccssscsccccccccccccccccccccccccccccccccccccccccccccccccccccccccccccc" />
  </g>
  <g
     id="22-22-input-keyboard">
    <rect
       style="fill:none;stroke-width:2;stroke-linecap:round;stroke-linejoin:round"
       id="rect548"
       width="22"
       height="22"
       x="0"
       y="0" />
    <path
       id="rect1118"
       style="fill:currentColor;stroke-width:2;stroke-linecap:round;stroke-linejoin:round"
       class="ColorScheme-Text"
       d="M 6.9941406,5 C 5.7361419,5.015 4.8144991,4.969766 4.0625,5.3847656 3.6731151,5.6068829 3.3760232,5.960876 3.2246094,6.3828125 3.0596095,6.8218121 3,7.3430007 3,8 v 5 c 0,0.657999 0.05961,1.179188 0.2246094,1.617188 0.1639998,0.438999 0.460891,0.790047 0.8378906,0.998046 C 4.8144991,16.031234 5.7361419,15.985 6.9941406,16 h 7.0117184 c 1.257999,-0.014 2.178642,0.03023 2.931641,-0.384766 0.389385,-0.222116 0.686477,-0.57611 0.837891,-0.998046 C 17.93939,14.179188 18,13.656999 18,13 V 8 C 18,7.3420007 17.94039,6.8218121 17.775391,6.3828125 17.624228,5.9610365 17.326509,5.6070658 16.9375,5.3847656 16.184501,4.968766 15.263858,5.015 14.005859,5 H 6.9980469 Z M 7,6 h 7 c 1.258999,0.015 2.087125,0.059719 2.453125,0.2617188 0.184,0.1009998 0.289719,0.2136565 0.386719,0.4726562 C 16.936844,6.9943747 17,7.4080006 17,8 v 5 c 0,0.591999 -0.06316,1.005625 -0.160156,1.265625 -0.098,0.26 -0.202719,0.371656 -0.386719,0.472656 C 16.087125,14.940281 15.258999,14.985 14,15 H 7 C 5.7420013,14.985 4.9128746,14.940281 4.546875,14.738281 4.3638752,14.638281 4.2571561,14.525625 4.1601562,14.265625 4.0631563,14.005625 4,13.591999 4,13 V 8 C 4,7.4080006 4.0631563,6.9943747 4.1601562,6.734375 4.2581562,6.4743753 4.3638752,6.3627186 4.546875,6.2617188 4.9128746,6.059719 5.7420013,6.015 7,6 Z M 6,8 V 9 H 7 V 8 Z M 8,8 V 9 H 9 V 8 Z m 2,0 v 1 h 1 V 8 Z m 2,0 v 1 h 1 V 8 Z m 2,0 v 1 h 1 V 8 Z m -7.0019531,2 0.00391,1 H 8 V 10 Z M 9,10 v 1 h 1 v -1 z m 2,0 v 1 h 1 v -1 z m 2,0 v 1 h 1 v -1 z m -7,2 v 1 h 1 v -1 z m 2,0 v 1 h 5 v -1 z m 6,0 0.01172,1 h 0.99414 l -0.01172,-1 z"
       sodipodi:nodetypes="cccssccccccsscccccccccsscccccssscsccccccccccccccccccccccccccccccccccccccccccccccccccccccccccccc" />
  </g>
  <g
     id="input-keyboard"
     transform="translate(0,-10)">
    <rect
       style="fill:none;fill-opacity:1;stroke-width:2.90909;stroke-linecap:round;stroke-linejoin:round"
       id="rect1552"
       width="32"
       height="32"
       x="22"
       y="0" />
    <path
       d="m 28.2583,4.000819 c -1.193185,0.00888 -2.160919,0.074683 -2.964843,0.2441423 -0.91928,0.1938142 -1.644206,0.539017 -2.160156,1.1113281 C 22.101411,6.500908 22.00049,8.2766582 22.00049,11.07504 v 9.85156 c 0,2.79769 0.10066,4.566313 1.132811,5.707031 0.51608,0.570361 1.241608,0.9161 2.160156,1.111327 0.918551,0.195251 2.050844,0.255859 3.490234,0.255859 h 9.216375 9.216399 c 1.439391,0 2.571684,-0.06057 3.490234,-0.255859 0.91855,-0.195212 1.644077,-0.540968 2.160156,-1.111328 1.032151,-1.140719 1.132813,-2.909342 1.132813,-5.707031 v -9.851561 c 0,-2.7983817 -0.100917,-4.5741394 -1.132813,-5.7187504 C 52.350908,4.7839764 51.625978,4.4387585 50.706699,4.2449594 49.787926,4.051259 48.655146,3.9935245 47.216465,4.000819 h -9.216399 -9.214422 -0.002 c -0.179834,-8.977e-4 -0.354936,-0.00127 -0.525391,0 z"
       style="color:#000000;display:inline;overflow:visible;visibility:visible;opacity:0.1;fill:#000000;fill-opacity:1;fill-rule:nonzero;stroke:none;stroke-width:0.999999;marker:none;enable-background:accumulate"
       id="path1438"
       sodipodi:nodetypes="cccssscscscssssccccccc" />
    <path
       d="m 53.499656,11.075235 c 0,-5.5617527 -0.584092,-6.6037004 -6.28227,-6.5744696 h -9.217252 -9.217387 c -5.69818,-0.02948 -6.28227,1.0127169 -6.28227,6.5744696 v 8.850369 c 0,5.560369 0.58403,6.574469 6.28227,6.574469 h 9.217387 9.217252 c 5.698239,0 6.28227,-1.0141 6.28227,-6.574469 z"
       style="color:#000000;display:inline;overflow:visible;visibility:visible;fill:url(#linearGradient1376);fill-opacity:1;fill-rule:nonzero;stroke:none;stroke-width:0.999999;marker:none;enable-background:accumulate"
       id="path908"
       sodipodi:nodetypes="scccssscsss" />
    <path
       id="path1133"
       style="color:#000000;opacity:0.05;fill:#000000;fill-rule:evenodd;stroke-width:2;stroke-linejoin:round"
       d="m 26.000067,8.0000001 a 1.0001,1.0001 0 0 0 -1,1.0000003 v 3.0000006 a 1.0001,1.0001 0 0 0 1,1 h 2.958984 a 1.0001,1.0001 0 0 0 -1,1.003906 l 0.01172,3 A 1.0001,1.0001 0 0 0 28.970773,18 h -2.005859 a 1.0001,1.0001 0 0 0 -1,1.000001 v 3 a 1.0001,1.0001 0 0 0 1,1 h 3 a 1.0001,1.0001 0 0 0 0.999999,-1 1.0001,1.0001 0 0 0 1.000001,1 h 12.999999 a 1.0001,1.0001 0 0 0 1,-1 v 0.01172 a 1.0001,1.0001 0 0 0 1,0.988285 h 2.982422 a 1.0001,1.0001 0 0 0 1,-1.011719 l -0.03515,-3 a 1.0001,1.0001 0 0 0 -1.00001,-0.988281 H 46.96491 a 1.0001,1.0001 0 0 0 1,-1 v -3 a 1.0001,1.0001 0 0 0 -1,-1 h 2 a 1.0001,1.0001 0 0 0 1,-1 V 9.0000004 a 1.0001,1.0001 0 0 0 -1,-1.0000003 h -3 A 1.0001,1.0001 0 0 0 44.982488,8.9824222 1.0001,1.0001 0 0 0 44.000067,8.0000001 h -3 a 1.0001,1.0001 0 0 0 -1.000001,1.0000003 1.0001,1.0001 0 0 0 -1,-1.0000003 h -2.999999 a 1.0001,1.0001 0 0 0 -1,1.0000003 1.0001,1.0001 0 0 0 -1,-1.0000003 h -3 a 1.0001,1.0001 0 0 0 -1,1.0000003 1.0001,1.0001 0 0 0 -1,-1.0000003 z m 4,4.0000009 a 1.0001,1.0001 0 0 0 1,1 h -2 a 1.0001,1.0001 0 0 0 1,-1 z m 5,0 a 1.0001,1.0001 0 0 0 1,1 h -2 a 1.0001,1.0001 0 0 0 1,-1 z m 4.999999,0 a 1.0001,1.0001 0 0 0 1.000001,1 h -2.000001 a 1.0001,1.0001 0 0 0 1,-1 z m 4.982422,0.01757 a 1.0001,1.0001 0 0 0 0.982422,0.98242 h -1.964843 a 1.0001,1.0001 0 0 0 0.982421,-0.98242 z m -13.017577,0.982425 h 2 a 1.0001,1.0001 0 0 0 -1,1 1.0001,1.0001 0 0 0 -1,-1 z m 5,0 h 1.999999 a 1.0001,1.0001 0 0 0 -0.999999,1 1.0001,1.0001 0 0 0 -1,-1 z m 4.999999,0 h 2 a 1.0001,1.0001 0 0 0 -1,1 1.0001,1.0001 0 0 0 -1,-1 z m -8.999999,4 a 1.0001,1.0001 0 0 0 1,0.999999 h -2 a 1.0001,1.0001 0 0 0 -1.000001,1.000001 1.0001,1.0001 0 0 0 -0.999999,-1.000001 h 2 a 1.0001,1.0001 0 0 0 1,-0.999999 z m 5,0 a 1.0001,1.0001 0 0 0 0.999999,0.999999 h -1.999999 a 1.0001,1.0001 0 0 0 1,-0.999999 z m 4.999999,0 a 1.0001,1.0001 0 0 0 1,0.999999 h -2 a 1.0001,1.0001 0 0 0 1,-0.999999 z m 2,0.999999 h 1.964844 a 1.0001,1.0001 0 0 0 -0.986329,0.978517 1.0001,1.0001 0 0 0 -0.978515,-0.978517 z" />
    <path
       d="m 26.000067,9.9999999 v 3.0000011 h 3 V 9.9999999 Z m 5,0 v 3.0000011 h 3 V 9.9999999 Z m 5,0 v 3.0000011 h 2.999999 V 9.9999999 Z m 5,0 v 3.0000011 h 3 V 9.9999999 Z m 4.964899,0 v 3.0000011 h 3 V 9.9999999 Z M 28.958967,15.000001 28.970947,18 h 2.993919 v -2.999999 z m 5.0059,0 V 18 h 3 v -2.999999 z m 5,0 V 18 h 3 v -2.999999 z m 4.999999,0 V 18 h 3 v -2.999999 z m -16.999999,5 v 3 h 3 v -3 z m 5,0 v 3 h 13 v -3 z m 14.964999,0 0.03511,3 h 2.9824 l -0.03511,-3 z"
       style="color:#000000;font-variant-ligatures:normal;font-variant-position:normal;font-variant-caps:normal;font-variant-numeric:normal;font-variant-alternates:normal;font-feature-settings:normal;text-indent:0;text-decoration-line:none;text-decoration-style:solid;text-decoration-color:#000000;text-transform:none;text-orientation:mixed;dominant-baseline:auto;white-space:normal;shape-padding:0;opacity:0.25;isolation:auto;mix-blend-mode:normal;solid-color:#000000;fill:#000000;fill-rule:evenodd;stroke-width:0.999999;color-rendering:auto;image-rendering:auto;shape-rendering:auto"
       id="path879" />
    <path
       id="path1017"
       style="color:#000000;font-variant-ligatures:normal;font-variant-position:normal;font-variant-caps:normal;font-variant-numeric:normal;font-variant-alternates:normal;font-feature-settings:normal;text-indent:0;text-decoration-line:none;text-decoration-style:solid;text-decoration-color:#000000;text-transform:none;text-orientation:mixed;dominant-baseline:auto;white-space:normal;shape-padding:0;isolation:auto;mix-blend-mode:normal;solid-color:#000000;fill:#f7f7f7;fill-rule:evenodd;stroke-width:0.999999;color-rendering:auto;image-rendering:auto;shape-rendering:auto"
       d="m 26.000067,9.0000001 v 3.0000009 h 3 V 9.0000001 Z m 5,0 v 3.0000009 h 3 V 9.0000001 Z m 5,0 v 3.0000009 h 3 V 9.0000001 Z m 5,0 v 3.0000009 h 3 V 9.0000001 Z m 4.964844,0 v 3.0000009 h 3 V 9.0000001 Z m -17.00586,5.0000009 0.01172,3 h 2.994141 v -3 z m 5.00586,0 v 3 h 3 v -3 z m 5,0 v 3 h 3 v -3 z m 5,0 v 3 h 3 v -3 z m -17,5 v 3 h 3 v -3 z m 5,0 v 3 h 13 v -3 z m 14.964844,0 0.03516,3 h 2.982422 l -0.03516,-3 z" />
    <path
       d="m 28.779367,4.9999998 c -1.409265,-0.0082 -2.48645,0.055521 -3.2793,0.222652 -0.79285,0.1671307 -1.28265,0.4229782 -1.625,0.80273 -0.6847,0.7594999 -0.875,2.2854576 -0.875,5.0488292 v 8.851686 c 0,2.76268 0.190579,4.280689 0.875,5.037108 0.342209,0.37821 0.83141,0.634073 1.625,0.802731 0.79359,0.16868 1.87347,0.234368 3.2832,0.234368 h 9.217007 9.21646 c 1.40973,0 2.48961,-0.06569 3.2832,-0.234368 0.793591,-0.168643 1.28279,-0.424521 1.625,-0.802731 0.68442,-0.756419 0.874999,-2.274428 0.874999,-5.037108 v -8.851686 c 0,-2.7633716 -0.1903,-4.2893407 -0.874999,-5.0488292 -0.342349,-0.3797291 -0.83215,-0.6355804 -1.625,-0.8027187 -0.79285,-0.1671685 -1.87003,-0.2296441 -3.2793,-0.222652 h -0.002 -9.21836 -9.218957 z m 7.357627,1.042972 c 2.72221,-0.003 6.44351,-0.002 9.16567,0.015496 1.70821,0.075591 3.46996,-0.1250645 5.16016,0.2480504 0.892519,0.1163339 1.308301,1.0352126 1.345699,1.83984 0.130621,4.9924318 0.03553,7.0044988 0.06452,12.0079468 -0.06501,1.35024 0.255118,2.82596 -0.50586,4.035152 -0.636381,0.685308 -1.704241,0.581919 -2.558601,0.705079 -5.32545,0.13319 -12.658607,0.07249 -17.992047,0.0644 -1.87955,-0.0864 -3.84814,0.167395 -5.67774,-0.40625 -0.91711,-0.35573 -0.90353,-1.533151 -0.98633,-2.355459 -0.13787,-4.665108 -0.02838,-6.360727 -0.0254,-11.033338 0.0729,-1.2515381 -0.105612,-2.5447603 0.214851,-3.7675773 0.18398,-0.9107905 1.18819,-1.1603829 1.978509,-1.2382828 2.937901,-0.1598362 6.871888,-0.07971 9.816618,-0.1152378 z"
       style="color:#000000;display:inline;overflow:visible;visibility:visible;opacity:0.7;fill:url(#linearGradient867);fill-opacity:1;fill-rule:nonzero;stroke:none;stroke-width:0.999999;marker:none;enable-background:accumulate"
       id="path1034"
       sodipodi:nodetypes="sscssscscscsssccccccsccccccccccccccc" />
    <path
       d="M 29.988348,4 C 27.477855,4.029001 25.614062,3.949985 24.125067,4.7714843 23.36413,5.1913229 22.779686,5.8803372 22.447333,6.765625 22.118891,7.6405856 22.000067,8.6861522 22.000067,9.9999999 V 21 c 0,1.313848 0.118833,2.359382 0.447266,3.234375 0.332333,0.885328 0.916781,1.574301 1.677734,1.994141 C 25.613992,27.050039 27.47786,26.97098 29.988348,27 h 0.002 0.0078 16.003905 0.0078 0.002 c 2.510494,-0.029 4.374287,0.05001 5.863282,-0.771484 0.760936,-0.419839 1.345381,-1.108853 1.677734,-1.994141 C 53.880816,23.359594 54.000107,22.313894 54.000107,21 V 9.9999999 c 0,-1.3138477 -0.118832,-2.3593826 -0.447266,-3.2343749 C 53.220467,5.8802397 52.636003,5.191315 51.875067,4.7714843 50.386143,3.9499609 48.522274,4.0290203 46.011786,4 h -0.002 -0.0078 -16.003906 -0.0059 z m 0.0059,0.9999998 h 0.0059 16.001953 c 2.526454,0.029178 4.252944,0.019843 5.388672,0.6464844 0.551662,0.3043691 0.965383,0.7800899 1.224608,1.4707034 0.263131,0.7010056 0.384769,1.6314625 0.384769,2.8828123 V 21 c 0,1.251303 -0.121901,2.181695 -0.384766,2.882812 -0.259245,0.690551 -0.673007,1.166363 -1.224609,1.470704 C 50.254917,25.980185 48.528553,25.970833 46.002103,26 h -16.002036 -0.0059 C 27.470215,25.97088 25.74444,25.97978 24.609401,25.353516 24.057755,25.049156 23.644017,24.573383 23.384792,23.882812 23.121665,23.181807 23.000026,22.25135 23.000026,21 V 9.9999999 c 0,-1.2513498 0.121648,-2.1818748 0.384766,-2.8828123 C 23.644037,6.4266369 24.057799,5.950825 24.609401,5.6464842 25.74457,5.0201957 27.47022,5.0291033 29.994165,4.9999998 Z"
       style="color:#000000;opacity:0.3;fill:#000000;stroke-width:0.999999"
       id="path1149" />
  </g>
  <g
     id="22-22-input-mouse-battery"
     transform="translate(0,42)">
    <rect
       style="fill:none;stroke-width:2;stroke-linecap:round;stroke-linejoin:round"
       id="rect4780"
       width="22"
       height="22"
       x="0"
       y="22" />
    <path
       id="path7441"
       style="fill:currentColor;stroke-width:2;stroke-linecap:round;stroke-linejoin:round"
       class="ColorScheme-Text"
       d="M 13.439453 26 C 12.144455 26 10.849762 26.227875 9.6347656 26.671875 L 9.4628906 26.734375 L 8.3730469 32.181641 C 8.1870481 33.108639 8.003 34.06483 8 35.048828 C 7.997 36.033826 8.1792817 37.033502 8.6132812 37.9375 C 9.0494818 38.849375 9.730278 39.62254 10.580078 40.169922 C 12.326028 41.275789 14.552879 41.275789 16.298828 40.169922 C 17.148065 39.622458 17.828237 38.849265 18.263672 37.9375 C 18.69767 37.033502 18.879953 36.034826 18.876953 35.048828 C 18.873953 34.06583 18.691859 33.108639 18.505859 32.181641 L 17.414062 26.734375 L 17.242188 26.671875 C 16.023736 26.227893 14.736273 26.00059 13.439453 26 z M 13 27.021484 L 13 30 L 14 30 L 14 27.027344 C 14.869998 27.089344 15.727596 27.279783 16.558594 27.550781 L 17.525391 32.378906 C 17.710389 33.300904 17.874953 34.188783 17.876953 35.050781 C 17.879953 35.910779 17.720281 36.761908 17.363281 37.503906 C 17.007189 38.24744 16.45189 38.87828 15.759766 39.326172 C 15.065517 39.765236 14.260888 39.998733 13.439453 40 C 12.617052 39.9989 11.812456 39.765428 11.117188 39.326172 C 10.425062 38.87828 9.8697645 38.24744 9.5136719 37.503906 C 9.1566722 36.761908 8.997 35.910779 9 35.050781 C 9.003 34.188783 9.1685158 33.300904 9.3535156 32.378906 L 10.320312 27.550781 C 11.190311 27.267783 12.090002 27.073484 13 27.021484 z M 5.5 29 L 3 34 L 4.5 34 L 4.5 38 L 7 33 L 5.5 33 L 5.5 29 z " />
  </g>
  <g
     id="16-16-input-mouse-battery"
     transform="translate(0,42)">
    <rect
       style="fill:none;stroke-width:1.45455;stroke-linecap:round;stroke-linejoin:round"
       id="rect7431"
       width="16"
       height="16"
       x="-16"
       y="28" />
    <path
       id="path7518"
       style="fill:currentColor;stroke-width:2;stroke-linecap:round;stroke-linejoin:round"
       class="ColorScheme-Text"
       d="M -5.5605469 29 C -6.8555446 29 -8.1502376 29.227875 -9.3652344 29.671875 L -9.5371094 29.734375 L -10.626953 35.181641 C -10.812952 36.108639 -10.997 37.06483 -11 38.048828 C -11.003 39.033826 -10.820718 40.033502 -10.386719 40.9375 C -9.9505182 41.849375 -9.269722 42.62254 -8.4199219 43.169922 C -6.6739716 44.275789 -4.4471211 44.275789 -2.7011719 43.169922 C -1.8519347 42.622458 -1.1717627 41.849265 -0.73632812 40.9375 C -0.30232956 40.033502 -0.12004688 39.034826 -0.12304688 38.048828 C -0.12604687 37.06583 -0.30814081 36.108639 -0.49414062 35.181641 L -1.5859375 29.734375 L -1.7578125 29.671875 C -2.9762643 29.227893 -4.2637272 29.00059 -5.5605469 29 z M -6 30.021484 L -6 33 L -5 33 L -5 30.027344 C -4.1300019 30.089344 -3.2724044 30.279783 -2.4414062 30.550781 L -1.4746094 35.378906 C -1.2896106 36.300904 -1.1250469 37.188783 -1.1230469 38.050781 C -1.1200469 38.910779 -1.2797191 39.761908 -1.6367188 40.503906 C -1.9928114 41.24744 -2.5481101 41.87828 -3.2402344 42.326172 C -3.9344827 42.765236 -4.7391117 42.998733 -5.5605469 43 C -6.3829481 42.9989 -7.1875442 42.765428 -7.8828125 42.326172 C -8.5749378 41.87828 -9.1302355 41.24744 -9.4863281 40.503906 C -9.8433278 39.761908 -10.003 38.910779 -10 38.050781 C -9.997 37.188783 -9.8314842 36.300904 -9.6464844 35.378906 L -8.6796875 30.550781 C -7.8096894 30.267783 -6.9099981 30.073484 -6 30.021484 z M -13.5 32 L -16 37 L -14.5 37 L -14.5 41 L -12 36 L -13.5 36 L -13.5 32 z " />
  </g>
  <g
     id="input-mouse-battery"
     transform="translate(0,32)">
    <rect
       style="fill:none;stroke-width:2;stroke-linecap:round;stroke-linejoin:round"
       id="rect8232"
       width="32"
       height="32"
       x="22"
       y="22" />
    <path
       style="color:#000000;opacity:0.1;fill:#000000;stroke:none;stroke-width:0.999999"
       d="m 37.895788,22.751638 c -2.499316,0 -4.889752,0.515637 -7.237361,1.430901 l -0.331835,0.12898 -2.104135,11.241659 c -0.358624,1.914495 -0.714446,3.886015 -0.720237,5.917039 -0.0057,2.03247 0.345143,4.096306 1.184017,5.961341 0.839427,1.86627 2.155299,3.48834 3.797243,4.607071 1.6415,1.118389 3.576426,1.713011 5.520515,1.713011 1.944091,0 3.879016,-0.594656 5.520516,-1.713011 1.641943,-1.11866 2.954061,-2.740731 3.793488,-4.60707 0.838918,-1.865035 1.189873,-3.928872 1.184081,-5.961341 -0.0057,-2.031024 -0.357801,-4.002545 -0.716482,-5.917039 L 45.677709,24.31152 45.345871,24.182539 c -2.347863,-0.91532 -4.950588,-1.430901 -7.449905,-1.430901 z"
       id="path2124"
       sodipodi:nodetypes="sccccscsscccccss" />
    <path
       id="path2574"
       style="color:#000000;fill:url(#radialGradient2801);fill-opacity:1;stroke:none;stroke-width:0.264583"
       d="m 37.895847,23.252267 c -2.430544,0 -4.756842,0.497898 -7.05664,1.394532 l -0.07422,0.02929 -2.052735,9.970533 c -0.358204,1.912263 -0.703353,3.850671 -0.708984,5.824218 -0.0056,1.973964 0.333056,3.971059 1.136719,5.757813 0.803699,1.786837 2.066185,3.3383 3.625,4.40039 1.558554,1.061877 3.400053,1.623045 5.242187,1.623045 1.84213,0 3.673863,-0.561198 5.232422,-1.623045 1.558509,-1.061811 2.821072,-2.612972 3.625,-4.400385 0.803721,-1.786759 1.142388,-3.783868 1.136719,-5.757813 -0.0056,-1.974155 -0.35084,-3.912586 -0.708985,-5.824218 l -2.050781,-9.970533 -0.07422,-0.0293 c -2.290552,-0.892977 -4.840932,-1.394532 -7.271484,-1.394532 z"
       sodipodi:nodetypes="sccccscsscccccs" />
    <path
       style="color:#000000;opacity:0.4;fill:#000000;stroke:none;stroke-width:3.77953"
       d="m 37.89574,22.248361 c -2.568085,0 -5.023385,0.535094 -7.4188,1.468996 l -0.590551,0.228839 -2.155511,10.51571 c -0.359041,1.916722 -0.724853,3.920362 -0.730808,6.008858 -0.0059,2.09097 0.358693,4.220566 1.232776,6.163878 0.875153,1.945699 2.246386,3.645006 3.971457,4.820374 1.724442,1.174901 3.756124,1.793803 5.802165,1.793803 2.046048,0 4.077729,-0.618943 5.802165,-1.793803 1.725376,-1.175501 3.08915,-2.875112 3.964077,-4.820374 0.874125,-1.943307 1.238732,-4.072889 1.232772,-6.163878 -0.0059,-2.087889 -0.371588,-4.091507 -0.730806,-6.008859 l -2.15551,-10.515709 -0.590551,-0.228839 c -2.405171,-0.93766 -5.064798,-1.468996 -7.632875,-1.468996 z m 0,1.003937 c 2.430551,0 4.980609,0.5022 7.271159,1.395177 l 0.07381,0.02952 2.052163,9.96946 c 0.358148,1.911632 0.70309,3.850156 0.708661,5.824311 0.0057,1.973945 -0.333089,3.971116 -1.13681,5.757874 -0.80392,1.787414 -2.06599,3.33779 -3.624499,4.399607 -1.55856,1.061846 -3.391631,1.624018 -5.23376,1.624018 -1.842134,0 -3.682588,-0.562142 -5.241142,-1.624018 -1.558814,-1.062091 -2.820809,-2.612769 -3.624508,-4.399607 -0.803664,-1.786754 -1.14239,-3.78391 -1.136811,-5.757874 0.0056,-1.973548 0.350457,-3.912048 0.708662,-5.824311 l 2.052165,-9.96945 0.07382,-0.02952 c 2.299798,-0.896633 4.626544,-1.395187 7.057088,-1.395187 z"
       id="path2126-7"
       sodipodi:nodetypes="sccccscsscccccsscccccsscsccccs" />
    <path
       id="path4075"
       style="color:#000000;opacity:0.5;fill:url(#radialGradient4410);fill-opacity:1;stroke:none;stroke-width:0.070004"
       d="m 37.895847,23.252267 c -0.303818,0 -0.605525,0.0081 -0.90625,0.02343 -0.300726,0.01538 -0.600506,0.03798 -0.898437,0.06836 -0.297933,0.03039 -0.595188,0.06831 -0.890625,0.11328 -0.295438,0.04497 -0.589568,0.09707 -0.882813,0.156249 -0.586489,0.11836 -1.168528,0.264673 -1.748047,0.4375 -0.289758,0.08642 -0.57872,0.179853 -0.867187,0.279296 -0.288469,0.09944 -0.575807,0.204329 -0.863281,0.316407 l -0.07422,0.02929 -2.052735,9.970401 c -0.1791,0.956131 -0.35464,1.91832 -0.486328,2.888671 -0.03292,0.242589 -0.06307,0.484953 -0.08984,0.728516 -7e-5,6.42e-4 7.1e-5,0.0013 0,0.002 -0.0012,0.01107 -0.0027,0.02215 -0.0039,0.03322 -0.02517,0.2319 -0.04798,0.46445 -0.06641,0.697265 -0.01935,0.244574 -0.03424,0.490714 -0.04492,0.736328 -0.01066,0.245617 -0.01686,0.491588 -0.01757,0.738282 -0.0014,0.493491 0.01897,0.987728 0.0625,1.480469 0.04353,0.49274 0.110903,0.98406 0.203123,1.46875 0.09222,0.484689 0.20883,0.962301 0.353514,1.43164 1.83e-4,5.95e-4 -1.84e-4,0.0014 0,0.002 0.07219,0.23407 0.152334,0.466425 0.238281,0.695313 0.08616,0.229462 0.178839,0.456343 0.279296,0.679687 0.301387,0.670065 0.668076,1.306152 1.089843,1.896485 3.09e-4,4.34e-4 -3.09e-4,0.0015 0,0.002 0.140315,0.196335 0.287077,0.386717 0.439454,0.572265 3.23e-4,3.95e-4 -3.24e-4,0.0016 0,0.002 0.152417,0.185544 0.31271,0.365287 0.476562,0.539063 0.164186,0.17413 0.332772,0.34258 0.507812,0.503906 0.350079,0.32265 0.721625,0.619243 1.111329,0.884765 0.389638,0.26547 0.796298,0.499146 1.216797,0.701173 0.210247,0.101027 0.424303,0.194495 0.640625,0.279307 0.207859,0.08149 0.418385,0.152466 0.630859,0.218759 0.0087,0.0027 0.01674,0.0072 0.0254,0.0098 5.89e-4,1.85e-4 0.0014,-1.81e-4 0.002,0 0.0065,0.002 0.01304,0.0038 0.01954,0.006 0.207825,0.06361 0.417662,0.119093 0.628906,0.167962 0.0066,0.0015 0.01293,0.0042 0.01954,0.006 6.15e-4,1.4e-4 0.0013,-1.4e-4 0.002,0 0.0058,0.0013 0.01176,0.0026 0.01758,0.0038 0.218812,0.04967 0.440678,0.09333 0.662109,0.126958 0.224693,0.03402 0.449434,0.05873 0.675781,0.07616 0.0033,2.53e-4 0.0065,0.0017 0.0098,0.002 6.43e-4,4.9e-5 0.0013,-4.9e-5 0.002,0 0.0013,9.4e-5 0.0026,-9.8e-5 0.0039,0 0.227732,0.01701 0.457229,0.02532 0.685547,0.02532 0.230264,0 0.459989,-0.0079 0.689453,-0.02532 0.229467,-0.01739 0.457921,-0.04346 0.685547,-0.07812 0.227626,-0.03477 0.454937,-0.07926 0.679688,-0.130855 0.22475,-0.05159 0.44713,-0.111382 0.667968,-0.179679 0.220838,-0.06833 0.438408,-0.143735 0.654297,-0.22851 0.204798,-0.08043 0.407986,-0.17057 0.607422,-0.265625 0.02211,-0.01058 0.04438,-0.02041 0.06641,-0.03137 0.197526,-0.09604 0.392719,-0.198387 0.583984,-0.308595 7.7e-4,-4.44e-4 0.0012,-0.0015 0.002,-0.002 0.202881,-0.116995 0.400883,-0.240317 0.595703,-0.373047 0.389627,-0.265455 0.761282,-0.562171 1.111328,-0.884765 0.17435,-0.160675 0.344224,-0.328562 0.507813,-0.501953 0.0028,-0.003 0.005,-0.0068 0.0078,-0.0098 0.161805,-0.171912 0.318115,-0.347834 0.468749,-0.53125 0.15238,-0.185537 0.299127,-0.377877 0.439453,-0.574219 3.02e-4,-4.21e-4 -3.01e-4,-0.0015 0,-0.002 0.140599,-0.196785 0.276435,-0.396869 0.404298,-0.603515 0.127861,-0.206645 0.248787,-0.419238 0.36328,-0.634766 0.114493,-0.215527 0.221775,-0.434777 0.322265,-0.658203 0.100464,-0.223344 0.193127,-0.450224 0.279296,-0.679688 0.08595,-0.228888 0.166084,-0.461242 0.23828,-0.695312 1.83e-4,-5.89e-4 -1.81e-4,-0.0014 0,-0.002 0.07234,-0.234671 0.138274,-0.470021 0.197265,-0.708985 0.05899,-0.238964 0.11014,-0.480311 0.15625,-0.722656 0.04611,-0.242347 0.08739,-0.485655 0.121092,-0.730469 0.03371,-0.244811 0.06027,-0.491912 0.08203,-0.738281 0.02177,-0.246368 0.03854,-0.493222 0.04883,-0.740234 0.01028,-0.247011 0.01436,-0.493492 0.01368,-0.740235 -7.14e-4,-0.247011 -0.0069,-0.49285 -0.01761,-0.738523 -0.01066,-0.24567 -0.02555,-0.491713 -0.0449,-0.736324 -0.01936,-0.244612 -0.04353,-0.488839 -0.07031,-0.732422 -0.02678,-0.243583 -0.05692,-0.485927 -0.08984,-0.728516 -0.06585,-0.485178 -0.14182,-0.967812 -0.22461,-1.449218 -0.08279,-0.481407 -0.172182,-0.961545 -0.261719,-1.439453 l -2.050781,-9.970401 -0.07422,-0.0293 c -0.286318,-0.111624 -0.577405,-0.217213 -0.871093,-0.316407 -0.293103,-0.09899 -0.589704,-0.191161 -0.888672,-0.277342 -6e-4,-1.73e-4 -0.0014,1.73e-4 -0.002,0 -0.299577,-0.08633 -0.600312,-0.167208 -0.904297,-0.240236 -0.303985,-0.07303 -0.611056,-0.137973 -0.917969,-0.197265 -0.306913,-0.05929 -0.613515,-0.113081 -0.921875,-0.158203 -0.30836,-0.04512 -0.617454,-0.08277 -0.925781,-0.113282 -0.308327,-0.03052 -0.617015,-0.05288 -0.923828,-0.06836 -0.306815,-0.01546 -0.612197,-0.02343 -0.916016,-0.02343 z"
       sodipodi:nodetypes="sscsssscccsscccccssscssscscssscsssscsccccssscsscscsccscssscsscsscsscsscsccssssscccsscsssscss" />
    <path
       id="path4778"
       style="color:#000000;opacity:0.4;fill:url(#linearGradient5422);fill-opacity:1;stroke:none;stroke-width:0.264583"
       d="m 37.895847,23.252267 c -2.430544,0 -4.756843,0.497898 -7.05664,1.394532 l -0.07422,0.02929 -2.052735,9.970533 c -0.358204,1.912262 -0.703353,3.850671 -0.708984,5.824218 -0.0056,1.973964 0.333056,3.971059 1.136719,5.757813 0.803699,1.786837 2.066185,3.3383 3.625,4.40039 1.558554,1.061877 3.400053,1.623045 5.242187,1.623045 1.84213,0 3.673863,-0.561198 5.232422,-1.623045 1.558509,-1.061811 2.821072,-2.612972 3.625,-4.400385 0.803721,-1.786759 1.142388,-3.783868 1.136719,-5.757813 -0.0056,-1.974155 -0.350836,-3.912587 -0.708985,-5.824218 l -2.050781,-9.970533 -0.07422,-0.0293 c -2.290549,-0.892973 -4.84093,-1.394527 -7.271482,-1.394527 z m 0.0098,1.001953 c 2.187695,0 4.48324,0.467336 6.544922,1.300782 l 0.06836,0.02733 1.845703,9.238111 c 0.322378,1.784207 0.631692,3.594972 0.636733,5.437517 0.0051,1.842348 -0.300023,3.705405 -1.023438,5.373046 -0.7236,1.668253 -1.858934,3.116402 -3.261718,4.107422 -1.402831,0.991059 -3.050917,1.515626 -4.708985,1.515626 -1.658071,0 -3.315924,-0.524539 -4.71875,-1.515626 -1.403061,-0.991284 -2.540277,-2.439707 -3.263672,-4.107422 -0.723363,-1.667637 -1.028464,-3.53068 -1.023437,-5.373046 0.0051,-1.841978 0.316259,-3.652709 0.638672,-5.4375 l 1.847656,-9.238111 0.06641,-0.02733 c 2.070007,-0.836876 4.163874,-1.300798 6.351563,-1.300799 z"
       sodipodi:nodetypes="sccccscsscccccsccccccsscscccccc" />
    <path
       style="color:#000000;fill:#b3b3b3;stroke-width:0.999999"
       d="m 37.5,23.110074 v 11.138287 h 1 V 23.110074 Z"
       id="path38"
       sodipodi:nodetypes="ccccc" />
    <circle
       style="fill:url(#linearGradient8870);fill-opacity:1;stroke-width:1.85714;stroke-linecap:round;stroke-linejoin:round"
       id="path8549"
       cx="46"
       cy="47"
       r="6.5" />
    <path
       d="M 45.50022,52 47.99978,47.00025 46.50022,46.999749 46.49978,43 44.00022,48 h 1.5 z"
       style="display:inline;fill:url(#linearGradient9703);fill-opacity:1;stroke:none;stroke-width:0.999802;enable-background:new"
       id="path8559" />
    <path
       id="path8579"
       style="opacity:0.4;fill:#000000;stroke-width:2;stroke-linecap:round;stroke-linejoin:round"
       d="m 46,40 a 7,7 0 0 0 -7,7 7,7 0 0 0 7,7 7,7 0 0 0 7,-7 7,7 0 0 0 -7,-7 z m 0,1 a 6,6 0 0 1 6,6 6,6 0 0 1 -6,6 6,6 0 0 1 -6,-6 6,6 0 0 1 6,-6 z" />
  </g>
  <g
     id="input-keyboard-battery">
    <rect
       style="opacity:1;fill:none;stroke-width:2;stroke-linecap:round;stroke-linejoin:round"
       id="rect10476"
       width="32"
       height="32"
       x="22"
       y="22" />
    <path
       d="m 28.2583,26.000831 c -1.193185,0.0089 -2.160919,0.07468 -2.964843,0.244142 -0.91928,0.193814 -1.644206,0.539017 -2.160156,1.111328 -1.03189,1.144619 -1.132811,2.920369 -1.132811,5.718751 v 9.85156 c 0,2.79769 0.10066,4.566313 1.132811,5.707031 0.51608,0.570361 1.241608,0.9161 2.160156,1.111327 0.918551,0.195251 2.050844,0.255859 3.490234,0.255859 h 9.216375 9.216399 c 1.439391,0 2.571684,-0.06057 3.490234,-0.255859 0.91855,-0.195212 1.644077,-0.540968 2.160156,-1.111328 1.032151,-1.140719 1.132813,-2.909342 1.132813,-5.707031 V 33.07505 c 0,-2.798382 -0.100917,-4.574139 -1.132813,-5.71875 -0.515947,-0.572312 -1.240877,-0.91753 -2.160156,-1.111329 -0.918773,-0.1937 -2.051553,-0.251435 -3.490234,-0.24414 h -9.216399 -9.214422 -0.002 c -0.179834,-8.98e-4 -0.354936,-0.0013 -0.525391,0 z"
       style="color:#000000;display:inline;overflow:visible;visibility:visible;opacity:0.1;fill:#000000;fill-opacity:1;fill-rule:nonzero;stroke:none;stroke-width:0.999999;marker:none;enable-background:accumulate"
       id="path1438-9"
       sodipodi:nodetypes="cccssscscscssssccccccc" />
    <path
       d="m 53.499656,33.075247 c 0,-5.561753 -0.584092,-6.6037 -6.28227,-6.57447 h -9.217252 -9.217387 c -5.69818,-0.02948 -6.28227,1.012717 -6.28227,6.57447 v 8.850369 c 0,5.560369 0.58403,6.574469 6.28227,6.574469 h 9.217387 9.217252 c 5.698239,0 6.28227,-1.0141 6.28227,-6.574469 z"
       style="color:#000000;display:inline;overflow:visible;visibility:visible;fill:url(#linearGradient11534);fill-opacity:1;fill-rule:nonzero;stroke:none;stroke-width:0.999999;marker:none;enable-background:accumulate"
       id="path908-3"
       sodipodi:nodetypes="scccssscsss" />
    <path
       id="path1133-6"
       style="color:#000000;opacity:0.05;fill:#000000;fill-rule:evenodd;stroke-width:2;stroke-linejoin:round"
       d="m 26.000067,30.000012 a 1.0001,1.0001 0 0 0 -1,1 v 3.000001 a 1.0001,1.0001 0 0 0 1,1 h 2.958984 a 1.0001,1.0001 0 0 0 -1,1.003906 l 0.01172,3 a 1.0001,1.0001 0 0 0 1.000002,0.996093 h -2.005859 a 1.0001,1.0001 0 0 0 -1,1.000001 v 3 a 1.0001,1.0001 0 0 0 1,1 h 3 a 1.0001,1.0001 0 0 0 0.999999,-1 1.0001,1.0001 0 0 0 1.000001,1 h 12.999999 a 1.0001,1.0001 0 0 0 1,-1 v 0.01172 a 1.0001,1.0001 0 0 0 1,0.988285 h 2.982422 a 1.0001,1.0001 0 0 0 1,-1.011719 l -0.03515,-3 a 1.0001,1.0001 0 0 0 -1.00001,-0.988281 H 46.96491 a 1.0001,1.0001 0 0 0 1,-1 v -3 a 1.0001,1.0001 0 0 0 -1,-1 h 2 a 1.0001,1.0001 0 0 0 1,-1 v -3.000006 a 1.0001,1.0001 0 0 0 -1,-1 h -3 a 1.0001,1.0001 0 0 0 -0.982422,0.982422 1.0001,1.0001 0 0 0 -0.982421,-0.982422 h -3 a 1.0001,1.0001 0 0 0 -1.000001,1 1.0001,1.0001 0 0 0 -1,-1 h -2.999999 a 1.0001,1.0001 0 0 0 -1,1 1.0001,1.0001 0 0 0 -1,-1 h -3 a 1.0001,1.0001 0 0 0 -1,1 1.0001,1.0001 0 0 0 -1,-1 z m 4,4.000001 a 1.0001,1.0001 0 0 0 1,1 h -2 a 1.0001,1.0001 0 0 0 1,-1 z m 5,0 a 1.0001,1.0001 0 0 0 1,1 h -2 a 1.0001,1.0001 0 0 0 1,-1 z m 4.999999,0 a 1.0001,1.0001 0 0 0 1.000001,1 h -2.000001 a 1.0001,1.0001 0 0 0 1,-1 z m 4.982422,0.01757 a 1.0001,1.0001 0 0 0 0.982422,0.98242 h -1.964843 a 1.0001,1.0001 0 0 0 0.982421,-0.98242 z m -13.017577,0.982425 h 2 a 1.0001,1.0001 0 0 0 -1,1 1.0001,1.0001 0 0 0 -1,-1 z m 5,0 h 1.999999 a 1.0001,1.0001 0 0 0 -0.999999,1 1.0001,1.0001 0 0 0 -1,-1 z m 4.999999,0 h 2 a 1.0001,1.0001 0 0 0 -1,1 1.0001,1.0001 0 0 0 -1,-1 z m -8.999999,4 a 1.0001,1.0001 0 0 0 1,0.999999 h -2 a 1.0001,1.0001 0 0 0 -1.000001,1.000001 1.0001,1.0001 0 0 0 -0.999999,-1.000001 h 2 a 1.0001,1.0001 0 0 0 1,-0.999999 z m 5,0 a 1.0001,1.0001 0 0 0 0.999999,0.999999 h -1.999999 a 1.0001,1.0001 0 0 0 1,-0.999999 z m 4.999999,0 a 1.0001,1.0001 0 0 0 1,0.999999 h -2 a 1.0001,1.0001 0 0 0 1,-0.999999 z m 2,0.999999 h 1.964844 a 1.0001,1.0001 0 0 0 -0.986329,0.978517 1.0001,1.0001 0 0 0 -0.978515,-0.978517 z" />
    <path
       d="m 26.000067,32.000012 v 3.000001 h 3 v -3.000001 z m 5,0 v 3.000001 h 3 v -3.000001 z m 5,0 v 3.000001 h 2.999999 v -3.000001 z m 5,0 v 3.000001 h 3 v -3.000001 z m 4.964899,0 v 3.000001 h 3 v -3.000001 z m -17.005999,5.000001 0.01198,2.999999 h 2.993919 v -2.999999 z m 5.0059,0 v 2.999999 h 3 v -2.999999 z m 5,0 v 2.999999 h 3 v -2.999999 z m 4.999999,0 v 2.999999 h 3 v -2.999999 z m -16.999999,5 v 3 h 3 v -3 z m 5,0 v 3 h 13 v -3 z m 14.964999,0 0.03511,3 h 2.9824 l -0.03511,-3 z"
       style="color:#000000;font-variant-ligatures:normal;font-variant-position:normal;font-variant-caps:normal;font-variant-numeric:normal;font-variant-alternates:normal;font-feature-settings:normal;text-indent:0;text-decoration-line:none;text-decoration-style:solid;text-decoration-color:#000000;text-transform:none;text-orientation:mixed;dominant-baseline:auto;white-space:normal;shape-padding:0;opacity:0.25;isolation:auto;mix-blend-mode:normal;solid-color:#000000;fill:#000000;fill-rule:evenodd;stroke-width:0.999999;color-rendering:auto;image-rendering:auto;shape-rendering:auto"
       id="path879-0" />
    <path
       id="path1017-6"
       style="color:#000000;font-variant-ligatures:normal;font-variant-position:normal;font-variant-caps:normal;font-variant-numeric:normal;font-variant-alternates:normal;font-feature-settings:normal;text-indent:0;text-decoration-line:none;text-decoration-style:solid;text-decoration-color:#000000;text-transform:none;text-orientation:mixed;dominant-baseline:auto;white-space:normal;shape-padding:0;isolation:auto;mix-blend-mode:normal;solid-color:#000000;fill:#f7f7f7;fill-rule:evenodd;stroke-width:0.999999;color-rendering:auto;image-rendering:auto;shape-rendering:auto"
       d="m 26.000067,31.000012 v 3.000001 h 3 v -3.000001 z m 5,0 v 3.000001 h 3 v -3.000001 z m 5,0 v 3.000001 h 3 v -3.000001 z m 5,0 v 3.000001 h 3 v -3.000001 z m 4.964844,0 v 3.000001 h 3 v -3.000001 z m -17.00586,5.000001 0.01172,3 h 2.994141 v -3 z m 5.00586,0 v 3 h 3 v -3 z m 5,0 v 3 h 3 v -3 z m 5,0 v 3 h 3 v -3 z m -17,5 v 3 h 3 v -3 z m 5,0 v 3 h 13 v -3 z m 14.964844,0 0.03516,3 h 2.982422 l -0.03516,-3 z" />
    <path
       d="m 28.779367,27.000012 c -1.409265,-0.0082 -2.48645,0.05552 -3.2793,0.222652 -0.79285,0.16713 -1.28265,0.422978 -1.625,0.80273 -0.6847,0.7595 -0.875,2.285457 -0.875,5.048829 v 8.851686 c 0,2.76268 0.190579,4.280689 0.875,5.037108 0.342209,0.37821 0.83141,0.634073 1.625,0.802731 0.79359,0.16868 1.87347,0.234368 3.2832,0.234368 h 9.217007 9.21646 c 1.40973,0 2.48961,-0.06569 3.2832,-0.234368 0.793591,-0.168643 1.28279,-0.424521 1.625,-0.802731 0.68442,-0.756419 0.874999,-2.274428 0.874999,-5.037108 v -8.851686 c 0,-2.763372 -0.1903,-4.289341 -0.874999,-5.048829 -0.342349,-0.379729 -0.83215,-0.635581 -1.625,-0.802719 -0.79285,-0.167168 -1.87003,-0.229644 -3.2793,-0.222652 h -0.002 -9.21836 -9.218957 z m 7.357627,1.042972 c 2.72221,-0.003 6.44351,-0.002 9.16567,0.0155 1.70821,0.07559 3.46996,-0.125065 5.16016,0.24805 0.892519,0.116334 1.308301,1.035213 1.345699,1.83984 0.130621,4.992432 0.03553,7.004499 0.06452,12.007947 -0.06501,1.35024 0.255118,2.82596 -0.50586,4.035152 -0.636381,0.685308 -1.704241,0.581919 -2.558601,0.705079 -5.32545,0.13319 -12.658607,0.07249 -17.992047,0.0644 -1.87955,-0.0864 -3.84814,0.167395 -5.67774,-0.40625 -0.91711,-0.35573 -0.90353,-1.533151 -0.98633,-2.355459 -0.13787,-4.665108 -0.02838,-6.360727 -0.0254,-11.033338 0.0729,-1.251538 -0.105612,-2.54476 0.214851,-3.767577 0.18398,-0.910791 1.18819,-1.160383 1.978509,-1.238283 2.937901,-0.159836 6.871888,-0.07971 9.816618,-0.115238 z"
       style="color:#000000;display:inline;overflow:visible;visibility:visible;opacity:0.7;fill:url(#linearGradient11536);fill-opacity:1;fill-rule:nonzero;stroke:none;stroke-width:0.999999;marker:none;enable-background:accumulate"
       id="path1034-2"
       sodipodi:nodetypes="sscssscscscsssccccccsccccccccccccccc" />
    <path
       d="m 29.988348,26.000012 c -2.510493,0.029 -4.374286,-0.05002 -5.863281,0.771484 -0.760937,0.419839 -1.345381,1.108853 -1.677734,1.994141 -0.328442,0.874961 -0.447266,1.920527 -0.447266,3.234375 v 11 c 0,1.313848 0.118833,2.359382 0.447266,3.234375 0.332333,0.885328 0.916781,1.574301 1.677734,1.994141 1.488925,0.821523 3.352793,0.742464 5.863281,0.771484 h 0.002 0.0078 16.003905 0.0078 0.002 c 2.510494,-0.029 4.374287,0.05001 5.863282,-0.771484 0.760936,-0.419839 1.345381,-1.108853 1.677734,-1.994141 0.327947,-0.874781 0.447238,-1.920481 0.447238,-3.234375 v -11 c 0,-1.313848 -0.118832,-2.359383 -0.447266,-3.234375 -0.332374,-0.885385 -0.916838,-1.57431 -1.677774,-1.994141 -1.488924,-0.821523 -3.352793,-0.742464 -5.863281,-0.771484 h -0.002 -0.0078 -16.003906 -0.0059 z m 0.0059,1 h 0.0059 16.001953 c 2.526454,0.02918 4.252944,0.01984 5.388672,0.646484 0.551662,0.304369 0.965383,0.78009 1.224608,1.470704 0.263131,0.701005 0.384769,1.631462 0.384769,2.882812 v 11 c 0,1.251303 -0.121901,2.181695 -0.384766,2.882812 -0.259245,0.690551 -0.673007,1.166363 -1.224609,1.470704 -1.135858,0.626669 -2.862222,0.617317 -5.388672,0.646484 h -16.002036 -0.0059 c -2.523952,-0.02912 -4.249727,-0.02022 -5.384766,-0.646484 -0.551646,-0.30436 -0.965384,-0.780133 -1.224609,-1.470704 -0.263127,-0.701005 -0.384766,-1.631462 -0.384766,-2.882812 v -11 c 0,-1.25135 0.121648,-2.181875 0.384766,-2.882812 0.259245,-0.690551 0.673007,-1.166363 1.224609,-1.470704 1.135169,-0.626288 2.860819,-0.617381 5.384764,-0.646484 z"
       style="color:#000000;opacity:0.3;fill:#000000;stroke-width:0.999999"
       id="path1149-6" />
    <circle
       style="fill:url(#linearGradient8870-1);fill-opacity:1;stroke-width:1.85714;stroke-linecap:round;stroke-linejoin:round"
       id="path8549-2"
       cx="47"
       cy="45.000019"
       r="6.5" />
    <path
       d="m 46.50022,50.000018 2.49956,-4.99975 -1.49956,-5.01e-4 -4.4e-4,-3.999749 -2.49956,5 h 1.5 z"
       style="display:inline;fill:url(#linearGradient9703-9);fill-opacity:1;stroke:none;stroke-width:0.999802;enable-background:new"
       id="path8559-3" />
    <path
       id="path8579-7"
       style="opacity:0.4;fill:#000000;stroke-width:2;stroke-linecap:round;stroke-linejoin:round"
       d="m 47,38.000018 a 7,7 0 0 0 -7,7 7,7 0 0 0 7,7 7,7 0 0 0 7,-7 7,7 0 0 0 -7,-7 z m 0,1 a 6,6 0 0 1 6,6 6,6 0 0 1 -6,6 6,6 0 0 1 -6,-6 6,6 0 0 1 6,-6 z" />
  </g>
  <g
     id="16-16-input-keyboard-battery">
    <rect
       style="opacity:1;fill:none;stroke-width:2;stroke-linecap:round;stroke-linejoin:round"
       id="rect10480"
       width="16"
       height="16"
       x="-16"
       y="38" />
    <path
       id="path10490"
       style="fill:currentColor;stroke-width:2;stroke-linecap:round;stroke-linejoin:round"
       class="ColorScheme-Text"
       d="m -12.005859,40 c -1.257997,0.015 -2.179643,-0.03023 -2.931641,0.384766 -0.389385,0.222115 -0.686477,0.576112 -0.837891,0.998046 C -15.940389,41.821812 -16,42.343003 -16,43 v 5 c 0,0.657997 0.05961,1.179188 0.224609,1.617188 0.163999,0.438997 0.460893,0.790049 0.837891,0.998046 0.751998,0.416 1.673644,0.369766 2.931641,0.384766 H -5 v -1 h -7 c -1.257997,-0.015 -2.087125,-0.05972 -2.453125,-0.261719 -0.183,-0.1 -0.289719,-0.212656 -0.386719,-0.472656 C -14.936844,49.005625 -15,48.591997 -15,48 v -5 c 0,-0.591997 0.06316,-1.005625 0.160156,-1.265625 0.098,-0.26 0.203719,-0.371656 0.386719,-0.472656 C -14.087125,41.059719 -13.257997,41.015 -12,41 h 7 c 1.2589964,0.015 2.0871258,0.05972 2.453125,0.261719 0.1839996,0.101 0.2897188,0.213656 0.3867188,0.472656 C -2.0631564,41.994375 -2,42.408003 -2,43 v 1 l 0.9472656,-1.90625 c -0.035627,-0.260782 -0.091019,-0.495812 -0.171875,-0.710938 C -1.3757719,40.961038 -1.6734918,40.607064 -2.0625,40.384766 -2.8154974,39.968766 -3.7361442,40.015 -4.9941406,40 H -12.001953 Z M -13,43 v 1 h 1 v -1 z m 2,0 v 1 h 1 v -1 z m 2,0 v 1 h 1 v -1 z m 2,0 v 1 h 1 v -1 z m 2,0 v 1 h 1 v -1 z m -7.001953,2 0.0039,1 H -11 V 45 Z M -10,45 v 1 h 1 v -1 z m 2,0 v 1 h 1 v -1 z m 2,0 v 1 h 1 v -1 z m 4.5,0 -2.5,5 h 1.5 v 4 L 0,49 H -1.5 Z M -13,47 v 1 h 1 v -1 z m 2,0 v 1 h 5 v -1 z m 6,0 0.011719,1 h 0.5605468 L -4.0019531,47.255859 -4.0058594,47 Z"
       sodipodi:nodetypes="cccsscccccccssscsccccsccccccccccccccccccccccccccccccccccccccccccccccccccccccccccccccccccccccccccc" />
  </g>
  <g
     id="22-22-input-keyboard-battery">
    <rect
       style="opacity:1;fill:none;stroke-width:2;stroke-linecap:round;stroke-linejoin:round"
       id="rect10478"
       width="22"
       height="22"
       x="0"
       y="32" />
    <path
       d="M 6.99414,37 C 5.736143,37.015 4.814497,36.96977 4.062499,37.384766 3.673114,37.606881 3.376022,37.960878 3.224608,38.382812 3.05961,38.821812 2.999999,39.343003 2.999999,40 v 5 c 0,0.657997 0.05961,1.179188 0.224609,1.617188 0.163999,0.438997 0.460893,0.790049 0.837891,0.998046 C 4.814497,48.031234 5.736143,47.985 6.99414,48 h 7.005859 v -1 h -7 C 5.742002,46.985 4.912874,46.94028 4.546874,46.738281 c -0.183,-0.1 -0.289719,-0.212656 -0.386719,-0.472656 C 4.063155,46.005625 3.999999,45.591997 3.999999,45 v -5 c 0,-0.591997 0.06316,-1.005625 0.160156,-1.265625 0.098,-0.26 0.203719,-0.371656 0.386719,-0.472656 C 4.912874,38.059719 5.742002,38.015 6.999999,38 h 7 c 1.258996,0.015 2.087126,0.05972 2.453125,0.261719 0.184,0.101 0.289719,0.213656 0.386719,0.472656 0.097,0.26 0.160156,0.673628 0.160156,1.265625 v 1 l 0.947266,-1.90625 C 17.911638,38.832968 17.856246,38.597938 17.77539,38.382812 17.624227,37.961038 17.326507,37.607064 16.937499,37.384766 16.184502,36.968766 15.263855,37.015 14.005858,37 H 6.998046 Z m -0.994141,3 v 1 h 1 v -1 z m 2,0 v 1 h 1 v -1 z m 2,0 v 1 h 1 v -1 z m 2,0 v 1 h 1 v -1 z m 2,0 v 1 h 1 v -1 z m -7.001953,2 0.0039,1 h 0.998053 v -1 z m 2.001953,0 v 1 h 1 v -1 z m 2,0 v 1 h 1 v -1 z m 2,0 v 1 h 1 v -1 z m 4.5,0 -2.5,5 h 1.5 v 4 l 2.5,-5 h -1.5 z m -11.5,2 v 1 h 1 v -1 z m 2,0 v 1 h 5 v -1 z m 6,0 0.01172,1 h 0.560547 L 14.998046,44.255859 14.99414,44 Z"
       style="fill:currentColor;stroke-width:2;stroke-linecap:round;stroke-linejoin:round"
       class="ColorScheme-Text"
       id="path11277" />
  </g>
  <g
     id="input-keyboard-virtual-on">
    <rect
       style="opacity:1;fill:none;stroke-width:2;stroke-linecap:round;stroke-linejoin:round"
       id="rect11997"
       width="22"
       height="22"
       x="6.7000001e-05"
       y="-28" />
    <path
       id="path11990"
       style="fill:currentColor;stroke-width:2;stroke-linecap:round;stroke-linejoin:round"
       d="m 6.9941406,-23 c -1.2579974,0.015 -2.1796423,-0.03023 -2.9316406,0.384766 -0.3893845,0.222116 -0.686477,0.57611 -0.8378906,0.998046 C 3.0596096,-21.178189 3,-20.656998 3,-20 v 5 c 0,0.657998 0.05961,1.179188 0.2246094,1.617188 0.1639996,0.438998 0.4608914,0.790048 0.8378906,0.998046 0.7519983,0.416 1.6736432,0.369766 2.9316406,0.384766 h 7.0117184 c 0.06123,-6.81e-4 0.112223,-0.0015 0.171875,-0.002 C 14.062302,-12.322144 14.002199,-12.659644 14,-13 H 7 c -1.2579974,-0.015 -2.0871258,-0.05972 -2.453125,-0.261719 -0.1829996,-0.1 -0.2897189,-0.212656 -0.3867188,-0.472656 C 4.0631563,-13.994375 4,-14.408002 4,-15 v -5 c 0,-0.591998 0.063156,-1.005625 0.1601562,-1.265625 0.098,-0.26 0.2037192,-0.371656 0.3867188,-0.472656 C 4.9128742,-21.940281 5.742002,-21.985 7,-22 h 7 c 1.258998,0.015 2.087125,0.05972 2.453125,0.261719 0.184,0.101 0.289719,0.213656 0.386719,0.472656 C 16.936844,-21.005625 17,-20.591998 17,-20 v 4 c 0.340674,9.7e-5 0.678843,0.05822 1,0.171875 V -20 c 0,-0.657998 -0.05961,-1.178189 -0.224609,-1.617188 -0.151163,-0.421775 -0.448882,-0.775747 -0.837891,-0.998046 C 16.184502,-23.031234 15.263857,-22.985 14.005859,-23 H 6.9980469 Z M 6,-20 v 1 h 1 v -1 z m 2,0 v 1 h 1 v -1 z m 2,0 v 1 h 1 v -1 z m 2,0 v 1 h 1 v -1 z m 2,0 v 1 h 1 v -1 z m -7.0019531,2 0.00391,1 H 8 v -1 z M 9,-18 v 1 h 1 v -1 z m 2,0 v 1 h 1 v -1 z m 2,0 v 1 h 1 v -1 z m -7,2 v 1 h 1 v -1 z m 2,0 v 1 h 5 v -1 z m 6,0 0.01172,1 h 0.755859 c 0.07432,-0.08311 0.153222,-0.162005 0.236328,-0.236328 L 14.994141,-16 Z"
       class="ColorScheme-Text"
       sodipodi:nodetypes="cccssccccccccssscsccccsccscccccccccccccccccccccccccccccccccccccccccccccccccccccccccccccccccc" />
    <circle
       style="opacity:1;fill:#11d116;fill-opacity:1;stroke-width:2.66928;stroke-linecap:round;stroke-linejoin:round"
       id="path12064"
       cx="17"
       cy="-13"
       r="2" />
  </g>
  <g
     id="16-16-input-keyboard-virtual-on"
     transform="translate(-19,3)">
    <rect
       style="opacity:1;fill:none;fill-opacity:1;stroke-width:2;stroke-linecap:round;stroke-linejoin:round"
       id="rect15009"
       width="16"
       height="16"
       x="3.000067"
       y="-25" />
    <path
       d="m 6.9941406,-23 c -1.2579974,0.015 -2.1796423,-0.03023 -2.9316406,0.384766 -0.3893845,0.222116 -0.686477,0.57611 -0.8378906,0.998046 C 3.0596096,-21.178189 3,-20.656998 3,-20 v 5 c 0,0.657998 0.05961,1.179188 0.2246094,1.617188 0.1639996,0.438998 0.4608914,0.790048 0.8378906,0.998046 0.7519983,0.416 1.6736432,0.369766 2.9316406,0.384766 h 7.0117184 c 0.06123,-6.81e-4 0.112223,-0.0015 0.171875,-0.002 C 14.062302,-12.322144 14.002199,-12.659644 14,-13 H 7 c -1.2579974,-0.015 -2.0871258,-0.05972 -2.453125,-0.261719 -0.1829996,-0.1 -0.2897189,-0.212656 -0.3867188,-0.472656 C 4.0631562,-13.994375 4,-14.408002 4,-15 v -5 c 0,-0.591998 0.063156,-1.005625 0.1601562,-1.265625 0.098,-0.26 0.2037192,-0.371656 0.3867188,-0.472656 C 4.9128742,-21.940281 5.742002,-21.985 7,-22 h 7 c 1.258998,0.015 2.087125,0.05972 2.453125,0.261719 0.184,0.101 0.289719,0.213656 0.386719,0.472656 C 16.936844,-21.005625 17,-20.591998 17,-20 v 4 c 0.340674,9.7e-5 0.678843,0.05822 1,0.171875 V -20 c 0,-0.657998 -0.05961,-1.178189 -0.224609,-1.617188 -0.151163,-0.421775 -0.448882,-0.775747 -0.837891,-0.998046 C 16.184502,-23.031234 15.263857,-22.985 14.005859,-23 H 6.9980469 Z M 6,-20 v 1 h 1 v -1 z m 2,0 v 1 h 1 v -1 z m 1.9999999,0 v 1 H 11 v -1 z M 12,-20 v 1 h 1 v -1 z m 2,0 v 1 h 1 v -1 z m -7.0019531,2 0.00391,1 H 8 v -1 z M 9,-18 v 1 h 0.9999999 v -1 z m 2,0 v 1 h 1 v -1 z m 2,0 v 1 h 1 v -1 z m -7,2 v 1 h 1 v -1 z m 2,0 v 1 h 5 v -1 z m 6,0 0.01172,1 h 0.755859 c 0.07432,-0.08311 0.153222,-0.162005 0.236328,-0.236328 L 14.994107,-16 Z"
       style="fill:currentColor;stroke-width:2;stroke-linecap:round;stroke-linejoin:round"
       class="ColorScheme-Text"
       id="path15142" />
    <circle
       style="opacity:1;fill:#11d116;fill-opacity:1;stroke-width:2;stroke-linecap:round;stroke-linejoin:round"
       id="path15132"
       cx="17"
       cy="-13"
       r="2" />
  </g>
  <g
     id="input-keyboard-virtual-off"
     transform="translate(0,-22)">
    <rect
       style="opacity:1;fill:none;fill-opacity:1;stroke-width:2;stroke-linecap:round;stroke-linejoin:round"
       id="rect16315"
       width="22"
       height="22"
       x="6.7000001e-05"
       y="-28" />
    <path
       id="path11990-9"
       style="fill:currentColor;stroke-width:2;stroke-linecap:round;stroke-linejoin:round"
       class="ColorScheme-Text"
       d="m 6.9941402,-23 c -1.2579974,0.015 -2.1796423,-0.03023 -2.9316406,0.384766 -0.3893845,0.222116 -0.686477,0.57611 -0.8378906,0.998046 C 3.0596092,-21.178189 2.9999996,-20.656998 2.9999996,-20 v 5 c 0,0.657998 0.05961,1.179188 0.2246094,1.617188 0.1639996,0.438998 0.4608914,0.790048 0.8378906,0.998046 0.7519983,0.416 1.6736432,0.369766 2.9316406,0.384766 h 7.0117188 c 0.06123,-6.81e-4 0.112223,-0.0015 0.171875,-0.002 C 14.062302,-12.322144 14.002199,-12.659644 14,-13 H 6.9999996 c -1.2579974,-0.015 -2.0871258,-0.05972 -2.453125,-0.261719 -0.1829996,-0.1 -0.2897189,-0.212656 -0.3867188,-0.472656 -0.097,-0.26 -0.1601562,-0.673627 -0.1601562,-1.265625 v -5 c 0,-0.591998 0.063156,-1.005625 0.1601562,-1.265625 0.098,-0.26 0.2037192,-0.371656 0.3867188,-0.472656 C 4.9128738,-21.940281 5.7420016,-21.985 6.9999996,-22 H 14 c 1.258998,0.015 2.087125,0.05972 2.453125,0.261719 0.184,0.101 0.289719,0.213656 0.386719,0.472656 C 16.936844,-21.005625 17,-20.591998 17,-20 v 4 c 0.340674,9.7e-5 0.678843,0.05822 1,0.171875 V -20 c 0,-0.657998 -0.05961,-1.178189 -0.224609,-1.617188 -0.151163,-0.421775 -0.448882,-0.775747 -0.837891,-0.998046 C 16.184502,-23.031234 15.263857,-22.985 14.005859,-23 H 6.9980465 Z m -0.9941406,3 v 1 h 1 v -1 z m 2,0 v 1 h 1 v -1 z m 2,0 v 1 H 11 v -1 z M 12,-20 v 1 h 1 v -1 z m 2,0 v 1 h 1 v -1 z m -7.0019535,2 0.00391,1 h 0.9980431 v -1 z m 2.0019531,0 v 1 h 1 v -1 z M 11,-18 v 1 h 1 v -1 z m 2,0 v 1 h 1 v -1 z m -7.0000004,2 v 1 h 1 v -1 z m 2,0 v 1 H 13 v -1 z M 14,-16 l 0.01172,1 h 0.755859 c 0.07432,-0.08311 0.153222,-0.162005 0.236328,-0.236328 L 14.994107,-16 Z"
       sodipodi:nodetypes="cccssccccccccssscsccccsccscccccccccccccccccccccccccccccccccccccccccccccccccccccccccccccccccc" />
    <circle
       style="fill:currentColor;fill-opacity:1;stroke-width:2.66928;stroke-linecap:round;stroke-linejoin:round;opacity:0.5"
       class="ColorScheme-Text"
       id="path12064-2"
       cx="17"
       cy="-13"
       r="2" />
  </g>
  <g
     id="16-16-input-keyboard-virtual-off"
     transform="translate(0,-22)">
    <rect
       style="opacity:1;fill:none;fill-opacity:1;stroke-width:2;stroke-linecap:round;stroke-linejoin:round"
       id="rect16317"
       width="16"
       height="16"
       x="-15.999933"
       y="-22" />
    <path
       d="m -12.005859,-20 c -1.257998,0.015 -2.179643,-0.03023 -2.931641,0.384766 -0.389384,0.222116 -0.686477,0.57611 -0.837891,0.998046 C -15.94039,-18.178189 -16,-17.656998 -16,-17 v 5 c 0,0.657998 0.05961,1.179188 0.224609,1.617188 0.164,0.438998 0.460892,0.790048 0.837891,0.998046 0.751998,0.416 1.673643,0.369766 2.931641,0.384766 h 7.011718 c 0.06123,-6.81e-4 0.112223,-0.0015 0.171875,-0.002 C -4.937698,-9.322144 -4.997801,-9.659644 -5,-10 h -7 c -1.257997,-0.015 -2.087126,-0.05972 -2.453125,-0.261719 -0.183,-0.1 -0.289719,-0.212656 -0.386719,-0.472656 C -14.936844,-10.994375 -15,-11.408002 -15,-12 v -5 c 0,-0.591998 0.06316,-1.005625 0.160156,-1.265625 0.098,-0.26 0.203719,-0.371656 0.386719,-0.472656 C -14.087126,-18.940281 -13.257998,-18.985 -12,-19 h 7 c 1.258998,0.015 2.087125,0.05972 2.453125,0.261719 0.184,0.101 0.289719,0.213656 0.386719,0.472656 C -2.063156,-18.005625 -2,-17.591998 -2,-17 v 4 c 0.340674,9.7e-5 0.678843,0.05822 1,0.171875 V -17 c 0,-0.657998 -0.05961,-1.178189 -0.224609,-1.617188 -0.151163,-0.421775 -0.448882,-0.775747 -0.837891,-0.998046 C -2.815498,-20.031234 -3.736143,-19.985 -4.994141,-20 h -7.007812 z M -13,-17 v 1 h 1 v -1 z m 2,0 v 1 h 1 v -1 z m 1.9999999,0 v 1 H -8 v -1 z M -7,-17 v 1 h 1 v -1 z m 2,0 v 1 h 1 v -1 z m -7.001953,2 0.0039,1 H -11 v -1 z M -10,-15 v 1 h 0.9999999 v -1 z m 2,0 v 1 h 1 v -1 z m 2,0 v 1 h 1 v -1 z m -7,2 v 1 h 1 v -1 z m 2,0 v 1 h 5 v -1 z m 6,0 0.01172,1 h 0.755859 c 0.07432,-0.08311 0.153222,-0.162005 0.236328,-0.236328 L -4.005893,-13 Z"
       style="fill:currentColor;stroke-width:2;stroke-linecap:round;stroke-linejoin:round"
       class="ColorScheme-Text"
       id="path15142-2" />
    <circle
       style="fill:currentColor;fill-opacity:1;stroke-width:2;stroke-linecap:round;stroke-linejoin:round;opacity:0.5"
       class="ColorScheme-Text"
       id="path15132-8"
       cx="-2"
       cy="-10"
       r="2" />
  </g>
</svg>
