<?xml version="1.0" encoding="UTF-8" standalone="no"?>
<!-- Created with Inkscape (http://www.inkscape.org/) -->

<svg
   width="22"
   height="22"
   viewBox="0 0 22 22"
   version="1.1"
   id="svg5"
   sodipodi:docname="ktorrent.svg"
   inkscape:version="1.2 (dc2aedaf03, 2022-05-15)"
   xmlns:inkscape="http://www.inkscape.org/namespaces/inkscape"
   xmlns:sodipodi="http://sodipodi.sourceforge.net/DTD/sodipodi-0.dtd"
   xmlns:xlink="http://www.w3.org/1999/xlink"
   xmlns="http://www.w3.org/2000/svg"
   xmlns:svg="http://www.w3.org/2000/svg">
  <sodipodi:namedview
     id="namedview7"
     pagecolor="#ffffff"
     bordercolor="#666666"
     borderopacity="1.0"
     inkscape:pageshadow="2"
     inkscape:pageopacity="0.0"
     inkscape:pagecheckerboard="0"
     inkscape:document-units="px"
     showgrid="false"
     units="px"
     height="48px"
     showguides="false"
     inkscape:zoom="8.875"
     inkscape:cx="13.633803"
     inkscape:cy="10.422535"
     inkscape:window-width="1920"
     inkscape:window-height="1006"
     inkscape:window-x="0"
     inkscape:window-y="0"
     inkscape:window-maximized="1"
     inkscape:current-layer="svg5"
     inkscape:showpageshadow="2"
     inkscape:deskcolor="#d1d1d1" />
  <defs
     id="defs2">
    <style
       id="current-color-scheme"
       type="text/css">
   .ColorScheme-Text { color:#3d3d3d; } .ColorScheme-Highlight { color:#5294e2; }
    </style>
    <linearGradient
       inkscape:collect="always"
       id="linearGradient1544">
      <stop
         style="stop-color:#3daee9;stop-opacity:1;"
         offset="0"
         id="stop1540" />
      <stop
         style="stop-color:#3665f3;stop-opacity:1;"
         offset="1"
         id="stop1542" />
    </linearGradient>
    <linearGradient
       inkscape:collect="always"
       id="linearGradient1871">
      <stop
         style="stop-color:#ffffff;stop-opacity:1;"
         offset="0"
         id="stop1867" />
      <stop
         style="stop-color:#ffffff;stop-opacity:0.1"
         offset="0.12"
         id="stop2515" />
      <stop
         style="stop-color:#ffffff;stop-opacity:0.102"
         offset="0.89999998"
         id="stop2581" />
      <stop
         style="stop-color:#ffffff;stop-opacity:0.502"
         offset="1"
         id="stop1869" />
    </linearGradient>
    <linearGradient
       inkscape:collect="always"
       xlink:href="#linearGradient1871"
       id="linearGradient1198"
       x1="6.3499999"
       y1="0.52916658"
       x2="6.3499994"
       y2="12.170834"
       gradientUnits="userSpaceOnUse"
       gradientTransform="matrix(2.4051539,0,0,2.4051539,0.727274,0.72727269)" />
    <linearGradient
       inkscape:collect="always"
       xlink:href="#linearGradient1544"
       id="linearGradient2016"
       x1="9.921875"
       y1="11.1125"
       x2="2.7781253"
       y2="1.5874999"
       gradientUnits="userSpaceOnUse"
       gradientTransform="matrix(2.4356955,0,0,2.4356955,0.53333617,0.53333486)" />
  </defs>
  <g
     id="ktorrent"
     transform="translate(22,-10)">
    <rect
       style="fill:none;stroke-width:2;stroke-linecap:round;stroke-linejoin:round"
       id="rect913"
       width="32"
       height="32"
       x="0"
       y="0" />
    <circle
       style="opacity:0.1;fill:#000000;fill-opacity:1;stroke-width:1.30435;stroke-linecap:round;stroke-linejoin:round"
       id="path3625"
       cx="16"
       cy="17"
       r="15" />
    <circle
       style="fill:url(#linearGradient2016);fill-opacity:1;stroke-width:1.28889;stroke-linecap:round;stroke-linejoin:round"
       id="path986"
       cx="16.000002"
       cy="16.000002"
       r="14.5" />
    <path
       d="M 12.988301,9.003 18.970701,9 v 6.9821 l 2.2678,10e-4 c -0.9273,1.8509 -2.598601,5.0998 -5.259001,9.0614 -2.660899,-3.9623 -4.331599,-7.213 -5.258999,-9.064 l 2.2678,0.001 z"
       style="color:#000000;opacity:0.1;fill:#000000;stroke-width:0.999999"
       id="path876"
       sodipodi:nodetypes="cccccccc" />
    <path
       id="rect1033"
       style="opacity:0.05;fill:#ffffff;stroke-width:1.28889;stroke-linecap:round;stroke-linejoin:round"
       d="M 3.5075967,8.6455294 A 14.5,14.5 0 0 0 1.5000012,16 14.5,14.5 0 0 0 16,30.499999 14.5,14.5 0 0 0 28.540234,23.277691 Z" />
    <path
       id="path4344"
       style="opacity:0.4;fill:#000000;fill-opacity:1;stroke-width:2;stroke-linecap:round;stroke-linejoin:round"
       d="M 16.000001,1 A 15,15 0 0 0 1.0000013,16 15,15 0 0 0 16.000001,31 15,15 0 0 0 31,16 15,15 0 0 0 16.000001,1 Z m 0,1 A 14,14 0 0 1 30,16 14,14 0 0 1 16.000001,30 14,14 0 0 1 2.0000013,16 14,14 0 0 1 16.000001,2 Z" />
    <path
       id="path1110"
       style="fill:url(#linearGradient1198);fill-opacity:1;stroke-width:1.27273;stroke-linecap:round;stroke-linejoin:round"
       d="m 16.000001,2 c -7.7319865,-1e-7 -13.9999998,6.2680132 -13.9999997,14 2e-7,7.731987 6.2680132,14 13.9999997,14 C 23.731986,30 30,23.731986 30,16 30,8.2680132 23.731987,2.0000002 16.000001,2 Z m 0,1 A 13,13 0 0 1 29,16 13,13 0 0 1 16.000001,29 13,13 0 0 1 3.0000013,16 13,13 0 0 1 16.000001,3 Z" />
    <path
       d="m 12.988301,8.0030002 5.9824,-0.003 v 6.9820988 l 2.2678,10e-4 c -0.9273,1.850899 -2.5986,5.099799 -5.259,9.061398 -2.6609,-3.962298 -4.3316,-7.212998 -5.259,-9.063999 l 2.2678,10e-4 z"
       style="color:#000000;fill:#ffffff;stroke-width:0.264583"
       id="path1099"
       sodipodi:nodetypes="cccccccc" />
  </g>
  <g
     id="22-22-ktorrent">
    <rect
       style="fill:none;stroke-width:2;stroke-linecap:round;stroke-linejoin:round"
       id="rect979"
       width="22"
       height="22"
       x="0"
       y="0" />
    <path
       d="m 9.0000001,5 v 4.9999999 h -2.15625 c 0,0 2.0782521,5.3122531 4.1562499,8.1562501 2.077998,-2.843997 4.15625,-8.1562501 4.15625,-8.1562501 H 13 V 5 Z M 10,5.9999999 h 2 V 11 h 1.587891 C 13.117891,11.997999 12.399999,14.213315 11,16.320312 9.6000015,14.213315 8.819609,11.997999 8.3496095,11 H 10 Z"
       style="fill:currentColor;fill-opacity:1;stroke-width:2;stroke-linecap:round;stroke-linejoin:round"
       class="ColorScheme-Text"
       id="path1324"
       sodipodi:nodetypes="cccccccccccccccc" />
  </g>
  <g
     id="16-16-ktorrent">
    <rect
       style="fill:none;fill-opacity:1;stroke-width:2;stroke-linecap:round;stroke-linejoin:round"
       id="rect1344"
       width="16"
       height="16"
       x="-16"
       y="6" />
    <path
       d="m -10,8 v 5 h -2.15625 c 0,0 2.078252,5.312253 4.15625,8.15625 C -5.922002,18.312253 -3.84375,13 -3.84375,13 H -6 V 8 Z m 1,1.0000002 h 2 V 14 h 1.587891 C -5.882109,14.997999 -6.600001,17.213315 -8,19.320312 -9.399998,17.213315 -10.180391,14.997999 -10.65039,14 H -9 Z"
       style="fill:currentColor;fill-opacity:1;stroke-width:2;stroke-linecap:round;stroke-linejoin:round"
       class="ColorScheme-Text"
       id="path1630"
       sodipodi:nodetypes="cccccccccccccccc" />
  </g>
</svg>
