<?xml version="1.0" encoding="UTF-8" standalone="no"?>
<!-- Created with Inkscape (http://www.inkscape.org/) -->

<svg
   width="22"
   height="22"
   viewBox="0 0 22 22.000001"
   version="1.1"
   id="svg363"
   sodipodi:docname="network.svg"
   inkscape:version="1.2 (dc2aedaf03, 2022-05-15)"
   xmlns:inkscape="http://www.inkscape.org/namespaces/inkscape"
   xmlns:sodipodi="http://sodipodi.sourceforge.net/DTD/sodipodi-0.dtd"
   xmlns:xlink="http://www.w3.org/1999/xlink"
   xmlns="http://www.w3.org/2000/svg"
   xmlns:svg="http://www.w3.org/2000/svg">
  <sodipodi:namedview
     id="namedview365"
     pagecolor="#ffffff"
     bordercolor="#000000"
     borderopacity="0.25"
     inkscape:showpageshadow="2"
     inkscape:pageopacity="0.0"
     inkscape:pagecheckerboard="0"
     inkscape:deskcolor="#d1d1d1"
     inkscape:document-units="px"
     showgrid="false"
     inkscape:zoom="2.8284271"
     inkscape:cx="50.027805"
     inkscape:cy="39.774756"
     inkscape:window-width="1854"
     inkscape:window-height="1048"
     inkscape:window-x="0"
     inkscape:window-y="0"
     inkscape:window-maximized="1"
     inkscape:current-layer="svg363"
     showguides="false" />
  <defs
     id="defs360">
  <style
     id="current-color-scheme"
     type="text/css">
   .ColorScheme-Text { color:#3d3d3d; } .ColorScheme-Highlight { color:#0077c4; }
  </style>
    <linearGradient
       inkscape:collect="always"
       xlink:href="#linearGradient17934"
       id="linearGradient2016-3"
       x1="9.921875"
       y1="11.1125"
       x2="2.7781253"
       y2="1.5874999"
       gradientUnits="userSpaceOnUse"
       gradientTransform="matrix(2.4356951,0,0,2.4356951,0.53333542,-31.466664)" />
    <linearGradient
       inkscape:collect="always"
       id="linearGradient17934">
      <stop
         style="stop-color:#a7a7fe;stop-opacity:1"
         offset="0"
         id="stop17930" />
      <stop
         style="stop-color:#8c57d9;stop-opacity:1"
         offset="1"
         id="stop17932" />
    </linearGradient>
    <linearGradient
       inkscape:collect="always"
       xlink:href="#linearGradient1871"
       id="linearGradient1198"
       x1="6.3499999"
       y1="0.52916658"
       x2="6.3499994"
       y2="12.170834"
       gradientUnits="userSpaceOnUse"
       gradientTransform="matrix(2.405154,0,0,2.405154,0.72727372,-31.272726)" />
    <linearGradient
       inkscape:collect="always"
       id="linearGradient1871">
      <stop
         style="stop-color:#ffffff;stop-opacity:1;"
         offset="0"
         id="stop1867" />
      <stop
         style="stop-color:#ffffff;stop-opacity:0.1"
         offset="0.12"
         id="stop2515" />
      <stop
         style="stop-color:#ffffff;stop-opacity:0.102"
         offset="0.89999998"
         id="stop2581" />
      <stop
         style="stop-color:#ffffff;stop-opacity:0.502"
         offset="1"
         id="stop1869" />
    </linearGradient>
    <linearGradient
       inkscape:collect="always"
       xlink:href="#linearGradient17934"
       id="linearGradient2016-3-0"
       x1="9.921875"
       y1="11.1125"
       x2="2.7781253"
       y2="1.5874999"
       gradientUnits="userSpaceOnUse"
       gradientTransform="matrix(2.4356951,0,0,2.4356951,32.533334,-31.466665)" />
    <linearGradient
       inkscape:collect="always"
       xlink:href="#linearGradient1871"
       id="linearGradient1198-6"
       x1="6.3499999"
       y1="0.52916658"
       x2="6.3499994"
       y2="12.170834"
       gradientUnits="userSpaceOnUse"
       gradientTransform="matrix(2.405154,0,0,2.405154,32.727273,-31.272727)" />
  </defs>
  <g
     id="edit-hover"
     transform="translate(43.999992,66)">
    <rect
       style="opacity:1;fill:none;fill-opacity:1;stroke-width:2;stroke-linecap:round;stroke-linejoin:round"
       id="rect19181"
       width="21.999992"
       height="22"
       x="-21.999992"
       y="44" />
    <path
       id="path19198"
       style="opacity:1;fill:#0077c4;fill-opacity:1;stroke-width:2;stroke-linecap:round;stroke-linejoin:round"
       d="M -12.326172,47.119141 V 48.125 c -0.734874,0.13924 -1.446461,0.393166 -2.103516,0.757812 l -0.648437,-0.773437 -2.005859,1.705078 0.638672,0.759766 c -0.232346,0.285644 -0.446908,0.590854 -0.636719,0.919922 -0.191531,0.33205 -0.35082,0.674039 -0.482422,1.021484 L -18.560547,52.337891 -19,54.933594 l 0.986328,0.173828 c 0.01393,0.749824 0.147934,1.490685 0.394531,2.195312 l -0.888671,0.513672 h -0.002 l 1.332032,2.271485 0.878906,-0.507813 c 0.476856,0.54996 1.04736,1.033662 1.705078,1.425781 l -0.353516,0.97461 2.478516,0.884765 0.347656,-0.958984 c 0.742618,0.119532 1.492674,0.119006 2.2226565,0.002 l 0.3535156,0.972656 2.46875,-0.917968 -0.3457031,-0.951172 c 0.6322444,-0.37554 1.2090066,-0.855367 1.7050781,-1.429688 l 0.890625,0.513672 1.3007813,-2.287109 -0.875,-0.50586 c 0.2487087,-0.716532 0.3734785,-1.456208 0.3828125,-2.191406 L -3,54.931641 -3.4746094,52.341797 -4.4765625,52.517578 c -0.2627237,-0.690986 -0.6358425,-1.343859 -1.109375,-1.927734 l 0.6621094,-0.789063 -2.0273438,-1.679687 -0.6503906,0.77539 c -0.6695843,-0.375331 -1.3750116,-0.629107 -2.0917969,-0.767578 v -1.009765 z m 1.310547,1.878906 c 3.313705,0 6,2.686293 6,6 0,3.313704 -2.686295,6 -6,6 -3.313706,0 -6,-2.686296 -6,-6 0,-3.313705 2.686294,-6 6,-6 z M -11.005859,50 c -0.120843,-2.39e-4 -0.241155,0.0033 -0.361329,0.01172 -1.602347,0.11249 -3.121863,0.990525 -3.982421,2.482422 -1.376888,2.387054 -0.553067,5.453417 1.835937,6.833984 2.389026,1.380578 5.4531916,0.560874 6.8300782,-1.826172 C -5.3067061,55.1149 -6.1305166,52.050499 -8.5195312,50.669922 -9.3034245,50.216909 -10.159987,50.001677 -11.005859,50 Z m -0.0098,0.998047 c 2.2091371,0 4,1.790863 4,4 0,2.209137 -1.7908629,4 -4,4 -2.209137,0 -4,-1.790863 -4,-4 0,-2.209137 1.790863,-4 4,-4 z" />
  </g>
  <g
     id="edit"
     transform="translate(22,44)">
    <rect
       style="opacity:1;fill:none;fill-opacity:1;stroke-width:2;stroke-linecap:round;stroke-linejoin:round"
       id="rect19183"
       width="21.999992"
       height="22"
       x="-21.999992"
       y="66" />
    <path
       id="path19200"
       class="ColorScheme-Text"
       style="opacity:1;fill:currentColor;fill-opacity:1;stroke-width:2;stroke-linecap:round;stroke-linejoin:round"
       d="M -12.326172,69.119141 V 70.125 c -0.734874,0.139239 -1.44646,0.393165 -2.103516,0.757812 l -0.648437,-0.773437 -2.005859,1.705078 0.638672,0.759766 c -0.232345,0.285644 -0.446908,0.590853 -0.636719,0.919922 -0.191531,0.332051 -0.35082,0.67404 -0.482422,1.021484 L -18.560547,74.337891 -19,76.933594 l 0.986328,0.173828 c 0.01393,0.749824 0.147934,1.490685 0.394531,2.195312 l -0.888671,0.513672 h -0.002 l 1.332032,2.271485 0.878906,-0.507813 c 0.476856,0.54996 1.04736,1.033661 1.705078,1.425781 l -0.353516,0.97461 2.478516,0.884765 0.347656,-0.958984 c 0.742618,0.119532 1.492675,0.119007 2.2226565,0.002 l 0.3535156,0.972656 2.46875,-0.917968 -0.3457031,-0.951172 c 0.6322444,-0.375539 1.2090066,-0.855367 1.7050781,-1.429688 l 0.890625,0.513672 1.3007813,-2.287109 -0.875,-0.50586 c 0.2487087,-0.716532 0.3734785,-1.456209 0.3828125,-2.191406 L -3,76.931641 -3.4746094,74.341797 -4.4765625,74.517578 c -0.2627237,-0.690987 -0.6358425,-1.343859 -1.109375,-1.927734 l 0.6621094,-0.789063 -2.0273438,-1.679687 -0.6503906,0.77539 c -0.6695843,-0.375331 -1.3750112,-0.629108 -2.0917969,-0.767578 v -1.009765 z m 1.310547,1.878906 c 3.313705,0 6,2.686293 6,6 0,3.313705 -2.686295,6 -6,6 -3.313706,0 -6,-2.686295 -6,-6 0,-3.313707 2.686294,-6 6,-6 z M -11.005859,72 c -0.120843,-2.39e-4 -0.241154,0.0033 -0.361329,0.01172 -1.602346,0.11249 -3.121863,0.990524 -3.982421,2.482422 -1.376888,2.387054 -0.553068,5.453418 1.835937,6.833984 2.389026,1.380578 5.4531916,0.560874 6.8300782,-1.826172 C -5.3067061,77.1149 -6.1305166,74.050499 -8.5195312,72.669922 -9.303425,72.216909 -10.159987,72.001677 -11.005859,72 Z m -0.0098,0.998047 c 2.2091371,0 4,1.790863 4,4 0,2.209136 -1.7908629,4 -4,4 -2.209137,0 -4,-1.790864 -4,-4 0,-2.209137 1.790863,-4 4,-4 z" />
  </g>
  <g
     id="showinfo-hover"
     transform="translate(0,22)">
    <rect
       style="opacity:1;fill:none;fill-opacity:1;stroke-width:2;stroke-linecap:round;stroke-linejoin:round"
       id="rect20016"
       width="21.999992"
       height="22"
       x="22"
       y="110" />
    <path
       d="m 32.999996,113 c -4.418274,0 -8,3.58172 -8,8 0,4.41828 3.581726,8 8,8 4.418274,0 8,-3.58172 8,-8 0,-4.41828 -3.581726,-8 -8,-8 z m 0,1 c 3.865989,0 7,3.13401 7,7 0,3.86599 -3.134011,7 -7,7 -3.86599,0 -7,-3.13401 -7,-7 0,-3.86599 3.13401,-7 7,-7 z m 0,2.75 c -0.386,0 -0.690063,0.12405 -0.914062,0.37305 -0.219947,0.23866 -0.340113,0.55242 -0.335938,0.87695 0,0.336 0.111937,0.62795 0.335938,0.87695 0.223999,0.249 0.528062,0.37305 0.914062,0.37305 0.386,0 0.690063,-0.12405 0.914062,-0.37305 0.219946,-0.23866 0.340113,-0.55242 0.335938,-0.87695 0.0042,-0.32453 -0.115992,-0.63829 -0.335938,-0.87695 -0.223999,-0.249 -0.528062,-0.37305 -0.914062,-0.37305 z m -1,3.25 v 5 h 2 v -5 z"
       style="fill:#0077c4;fill-opacity:1;stroke-width:2;stroke-linecap:round;stroke-linejoin:round"
       id="path20069" />
  </g>
  <g
     id="showinfo"
     transform="translate(0,22)">
    <rect
       style="opacity:1;fill:none;fill-opacity:1;stroke-width:2;stroke-linecap:round;stroke-linejoin:round"
       id="rect20014"
       width="21.999992"
       height="22"
       x="7.6293945e-06"
       y="110" />
    <path
       id="path20031"
       class="ColorScheme-Text"
       style="fill:currentColor;fill-opacity:1;stroke-width:2;stroke-linecap:round;stroke-linejoin:round"
       d="m 11,113 c -4.418274,0 -8,3.58172 -8,8 0,4.41828 3.581726,8 8,8 4.418274,0 8,-3.58172 8,-8 0,-4.41828 -3.581726,-8 -8,-8 z m 0,1 c 3.865989,0 7,3.13401 7,7 0,3.86599 -3.134011,7 -7,7 -3.8659897,0 -7,-3.13401 -7,-7 0,-3.86599 3.1340103,-7 7,-7 z m 0,2.75 c -0.386,0 -0.690063,0.12405 -0.914062,0.37305 C 9.8659911,117.36171 9.7458249,117.67547 9.75,118 c 0,0.336 0.1119373,0.62795 0.335938,0.87695 C 10.309937,119.12595 10.614,119.25 11,119.25 c 0.386,0 0.690063,-0.12405 0.914062,-0.37305 C 12.134008,118.63829 12.254175,118.32453 12.25,118 12.2542,117.67547 12.134008,117.36171 11.914062,117.12305 11.690063,116.87405 11.386,116.75 11,116.75 Z M 10,120 v 5 h 2 v -5 z"
       sodipodi:nodetypes="sssssssssssccsscccsccccc" />
  </g>
  <g
     id="flightmode-on"
     transform="translate(-43.999984)">
    <rect
       style="opacity:1;fill:none;fill-opacity:1;stroke-width:2;stroke-linecap:round;stroke-linejoin:round"
       id="rect3513"
       width="22"
       height="22"
       x="-22"
       y="0" />
    <path
       id="path3515"
       class="ColorScheme-Text"
       style="opacity:1;fill:currentColor;fill-opacity:1;stroke-width:2;stroke-linecap:round;stroke-linejoin:round"
       d="m -12.503906,4 c -0.793989,9.7e-4 -0.78072,0.033301 -0.53125,1.03125 l 1.625,4.96875 h -4.5 l -1.21875,-1.78125 C -17.268166,8.0099206 -17.251606,8.00002 -17.472656,8 h -0.21875 c -0.42773,0 -0.28125,0.4375 -0.28125,0.4375 l 0.28125,2.5625 -0.28125,2.5625 c 0,0 -0.13986,0.43749 0.25,0.4375 h 0.25 c 0.21159,0 0.20422,-0.009 0.34375,-0.21875 L -15.910156,12 h 4.5 l -1.625,4.9375 c -0.26171,1.046909 -0.2647,1.06251 0.53125,1.0625 0.431989,0 0.43388,-0.0117 0.71875,-0.5 l 3.6875,-5.5 h 3.09375 c 0.553999,0 1,-0.446001 1,-1 0,-0.553999 -0.446001,-1 -1,-1 h -3.09375 l -3.6875,-5.5 c -0.2665,-0.4568495 -0.283311,-0.49822 -0.65625,-0.5 z"
       sodipodi:nodetypes="ccccccscccssccccsccssscccc" />
  </g>
  <g
     id="flightmode-off"
     transform="translate(-43.999984)">
    <rect
       style="opacity:1;fill:none;fill-opacity:1;stroke-width:2;stroke-linecap:round;stroke-linejoin:round"
       id="rect7731"
       width="22"
       height="22"
       x="-44"
       y="0" />
    <path
       id="path7880"
       class="ColorScheme-Text"
       style="opacity:0.5;fill:currentColor;fill-opacity:1;stroke-width:2;stroke-linecap:round;stroke-linejoin:round"
       d="m -34.503906,4 c -0.793988,9.7e-4 -0.78072,0.033352 -0.53125,1.03125 l 1.458984,4.4609375 1.820313,-1.8203125 c 0.0016,0.00141 0.0043,0.00271 0.0059,0.00391 L -31.693319,7.619144 -33.785156,4.5 c -0.2665,-0.456849 -0.283312,-0.49822 -0.65625,-0.5 z m 7.660156,0.171875 -13.000039,13.000043 0.703125,0.703125 5.660156,-5.660156 -1.554687,4.722656 c -0.26171,1.046898 -0.264698,1.0625 0.53125,1.0625 0.431988,0 0.43388,-0.0117 0.71875,-0.5 l 3.6875,-5.5 h 3.09375 c 0.553998,0 1,-0.446001 1,-1 0,-0.553998 -0.446002,-1 -1,-1 h -3.09375 L -30.566406,9.3007812 -26.140625,4.875 Z M -39.691406,8 c -0.42773,0 -0.28125,0.4375 -0.28125,0.4375 l 0.28125,2.5625 -0.28125,2.5625 c 0,0 -0.13986,0.43749 0.25,0.4375 h 0.25 c 0.21159,0 0.20422,-0.009 0.34375,-0.21875 L -37.910156,12 h 1.833984 l 1.994141,-2 h -3.828125 l -1.21875,-1.78125 C -39.268166,8.0099204 -39.251606,8.00002 -39.472656,8 Z"
       sodipodi:nodetypes="ccccccccccccccsccsssccccscccsscccccccs" />
  </g>
  <g
     id="22-22-network-wired-activated">
    <rect
       style="fill:none;stroke-width:2;stroke-linecap:round;stroke-linejoin:round"
       id="rect588"
       width="22"
       height="22"
       x="0"
       y="0" />
    <path
       id="path2076"
       class="ColorScheme-Text"
       style="fill:currentColor;stroke-width:2;stroke-linecap:round;stroke-linejoin:round"
       d="M 9.4277344,4 C 8.9777356,4.005 8.6479056,3.9877191 8.3789062,4.1367188 8.2399338,4.2163475 8.1340876,4.3433526 8.0800781,4.4941406 8.0210784,4.6511403 8,4.8353131 8,5.0703125 V 6.9277344 C 8,7.1627335 8.022078,7.3488597 8.080078,7.5058594 8.1343601,7.656288 8.2415891,7.782721 8.3808594,7.8613281 8.6488585,8.0093278 8.9777356,7.995 9.4277344,8 H 10.003906 L 10,10 H 6.5 C 5.8330028,10 5.3617336,10.408344 5.1777344,10.777344 4.9927352,11.147341 5,11.5 5,11.5 V 13 H 4.4277344 C 3.9777356,13.005 3.6479055,12.987719 3.3789062,13.136719 3.2399338,13.216349 3.1340876,13.343352 3.0800781,13.494141 3.0210784,13.651138 3,13.835315 3,14.070312 v 1.857422 c 0,0.235 0.022078,0.421128 0.080078,0.578125 0.054282,0.150429 0.161511,0.276862 0.3007813,0.355469 0.267999,0.148 0.5968762,0.133672 1.046875,0.138672 h 2.1464844 c 0.4499985,-0.005 0.7778755,0.01033 1.046875,-0.138672 0.13927,-0.07861 0.2465,-0.20504 0.3007812,-0.355469 0.058,-0.156997 0.080078,-0.343125 0.080078,-0.578125 v -1.857422 c 0,-0.234997 -0.022078,-0.420174 -0.080078,-0.576171 C 7.8676923,13.343147 7.7604994,13.216096 7.6210938,13.136719 7.3520944,12.986719 7.0242172,13.005 6.5742188,13 H 6.5722656 6 v -1.5 c 0,0 0.00727,-0.147345 0.072266,-0.277344 C 6.1382656,11.091656 6.1670009,11 6.5,11 h 8 c 0.333,0 0.361734,0.09166 0.427734,0.222656 C 14.992734,11.352655 15,11.5 15,11.5 V 13 h -0.572266 c -0.449997,0.005 -0.779828,-0.01228 -1.048828,0.136719 -0.138973,0.07963 -0.244819,0.206633 -0.298828,0.357422 C 13.021078,13.651138 13,13.835315 13,14.070312 v 1.857422 c 0,0.235 0.02208,0.421128 0.08008,0.578125 0.05428,0.150429 0.161513,0.276862 0.300781,0.355469 0.268,0.148 0.596878,0.133672 1.046875,0.138672 h 2.146485 c 0.449997,-0.005 0.777875,0.01033 1.046875,-0.138672 0.139271,-0.07861 0.2465,-0.20504 0.300781,-0.355469 0.058,-0.156997 0.08008,-0.343125 0.08008,-0.578125 v -1.857422 c 0,-0.234997 -0.02208,-0.420174 -0.08008,-0.576171 C 17.867695,13.343147 17.7605,13.216096 17.621094,13.136719 17.352094,12.986719 17.024216,13.005 16.574219,13 h -0.002 H 16 v -1.5 c 0,0 0.0073,-0.352659 -0.177734,-0.722656 C 15.5598,10.293042 15.050813,9.993817 14.5,10 h -3.498047 l 0.0039,-2 h 0.56836 c 0.449997,-0.005 0.777875,0.010328 1.046875,-0.1386719 0.139271,-0.078607 0.2465,-0.2050401 0.300781,-0.3554687 0.058,-0.1569997 0.08008,-0.3431259 0.08008,-0.578125 V 5.0703125 c 0,-0.2349994 -0.02208,-0.4201722 -0.08008,-0.5761719 C 12.867695,4.3431476 12.760501,4.2160957 12.621094,4.1367188 12.352094,3.9867191 12.024216,4.005 11.574219,4 h -0.002 z M 9,5 h 3 V 7 H 9 Z m -5,9 h 3 v 2 H 4 Z m 10,0 h 3 v 2 h -3 z"
       sodipodi:nodetypes="cccsscccccsccccccssccccccsscccccccssccccccssccccccsscccccccccccccsscccccccccccccccccccc" />
  </g>
  <g
     id="network-wired-activated">
    <rect
       style="opacity:0.5;fill:none;fill-opacity:1;stroke-width:2;stroke-linecap:round;stroke-linejoin:round"
       id="rect8294"
       width="32"
       height="32"
       x="0"
       y="-32" />
    <circle
       style="opacity:0.1;fill:#000000;fill-opacity:1;stroke-width:1.30435;stroke-linecap:round;stroke-linejoin:round"
       id="path3625"
       cx="16"
       cy="-14.999999"
       r="15" />
    <circle
       style="fill:url(#linearGradient2016-3);fill-opacity:1;stroke-width:1.28889;stroke-linecap:round;stroke-linejoin:round"
       id="path986-6"
       cx="16"
       cy="-16"
       r="14.5" />
    <path
       d="m 9.1647989,-28.124941 c -0.8698118,0.489193 -1.6850279,1.069667 -2.4318455,1.731592 l 0.5393506,0.539352 h 2.2710017 v -2.271002 z m 3.5578501,0 -1.589643,1.816763 1.362524,1.362523 v 1.42502 l 1.589643,1.754363 h 0.908381 v -0.908382 l 1.362523,-1.362523 v -0.908381 l 0.908382,-0.908381 v -1.362524 l -0.908382,-0.908381 z m -6.1315485,3.179286 v 1.362523 H 5.4555997 l -0.6793916,-0.679391 c -1.7504583,2.352102 -2.7211998,5.192907 -2.7762071,8.124368 l 1.6388653,1.638865 h 1.3626201 l 2.270905,2.271002 v -2.725144 l 1.3626202,-1.362523 h 0.908381 l 1.3625234,-1.362524 h 1.36262 l -0.681291,-0.681291 1.362524,-1.589643 -1.362524,-1.362523 H 9.5433639 v 1.816761 H 8.6349824 l -0.908381,-0.90838 v -0.908381 l 1.3625234,-1.362524 h 1.1355002 v -0.908381 l -1.3625232,-1.362523 z m 20.5977255,0.522317 -1.294406,1.294407 -0.908382,-0.908382 h -2.725143 l -1.362621,1.362524 v 1.135501 h 1.362621 v -0.681291 h 0.908381 v 0.908381 l -0.454201,0.454191 -1.816762,0.03024 -0.681281,0.651002 h -0.908381 v 0.908375 l -0.681281,0.681291 v 1.362523 h 1.362523 l 0.908381,-0.908381 h 0.908381 v 0.45419 l 0.908382,0.908382 h 0.4542 v -0.454143 l -0.908381,-0.908381 h 0.908381 l 0.908381,0.908381 h 1.135501 l -0.681291,-0.681281 0.681291,-0.68129 h 0.681291 l 0.681281,0.68129 H 25.89441 l -0.681291,0.681281 0.669935,0.669935 0.01134,0.692637 h -0.908379 l 2.725144,2.725144 h 0.454181 l 0.4542,-0.454191 0.908381,-0.908381 -0.908381,-0.908381 h 1.443915 c 0.011,-0.161337 0.0192,-0.322851 0.0246,-0.48447 -0.0036,-3.084921 -1.02243,-6.082905 -2.899257,-8.531226 z m -2.202788,8.561457 h -2.725143 l -0.454201,-0.454191 H 19.08155 l -1.589642,1.589643 v 2.271002 l 1.1355,1.1355 h 1.589643 l 0.681281,0.681291 v 0.681281 l 0.454201,0.4541911 v 2.725144 l 1.724035,1.8224791 2.848102,-2.8481023 -0.03024,-2.6078049 2.270905,-2.271002 h -0.908377 l -2.270904,-2.271001 z m -8.856693,-6.358669 v 0.681291 h 1.362524 l -0.681281,-0.681291 z m 4.087764,0.227093 -0.681281,0.68129 v 0.681289 h 0.681281 z m -7.03993,2.498022 -0.681291,0.681291 h 0.681291 l 0.227089,0.227089 h 0.227089 l 0.227104,-0.227089 z m -3.8606442,4.769026 -0.681281,0.68129 h 1.3625235 v -0.68129 z m -0.681281,2.043882 -0.9083811,0.908381 v 2.271001 l 1.822382,1.5972011 -0.00581,2.036324 -0.6812908,0.6812908 v 1.3549663 c 0.3953979,0.2355741 0.8021325,0.4515738 1.2187331,0.6472229 l 2.414792,-2.2293369 V -6.323859 l 1.362523,-1.3625231 v -0.6812908 l 0.681282,-0.681281 v -1.8167621 l -0.908386,-0.908382 h -1.816762 l -0.908381,-0.908381 z m 18.8487892,3.179286 -0.908381,0.8478221 v 1.4231788 h 0.505283 c 0.138535,-0.1734236 0.272938,-0.3501014 0.403098,-0.5298939 z"
       style="color:#000000;opacity:0.24;fill:#ffffff;stroke-width:0.999999"
       id="path891" />
    <path
       id="path1542"
       style="color:#000000;font-variant-ligatures:normal;font-variant-position:normal;font-variant-caps:normal;font-variant-numeric:normal;font-variant-alternates:normal;font-feature-settings:normal;text-indent:0;text-decoration-line:none;text-decoration-style:solid;text-decoration-color:#000000;text-transform:none;text-orientation:mixed;dominant-baseline:auto;white-space:normal;shape-padding:0;opacity:0.5;isolation:auto;mix-blend-mode:normal;solid-color:#000000;fill:#ffffff;fill-rule:evenodd;stroke-width:0.264583;color-rendering:auto;image-rendering:auto;shape-rendering:auto"
       d="m 22.115235,-29.146483 c -0.528881,3.56258 -1.041632,6.709032 -1.240234,7.603515 -4.0834,0.39257 -7.964188,1.07651 -11.6171875,2.28711 -0.071691,-1.071245 -0.1049971,-5.017313 -0.1074219,-9.513672 a 14.5,14.5 0 0 0 -1.0039062,0.591797 c 0.00496,4.182208 0.033751,7.771222 0.095703,8.763672 -0.895877,-0.561272 -2.881753,-1.876862 -5.0624999,-3.335938 a 14.5,14.5 0 0 0 -0.4589844,0.951172 c 2.094941,1.38421 4.0236794,2.630159 4.8496094,3.15039 -1.3201807,0.509136 -3.6484279,2.05916 -6.0175781,3.839844 a 14.5,14.5 0 0 0 0.1503906,1.189453 c 2.5904843,-1.947253 5.1231173,-3.690982 6.6582031,-4.259765 0.1479988,1.5394 0.3692069,3.040581 0.6855469,4.488281 0.3470287,1.588199 0.8186892,3.106387 1.400391,4.5546874 -0.8337611,0.268612 -1.6663098,0.491282 -2.4746098,0.658204 -0.2031538,0.04195 -2.2180901,0.458036 -3.6523437,0.753906 a 14.5,14.5 0 0 0 0.7109375,0.892578 c 1.1175118,-0.236517 2.9880212,-0.634101 3.1425781,-0.666016 0.8659,-0.178791 1.7626083,-0.416605 2.6621099,-0.708984 0.382419,0.849487 2.178221,3.675751 3.970703,6.353516 a 14.5,14.5 0 0 0 1.193359,0.052734 14.5,14.5 0 0 0 0.03711,-0.002 c -1.90426,-2.780091 -3.821663,-5.770622 -4.261718,-6.740235 2.5668,-0.960767 5.094371,-2.4440174 7.013671,-4.6992184 2.457354,0.913237 6.336284,2.216021 10.257813,3.2656254 a 14.5,14.5 0 0 0 0.416016,-0.9472664 c -3.912603,-1.030632 -7.710382,-2.300667 -10.160157,-3.201172 1.0019,-2.1643 1.809366,-4.435909 2.384766,-6.787109 1.530787,-0.134152 4.719236,-0.265045 7.939453,-0.341797 a 14.5,14.5 0 0 0 -0.400392,-0.984328 c -3.037186,0.0682 -5.894326,0.17884 -7.302734,0.296875 0.172102,-0.811182 0.641479,-3.695579 1.142578,-7.019531 a 14.5,14.5 0 0 0 -0.951172,-0.486328 z m -1.476562,8.632812 c -0.55996,2.1909 -1.330291,4.31305 -2.275391,6.34375 -2.9433,-1.1577 -5.768003,-2.627428 -8.4707029,-4.236328 3.3743999,-1.0847 6.9592939,-1.727122 10.7460939,-2.107422 z m -11.2382814,2.986328 c 2.6627004,1.586 5.4537944,3.039425 8.3710934,4.203125 -1.7582,1.9455 -4.036759,3.28075 -6.380859,4.1562504 -0.56576,-1.4035004 -1.026788,-2.8797004 -1.367187,-4.4375004 -0.276211,-1.264 -0.4795875,-2.575675 -0.6230474,-3.921875 z" />
    <path
       d="m 21.498047,-21.999999 c -0.828427,0 -1.5,0.671573 -1.5,1.5 0,0.828427 0.671573,1.5 1.5,1.5 0.828427,0 1.5,-0.671573 1.5,-1.5 0,-0.828427 -0.671573,-1.5 -1.5,-1.5 z m -12.9980462,2.054688 c -0.8284271,0 -1.5,0.671573 -1.5,1.5 0,0.828427 0.6715729,1.5 1.5,1.5 0.8284271,0 1.5000002,-0.671573 1.5000002,-1.5 0,-0.828427 -0.6715731,-1.5 -1.5000002,-1.5 z m 9.9980462,4.945312 c -0.828427,0 -1.5,0.671573 -1.5,1.5 0,0.828427 0.671573,1.5 1.5,1.5 0.828427,0 1.5,-0.671573 1.5,-1.5 0,-0.828427 -0.671573,-1.5 -1.5,-1.5 z m -7,5.0000003 c -0.828427,0 -1.4999995,0.6715729 -1.4999995,1.5 4e-7,0.8284271 0.6715725,1.4999996 1.4999995,1.4999996 0.828427,0 1.5,-0.6715725 1.5,-1.4999996 0,-0.8284271 -0.671573,-1.5 -1.5,-1.5 z"
       style="fill:#ffffff;stroke-width:0.999999"
       id="path8113" />
    <path
       id="path4344"
       style="opacity:0.4;fill:#000000;fill-opacity:1;stroke-width:2;stroke-linecap:round;stroke-linejoin:round"
       d="m 16.000001,-30.999999 a 15,15 0 0 0 -15,15 15,15 0 0 0 15,15.00000039 15,15 0 0 0 15,-15.00000039 15,15 0 0 0 -15,-15 z m 0,1 a 14,14 0 0 1 14,14 14,14 0 0 1 -14,14.0000004 14,14 0 0 1 -14,-14.0000004 14,14 0 0 1 14,-14 z" />
    <path
       id="path1110"
       style="fill:url(#linearGradient1198);fill-opacity:1;stroke-width:1.27273;stroke-linecap:round;stroke-linejoin:round"
       d="m 16.000001,-29.999999 c -7.7319866,0 -14.0000001,6.268013 -14,14 2e-7,7.7319874 6.2680134,14.0000004 14,14.0000004 7.731986,0 14,-6.268014 14,-14.0000004 0,-7.731987 -6.268013,-14 -14,-14 z m 0,1 a 13,13 0 0 1 13,13 13,13 0 0 1 -13,13.0000004 13,13 0 0 1 -13,-13.0000004 13,13 0 0 1 13,-13 z" />
    <circle
       style="opacity:1;fill:#8c00d9;fill-opacity:1;stroke-width:1.95928;stroke-linecap:round;stroke-linejoin:round"
       id="path9292"
       cx="23"
       cy="-9"
       r="8.5" />
    <path
       d="m 22.25878,-14 c -0.311542,0.0035 -0.540334,-0.0075 -0.726565,0.09569 -0.09603,0.05486 -0.169417,0.14209 -0.207033,0.246094 -0.04085,0.108695 -0.05664,0.235746 -0.05664,0.398438 v 1.287113 c 0,0.162693 0.01649,0.291699 0.05664,0.400391 0.03735,0.104159 0.110803,0.191473 0.207033,0.246095 0.185538,0.102461 0.415023,0.09224 0.726565,0.0957 h 0.398436 l -0.0039,1.3847684 h -2.42188 c -0.461773,0 -0.788633,0.2816475 -0.916018,0.53711 -0.128079,0.2561556 -0.123052,0.5019541 -0.123052,0.5019541 v 1.037112 h -0.396484 c -0.31154,0.0035 -0.538379,-0.0075 -0.72461,0.0957 -0.09603,0.05486 -0.169417,0.1420913 -0.207033,0.2460945 -0.04085,0.1086928 -0.05664,0.2376976 -0.05664,0.4003908 v 1.2851597 c 0,0.1626923 0.0165,0.2916975 0.05664,0.4003908 0.03735,0.1041587 0.110803,0.1914724 0.207033,0.2460944 0.185537,0.1024615 0.41307,0.092241 0.72461,0.0957 h 1.48633 c 0.311541,-0.0035 0.53838,0.0075 0.724611,-0.0957 0.09623,-0.05462 0.169684,-0.1419367 0.207033,-0.2460944 0.04016,-0.1086929 0.05664,-0.2376985 0.05664,-0.4003908 V -7.027345 c 0,-0.1626932 -0.0165,-0.2923906 -0.05664,-0.4003908 -0.03755,-0.1040346 -0.110962,-0.1912814 -0.207033,-0.2460945 -0.186231,-0.1038467 -0.41307,-0.092241 -0.724611,-0.0957 h -0.002 -0.394532 v -1.037112 c 0,0 0.0038,-0.1033586 0.04884,-0.1933594 0.04569,-0.090689 0.06634,-0.1542973 0.296876,-0.1542973 h 5.539073 c 0.230539,0 0.24923,0.0636 0.294922,0.1542973 0.04499,0.09 0.05079,0.1933594 0.05079,0.1933594 v 1.0371121 h -0.396445 c -0.31154,0.0035 -0.540333,-0.0075 -0.726563,0.0957 -0.09603,0.05486 -0.169418,0.1420913 -0.207034,0.2460945 -0.04085,0.1086928 -0.05469,0.2376975 -0.05469,0.4003908 v 1.2851596 c 0,0.1626924 0.01453,0.2916976 0.05469,0.4003909 0.03785,0.1044736 0.112017,0.1918322 0.208987,0.2460944 0.185538,0.1024615 0.41307,0.092241 0.72461,0.0957 h 1.486331 c 0.311539,-0.0035 0.538379,0.0075 0.724611,-0.0957 0.09623,-0.05462 0.169684,-0.1419367 0.207032,-0.2460944 0.04015,-0.1086929 0.05469,-0.2376986 0.05469,-0.4003909 V -7.027345 c 0,-0.1626932 -0.01453,-0.2923906 -0.05469,-0.4003908 -0.03756,-0.1040346 -0.110962,-0.1912814 -0.207032,-0.2460945 -0.186232,-0.1038467 -0.413072,-0.092241 -0.724611,-0.0957 h -0.002 -0.396485 v -1.037112 c 0,0 0.0051,-0.2457985 -0.123052,-0.5019541 -0.181761,-0.3344466 -0.533437,-0.5410951 -0.914065,-0.53711 h -2.423832 l 0.0039,-1.3847686 h 0.392579 c 0.31154,-0.0035 0.53838,0.0075 0.724612,-0.0957 0.09696,-0.05426 0.171149,-0.14162 0.208983,-0.246095 0.04016,-0.108691 0.05469,-0.237698 0.05469,-0.40039 v -1.287114 c 0,-0.162692 -0.01453,-0.290437 -0.05469,-0.398438 -0.03805,-0.104346 -0.112175,-0.191638 -0.208983,-0.246094 -0.186232,-0.103841 -0.413072,-0.09224 -0.724612,-0.09569 z"
       style="font-variant-ligatures:normal;font-variant-position:normal;font-variant-caps:normal;font-variant-numeric:normal;font-variant-alternates:normal;font-feature-settings:normal;text-indent:0;text-decoration-line:none;text-decoration-style:solid;text-decoration-color:#000000;text-transform:none;text-orientation:mixed;shape-padding:0;isolation:auto;mix-blend-mode:normal;fill:#ffffff;stroke-width:1"
       id="path8922" />
    <path
       id="path13715"
       style="opacity:0.5;fill:#000000;fill-opacity:1;stroke-width:2;stroke-linecap:round;stroke-linejoin:round"
       d="m 23,-18 a 9,9 0 0 0 -9,9 9,9 0 0 0 9,9 9,9 0 0 0 9,-9 9,9 0 0 0 -9,-9 z m 0,1 a 8,8 0 0 1 8,8 8,8 0 0 1 -8,8 8,8 0 0 1 -8,-8 8,8 0 0 1 8,-8 z" />
  </g>
  <g
     id="network-unavailable"
     transform="translate(-43.999992)">
    <rect
       style="opacity:1;fill:none;fill-opacity:1;stroke-width:2;stroke-linecap:round;stroke-linejoin:round"
       id="rect2996"
       width="22"
       height="22"
       x="0"
       y="0" />
    <path
       id="path3119"
       class="ColorScheme-Text"
       style="opacity:0.5;fill:currentColor;stroke-width:2;stroke-linecap:round;stroke-linejoin:round"
       d="M 9.4277344,4 C 8.9777368,4.005 8.647906,3.9877191 8.3789062,4.1367188 8.2399344,4.2163477 8.1340881,4.3433528 8.0800781,4.4941406 8.0210782,4.6511402 8,4.8353133 8,5.0703125 V 6.9277344 C 8,7.1627332 8.022078,7.3488598 8.080078,7.5058594 8.134358,7.6562878 8.2415894,7.7827211 8.3808593,7.8613281 8.6488581,8.0093277 8.9777368,7.995 9.4277344,8 H 10.003906 L 10,10 H 6.5 C 5.8330037,10 5.3617342,10.408344 5.1777344,10.777344 4.9927296,11.147342 5,11.5 5,11.5 V 13 H 4.4277344 C 3.9777368,13.005 3.647905,12.98772 3.3789062,13.136719 3.2399344,13.216349 3.1340881,13.343352 3.0800781,13.494141 3.0210782,13.651137 3,13.835316 3,14.070312 v 1.857422 c 0,0.235 0.022078,0.421129 0.080078,0.578125 0.05428,0.150429 0.1615114,0.276862 0.3007813,0.355469 C 3.6488581,17.009328 3.9777358,16.995 4.4277344,17 h 2.1464844 c 0.4499975,-0.005 0.7778752,0.01033 1.046875,-0.138672 0.1392698,-0.07861 0.2465003,-0.20504 0.3007812,-0.355469 0.058,-0.156996 0.080078,-0.343125 0.080078,-0.578125 v -1.857422 c 0,-0.234996 -0.022078,-0.420175 -0.080078,-0.576171 C 7.8676951,13.343147 7.7604986,13.216096 7.6210938,13.136719 7.352094,12.986719 7.0242163,13.005 6.5742188,13 H 6.5722656 6 v -1.5 c 0,0 0.0073,-0.147345 0.072266,-0.277344 C 6.1382656,11.091656 6.1670063,11 6.5,11 h 8 c 0.333,0 0.361734,0.09166 0.427734,0.222656 C 14.992734,11.352655 15,11.5 15,11.5 V 12 h 1 v -0.5 c 0,0 0.0073,-0.352658 -0.177734,-0.722656 C 15.5598,10.293042 15.050812,9.993818 14.5,10 h -3.498047 l 0.0039,-2 h 0.56836 c 0.449996,-0.005 0.777875,0.010328 1.046875,-0.1386719 0.139271,-0.078607 0.2465,-0.2050403 0.300781,-0.3554687 0.058,-0.1569996 0.08008,-0.3431262 0.08008,-0.578125 V 5.0703125 c 0,-0.2349992 -0.02208,-0.4201723 -0.08008,-0.5761719 C 12.867705,4.3431478 12.760501,4.2160956 12.621094,4.1367188 12.352094,3.9867192 12.024215,4.005 11.574219,4 h -0.002 z M 9,5 h 3 V 7 H 9 Z m -5,9 h 3 v 2 H 4 Z"
       sodipodi:nodetypes="cccsscccccsccccccssccccccsscccccccssccccccccccccssccccccccccccccc" />
    <path
       id="path2998"
       class="ColorScheme-Text"
       style="opacity:1;fill:currentColor;fill-opacity:1;stroke-width:2;stroke-linecap:round;stroke-linejoin:round"
       d="m 13.502031,12.793 -0.707031,0.707031 2,2.000001 -2,2 0.707031,0.707031 2,-2 2,2 0.707031,-0.707031 -2,-2 2,-2.000001 -0.707031,-0.707031 -2,2 z" />
  </g>
  <g
     id="network-wired-activated-locked">
    <rect
       style="fill:none;fill-opacity:1;stroke-width:2;stroke-linecap:round;stroke-linejoin:round"
       id="rect6281"
       width="22"
       height="22"
       x="22"
       y="0" />
    <path
       id="path7372"
       class="ColorScheme-Text"
       style="fill:currentColor;stroke-width:2;stroke-linecap:round;stroke-linejoin:round"
       d="M 31.427734,4 C 30.977737,4.005 30.647906,3.9877191 30.378906,4.1367188 30.239934,4.2163477 30.134088,4.3433528 30.080078,4.4941406 30.021078,4.6511402 30,4.8353133 30,5.0703125 v 1.8574219 c 0,0.2349988 0.02208,0.4211254 0.08008,0.578125 0.05428,0.1504284 0.161512,0.2768617 0.300781,0.3554687 C 30.648858,8.0093277 30.977736,7.995 31.427734,8 h 0.576172 L 32,10 h -3.5 c -0.666996,0 -1.138266,0.408344 -1.322266,0.777344 C 26.992736,11.147341 27,11.5 27,11.5 V 13 h -0.572266 c -0.449997,0.005 -0.779829,-0.01228 -1.048828,0.136719 -0.138972,0.07963 -0.244818,0.206633 -0.298828,0.357422 C 25.021078,13.651137 25,13.835316 25,14.070312 v 1.857422 c 0,0.235 0.02208,0.421129 0.08008,0.578125 0.05428,0.150429 0.161512,0.276862 0.300781,0.355469 0.267999,0.148 0.596877,0.133672 1.046875,0.138672 h 2.146485 c 0.449997,-0.005 0.777875,0.01033 1.046875,-0.138672 0.13927,-0.07861 0.2465,-0.20504 0.300781,-0.355469 0.058,-0.156996 0.08008,-0.343125 0.08008,-0.578125 v -1.857422 c 0,-0.234996 -0.02208,-0.420175 -0.08008,-0.576171 -0.05418,-0.150994 -0.161376,-0.278045 -0.300781,-0.357422 C 29.352094,12.986719 29.024216,13.005 28.574219,13 h -0.002 H 28 v -1.5 c 0,0 0.0073,-0.147345 0.07227,-0.277344 C 28.138266,11.091656 28.167006,11 28.5,11 h 9.414062 c -0.02381,-0.07352 -0.05267,-0.144378 -0.0918,-0.222615 C 37.5598,10.293042 37.050812,9.993818 36.5,10 h -3.498047 l 0.0039,-2 h 0.56836 c 0.449996,-0.005 0.777875,0.010328 1.046875,-0.1386719 0.139271,-0.078607 0.2465,-0.2050403 0.300781,-0.3554687 0.058,-0.1569996 0.08008,-0.3431262 0.08008,-0.578125 V 5.0703125 c 0,-0.2349992 -0.02208,-0.4201723 -0.08008,-0.5761719 C 34.867735,4.3431478 34.760501,4.2160956 34.621094,4.1367188 34.352094,3.9867192 34.024215,4.005 33.574219,4 h -0.002 z M 31,5 h 3 v 2 h -3 z m -5,9 h 3 v 2 h -3 z"
       sodipodi:nodetypes="cccsscccccsccccccssccccccssccccccccccccccccssccccccccccccccc" />
    <path
       id="rect6773"
       class="ColorScheme-Text"
       style="fill:currentColor;fill-opacity:1;stroke-width:2;stroke-linecap:round;stroke-linejoin:round"
       d="m 38,12 a 2,2 0 0 0 -2,2 v 1 h -1 v 4 h 6 v -4 h -1 v -1 a 2,2 0 0 0 -2,-2 z m 0,1 c 0.552283,0 1,0.447717 1,1 v 1 h -2 v -1 c 0,-0.552283 0.447717,-1 1,-1 z" />
  </g>
  <g
     id="network-wired"
     transform="translate(66)">
    <rect
       style="fill:none;fill-opacity:1;stroke-width:2;stroke-linecap:round;stroke-linejoin:round"
       id="rect8968"
       width="22"
       height="22"
       x="44"
       y="0" />
    <path
       d="M 53.427736,4 C 52.977738,4.005 52.647908,3.987719 52.378908,4.1367188 52.239936,4.2163478 52.13409,4.3433526 52.08008,4.4941406 52.02108,4.6511403 52,4.8353131 52,5.0703125 v 1.857422 c 0,0.2349991 0.02208,0.4211253 0.08008,0.578125 0.05428,0.1504286 0.161511,0.2768617 0.300781,0.3554688 0.267999,0.1479997 0.596877,0.1336719 1.046875,0.1386719 h 0.576172 l -0.0039,1.999999 h -3.5 c -0.666997,0 -1.138266,0.4083438 -1.322266,0.7773438 C 48.992737,11.147341 49.000002,11.5 49.000002,11.5 V 13 h -0.572266 c -0.449998,0.005 -0.779829,-0.01228 -1.048828,0.136719 -0.138972,0.07963 -0.244818,0.206633 -0.298828,0.357422 C 47.02108,13.651138 47,13.835315 47,14.070312 v 1.857422 c 0,0.235 0.02208,0.421128 0.08008,0.578125 0.05428,0.150429 0.161511,0.276862 0.300781,0.355469 0.267999,0.148 0.596876,0.133672 1.046875,0.138672 h 2.146485 c 0.449998,-0.005 0.777875,0.01033 1.046875,-0.138672 0.13927,-0.07861 0.2465,-0.20504 0.300781,-0.355469 0.058,-0.156997 0.08008,-0.343125 0.08008,-0.578125 v -1.857422 c 0,-0.234997 -0.02208,-0.420174 -0.08008,-0.576171 -0.05418,-0.150994 -0.161376,-0.278045 -0.300781,-0.357422 C 51.352096,12.986719 51.024219,13.005 50.574221,13 h -0.002 -0.572266 v -1.5 c 0,0 0.0073,-0.147345 0.07227,-0.277344 C 50.138225,11.091656 50.166965,11 50.499959,11 h 8 c 0.333,0 0.361734,0.09166 0.427734,0.222656 0.065,0.129999 0.07227,0.277344 0.07227,0.277344 V 13 h -0.572266 c -0.449997,0.005 -0.779828,-0.01228 -1.048828,0.136719 -0.138973,0.07963 -0.244819,0.206633 -0.298828,0.357422 -0.059,0.156997 -0.08008,0.341174 -0.08008,0.576171 v 1.857422 c 0,0.235 0.02208,0.421128 0.08008,0.578125 0.05428,0.150429 0.161513,0.276862 0.300781,0.355469 0.268,0.148 0.596878,0.133672 1.046875,0.138672 h 2.146485 c 0.449997,-0.005 0.777875,0.01033 1.046875,-0.138672 0.139271,-0.07861 0.2465,-0.20504 0.300781,-0.355469 0.058,-0.156997 0.08008,-0.343125 0.08008,-0.578125 v -1.857422 c 0,-0.234997 -0.02208,-0.420174 -0.08008,-0.576171 -0.05418,-0.150994 -0.161377,-0.278045 -0.300783,-0.357422 C 61.352055,12.986719 61.024177,13.005 60.57418,13 h -0.002 -0.572219 v -1.5 c 0,0 0.0073,-0.352659 -0.177734,-0.722657 -0.262466,-0.484302 -0.771453,-0.7835258 -1.322266,-0.7773438 h -3.498047 l 0.0039,-1.999999 h 0.56836 c 0.449997,-0.005 0.777875,0.010328 1.046875,-0.1386719 0.139271,-0.078607 0.2465,-0.2050402 0.300781,-0.3554688 0.058,-0.1569997 0.08008,-0.3431259 0.08008,-0.578125 v -1.857422 c 0,-0.2349994 -0.02208,-0.4201722 -0.08008,-0.5761719 C 56.86766,4.3431476 56.760462,4.2160957 56.621055,4.1367188 56.352055,3.9867191 56.024177,4.005 55.57418,4 h -0.002 z m -0.427734,1 h 3 v 2.0000001 h -3 z m -5,9 h 3 v 2 h -3 z m 10,0 h 3 v 2 h -3 z"
       class="ColorScheme-Text"
       style="fill:currentColor;stroke-width:2;stroke-linecap:round;stroke-linejoin:round"
       id="path23608"
       sodipodi:nodetypes="cccsscccccsccccccssccccccsscccccccssccccccssccccccsscccccccccccccsscccccccccccccccccccc" />
  </g>
  <g
     id="network-wireless-on"
     transform="translate(-22)">
    <rect
       style="fill:none;fill-opacity:1;stroke-width:2;stroke-linecap:round;stroke-linejoin:round"
       id="rect1586"
       width="22"
       height="22"
       x="22"
       y="22" />
    <path
       id="path2419"
       class="ColorScheme-Text"
       style="fill:currentColor;stroke-width:2;stroke-linecap:round;stroke-linejoin:round"
       d="m 33.003015,27 c -2.609997,0 -5.220393,0.83758 -7.400391,2.517578 l -0.265624,0.205078 0.203124,0.263672 7.457032,9.671875 7.667968,-9.931641 -0.263671,-0.205078 C 38.281496,27.885849 35.68061,26.998774 33.003015,27 Z" />
  </g>
  <g
     id="network-wireless-available"
     transform="translate(-22,22)">
    <rect
       style="fill:none;fill-opacity:1;stroke-width:2;stroke-linecap:round;stroke-linejoin:round"
       id="rect2475"
       width="22"
       height="22"
       x="22"
       y="22" />
    <path
       id="path2542"
       class="ColorScheme-Text"
       style="fill:currentColor;fill-opacity:1;stroke-width:2;stroke-linecap:round;stroke-linejoin:round"
       d="m 33.109375,27 c -0.532999,0 -1.036719,0.06159 -1.511719,0.183594 -0.403797,0.106606 -0.794042,0.255436 -1.166015,0.445312 l -0.658203,0.458985 0.566406,0.875 0.451172,-0.335938 c 0.687999,-0.35 1.393235,-0.539062 2.115234,-0.539062 0.606999,0 1.090875,0.159234 1.421875,0.490234 0.327,0.316 0.492187,0.737329 0.492187,1.236328 0,0.311 -0.0728,0.602188 -0.216796,0.867188 -0.13,0.257999 -0.298813,0.503328 -0.507813,0.736328 -0.205,0.227 -0.420438,0.454641 -0.648437,0.68164 v 0.002 c -0.222,0.211 -0.432813,0.44322 -0.632813,0.699219 v 0.002 c -0.196661,0.240081 -0.362175,0.50531 -0.492187,0.78711 -0.121394,0.296557 -0.182335,0.615138 -0.177735,0.935547 0,0.207999 0.02464,0.40275 0.05664,0.59375 h 1.08789 c -9.99e-4,-0.023 -0.0098,-0.04436 -0.0098,-0.06836 v -0.1875 c 0,-0.386999 0.07742,-0.738828 0.232422,-1.048828 0.15,-0.314 0.335641,-0.599469 0.55664,-0.855469 l 0.002,-0.002 c 0.218,-0.263999 0.457704,-0.515859 0.720704,-0.755859 0.250228,-0.227978 0.483356,-0.473623 0.699218,-0.734375 0.21,-0.253 0.384344,-0.521641 0.527344,-0.806641 0.138,-0.287999 0.208984,-0.613422 0.208984,-0.982422 0,-0.291999 -0.04748,-0.597062 -0.146484,-0.914062 l -0.002,-0.002 v -0.002 c -0.08688,-0.324256 -0.250914,-0.622248 -0.480469,-0.867188 -0.234,-0.255 -0.552031,-0.464906 -0.957031,-0.628906 v -0.002 C 34.255625,27.089719 33.744327,27 33.111328,27 Z m -0.269531,9.962891 c -0.326,0 -0.561188,0.100781 -0.742188,0.300781 -0.181358,0.194585 -0.280359,0.452801 -0.27539,0.71875 0,0.279 0.08939,0.510797 0.27539,0.716797 0.18,0.2 0.417188,0.300781 0.742188,0.300781 0.324999,0 0.561187,-0.09978 0.742187,-0.300781 0.186,-0.206 0.275391,-0.438797 0.275391,-0.716797 0,-0.28 -0.08939,-0.51275 -0.275391,-0.71875 -0.18,-0.2 -0.417188,-0.300781 -0.742187,-0.300781 z" />
    <path
       id="path2624"
       class="ColorScheme-Text"
       style="opacity:0.5;fill:currentColor;fill-opacity:1;stroke-width:2;stroke-linecap:round;stroke-linejoin:round"
       d="m 36.605469,27.696289 c 0.2,0.289 0.368938,0.6005 0.460938,0.9375 0.036,0.12 0.05503,0.239328 0.08203,0.361328 0.673999,0.287 1.325266,0.636594 1.947266,1.058594 l -4.738282,6.142578 v 0.06055 h -0.05078 l -0.210937,0.273437 c 0.095,0.055 0.183812,0.120126 0.257812,0.203126 0.157,0.173999 0.282047,0.387281 0.373047,0.613281 l 5.804687,-7.517578 -0.263672,-0.205079 c -1.100744,-0.848427 -2.339553,-1.50078 -3.662109,-1.927734 z m -8.125,0.236328 c -1.058999,0.411 -2.07672,0.966501 -3.011719,1.6875 l -0.265625,0.205078 0.205079,0.263672 5.597656,7.261719 c 0.09,-0.228 0.218953,-0.442188 0.376953,-0.617187 0.074,-0.083 0.159859,-0.148126 0.255859,-0.203126 l -0.210937,-0.273437 h -0.04297 l -0.01172,-0.07031 -4.732422,-6.136718 c 0.736518,-0.498174 1.527888,-0.909547 2.359375,-1.22461 l -0.558593,-0.865234 z" />
  </g>
  <g
     id="network-wireless-disconnected"
     transform="translate(-22)">
    <rect
       style="opacity:1;fill:none;fill-opacity:1;stroke-width:2;stroke-linecap:round;stroke-linejoin:round"
       id="rect6825"
       width="21.999992"
       height="22"
       x="22"
       y="66" />
    <path
       id="path6985"
       class="ColorScheme-Text"
       style="fill:currentColor;fill-opacity:1;stroke-width:2;stroke-linecap:round;stroke-linejoin:round"
       d="M 35.499109,78.792969 34.792078,79.5 l 2,2 -2,2 0.707031,0.707031 2,-2 2,2 L 40.20614,83.5 l -2,-2 2,-2 -0.707031,-0.707031 -2,2 z" />
    <path
       id="path6900"
       class="ColorScheme-Text"
       style="opacity:0.5;fill:currentColor;fill-opacity:1;stroke-width:2;stroke-linecap:round;stroke-linejoin:round"
       d="m 33.003015,71 c -2.609997,0 -5.220393,0.83756 -7.40039,2.517578 l -0.265625,0.205078 0.205078,0.263672 7.455078,9.671875 1.978515,-2.5625 -0.710937,-0.710937 -1.263672,1.636718 L 26.7745,73.947266 C 28.657498,72.669267 30.822018,71.999 33.003015,72 c 2.180998,0 4.343565,0.672143 6.226563,1.951172 l -3.117188,4.039062 0.712891,0.712891 3.841797,-4.976563 -0.265625,-0.205078 C 38.281993,71.886005 35.680123,70.999271 33.003015,71 Z" />
  </g>
  <g
     id="network-wireless-off"
     transform="translate(-43.999992,-66)">
    <rect
       style="opacity:1;fill:none;fill-opacity:1;stroke-width:2;stroke-linecap:round;stroke-linejoin:round"
       id="rect7209"
       width="21.999992"
       height="22"
       x="22"
       y="88" />
    <path
       d="m 33.00302,93.000001 c -2.61,0 -5.2204,0.83758 -7.40039,2.517578 l -0.26563,0.205078 0.20508,0.263672 7.45508,9.671871 7.66992,-9.931637 -0.26563,-0.205078 C 38.2815,93.88585 35.68061,92.998775 33.00302,93.000001 Z m 0,1 c 2.18099,0 4.34356,0.672173 6.22656,1.951172 l -6.22852,8.070307 -6.22656,-8.074213 c 1.883,-1.277999 4.04752,-1.948266 6.22852,-1.947266 z"
       class="ColorScheme-Text"
       style="opacity:0.5;fill:currentColor;fill-opacity:1;stroke-width:2;stroke-linecap:round;stroke-linejoin:round"
       id="path7543" />
  </g>
  <g
     id="network-wireless-100"
     transform="translate(-22)">
    <rect
       style="fill:none;fill-opacity:1;stroke-width:2;stroke-linecap:round;stroke-linejoin:round"
       id="rect3531"
       width="22"
       height="22"
       x="44"
       y="22" />
    <path
       id="path2419-6"
       class="ColorScheme-Text"
       style="fill:currentColor;stroke-width:2;stroke-linecap:round;stroke-linejoin:round"
       d="m 55.003015,27 c -2.609997,0 -5.220393,0.83758 -7.400391,2.517578 l -0.265624,0.205078 0.203124,0.263672 7.457032,9.671875 7.667968,-9.931641 -0.263671,-0.205078 C 60.281496,27.885849 57.68061,26.998774 55.003015,27 Z"
       sodipodi:nodetypes="cccccccc" />
  </g>
  <g
     id="network-wireless-80"
     transform="translate(-22)">
    <rect
       style="fill:none;fill-opacity:1;stroke-width:2;stroke-linecap:round;stroke-linejoin:round"
       id="rect3533"
       width="22"
       height="22"
       x="66"
       y="22" />
    <path
       id="path4162"
       class="ColorScheme-Text"
       style="fill:currentColor;fill-opacity:1;stroke-width:2;stroke-linecap:round;stroke-linejoin:round"
       d="m 77.003906,27 c -2.609997,0 -5.220403,0.837582 -7.40039,2.517578 l -0.265625,0.205078 0.205078,0.263672 7.455078,9.671875 7.669922,-9.931641 -0.265625,-0.205078 C 82.282396,27.885851 79.681494,26.998774 77.003906,27 Z m 0,1 c 2.180988,0 4.343565,0.672174 6.226563,1.951172 l -1.203125,1.558594 c -3.044182,-2.010533 -7.004793,-2.011211 -10.050782,-0.0039 l -1.201171,-1.5586 C 72.658389,28.669268 74.822908,27.999 77.003906,28 Z"
       sodipodi:nodetypes="cccccccccccccc" />
  </g>
  <g
     id="network-wireless-60"
     transform="translate(-22)">
    <rect
       style="fill:none;fill-opacity:1;stroke-width:2;stroke-linecap:round;stroke-linejoin:round"
       id="rect3637"
       width="22"
       height="22"
       x="88"
       y="22" />
    <path
       id="path4195"
       class="ColorScheme-Text"
       style="fill:currentColor;fill-opacity:1;stroke-width:2;stroke-linecap:round;stroke-linejoin:round"
       d="m 99.003906,27 c -2.609994,0 -5.220406,0.837584 -7.40039,2.517578 l -0.265625,0.205078 0.205078,0.263672 7.455078,9.671875 7.669923,-9.931641 -0.26563,-0.205078 C 104.28241,27.885853 101.68149,26.998774 99.003906,27 Z m 0,1 c 2.180984,0 4.343564,0.672175 6.226564,1.951172 l -1.82813,2.36914 c -2.66652,-1.757878 -6.132589,-1.758798 -8.800778,-0.0039 l -1.826171,-2.36914 C 94.658387,28.669269 96.82291,27.999 99.003906,28 Z"
       sodipodi:nodetypes="cccccccccccccc" />
  </g>
  <g
     id="network-wireless-40"
     transform="translate(-22)">
    <rect
       style="fill:none;fill-opacity:1;stroke-width:2;stroke-linecap:round;stroke-linejoin:round"
       id="rect3639"
       width="22"
       height="22"
       x="110"
       y="22" />
    <path
       id="path4386"
       class="ColorScheme-Text"
       style="fill:currentColor;fill-opacity:1;stroke-width:2;stroke-linecap:round;stroke-linejoin:round"
       d="m 121.00391,27 c -2.61,0 -5.22041,0.837582 -7.40039,2.517578 l -0.26563,0.205078 0.20508,0.263672 7.45508,9.671875 7.66992,-9.931641 -0.26563,-0.205078 C 126.2824,27.885851 123.68149,26.998774 121.00391,27 Z m 0,1 c 2.18098,0 4.34356,0.672174 6.22656,1.951172 l -3.05469,3.958984 c -1.93961,-1.210652 -4.40672,-1.211965 -6.34766,-0.0039 l -3.05273,-3.958984 C 116.65839,28.669268 118.82291,27.999 121.00391,28 Z"
       sodipodi:nodetypes="cccccccccccccc" />
  </g>
  <g
     id="network-wireless-20"
     transform="translate(-22)">
    <rect
       style="fill:none;fill-opacity:1;stroke-width:2;stroke-linecap:round;stroke-linejoin:round"
       id="rect3641"
       width="22"
       height="22"
       x="132"
       y="22" />
    <path
       id="path4457"
       class="ColorScheme-Text"
       style="fill:currentColor;fill-opacity:1;stroke-width:2;stroke-linecap:round;stroke-linejoin:round"
       d="m 143.00391,27 c -2.61,0 -5.22041,0.837582 -7.40039,2.517578 l -0.26563,0.205078 0.20508,0.263672 7.45508,9.671875 7.66992,-9.931641 -0.26563,-0.205078 C 148.2824,27.885851 145.68149,26.998774 143.00391,27 Z m 0,1 c 2.18098,0 4.34356,0.672174 6.22656,1.951172 l -4.27344,5.537109 c -1.21076,-0.659872 -2.68244,-0.649862 -3.88476,0.03125 l -4.29688,-5.572265 C 138.65839,28.669268 140.82291,27.999 143.00391,28 Z"
       sodipodi:nodetypes="cccccccccccccc" />
  </g>
  <g
     id="network-wireless-0"
     transform="translate(-22)">
    <rect
       style="fill:none;fill-opacity:1;stroke-width:2;stroke-linecap:round;stroke-linejoin:round"
       id="rect3682"
       width="22"
       height="22"
       x="154"
       y="22" />
    <path
       id="path3898"
       class="ColorScheme-Text"
       style="fill:currentColor;fill-opacity:1;stroke-width:2;stroke-linecap:round;stroke-linejoin:round"
       d="m 165.00302,27.000001 c -2.61,0 -5.2204,0.83758 -7.40039,2.517578 l -0.26563,0.205078 0.20508,0.263672 7.45508,9.671875 7.66992,-9.931641 -0.26563,-0.205078 c -2.11995,-1.635635 -4.72084,-2.52271 -7.39843,-2.521484 z m 0,1 c 2.18099,0 4.34356,0.672173 6.22656,1.951172 l -6.22852,8.070312 -6.22656,-8.074218 c 1.883,-1.277999 4.04752,-1.948266 6.22852,-1.947266 z"
       sodipodi:nodetypes="ccccccccccccc" />
  </g>
  <g
     id="network-wireless-connected-100"
     transform="translate(-22)">
    <rect
       style="fill:none;fill-opacity:1;stroke-width:2;stroke-linecap:round;stroke-linejoin:round"
       id="rect4794"
       width="22"
       height="22"
       x="44"
       y="44" />
    <path
       d="m 55.003015,49.000001 c -2.609997,0 -5.220393,0.83758 -7.400391,2.517578 l -0.265624,0.205078 0.203124,0.263672 7.457032,9.671876 7.667968,-9.931642 -0.263671,-0.205078 C 60.281496,49.88585 57.68061,48.998775 55.003015,49.000001 Z"
       class="ColorScheme-Text"
       style="fill:currentColor;stroke-width:2;stroke-linecap:round;stroke-linejoin:round"
       id="path4871"
       sodipodi:nodetypes="cccccccc" />
  </g>
  <g
     id="network-wireless-connected-80"
     transform="translate(-22)">
    <rect
       style="fill:none;fill-opacity:1;stroke-width:2;stroke-linecap:round;stroke-linejoin:round"
       id="rect4796"
       width="22"
       height="22"
       x="66"
       y="44" />
    <path
       d="m 77.003015,49.000001 c -2.609997,0 -5.220403,0.837582 -7.40039,2.517578 l -0.265625,0.205078 0.205078,0.263672 7.455078,9.671876 7.669922,-9.931642 -0.265625,-0.205078 c -2.119948,-1.635633 -4.72085,-2.52271 -7.398438,-2.521484 z m 0,1 c 2.180988,0 4.343565,0.672174 6.226563,1.951172 l -1.203125,1.558594 C 78.982271,51.499234 75.02166,51.498556 71.975671,53.505867 L 70.7745,51.947274 c 1.882998,-1.277998 4.047517,-1.948266 6.228515,-1.947266 z"
       class="ColorScheme-Text"
       style="fill:currentColor;fill-opacity:1;stroke-width:2;stroke-linecap:round;stroke-linejoin:round"
       id="path5458"
       sodipodi:nodetypes="ccccccccsccccss" />
  </g>
  <g
     id="network-wireless-connected-60"
     transform="translate(-22)">
    <rect
       style="fill:none;fill-opacity:1;stroke-width:2;stroke-linecap:round;stroke-linejoin:round"
       id="rect4798"
       width="22"
       height="22"
       x="88"
       y="44" />
    <path
       d="m 99.003015,49.000001 c -2.609994,0 -5.220406,0.837584 -7.40039,2.517578 l -0.265625,0.205078 0.205078,0.263672 7.455078,9.671876 7.669924,-9.931642 -0.26563,-0.205078 c -2.11993,-1.635631 -4.72085,-2.52271 -7.398435,-2.521484 z m 0,1 c 2.180985,0 4.343565,0.672175 6.226565,1.951172 l -1.82813,2.36914 c -2.66652,-1.757878 -6.13259,-1.758798 -8.800779,-0.0039 L 92.7745,51.947273 c 1.882996,-1.277997 4.047519,-1.948266 6.228515,-1.947266 z"
       class="ColorScheme-Text"
       style="fill:currentColor;fill-opacity:1;stroke-width:2;stroke-linecap:round;stroke-linejoin:round"
       id="path5490"
       sodipodi:nodetypes="ccccccccsccccss" />
  </g>
  <g
     id="network-wireless-connected-40"
     transform="translate(-22)">
    <rect
       style="fill:none;fill-opacity:1;stroke-width:2;stroke-linecap:round;stroke-linejoin:round"
       id="rect4800"
       width="22"
       height="22"
       x="110"
       y="44" />
    <path
       d="m 121.00302,49.000001 c -2.61,0 -5.22041,0.837582 -7.40039,2.517578 l -0.26563,0.205078 0.20508,0.263672 7.45508,9.671876 7.66992,-9.931642 -0.26563,-0.205078 c -2.11994,-1.635633 -4.72085,-2.52271 -7.39843,-2.521484 z m 0,1 c 2.18098,0 4.34356,0.672174 6.22656,1.951172 l -3.05469,3.958985 c -1.93961,-1.210653 -4.40672,-1.211966 -6.34766,-0.0039 l -3.05273,-3.958985 c 1.883,-1.277998 4.04752,-1.948266 6.22852,-1.947266 z"
       class="ColorScheme-Text"
       style="fill:currentColor;fill-opacity:1;stroke-width:2;stroke-linecap:round;stroke-linejoin:round"
       id="path5537"
       sodipodi:nodetypes="ccccccccsccccss" />
  </g>
  <g
     id="network-wireless-connected-20"
     transform="translate(-22)">
    <rect
       style="fill:none;fill-opacity:1;stroke-width:2;stroke-linecap:round;stroke-linejoin:round"
       id="rect4802"
       width="22"
       height="22"
       x="132"
       y="44" />
    <path
       d="m 143.00302,49.000001 c -2.61,0 -5.22041,0.837582 -7.40039,2.517578 l -0.26563,0.205078 0.20508,0.263672 7.45508,9.671876 7.66992,-9.931642 -0.26563,-0.205078 c -2.11994,-1.635633 -4.72085,-2.52271 -7.39843,-2.521484 z m 0,1 c 2.18098,0 4.34356,0.672174 6.22656,1.951172 l -4.27344,5.53711 c -1.21076,-0.659872 -2.68244,-0.649862 -3.88476,0.03125 l -4.29688,-5.572266 c 1.883,-1.277998 4.04752,-1.948266 6.22852,-1.947266 z"
       class="ColorScheme-Text"
       style="fill:currentColor;fill-opacity:1;stroke-width:2;stroke-linecap:round;stroke-linejoin:round"
       id="path5569"
       sodipodi:nodetypes="cccccccccccccc" />
  </g>
  <g
     id="network-wireless-connected-0"
     transform="translate(-22)">
    <rect
       style="fill:none;fill-opacity:1;stroke-width:2;stroke-linecap:round;stroke-linejoin:round"
       id="rect4804"
       width="22"
       height="22"
       x="154"
       y="44" />
    <path
       d="m 165.00302,49.000001 c -2.61,0 -5.2204,0.83758 -7.40039,2.517578 l -0.26563,0.205078 0.20508,0.263672 7.45508,9.671876 7.66992,-9.931642 -0.26563,-0.205078 c -2.11995,-1.635635 -4.72084,-2.52271 -7.39843,-2.521484 z m 0,1 c 2.18099,0 4.34356,0.672173 6.22656,1.951172 l -6.22852,8.070313 -6.22656,-8.074219 c 1.883,-1.277999 4.04752,-1.948266 6.22852,-1.947266 z"
       class="ColorScheme-Text"
       style="fill:currentColor;fill-opacity:1;stroke-width:2;stroke-linecap:round;stroke-linejoin:round"
       id="path5612"
       sodipodi:nodetypes="ccccccccccccc" />
  </g>
  <g
     id="network-wireless-100-locked"
     transform="translate(-22)">
    <rect
       style="fill:none;fill-opacity:1;stroke-width:2;stroke-linecap:round;stroke-linejoin:round"
       id="rect5709"
       width="22"
       height="22"
       x="43.999992"
       y="66" />
    <path
       id="path6043"
       class="ColorScheme-Text"
       style="fill:currentColor;stroke-width:2;stroke-linecap:round;stroke-linejoin:round"
       d="m 55.003906,71 c -2.609991,0 -5.220398,0.837584 -7.40039,2.517578 l -0.265625,0.205078 0.203125,0.263672 7.457031,9.671875 L 56,82.357422 V 80 h 1 c 0.02,-1.634996 1.35991,-3 3.003906,-3 0.04334,0 0.08273,0.01141 0.125,0.01367 l 2.53711,-3.28711 -0.263672,-0.205078 C 60.282391,71.885855 57.681497,70.998774 55.003906,71 Z M 60,78 c -1.107999,0 -2,0.91025 -2,2.03125 V 81 h -1 v 4 h 6 V 81 H 62 V 80.03125 C 62,78.911251 61.107999,78 60,78 Z m 0,1 c 0.553999,0 1,0.442 1,1 v 1 h -2 v -1 c 0,-0.558 0.446001,-1 1,-1 z" />
  </g>
  <g
     id="network-wireless-80-locked"
     transform="translate(-22)">
    <rect
       style="fill:none;fill-opacity:1;stroke-width:2;stroke-linecap:round;stroke-linejoin:round"
       id="rect5711"
       width="22"
       height="22"
       x="65.999992"
       y="66" />
    <path
       id="path6084"
       class="ColorScheme-Text"
       style="fill:currentColor;fill-opacity:1;stroke-width:2;stroke-linecap:round;stroke-linejoin:round"
       d="m 77.003906,71 c -2.609991,0 -5.220409,0.837586 -7.40039,2.517578 l -0.265625,0.205078 0.205078,0.263672 7.455078,9.671875 L 78,82.357422 V 80 h 1 c 0.02,-1.634996 1.35991,-3 3.003906,-3 0.04334,0 0.08363,0.02262 0.125,0.01367 l 2.539063,-3.28711 -0.265625,-0.205078 C 82.2824,71.885857 79.68149,70.998774 77.003906,71 Z m 0,1 c 2.180984,0 4.343569,0.672176 6.226563,1.951172 l -1.203125,1.558594 c -3.044176,-2.010529 -7.004799,-2.011214 -10.050782,-0.0039 L 70.775391,73.947266 C 72.658385,72.66927 74.822912,71.999 77.003906,72 Z M 82,78 c -1.107999,0 -2,0.910249 -2,2.03125 V 81 h -1 v 4 h 6 V 81 H 84 V 80.03125 C 84,78.91125 83.107999,78 82,78 Z m 0,1 c 0.553999,0 1,0.442 1,1 v 1 h -2 v -1 c 0,-0.558 0.446001,-1 1,-1 z" />
  </g>
  <g
     id="network-wireless-60-locked"
     transform="translate(-22)">
    <rect
       style="fill:none;fill-opacity:1;stroke-width:2;stroke-linecap:round;stroke-linejoin:round"
       id="rect5713"
       width="22"
       height="22"
       x="87.999992"
       y="66" />
    <path
       id="path6631"
       class="ColorScheme-Text"
       style="fill:currentColor;fill-opacity:1;stroke-width:2;stroke-linecap:round;stroke-linejoin:round"
       d="m 99.003906,71 c -2.609988,0 -5.220412,0.837588 -7.40039,2.517578 l -0.265625,0.205078 0.205078,0.263672 7.455078,9.671875 L 100,82.357422 V 80 h 1 c 0.02,-1.634996 1.35991,-3 3.00391,-3 0.0433,0 0.0835,0.0224 0.125,0.01367 l 2.53906,-3.28711 -0.26563,-0.205078 C 104.28238,71.885859 101.68149,70.998774 99.003906,71 Z m 0,1 c 2.180984,0 4.343564,0.672177 6.226564,1.951172 l -1.82813,2.36914 c -2.6665,-1.757874 -6.132593,-1.758806 -8.800778,-0.0039 l -1.826171,-2.36914 C 94.658383,72.669265 96.822914,71.999 99.003906,72 Z M 104,78 c -1.108,0 -2,0.91025 -2,2.03125 V 81 h -1 v 4 h 6 v -4 h -1 V 80.03125 C 106,78.911251 105.108,78 104,78 Z m 0,1 c 0.554,0 1,0.442 1,1 v 1 h -2 v -1 c 0,-0.558 0.446,-1 1,-1 z" />
  </g>
  <g
     id="network-wireless-40-locked"
     transform="translate(-22)">
    <rect
       style="fill:none;fill-opacity:1;stroke-width:2;stroke-linecap:round;stroke-linejoin:round"
       id="rect5715"
       width="22"
       height="22"
       x="109.99999"
       y="66" />
    <path
       id="path6601"
       class="ColorScheme-Text"
       style="fill:currentColor;fill-opacity:1;stroke-width:2;stroke-linecap:round;stroke-linejoin:round"
       d="m 121.00391,71 c -2.61,0 -5.22043,0.837586 -7.40039,2.517578 l -0.26563,0.205078 0.20508,0.263672 7.45508,9.671875 L 122,82.357422 V 80 h 1 c 0.0105,-0.862198 0.38698,-1.649717 0.98242,-2.201172 -1.90857,-1.094923 -4.27662,-1.061266 -6.1543,0.107422 l -3.05273,-3.958984 C 116.65839,72.66927 118.82291,71.999 121.00391,72 c 2.18096,0 4.34356,0.672176 6.22656,1.951172 l -2.62695,3.404297 C 125.02165,77.129498 125.49877,77 126.00391,77 c 0.0433,0 0.0832,0.02043 0.125,0.01367 l 2.53906,-3.28711 -0.26563,-0.205078 C 126.28242,71.885857 123.68147,70.998774 121.00391,71 Z M 126,78 c -1.108,0 -2,0.91025 -2,2.03125 V 81 h -1 v 4 h 6 v -4 h -1 V 80.03125 C 128,78.911251 127.108,78 126,78 Z m 0,1 c 0.554,0 1,0.442 1,1 v 1 h -2 v -1 c 0,-0.558 0.446,-1 1,-1 z" />
  </g>
  <g
     id="network-wireless-20-locked"
     transform="translate(-22)">
    <rect
       style="fill:none;fill-opacity:1;stroke-width:2;stroke-linecap:round;stroke-linejoin:round"
       id="rect5717"
       width="22"
       height="22"
       x="132"
       y="66" />
    <path
       id="path6571"
       class="ColorScheme-Text"
       style="fill:currentColor;fill-opacity:1;stroke-width:2;stroke-linecap:round;stroke-linejoin:round"
       d="m 143.00391,71 c -2.61,0 -5.22043,0.837586 -7.40039,2.517578 l -0.26563,0.205078 0.20508,0.263672 7.45508,9.671875 L 144,82.357422 V 80 h 1 c 0.003,-0.234966 0.0355,-0.46303 0.0898,-0.683594 l -0.13281,0.171875 c -1.21076,-0.65987 -2.68246,-0.64986 -3.88476,0.03125 l -4.29688,-5.572265 C 138.65839,72.66927 140.82291,71.999 143.00391,72 c 2.18096,0 4.34356,0.672176 6.22656,1.951172 l -2.62891,3.40625 C 147.02029,77.130681 147.49785,77 148.00391,77 c 0.0433,0 0.0827,0.01256 0.125,0.01367 l 2.53906,-3.28711 -0.26563,-0.205078 C 148.28242,71.885857 145.68147,70.998774 143.00391,71 Z M 148,78 c -1.108,0 -2,0.91025 -2,2.03125 V 81 h -1 v 4 h 6 v -4 h -1 V 80.03125 C 150,78.911251 149.108,78 148,78 Z m 0,1 c 0.554,0 1,0.442 1,1 v 1 h -2 v -1 c 0,-0.558 0.446,-1 1,-1 z" />
  </g>
  <g
     id="network-wireless-0-locked"
     transform="translate(-22)">
    <rect
       style="fill:none;fill-opacity:1;stroke-width:2;stroke-linecap:round;stroke-linejoin:round"
       id="rect5719"
       width="22"
       height="22"
       x="154"
       y="66" />
    <path
       id="path6219"
       class="ColorScheme-Text"
       style="fill:currentColor;fill-opacity:1;stroke-width:2;stroke-linecap:round;stroke-linejoin:round"
       d="m 165.00391,71 c -2.61,0 -5.22042,0.837584 -7.40039,2.517578 l -0.26563,0.205078 0.20508,0.263672 7.45508,9.671875 L 166,82.357422 v -1.628906 l -0.99805,1.292968 -6.22656,-8.074218 c 1.883,-1.277997 4.04752,-1.948266 6.22852,-1.947266 2.18097,0 4.34356,0.672175 6.22656,1.951172 l -2.62891,3.404297 C 169.02006,77.128993 169.49817,77 170.00391,77 c 0.0433,0 0.0827,0.01141 0.125,0.01367 l 2.53906,-3.28711 -0.26563,-0.205078 C 170.28241,71.885855 167.68148,70.998774 165.00391,71 Z M 170,78 c -1.108,0 -2,0.910249 -2,2.03125 V 81 h -1 v 4 h 6 v -4 h -1 V 80.03125 C 172,78.91125 171.108,78 170,78 Z m 0,1 c 0.554,0 1,0.442 1,1 v 1 h -2 v -1 c 0,-0.558 0.446,-1 1,-1 z"
       sodipodi:nodetypes="ccccccccccccsccccssccccccssssccss" />
  </g>
  <g
     id="network-wired-activated-limited"
     transform="translate(-44)">
    <rect
       style="fill:none;fill-opacity:1;stroke-width:2;stroke-linecap:round;stroke-linejoin:round"
       id="rect7595"
       width="22"
       height="22"
       x="88"
       y="0" />
    <path
       d="m 97.427824,4 c -0.44999,0.005 -0.77983,-0.012281 -1.04883,0.1367188 -0.13897,0.079629 -0.24481,0.206634 -0.29882,0.3574218 -0.059,0.1569996 -0.0801,0.3411727 -0.0801,0.5761719 v 1.8574219 c 0,0.234999 0.0221,0.421126 0.0801,0.578125 0.0543,0.150429 0.16151,0.276862 0.30078,0.355469 0.268,0.148 0.59688,0.133672 1.04687,0.138672 h 0.57618 l -0.004,1.999999 h -3.5 c -0.666998,0 -1.138268,0.4083436 -1.322268,0.7773436 C 92.992732,11.147342 93.000002,11.5 93.000002,11.5 V 13 h -0.572266 c -0.449997,0.005 -0.779829,-0.01228 -1.048828,0.136719 -0.138972,0.07963 -0.244818,0.206633 -0.298828,0.357422 C 91.02108,13.651137 91,13.835316 91,14.070312 v 1.857422 c 0,0.235 0.02208,0.421129 0.08008,0.578125 0.05428,0.150429 0.161511,0.276862 0.300781,0.355469 0.267999,0.148 0.596877,0.133672 1.046875,0.138672 h 2.146486 c 0.45,-0.005 0.77787,0.01033 1.04687,-0.138672 0.13927,-0.07861 0.2465,-0.20504 0.30078,-0.355469 0.058,-0.156996 0.0801,-0.343125 0.0801,-0.578125 v -1.857422 c 0,-0.234996 -0.0221,-0.420175 -0.0801,-0.576171 -0.0542,-0.150994 -0.16137,-0.278045 -0.30078,-0.357422 -0.269,-0.15 -0.59687,-0.131719 -1.04687,-0.136719 h -0.002 H 94 v -1.5 c 0,0 0.0073,-0.147345 0.07227,-0.277344 C 94.13827,11.091656 94.16701,11 94.500002,11 H 102.5 c 0.333,0 0.36174,0.09166 0.42774,0.222656 0.065,0.129999 0.0723,0.277344 0.0723,0.277344 V 12 h 1 v -0.5 c 0,0 0.007,-0.352658 -0.17774,-0.722657 -0.26246,-0.484302 -0.77145,-0.7835246 -1.32226,-0.7773436 h -3.498048 l 0.004,-1.999999 h 0.56836 c 0.449998,-0.005 0.777878,0.01033 1.046878,-0.138672 0.13927,-0.07861 0.2465,-0.20504 0.30078,-0.355469 0.058,-0.156999 0.0801,-0.343126 0.0801,-0.578125 V 5.0703125 c 0,-0.2349992 -0.0221,-0.4201723 -0.0801,-0.5761719 -0.0542,-0.1509928 -0.16137,-0.278045 -0.30078,-0.3574218 C 100.35223,3.9867192 100.02435,4.005 99.574362,4 h -0.002 z m -0.42773,1 h 2.999996 v 2.0000004 h -2.999996 z m -5.000002,9 h 3.000002 v 2 h -3.000002 z"
       class="ColorScheme-Text"
       style="opacity:0.5;fill:currentColor;stroke-width:2;stroke-linecap:round;stroke-linejoin:round"
       id="path7698" />
    <path
       d="m 103.48033,12.729478 c -0.14951,0.0076 -0.285,0.09043 -0.36,0.219999 l -3.061,5.397002 c -0.166594,0.291209 0.0435,0.653758 0.379,0.654 h 6.125 c 0.33505,-10e-4 0.54438,-0.363176 0.378,-0.654 l -3.058,-5.397002 c -0.0827,-0.142824 -0.23812,-0.227661 -0.403,-0.219999 z m -0.48,1.271 h 1 v 0.168 c 0,0.349 -0.016,0.667 -0.047,0.957 -0.03,0.290001 -0.069,0.581001 -0.115,0.875001 h -0.666 c -0.0515,-0.290184 -0.0931,-0.582016 -0.125,-0.875001 -0.0324,-0.31796 -0.0481,-0.637398 -0.047,-0.957 z m 0.5,3.000001 c 0.66667,0 0.66667,1 0,1 -0.66666,0 -0.66666,-1 0,-1 z"
       style="font-weight:400;font-family:sans-serif;text-indent:0;text-decoration-line:none;text-decoration-style:solid;text-decoration-color:#000000;text-transform:none;white-space:normal;overflow:visible;isolation:auto;mix-blend-mode:normal;fill:#fdc92b;fill-rule:evenodd"
       id="path7575" />
  </g>
  <g
     id="22-22-network-vpn"
     transform="translate(22.000008,132)">
    <rect
       style="opacity:1;fill:none;fill-opacity:1;stroke-width:2;stroke-linecap:round;stroke-linejoin:round"
       id="rect14961"
       width="21.999992"
       height="22"
       x="-43.999992"
       y="-22" />
    <path
       id="rect15400"
       class="ColorScheme-Text"
       style="opacity:1;fill:currentColor;fill-opacity:1;stroke-width:2;stroke-linecap:round;stroke-linejoin:round"
       d="m -38.287109,-17 c -1.057999,-0.013 -1.767813,0.22411 -2.132813,0.662109 C -40.802921,-15.881891 -41,-15.133749 -41,-14.09375 v 6.1875 c 0,1.039999 0.197079,1.7881411 0.580078,2.2441406 C -40.054922,-5.2241098 -39.345108,-5 -38.287109,-5 h 10.574218 c 1.057999,0 1.769766,-0.2241098 2.134766,-0.6621094 C -25.195125,-6.1181089 -25,-6.866251 -25,-7.90625 v -6.1875 c 0,-1.039999 -0.195125,-1.788141 -0.578125,-2.244141 C -25.943125,-16.77589 -26.654892,-17 -27.712891,-17 Z M -40,-14 h 1 v 5 c 1.109999,0 2,-0.8900014 2,-2 v -3 h 1 v 3 c 0,1.650998 -1.350002,3 -3,3 h -1 z m 5,0 h 2 c 1.098999,0 2,0.901001 2,2 0,1.098999 -0.901001,2 -2,2 h -1 v 2 h -1 v -5 z m 5,0 h 2 c 1.098999,0 2,0.901001 2,2 v 4 h -1 v -4 c 0,-0.557999 -0.442001,-1 -1,-1 h -1 v 5 h -1 v -5 z m -4,1 v 2 h 1 c 0.557999,0 1,-0.442001 1,-1 0,-0.557999 -0.442001,-1 -1,-1 z" />
  </g>
  <g
     id="network-vpn">
    <rect
       style="opacity:1;fill:none;fill-opacity:1;stroke-width:2;stroke-linecap:round;stroke-linejoin:round"
       id="rect17319"
       width="32"
       height="32"
       x="32"
       y="-32" />
    <circle
       style="opacity:0.1;fill:#000000;fill-opacity:1;stroke-width:1.30435;stroke-linecap:round;stroke-linejoin:round"
       id="path3625-2"
       cx="47.999996"
       cy="-15"
       r="15" />
    <circle
       style="fill:url(#linearGradient2016-3-0);fill-opacity:1;stroke-width:1.28889;stroke-linecap:round;stroke-linejoin:round"
       id="path986-6-0"
       cx="47.999996"
       cy="-16.000002"
       r="14.5" />
    <path
       d="m 41.164798,-28.124942 c -0.869812,0.489193 -1.685028,1.069667 -2.431846,1.731592 l 0.539351,0.539352 h 2.271002 V -28.125 Z m 3.55785,0 -1.589643,1.816763 1.362524,1.362523 v 1.42502 l 1.589643,1.754363 h 0.908381 v -0.908382 l 1.362523,-1.362523 v -0.908381 l 0.908382,-0.908381 v -1.362524 l -0.908382,-0.908381 z m -6.131549,3.179286 v 1.362523 h -1.1355 l -0.679392,-0.679391 c -1.750458,2.352102 -2.7212,5.192907 -2.776207,8.124368 l 1.638865,1.638865 h 1.36262 l 2.270905,2.271002 v -2.725144 l 1.362621,-1.362523 h 0.908381 l 1.362523,-1.362524 h 1.36262 l -0.681291,-0.681291 1.362524,-1.589643 -1.362524,-1.362523 h -2.043881 v 1.816761 h -0.908382 l -0.908381,-0.90838 v -0.908381 l 1.362524,-1.362524 h 1.1355 v -0.908381 l -1.362523,-1.362523 z m 20.597726,0.522317 -1.294406,1.294407 -0.908382,-0.908382 h -2.725143 l -1.362621,1.362524 v 1.135501 h 1.362621 v -0.681291 h 0.908381 v 0.908381 l -0.454201,0.454191 -1.816762,0.03024 -0.681281,0.651002 H 51.30865 v 0.908375 l -0.681281,0.681291 v 1.362523 h 1.362523 l 0.908381,-0.908381 h 0.908381 v 0.45419 l 0.908382,0.908382 h 0.4542 v -0.454143 l -0.908381,-0.908381 h 0.908381 l 0.908381,0.908381 h 1.135501 l -0.681291,-0.681281 0.681291,-0.68129 h 0.681291 l 0.681281,0.68129 h -0.681281 l -0.681291,0.681281 0.669935,0.669935 0.01134,0.692637 h -0.908379 l 2.725144,2.725144 h 0.454181 l 0.4542,-0.454191 0.908381,-0.908381 -0.908381,-0.908381 h 1.443915 c 0.011,-0.161337 0.0192,-0.322851 0.0246,-0.48447 -0.0036,-3.084921 -1.02243,-6.082905 -2.899257,-8.531226 z m -2.202788,8.561457 h -2.725143 l -0.454201,-0.454191 h -2.725144 l -1.589642,1.589643 v 2.271002 l 1.1355,1.1355 h 1.589643 l 0.681281,0.681291 v 0.681281 l 0.454201,0.454191 v 2.7251437 l 1.724035,1.8224791 2.848102,-2.8481023 -0.03024,-2.6078045 2.270905,-2.271002 h -0.908377 l -2.270904,-2.271001 z m -8.856693,-6.358669 v 0.681291 h 1.362524 l -0.681281,-0.681291 z m 4.087764,0.227093 -0.681281,0.68129 v 0.681289 h 0.681281 z m -7.03993,2.498022 -0.681291,0.681291 h 0.681291 l 0.227089,0.227089 h 0.227089 l 0.227104,-0.227089 z m -3.860644,4.769026 -0.681281,0.68129 h 1.362523 v -0.68129 z m -0.681281,2.043882 -0.908381,0.908381 v 2.271001 l 1.822382,1.5972007 -0.0058,2.036324 -0.681291,0.6812908 v 1.3549663 c 0.395398,0.2355741 0.802132,0.4515738 1.218734,0.6472229 l 2.414791,-2.2293369 v -0.9083822 l 1.362523,-1.3625231 v -0.6812908 l 0.681282,-0.6812807 v -1.816762 l -0.908386,-0.908382 h -1.816762 l -0.908381,-0.908381 z m 18.848789,3.179286 -0.908381,0.8478217 v 1.4231788 h 0.505283 c 0.138535,-0.1734236 0.272938,-0.3501014 0.403098,-0.5298939 z"
       style="color:#000000;opacity:0.24;fill:#ffffff;stroke-width:0.999999"
       id="path891-2" />
    <path
       id="path1542-3"
       style="color:#000000;font-variant-ligatures:normal;font-variant-position:normal;font-variant-caps:normal;font-variant-numeric:normal;font-variant-alternates:normal;font-feature-settings:normal;text-indent:0;text-decoration-line:none;text-decoration-style:solid;text-decoration-color:#000000;text-transform:none;text-orientation:mixed;dominant-baseline:auto;white-space:normal;shape-padding:0;opacity:0.5;isolation:auto;mix-blend-mode:normal;solid-color:#000000;fill:#ffffff;fill-rule:evenodd;stroke-width:0.264583;color-rendering:auto;image-rendering:auto;shape-rendering:auto"
       d="m 54.115234,-29.146484 c -0.528881,3.56258 -1.041632,6.709032 -1.240234,7.603515 -4.0834,0.39257 -7.964188,1.07651 -11.617187,2.28711 -0.07169,-1.071245 -0.104998,-5.017313 -0.107422,-9.513672 a 14.5,14.5 0 0 0 -1.003907,0.591797 c 0.005,4.182208 0.03375,7.771222 0.0957,8.763672 -0.895877,-0.561272 -2.881753,-1.876862 -5.062499,-3.335938 a 14.5,14.5 0 0 0 -0.458985,0.951172 c 2.094941,1.38421 4.02368,2.630159 4.84961,3.15039 -1.320181,0.509136 -3.648428,2.05916 -6.017579,3.839844 a 14.5,14.5 0 0 0 0.150391,1.189453 c 2.590484,-1.947253 5.123117,-3.690982 6.658203,-4.259765 0.147999,1.5394 0.369207,3.040581 0.685547,4.488281 0.347029,1.588199 0.818689,3.106387 1.400391,4.554687 -0.833761,0.268612 -1.66631,0.491282 -2.47461,0.658204 -0.203154,0.04195 -2.21809,0.458036 -3.652343,0.753906 a 14.5,14.5 0 0 0 0.710937,0.892578 c 1.117512,-0.236517 2.988021,-0.634101 3.142578,-0.666016 0.8659,-0.178791 1.762608,-0.416605 2.66211,-0.708984 0.382419,0.849487 2.178221,3.675751 3.970703,6.353516 A 14.5,14.5 0 0 0 47.999997,-1.5 a 14.5,14.5 0 0 0 0.03711,-0.002 c -1.90426,-2.780091 -3.821663,-5.770622 -4.261718,-6.740235 2.5668,-0.960767 5.094371,-2.444017 7.013671,-4.699218 2.457354,0.913237 6.336284,2.216021 10.257813,3.265625 a 14.5,14.5 0 0 0 0.416016,-0.947266 c -3.912603,-1.030632 -7.710382,-2.300667 -10.160157,-3.201172 1.0019,-2.1643 1.809366,-4.435909 2.384766,-6.787109 1.530787,-0.134152 4.719236,-0.265045 7.939453,-0.341797 A 14.5,14.5 0 0 0 61.226559,-21.9375 c -3.037186,0.0682 -5.894326,0.17884 -7.302734,0.296875 0.172102,-0.811182 0.641479,-3.695579 1.142578,-7.019531 a 14.5,14.5 0 0 0 -0.951172,-0.486328 z m -1.476562,8.632812 c -0.55996,2.1909 -1.330291,4.31305 -2.275391,6.34375 -2.9433,-1.1577 -5.768003,-2.627428 -8.470703,-4.236328 3.3744,-1.0847 6.959294,-1.727122 10.746094,-2.107422 z m -11.238281,2.986328 c 2.6627,1.586 5.453794,3.039425 8.371093,4.203125 -1.7582,1.9455 -4.036759,3.28075 -6.380859,4.15625 -0.56576,-1.4035 -1.026788,-2.8797 -1.367187,-4.4375 -0.276211,-1.264 -0.479587,-2.575675 -0.623047,-3.921875 z" />
    <path
       d="m 53.498046,-22 c -0.828427,0 -1.5,0.671573 -1.5,1.5 0,0.828427 0.671573,1.5 1.5,1.5 0.828427,0 1.5,-0.671573 1.5,-1.5 0,-0.828427 -0.671573,-1.5 -1.5,-1.5 z M 40.5,-19.945312 c -0.828427,0 -1.5,0.671573 -1.5,1.5 0,0.828427 0.671573,1.5 1.5,1.5 0.828427,0 1.5,-0.671573 1.5,-1.5 0,-0.828427 -0.671573,-1.5 -1.5,-1.5 z M 50.498046,-15 c -0.828427,0 -1.5,0.671573 -1.5,1.5 0,0.828427 0.671573,1.5 1.5,1.5 0.828427,0 1.5,-0.671573 1.5,-1.5 0,-0.828427 -0.671573,-1.5 -1.5,-1.5 z m -7,5 c -0.828427,0 -1.5,0.671573 -1.5,1.4999999 10e-7,0.8284271 0.671573,1.4999996 1.5,1.4999996 0.828428,0 1.5,-0.6715725 1.5,-1.4999996 0,-0.8284269 -0.671572,-1.4999999 -1.5,-1.4999999 z"
       style="fill:#ffffff;stroke-width:0.999999"
       id="path8113-7" />
    <path
       id="path4344-5"
       style="opacity:0.4;fill:#000000;fill-opacity:1;stroke-width:2;stroke-linecap:round;stroke-linejoin:round"
       d="M 48,-31 A 15,15 0 0 0 33,-16 15,15 0 0 0 48,-1 15,15 0 0 0 63,-16 15,15 0 0 0 48,-31 Z m 0,1 A 14,14 0 0 1 62,-16 14,14 0 0 1 48,-2 14,14 0 0 1 34,-16 14,14 0 0 1 48,-30 Z" />
    <path
       id="path1110-9"
       style="fill:url(#linearGradient1198-6);fill-opacity:1;stroke-width:1.27273;stroke-linecap:round;stroke-linejoin:round"
       d="m 48,-30 c -7.731987,0 -14,6.268013 -14,14 0,7.731987 6.268013,14 14,14 7.731986,0 14,-6.268014 14,-14 0,-7.731987 -6.268013,-14 -14,-14 z m 0,1 A 13,13 0 0 1 61,-16 13,13 0 0 1 48,-3 13,13 0 0 1 35,-16 13,13 0 0 1 48,-29 Z" />
    <circle
       style="fill:#eab305;fill-opacity:1;stroke-width:2;stroke-linecap:round;stroke-linejoin:round"
       id="path15645"
       cx="55"
       cy="-9"
       r="8.5" />
    <path
       id="path15643"
       style="opacity:0.5;fill:currentColor;stroke-width:2;stroke-linecap:round;stroke-linejoin:round"
       d="M 55,-18 A 8.9999995,8.9999995 0 0 0 46,-9 8.9999995,8.9999995 0 0 0 55,-4e-7 8.9999995,8.9999995 0 0 0 64,-9 8.9999995,8.9999995 0 0 0 55,-18 Z m 0,1 a 8.0000004,8.0000004 0 0 1 8,8 8.0000004,8.0000004 0 0 1 -8,7.9999998 A 8.0000004,8.0000004 0 0 1 47,-9 a 8.0000004,8.0000004 0 0 1 8,-8 z" />
    <path
       d="m 55.46094,-14 c -1.3527,0 -2.45703,1.10433 -2.45703,2.45703 V -10 H 52 v 4.9999996 h 7 V -10 h -0.99609 v -1.54297 C 58.00391,-12.89567 56.89957,-14 55.54688,-14 Z m -0.002,1 h 0.002 0.08594 c 0.816491,0 1.455071,0.64055 1.455071,1.45703 V -10 H 54.00391 v -1.54297 C 54.00391,-12.35948 54.64252,-13 55.45898,-13 Z M 56,-8.1855502 v 2.1855499 h -1 v -1.9414102 z"
       id="path15636"
       style="fill:#ffffff;stroke-width:0.999999" />
  </g>
  <g
     id="network-bluetooth">
    <rect
       style="opacity:1;fill:none;fill-opacity:1;stroke-width:2;stroke-linecap:round;stroke-linejoin:round"
       id="rect17695"
       width="21.999992"
       height="22"
       x="66.000008"
       y="0" />
    <path
       id="rect18332"
       class="ColorScheme-Text"
       style="fill:currentColor;fill-opacity:1;stroke-width:2;stroke-linecap:round;stroke-linejoin:round"
       d="M 74.914062,3 C 74.167613,3.0092 73.518784,2.951951 72.896484,3.306641 72.558585,3.49901 72.303495,3.81568 72.166016,4.193359 72.035166,4.551589 72,4.93564 72,5.375 v 11.25 c 0,0.4394 0.03517,0.823451 0.166016,1.181641 0.137229,0.376989 0.390759,0.695282 0.730468,0.888671 0.62233,0.35416 1.271479,0.295508 2.017578,0.304688 h 0.002 5.166015 0.0039 c 0.74695,-0.0092 1.393526,0.04934 2.015625,-0.304688 l 0.0039,-0.002 0.002,-0.002 c 0.34077,-0.19943 0.596282,-0.517165 0.726562,-0.890625 l 0.002,-0.002 C 82.964317,17.443548 83,17.06216 83,16.625 V 5.375 C 83,4.93629 82.963474,4.553565 82.833984,4.197266 82.702965,3.825206 82.447231,3.509447 82.107422,3.310547 l -0.002,-0.00195 -0.0039,-0.00195 C 81.480383,2.953131 80.833737,3.00919 80.085937,3 h -0.0039 -5.160156 -0.0059 z m 0.0059,1 h 0.0059 5.154297 c 0.768559,0.0094 1.233338,0.011991 1.523438,0.175781 0.1307,0.07726 0.235552,0.200736 0.289062,0.353516 v 0.00391 l 0.002,0.00195 C 81.964001,4.725346 82,4.99389 82,5.375 v 11.25 c 0,0.38111 -0.036,0.649654 -0.105469,0.839844 l -0.002,0.0039 -0.002,0.0039 c -0.05309,0.15301 -0.1564,0.276236 -0.287109,0.353516 C 81.314286,17.989452 80.849417,17.99057 80.080078,18 h -5.154297 -0.0059 c -0.772189,-0.0095 -1.238144,-0.0092 -1.527344,-0.173828 -0.1148,-0.06536 -0.224359,-0.188938 -0.287109,-0.361328 C 73.036339,17.275574 73,17.00684 73,16.625 V 5.375 c 0,-0.38185 0.03634,-0.650574 0.105469,-0.839844 0.0625,-0.1717 0.170509,-0.292985 0.287109,-0.359375 C 73.683678,4.009851 74.148193,4.00946 74.919922,4 Z m 2.152344,0.292969 V 9.90625 L 74.644531,7.867188 74,8.632812 76.818359,11 74,13.367188 l 0.644531,0.765624 2.427735,-2.039062 v 5.613281 L 81.3125,13.46875 78.373047,11 81.3125,8.53125 Z M 78,6.707031 79.759766,8.466797 78,9.947266 Z m 0,5.345703 1.759766,1.480469 L 78,15.292969 Z"
       sodipodi:nodetypes="cccsscccccccccccssccccccccccccccccsscccccccscssccscccccccccccccccccccccc" />
  </g>
  <g
     id="network-bluetooth-activated">
    <rect
       style="opacity:1;fill:none;fill-opacity:1;stroke-width:2;stroke-linecap:round;stroke-linejoin:round"
       id="rect18133"
       width="21.999992"
       height="22"
       x="88.000008"
       y="0" />
    <path
       d="m 96.91407,3.000001 c -0.746449,0.0092 -1.395278,-0.04805 -2.017578,0.306641 -0.337899,0.192369 -0.592989,0.509039 -0.730468,0.886718 -0.13085,0.35823 -0.166016,0.742281 -0.166016,1.181641 V 16.625 c 0,0.4394 0.03517,0.82345 0.166016,1.18164 0.137229,0.37699 0.390759,0.69529 0.730468,0.88867 0.62233,0.35417 1.271479,0.29551 2.017578,0.30469 h 0.002 5.16601 0.004 c 0.74695,-0.009 1.39353,0.0493 2.01563,-0.30469 l 0.004,-0.002 0.002,-0.002 c 0.34077,-0.19943 0.59628,-0.51717 0.72656,-0.89063 l 0.002,-0.002 c 0.12825,-0.35514 0.16394,-0.73653 0.16394,-1.17369 V 5.375001 c 0,-0.43871 -0.0365,-0.821435 -0.16602,-1.177734 -0.13102,-0.37206 -0.38675,-0.687819 -0.72656,-0.886719 l -0.002,-0.0019 -0.004,-0.002 c -0.62114,-0.353516 -1.26779,-0.297457 -2.01559,-0.306647 h -0.004 -5.160151 -0.0059 z m 0.0059,1 h 0.0059 5.1543 c 0.76856,0.0094 1.23333,0.01199 1.52343,0.175781 0.1307,0.07726 0.23556,0.200736 0.28907,0.353516 v 0.0039 l 0.002,0.0019 c 0.0693,0.190189 0.10534,0.458733 0.10534,0.839843 V 16.62494 c 0,0.38111 -0.036,0.64966 -0.10547,0.83985 l -0.002,0.004 -0.002,0.004 c -0.0531,0.15301 -0.1564,0.27623 -0.28711,0.35351 -0.28914,0.16329 -0.75401,0.16441 -1.52334,0.17384 h -5.154301 -0.0059 c -0.772189,-0.01 -1.238144,-0.009 -1.527344,-0.17383 -0.1148,-0.0654 -0.224359,-0.18893 -0.287109,-0.36132 -0.06909,-0.18927 -0.105428,-0.45801 -0.105428,-0.83985 V 5.375001 c 0,-0.38185 0.03634,-0.650574 0.105469,-0.839844 0.0625,-0.1717 0.170509,-0.292985 0.287109,-0.359375 0.2911,-0.16593 0.755615,-0.166321 1.527344,-0.175781 z m 2.152344,0.292969 v 5.613279 l -2.427775,-2.03906 -0.644531,0.76562 2.818359,2.36719 -2.818359,2.367191 0.644531,0.76562 2.427735,-2.03906 v 5.61328 l 4.240236,-4.23828 -2.93946,-2.468751 2.93946,-2.46875 z m 0.927696,2.414059 1.75976,1.75977 -1.75976,1.48047 z m 0,5.345711 1.75976,1.48047 -1.75976,1.75976 z"
       class="ColorScheme-Text"
       style="fill:currentColor;fill-opacity:1;stroke-width:2;stroke-linecap:round;stroke-linejoin:round"
       id="path18650"
       sodipodi:nodetypes="cccsscccccccccccssccccccccccccccccsscccccccccssccscccccccccccccccccccccc" />
  </g>
  <g
     id="network-bluetooth-activated-locked">
    <rect
       style="opacity:1;fill:none;fill-opacity:1;stroke-width:2;stroke-linecap:round;stroke-linejoin:round"
       id="rect18950"
       width="22"
       height="22"
       x="132"
       y="0" />
    <path
       id="path18960"
       class="ColorScheme-Text"
       style="fill:currentColor;fill-opacity:1;stroke-width:2;stroke-linecap:round;stroke-linejoin:round"
       d="M 140.91406 3 C 140.16761 3.0092 139.51878 2.9519504 138.89648 3.3066406 C 138.55859 3.499009 138.3035 3.8156816 138.16602 4.1933594 C 138.03517 4.5515882 138 4.9356412 138 5.375 L 138 16.625 C 138 17.0644 138.0352 17.448451 138.16602 17.806641 C 138.30325 18.183628 138.55678 18.501935 138.89648 18.695312 C 139.51881 19.049482 140.16796 18.99082 140.91406 19 L 140.91602 19 L 144 19 L 144 18 L 140.92578 18 L 140.91992 18 C 140.14773 17.99 139.68178 17.991 139.39258 17.826172 C 139.27778 17.760772 139.16822 17.637234 139.10547 17.464844 C 139.03651 17.275574 139 17.00684 139 16.625 L 139 5.375 C 139 4.9931512 139.0363 4.7244259 139.10547 4.5351562 C 139.16797 4.3634568 139.27598 4.2421712 139.39258 4.1757812 C 139.68368 4.0098518 140.14819 4.00946 140.91992 4 L 140.92578 4 L 146.08008 4 C 146.84864 4.0094 147.31342 4.0119912 147.60352 4.1757812 C 147.73422 4.2530412 147.83907 4.3765172 147.89258 4.5292969 L 147.89258 4.5332031 L 147.89453 4.5351562 C 147.96364 4.7253442 148 4.9938912 148 5.375 L 148 11 C 148.34067 11.000097 148.67884 11.05822 149 11.171875 L 149 5.375 C 149 4.9362912 148.9635 4.5535637 148.83398 4.1972656 C 148.70296 3.8252068 148.44723 3.5094463 148.10742 3.3105469 L 148.10547 3.3085938 L 148.10156 3.3066406 C 147.48056 2.9531194 146.83374 3.00919 146.08594 3 L 146.08203 3 L 140.92188 3 L 140.91602 3 L 140.91406 3 z M 143.07227 4.2929688 L 143.07227 9.90625 L 140.64453 7.8671875 L 140 8.6328125 L 142.81836 11 L 140 13.367188 L 140.64453 14.132812 L 143.07227 12.09375 L 143.07227 17.707031 L 144 16.779297 L 144 12.052734 L 145.16406 13.03125 C 145.2818 12.693257 145.45908 12.379059 145.6875 12.103516 L 144.37305 11 L 147.3125 8.53125 L 143.07227 4.2929688 z M 144 6.7070312 L 145.75977 8.4667969 L 144 9.9472656 L 144 6.7070312 z M 148 12 C 146.892 12 146 12.91025 146 14.03125 L 146 15 L 145 15 L 145 19 L 151 19 L 151 15 L 150 15 L 150 14.03125 C 150 12.911251 149.108 12 148 12 z M 148 13 C 148.554 13 149 13.442001 149 14 L 149 15 L 147 15 L 147 14 C 147 13.442001 147.446 13 148 13 z " />
  </g>
  <g
     id="network-wired-available"
     transform="translate(0,22)">
    <rect
       style="opacity:1;fill:none;fill-opacity:1;stroke-width:2;stroke-linecap:round;stroke-linejoin:round"
       id="rect19622"
       width="22"
       height="22"
       x="-22"
       y="-22" />
    <path
       id="path19637"
       class="ColorScheme-Text"
       style="opacity:0.5;fill:currentColor;fill-opacity:1;stroke-width:2.10777;stroke-linecap:round;stroke-linejoin:round"
       d="m -12.574219,-18 c -0.449999,0.005 -0.777875,-0.01228 -1.046875,0.136719 -0.139178,0.07965 -0.246289,0.206606 -0.300781,0.357422 -0.06,0.156999 -0.08008,0.343125 -0.08008,0.578125 v 1.857422 c 0,0.234999 0.02108,0.420172 0.08008,0.576171 0.05457,0.150772 0.16166,0.277703 0.300781,0.357422 0.269,0.148 0.596876,0.131719 1.046875,0.136719 h 2.146485 c 0.4499992,-0.005 0.7778749,0.01228 1.0468746,-0.136719 0.1349999,-0.074 0.2407813,-0.200422 0.3007813,-0.357422 0.058,-0.156999 0.078125,-0.341172 0.078125,-0.576171 v -1.857422 c 0,-0.235 -0.020125,-0.421126 -0.078125,-0.578125 -0.05426,-0.150949 -0.1614326,-0.277976 -0.3007813,-0.357422 C -9.6498591,-18.013281 -9.9787348,-17.995 -10.427734,-18 Z M -13,-17 h 3 v 2 h -3 z m -4.572266,8 c -0.449999,0.005 -0.777875,-0.012281 -1.046875,0.1367188 -0.139177,0.07965 -0.246289,0.206606 -0.300781,0.3574218 -0.06,0.1569999 -0.07813,0.3431253 -0.07813,0.578125 v 1.8574219 c 0,0.2349998 0.01912,0.420172 0.07813,0.5761719 0.05457,0.1507718 0.161661,0.2777029 0.300781,0.3574218 0.269,0.1479999 0.596876,0.1317188 1.046875,0.1367188 h 2.144532 c 0.449999,-0.005 0.777875,0.012281 1.046875,-0.1367188 0.134999,-0.074 0.240781,-0.200422 0.300781,-0.3574218 0.058,-0.1569999 0.07813,-0.3411721 0.07813,-0.5761719 v -1.8574219 c 0,-0.2349997 -0.02013,-0.4211251 -0.07813,-0.578125 -0.05426,-0.1509488 -0.161433,-0.2779759 -0.300781,-0.3574218 C -14.649859,-9.0132811 -14.978735,-8.995 -15.427734,-9 Z m 9.9980472,0 c -0.4499995,0.005 -0.7778752,-0.012281 -1.046875,0.1367188 -0.1391778,0.07965 -0.2462893,0.206606 -0.3007812,0.3574218 -0.06,0.1569999 -0.080078,0.3431253 -0.080078,0.578125 v 1.8574219 c 0,0.2349998 0.021078,0.420172 0.080078,0.5761719 0.05457,0.1507718 0.1616604,0.2777029 0.3007812,0.3574218 C -8.352094,-4.9887189 -8.0242183,-5.005 -7.5742188,-5 h 2.1445313 c 0.4499996,-0.005 0.7788743,0.012281 1.046875,-0.1367188 0.1349999,-0.074 0.2407813,-0.200422 0.3007813,-0.3574218 0.058,-0.1569999 0.078125,-0.3411721 0.078125,-0.5761719 v -1.8574219 c 0,-0.2349997 -0.020125,-0.4211251 -0.078125,-0.578125 -0.05426,-0.1509488 -0.1614324,-0.2779759 -0.3007813,-0.3574218 C -4.6508132,-9.0132811 -4.9806879,-8.995 -5.4296875,-9 H -5.9980469 Z M -18,-8 h 3 v 2 h -3 z m 10,0 h 3 v 2 h -3 z" />
    <path
       id="path19640"
       class="ColorScheme-Text"
       style="opacity:1;fill:currentColor;fill-opacity:1;stroke-width:2;stroke-linecap:round;stroke-linejoin:round"
       d="m -15.5,-13 a 1.5,1.5 0 0 0 -1.5,1.5 1.5,1.5 0 0 0 1.5,1.5 1.5,1.5 0 0 0 1.5,-1.5 1.5,1.5 0 0 0 -1.5,-1.5 z m 4,0 a 1.5,1.5 0 0 0 -1.5,1.5 1.5,1.5 0 0 0 1.5,1.5 1.5,1.5 0 0 0 1.5,-1.5 1.5,1.5 0 0 0 -1.5,-1.5 z m 4,0 a 1.5,1.5 0 0 0 -1.5,1.5 1.5,1.5 0 0 0 1.5,1.5 1.5,1.5 0 0 0 1.5,-1.5 1.5,1.5 0 0 0 -1.5,-1.5 z" />
  </g>
  <g
     id="network-flightmode-on">
    <rect
       style="opacity:1;fill:none;fill-opacity:1;stroke-width:2;stroke-linecap:round;stroke-linejoin:round"
       id="rect20860"
       width="21.999992"
       height="22"
       x="-65.999977"
       y="22" />
    <path
       d="m -56.503402,25.999999 c -0.793989,9.7e-4 -0.78072,0.0333 -0.53125,1.03125 l 1.625,4.96875 h -4.5 l -1.21875,-1.78125 c -0.13926,-0.208829 -0.1227,-0.21873 -0.34375,-0.21875 h -0.21875 c -0.42773,0 -0.28125,0.4375 -0.28125,0.4375 L -61.690902,33 l -0.28125,2.5625 c 0,0 -0.13986,0.43749 0.25,0.4375 h 0.25 c 0.21159,0 0.20422,-0.009 0.34375,-0.21875 L -59.909652,34 h 4.5 l -1.625,4.9375 c -0.26171,1.046909 -0.2647,1.06251 0.53125,1.0625 0.431989,0 0.43388,-0.0117 0.71875,-0.5 l 3.6875,-5.5 h 3.09375 c 0.553999,0 1,-0.446001 1,-1 0,-0.554 -0.446001,-1.000001 -1,-1.000001 h -3.09375 l -3.6875,-5.5 c -0.2665,-0.456849 -0.283311,-0.49822 -0.65625,-0.5 z"
       class="ColorScheme-Text"
       style="fill:currentColor;fill-opacity:1;stroke-width:2;stroke-linecap:round;stroke-linejoin:round"
       id="path20872" />
  </g>
  <g
     id="network-flightmode-off">
    <rect
       style="opacity:1;fill:none;fill-opacity:1;stroke-width:2;stroke-linecap:round;stroke-linejoin:round"
       id="rect20862"
       width="22"
       height="22"
       x="-87.999977"
       y="22" />
    <path
       d="m -78.503379,25.999982 c -0.793988,9.7e-4 -0.78072,0.03335 -0.53125,1.03125 l 1.458984,4.460938 1.820313,-1.820313 c 0.0016,0.0014 0.0043,0.0027 0.0059,0.0039 l 0.05664,-0.05664 -2.091837,-3.119144 c -0.2665,-0.456849 -0.283312,-0.49822 -0.65625,-0.5 z m 7.660156,0.171875 -13.000039,13.000045 0.703125,0.703125 5.660156,-5.660156 -1.554687,4.722656 c -0.26171,1.046898 -0.264698,1.0625 0.53125,1.0625 0.431988,0 0.43388,-0.0117 0.71875,-0.5 l 3.6875,-5.5 h 3.09375 c 0.553998,0 1,-0.446002 1,-1 0,-0.554 -0.446002,-1.000002 -1,-1.000002 h -3.09375 l -0.468711,-0.699261 4.425781,-4.425782 z m -12.847656,3.828125 c -0.42773,0 -0.28125,0.4375 -0.28125,0.4375 l 0.28125,2.562501 -0.28125,2.5625 c 0,0 -0.13986,0.43749 0.25,0.4375 h 0.25 c 0.21159,0 0.20422,-0.009 0.34375,-0.21875 l 1.21875,-1.78125 h 1.833984 l 1.994141,-2.000001 h -3.828125 l -1.21875,-1.78125 c -0.13926,-0.208829 -0.1227,-0.21873 -0.34375,-0.21875 z"
       class="ColorScheme-Text"
       style="opacity:0.5;fill:currentColor;fill-opacity:1;stroke-width:2;stroke-linecap:round;stroke-linejoin:round"
       id="path20934" />
  </g>
</svg>
