<?xml version="1.0" encoding="UTF-8" standalone="no"?>
<!-- Created with Inkscape (http://www.inkscape.org/) -->

<svg
   width="22"
   height="22"
   viewBox="0 0 22 22.000001"
   version="1.1"
   id="svg386"
   inkscape:version="1.2 (dc2aedaf03, 2022-05-15)"
   sodipodi:docname="plasmavault.svg"
   xmlns:inkscape="http://www.inkscape.org/namespaces/inkscape"
   xmlns:sodipodi="http://sodipodi.sourceforge.net/DTD/sodipodi-0.dtd"
   xmlns:xlink="http://www.w3.org/1999/xlink"
   xmlns="http://www.w3.org/2000/svg"
   xmlns:svg="http://www.w3.org/2000/svg">
  <sodipodi:namedview
     id="namedview388"
     pagecolor="#ffffff"
     bordercolor="#000000"
     borderopacity="0.25"
     inkscape:showpageshadow="2"
     inkscape:pageopacity="0.0"
     inkscape:pagecheckerboard="0"
     inkscape:deskcolor="#d1d1d1"
     inkscape:document-units="px"
     showgrid="false"
     inkscape:zoom="6.4041376"
     inkscape:cx="1.639565"
     inkscape:cy="6.9486328"
     inkscape:window-width="1854"
     inkscape:window-height="1018"
     inkscape:window-x="0"
     inkscape:window-y="0"
     inkscape:window-maximized="1"
     inkscape:current-layer="svg386" />
  <defs
     id="defs383">
    <style
       id="current-color-scheme"
       type="text/css">
   .ColorScheme-Text { color:#3d3d3d; } .ColorScheme-Highlight { color:#0077c4; }
    </style>
    <linearGradient
       inkscape:collect="always"
       xlink:href="#linearGradient1160"
       id="linearGradient1561"
       x1="16.142578"
       y1="7"
       x2="16.142578"
       y2="31"
       gradientUnits="userSpaceOnUse"
       gradientTransform="translate(22,-9.999955)" />
    <linearGradient
       inkscape:collect="always"
       id="linearGradient1160">
      <stop
         style="stop-color:#6d6d6d;stop-opacity:1;"
         offset="0"
         id="stop1156" />
      <stop
         style="stop-color:#b2b2b2;stop-opacity:1"
         offset="1"
         id="stop1158" />
    </linearGradient>
  </defs>
  <g
     id="16-16-plasmavault">
    <rect
       style="fill:none;stroke-width:2;stroke-linecap:round;stroke-linejoin:round"
       id="rect559"
       width="16"
       height="16"
       x="-16"
       y="6" />
    <path
       d="m -12.00586,6.9999994 c -1.257995,0.015 -2.178644,-0.02928 -2.931641,0.3867188 -0.389885,0.2211188 -0.687674,0.5744913 -0.839844,0.9960937 -0.163999,0.4379985 -0.222656,0.9601904 -0.222656,1.6171876 V 18 c 0,0.657996 0.05766,1.179188 0.222656,1.617188 0.164,0.438996 0.462846,0.79005 0.839844,0.998046 0.751997,0.416 1.673646,0.369766 2.931641,0.384766 h 5.005859 v -1 h -5 c -1.259995,-0.015 -2.087127,-0.05972 -2.453125,-0.261719 -0.183999,-0.1 -0.289719,-0.212656 -0.386719,-0.472656 -0.097,-0.26 -0.160156,-0.673629 -0.160156,-1.265625 v -4 c 0,-0.591997 0.06411,-1.005626 0.162109,-1.265625 0.098,-0.259999 0.20272,-0.371657 0.386719,-0.472657 C -14.084174,12.058719 -13.256183,12.015 -11.992188,12 h 3.435546 l 2.021485,-2.0000005 h 2.527344 c 1.263992,0.015 2.090984,0.059719 2.458984,0.2617185 0.183,0.1 0.288719,0.212658 0.386719,0.472657 0.098,0.259998 0.162109,0.673627 0.162109,1.265625 v 3 h 1 v -3 c 0,-0.657998 -0.05766,-1.17919 -0.222656,-1.617188 -0.02,-0.055 -0.04822,-0.104297 -0.07422,-0.154297 l -0.02734,-0.05664 C -0.485954,9.8416231 -0.743312,9.5673651 -1.062501,9.3847651 -1.815497,8.9687667 -2.736146,9.0149995 -3.994142,8.9999995 H -7.033204 L -9.054688,6.9999994 h -2.949219 z m 0.01172,1 h 2.529296 L -7.699219,9.7460933 -8.966797,11 h -3.039062 c -1.257995,0.015 -2.178644,-0.03023 -2.931641,0.384765 -0.022,0.012 -0.0405,0.02997 -0.0625,0.04297 V 9.9999995 c 0,-0.5919976 0.06216,-1.0056262 0.160156,-1.265625 0.098,-0.2599989 0.20272,-0.3716571 0.386719,-0.4726563 0.365998,-0.2029992 1.194989,-0.2467188 2.458985,-0.2617188 z M -3,15 c -1.107999,0 -2,0.910251 -2,2.03125 V 18 h -1 v 4 H 0 V 18 H -1 V 17.03125 C -1,15.911252 -1.892001,15 -3,15 Z m 0,1 c 0.553999,0 1,0.442001 1,1 v 1 h -2 v -1 c 0,-0.557999 0.446001,-1 1,-1 z"
       style="fill:currentColor;fill-opacity:1;stroke-width:2;stroke-linecap:round;stroke-linejoin:round"
       class="ColorScheme-Text"
       id="path1945" />
  </g>
  <g
     id="22-22-plasmavault">
    <rect
       style="fill:none;stroke-width:2;stroke-linecap:round;stroke-linejoin:round"
       id="rect717"
       width="22"
       height="22"
       x="0"
       y="0" />
    <path
       id="path782"
       style="fill:currentColor;fill-opacity:1;stroke-width:2;stroke-linecap:round;stroke-linejoin:round"
       class="ColorScheme-Text"
       d="M 6.9941406,4 C 5.7361458,4.015 4.8154968,3.9707204 4.0625,4.3867188 3.672615,4.6078376 3.3748256,4.9612101 3.2226562,5.3828125 3.058657,5.8208109 3,6.3430028 3,7 v 8 c 0,0.657996 0.057656,1.179188 0.2226562,1.617188 0.1639996,0.438996 0.4628454,0.79005 0.8398438,0.998046 C 4.8144968,18.031234 5.7361458,17.985 6.9941406,18 H 12 V 17 H 7 C 5.7400052,16.985 4.9128734,16.940281 4.546875,16.738281 4.3628758,16.638281 4.2571562,16.525625 4.1601562,16.265625 4.0631566,16.005625 4,15.591996 4,15 V 11 C 4,10.408004 4.0641098,9.9943738 4.1621094,9.734375 4.260109,9.4743762 4.3648289,9.362718 4.5488281,9.2617188 4.9158269,9.0587193 5.7438177,9.015 7.0078125,9 h 3.4355465 l 2.021485,-2 h 2.527344 c 1.263992,0.015 2.090984,0.059719 2.458984,0.2617188 0.183,0.1 0.288719,0.2126574 0.386719,0.4726562 C 17.93589,7.9943738 18,8.4080024 18,9 v 3 h 1 V 9 c 0,-0.6579972 -0.05766,-1.1791891 -0.222656,-1.6171875 -0.02,-0.055 -0.04822,-0.1042969 -0.07422,-0.1542969 L 18.675781,7.171875 C 18.514047,6.8416236 18.256689,6.5673656 17.9375,6.3847656 17.184504,5.9687672 16.263855,6.015 15.005859,6 H 11.966797 L 9.9453125,4 H 6.9960938 Z m 0.011719,1 H 9.5351562 L 11.300781,6.7460938 10.033203,8 H 6.9941406 C 5.7361458,8.015 4.8154968,7.9697672 4.0625,8.3847656 4.0405,8.3967656 4.022,8.4147344 4,8.4277344 V 7 C 4,6.4080024 4.0621566,5.9943738 4.1601562,5.734375 4.2581562,5.4743762 4.3628758,5.362718 4.546875,5.2617188 4.9128734,5.0587196 5.7418638,5.015 7.0058594,5 Z M 16,12 c -1.107999,0 -2,0.910251 -2,2.03125 V 15 h -1 v 4 h 6 V 15 H 18 V 14.03125 C 18,12.911252 17.107999,12 16,12 Z m 0,1 c 0.553999,0 1,0.442001 1,1 v 1 h -2 v -1 c 0,-0.557999 0.446001,-1 1,-1 z"
       sodipodi:nodetypes="cccsscccccccssssccccccssccsccccccccccccccccssccssccccccssssccss" />
  </g>
  <g
     id="plasmavault">
    <rect
       style="fill:none;stroke-width:2;stroke-linecap:round;stroke-linejoin:round"
       id="rect719"
       width="32"
       height="32"
       x="22"
       y="-10" />
    <path
       id="rect990"
       style="fill:#424242;fill-opacity:1;stroke-width:0.999999;stroke-linejoin:round"
       d="m 29.033203,-7.4999556 c -1.5139,0 -2.662159,0.059701 -3.568359,0.2441405 -0.9061,0.18447 -1.595754,0.5108375 -2.064454,1.0546874 -0.4687,0.5438502 -0.678903,1.24885 -0.783203,2.0937501 C 22.512787,-3.2625478 22.5083,-2.253762 22.5,-1.0038621 v 0.00195 15.0039061 0.002 c 0.01701,2.4998 -0.03805,4.06891 0.748047,5.16211 0.393,0.5466 0.99949,0.896437 1.77539,1.085937 0.776,0.189494 1.743066,0.248005 3.009766,0.248005 h 18.999999 c 1.5139,0 2.66266,-0.0597 3.568359,-0.244143 0.9057,-0.18449 1.593647,-0.509987 2.060547,-1.054687 0.4669,-0.5447 0.673938,-1.250603 0.773438,-2.095703 0.099,-0.84508 0.09766,-1.855469 0.09766,-3.105469 V 1.0000442 c 0,-1.25000007 3.44e-4,-2.2603688 -0.09766,-3.1054689 -0.100001,-0.84508 -0.306539,-1.5510031 -0.773439,-2.0957029 -0.4669,-0.5447003 -1.154847,-0.8701875 -2.060547,-1.0546874 -0.905695,-0.1844999 -2.054455,-0.2441408 -3.568355,-0.2441408 H 36.230469 l -2.142578,-1.9999998 h -0.197265 c -2.3007,-10e-5 -4.857422,0 -4.857423,0 z" />
    <path
       id="rect1302"
       style="fill:url(#linearGradient1561);fill-opacity:1;stroke-width:0.812583;stroke-linejoin:round"
       d="M 38.142577,-2.9999556 36,-0.99995587 h -7.5 c -5.9671,0 -5.9998,0.9966512 -6,5.92578087 v 0.074219 c 0,2.4576997 0.01878,4.9134747 0.0098,7.359375 -2e-4,0.01001 -2e-4,0.0195 0,0.02929 0.054,1.7642 -0.100558,3.637112 0.214844,5.570312 0,0.01002 0.0098,0.01962 0.0098,0.02929 0.267099,1.3367 1.429056,2.19361 2.660156,2.34961 1.8121,0.269681 3.556741,0.10509 5.18164,0.162108 0.01002,1.7e-4 0.01931,1.7e-4 0.02929,0 6.4942,-0.007 13.007625,0.0246 19.515625,-0.126954 0.03602,-3.5e-4 0.07202,-0.0028 0.107422,-0.0078 0.5732,-0.0889 1.206303,-0.261642 1.783203,-0.61914 0.576899,-0.35749 1.10849,-0.95184 1.275389,-1.75 0,-0.01999 0.01172,-0.04025 0.01172,-0.06055 0.301701,-2.281 0.151971,-4.518563 0.201173,-6.664063 1e-4,-0.007 1e-4,-0.01429 0,-0.02147 -0.011,-3.5002997 0.01965,-7.0151555 -0.02733,-10.53515567 C 53.29545,-2.2872316 52.424047,-2.9999752 47.502047,-2.9999752 Z"
       sodipodi:nodetypes="ccscscccccccccscccccsc" />
    <path
       id="rect2409"
       style="opacity:0.75;fill:#f9f9f9;stroke-width:1.70782;stroke-linecap:round;stroke-linejoin:round"
       d="m 37.999999,2.9999997 a 2.9999999,2.9999992 0 0 0 -3,2.9999999 V 7.9999997 H 33 V 15 h 9.999999 V 7.9999997 H 41 V 5.9999996 A 2.9999999,2.9999992 0 0 0 37.999999,2.9999997 Z m 0,1.0000002 a 2.0000001,1.9999996 0 0 1 2,1.9999997 V 7.9999997 H 36 V 5.9999996 a 2.0000001,1.9999996 0 0 1 1.999999,-1.9999997 z" />
    <path
       d="M 38.142577,-4.0000005 36,-2 h -7.5 c -5.9671,0 -5.9998,0.9966516 -6,5.9257809 v 0.074219 c 0,0.158332 0.0018,0.3162973 0.002,0.4746093 0.0081,-4.52967107 0.222391,-5.47460897 5.998047,-5.47460897 h 7.5 l 2.142577,-2.00000003 h 9.359375 c 4.922001,0 5.793421,0.7127198 5.970702,3.71484433 0.01909,1.42942367 0.02389,2.85802687 0.0254,4.28515567 h 0.002 c 3.32e-4,-1.759742 -0.0038,-3.5216749 -0.02735,-5.28515637 C 53.295419,-3.2872798 52.423999,-4.0000001 47.501998,-4.0000001 Z"
       style="opacity:0.1;fill:#000000;fill-opacity:1;stroke-width:0.214996;stroke-linejoin:round"
       id="path1056" />
    <path
       id="rect2157"
       style="opacity:0.4;fill:#131313;fill-opacity:1;stroke-width:0.999999;stroke-linejoin:round"
       d="m 29.025389,-7.9999555 c -1.52546,0 -2.698637,0.057207 -3.664063,0.2539049 -0.969469,0.1975748 -1.77993,0.5661195 -2.341796,1.2187498 -0.559368,0.6497282 -0.788388,1.4669747 -0.898438,2.3593752 -0.11001,0.8911732 -0.112807,1.910844 -0.121092,3.1601562 v 0.00195 0.00389 15.0039064 0.0039 0.002 c 0.01693,2.491043 -0.08219,4.164881 0.841797,5.451171 0.475793,0.662355 1.204143,1.070355 2.058594,1.279253 0.845101,0.206627 1.846186,0.261732 3.126953,0.261732 H 47.00781 c 1.52546,0 2.699028,-0.05718 3.664063,-0.253908 0.968885,-0.197549 1.7777,-0.564518 2.337891,-1.218732 0.557688,-0.651292 0.783639,-1.470278 0.888671,-2.363283 0.104296,-0.89121 0.101563,-1.91433 0.101563,-3.164062 V 1.0000442 c 0,-1.24999857 0.0016,-2.2717119 -0.101564,-3.1621092 v -0.00195 C 53.792919,-3.056641 53.567571,-3.8739158 53.009764,-4.5253465 52.449571,-5.1795619 51.640752,-5.5484744 50.671873,-5.7460496 49.706794,-5.94285 48.533257,-5.999956 47.00781,-5.999956 H 36.412107 l -2.140625,-1.9999995 h -0.392578 c -2.298342,-1.002e-4 -4.853515,0 -4.853515,0 z m 0,0.9999999 c 0,0 2.555234,-1.002e-4 4.853515,0 l 2.140625,1.9999999 H 47.00781 c 1.499211,0 2.620404,0.062177 3.464844,0.234376 0.840641,0.1714243 1.406657,0.4554414 1.779297,0.8906253 0.375023,0.4379686 0.561974,1.0305864 0.65625,1.8281249 0.09265,0.7998009 0.09375,1.79687623 0.09375,3.0468748 V 14.000045 c 0,1.250265 -2.54e-4,2.247927 -0.09375,3.046875 -0.09376,0.797194 -0.281106,1.391971 -0.65625,1.830077 -0.372643,0.435186 -0.938663,0.71726 -1.779297,0.888673 -0.844485,0.172157 -1.965645,0.234368 -3.464844,0.234368 H 28.027342 c -1.250004,0 -2.183384,-0.05998 -2.888672,-0.232403 -0.695739,-0.170079 -1.176936,-0.461821 -1.486328,-0.892581 -0.646164,-0.899526 -0.6373,-2.365485 -0.654297,-4.871091 v -0.002 -15.00190607 -0.00389 c 0.0083,-1.2482336 0.01485,-2.2435532 0.11328,-3.0410157 v -0.00195 c 0.09833,-0.7973983 0.288957,-1.3901544 0.666016,-1.8281253 0.374562,-0.4350681 0.942353,-0.7192609 1.783203,-0.8906247 0.845094,-0.1721802 1.965646,-0.2343761 3.464844,-0.2343761 z"
       sodipodi:nodetypes="ccscccccccscsscscssccssscccccccssscsscscsscccccccccccc" />
    <path
       d="m 29.02539,-6.9999998 c -1.499002,0 -2.617906,0.062195 -3.46289,0.2343749 -0.84074,0.1713638 -1.408689,0.455557 -1.783203,0.890625 -0.377012,0.4379709 -0.567697,1.0307225 -0.666016,1.828125 v 0.00195 c -0.09841,0.797466 -0.105002,1.7927822 -0.11328,3.0410188 v 0.00389 0.99609373 c 0.0083,-1.24822303 0.01485,-2.24353963 0.11328,-3.04100213 v -0.00195 c 0.09832,-0.7974058 0.289006,-1.3901574 0.666016,-1.8281283 0.374513,-0.4350682 0.942463,-0.7192611 1.783203,-0.8906249 0.844984,-0.1721801 1.963888,-0.234376 3.46289,-0.234376 0,0 2.555533,-1.002e-4 4.853516,0 l 2.140625,2.0000008 h 10.986328 c 1.499016,0 2.620514,0.062177 3.464844,0.2343761 0.840532,0.1714242 1.406706,0.4554413 1.779296,0.8906252 0.374974,0.4379686 0.561986,1.0305864 0.65625,1.8281249 0.09264,0.79980103 0.09375,1.79687703 0.09375,3.0468753 V 1 c 0,-1.24999827 -0.0011,-2.2470739 -0.09375,-3.0468749 -0.09426,-0.7975384 -0.281277,-1.3901563 -0.65625,-1.8281249 C 51.877409,-4.310184 51.311235,-4.5942008 50.470703,-4.765625 49.626373,-4.9378241 48.504875,-5 47.005859,-5 H 36.019531 l -2.140625,-1.9999998 c -2.297983,-1.002e-4 -4.853516,0 -4.853516,0 z"
       style="opacity:0.2;fill:#ffffff;fill-opacity:1;stroke-width:0.264565;stroke-linejoin:round"
       id="path860" />
    <path
       d="M 38.142577,-2.999956 36,-0.99995587 h -7.5 c -5.9671,0 -5.9998,0.9966516 -6,5.92578087 v 0.074219 h 0.0059 C 22.53523,0.88648643 22.936267,4.4333333e-5 28.500041,4.4333333e-5 h 7.500001 L 38.142619,-1.9999558 h 9.359375 c 4.922001,0 5.793405,0.7130593 5.970702,3.7148444 V 0.71488833 C 53.295399,-2.2868968 52.423996,-2.999956 47.501994,-2.999956 Z"
       style="opacity:0.2;fill:#ffffff;fill-opacity:1;stroke-width:0.0568845;stroke-linejoin:round"
       id="path1252" />
    <path
       id="rect4964"
       style="opacity:0.05;fill:#ffffff;stroke-width:0.999999;stroke-linejoin:round"
       d="m 53,11 -8.998047,8.998047 h 3.005859 c 1.499198,0 2.62036,-0.06222 3.464844,-0.234375 0.840635,-0.171399 1.406655,-0.453485 1.779297,-0.888672 0.375144,-0.438105 0.562492,-1.032884 0.65625,-1.830078 0.07012,-0.599211 0.08734,-1.310751 0.0918,-2.15625 z" />
  </g>
</svg>
