<?xml version="1.0" encoding="UTF-8" standalone="no"?>
<!-- Created with Inkscape (http://www.inkscape.org/) -->

<svg
   width="22"
   height="22"
   viewBox="0 0 22 22"
   version="1.1"
   id="svg415"
   inkscape:version="1.2 (dc2aedaf03, 2022-05-15)"
   sodipodi:docname="start.svg"
   xmlns:inkscape="http://www.inkscape.org/namespaces/inkscape"
   xmlns:sodipodi="http://sodipodi.sourceforge.net/DTD/sodipodi-0.dtd"
   xmlns="http://www.w3.org/2000/svg"
   xmlns:svg="http://www.w3.org/2000/svg">
  <sodipodi:namedview
     id="namedview417"
     pagecolor="#ffffff"
     bordercolor="#000000"
     borderopacity="0.25"
     inkscape:showpageshadow="2"
     inkscape:pageopacity="0.0"
     inkscape:pagecheckerboard="0"
     inkscape:deskcolor="#d1d1d1"
     inkscape:document-units="px"
     showgrid="false"
     inkscape:zoom="17.840909"
     inkscape:cx="28.305732"
     inkscape:cy="11.518471"
     inkscape:window-width="1920"
     inkscape:window-height="1006"
     inkscape:window-x="0"
     inkscape:window-y="0"
     inkscape:window-maximized="1"
     inkscape:current-layer="svg415" />
  <defs
     id="defs412">
    <style
       id="current-color-scheme"
       type="text/css">
        .ColorScheme-Text { color:#3d3d3d; } .ColorScheme-Highlight { color:#5294e2; }
    </style>
  </defs>
  <g
     id="22-22-start-here-kde">
    <rect
       style="fill:none;stroke-width:2;stroke-linecap:square;stroke-linejoin:round"
       id="rect603"
       width="22"
       height="22"
       x="0"
       y="0" />
    <path
       d="M 10.216677,1.4116114 8.4948046,1.831927 c -0.07229,0.017701 -0.12305,0.08287 -0.123422,0.1578123 l 0.75781,3.5000223 0.06876,0.04219 c 0.567333,-0.186884 1.1716524,-0.290628 1.8015634,-0.290628 2.882434,0 5.262817,2.118822 5.685926,4.8828474 l 0.02194,0.01413 3.559367,-0.7796954 c 0.06947,-0.0331 0.105945,-0.109774 0.0875,-0.184371 l -0.418754,-1.721882 c -0.01785,-0.07248 -0.083,-0.123385 -0.157819,-0.12346 l -2.824997,-0.0016 c -0.238514,-0.449559 -0.533646,-0.873553 -0.881247,-1.259382 l 0.920308,-2.592206 c 0.02566,-0.07209 -0.003,-0.152235 -0.06876,-0.192188 L 15.408855,2.3631802 c -0.06404,-0.038931 -0.145995,-0.029191 -0.198428,0.023428 l -1.90313,1.9015849 C 12.742604,4.1078916 12.162665,4.0082656 11.585425,3.9913156 L 10.401052,1.5006747 c -0.0331,-0.069554 -0.109626,-0.107432 -0.184371,-0.089062 z M 4.6588726,3.9428776 c -0.03603,0.0038 -0.07137,0.0196 -0.09844,0.04687 l -1.253122,1.253135 c -0.05267,0.05284 -0.06227,0.134474 -0.02343,0.198438 l 1.467176,2.415642 c -0.260161,0.437385 -0.468154,0.908777 -0.617187,1.406259 l -2.693747,0.56094 C 1.3652026,9.8397816 1.312,9.9066416 1.312,9.9835441 V 11.75387 c 0,0.07493 0.051239,0.140379 0.1234371,0.15782 l 2.6124975,0.639066 c 0.139379,0.576168 0.356724,1.123004 0.642188,1.625012 l -1.514062,2.306266 c -0.04221,0.06444 -0.03265,0.14882 0.02187,0.203113 l 1.253124,1.253135 c 0.05268,0.05258 0.134203,0.06363 0.198435,0.02492 l 2.418748,-2.676581 0.0031,-0.07969 c -1.125158,-1.051335 -1.831247,-2.544985 -1.831247,-4.206276 0,-1.8523084 0.87743,-3.4963784 2.235933,-4.5500294 v -0.01078 l -2.710922,-2.470399 c -0.03224,-0.02105 -0.07021,-0.03031 -0.106245,-0.02655 z M 16.621356,12.241371 c -0.567895,2.584217 -2.867039,4.518778 -5.621868,4.518778 -0.714235,0 -1.3954194,-0.134207 -2.0265604,-0.371877 l -0.06095,0.03272 -0.924997,3.501583 c -0.0045,0.07687 0.04448,0.145921 0.118736,0.165629 l 1.710939,0.459381 c 0.072071,0.01934 0.1483385,-0.01264 0.1843714,-0.07813 l 1.360936,-2.476577 c 0.508857,0.0071 1.021113,-0.04797 1.52656,-0.167191 l 1.829687,2.053137 c 0.05087,0.05716 0.136512,0.07121 0.203113,0.03272 l 1.53437,-0.884382 c 0.06493,-0.03741 0.09594,-0.114684 0.075,-0.185933 l -0.751559,-2.58283 c 0.42965,-0.408402 0.795034,-0.869236 1.087495,-1.367198 l 2.754684,0.159382 c 0.07694,0.0045 0.145808,-0.04596 0.165629,-0.120299 l 0.459373,-1.709388 c 0.01934,-0.07188 -0.01264,-0.148002 -0.07813,-0.184371 z"
       style="fill:currentColor;fill-opacity:1;stroke-width:0.415288"
       class="ColorScheme-Text"
       id="path544" />
  </g>
  <g
     id="start-here-kde">
    <rect
       style="opacity:1;fill:none;stroke-width:2.90909;stroke-linecap:square;stroke-linejoin:round;fill-opacity:1"
       id="rect2017"
       width="32"
       height="32"
       x="22"
       y="-10" />
    <path
       d="m 37.021926,-5.9608922 -2.152387,0.5254053 c -0.09035,0.022104 -0.153807,0.1035891 -0.154312,0.1972715 l 0.947287,4.37512141 0.08592,0.052735 C 36.457615,-1.04397 37.21303,-1.1736507 38.000435,-1.1736507 c 3.603119,0 6.578661,2.648583 7.10756,6.1036854 l 0.02737,0.01758 4.449307,-0.974636 c 0.08681,-0.04149 0.132446,-0.137224 0.10939,-0.230475 L 49.170604,1.5900985 C 49.148291,1.4995161 49.066866,1.4358781 48.973332,1.4357978 l -3.531317,-0.002 C 45.143862,0.87188511 44.774942,0.34188291 44.34043,-0.14041779 l 1.150413,-3.24032451 c 0.03207,-0.090115 -0.0039,-0.1902981 -0.08595,-0.2402422 l -1.892604,-1.1504216 c -0.08003,-0.048665 -0.182516,-0.036476 -0.248055,0.029304 l -2.37895,2.3770135 c -0.705881,-0.2253813 -1.430823,-0.3499167 -2.152386,-0.3711046 l -1.4805,-3.1133677 c -0.04141,-0.086944 -0.137058,-0.134294 -0.230472,-0.1113313 z m -6.947405,3.1641506 c -0.04504,0.00467 -0.08922,0.024514 -0.123045,0.058595 l -1.566439,1.5664496 c -0.06584,0.066051 -0.07783,0.1680988 -0.02915,0.24805461 l 1.834018,3.01961509 c -0.325213,0.546746 -0.585209,1.135999 -0.771503,1.757861 l -3.367258,0.701192 C 25.957494,4.5744557 25.891,4.6581387 25.891,4.7542487 v 2.212951 c 0,0.09366 0.06405,0.175459 0.154283,0.197272 l 3.265692,0.79885 c 0.174216,0.720225 0.445916,1.403785 0.802751,2.031306 L 28.221109,12.87752 c -0.05275,0.08057 -0.04082,0.18602 0.02737,0.253913 l 1.566439,1.566449 c 0.06584,0.06571 0.167759,0.07951 0.248054,0.03125 l 3.023502,-3.345797 0.0039,-0.09961 C 31.683761,9.9695317 30.801133,8.1024287 30.801133,6.0257677 c 0,-2.315433 1.096809,-4.3705643 2.794975,-5.68765749 v -0.013684 L 30.207334,-2.7635375 c -0.04028,-0.026299 -0.08776,-0.037875 -0.132804,-0.033204 z M 45.027944,7.5765937 c -0.709883,3.2303423 -3.583873,5.6485933 -7.027482,5.6485933 -0.892815,0 -1.744313,-0.167771 -2.533254,-0.464857 l -0.07616,0.04102 -1.156274,4.377075 c -0.0054,0.09608 0.0556,0.182417 0.148452,0.207038 l 2.138713,0.574234 c 0.09011,0.02407 0.185431,-0.01568 0.230472,-0.09766 l 1.701209,-3.095789 c 0.636085,0.0088 1.276419,-0.05996 1.908241,-0.20899 l 2.287156,2.566477 c 0.06358,0.07145 0.170646,0.08899 0.253916,0.04101 l 1.918007,-1.105499 c 0.08116,-0.04676 0.119892,-0.143341 0.09374,-0.232427 l -0.939492,-3.228602 c 0.537072,-0.510515 0.993813,-1.086569 1.3594,-1.709032 l 3.443427,0.199223 c 0.09615,0.0055 0.182248,-0.05744 0.20703,-0.150395 l 0.574229,-2.1367773 c 0.0241,-0.08986 -0.01577,-0.184993 -0.09767,-0.230475 z"
       style="fill:currentColor;fill-opacity:1;stroke-width:0.415288"
       class="ColorScheme-Text"
       id="path1958" />
  </g>
</svg>
