<?xml version="1.0" encoding="UTF-8" standalone="no"?>
<!-- Created with Inkscape (http://www.inkscape.org/) -->

<svg
   width="22"
   height="22"
   viewBox="0 0 22 22"
   version="1.1"
   id="svg452"
   inkscape:version="1.2 (dc2aedaf03, 2022-05-15)"
   sodipodi:docname="user.svg"
   xmlns:inkscape="http://www.inkscape.org/namespaces/inkscape"
   xmlns:sodipodi="http://sodipodi.sourceforge.net/DTD/sodipodi-0.dtd"
   xmlns="http://www.w3.org/2000/svg"
   xmlns:svg="http://www.w3.org/2000/svg">
  <sodipodi:namedview
     id="namedview454"
     pagecolor="#ffffff"
     bordercolor="#000000"
     borderopacity="0.25"
     inkscape:showpageshadow="2"
     inkscape:pageopacity="0.0"
     inkscape:pagecheckerboard="0"
     inkscape:deskcolor="#d1d1d1"
     inkscape:document-units="px"
     showgrid="false"
     showguides="true"
     inkscape:zoom="3.153857"
     inkscape:cx="-88.938719"
     inkscape:cy="4.2804731"
     inkscape:window-width="1920"
     inkscape:window-height="1006"
     inkscape:window-x="0"
     inkscape:window-y="0"
     inkscape:window-maximized="1"
     inkscape:current-layer="svg452" />
  <defs
     id="defs449">
    <style
       id="current-color-scheme"
       type="text/css">
        .ColorScheme-Text { color:#3d3d3d; } .ColorScheme-Highlight { color:#0077c4; }
    </style>
  </defs>
  <g
     id="16-16-user-desktop"
     transform="translate(-190)">
    <rect
       style="fill:none;fill-opacity:1;stroke-width:1.45455;stroke-linecap:round;stroke-linejoin:round"
       id="rect1665"
       width="16"
       height="16"
       x="-16"
       y="6" />
    <path
       d="m -12.005859,8 c -1.258199,0.0145 -2.178842,-0.030604 -2.931641,0.3847656 -0.37641,0.2076798 -0.675184,0.5594273 -0.839844,0.9980469 C -15.941994,9.8214421 -16,10.342401 -16,11 v 7 c 0,0.657589 0.058,1.178588 0.222656,1.617188 0.16466,0.438619 0.463434,0.790367 0.839844,0.998046 0.752809,0.41535 1.673442,0.370226 2.931641,0.384766 h 0.0039 8.003906 0.0039 c 1.258199,-0.0145 2.178842,0.0306 2.931641,-0.384766 0.37641,-0.207679 0.673241,-0.559427 0.837891,-0.998046 C -0.06047,19.178558 -1e-5,18.657599 -1e-5,18 v -7 c 0,-0.657589 -0.06,-1.1785879 -0.224609,-1.6171875 C -0.389259,8.9441929 -0.68609,8.5924454 -1.0625,8.3847656 -1.815309,7.969406 -2.735942,8.01454 -3.994141,8 h -0.0039 -8.005859 z m 0.0059,1 h 8 c 1.259599,0.0147 2.087125,0.057796 2.453125,0.2597656 0.1834,0.1011799 0.289149,0.2146497 0.386719,0.4746094 0.0975,0.2599397 0.160156,0.673246 0.160156,1.265625 v 7 c 0,0.592409 -0.0626,1.005725 -0.160156,1.265625 -0.0976,0.25995 -0.203339,0.373429 -0.386719,0.474609 C -1.912904,19.942214 -2.74046,19.98531 -3.999959,20 h -0.00586 -7.994141 z"
       style="fill:currentColor;stroke-width:2;stroke-linecap:round;stroke-linejoin:round"
       class="ColorScheme-Text"
       id="path1675"
       sodipodi:nodetypes="cccssssccccccssccccccccccsscscccc" />
  </g>
  <g
     id="22-22-user-desktop"
     transform="translate(-190)">
    <rect
       style="fill:none;stroke-width:2;stroke-linecap:round;stroke-linejoin:round"
       id="rect625"
       width="22"
       height="22"
       x="0"
       y="0" />
    <path
       id="path1286"
       style="fill:currentColor;stroke-width:2;stroke-linecap:round;stroke-linejoin:round"
       class="ColorScheme-Text"
       d="M 6.9941406,5 C 5.7359419,5.0145 4.8152992,4.969396 4.0625,5.3847656 3.6860904,5.5924454 3.3873161,5.9441929 3.2226562,6.3828125 3.0580064,6.8214421 3,7.3424007 3,8 v 7 c 0,0.657589 0.057996,1.178588 0.2226562,1.617188 C 3.3873161,17.055807 3.6860904,17.407555 4.0625,17.615234 4.8153092,18.030584 5.7359419,17.98546 6.9941406,18 h 0.00391 8.0039064 0.0039 c 1.258199,-0.0145 2.178842,0.0306 2.931641,-0.384766 0.37641,-0.207679 0.673241,-0.559427 0.837891,-0.998046 C 18.93954,16.178558 19,15.657599 19,15 V 8 C 19,7.3424107 18.94,6.8214121 18.775391,6.3828125 18.610741,5.9441929 18.31391,5.5924454 17.9375,5.3847656 17.184691,4.969406 16.264058,5.01454 15.005859,5 h -0.0039 -8.0058592 z M 7,6 h 8 c 1.259599,0.0147 2.087125,0.057796 2.453125,0.2597656 0.1834,0.1011799 0.289149,0.2146497 0.386719,0.4746094 C 17.937344,6.9943147 18,7.4076206 18,8 v 7 c 0,0.592409 -0.0626,1.005725 -0.160156,1.265625 -0.0976,0.25995 -0.203339,0.373429 -0.386719,0.474609 C 17.087055,16.942214 16.259499,16.98531 15,17 H 14.994141 7 Z"
       sodipodi:nodetypes="cccsscsccccccssccccccccccsscscccc" />
  </g>
  <g
     id="32-32-user-desktop"
     transform="translate(-214)">
    <rect
       style="fill:none;fill-opacity:1;stroke-width:2.66667;stroke-linecap:round;stroke-linejoin:round"
       id="rect1725"
       width="32"
       height="32"
       x="46"
       y="-10" />
    <path
       d="m 56.203125,-5.0004866 c -1.4233,0 -2.552965,0.033184 -3.507813,0.1933595 -0.957418,0.160607 -1.787861,0.4706326 -2.408203,1.0898437 -0.620565,0.6195179 -0.932838,1.4520034 -1.09375,2.4082031 -0.160456,0.95349952 -0.19336,2.07953612 -0.193359,3.5 l 0.002,6.6154022 c 0,1.4204681 0.03099,2.5524391 0.191406,3.5078131 0.160829,0.958097 0.471798,1.790659 1.091797,2.412109 0.620264,0.621714 1.455227,0.934366 2.414063,1.09375 0.955544,0.158842 2.084688,0.186606 3.507812,0.179686 H 62.002 67.794968 c 1.423095,0.007 2.554245,-0.02082 3.509766,-0.179686 0.95888,-0.159383 1.7919,-0.471982 2.41211,-1.09375 0.619928,-0.62145 0.930967,-1.45396 1.091796,-2.412109 0.160373,-0.955433 0.193361,-2.087338 0.193361,-3.5078131 V 2.1909197 c 0,-1.42046848 -0.03292,-2.54651598 -0.193361,-3.5 -0.16091,-0.9561967 -0.473153,-1.7887132 -1.09375,-2.4082031 -0.620273,-0.6191683 -1.450698,-0.9292359 -2.408203,-1.0898438 -0.954784,-0.1601619 -2.084509,-0.1933594 -3.507813,-0.1933594 h -5.798827 z m 0,0.9999998 H 62 67.798827 c 1.407091,0 2.494705,0.037606 3.341797,0.1796863 0.844493,0.1416529 1.446157,0.3883162 1.869141,0.8105469 0.422662,0.4219071 0.670672,1.0243873 0.8125,1.8671875 0.142265,0.84551172 0.179686,1.92965852 0.179686,3.3339843 v 6.6154017 c 0,1.4043191 -0.03742,2.4942321 -0.179686,3.3417971 -0.141809,0.844848 -0.39147,1.447107 -0.814453,1.871095 -0.422589,0.42365 -1.022771,0.674097 -1.867188,0.814453 -0.846674,0.140781 -1.933927,0.166016 -3.339843,0.166016 h -0.002 -5.796874 -5.796875 -0.205123 V -4.0000002 Z"
       style="opacity:1;fill:currentColor;fill-opacity:1;stroke-width:0.999999;enable-background:new"
       class="ColorScheme-Text"
       id="path1894"
       sodipodi:nodetypes="sscscccsscccccssssssscsccssscsssccscccccc" />
  </g>
  <g
     id="48-48-user-desktop"
     transform="translate(-214)">
    <rect
       style="opacity:1;fill:none;fill-opacity:1;stroke-width:3;stroke-linecap:round;stroke-linejoin:round"
       id="rect6135"
       width="48"
       height="48"
       x="78"
       y="-26" />
    <path
       d="m 92.203125,-16 c -1.4233,0 -2.552965,0.03318 -3.507813,0.193359 -0.957418,0.160607 -1.787861,0.470633 -2.408203,1.089844 -0.620565,0.619518 -0.932838,1.452003 -1.09375,2.408203 -0.160456,0.9535 -0.19336,2.079536 -0.193359,3.5000001 l 0.002,12.6154023 c 0,1.4204681 0.03099,2.5524391 0.191406,3.5078131 0.160829,0.958097 0.471798,1.7906585 1.091797,2.4121095 0.620264,0.621713 1.455227,0.934365 2.414063,1.093749 0.955544,0.158842 1.967576,0.17952 3.507812,0.179686 h 9.794922 9.79297 c 1.36098,-1.66e-4 2.55193,-0.02082 3.50745,-0.179686 0.95888,-0.159383 1.7919,-0.471982 2.41211,-1.093749 0.61993,-0.621451 0.93097,-1.4539605 1.0918,-2.4121095 0.16037,-0.955433 0.19336,-2.087338 0.19336,-3.5078131 V -8.8085939 c 0,-1.4204681 -0.0329,-2.5465161 -0.19336,-3.5000001 -0.16091,-0.956197 -0.47316,-1.788713 -1.09375,-2.408203 -0.62028,-0.619168 -1.4507,-0.929236 -2.40821,-1.089844 C 114.34959,-15.966803 113.22217,-16 111.79887,-16 h -9.79882 z m 0,1 H 102 h 9.79883 c 1.40708,0 2.49239,0.03761 3.33948,0.179686 0.84449,0.141653 1.44616,0.388316 1.86914,0.810547 0.42266,0.421907 0.67067,1.024387 0.8125,1.867187 0.14227,0.845512 0.17969,1.929659 0.17969,3.3339851 V 3.8068064 c 0,1.4043191 -0.0374,2.4942321 -0.17969,3.3417971 -0.14181,0.844848 -0.39147,1.447107 -0.81445,1.8710955 -0.42259,0.42365 -1.02277,0.674097 -1.86719,0.814453 -0.84667,0.140781 -1.93162,0.166016 -3.33753,0.166016 h -0.002 -9.79687 -9.796878 -0.205123 v -24.999682 z"
       style="fill:currentColor;fill-opacity:1;stroke-width:0.999999;enable-background:new"
       class="ColorScheme-Text"
       id="path6161"
       sodipodi:nodetypes="sscscccsscccccssssssscsccsssssscccscccccc" />
  </g>
  <g
     id="user-desktop"
     transform="translate(-166,-16)">
    <rect
       style="opacity:1;fill:none;fill-opacity:1;stroke-width:4;stroke-linecap:round;stroke-linejoin:round"
       id="rect2123"
       width="64"
       height="64"
       x="78"
       y="-26" />
    <path
       d="m 94.203278,-12 c -1.4233,0 -2.552965,0.03318 -3.507813,0.193359 -0.957418,0.160607 -1.787861,0.470633 -2.408203,1.089844 -0.620565,0.619518 -0.932838,1.452003 -1.09375,2.408203 -0.160456,0.9535 -0.19336,2.079536 -0.193359,3.5000001 l 0.002,20.6154029 c 0,1.420468 0.03099,2.552439 0.191406,3.507813 0.160829,0.958097 0.471798,1.790658 1.091797,2.412109 0.620264,0.621713 1.455227,0.934365 2.414063,1.093749 0.955544,0.158842 1.967576,0.17952 3.507809,0.179686 h 15.794932 15.79297 c 1.36098,-1.66e-4 2.55193,-0.02082 3.50745,-0.179686 0.95888,-0.159383 1.7919,-0.471982 2.41211,-1.093749 0.61993,-0.621451 0.93097,-1.45396 1.0918,-2.412109 0.16037,-0.955433 0.19336,-2.087338 0.19336,-3.507813 V -4.8085939 c 0,-1.4204681 -0.0329,-2.5465161 -0.19336,-3.5000001 -0.16091,-0.956197 -0.47316,-1.788713 -1.09375,-2.408203 -0.62028,-0.619168 -1.4507,-0.929236 -2.40821,-1.089844 C 128.34975,-11.966803 127.22233,-12 125.79903,-12 h -15.79882 z m 1.79672,1 h 14.000162 15.79883 c 1.40708,0 2.49239,0.03761 3.33948,0.179686 0.84449,0.141653 1.44616,0.388316 1.86914,0.810547 0.42266,0.421907 0.67067,1.024387 0.8125,1.867187 0.14227,0.845512 0.17969,1.929659 0.17969,3.3339851 V 15.806807 c 0,1.404319 -0.0374,2.494232 -0.17969,3.341797 -0.14181,0.844848 -0.39147,1.447107 -0.81445,1.871095 -0.42259,0.42365 -1.02277,0.674097 -1.86719,0.814453 -0.84667,0.140781 -1.93162,0.166016 -3.33753,0.166016 h -0.002 -15.79687 -14.002072 z"
       style="fill:currentColor;fill-opacity:1;stroke-width:0.999999;enable-background:new"
       class="ColorScheme-Text"
       id="path6193"
       sodipodi:nodetypes="sscscccssccccsssssssscsccsssssssccscccc" />
  </g>
  <g
     id="user-online">
    <rect
       style="opacity:1;fill:none;fill-opacity:1;stroke-width:2;stroke-linecap:round;stroke-linejoin:round"
       id="rect6395"
       width="22"
       height="22"
       x="0"
       y="0" />
    <path
       id="path1007"
       style="fill:currentColor;fill-opacity:1;stroke-width:2;stroke-linecap:square;stroke-linejoin:round"
       class="ColorScheme-Text"
       d="M 11,3 C 10.470901,3 9.9684589,3.0974021 9.5058594,3.2949219 9.0463598,3.4827218 8.6417265,3.760541 8.3105469,4.1191406 7.9703472,4.4780403 7.7090967,4.9110042 7.5292969,5.4023438 7.3468671,5.8915233 7.2597656,6.4269006 7.2597656,7 h 0.00781 c 0,0.5815694 0.087695,1.1226817 0.2714844,1.6132812 0.1804998,0.4837798 0.4417503,0.9117318 0.78125,1.2695308 0.3303997,0.35746 0.7321036,0.637885 1.1894531,0.833985 v 0.002 C 9.9717952,10.9068 10.472231,11 11,11 c 0.527899,0 1.030588,-0.0935 1.492188,-0.28125 v -0.002 -0.002 c 0.457799,-0.19626 0.862672,-0.475872 1.201171,-0.832032 v -0.002 -0.002 C 14.022959,9.520929 14.279185,9.094913 14.458984,8.6130932 14.642084,8.1226717 14.728516,7.5815994 14.728516,7 c 0,-0.5737094 -0.08703,-1.1100099 -0.269532,-1.5996094 C 14.279585,4.9111211 14.023759,4.4797434 13.693359,4.1210938 v -0.00195 -0.00391 C 13.35406,3.7582547 12.946228,3.4826818 12.486328,3.2949219 12.031029,3.0982621 11.528699,3 11,3 Z m 0,1 c 0.4058,0 0.770063,0.074304 1.101562,0.2148438 l 0.0098,0.00195 0.0098,0.00391 c 0.329399,0.1345099 0.609809,0.3280653 0.849609,0.578125 l 0.01172,0.00977 c 0.2301,0.2519297 0.416688,0.5592572 0.554687,0.9355468 v 0.0039 V 5.75 c 0.136,0.3644196 0.207032,0.7787805 0.207032,1.25 0,0.4808495 -0.07103,0.9002722 -0.207032,1.2636719 -0.129299,0.3463896 -0.310637,0.6263242 -0.523437,0.8710941 l -0.0098,0.0059 -0.05078,0.07031 C 12.715061,9.456295 12.44027,9.652467 12.11527,9.793007 11.782435,9.927349 11.415759,10 11.005859,10 10.60126,10 10.240362,9.928295 9.9140625,9.796875 9.5802628,9.653495 9.299606,9.455445 9.0664062,9.203125 v -0.0039 l -0.011719,-0.0039 C 8.8121877,8.939703 8.6215749,8.6312715 8.484375,8.2636719 v -0.00195 C 8.3431451,7.8998291 8.2714844,7.4818095 8.2714844,7 V 6.953125 c 0.005,-0.4486396 0.068499,-0.8505422 0.1992187,-1.2011719 v -0.00586 C 8.608203,5.3701641 8.7992627,5.0596004 9.0390625,4.8066406 V 4.796875 C 9.2699623,4.5468952 9.5470535,4.355543 9.8769531,4.2207031 l 0.011719,-0.00195 0.00977,-0.00391 C 10.228667,4.0745839 10.59383,4 11,4 Z m -0.03516,9.025391 c -0.05341,2.87e-4 -0.09129,0.0039 -0.144532,0.0039 -0.673499,0.003 -1.2836125,0.02019 -1.820312,0.05859 -1.6643983,0.11914 -2.7396446,0.428893 -3.5898438,1.070312 -0.5747394,0.43358 -0.9537289,1.024991 -1.1679687,1.712891 -0.1579998,0.507429 -0.2188969,0.97464 -0.2480469,1.53125 -0.008,0.0405 -0.00184,0.0818 0,0.123047 0.0137,0.276309 0.2393553,0.488999 0.515625,0.474609 0.2654098,-0.0145 0.4730563,-0.23419 0.4726563,-0.5 0.009,-0.46614 0.1411538,-0.945355 0.2148437,-1.333984 0.1661799,-0.53363 0.4115067,-0.903525 0.8164063,-1.208985 C 6.6008013,14.514102 7.4927015,14.228332 9,14.101562 h 0.00195 c 0.5394995,-0.0455 1.159566,-0.07182 1.884766,-0.07422 0.032,-1.1e-4 0.05098,-0.0039 0.08398,-0.0039 0.039,0 0.06306,0.0039 0.101563,0.0039 0.725199,0.002 1.345266,0.02872 1.884765,0.07422 1.507299,0.12677 2.399229,0.41254 2.986328,0.855469 0.4049,0.30545 0.650207,0.675345 0.816407,1.208985 0.126299,0.40546 0.183337,0.810415 0.210937,1.333984 -2e-4,0.008 -2e-4,0.01689 0,0.02539 0.014,0.276309 0.249091,0.488999 0.525391,0.474609 0.275499,-0.0147 0.487056,-0.249851 0.472656,-0.525391 0,-0.0223 2.34e-4,-0.04451 -0.0098,-0.06641 -0.029,-0.559419 -0.08905,-1.02781 -0.248046,-1.537109 -0.2142,-0.68788 -0.59327,-1.279291 -1.167969,-1.712891 -0.850199,-0.641419 -1.925546,-0.951182 -3.589844,-1.070312 -0.536799,-0.0384 -1.146813,-0.05579 -1.820313,-0.05859 -0.05984,-2.51e-4 -0.102772,-0.0037 -0.162109,-0.0039 h -0.002 z"
       sodipodi:nodetypes="scccccccccscccccccscccccssccccccccscccccsccccccsccccccccsccccccccccccccsccccccccccccsccc" />
  </g>
  <g
     id="user-invisible">
    <rect
       style="opacity:1;fill:none;fill-opacity:1;stroke-width:2;stroke-linecap:round;stroke-linejoin:round"
       id="rect6397"
       width="22"
       height="22"
       x="22"
       y="0" />
    <path
       d="M 32.999853,3 C 32.470754,3 31.968312,3.097402 31.505712,3.2949219 31.046213,3.4827218 30.64158,3.760541 30.3104,4.1191406 29.9702,4.4780403 29.70895,4.9110042 29.52915,5.4023438 29.34672,5.8915233 29.259619,6.4269006 29.259619,7 h 0.0078 c 0,0.5815694 0.0877,1.1226817 0.271484,1.6132812 0.1805,0.4837798 0.44175,0.9117318 0.78125,1.2695308 0.3304,0.35746 0.732104,0.637885 1.189453,0.833985 v 0.002 C 31.971638,10.9068 32.472074,11 32.999843,11 c 0.527899,0 1.030588,-0.0935 1.492188,-0.28125 v -0.002 -0.002 c 0.457799,-0.19626 0.862672,-0.475872 1.201171,-0.832032 v -0.002 -0.002 C 36.022802,9.520929 36.279028,9.094913 36.458827,8.6130932 36.641927,8.1226717 36.728359,7.5815994 36.728359,7 c 0,-0.5737094 -0.08703,-1.1100099 -0.269532,-1.5996094 C 36.279438,4.9111211 36.023612,4.4797434 35.693212,4.1210938 v -0.00195 -0.00391 C 35.353913,3.7582547 34.946081,3.4826818 34.486181,3.2949219 34.030882,3.0982621 33.528552,3 32.999853,3 Z m 0,1 c 0.4058,0 0.770063,0.074304 1.101562,0.2148438 l 0.0098,0.00195 0.0098,0.00391 c 0.329399,0.1345099 0.609809,0.3280653 0.849609,0.578125 l 0.01172,0.00977 c 0.2301,0.2519297 0.416688,0.5592572 0.554687,0.9355468 v 0.0039 0.00195 c 0.136,0.3644196 0.207032,0.7787805 0.207032,1.25 0,0.4808495 -0.07103,0.9002722 -0.207032,1.2636719 -0.129299,0.3463896 -0.310637,0.6263245 -0.523437,0.8710945 l -0.0098,0.0059 -0.05078,0.07031 c -0.2381,0.245319 -0.512891,0.441491 -0.837891,0.582031 -0.332835,0.134342 -0.699511,0.206993 -1.109411,0.206993 -0.404599,0 -0.765497,-0.0717 -1.091796,-0.203125 -0.3338,-0.14338 -0.614457,-0.34143 -0.847657,-0.59375 v -0.0039 l -0.01172,-0.0039 C 30.812041,8.9397034 30.621428,8.6312715 30.484228,8.2636719 v -0.00195 C 30.342998,7.8998291 30.271337,7.4818095 30.271337,7 V 6.953125 c 0.005,-0.4486396 0.0685,-0.8505422 0.199219,-1.2011719 v -0.00586 c 0.1375,-0.375929 0.32856,-0.6864927 0.56836,-0.9394525 v -0.00977 c 0.230899,-0.2499798 0.50799,-0.441332 0.83789,-0.5761719 l 0.01172,-0.00195 0.0098,-0.00391 c 0.330225,-0.1402592 0.695388,-0.2148431 1.101558,-0.2148431 z m -0.03516,9.025391 c -0.05341,2.87e-4 -0.09129,0.0039 -0.144532,0.0039 -0.673499,0.003 -1.283612,0.02019 -1.820312,0.05859 -1.664398,0.11914 -2.739645,0.428893 -3.589844,1.070312 -0.574739,0.43358 -0.953729,1.024991 -1.167969,1.712891 -0.157999,0.507429 -0.218896,0.97464 -0.248046,1.53125 -0.008,0.0405 -0.0018,0.0818 0,0.123047 0.0137,0.276309 0.239355,0.488999 0.515625,0.474609 0.265409,-0.0145 0.473056,-0.23419 0.472656,-0.5 0.009,-0.46614 0.141154,-0.945355 0.214844,-1.333984 0.16618,-0.53363 0.411506,-0.903525 0.816406,-1.208985 0.587133,-0.442919 1.479033,-0.728689 2.986332,-0.855459 h 0.002 c 0.539499,-0.0455 1.159566,-0.07182 1.884766,-0.07422 0.032,-1.1e-4 0.05098,-0.0039 0.08398,-0.0039 0.039,0 0.06306,0.0039 0.101563,0.0039 0.725199,0.002 1.345266,0.02872 1.884765,0.07422 1.507299,0.12677 2.399229,0.41254 2.986328,0.855469 0.4049,0.30545 0.650207,0.675345 0.816407,1.208985 0.126299,0.40546 0.183337,0.810415 0.210937,1.333984 -2e-4,0.008 -2e-4,0.01689 0,0.02539 0.014,0.276309 0.249091,0.488999 0.525391,0.474609 0.275499,-0.0147 0.487056,-0.249851 0.472656,-0.525391 0,-0.0223 2.34e-4,-0.04451 -0.0098,-0.06641 -0.029,-0.559419 -0.08905,-1.02781 -0.248046,-1.537109 -0.2142,-0.68788 -0.59327,-1.279291 -1.167969,-1.712891 -0.850199,-0.641419 -1.925546,-0.951182 -3.589844,-1.070312 -0.536799,-0.0384 -1.146813,-0.05579 -1.820313,-0.05859 -0.05984,-2.51e-4 -0.102772,-0.0037 -0.162109,-0.0039 h -0.002 z"
       style="opacity:0.5;fill:currentColor;fill-opacity:1;stroke-width:2;stroke-linecap:square;stroke-linejoin:round"
       class="ColorScheme-Text"
       id="path1677"
       sodipodi:nodetypes="scccccccccscccccccscccccscccccccccscccccsccccccscccccccccccccccccccccccssccccccccccccsscc" />
  </g>
  <g
     id="user-busy"
     transform="translate(22)">
    <rect
       style="opacity:1;fill:none;fill-opacity:1;stroke-width:2;stroke-linecap:square;stroke-linejoin:round"
       id="rect3053"
       width="22"
       height="22"
       x="22"
       y="0" />
    <path
       id="path3883"
       style="fill:currentColor;fill-opacity:1;stroke-width:2;stroke-linecap:square;stroke-linejoin:round"
       class="ColorScheme-Text"
       d="m 33,3 c -0.529098,0 -1.031541,0.097402 -1.494141,0.2949219 -0.459498,0.1877997 -0.864133,0.4656195 -1.195312,0.8242187 -0.3402,0.3588994 -0.60145,0.791864 -0.78125,1.2832032 C 29.346867,5.8915228 29.259766,6.4269012 29.259766,7 h 0.0078 c 0,0.5815688 0.0877,1.1226817 0.271484,1.6132812 0.1805,0.4837786 0.441751,0.9117327 0.78125,1.2695313 0.3304,0.3574595 0.732105,0.6378845 1.189454,0.8339845 v 0.002 C 31.971797,10.906753 32.472232,11 33,11 c 0.527898,0 1.030588,-0.0935 1.492188,-0.28125 v -0.002 -0.002 c 0.457798,-0.19626 0.862673,-0.475872 1.201171,-0.8320315 v -0.00195 -0.00195 c 0.3296,-0.3577886 0.585827,-0.7838054 0.765625,-1.265625 C 36.642084,8.1228607 36.728516,7.5815988 36.728516,7 c 0,-0.5737088 -0.08703,-1.1100104 -0.269532,-1.5996094 C 36.279596,4.9111216 36.023759,4.479743 35.693359,4.1210938 v -0.00195 -0.00391 C 35.354061,3.7582556 34.946228,3.4826816 34.486328,3.2949219 34.03103,3.0982623 33.528698,3 33,3 Z m 0,1 c 0.4058,0 0.770064,0.074304 1.101562,0.2148438 l 0.0098,0.00195 0.0098,0.00391 c 0.329398,0.1345098 0.609809,0.3280656 0.849609,0.578125 l 0.01172,0.00977 c 0.2301,0.2519294 0.416689,0.5592576 0.554687,0.9355468 v 0.0039 V 5.75 c 0.136,0.3644192 0.207032,0.778781 0.207032,1.25 0,0.480849 -0.07103,0.9002735 -0.207032,1.2636719 -0.129298,0.3463896 -0.310637,0.626324 -0.523437,0.8710937 l -0.0098,0.00586 -0.05078,0.070312 C 34.715025,9.4562563 34.440234,9.6524289 34.115234,9.7929688 33.7824,9.9273106 33.415759,10 33.005859,10 32.601261,10 32.240362,9.9282999 31.914062,9.796875 31.580264,9.6534951 31.299606,9.4554447 31.066406,9.203125 v -0.00391 l -0.01172,-0.00391 C 30.81219,8.9396958 30.621575,8.6312715 30.484375,8.2636719 v -0.00195 C 30.343145,7.8998758 30.271484,7.481809 30.271484,7 V 6.953125 c 0.005,-0.4486392 0.0685,-0.8505425 0.199219,-1.2011719 v -0.00586 c 0.1375,-0.3759287 0.328561,-0.6864936 0.568359,-0.9394532 v -0.00977 c 0.2309,-0.2499796 0.507991,-0.4413321 0.837891,-0.5761719 l 0.01172,-0.00195 0.0098,-0.00391 C 32.228662,4.0745847 32.59383,4 33,4 Z m -0.03516,9.025391 c -0.05341,2.87e-4 -0.09129,0.0039 -0.144532,0.0039 -0.673498,0.003 -1.283614,0.02019 -1.820312,0.05859 -1.664396,0.11914 -2.739646,0.428894 -3.589844,1.070312 -0.574738,0.43358 -0.953729,1.024991 -1.167968,1.712891 -0.157999,0.507428 -0.218897,0.97464 -0.248047,1.53125 -0.008,0.0405 -0.0018,0.0818 0,0.123047 0.0137,0.276308 0.239355,0.488999 0.515625,0.474609 0.265408,-0.0145 0.473056,-0.23419 0.472656,-0.5 0.009,-0.46614 0.141154,-0.945356 0.214844,-1.333984 0.166178,-0.53363 0.411506,-0.903525 0.816406,-1.208985 C 28.600804,14.514113 29.492703,14.228332 31,14.101562 h 0.002 c 0.539499,-0.0455 1.159566,-0.07182 1.884766,-0.07422 0.032,-1.1e-4 0.05098,-0.0039 0.08398,-0.0039 0.039,0 0.06306,0.0039 0.101563,0.0039 0.725198,0.002 1.345267,0.02872 1.884765,0.07422 0.328788,0.02765 0.623034,0.06466 0.896485,0.107422 a 3.5,3.5 0 0 1 1.05664,-0.818359 c -0.552528,-0.149744 -1.189844,-0.247819 -1.957031,-0.302734 -0.536798,-0.0384 -1.146813,-0.05579 -1.820313,-0.05859 -0.05984,-2.51e-4 -0.102772,-0.0037 -0.162109,-0.0039 h -0.002 z" />
    <path
       d="M 38.5,14 C 37.119288,14 36,15.119288 36,16.5 36,17.880712 37.119288,19 38.5,19 39.880712,19 41,17.880712 41,16.5 41,15.119288 39.880712,14 38.5,14 Z M 38,15 h 1 v 1 h 1 v 1 h -2 z"
       style="fill:currentColor;fill-opacity:1;stroke-width:1.66667;stroke-linecap:square;stroke-linejoin:round"
       class="ColorScheme-Text"
       id="path3911"
       sodipodi:nodetypes="sssssccccccc" />
  </g>
  <g
     id="user-offline"
     transform="translate(22)">
    <rect
       style="opacity:1;fill:none;fill-opacity:1;stroke-width:2;stroke-linecap:round;stroke-linejoin:round"
       id="rect6399"
       width="22"
       height="22"
       x="44"
       y="0" />
    <path
       id="path2781"
       style="opacity:0.5;fill:currentColor;fill-opacity:1;stroke-width:2;stroke-linecap:square;stroke-linejoin:round"
       class="ColorScheme-Text"
       d="m 55,3 c -0.529098,0 -1.031541,0.097402 -1.494141,0.2949219 -0.459498,0.1877997 -0.864132,0.4656195 -1.195312,0.8242187 -0.3402,0.3588994 -0.60145,0.791864 -0.78125,1.2832032 C 51.346867,5.8915228 51.259766,6.4269012 51.259766,7 h 0.0078 c 0,0.5815688 0.0877,1.1226825 0.271484,1.6132812 0.1805,0.4837796 0.441751,0.9117327 0.78125,1.2695313 0.3304,0.3574595 0.732105,0.6378845 1.189454,0.8339845 v 0.002 C 53.971797,10.906753 54.472232,11 55,11 c 0.527898,0 1.030588,-0.0935 1.492188,-0.28125 v -0.002 -0.002 c 0.457798,-0.19626 0.862673,-0.475872 1.201171,-0.8320315 v -0.00195 -0.00195 c 0.3296,-0.3577886 0.585827,-0.7838054 0.765625,-1.265625 C 58.642084,8.1228605 58.728516,7.5815988 58.728516,7 c 0,-0.5737088 -0.08703,-1.1100104 -0.269532,-1.5996094 C 58.279596,4.9111216 58.023759,4.479743 57.693359,4.1210938 v -0.00195 -0.00391 C 57.354061,3.7582556 56.946228,3.4826816 56.486328,3.2949219 56.03103,3.0982623 55.528698,3 55,3 Z m 0,1 c 0.4058,0 0.770064,0.074304 1.101562,0.2148438 l 0.0098,0.00195 0.0098,0.00391 c 0.329398,0.1345098 0.609809,0.3280656 0.849609,0.578125 l 0.01172,0.00977 c 0.2301,0.2519294 0.416689,0.5592576 0.554687,0.9355468 v 0.0039 V 5.75 c 0.136,0.3644192 0.207032,0.778781 0.207032,1.25 0,0.480849 -0.07103,0.9002725 -0.207032,1.2636719 -0.129298,0.3463892 -0.310637,0.626324 -0.523437,0.8710937 l -0.0098,0.00586 -0.05078,0.070312 C 56.715025,9.4562563 56.440234,9.6524289 56.115234,9.7929688 55.7824,9.9273106 55.415759,10 55.005859,10 54.601261,10 54.240361,9.9282999 53.914062,9.796875 53.580263,9.6534951 53.299606,9.4554447 53.066406,9.203125 v -0.00391 l -0.01172,-0.00391 C 52.81219,8.9396958 52.621575,8.6312715 52.484375,8.2636719 v -0.00195 C 52.343145,7.8998263 52.271484,7.481809 52.271484,7 V 6.953125 c 0.005,-0.4486392 0.0685,-0.8505425 0.199219,-1.2011719 v -0.00586 c 0.1375,-0.3759287 0.32856,-0.6864936 0.568359,-0.9394532 v -0.00977 C 53.269961,4.5468903 53.547053,4.3555378 53.876953,4.220698 l 0.01172,-0.00195 0.0098,-0.00391 C 54.228662,4.0745847 54.59383,4 55,4 Z m -0.03516,9.025391 c -0.05341,2.87e-4 -0.09129,0.0039 -0.144532,0.0039 -0.673498,0.003 -1.283613,0.02019 -1.820312,0.05859 -1.664396,0.11914 -2.739646,0.428894 -3.589844,1.070312 -0.574738,0.43358 -0.953729,1.024991 -1.167968,1.712891 -0.157999,0.507428 -0.218897,0.97464 -0.248047,1.53125 -0.008,0.0405 -0.0018,0.0818 0,0.123047 0.0137,0.276308 0.239355,0.488999 0.515625,0.474609 0.265408,-0.0145 0.473056,-0.23419 0.472656,-0.5 0.009,-0.46614 0.141154,-0.945356 0.214844,-1.333984 0.166179,-0.53363 0.411506,-0.903525 0.816406,-1.208985 C 50.600804,14.514113 51.492703,14.228332 53,14.101562 h 0.002 c 0.539499,-0.0455 1.159566,-0.07182 1.884766,-0.07422 0.032,-1.1e-4 0.05098,-0.0039 0.08398,-0.0039 0.039,0 0.06306,0.0039 0.101563,0.0039 0.725198,0.002 1.345267,0.02872 1.884765,0.07422 0.328788,0.02765 0.623034,0.06466 0.896485,0.107422 a 3.5,3.5 0 0 1 1.05664,-0.818359 c -0.552528,-0.149744 -1.189844,-0.247819 -1.957031,-0.302734 -0.536798,-0.0384 -1.146813,-0.05579 -1.820313,-0.05859 -0.05984,-2.51e-4 -0.102772,-0.0037 -0.162109,-0.0039 h -0.002 z" />
    <path
       id="path2801"
       style="opacity:1;fill:currentColor;fill-opacity:1;stroke-width:1.66667;stroke-linecap:square;stroke-linejoin:round"
       class="ColorScheme-Text"
       d="M 60.5,14 C 59.119288,14 58,15.119288 58,16.5 58,17.880712 59.119288,19 60.5,19 61.880712,19 63,17.880712 63,16.5 63,15.119288 61.880712,14 60.5,14 Z M 59,16 h 3 v 1 h -3 z"
       sodipodi:nodetypes="sssssccccc" />
  </g>
  <g
     id="user-away"
     transform="translate(88)">
    <rect
       style="fill:none;stroke-width:2;stroke-linecap:square;stroke-linejoin:round"
       id="rect693"
       width="22"
       height="22"
       x="0"
       y="0" />
    <path
       id="path1942"
       style="opacity:0.5;fill:currentColor;fill-opacity:1;stroke-width:2;stroke-linecap:square;stroke-linejoin:round"
       class="ColorScheme-Text"
       d="M 11,3 C 10.470902,3 9.9684584,3.0974022 9.5058594,3.2949219 9.0463602,3.4827216 8.6417261,3.7605414 8.3105469,4.1191406 7.9703475,4.47804 7.7090965,4.9110046 7.5292969,5.4023438 7.3468673,5.8915228 7.2597656,6.4269012 7.2597656,7 h 0.00781 c 0,0.5815688 0.087695,1.1226826 0.2714844,1.6132812 0.1804996,0.4837798 0.4417506,0.9117327 0.78125,1.2695313 0.3303994,0.3574595 0.7321041,0.6378845 1.1894531,0.8339845 v 0.002 C 9.9717973,10.906753 10.472232,11 11,11 c 0.527898,0 1.030588,-0.0935 1.492188,-0.28125 v -0.002 -0.002 c 0.457798,-0.19626 0.862673,-0.475872 1.201171,-0.8320315 v -0.00195 -0.00195 C 14.022959,9.5211176 14.279186,9.095101 14.458984,8.6132812 14.642084,8.1228606 14.728516,7.5815988 14.728516,7 c 0,-0.5737088 -0.08703,-1.1100104 -0.269532,-1.5996094 C 14.279586,4.9111216 14.023759,4.479743 13.693359,4.1210938 v -0.00195 -0.00391 C 13.354061,3.7582556 12.946228,3.4826816 12.486328,3.2949219 12.03103,3.0982623 11.528698,3 11,3 Z m 0,1 c 0.4058,0 0.770064,0.074304 1.101562,0.2148438 l 0.0098,0.00195 0.0098,0.00391 c 0.329398,0.1345098 0.609809,0.3280656 0.849609,0.578125 l 0.01172,0.00977 c 0.2301,0.2519294 0.416689,0.5592576 0.554687,0.9355468 v 0.0039 V 5.75 c 0.136,0.3644192 0.207032,0.778781 0.207032,1.25 0,0.480849 -0.07103,0.9002725 -0.207032,1.2636719 -0.129298,0.3463895 -0.310637,0.6263244 -0.523437,0.8710937 l -0.0098,0.00586 -0.05078,0.070312 C 12.715025,9.4562563 12.440234,9.6524289 12.115234,9.7929688 11.7824,9.9273106 11.415759,10 11.005859,10 10.601261,10 10.240362,9.9282999 9.9140625,9.796875 9.5802631,9.6534951 9.2996058,9.4554447 9.0664062,9.203125 V 9.199215 L 9.0546872,9.195305 C 8.8121882,8.9396956 8.6215748,8.6312714 8.484375,8.2636719 v -0.00195 C 8.3431452,7.8998263 8.2714844,7.481809 8.2714844,7 V 6.953125 c 0.005,-0.4486392 0.068499,-0.8505425 0.1992187,-1.2011719 v -0.00586 C 8.6082029,5.3701651 8.7992629,5.0596002 9.0390625,4.8066406 V 4.796875 C 9.2699621,4.5468998 9.5470539,4.3555429 9.8769531,4.2207031 l 0.011719,-0.00195 0.00977,-0.00391 C 10.228663,4.0745847 10.59383,4 11,4 Z m -0.03516,9.025391 c -0.05341,2.87e-4 -0.09129,0.0039 -0.144532,0.0039 -0.673498,0.003 -1.283613,0.02019 -1.820312,0.05859 -1.6643966,0.11914 -2.7396454,0.428894 -3.5898438,1.070312 -0.5747388,0.43358 -0.9537291,1.024991 -1.1679687,1.712891 -0.1579996,0.507428 -0.2188969,0.97464 -0.2480469,1.53125 -0.008,0.0405 -0.00184,0.0818 0,0.123047 0.0137,0.276308 0.2393556,0.488999 0.515625,0.474609 0.2654096,-0.0145 0.4730563,-0.23419 0.4726563,-0.5 0.009,-0.46614 0.1411539,-0.945356 0.2148437,-1.333984 0.1661798,-0.53363 0.4115071,-0.903525 0.8164063,-1.208985 C 6.6008047,14.514113 7.492703,14.228332 9,14.101562 h 0.00195 c 0.539499,-0.0455 1.159566,-0.07182 1.884766,-0.07422 0.032,-1.1e-4 0.05098,-0.0039 0.08398,-0.0039 0.039,0 0.06306,0.0039 0.101563,0.0039 0.725198,0.002 1.345267,0.02872 1.884765,0.07422 0.01506,0.0013 0.02803,0.0026 0.04297,0.0039 V 13.09179 c -0.01619,-0.0012 -0.03057,-0.0027 -0.04687,-0.0039 -0.536798,-0.0384 -1.146813,-0.05579 -1.820313,-0.05859 -0.05984,-2.51e-4 -0.102772,-0.0037 -0.162109,-0.0039 h -0.002 z"
       sodipodi:nodetypes="scccccccccscccccccscccccssccccccccscccccsccccccsccccccccscccccccccccccsscscccsscc" />
    <path
       id="rect2044"
       style="opacity:1;fill:currentColor;fill-opacity:1;stroke-width:2;stroke-linecap:square;stroke-linejoin:round"
       class="ColorScheme-Text"
       d="m 14,14 v 1.5 h -4 v 2 h 4 V 19 c 0.760399,-0.34766 1.953988,-0.736286 2.742188,-1.166016 C 17.522887,17.403195 18.275001,16.95831 19,16.5 18.275001,16.05089 17.522887,15.610467 16.742188,15.179688 15.953488,14.749698 14.760899,14.35695 14,14 Z"
       sodipodi:nodetypes="cccccccccc" />
  </g>
  <g
     id="user-away-extended"
     transform="translate(88)">
    <rect
       style="fill:none;stroke-width:2;stroke-linecap:square;stroke-linejoin:round"
       id="rect695"
       width="22"
       height="22"
       x="22"
       y="0" />
    <path
       d="M 32.999853,3 C 32.470755,3 31.968311,3.0974022 31.505712,3.2949219 31.046213,3.4827216 30.641579,3.7605414 30.3104,4.1191406 29.970201,4.47804 29.708949,4.9110046 29.52915,5.4023438 29.34672,5.8915228 29.259619,6.4269012 29.259619,7 h 0.0078 c 0,0.5815688 0.08769,1.1226826 0.271484,1.6132812 0.1805,0.4837798 0.441751,0.9117327 0.78125,1.2695313 0.3304,0.3574595 0.732105,0.6378845 1.189454,0.8339845 v 0.002 C 31.97165,10.906753 32.472085,11 32.999853,11 c 0.527898,0 1.030588,-0.0935 1.492188,-0.28125 v -0.002 -0.002 c 0.457798,-0.19626 0.862673,-0.475872 1.201171,-0.8320315 v -0.00195 -0.00195 C 36.022812,9.5211176 36.279039,9.095101 36.458837,8.6132812 36.641937,8.1228606 36.728369,7.5815988 36.728369,7 c 0,-0.5737088 -0.08703,-1.1100104 -0.269532,-1.5996094 C 36.279439,4.9111216 36.023612,4.479743 35.693212,4.1210938 v -0.00195 -0.00391 C 35.353914,3.7582556 34.946081,3.4826816 34.486181,3.2949219 34.030883,3.0982623 33.528551,3 32.999853,3 Z m 0,1 c 0.4058,0 0.770064,0.074304 1.101562,0.2148438 l 0.0098,0.00195 0.0098,0.00391 c 0.329398,0.1345098 0.609809,0.3280656 0.849609,0.578125 l 0.01172,0.00977 c 0.2301,0.2519294 0.416689,0.5592576 0.554687,0.9355468 v 0.0039 0.00195 c 0.136,0.3644192 0.207032,0.778781 0.207032,1.25 0,0.480849 -0.07103,0.9002725 -0.207032,1.2636719 -0.129298,0.3463895 -0.310637,0.6263244 -0.523437,0.8710937 l -0.0098,0.00586 -0.05078,0.070312 C 34.714878,9.4562563 34.440087,9.6524289 34.115087,9.7929688 33.782253,9.9273106 33.415612,10 33.005712,10 32.601114,10 32.240215,9.9283 31.913915,9.796875 31.580116,9.6534951 31.299459,9.4554447 31.066259,9.203125 v -0.00391 l -0.01172,-0.00391 C 30.812041,8.9396956 30.621428,8.6312714 30.484228,8.2636719 v -0.00195 C 30.342998,7.8998263 30.271337,7.481809 30.271337,7 V 6.953125 c 0.005,-0.4486392 0.0685,-0.8505425 0.199219,-1.2011719 v -0.00586 c 0.1375,-0.3759287 0.32856,-0.6864936 0.568359,-0.9394532 v -0.00977 c 0.2309,-0.2499752 0.507992,-0.4413321 0.837891,-0.5761719 l 0.01172,-0.00195 0.0098,-0.00391 C 32.228516,4.0745847 32.593683,4 32.999853,4 Z m -0.03516,9.025391 c -0.05341,2.87e-4 -0.09129,0.0039 -0.144532,0.0039 -0.673498,0.003 -1.283613,0.02019 -1.820312,0.05859 -1.664397,0.11914 -2.739645,0.428894 -3.589844,1.070312 -0.574739,0.43358 -0.953729,1.024991 -1.167969,1.712891 -0.157999,0.507428 -0.218896,0.97464 -0.248046,1.53125 -0.008,0.0405 -0.0018,0.0818 0,0.123047 0.0137,0.276308 0.239355,0.488999 0.515625,0.474609 0.265409,-0.0145 0.473056,-0.23419 0.472656,-0.5 0.009,-0.46614 0.141154,-0.945356 0.214844,-1.333984 0.166179,-0.53363 0.411507,-0.903525 0.816406,-1.208985 0.587137,-0.442908 1.479035,-0.728689 2.986332,-0.855459 h 0.002 c 0.539499,-0.0455 1.159566,-0.07182 1.884766,-0.07422 0.032,-1.1e-4 0.05098,-0.0039 0.08398,-0.0039 0.039,0 0.06306,0.0039 0.101563,0.0039 0.725198,0.002 1.345267,0.02872 1.884765,0.07422 0.01506,0.0013 0.02804,0.0026 0.04297,0.0039 V 13.09179 c -0.01619,-0.0012 -0.03057,-0.0027 -0.04687,-0.0039 -0.536798,-0.0384 -1.146813,-0.05579 -1.820313,-0.05859 -0.05984,-2.51e-4 -0.102772,-0.0037 -0.162109,-0.0039 h -0.002 z"
       style="opacity:0.5;fill:currentColor;fill-opacity:1;stroke-width:2;stroke-linecap:square;stroke-linejoin:round"
       class="ColorScheme-Text"
       id="path2818"
       sodipodi:nodetypes="scccccccccscccccccscccccssccccccccscccccsccccccsccccccccscccscccccccccsscccccsscc" />
    <path
       id="path3934"
       style="opacity:1;fill:currentColor;fill-opacity:1;stroke-width:1.41421;stroke-linecap:square;stroke-linejoin:round"
       class="ColorScheme-Text"
       d="M 33 15 A 1 1 0 0 0 32 16 A 1 1 0 0 0 33 17 A 1 1 0 0 0 34 16 A 1 1 0 0 0 33 15 z M 36 15 A 1 1 0 0 0 35 16 A 1 1 0 0 0 36 17 A 1 1 0 0 0 37 16 A 1 1 0 0 0 36 15 z M 39 15 A 1 1 0 0 0 38 16 A 1 1 0 0 0 39 17 A 1 1 0 0 0 40 16 A 1 1 0 0 0 39 15 z " />
  </g>
  <g
     id="user-identity"
     transform="translate(22)">
    <rect
       style="fill:none;stroke-width:2;stroke-linecap:square;stroke-linejoin:round"
       id="rect697"
       width="22"
       height="22"
       x="110"
       y="0" />
    <path
       id="path2846"
       style="fill:currentColor;fill-opacity:1;stroke-width:2;stroke-linecap:square;stroke-linejoin:round"
       class="ColorScheme-Text"
       d="m 121,3 c -0.5291,0 -1.03154,0.097402 -1.49414,0.2949219 -0.4595,0.1877997 -0.86413,0.4656195 -1.19531,0.8242187 -0.3402,0.3588994 -0.60145,0.791864 -0.78125,1.2832032 C 117.34687,5.8915228 117.25977,6.4269012 117.25977,7 h 0.008 c 0,0.5815688 0.0877,1.1226827 0.27148,1.6132812 0.1805,0.4837796 0.44175,0.9117327 0.78125,1.2695313 0.3304,0.3574595 0.73211,0.6378845 1.18946,0.8339845 v 0.002 C 119.97181,10.906753 120.47223,11 121,11 c 0.5279,0 1.03059,-0.0935 1.49219,-0.28125 v -0.002 -0.002 c 0.4578,-0.19626 0.86267,-0.475872 1.20117,-0.8320315 v -0.00195 -0.00195 c 0.3296,-0.3577886 0.58583,-0.7838054 0.76562,-1.265625 0.1831,-0.4904205 0.26954,-1.0316824 0.26954,-1.6132812 0,-0.5737088 -0.087,-1.1100104 -0.26954,-1.5996094 -0.17939,-0.489269 -0.43522,-0.9206476 -0.76562,-1.2792968 v -0.00195 -0.00391 C 123.35406,3.7582556 122.94623,3.4826816 122.48633,3.2949219 122.03103,3.0982623 121.5287,3 121,3 Z m 0,1 c 0.4058,0 0.77006,0.074304 1.10156,0.2148438 l 0.01,0.00195 0.01,0.00391 c 0.3294,0.1345098 0.60981,0.3280656 0.84961,0.578125 l 0.0117,0.00977 c 0.2301,0.2519294 0.41669,0.5592576 0.55469,0.9355468 v 0.0039 V 5.75 c 0.136,0.3644192 0.20703,0.778781 0.20703,1.25 0,0.480849 -0.071,0.900272 -0.20703,1.2636719 -0.1293,0.3463886 -0.31064,0.626324 -0.52344,0.8710937 l -0.01,0.00586 -0.0508,0.070312 C 122.71523,9.4562564 122.44043,9.652429 122.11543,9.7929689 121.7824,9.9273106 121.41576,10 121.00586,10 c -0.4046,0 -0.7655,-0.07171 -1.0918,-0.203125 -0.3338,-0.1433799 -0.61445,-0.3414303 -0.84765,-0.59375 v -0.00391 l -0.0117,-0.00391 c -0.2425,-0.2556217 -0.43313,-0.564042 -0.57031,-0.9316406 v -0.00195 C 118.34297,7.8997802 118.27148,7.481809 118.27148,7 V 6.953125 c 0.005,-0.4486392 0.0685,-0.8505425 0.19922,-1.2011719 v -0.00586 c 0.1375,-0.3759287 0.32856,-0.6864936 0.56836,-0.9394532 v -0.00977 c 0.2309,-0.2499796 0.50799,-0.4413321 0.83789,-0.5761719 l 0.0117,-0.00195 0.01,-0.00391 C 120.22867,4.0745847 120.59383,4 121,4 Z m -0.0352,9.025391 c -0.0534,2.87e-4 -0.0913,0.0039 -0.14453,0.0039 -0.6735,0.003 -1.28361,0.02019 -1.82031,0.05859 -1.6644,0.11914 -2.73964,0.428894 -3.58984,1.070312 -0.57474,0.43358 -0.95373,1.024991 -1.16797,1.712891 -0.158,0.507428 -0.2189,0.97464 -0.24805,1.53125 -0.008,0.0405 -0.002,0.0818 0,0.123047 0.0135,0.272998 0.23412,0.483474 0.50586,0.474609 0.003,-1.07e-4 0.006,1.72e-4 0.01,0 h 12.98632 c 0.001,-7e-5 0.003,8e-5 0.004,0 0.27357,-0.01673 0.48308,-0.251169 0.46875,-0.525391 0,-0.0223 4.7e-4,-0.04451 -0.01,-0.06641 -0.029,-0.559418 -0.089,-1.027811 -0.24804,-1.537109 -0.2142,-0.68788 -0.59327,-1.279291 -1.16797,-1.712891 -0.8502,-0.641418 -1.92555,-0.951182 -3.58985,-1.070312 -0.53678,-0.0384 -1.14681,-0.05579 -1.82031,-0.05859 -0.0598,-2.51e-4 -0.10277,-0.0037 -0.16211,-0.0039 h -0.002 z m 0.006,0.998047 c 0.039,0 0.0631,0.0039 0.10157,0.0039 0.72519,0.002 1.34527,0.02872 1.88476,0.07422 1.5073,0.12677 2.39923,0.412541 2.98633,0.855469 0.4049,0.30545 0.65021,0.675345 0.81641,1.208985 0.0828,0.266002 0.13348,0.534782 0.16796,0.833984 h -11.89257 c 0.0474,-0.296326 0.11486,-0.584813 0.16211,-0.833984 0.16618,-0.53363 0.4115,-0.903525 0.8164,-1.208985 0.58713,-0.442918 1.47903,-0.728699 2.98633,-0.855469 h 0.002 c 0.5395,-0.0455 1.15957,-0.07182 1.88477,-0.07422 0.032,-1.1e-4 0.051,-0.0039 0.084,-0.0039 z" />
  </g>
</svg>
