<?xml version="1.0" encoding="UTF-8" standalone="no"?>
<!-- Created with Inkscape (http://www.inkscape.org/) -->

<svg
   width="200"
   height="200"
   viewBox="0 0 52.916665 52.916666"
   version="1.1"
   id="svg5"
   inkscape:version="1.2 (dc2aedaf03, 2022-05-15)"
   sodipodi:docname="clock.svg"
   xmlns:inkscape="http://www.inkscape.org/namespaces/inkscape"
   xmlns:sodipodi="http://sodipodi.sourceforge.net/DTD/sodipodi-0.dtd"
   xmlns:xlink="http://www.w3.org/1999/xlink"
   xmlns="http://www.w3.org/2000/svg"
   xmlns:svg="http://www.w3.org/2000/svg">
  <sodipodi:namedview
     id="namedview7"
     pagecolor="#ffffff"
     bordercolor="#000000"
     borderopacity="0.25"
     inkscape:showpageshadow="2"
     inkscape:pageopacity="0.0"
     inkscape:pagecheckerboard="0"
     inkscape:deskcolor="#d1d1d1"
     inkscape:document-units="px"
     showgrid="false"
     inkscape:zoom="7.8499996"
     inkscape:cx="80.573253"
     inkscape:cy="102.99364"
     inkscape:window-width="1920"
     inkscape:window-height="1006"
     inkscape:window-x="0"
     inkscape:window-y="0"
     inkscape:window-maximized="1"
     inkscape:current-layer="svg5" />
  <defs
     id="defs2">
    <linearGradient
       inkscape:collect="always"
       id="linearGradient28421">
      <stop
         style="stop-color:#000000;stop-opacity:1;"
         offset="0"
         id="stop28417" />
      <stop
         style="stop-color:#000000;stop-opacity:0;"
         offset="1"
         id="stop28419" />
    </linearGradient>
    <linearGradient
       inkscape:collect="always"
       id="linearGradient5239">
      <stop
         style="stop-color:#ffffff;stop-opacity:1;"
         offset="0"
         id="stop5235" />
      <stop
         style="stop-color:#ffffff;stop-opacity:0;"
         offset="1"
         id="stop5237" />
    </linearGradient>
    <linearGradient
       inkscape:collect="always"
       id="linearGradient2978">
      <stop
         style="stop-color:#f7f7f7;stop-opacity:1;"
         offset="0"
         id="stop2974" />
      <stop
         style="stop-color:#e5e5e5;stop-opacity:1;"
         offset="1"
         id="stop2976" />
    </linearGradient>
    <linearGradient
       inkscape:collect="always"
       xlink:href="#linearGradient2978"
       id="linearGradient2980"
       x1="48.303093"
       y1="40.427158"
       x2="10.429951"
       y2="6.7542486"
       gradientUnits="userSpaceOnUse" />
    <radialGradient
       inkscape:collect="always"
       xlink:href="#linearGradient5239"
       id="radialGradient5241"
       cx="26.458332"
       cy="-10.858716"
       fx="26.458332"
       fy="-10.858716"
       r="25.664583"
       gradientTransform="matrix(1,0,0,0.50515463,0,6.8082473)"
       gradientUnits="userSpaceOnUse" />
    <radialGradient
       inkscape:collect="always"
       xlink:href="#linearGradient28421"
       id="radialGradient28423"
       cx="26.458333"
       cy="26.987499"
       fx="26.458333"
       fy="26.987499"
       r="27.516666"
       gradientUnits="userSpaceOnUse" />
  </defs>
  <g
     id="ClockFace">
    <path
       id="path28370"
       style="opacity:1;fill:url(#radialGradient28423);fill-opacity:1;stroke-width:0.529167;stroke-linecap:square;stroke-linejoin:round"
       d="M 26.458333 -0.52916666 A 27.516666 27.516666 0 0 0 -1.0583333 26.987499 A 27.516666 27.516666 0 0 0 26.458333 54.504165 A 27.516666 27.516666 0 0 0 53.974999 26.987499 A 27.516666 27.516666 0 0 0 26.458333 -0.52916666 z M 26.458333 0.79374998 A 25.664583 25.664583 0 0 1 52.122916 26.458333 A 25.664583 25.664583 0 0 1 26.458333 52.122916 A 25.664583 25.664583 0 0 1 0.79374998 26.458333 A 25.664583 25.664583 0 0 1 26.458333 0.79374998 z " />
    <circle
       style="fill:url(#linearGradient2980);stroke-width:0.523767;stroke-linecap:square;stroke-linejoin:round;fill-opacity:1"
       id="path184"
       cx="26.458334"
       cy="26.458334"
       r="25.664583" />
    <path
       id="rect1033"
       style="opacity:0.1;fill:#ffffff;stroke-width:2.2813;stroke-linecap:round;stroke-linejoin:round"
       d="M 4.3048066,13.509079 A 25.664583,25.664583 0 0 0 0.75142035,26.52628 25.664583,25.664583 0 0 0 26.416003,52.190863 25.664583,25.664583 0 0 0 48.611857,39.407585 Z" />
    <path
       id="path5248"
       style="font-size:8.11389px;font-family:Ubuntu;-inkscape-font-specification:Ubuntu;text-align:center;text-anchor:middle;fill:#4d4d4d;fill-opacity:1;stroke-width:1.37661;stroke-linecap:square;stroke-linejoin:round"
       d="m 28.401367,4.2948282 c -0.194734,0 -0.375949,0.02418 -0.543636,0.072864 -0.167687,0.048683 -0.319005,0.1084801 -0.454236,0.1788004 -0.135232,0.07032 -0.25145,0.1457208 -0.348816,0.2268595 -0.09737,0.07573 -0.170428,0.1407276 -0.219108,0.1948202 l 0.373104,0.5353678 c 0.03787,-0.032455 0.09194,-0.078474 0.162264,-0.1379761 0.07032,-0.064911 0.157156,-0.124191 0.259932,-0.1782837 0.102775,-0.059502 0.218993,-0.1107218 0.348816,-0.1539957 0.129822,-0.043274 0.273079,-0.065112 0.429948,-0.065112 0.129822,0 0.251758,0.018979 0.365352,0.056844 0.119004,0.032456 0.221444,0.086534 0.307992,0.1622639 0.08654,0.07573 0.154401,0.1701093 0.203088,0.2837037 0.05409,0.1135943 0.08113,0.2516505 0.08113,0.4139282 0,0.1514591 -0.0299,0.2947165 -0.0894,0.4299479 -0.05409,0.1352313 -0.129493,0.2680864 -0.22686,0.3979085 -0.09196,0.1244129 -0.200115,0.2515499 -0.324528,0.3813721 -0.119004,0.1244128 -0.246141,0.2515499 -0.381372,0.381372 -0.162278,0.1622777 -0.327373,0.3297156 -0.49506,0.5028117 -0.167687,0.1730962 -0.319005,0.3571711 -0.454236,0.5519043 -0.135231,0.1947332 -0.246247,0.4029887 -0.332796,0.624768 -0.08114,0.2163702 -0.121956,0.4516651 -0.121956,0.7059001 v 0.0894 c 0,0.032456 0.0029,0.064696 0.0083,0.097152 h 3.407544 V 9.4066608 h -2.587956 c 0,-0.091957 0.0351,-0.2001152 0.10542,-0.324528 0.07573,-0.1244128 0.167767,-0.2544089 0.275952,-0.3896403 0.108185,-0.1352314 0.221544,-0.2652274 0.340548,-0.3896403 l 0.324528,-0.324528 c 0.162278,-0.1622778 0.324514,-0.3273734 0.486792,-0.4950602 0.162278,-0.1730962 0.308394,-0.3457352 0.438216,-0.5188314 0.129822,-0.1785053 0.232778,-0.3573792 0.308508,-0.5358846 0.08114,-0.1839146 0.12144,-0.3731907 0.12144,-0.567924 0,-0.4976513 -0.148459,-0.8814049 -0.445968,-1.1518676 -0.2921,-0.275872 -0.733308,-0.4139282 -1.322916,-0.4139282 z M 24.263635,4.424536 C 24.020218,4.7058172 23.752166,4.9411121 23.460066,5.1304361 23.167967,5.3143507 22.86819,5.4656683 22.559863,5.5846719 l 0.235128,0.567924 c 0.113594,-0.037865 0.229812,-0.083883 0.348815,-0.1379761 0.124414,-0.054092 0.240632,-0.1105135 0.348816,-0.1700154 0.113595,-0.059502 0.216551,-0.1216407 0.308509,-0.186552 0.09736,-0.064911 0.178482,-0.1275667 0.243396,-0.1870686 v 4.5764652 h 0.754476 V 4.424536 Z M 5.9402058,23.521044 c -0.3029182,0 -0.5652526,0.05694 -0.787032,0.170533 -0.2217795,0.113594 -0.4058545,0.259711 -0.5519043,0.438216 -0.1406406,0.178506 -0.2459395,0.375842 -0.3162598,0.592212 -0.07032,0.21637 -0.1059367,0.424625 -0.1059367,0.624768 0,0.227188 0.029898,0.446363 0.0894,0.657324 0.064911,0.205552 0.1678677,0.38911 0.3085083,0.551387 0.1406405,0.156869 0.3218568,0.284006 0.543636,0.381373 0.2217795,0.09196 0.492174,0.137976 0.81132,0.137976 0.1893239,0 0.3733988,-0.01898 0.5519043,-0.05685 0.1785054,-0.04327 0.3378831,-0.09735 0.4785237,-0.162263 -0.064911,0.329964 -0.1678677,0.608935 -0.3085083,0.836124 -0.1352314,0.227189 -0.3055282,0.413606 -0.5110799,0.559656 -0.2055516,0.140638 -0.4460477,0.243595 -0.7219197,0.308508 -0.2704627,0.06491 -0.5764736,0.09715 -0.9172567,0.09715 l 0.024805,0.633036 C 5.6210751,29.284794 6.4431779,28.997753 6.9949218,28.429782 7.552075,27.8564 7.8305297,27.012976 7.8305297,25.89867 7.8305295,25.530841 7.7897117,25.200649 7.7085733,24.90855 7.6274345,24.611048 7.5060153,24.359632 7.3437377,24.154081 7.1868693,23.948529 6.9895329,23.791494 6.7515258,23.683308 6.5189278,23.575124 6.2485333,23.521044 5.9402058,23.521044 Z m 41.3463122,0 c -0.156868,0 -0.308186,0.01612 -0.454236,0.04858 -0.14064,0.02705 -0.272978,0.06215 -0.397391,0.10542 -0.124413,0.04327 -0.238289,0.09215 -0.341065,0.146244 -0.09736,0.04869 -0.178482,0.0947 -0.243396,0.137977 l 0.292489,0.576192 c 0.124413,-0.08114 0.275731,-0.159916 0.454236,-0.235645 0.183915,-0.07573 0.405432,-0.113171 0.665075,-0.113171 0.129823,0 0.251759,0.01612 0.365353,0.04858 0.119004,0.02705 0.22196,0.07541 0.308508,0.145727 0.09196,0.07032 0.165015,0.160016 0.219108,0.268201 0.05409,0.108185 0.08113,0.237664 0.08113,0.389123 0,0.183915 -0.03796,0.338091 -0.113688,0.462504 -0.07573,0.119004 -0.173485,0.2139 -0.292489,0.284221 -0.119003,0.07032 -0.251342,0.118681 -0.397391,0.145727 -0.140641,0.02705 -0.278697,0.04082 -0.413929,0.04082 h -0.267684 v 0.6165 h 0.194821 c 0.194733,0 0.384009,0.01898 0.567924,0.05684 0.189323,0.03246 0.354419,0.09225 0.49506,0.1788 0.14064,0.08114 0.254,0.191639 0.340548,0.33228 0.08655,0.14064 0.130224,0.313796 0.130224,0.519348 0,0.319146 -0.105815,0.57342 -0.316776,0.762744 -0.205552,0.189324 -0.549005,0.28422 -1.030428,0.28422 -0.308328,0 -0.570663,-0.0351 -0.787032,-0.10542 -0.210962,-0.07032 -0.362279,-0.127259 -0.454236,-0.170532 l -0.146245,0.657324 c -0.01051,0.04723 0.113474,0.04868 0.21084,0.08113 0.09737,0.03246 0.211243,0.0647 0.341065,0.09715 0.129822,0.03246 0.267878,0.0595 0.413928,0.08113 0.151459,0.02164 0.297575,0.03256 0.438216,0.03256 0.36242,0 0.675974,-0.04316 0.941028,-0.129708 0.265054,-0.08655 0.484228,-0.205625 0.657324,-0.357084 0.178505,-0.151459 0.307984,-0.329817 0.389124,-0.535368 0.08655,-0.210961 0.130224,-0.438195 0.130224,-0.681612 0,-0.200142 -0.03276,-0.381358 -0.09767,-0.543636 -0.0595,-0.162277 -0.14062,-0.306051 -0.243396,-0.430465 -0.09737,-0.124412 -0.213584,-0.226852 -0.348816,-0.307991 -0.135231,-0.08114 -0.27563,-0.143279 -0.42168,-0.186552 0.238007,-0.108185 0.440545,-0.265221 0.608232,-0.470772 0.167686,-0.210961 0.251664,-0.462376 0.251664,-0.754476 0,-0.210961 -0.0351,-0.405955 -0.10542,-0.584461 C 48.839351,24.229579 48.733535,24.07306 48.592895,23.943238 48.452254,23.808007 48.273897,23.70505 48.057527,23.63473 47.841157,23.559 47.459322,23.521893 47.286514,23.521041 Z M 5.9479573,24.145812 c 0.2163702,0 0.395244,0.04888 0.5358846,0.146245 0.1406406,0.09196 0.2511406,0.219094 0.3322794,0.381372 0.086548,0.156868 0.1463452,0.343286 0.1788005,0.559656 0.032455,0.210961 0.048576,0.432994 0.048576,0.665592 v 0.178284 c 0,0.05409 -0.00286,0.111032 -0.00827,0.170532 -0.1568684,0.07032 -0.3191051,0.124397 -0.486792,0.162264 -0.1676869,0.03245 -0.3460439,0.04858 -0.5353678,0.04858 -0.3516015,0 -0.6167949,-0.0949 -0.7953003,-0.284221 -0.1730962,-0.194733 -0.2594157,-0.47553 -0.2594157,-0.843359 0,-0.129822 0.016121,-0.262677 0.048576,-0.397908 0.037865,-0.140641 0.097145,-0.267778 0.1782836,-0.381373 0.081139,-0.119003 0.1840955,-0.216241 0.3085083,-0.291971 0.1244129,-0.07573 0.2757304,-0.113689 0.4542359,-0.113689 z M 27.833443,42.853198 c -0.497652,0.0054 -0.946403,0.08367 -1.346688,0.235127 -0.394876,0.14605 -0.733128,0.362366 -1.014409,0.649056 -0.275871,0.286691 -0.489328,0.641062 -0.640787,1.062985 -0.151459,0.416512 -0.227377,0.898021 -0.227377,1.444356 0,0.741068 0.159895,1.322674 0.479041,1.744596 0.324556,0.421922 0.795145,0.63252 1.4118,0.63252 0.302918,0 0.565252,-0.05694 0.787032,-0.170533 0.221779,-0.113593 0.402996,-0.259193 0.543636,-0.437699 0.14605,-0.178505 0.254208,-0.376358 0.324528,-0.592729 0.07032,-0.216369 0.10542,-0.426967 0.10542,-0.632519 0,-0.227189 -0.03275,-0.443505 -0.09767,-0.649056 -0.0595,-0.210961 -0.1596,-0.395036 -0.30024,-0.551904 -0.140641,-0.162278 -0.321857,-0.292274 -0.543637,-0.389641 -0.221779,-0.09737 -0.492173,-0.145727 -0.81132,-0.145727 -0.189323,0 -0.372882,0.02132 -0.551387,0.06459 -0.173097,0.04327 -0.330132,0.09735 -0.470772,0.162264 0.07032,-0.329964 0.175619,-0.60556 0.316259,-0.827339 0.140641,-0.227189 0.313797,-0.411264 0.519349,-0.551905 0.205551,-0.140638 0.438504,-0.243595 0.698148,-0.308508 0.265054,-0.06492 0.55677,-0.10002 0.875916,-0.10542 z m -1.411801,2.815332 c 0.351602,0 0.613936,0.09724 0.787033,0.291971 0.178505,0.194734 0.2682,0.476047 0.2682,0.843877 0,0.129821 -0.01898,0.265019 -0.05684,0.40566 -0.03246,0.135231 -0.08939,0.262368 -0.170532,0.381372 -0.08114,0.119003 -0.184095,0.216242 -0.308508,0.291971 -0.124413,0.07573 -0.27573,0.113689 -0.454236,0.113689 -0.21637,0 -0.394728,-0.04602 -0.535368,-0.137977 -0.140641,-0.09737 -0.254516,-0.224503 -0.341064,-0.381372 -0.08114,-0.162277 -0.138079,-0.348694 -0.170533,-0.559655 -0.03245,-0.210961 -0.04858,-0.435337 -0.04858,-0.673344 v -0.178801 c 0.0054,-0.06491 0.01114,-0.127052 0.01654,-0.186552 0.162278,-0.07032 0.324515,-0.121542 0.486792,-0.153995 0.162278,-0.03787 0.337776,-0.05684 0.527099,-0.05684 z"
       sodipodi:nodetypes="csscccccsscscsccccsscsscccccscscccscscsccccccccccsscsscccsccccccccscccsscsccccsccsscscsccsccsscscccsscssccsccsccscccsccccssccscsccsscccsscsscssccsscccscccscscsssccsscccsccsc" />
    <path
       id="path5004"
       style="opacity:0.1;fill:#000000;fill-opacity:1;stroke-width:0.529167;stroke-linecap:square;stroke-linejoin:round"
       d="M 52.117748 26.061458 A 25.664583 25.664583 0 0 1 26.458333 51.593749 A 25.664583 25.664583 0 0 1 0.8035685 26.193749 A 25.664583 25.664583 0 0 0 0.79374998 26.458333 A 25.664583 25.664583 0 0 0 26.458333 52.122916 A 25.664583 25.664583 0 0 0 52.122916 26.458333 A 25.664583 25.664583 0 0 0 52.117748 26.061458 z " />
    <path
       id="path5034"
       style="opacity:0.4;fill:url(#radialGradient5241);fill-opacity:1;stroke-width:1.09086;stroke-linecap:square;stroke-linejoin:round"
       d="M 26.458333 0.79374998 A 25.664583 25.664583 0 0 0 0.79374998 26.458333 A 25.664583 25.664583 0 0 0 0.8035685 26.722916 A 25.664583 25.664583 0 0 1 26.458333 1.3229166 A 25.664583 25.664583 0 0 1 52.117748 26.590624 A 25.664583 25.664583 0 0 0 52.122916 26.458333 A 25.664583 25.664583 0 0 0 26.458333 0.79374998 z " />
  </g>
  <g
     id="SecondHand">
    <rect
       style="opacity:1;fill:none;fill-opacity:1;stroke-width:0.529167;stroke-linecap:square;stroke-linejoin:round"
       id="rect12396"
       width="2.1166666"
       height="21.43125"
       x="25.664583"
       y="25.664583" />
    <circle
       style="opacity:1;fill:#f22c42;fill-opacity:1;stroke-width:0.235185;stroke-linecap:square;stroke-linejoin:round"
       id="path5401"
       cx="26.722916"
       cy="26.722916"
       r="1.0583333" />
    <rect
       style="opacity:1;fill:#f22c42;fill-opacity:1;stroke-width:0.374178;stroke-linecap:square;stroke-linejoin:round"
       id="rect9482"
       width="0.52916664"
       height="17.727083"
       x="26.458332"
       y="26.722916" />
  </g>
  <g
     id="MinuteHand"
     transform="translate(-11.301311)">
    <rect
       style="opacity:1;fill:none;fill-opacity:1;stroke-width:0.648095;stroke-linecap:square;stroke-linejoin:round"
       id="rect19764"
       width="3.175"
       height="22.489582"
       x="31.14506"
       y="25.135418"
       inkscape:label="rect19764" />
    <circle
       style="opacity:1;fill:#3b3b3b;fill-opacity:1;stroke-width:0.529167;stroke-linecap:square;stroke-linejoin:round"
       id="path12392"
       cx="32.732559"
       cy="26.722916"
       r="1.0583333" />
    <path
       id="rect12394"
       style="opacity:1;fill:#3b3b3b;fill-opacity:1;stroke-width:0.529167;stroke-linecap:square;stroke-linejoin:round"
       d="m 32.203394,27.110489 v 17.33951 h 1.058333 v -17.33951 c -0.160906,0.09282 -0.343408,0.141653 -0.529166,0.141593 -0.185759,6e-5 -0.368261,-0.04877 -0.529167,-0.141593 z"
       sodipodi:nodetypes="cccccc" />
  </g>
  <g
     id="HourHand"
     inkscape:label="HourHand"
     transform="translate(-3.0763,-3.2979899)">
    <rect
       style="opacity:1;fill:none;fill-opacity:1;stroke-width:0.529167;stroke-linecap:square;stroke-linejoin:round"
       id="rect19825"
       width="4.7624998"
       height="16.933332"
       x="32.180466"
       y="27.639656" />
    <circle
       style="opacity:1;fill:#3b3b3b;fill-opacity:1;stroke-width:0.529167;stroke-linecap:square;stroke-linejoin:round"
       id="path23928"
       cx="34.561718"
       cy="30.020922"
       r="1.0583333" />
    <path
       id="rect20303"
       style="fill:#3b3b3b;fill-opacity:1;stroke-width:0.306795;stroke-linecap:square;stroke-linejoin:round"
       d="m 34.032668,30.408181 v 12.312944 h 1.058334 V 30.408181 c -0.160856,0.093 -0.343361,0.142014 -0.529167,0.142111 -0.185806,-9.7e-5 -0.368311,-0.04911 -0.529167,-0.142111 z"
       sodipodi:nodetypes="cccccc" />
  </g>
</svg>
