<?xml version="1.0" encoding="UTF-8" standalone="no"?>
<!-- Created with Inkscape (http://www.inkscape.org/) -->

<svg
   width="744.09399"
   height="1052.3621"
   viewBox="0 0 744.09399 1052.3621"
   version="1.1"
   id="svg394"
   inkscape:version="1.2 (dc2aedaf03, 2022-05-15)"
   sodipodi:docname="timer.svg"
   xmlns:inkscape="http://www.inkscape.org/namespaces/inkscape"
   xmlns:sodipodi="http://sodipodi.sourceforge.net/DTD/sodipodi-0.dtd"
   xmlns:xlink="http://www.w3.org/1999/xlink"
   xmlns="http://www.w3.org/2000/svg"
   xmlns:svg="http://www.w3.org/2000/svg">
  <sodipodi:namedview
     id="namedview396"
     pagecolor="#ffffff"
     bordercolor="#000000"
     borderopacity="0.25"
     inkscape:showpageshadow="2"
     inkscape:pageopacity="0.0"
     inkscape:pagecheckerboard="0"
     inkscape:deskcolor="#d1d1d1"
     inkscape:document-units="px"
     showgrid="false"
     inkscape:zoom="0.37297049"
     inkscape:cx="-548.30075"
     inkscape:cy="746.70787"
     inkscape:window-width="1920"
     inkscape:window-height="1006"
     inkscape:window-x="0"
     inkscape:window-y="0"
     inkscape:window-maximized="1"
     inkscape:current-layer="layer1" />
  <defs
     id="defs391">
    <linearGradient
       inkscape:collect="always"
       id="linearGradient6189">
      <stop
         style="stop-color:#b40000;stop-opacity:1;"
         offset="0"
         id="stop6185" />
      <stop
         style="stop-color:#e10000;stop-opacity:1;"
         offset="0.5"
         id="stop6193" />
      <stop
         style="stop-color:#b40000;stop-opacity:1;"
         offset="1"
         id="stop6187" />
    </linearGradient>
    <linearGradient
       inkscape:collect="always"
       id="linearGradient2811">
      <stop
         style="stop-color:#000000;stop-opacity:1;"
         offset="0"
         id="stop2807" />
      <stop
         style="stop-color:#202020;stop-opacity:1;"
         offset="0.5"
         id="stop2815" />
      <stop
         style="stop-color:#000000;stop-opacity:1;"
         offset="1"
         id="stop2809" />
    </linearGradient>
    <linearGradient
       inkscape:collect="always"
       xlink:href="#linearGradient2811"
       id="linearGradient2813"
       x1="360.15536"
       y1="78.364998"
       x2="360.15536"
       y2="185.02272"
       gradientUnits="userSpaceOnUse" />
    <linearGradient
       inkscape:collect="always"
       xlink:href="#linearGradient2811"
       id="linearGradient2823"
       x1="449.22635"
       y1="78.36541"
       x2="449.22635"
       y2="187.27963"
       gradientUnits="userSpaceOnUse" />
    <linearGradient
       inkscape:collect="always"
       xlink:href="#linearGradient2811"
       id="linearGradient2831"
       x1="212.88091"
       y1="80.772354"
       x2="212.88091"
       y2="185.02312"
       gradientUnits="userSpaceOnUse" />
    <linearGradient
       inkscape:collect="always"
       xlink:href="#linearGradient2811"
       id="linearGradient2839"
       x1="202.18588"
       y1="242.382"
       x2="202.18588"
       y2="346.63275"
       gradientUnits="userSpaceOnUse" />
    <linearGradient
       inkscape:collect="always"
       xlink:href="#linearGradient2811"
       id="linearGradient2847"
       x1="293.5134"
       y1="242.8333"
       x2="293.5134"
       y2="349.34058"
       gradientUnits="userSpaceOnUse" />
    <linearGradient
       inkscape:collect="always"
       xlink:href="#linearGradient2811"
       id="linearGradient2855"
       x1="450.43015"
       y1="242.382"
       x2="450.43015"
       y2="349.34058"
       gradientUnits="userSpaceOnUse" />
    <linearGradient
       inkscape:collect="always"
       xlink:href="#linearGradient2811"
       id="linearGradient4707"
       x1="273.34116"
       y1="568.15747"
       x2="273.34116"
       y2="677.07166"
       gradientUnits="userSpaceOnUse" />
    <linearGradient
       inkscape:collect="always"
       xlink:href="#linearGradient2811"
       id="linearGradient4715"
       x1="271.61139"
       y1="408.71463"
       x2="271.61139"
       y2="512.96539"
       gradientUnits="userSpaceOnUse" />
    <linearGradient
       inkscape:collect="always"
       xlink:href="#linearGradient2811"
       id="linearGradient4723"
       x1="361.66"
       y1="404.89346"
       x2="361.66"
       y2="513.80768"
       gradientUnits="userSpaceOnUse" />
    <linearGradient
       inkscape:collect="always"
       xlink:href="#linearGradient2811"
       id="linearGradient4731"
       x1="450.4303"
       y1="404.89346"
       x2="450.4303"
       y2="511.85205"
       gradientUnits="userSpaceOnUse" />
    <linearGradient
       inkscape:collect="always"
       xlink:href="#linearGradient6189"
       id="linearGradient6191"
       x1="596.13275"
       y1="80.772354"
       x2="596.13275"
       y2="185.02312"
       gradientUnits="userSpaceOnUse" />
    <linearGradient
       inkscape:collect="always"
       xlink:href="#linearGradient6189"
       id="linearGradient6201"
       x1="678.1189"
       y1="78.364998"
       x2="678.1189"
       y2="185.02272"
       gradientUnits="userSpaceOnUse" />
    <linearGradient
       inkscape:collect="always"
       xlink:href="#linearGradient6189"
       id="linearGradient6275"
       x1="832.47821"
       y1="78.36541"
       x2="832.47821"
       y2="187.27963"
       gradientUnits="userSpaceOnUse" />
    <linearGradient
       inkscape:collect="always"
       xlink:href="#linearGradient6189"
       id="linearGradient6277"
       x1="833.68201"
       y1="242.382"
       x2="833.68201"
       y2="349.34058"
       gradientUnits="userSpaceOnUse" />
    <linearGradient
       inkscape:collect="always"
       xlink:href="#linearGradient6189"
       id="linearGradient6279"
       x1="740.85016"
       y1="242.8333"
       x2="740.85016"
       y2="349.34058"
       gradientUnits="userSpaceOnUse" />
    <linearGradient
       inkscape:collect="always"
       xlink:href="#linearGradient6189"
       id="linearGradient6281"
       x1="585.43774"
       y1="242.382"
       x2="585.43774"
       y2="346.63275"
       gradientUnits="userSpaceOnUse" />
    <linearGradient
       inkscape:collect="always"
       xlink:href="#linearGradient6189"
       id="linearGradient6283"
       x1="588.52185"
       y1="408.71463"
       x2="588.52185"
       y2="512.96539"
       gradientUnits="userSpaceOnUse" />
    <linearGradient
       inkscape:collect="always"
       xlink:href="#linearGradient6189"
       id="linearGradient6285"
       x1="676.61487"
       y1="404.89346"
       x2="676.61487"
       y2="513.80768"
       gradientUnits="userSpaceOnUse" />
    <linearGradient
       inkscape:collect="always"
       xlink:href="#linearGradient6189"
       id="linearGradient6287"
       x1="765.98688"
       y1="404.89346"
       x2="765.98688"
       y2="511.85205"
       gradientUnits="userSpaceOnUse" />
    <linearGradient
       inkscape:collect="always"
       xlink:href="#linearGradient6189"
       id="linearGradient6289"
       x1="586.79169"
       y1="568.15747"
       x2="586.79169"
       y2="677.07166"
       gradientUnits="userSpaceOnUse" />
  </defs>
  <g
     inkscape:label="Layer 1"
     inkscape:groupmode="layer"
     id="layer1">
    <g
       id="1"
       transform="translate(46)">
      <rect
         style="opacity:1;fill:none;stroke-width:2;stroke-linecap:square;stroke-linejoin:round"
         id="rect696"
         width="89.070999"
         height="163.26401"
         x="193.90498"
         y="51.190498" />
      <path
         d="m 212.8809,102.28441 q 8.57473,-3.309544 16.69817,-8.4243 8.12344,-5.265191 14.89297,-13.087759 h 9.92864 V 185.02312 h -13.99036 v -84.84478 q -1.80521,1.65477 -4.51302,3.45998 -2.55738,1.80521 -5.71649,3.45998 -3.00868,1.65478 -6.46867,3.15912 -3.30954,1.50434 -6.46866,2.55737 z"
         id="path1736"
         style="font-size:150.434px;font-family:Ubuntu;-inkscape-font-specification:Ubuntu;fill:url(#linearGradient2831);fill-opacity:1;stroke-width:25.0723;stroke-linecap:square;stroke-linejoin:round" />
    </g>
    <g
       id="2"
       transform="translate(66)">
      <rect
         style="opacity:1;fill:none;stroke-width:2;stroke-linecap:square;stroke-linejoin:round"
         id="rect1253"
         width="89.071014"
         height="163.26402"
         x="282.97598"
         y="51.190498" />
      <path
         d="m 356.69537,107.39877 q 0,5.41562 -2.25651,10.53038 -2.10607,4.96432 -5.71649,9.92864 -3.61042,4.81389 -8.12344,9.62778 -4.51302,4.66346 -9.02604,9.17648 -2.55738,2.55737 -6.01736,6.01736 -3.30955,3.45998 -6.31823,7.22083 -3.00868,3.76085 -5.11475,7.22083 -1.95564,3.45998 -1.95564,6.01736 h 47.98844 v 11.88429 h -63.18228 q -0.15043,-0.90261 -0.15043,-1.80521 0,-0.90261 0,-1.65478 0,-7.07039 2.25651,-13.08775 2.40694,-6.1678 6.16779,-11.58342 3.76085,-5.41563 8.42431,-10.22951 4.66345,-4.81389 9.17647,-9.32691 3.76085,-3.61042 7.0704,-7.0704 3.45998,-3.61042 6.01736,-7.0704 2.70781,-3.61042 4.21215,-7.37127 1.65478,-3.76085 1.65478,-7.973 0,-4.51302 -1.50434,-7.67213 -1.35391,-3.159123 -3.76085,-5.265199 -2.40695,-2.106076 -5.7165,-3.00868 -3.15911,-1.053039 -6.76953,-1.053039 -4.36258,0 -7.973,1.203473 -3.61042,1.203472 -6.46866,2.858246 -2.85825,1.50434 -4.81389,3.309548 -1.95564,1.654778 -3.00868,2.557381 L 294.867,90.851022 q 1.3539,-1.50434 4.06171,-3.610416 2.70782,-2.25651 6.46867,-4.212152 3.76085,-1.955642 8.4243,-3.309548 4.66345,-1.353906 10.07908,-1.353906 16.39731,0 24.52074,7.672134 8.27387,7.521701 8.27387,21.361636 z"
         id="path1738"
         style="font-size:150.434px;font-family:Ubuntu;-inkscape-font-specification:Ubuntu;fill:url(#linearGradient2813);fill-opacity:1;stroke-width:25.0723;stroke-linecap:square;stroke-linejoin:round" />
    </g>
    <g
       id="3"
       transform="translate(86)">
      <rect
         style="opacity:1;fill:none;stroke-width:2;stroke-linecap:square;stroke-linejoin:round"
         id="rect1255"
         width="89.071014"
         height="163.26402"
         x="372.047"
         y="51.190498" />
      <path
         d="m 409.66221,174.7936 q 13.38863,0 19.10512,-5.26519 5.86693,-5.26519 5.86693,-14.14079 0,-5.71649 -2.40694,-9.62778 -2.40695,-3.91128 -6.31823,-6.16779 -3.91129,-2.40695 -9.17648,-3.30955 -5.11475,-1.05304 -10.53038,-1.05304 h -3.61041 v -11.43298 h 4.96432 q 3.76085,0 7.67213,-0.75217 4.06172,-0.75217 7.37127,-2.70782 3.30955,-1.95564 5.41562,-5.26519 2.10608,-3.45998 2.10608,-8.57473 0,-4.21216 -1.50434,-7.220836 -1.50434,-3.00868 -4.06172,-4.964322 -2.40694,-1.955642 -5.71649,-2.707812 -3.15912,-0.902605 -6.76953,-0.902605 -7.22083,0 -12.33559,2.106077 -4.96432,2.106076 -8.4243,4.362586 l -5.41563,-10.680815 q 1.80521,-1.203472 4.51302,-2.557378 2.85825,-1.50434 6.31823,-2.707812 3.45998,-1.203472 7.37127,-1.955642 4.06171,-0.902604 8.4243,-0.902604 8.27387,0 14.29123,2.106076 6.01736,1.955642 9.92865,5.716492 3.91128,3.610416 5.86692,8.725173 1.95564,4.964322 1.95564,10.831252 0,8.12343 -4.66345,13.99036 -4.66345,5.71649 -11.28255,8.72517 4.06172,1.20347 7.82257,3.45998 3.76085,2.25651 6.46866,5.7165 2.85825,3.45998 4.51302,7.973 1.80521,4.51302 1.80521,10.07908 0,6.76953 -2.40695,12.63645 -2.25651,5.71649 -7.22083,9.92865 -4.81389,4.21215 -12.18515,6.61909 -7.37127,2.40695 -17.45035,2.40695 -3.91128,0 -8.12343,-0.60174 -4.06172,-0.60173 -7.67214,-1.50434 -3.61041,-0.9026 -6.31823,-1.80521 -2.70781,-0.9026 -3.91128,-1.50434 l 2.70781,-12.18515 q 2.55738,1.20347 8.42431,3.15911 6.01736,1.95564 14.59209,1.95564 z"
         id="path1740"
         style="font-size:150.434px;font-family:Ubuntu;-inkscape-font-specification:Ubuntu;fill:url(#linearGradient2823);fill-opacity:1;stroke-width:25.0723;stroke-linecap:square;stroke-linejoin:round" />
    </g>
    <g
       id="4"
       transform="translate(46,20)">
      <rect
         style="opacity:1;fill:none;stroke-width:2;stroke-linecap:square;stroke-linejoin:round"
         id="rect1257"
         width="89.071014"
         height="163.26402"
         x="193.90497"
         y="214.45453" />
      <path
         d="m 202.18588,310.5286 q 2.85825,-6.61909 7.82257,-15.34427 4.96432,-8.8756 11.13212,-18.20251 6.31823,-9.32691 13.38862,-18.35295 7.22084,-9.02604 14.44167,-16.24687 h 13.38863 v 66.19096 h 12.33558 v 11.43299 h -12.33558 v 26.62681 h -13.53906 v -26.62681 h -46.63455 z m 46.63455,-51.59886 q -4.51302,4.81389 -9.17648,10.83125 -4.51302,5.86692 -8.87561,12.33559 -4.36258,6.46866 -8.27387,13.23819 -3.76085,6.76953 -6.76953,13.23819 h 33.09549 z"
         id="path1742"
         style="font-size:150.434px;font-family:Ubuntu;-inkscape-font-specification:Ubuntu;fill:url(#linearGradient2839);fill-opacity:1;stroke-width:25.0723;stroke-linecap:square;stroke-linejoin:round" />
    </g>
    <g
       id="5"
       transform="translate(66,20)">
      <rect
         style="opacity:1;fill:none;stroke-width:2;stroke-linecap:square;stroke-linejoin:round"
         id="rect1259"
         width="89.071014"
         height="163.26402"
         x="282.97598"
         y="214.45453" />
      <path
         d="m 313.67156,282.99918 q 22.71553,0.9026 33.24591,9.92864 10.68082,9.02604 10.68082,24.52075 0,6.91996 -2.40695,12.78689 -2.25651,5.86692 -7.07039,10.07907 -4.66346,4.21216 -11.88429,6.6191 -7.22083,2.40694 -17.14948,2.40694 -3.91128,0 -7.973,-0.60173 -4.06172,-0.60174 -7.5217,-1.50434 -3.45998,-0.90261 -6.16779,-1.80521 -2.70782,-0.9026 -3.91129,-1.50434 l 2.70781,-12.18515 q 2.55738,1.20347 8.27387,3.15911 5.86693,1.95564 14.29123,1.95564 6.76953,0 11.28256,-1.50434 4.66345,-1.50434 7.5217,-4.06172 2.85824,-2.55737 4.06171,-5.86692 1.35391,-3.45998 1.35391,-7.22083 0,-5.7165 -1.95564,-10.07908 -1.95564,-4.51302 -6.91997,-7.5217 -4.96432,-3.00868 -13.23819,-4.51302 -8.27387,-1.65478 -20.91033,-1.65478 0.90261,-7.37126 1.35391,-13.83993 0.60174,-6.46866 1.05304,-12.63645 0.4513,-6.1678 0.75217,-12.18516 0.30087,-6.16779 0.60173,-12.93732 h 50.24496 v 11.88428 h -38.0598 q -0.15044,2.25651 -0.4513,6.1678 -0.30087,3.76085 -0.60174,7.973 -0.30087,4.06172 -0.60174,7.973 -0.30086,3.91129 -0.60173,6.1678 z"
         id="path1744"
         style="font-size:150.434px;font-family:Ubuntu;-inkscape-font-specification:Ubuntu;fill:url(#linearGradient2847);fill-opacity:1;stroke-width:25.0723;stroke-linecap:square;stroke-linejoin:round" />
    </g>
    <g
       id="6"
       transform="translate(86,20)">
      <rect
         style="opacity:1;fill:none;stroke-width:2;stroke-linecap:square;stroke-linejoin:round"
         id="rect1261"
         width="89.071014"
         height="163.26402"
         x="372.047"
         y="214.45453" />
      <path
         d="m 382.73485,305.26341 q 0,-15.19383 4.21215,-26.77725 4.21216,-11.73385 11.88429,-19.70686 7.82257,-7.973 18.80425,-12.03472 11.13212,-4.21215 24.97205,-4.36258 l 1.05303,11.73385 q -8.8756,0.15043 -16.24687,1.95564 -7.22083,1.80521 -12.93732,5.71649 -5.7165,3.91129 -9.62778,10.22952 -3.91128,6.16779 -5.86693,15.34426 3.91129,-1.8052 8.72518,-3.00868 4.96432,-1.20347 10.22951,-1.20347 8.87561,0 15.0434,2.70781 6.16779,2.70782 10.07908,7.22084 3.91128,4.36258 5.56606,10.22951 1.8052,5.71649 1.8052,12.03472 0,5.71649 -1.95564,11.73385 -1.95564,6.01736 -6.01736,10.98168 -3.91128,4.96433 -10.07908,8.12344 -6.16779,3.15911 -14.5921,3.15911 -17.14947,0 -26.17551,-11.73385 -8.87561,-11.73385 -8.87561,-32.34331 z m 33.69722,-10.68081 q -5.26519,0 -9.77821,1.05303 -4.51302,0.90261 -9.02604,2.85825 -0.15044,1.65477 -0.30087,3.45998 0,1.65478 0,3.30955 0,6.6191 0.9026,12.48602 0.90261,5.86693 3.15912,10.37995 2.40694,4.36259 6.31823,7.0704 3.91128,2.55738 9.92864,2.55738 4.96432,0 8.42431,-2.10608 3.45998,-2.10608 5.71649,-5.41562 2.25651,-3.30955 3.15911,-7.0704 1.05304,-3.91129 1.05304,-7.5217 0,-10.22952 -4.96432,-15.64514 -4.81389,-5.41562 -14.5921,-5.41562 z"
         id="path1746"
         style="font-size:150.434px;font-family:Ubuntu;-inkscape-font-specification:Ubuntu;fill:url(#linearGradient2855);fill-opacity:1;stroke-width:25.0723;stroke-linecap:square;stroke-linejoin:round" />
    </g>
    <g
       id="7"
       transform="translate(46,40)">
      <rect
         style="opacity:1;fill:none;stroke-width:2;stroke-linecap:square;stroke-linejoin:round"
         id="rect1263"
         width="89.071014"
         height="163.26402"
         x="193.90497"
         y="377.71857" />
      <path
         d="m 220.76471,512.96539 q 0.9026,-12.03472 4.21215,-25.27291 3.45998,-13.38863 8.4243,-25.87465 4.96433,-12.63646 10.83125,-23.31727 6.01736,-10.83125 11.73385,-17.60078 H 205.27 v -12.18515 h 66.3414 v 11.58341 q -4.96432,5.7165 -10.98168,15.79557 -6.01736,9.92865 -11.43299,22.41467 -5.26519,12.33559 -9.17647,26.47639 -3.76085,13.99036 -4.66346,27.98072 z"
         id="path1748"
         style="font-size:150.434px;font-family:Ubuntu;-inkscape-font-specification:Ubuntu;fill:url(#linearGradient4715);fill-opacity:1;stroke-width:25.0723;stroke-linecap:square;stroke-linejoin:round" />
    </g>
    <g
       id="8"
       transform="translate(66,40)">
      <rect
         style="opacity:1;fill:none;stroke-width:2;stroke-linecap:square;stroke-linejoin:round"
         id="rect1265"
         width="89.071014"
         height="163.26402"
         x="282.97598"
         y="377.71857" />
      <path
         d="m 361.66001,484.47306 q 0,6.31823 -2.25651,11.73385 -2.10608,5.26519 -6.46866,9.32691 -4.21215,3.91129 -10.68082,6.01736 -6.46866,2.25651 -14.89296,2.25651 -9.77821,0 -16.39731,-2.70781 -6.46866,-2.85825 -10.37995,-7.0704 -3.91128,-4.21215 -5.56605,-9.17647 -1.65478,-5.11476 -1.65478,-9.62778 0,-4.36259 1.35391,-8.27387 1.50434,-4.06172 3.76085,-7.5217 2.40694,-3.45998 5.41562,-6.16779 3.15912,-2.85825 6.6191,-4.96433 -14.74253,-8.4243 -14.74253,-24.82161 0,-5.71649 2.25651,-10.83125 2.25651,-5.26519 6.31822,-9.17647 4.21216,-3.91128 10.07908,-6.16779 5.86693,-2.40695 13.08776,-2.40695 8.42431,0 14.44167,2.55738 6.01736,2.55738 9.77821,6.6191 3.91128,3.91128 5.56605,8.72517 1.80521,4.81389 1.80521,9.32691 0,4.36258 -1.3539,8.27387 -1.20348,3.76085 -3.45999,7.07039 -2.10607,3.30955 -4.96432,5.86693 -2.70781,2.55738 -5.71649,4.51302 17.75121,8.42431 18.05208,26.62682 z m -54.15624,0.9026 q 0,2.70782 0.9026,5.7165 1.05304,2.85824 3.45998,5.41562 2.40695,2.40694 6.1678,4.06172 3.76085,1.65477 9.47734,1.65477 5.11476,0 8.87561,-1.50434 3.91128,-1.50434 6.31823,-3.76085 2.40694,-2.40694 3.61041,-5.41562 1.20347,-3.00868 1.20347,-6.1678 0,-4.81388 -1.8052,-8.4243 -1.80521,-3.61042 -5.26519,-6.31823 -3.30955,-2.70781 -8.12344,-4.51302 -4.66346,-1.95564 -10.68082,-3.30955 -6.76953,3.76085 -10.53038,9.32691 -3.61041,5.56606 -3.61041,13.23819 z m 37.6085,-53.40407 q 0,-2.25651 -1.05304,-4.96432 -0.9026,-2.70781 -3.00868,-4.96432 -2.10607,-2.40695 -5.41562,-3.91129 -3.30955,-1.65477 -8.12344,-1.65477 -4.81389,0 -8.27387,1.50434 -3.30955,1.50434 -5.41562,3.91128 -2.10608,2.25651 -3.15912,5.11476 -0.9026,2.70781 -0.9026,5.41562 0,3.30955 1.20347,6.6191 1.20347,3.30955 3.76085,6.16779 2.55738,2.85825 6.6191,5.11476 4.21215,2.25651 9.92864,3.61042 6.31823,-3.76085 10.07908,-8.72518 3.76085,-5.11475 3.76085,-13.23819 z"
         id="path1750"
         style="font-size:150.434px;font-family:Ubuntu;-inkscape-font-specification:Ubuntu;fill:url(#linearGradient4723);fill-opacity:1;stroke-width:25.0723;stroke-linecap:square;stroke-linejoin:round" />
    </g>
    <g
       id="9"
       transform="translate(86,40)">
      <rect
         style="opacity:1;fill:none;stroke-width:2;stroke-linecap:square;stroke-linejoin:round"
         id="rect1267"
         width="89.071014"
         height="163.26402"
         x="372.047"
         y="377.71857" />
      <path
         d="m 450.43031,448.97064 q 0,30.9894 -15.49471,46.9354 -15.34427,15.79558 -45.73193,15.94601 l -0.45131,-11.73385 q 9.47735,0 16.99905,-1.80521 7.67213,-1.80521 13.38862,-5.71649 5.7165,-4.06172 9.47735,-10.37995 3.91128,-6.31823 5.71649,-15.4947 -3.91129,1.80521 -8.87561,3.00868 -4.96432,1.05304 -10.22951,1.05304 -8.87561,0 -15.0434,-2.55738 -6.1678,-2.70781 -10.07908,-7.0704 -3.91128,-4.51302 -5.71649,-10.22951 -1.65478,-5.86693 -1.65478,-12.18516 0,-5.56606 1.95565,-11.58342 1.95564,-6.01736 5.86692,-10.98168 4.06172,-4.96432 10.22951,-8.12343 6.1678,-3.15912 14.5921,-3.15912 8.57474,0 15.0434,3.00868 6.6191,3.00868 10.98169,8.72517 4.51302,5.7165 6.76953,13.99037 2.25651,8.12343 2.25651,18.35295 z m -33.69722,10.37994 q 5.26519,0 9.92864,-0.9026 4.66346,-1.05304 9.02604,-3.00868 0.15044,-1.65478 0.15044,-3.15912 0,-1.65477 0,-3.30954 0,-6.46867 -0.90261,-12.33559 -0.9026,-6.01736 -3.30954,-10.37995 -2.25651,-4.51302 -6.1678,-7.0704 -3.91128,-2.70781 -9.92864,-2.70781 -4.96433,0 -8.42431,2.10608 -3.45998,2.10607 -5.71649,5.41562 -2.25651,3.15911 -3.30955,7.0704 -0.9026,3.76085 -0.9026,7.37126 0,10.22952 4.81389,15.64514 4.96432,5.26519 14.74253,5.26519 z"
         id="path1752"
         style="font-size:150.434px;font-family:Ubuntu;-inkscape-font-specification:Ubuntu;fill:url(#linearGradient4731);fill-opacity:1;stroke-width:25.0723;stroke-linecap:square;stroke-linejoin:round" />
    </g>
    <g
       id="0"
       transform="translate(46,60)">
      <rect
         style="opacity:1;fill:none;stroke-width:2;stroke-linecap:square;stroke-linejoin:round"
         id="rect1269"
         width="89.071014"
         height="163.26402"
         x="193.90497"
         y="540.98254" />
      <path
         d="m 203.53979,622.61456 q 0,-26.17552 9.17648,-40.31631 9.32691,-14.1408 25.72421,-14.1408 16.39731,0 25.57378,14.1408 9.32691,14.14079 9.32691,40.31631 0,26.17552 -9.32691,40.31631 -9.17647,14.1408 -25.57378,14.1408 -16.3973,0 -25.72421,-14.1408 -9.17648,-14.14079 -9.17648,-40.31631 z m 55.05885,0 q 0,-8.57474 -1.05304,-16.24687 -0.9026,-7.67214 -3.30955,-13.38863 -2.25651,-5.71649 -6.16779,-9.02604 -3.91128,-3.45998 -9.62778,-3.45998 -5.71649,0 -9.62777,3.45998 -3.91129,3.30955 -6.31823,9.02604 -2.25651,5.71649 -3.30955,13.38863 -0.9026,7.67213 -0.9026,16.24687 0,8.57474 0.9026,16.24687 1.05304,7.67214 3.30955,13.38863 2.40694,5.71649 6.31823,9.17647 3.91128,3.30955 9.62777,3.30955 5.7165,0 9.62778,-3.30955 3.91128,-3.45998 6.16779,-9.17647 2.40695,-5.71649 3.30955,-13.38863 1.05304,-7.67213 1.05304,-16.24687 z"
         id="path1754"
         style="font-size:150.434px;font-family:Ubuntu;-inkscape-font-specification:Ubuntu;fill:url(#linearGradient4707);fill-opacity:1;stroke-width:25.0723;stroke-linecap:square;stroke-linejoin:round" />
    </g>
    <g
       id="1_1"
       transform="translate(190)">
      <rect
         style="opacity:1;fill:none;stroke-width:2;stroke-linecap:square;stroke-linejoin:round"
         id="rect1783"
         width="89.071014"
         height="163.26404"
         x="577.15686"
         y="51.190498" />
      <path
         d="m 596.13277,102.28441 q 8.57473,-3.309547 16.69817,-8.4243 8.12344,-5.265191 14.89297,-13.087759 h 9.92864 V 185.02312 h -13.99036 v -84.84478 q -1.80521,1.65477 -4.51302,3.45998 -2.55738,1.80521 -5.71649,3.45998 -3.00868,1.65478 -6.46867,3.15912 -3.30954,1.50434 -6.46866,2.55737 z"
         id="path1736-3"
         style="font-size:150.434px;font-family:Ubuntu;-inkscape-font-specification:Ubuntu;fill:url(#linearGradient6191);fill-opacity:1;stroke-width:25.0723;stroke-linecap:square;stroke-linejoin:round" />
    </g>
    <g
       id="2_1"
       transform="translate(210)">
      <rect
         style="opacity:1;fill:none;stroke-width:2;stroke-linecap:square;stroke-linejoin:round"
         id="rect1785"
         width="89.071014"
         height="163.26404"
         x="666.22791"
         y="51.190498" />
      <path
         d="m 739.94724,107.39877 q 0,5.41562 -2.25651,10.53038 -2.10607,4.96432 -5.71649,9.92864 -3.61042,4.81389 -8.12344,9.62778 -4.51302,4.66346 -9.02604,9.17648 -2.55738,2.55737 -6.01736,6.01736 -3.30955,3.45998 -6.31823,7.22083 -3.00868,3.76085 -5.11475,7.22083 -1.95564,3.45998 -1.95564,6.01736 h 47.98844 v 11.88429 h -63.18228 q -0.15043,-0.90261 -0.15043,-1.80521 0,-0.90261 0,-1.65478 0,-7.07039 2.25651,-13.08775 2.40694,-6.1678 6.16779,-11.58342 3.76085,-5.41563 8.42431,-10.22951 4.66345,-4.81389 9.17647,-9.32691 3.76085,-3.61042 7.0704,-7.0704 3.45998,-3.61042 6.01736,-7.0704 2.70781,-3.61042 4.21215,-7.37127 1.65478,-3.76085 1.65478,-7.973 0,-4.51302 -1.50434,-7.67213 -1.35391,-3.159123 -3.76085,-5.265199 -2.40695,-2.106076 -5.7165,-3.00868 -3.15911,-1.053039 -6.76953,-1.053039 -4.36258,0 -7.973,1.203473 -3.61042,1.203472 -6.46866,2.858246 -2.85825,1.50434 -4.81389,3.309548 -1.95564,1.654774 -3.00868,2.557381 l -6.91996,-9.928648 q 1.3539,-1.50434 4.06171,-3.610416 2.70782,-2.25651 6.46867,-4.212152 3.76085,-1.955642 8.4243,-3.309548 Q 701.737,78.365 707.15263,78.365 q 16.39731,0 24.52074,7.672134 8.27387,7.521701 8.27387,21.361636 z"
         id="path1738-6"
         style="font-size:150.434px;font-family:Ubuntu;-inkscape-font-specification:Ubuntu;fill:url(#linearGradient6201);fill-opacity:1;stroke-width:25.0723;stroke-linecap:square;stroke-linejoin:round" />
    </g>
    <g
       id="3_1"
       transform="translate(230)">
      <rect
         style="opacity:1;fill:none;stroke-width:2;stroke-linecap:square;stroke-linejoin:round"
         id="rect1787"
         width="89.070984"
         height="163.26404"
         x="755.29889"
         y="51.190498" />
      <path
         d="m 792.91408,174.7936 q 13.38863,0 19.10512,-5.26519 5.86693,-5.26519 5.86693,-14.14079 0,-5.71649 -2.40694,-9.62778 -2.40695,-3.91128 -6.31823,-6.16779 -3.91129,-2.40695 -9.17648,-3.30955 -5.11475,-1.05304 -10.53038,-1.05304 h -3.61041 v -11.43298 h 4.96432 q 3.76085,0 7.67213,-0.75217 4.06172,-0.75217 7.37127,-2.70782 3.30955,-1.95564 5.41562,-5.26519 2.10608,-3.45998 2.10608,-8.57473 0,-4.21216 -1.50434,-7.220837 -1.50434,-3.008679 -4.06172,-4.964321 -2.40694,-1.955642 -5.71649,-2.707812 -3.15912,-0.902605 -6.76953,-0.902605 -7.22083,0 -12.33559,2.106077 -4.96432,2.106076 -8.4243,4.362586 l -5.41563,-10.680815 q 1.80521,-1.203472 4.51302,-2.557378 2.85825,-1.50434 6.31823,-2.707812 3.45998,-1.203472 7.37127,-1.955642 4.06171,-0.902604 8.4243,-0.902604 8.27387,0 14.29123,2.106076 6.01736,1.955642 9.92865,5.716492 3.91128,3.610416 5.86692,8.725173 1.95564,4.964325 1.95564,10.831252 0,8.12343 -4.66345,13.99036 -4.66345,5.71649 -11.28255,8.72517 4.06172,1.20347 7.82257,3.45998 3.76085,2.25651 6.46866,5.7165 2.85825,3.45998 4.51302,7.973 1.80521,4.51302 1.80521,10.07908 0,6.76953 -2.40695,12.63645 -2.25651,5.71649 -7.22083,9.92865 -4.81389,4.21215 -12.18515,6.61909 -7.37127,2.40695 -17.45035,2.40695 -3.91128,0 -8.12343,-0.60174 -4.06172,-0.60173 -7.67214,-1.50434 -3.61041,-0.9026 -6.31823,-1.80521 -2.70781,-0.9026 -3.91128,-1.50434 l 2.70781,-12.18515 q 2.55738,1.20347 8.42431,3.15911 6.01736,1.95564 14.59209,1.95564 z"
         id="path1740-7"
         style="font-size:150.434px;font-family:Ubuntu;-inkscape-font-specification:Ubuntu;fill:url(#linearGradient6275);fill-opacity:1;stroke-width:25.0723;stroke-linecap:square;stroke-linejoin:round" />
    </g>
    <g
       id="4_1"
       transform="translate(190,20)">
      <rect
         style="fill:none;stroke-width:2;stroke-linecap:square;stroke-linejoin:round"
         id="rect2013"
         width="89.071045"
         height="163.26404"
         x="577.15686"
         y="214.45453" />
      <path
         d="m 585.43775,310.5286 q 2.85825,-6.61909 7.82257,-15.34427 4.96432,-8.8756 11.13212,-18.20251 6.31823,-9.32691 13.38862,-18.35295 7.22084,-9.02604 14.44167,-16.24687 h 13.38863 v 66.19096 h 12.33558 v 11.43299 h -12.33558 v 26.62681 H 632.0723 v -26.62681 h -46.63455 z m 46.63455,-51.59886 q -4.51302,4.81389 -9.17648,10.83125 -4.51302,5.86692 -8.87561,12.33559 -4.36258,6.46866 -8.27387,13.23819 -3.76085,6.76953 -6.76953,13.23819 h 33.09549 z"
         id="path1742-5"
         style="font-size:150.434px;font-family:Ubuntu;-inkscape-font-specification:Ubuntu;fill:url(#linearGradient6281);fill-opacity:1;stroke-width:25.0723;stroke-linecap:square;stroke-linejoin:round" />
    </g>
    <g
       id="5_1"
       transform="translate(210,20)">
      <rect
         style="fill:none;stroke-width:2;stroke-linecap:square;stroke-linejoin:round"
         id="rect2015"
         width="89.071045"
         height="163.26404"
         x="666.22791"
         y="214.45453" />
      <path
         d="m 696.92343,282.99918 q 22.71553,0.9026 33.24591,9.92864 10.68082,9.02604 10.68082,24.52075 0,6.91996 -2.40695,12.78689 -2.25651,5.86692 -7.07039,10.07907 -4.66346,4.21216 -11.88429,6.6191 -7.22083,2.40694 -17.14948,2.40694 -3.91128,0 -7.973,-0.60173 -4.06172,-0.60174 -7.5217,-1.50434 -3.45998,-0.90261 -6.16779,-1.80521 -2.70782,-0.9026 -3.91129,-1.50434 l 2.70781,-12.18515 q 2.55738,1.20347 8.27387,3.15911 5.86693,1.95564 14.29123,1.95564 6.76953,0 11.28256,-1.50434 4.66345,-1.50434 7.5217,-4.06172 2.85824,-2.55737 4.06171,-5.86692 1.35391,-3.45998 1.35391,-7.22083 0,-5.7165 -1.95564,-10.07908 -1.95564,-4.51302 -6.91997,-7.5217 -4.96432,-3.00868 -13.23819,-4.51302 -8.27387,-1.65478 -20.91033,-1.65478 0.90261,-7.37126 1.35391,-13.83993 0.60174,-6.46866 1.05304,-12.63645 0.4513,-6.1678 0.75217,-12.18516 0.30087,-6.16779 0.60173,-12.93732 h 50.24496 v 11.88428 h -38.0598 q -0.15044,2.25651 -0.4513,6.1678 -0.30087,3.76085 -0.60174,7.973 -0.30087,4.06172 -0.60174,7.973 -0.30086,3.91129 -0.60173,6.1678 z"
         id="path1744-3"
         style="font-size:150.434px;font-family:Ubuntu;-inkscape-font-specification:Ubuntu;fill:url(#linearGradient6279);fill-opacity:1;stroke-width:25.0723;stroke-linecap:square;stroke-linejoin:round" />
    </g>
    <g
       id="6_1"
       transform="translate(230,20)">
      <rect
         style="fill:none;stroke-width:2;stroke-linecap:square;stroke-linejoin:round"
         id="rect2017"
         width="89.070923"
         height="163.26404"
         x="755.29895"
         y="214.45453" />
      <path
         d="m 765.98672,305.26341 q 0,-15.19383 4.21215,-26.77725 4.21216,-11.73385 11.88429,-19.70686 7.82257,-7.973 18.80425,-12.03472 11.13212,-4.21215 24.97205,-4.36258 l 1.05303,11.73385 q -8.8756,0.15043 -16.24687,1.95564 -7.22083,1.80521 -12.93732,5.71649 -5.7165,3.91129 -9.62778,10.22952 -3.91128,6.16779 -5.86693,15.34426 3.91129,-1.8052 8.72518,-3.00868 4.96432,-1.20347 10.22951,-1.20347 8.87561,0 15.0434,2.70781 6.16779,2.70782 10.07908,7.22084 3.91128,4.36258 5.56606,10.22951 1.8052,5.71649 1.8052,12.03472 0,5.71649 -1.95564,11.73385 -1.95564,6.01736 -6.01736,10.98168 -3.91128,4.96433 -10.07908,8.12344 -6.16779,3.15911 -14.5921,3.15911 -17.14947,0 -26.17551,-11.73385 -8.87561,-11.73385 -8.87561,-32.34331 z m 33.69722,-10.68081 q -5.26519,0 -9.77821,1.05303 -4.51302,0.90261 -9.02604,2.85825 -0.15044,1.65477 -0.30087,3.45998 0,1.65478 0,3.30955 0,6.6191 0.9026,12.48602 0.90261,5.86693 3.15912,10.37995 2.40694,4.36259 6.31823,7.0704 3.91128,2.55738 9.92864,2.55738 4.96432,0 8.42431,-2.10608 3.45998,-2.10608 5.71649,-5.41562 2.25651,-3.30955 3.15911,-7.0704 1.05304,-3.91129 1.05304,-7.5217 0,-10.22952 -4.96432,-15.64514 -4.81389,-5.41562 -14.5921,-5.41562 z"
         id="path1746-5"
         style="font-size:150.434px;font-family:Ubuntu;-inkscape-font-specification:Ubuntu;fill:url(#linearGradient6277);fill-opacity:1;stroke-width:25.0723;stroke-linecap:square;stroke-linejoin:round" />
    </g>
    <g
       id="7_1"
       transform="translate(190,40)">
      <rect
         style="fill:none;fill-opacity:1;stroke-width:2;stroke-linecap:square;stroke-linejoin:round"
         id="rect4516"
         width="89.071045"
         height="163.26404"
         x="577.15686"
         y="377.71857" />
      <path
         d="m 604.01658,512.96539 q 0.9026,-12.03472 4.21215,-25.27291 3.45998,-13.38863 8.4243,-25.87465 4.96433,-12.63646 10.83125,-23.31727 6.01736,-10.83125 11.73385,-17.60078 h -50.69626 v -12.18515 h 66.3414 v 11.58341 q -4.96432,5.7165 -10.98168,15.79557 -6.01736,9.92865 -11.43299,22.41467 -5.26519,12.33559 -9.17647,26.47639 -3.76085,13.99036 -4.66346,27.98072 z"
         id="path1748-6"
         style="font-size:150.434px;font-family:Ubuntu;-inkscape-font-specification:Ubuntu;fill:url(#linearGradient6283);fill-opacity:1;stroke-width:25.0723;stroke-linecap:square;stroke-linejoin:round" />
    </g>
    <g
       id="8_1"
       transform="translate(210,40)">
      <rect
         style="fill:none;fill-opacity:1;stroke-width:2;stroke-linecap:square;stroke-linejoin:round"
         id="rect4518"
         width="89.071045"
         height="163.26404"
         x="666.22791"
         y="377.71857" />
      <path
         d="m 744.91188,484.47306 q 0,6.31823 -2.25651,11.73385 -2.10608,5.26519 -6.46866,9.32691 -4.21215,3.91129 -10.68082,6.01736 -6.46866,2.25651 -14.89296,2.25651 -9.77821,0 -16.39731,-2.70781 -6.46866,-2.85825 -10.37995,-7.0704 -3.91128,-4.21215 -5.56605,-9.17647 -1.65478,-5.11476 -1.65478,-9.62778 0,-4.36259 1.35391,-8.27387 1.50434,-4.06172 3.76085,-7.5217 2.40694,-3.45998 5.41562,-6.16779 3.15912,-2.85825 6.6191,-4.96433 -14.74253,-8.4243 -14.74253,-24.82161 0,-5.71649 2.25651,-10.83125 2.25651,-5.26519 6.31822,-9.17647 4.21216,-3.91128 10.07908,-6.16779 5.86693,-2.40695 13.08776,-2.40695 8.42431,0 14.44167,2.55738 6.01736,2.55738 9.77821,6.6191 3.91128,3.91128 5.56605,8.72517 1.80521,4.81389 1.80521,9.32691 0,4.36258 -1.3539,8.27387 -1.20348,3.76085 -3.45999,7.07039 -2.10607,3.30955 -4.96432,5.86693 -2.70781,2.55738 -5.71649,4.51302 17.75121,8.42431 18.05208,26.62682 z m -54.15624,0.9026 q 0,2.70782 0.9026,5.7165 1.05304,2.85824 3.45998,5.41562 2.40695,2.40694 6.1678,4.06172 3.76085,1.65477 9.47734,1.65477 5.11476,0 8.87561,-1.50434 3.91128,-1.50434 6.31823,-3.76085 2.40694,-2.40694 3.61041,-5.41562 1.20347,-3.00868 1.20347,-6.1678 0,-4.81388 -1.8052,-8.4243 -1.80521,-3.61042 -5.26519,-6.31823 -3.30955,-2.70781 -8.12344,-4.51302 -4.66346,-1.95564 -10.68082,-3.30955 -6.76953,3.76085 -10.53038,9.32691 -3.61041,5.56606 -3.61041,13.23819 z m 37.6085,-53.40407 q 0,-2.25651 -1.05304,-4.96432 -0.9026,-2.70781 -3.00868,-4.96432 -2.10607,-2.40695 -5.41562,-3.91129 -3.30955,-1.65477 -8.12344,-1.65477 -4.81389,0 -8.27387,1.50434 -3.30955,1.50434 -5.41562,3.91128 -2.10608,2.25651 -3.15912,5.11476 -0.9026,2.70781 -0.9026,5.41562 0,3.30955 1.20347,6.6191 1.20347,3.30955 3.76085,6.16779 2.55738,2.85825 6.6191,5.11476 4.21215,2.25651 9.92864,3.61042 6.31823,-3.76085 10.07908,-8.72518 3.76085,-5.11475 3.76085,-13.23819 z"
         id="path1750-2"
         style="font-size:150.434px;font-family:Ubuntu;-inkscape-font-specification:Ubuntu;fill:url(#linearGradient6285);fill-opacity:1;stroke-width:25.0723;stroke-linecap:square;stroke-linejoin:round" />
    </g>
    <g
       id="9_1"
       transform="translate(230,40)">
      <rect
         style="fill:none;fill-opacity:1;stroke-width:2;stroke-linecap:square;stroke-linejoin:round"
         id="rect4520"
         width="89.070923"
         height="163.26404"
         x="755.29895"
         y="377.71857" />
      <path
         d="m 833.68218,448.97064 q 0,30.9894 -15.49471,46.9354 -15.34427,15.79558 -45.73193,15.94601 l -0.45131,-11.73385 q 9.47735,0 16.99905,-1.80521 7.67213,-1.80521 13.38862,-5.71649 5.7165,-4.06172 9.47735,-10.37995 3.91128,-6.31823 5.71649,-15.4947 -3.91129,1.80521 -8.87561,3.00868 -4.96432,1.05304 -10.22951,1.05304 -8.87561,0 -15.0434,-2.55738 -6.1678,-2.70781 -10.07908,-7.0704 -3.91128,-4.51302 -5.71649,-10.22951 -1.65478,-5.86693 -1.65478,-12.18516 0,-5.56606 1.95565,-11.58342 1.95564,-6.01736 5.86692,-10.98168 4.06172,-4.96432 10.22951,-8.12343 6.1678,-3.15912 14.5921,-3.15912 8.57474,0 15.0434,3.00868 6.6191,3.00868 10.98169,8.72517 4.51302,5.7165 6.76953,13.99037 2.25651,8.12343 2.25651,18.35295 z m -33.69722,10.37994 q 5.26519,0 9.92864,-0.9026 4.66346,-1.05304 9.02604,-3.00868 0.15044,-1.65478 0.15044,-3.15912 0,-1.65477 0,-3.30954 0,-6.46867 -0.90261,-12.33559 -0.9026,-6.01736 -3.30954,-10.37995 -2.25651,-4.51302 -6.1678,-7.0704 -3.91128,-2.70781 -9.92864,-2.70781 -4.96433,0 -8.42431,2.10608 -3.45998,2.10607 -5.71649,5.41562 -2.25651,3.15911 -3.30955,7.0704 -0.9026,3.76085 -0.9026,7.37126 0,10.22952 4.81389,15.64514 4.96432,5.26519 14.74253,5.26519 z"
         id="path1752-9"
         style="font-size:150.434px;font-family:Ubuntu;-inkscape-font-specification:Ubuntu;fill:url(#linearGradient6287);fill-opacity:1;stroke-width:25.0723;stroke-linecap:square;stroke-linejoin:round" />
    </g>
    <g
       id="0_1"
       transform="translate(190,60)">
      <rect
         style="fill:none;fill-opacity:1;stroke-width:2;stroke-linecap:square;stroke-linejoin:round"
         id="rect4522"
         width="89.071045"
         height="163.26404"
         x="577.15686"
         y="540.98254" />
      <path
         d="m 586.79166,622.61456 q 0,-26.17552 9.17648,-40.31631 9.32691,-14.1408 25.72421,-14.1408 16.39731,0 25.57378,14.1408 9.32691,14.14079 9.32691,40.31631 0,26.17552 -9.32691,40.31631 -9.17647,14.1408 -25.57378,14.1408 -16.3973,0 -25.72421,-14.1408 -9.17648,-14.14079 -9.17648,-40.31631 z m 55.05885,0 q 0,-8.57474 -1.05304,-16.24687 -0.9026,-7.67214 -3.30955,-13.38863 -2.25651,-5.71649 -6.16779,-9.02604 -3.91128,-3.45998 -9.62778,-3.45998 -5.71649,0 -9.62777,3.45998 -3.91129,3.30955 -6.31823,9.02604 -2.25651,5.71649 -3.30955,13.38863 -0.9026,7.67213 -0.9026,16.24687 0,8.57474 0.9026,16.24687 1.05304,7.67214 3.30955,13.38863 2.40694,5.71649 6.31823,9.17647 3.91128,3.30955 9.62777,3.30955 5.7165,0 9.62778,-3.30955 3.91128,-3.45998 6.16779,-9.17647 2.40695,-5.71649 3.30955,-13.38863 1.05304,-7.67213 1.05304,-16.24687 z"
         id="path1754-1"
         style="font-size:150.434px;font-family:Ubuntu;-inkscape-font-specification:Ubuntu;fill:url(#linearGradient6289);fill-opacity:1;stroke-width:25.0723;stroke-linecap:square;stroke-linejoin:round" />
    </g>
    <g
       id="separator"
       transform="translate(-282.97598,-320.34609)">
      <rect
         style="opacity:1;fill:none;stroke-width:2;stroke-linecap:square;stroke-linejoin:round"
         id="rect1542"
         width="45"
         height="163.082"
         x="282.97598"
         y="540.98254" />
      <path
         d="m 315.55506,652.53512 q 0,4.06172 -2.70781,7.0704 -2.70781,3.00868 -7.37127,3.00868 -4.66345,0 -7.37126,-3.00868 -2.70781,-3.00868 -2.70781,-7.0704 0,-4.06172 2.70781,-7.0704 2.70781,-3.00868 7.37126,-3.00868 4.66346,0 7.37127,3.00868 2.70781,3.00868 2.70781,7.0704 z m 0,-60.02317 q 0,4.06172 -2.70781,7.0704 -2.70781,3.00868 -7.37127,3.00868 -4.66345,0 -7.37126,-3.00868 -2.70781,-3.00868 -2.70781,-7.0704 0,-4.06171 2.70781,-7.07039 2.70781,-3.00868 7.37126,-3.00868 4.66346,0 7.37127,3.00868 2.70781,3.00868 2.70781,7.07039 z"
         id="path1756"
         style="font-size:150.434px;font-family:Ubuntu;-inkscape-font-specification:Ubuntu;stroke-width:25.0723;stroke-linecap:square;stroke-linejoin:round" />
    </g>
    <g
       id="separator_1"
       transform="translate(-8.9049835,6.3635085)">
      <rect
         style="opacity:1;fill:none;stroke-width:2;stroke-linecap:square;stroke-linejoin:round"
         id="rect1540"
         width="45"
         height="163.082"
         x="73.904984"
         y="214.27249" />
      <path
         d="m 106.48406,325.82507 q 0,4.06172 -2.70781,7.0704 -2.70781,3.00868 -7.37127,3.00868 -4.66345,0 -7.37126,-3.00868 -2.70781,-3.00868 -2.70781,-7.0704 0,-4.06172 2.70781,-7.0704 2.70781,-3.00868 7.37126,-3.00868 4.66346,0 7.37127,3.00868 2.70781,3.00868 2.70781,7.0704 z m 0,-60.02317 q 0,4.06172 -2.70781,7.0704 -2.70781,3.00868 -7.37127,3.00868 -4.66345,0 -7.37126,-3.00868 -2.70781,-3.00868 -2.70781,-7.0704 0,-4.06171 2.70781,-7.07039 2.70781,-3.00868 7.37126,-3.00868 4.66346,0 7.37127,3.00868 2.70781,3.00868 2.70781,7.07039 z"
         id="path1756-2"
         style="font-size:150.434px;font-family:Ubuntu;-inkscape-font-specification:Ubuntu;fill:#eb0000;fill-opacity:1;stroke-width:25.0723;stroke-linecap:square;stroke-linejoin:round" />
    </g>
    <g
       id="separatorB"
       transform="translate(-148.90497,189.26394)">
      <rect
         style="opacity:1;fill:none;stroke-width:2;stroke-linecap:square;stroke-linejoin:round"
         id="rect1486"
         width="45"
         height="163.082"
         x="148.90497"
         y="214.45454" />
      <path
         d="m 181.48416,325.82507 q 0,4.06172 -2.70782,7.0704 -2.70781,3.00868 -7.37126,3.00868 -4.66346,0 -7.37127,-3.00868 -2.70781,-3.00868 -2.70781,-7.0704 0,-4.06172 2.70781,-7.0704 2.70781,-3.00868 7.37127,-3.00868 4.66345,0 7.37126,3.00868 2.70782,3.00868 2.70782,7.0704 z"
         id="path1758-7"
         style="font-size:150.434px;font-family:Ubuntu;-inkscape-font-specification:Ubuntu;stroke-width:25.0723;stroke-linecap:square;stroke-linejoin:round" />
    </g>
    <g
       id="separatorB_1"
       transform="translate(-262.97598,-137.26409)">
      <rect
         style="opacity:1;fill:none;stroke-width:2;stroke-linecap:square;stroke-linejoin:round"
         id="rect1544"
         width="44.999985"
         height="163.26404"
         x="327.97598"
         y="540.98254" />
      <path
         d="m 360.55516,652.53512 q 0,4.06172 -2.70782,7.0704 -2.70781,3.00868 -7.37126,3.00868 -4.66346,0 -7.37127,-3.00868 -2.70781,-3.00868 -2.70781,-7.0704 0,-4.06172 2.70781,-7.0704 2.70781,-3.00868 7.37127,-3.00868 4.66345,0 7.37126,3.00868 2.70782,3.00868 2.70782,7.0704 z"
         id="path1758"
         style="font-size:150.434px;font-family:Ubuntu;-inkscape-font-specification:Ubuntu;fill:#eb0000;fill-opacity:1;stroke-width:25.0723;stroke-linecap:square;stroke-linejoin:round" />
    </g>
    <g
       id="separatorC"
       transform="translate(0,40)">
      <rect
         style="opacity:1;fill:none;fill-opacity:1;stroke-width:2;stroke-linecap:square;stroke-linejoin:round"
         id="rect8210"
         width="44.999981"
         height="163.26404"
         x="7.7984623e-06"
         y="546.80048" />
    </g>
    <g
       id="separatorC_1"
       transform="translate(20,40)">
      <rect
         style="opacity:1;fill:none;fill-opacity:1;stroke-width:2;stroke-linecap:square;stroke-linejoin:round"
         id="rect8208"
         width="45.000004"
         height="163.26402"
         x="44.999989"
         y="546.80048" />
    </g>
  </g>
</svg>
