<?xml version="1.0" encoding="UTF-8" standalone="no"?>
<!-- Created with Inkscape (http://www.inkscape.org/) -->

<svg
   width="220"
   height="212"
   viewBox="0 0 220 212"
   version="1.1"
   id="svg1801"
   inkscape:version="1.2 (dc2aedaf03, 2022-05-15)"
   sodipodi:docname="button.svg"
   xmlns:inkscape="http://www.inkscape.org/namespaces/inkscape"
   xmlns:sodipodi="http://sodipodi.sourceforge.net/DTD/sodipodi-0.dtd"
   xmlns:xlink="http://www.w3.org/1999/xlink"
   xmlns="http://www.w3.org/2000/svg"
   xmlns:svg="http://www.w3.org/2000/svg">
  <sodipodi:namedview
     id="namedview1803"
     pagecolor="#ffffff"
     bordercolor="#000000"
     borderopacity="0.25"
     inkscape:showpageshadow="2"
     inkscape:pageopacity="0.0"
     inkscape:pagecheckerboard="0"
     inkscape:deskcolor="#d1d1d1"
     inkscape:document-units="px"
     showgrid="false"
     showguides="true"
     inkscape:zoom="7.4056604"
     inkscape:cx="44.425478"
     inkscape:cy="78.791083"
     inkscape:window-width="1920"
     inkscape:window-height="1006"
     inkscape:window-x="0"
     inkscape:window-y="0"
     inkscape:window-maximized="1"
     inkscape:current-layer="layer1" />
  <defs
     id="defs1798" />
  <g
     inkscape:label="Layer 1"
     inkscape:groupmode="layer"
     id="layer1">
    <use
       id="toolbutton-pressed-bottom"
       d="m 81,20 h 6 v 6 h -6 z"
       x="0"
       y="0"
       xlink:href="#toolbutton-pressed-top"
       width="100%"
       height="100%"
       transform="matrix(1,0,0,-1,0,120.99998)" />
    <use
       id="normal-bottom"
       d="m 81,20 h 6 v 6 h -6 z"
       x="0"
       y="0"
       xlink:href="#normal-top"
       width="100%"
       height="100%"
       transform="matrix(1,0,0,-1,0,78.000042)" />
    <use
       id="normal-right"
       d="m 81,20 h 6 v 6 h -6 z"
       x="0"
       y="0"
       xlink:href="#normal-top"
       width="100%"
       height="100%"
       transform="matrix(0,0.5,-1,0,107,10.999992)" />
    <use
       id="normal-left"
       d="m 81,20 h 6 v 6 h -6 z"
       x="0"
       y="0"
       xlink:href="#normal-top"
       width="100%"
       height="100%"
       transform="matrix(0,0.5,1,0,5,10.999992)" />
    <g
       id="normal-top"
       transform="translate(0,-6.9999924)">
      <rect
         style="opacity:1;fill:#fcfcfc;stroke-width:1.82574;stroke-linecap:square;stroke-linejoin:round;fill-opacity:1"
         id="rect3269"
         width="48"
         height="6"
         x="32"
         y="26.999992" />
      <rect
         style="opacity:1;fill:#cecece;fill-opacity:1;stroke-width:2;stroke-linecap:square;stroke-linejoin:round"
         id="rect3271"
         width="48"
         height="1"
         x="32"
         y="26.999992" />
    </g>
    <g
       id="normal-center">
      <rect
         style="opacity:1;fill:#fcfcfc;stroke-width:2;stroke-linecap:square;stroke-linejoin:round;fill-opacity:1"
         id="rect1983"
         width="48"
         height="24"
         x="32"
         y="26.999992" />
    </g>
    <g
       id="normal-topleft">
      <path
         id="path7751"
         style="opacity:1;fill:#fcfcfc;fill-opacity:1;stroke-width:2;stroke-linecap:square;stroke-linejoin:round"
         d="m 31,20 c -3.313708,0 -6,2.686292 -6,6 h 6 z"
         sodipodi:nodetypes="cccc" />
      <path
         id="path7827"
         style="fill:#cecece;fill-opacity:1;stroke-width:2;stroke-linecap:square;stroke-linejoin:round"
         d="M 31 20 C 27.686295 20 25 22.686295 25 26 L 26 26 C 26 23.23858 28.23858 21 31 21 L 31 20 z " />
    </g>
    <use
       id="normal-topright"
       d="m 81,20 h 6 v 6 h -6 z"
       x="0"
       y="0"
       xlink:href="#normal-topleft"
       width="100%"
       height="100%"
       transform="matrix(-1,0,0,1,112,0)" />
    <use
       id="normal-bottomright"
       d="m 81,20 h 6 v 6 h -6 z"
       x="0"
       y="0"
       xlink:href="#normal-topleft"
       width="100%"
       height="100%"
       transform="rotate(180,56,39)" />
    <use
       id="normal-bottomleft"
       d="m 81,20 h 6 v 6 h -6 z"
       x="0"
       y="0"
       xlink:href="#normal-topleft"
       width="100%"
       height="100%"
       transform="matrix(1,0,0,-1,0,78)" />
    <g
       id="hover-topleft">
      <path
         id="path1136"
         style="fill:#fcfcfc;fill-opacity:1;stroke-width:2;stroke-linecap:square;stroke-linejoin:round"
         d="m 31,62 c -3.313708,0 -6,2.686292 -6,6 h 6 z"
         sodipodi:nodetypes="cccc" />
      <path
         id="path1425"
         style="fill:#0077c4;fill-opacity:1;stroke-width:2;stroke-linecap:square;stroke-linejoin:round"
         d="M 31 62 C 27.686295 62 25 64.686295 25 68 L 26 68 C 26 65.23858 28.23858 63 31 63 L 31 62 z " />
    </g>
    <g
       id="hover-top"
       transform="translate(0,4.999958)">
      <rect
         style="fill:#fcfcfc;fill-opacity:1;stroke-width:2;stroke-linecap:square;stroke-linejoin:round"
         id="rect1900"
         width="48"
         height="6"
         x="32"
         y="57.000042" />
      <rect
         style="fill:#0077c4;fill-opacity:1;stroke-width:2;stroke-linecap:square;stroke-linejoin:round"
         id="rect1898"
         width="48"
         height="1"
         x="32"
         y="57.000042" />
    </g>
    <use
       id="hover-bottom"
       d="m 81,20 h 6 v 6 h -6 z"
       x="0"
       y="0"
       xlink:href="#hover-top"
       width="100%"
       height="100%"
       transform="matrix(1,0,0,-1,0,162)" />
    <g
       id="hover-center">
      <rect
         style="fill:#fcfcfc;fill-opacity:1;stroke-width:2;stroke-linecap:square;stroke-linejoin:round"
         id="rect1985"
         width="48"
         height="24"
         x="32"
         y="69" />
    </g>
    <use
       id="hover-bottomleft"
       d="m 81,20 h 6 v 6 h -6 z"
       x="0"
       y="0"
       xlink:href="#hover-topleft"
       width="100%"
       height="100%"
       transform="matrix(1,0,0,-1,0,162)" />
    <use
       id="hover-bottomright"
       d="m 81,20 h 6 v 6 h -6 z"
       x="0"
       y="0"
       xlink:href="#hover-topleft"
       width="100%"
       height="100%"
       transform="rotate(180,56,81)" />
    <use
       id="hover-topright"
       d="m 81,20 h 6 v 6 h -6 z"
       x="0"
       y="0"
       xlink:href="#hover-topleft"
       width="100%"
       height="100%"
       transform="matrix(-1,0,0,1,112,-3.8330077e-8)" />
    <use
       id="hover-right"
       d="m 81,20 h 6 v 6 h -6 z"
       x="0"
       y="0"
       xlink:href="#hover-top"
       width="100%"
       height="100%"
       transform="matrix(0,0.5,-1,0,149,53)" />
    <use
       id="hover-left"
       d="m 81,20 h 6 v 6 h -6 z"
       x="0"
       y="0"
       xlink:href="#hover-top"
       width="100%"
       height="100%"
       transform="matrix(0,0.5,1,0,-37,53)" />
    <g
       id="pressed-center"
       transform="translate(0,42)">
      <rect
         style="opacity:1;fill:#d6d6d6;fill-opacity:1;stroke-width:2;stroke-linecap:square;stroke-linejoin:round"
         id="rect4717"
         width="48"
         height="24"
         x="32"
         y="69" />
    </g>
    <g
       id="pressed-top"
       transform="translate(0,42)">
      <rect
         style="opacity:1;fill:#d6d6d6;fill-opacity:1;stroke-width:2;stroke-linecap:square;stroke-linejoin:round"
         id="rect5034"
         width="48"
         height="6"
         x="32"
         y="62" />
      <rect
         style="opacity:1;fill:#cecece;fill-opacity:1;stroke-width:2;stroke-linecap:square;stroke-linejoin:round"
         id="rect5036"
         width="48"
         height="1"
         x="32"
         y="62" />
    </g>
    <g
       id="pressed-topleft"
       transform="translate(-7,-1.9999999)">
      <path
         id="path5094"
         style="opacity:1;fill:#d6d6d6;fill-opacity:1;stroke-width:2;stroke-linecap:square;stroke-linejoin:round"
         d="m 38,106 c -3.313708,0 -6,2.68629 -6,6 h 6 z"
         sodipodi:nodetypes="cccc" />
      <path
         id="path5156"
         style="fill:#cecece;fill-opacity:1;stroke-width:2;stroke-linecap:square;stroke-linejoin:round"
         d="m 38,106 c -3.313705,0 -6,2.68629 -6,6 h 1 c 0,-2.76142 2.23858,-5 5,-5 z" />
    </g>
    <use
       id="pressed-bottom"
       d="m 81,20 h 6 v 6 h -6 z"
       x="0"
       y="0"
       xlink:href="#pressed-top"
       width="100%"
       height="100%"
       transform="matrix(1,0,0,-1,0,246)" />
    <use
       id="pressed-left"
       d="m 81,20 h 6 v 6 h -6 z"
       x="0"
       y="0"
       xlink:href="#pressed-top"
       width="100%"
       height="100%"
       transform="matrix(0,0.5,1,0,-79,95)" />
    <use
       id="pressed-right"
       d="m 81,20 h 6 v 6 h -6 z"
       x="0"
       y="0"
       xlink:href="#pressed-top"
       width="100%"
       height="100%"
       transform="matrix(0,0.5,-1,0,191,95)" />
    <use
       id="pressed-bottomright"
       d="m 81,20 h 6 v 6 h -6 z"
       x="0"
       y="0"
       xlink:href="#pressed-topleft"
       width="100%"
       height="100%"
       transform="rotate(180,56,123)" />
    <use
       id="pressed-bottomleft"
       d="m 81,20 h 6 v 6 h -6 z"
       x="0"
       y="0"
       xlink:href="#pressed-topleft"
       width="100%"
       height="100%"
       transform="matrix(1,0,0,-1,0,246)" />
    <g
       id="toolbutton-hover-center">
      <rect
         style="fill:none;fill-opacity:1;stroke-width:1.88572;stroke-linecap:square;stroke-linejoin:round"
         id="rect5278"
         width="33"
         height="33"
         x="114"
         y="44" />
    </g>
    <g
       id="toolbutton-hover-top"
       transform="translate(-55)">
      <rect
         style="opacity:1;fill:none;fill-opacity:1;stroke-width:2;stroke-linecap:square;stroke-linejoin:round"
         id="rect6233"
         width="33"
         height="4"
         x="169"
         y="38.999992" />
      <rect
         style="opacity:1;fill:#0077c4;fill-opacity:1;stroke-width:2;stroke-linecap:square;stroke-linejoin:round"
         id="rect6235"
         width="33"
         height="1"
         x="169"
         y="38.999992" />
    </g>
    <use
       id="toolbutton-hover-bottom"
       d="m 81,20 h 6 v 6 h -6 z"
       x="0"
       y="0"
       xlink:href="#toolbutton-hover-top"
       width="100%"
       height="100%"
       transform="matrix(1,0,0,-1,0,120.99998)" />
    <use
       id="toolbutton-hover-left"
       d="m 81,20 h 6 v 6 h -6 z"
       x="0"
       y="0"
       xlink:href="#toolbutton-hover-top"
       width="100%"
       height="100%"
       transform="matrix(0,1,1,0,70.000008,-70)" />
    <use
       id="toolbutton-hover-right"
       d="m 81,20 h 6 v 6 h -6 z"
       x="0"
       y="0"
       xlink:href="#toolbutton-hover-top"
       width="100%"
       height="100%"
       transform="matrix(0,-1,-1,0,190.99999,190.99999)" />
    <g
       id="toolbutton-hover-topleft">
      <path
         id="path6401"
         style="opacity:1;fill:none;fill-opacity:1;stroke-width:2;stroke-linecap:square;stroke-linejoin:round"
         d="m 113,39 c -2.20914,0 -4,1.790861 -4,4 h 4 z"
         sodipodi:nodetypes="cccc" />
      <path
         id="path7143"
         style="fill:#0077c4;fill-opacity:1;stroke-width:2;stroke-linecap:square;stroke-linejoin:round"
         d="M 113 39 C 110.79086 39 109 40.790863 109 43 L 110 43 C 110 41.343148 111.34314 40 113 40 L 113 39 z " />
    </g>
    <rect
       id="toolbutton-hover-hint-left-margin"
       transform="rotate(-90)"
       x="-62.999992"
       y="109"
       width="2"
       height="4"
       fill="#4e9a06" />
    <rect
       id="toolbutton-hover-hint-top-margin"
       x="130"
       y="38.999992"
       width="2"
       height="4"
       fill="#4e9a06" />
    <rect
       id="toolbutton-hover-hint-right-margin"
       transform="rotate(-90)"
       x="-61.999992"
       y="148"
       width="2"
       height="4"
       fill="#4e9a06" />
    <rect
       id="toolbutton-hover-hint-bottom-margin"
       x="130"
       y="77.999992"
       width="2"
       height="4"
       fill="#4e9a06" />
    <use
       id="toolbutton-hover-topright"
       d="m 81,20 h 6 v 6 h -6 z"
       x="0"
       y="0"
       xlink:href="#toolbutton-hover-topleft"
       width="100%"
       height="100%"
       transform="matrix(-1,0,0,1,261,-8e-6)" />
    <use
       id="toolbutton-hover-bottomright"
       d="m 81,20 h 6 v 6 h -6 z"
       x="0"
       y="0"
       xlink:href="#toolbutton-hover-topleft"
       width="100%"
       height="100%"
       transform="matrix(0,-1,-1,0,191,190.99999)" />
    <use
       id="toolbutton-hover-bottomleft"
       d="m 81,20 h 6 v 6 h -6 z"
       x="0"
       y="0"
       xlink:href="#toolbutton-hover-topleft"
       width="100%"
       height="100%"
       transform="rotate(-90,130.49999,60.499994)" />
    <use
       id="toolbutton-pressed-bottomright"
       d="m 81,20 h 6 v 6 h -6 z"
       x="0"
       y="0"
       xlink:href="#toolbutton-pressed-topleft"
       width="100%"
       height="100%"
       transform="matrix(0,-1,-1,0,246.00001,245.99999)" />
    <use
       id="toolbutton-pressed-bottomleft"
       d="m 81,20 h 6 v 6 h -6 z"
       x="0"
       y="0"
       xlink:href="#toolbutton-pressed-topleft"
       width="100%"
       height="100%"
       transform="matrix(1,0,0,-1,0,120.99999)" />
    <use
       id="toolbutton-pressed-left"
       d="m 81,20 h 6 v 6 h -6 z"
       x="0"
       y="0"
       xlink:href="#toolbutton-pressed-top"
       width="100%"
       height="100%"
       transform="rotate(-90,185.5,60.499992)" />
    <use
       id="toolbutton-pressed-right"
       d="m 81,20 h 6 v 6 h -6 z"
       x="0"
       y="0"
       xlink:href="#toolbutton-pressed-top"
       width="100%"
       height="100%"
       transform="matrix(0,-1,-1,0,245.99999,246)" />
    <g
       id="toolbutton-pressed-top">
      <rect
         style="opacity:0.2;fill:#000000;fill-opacity:1;stroke-width:2;stroke-linecap:square;stroke-linejoin:round"
         id="rect5939"
         width="33"
         height="4"
         x="169"
         y="38.999992" />
      <rect
         style="opacity:1;fill:#0077c4;fill-opacity:1;stroke-width:2;stroke-linecap:square;stroke-linejoin:round"
         id="rect5944"
         width="33"
         height="1"
         x="169"
         y="38.999992" />
    </g>
    <g
       id="toolbutton-pressed-topleft">
      <path
         d="m 168,38.999992 c -2.20914,0 -4,1.790861 -4,4 h 4 z"
         style="fill:#000000;fill-opacity:1;stroke-width:2;stroke-linecap:square;stroke-linejoin:round;opacity:0.2"
         id="path7185"
         sodipodi:nodetypes="cccc" />
      <path
         id="path7216"
         style="fill:#0077c4;fill-opacity:1;stroke-width:2;stroke-linecap:square;stroke-linejoin:round"
         d="M 168 39 C 165.79086 39 164 40.790863 164 43 L 165 43 C 165 41.343148 166.34314 40 168 40 L 168 39 z " />
    </g>
    <g
       id="toolbutton-pressed-center">
      <rect
         style="fill:#000000;fill-opacity:1;stroke-width:2;stroke-linecap:square;stroke-linejoin:round;opacity:0.2"
         id="rect5882"
         width="33"
         height="33"
         x="169"
         y="43.999992" />
    </g>
    <use
       id="toolbutton-pressed-topright"
       d="m 81,20 h 6 v 6 h -6 z"
       x="0"
       y="0"
       xlink:href="#toolbutton-pressed-topleft"
       width="100%"
       height="100%"
       transform="matrix(-1,0,0,1,371,0)" />
    <rect
       id="toolbutton-pressed-hint-left-margin"
       transform="rotate(-90)"
       x="-61.999992"
       y="164"
       width="2"
       height="4"
       fill="#4e9a06" />
    <rect
       id="toolbutton-pressed-hint-top-margin"
       x="185"
       y="38.999992"
       width="2"
       height="4"
       fill="#4e9a06" />
    <rect
       id="toolbutton-pressed-hint-right-margin"
       transform="rotate(-90)"
       x="-62"
       y="203"
       width="2"
       height="4"
       fill="#4e9a06" />
    <rect
       id="toolbutton-pressed-hint-bottom-margin"
       x="185"
       y="77.999992"
       width="2"
       height="4"
       fill="#4e9a06" />
    <use
       id="pressed-topright"
       d="m 81,20 h 6 v 6 h -6 z"
       x="0"
       y="0"
       xlink:href="#pressed-topleft"
       width="100%"
       height="100%"
       transform="matrix(-1,0,0,1,112,0)" />
    <rect
       id="normal-hint-compose-over-border"
       x="13"
       y="25"
       width="3"
       height="3"
       ry="0"
       fill="#4e9a06" />
    <rect
       id="normal-hint-bottom-margin"
       x="55"
       y="51.999992"
       width="2"
       height="6.0001001"
       fill="#4e9a06" />
    <rect
       id="normal-hint-top-margin"
       x="55"
       y="20"
       width="2"
       height="6"
       fill="#4e9a06" />
    <rect
       id="normal-hint-left-margin"
       transform="rotate(-90)"
       x="-39.999992"
       y="25"
       width="2"
       height="6"
       fill="#4e9a06" />
    <rect
       id="normal-hint-right-margin"
       transform="rotate(-90)"
       x="-39.999992"
       y="81"
       width="2"
       height="6"
       fill="#4e9a06" />
    <rect
       id="hover-hint-bottom-margin"
       x="55"
       y="93.999985"
       width="2"
       height="6.0001001"
       fill="#4e9a06" />
    <rect
       id="hover-hint-top-margin"
       x="55"
       y="62"
       width="2"
       height="6"
       fill="#4e9a06" />
    <rect
       id="hover-hint-left-margin"
       transform="rotate(-90)"
       x="-81.999985"
       y="25"
       width="2"
       height="6"
       fill="#4e9a06" />
    <rect
       id="hover-hint-right-margin"
       transform="rotate(-90)"
       x="-81.999985"
       y="81"
       width="2"
       height="6"
       fill="#4e9a06" />
  </g>
</svg>
