<?xml version="1.0" encoding="UTF-8" standalone="no"?>
<svg
   width="22"
   height="22"
   enable-background="new"
   version="1.1"
   id="svg31"
   sodipodi:docname="keepbelow.svg"
   inkscape:version="1.2 (dc2aedaf03, 2022-05-15)"
   xmlns:inkscape="http://www.inkscape.org/namespaces/inkscape"
   xmlns:sodipodi="http://sodipodi.sourceforge.net/DTD/sodipodi-0.dtd"
   xmlns="http://www.w3.org/2000/svg"
   xmlns:svg="http://www.w3.org/2000/svg">
  <defs
     id="defs35" />
  <sodipodi:namedview
     id="namedview33"
     pagecolor="#3c3c3c"
     bordercolor="#636363"
     borderopacity="0.24705882"
     inkscape:showpageshadow="2"
     inkscape:pageopacity="0"
     inkscape:pagecheckerboard="0"
     inkscape:deskcolor="#222222"
     showgrid="false"
     inkscape:zoom="6.6451967"
     inkscape:cx="27.9149"
     inkscape:cy="19.638245"
     inkscape:window-width="1854"
     inkscape:window-height="1048"
     inkscape:window-x="0"
     inkscape:window-y="0"
     inkscape:window-maximized="1"
     inkscape:current-layer="active-center" />
  <g
     id="active-center">
    <rect
       width="22"
       height="22"
       fill="#000000"
       opacity=".001"
       id="rect2" />
    <circle
       style="opacity:0.07;fill:#ffffff;fill-opacity:1;stroke-width:0.909091;stroke-linecap:round;stroke-linejoin:round"
       id="path20068"
       cx="11"
       cy="11"
       r="10" />
    <path
       d="m 7.193059,9.40302 3.806252,3.80623 3.80622,-3.80625 0.694695,0.69192 -4.498145,4.50093 -0.0014,-0.001 -0.0014,0.001 -4.499507,-4.49953 z"
       style="fill:#f7f7f7;fill-opacity:1;stroke-width:1.07247"
       id="path7635"
       sodipodi:nodetypes="ccccccccc" />
  </g>
  <g
     id="hover-center">
    <rect
       x="23"
       width="22"
       height="22"
       fill="#000000"
       opacity=".001"
       id="rect7" />
    <circle
       cx="34"
       cy="11"
       r="10"
       fill="#000000"
       opacity=".08"
       id="circle9"
       style="opacity:0.12;stroke-width:0.909091;fill:#ffffff" />
    <path
       d="M 30.193748,9.40302 34,13.20925 37.80622,9.403 l 0.694695,0.69192 -4.498145,4.50093 -0.0014,-0.001 -0.0014,0.001 -4.499507,-4.49953 z"
       style="fill:#f7f7f7;fill-opacity:1;stroke-width:1.07247"
       id="path8752"
       sodipodi:nodetypes="ccccccccc" />
  </g>
  <g
     id="pressed-center"
     transform="translate(24)">
    <rect
       x="23"
       width="22"
       height="22"
       fill="#000000"
       opacity=".001"
       id="rect14" />
    <circle
       cx="34"
       cy="11"
       r="10"
       fill="#000000"
       opacity="0.19"
       id="circle16"
       style="fill:#ffffff;stroke-width:0.909091" />
    <path
       d="M 30.193748,9.40302 34,13.20925 37.80622,9.403 l 0.694695,0.69192 -4.498145,4.50093 -0.0014,-0.001 -0.0014,0.001 -4.499507,-4.49953 z"
       style="fill:#f7f7f7;fill-opacity:1;stroke-width:1.07247"
       id="path8780"
       sodipodi:nodetypes="ccccccccc" />
  </g>
  <g
     id="inactive-center"
     transform="translate(72)"
     opacity=".35"
     style="opacity:1">
    <rect
       width="22"
       height="22"
       fill="#000000"
       opacity=".001"
       id="rect21" />
    <circle
       style="opacity:0.07;fill:#ffffff;fill-opacity:1;stroke-width:0.909091;stroke-linecap:round;stroke-linejoin:round"
       id="path22810"
       cx="11"
       cy="11"
       r="10" />
    <path
       d="M 7.193748,9.40302 11,13.20925 14.80622,9.403 l 0.694695,0.69192 -4.498145,4.50093 -0.0014,-0.001 -0.0014,0.001 -4.499507,-4.49953 z"
       style="fill:#d2d2d2;fill-opacity:1;stroke-width:1.07247"
       id="path8808"
       sodipodi:nodetypes="ccccccccc" />
  </g>
  <g
     id="deactivated-center"
     transform="translate(96)"
     opacity=".35"
     style="opacity:1">
    <rect
       width="22"
       height="22"
       fill="#000000"
       opacity=".001"
       id="rect26" />
    <circle
       style="opacity:0.07;fill:#ffffff;fill-opacity:1;stroke-width:0.909091;stroke-linecap:round;stroke-linejoin:round"
       id="path22812"
       cx="11"
       cy="11"
       r="10" />
    <path
       d="m 7.193059,9.40302 3.806252,3.80623 3.80622,-3.80625 0.694695,0.69192 -4.498145,4.50093 -0.0014,-0.001 -0.0014,0.001 -4.499507,-4.49953 z"
       style="fill:#d2d2d2;fill-opacity:1;stroke-width:1.07247"
       id="path8836" />
  </g>
</svg>
