<?xml version="1.0" encoding="UTF-8" standalone="no"?>
<!-- Created with Inkscape (http://www.inkscape.org/) -->

<svg
   width="22"
   height="22"
   viewBox="0 0 22 22"
   version="1.1"
   id="svg5"
   inkscape:version="1.2 (dc2aedaf03, 2022-05-15)"
   sodipodi:docname="configure.svg"
   xmlns:inkscape="http://www.inkscape.org/namespaces/inkscape"
   xmlns:sodipodi="http://sodipodi.sourceforge.net/DTD/sodipodi-0.dtd"
   xmlns:xlink="http://www.w3.org/1999/xlink"
   xmlns="http://www.w3.org/2000/svg"
   xmlns:svg="http://www.w3.org/2000/svg">
  <sodipodi:namedview
     id="namedview7"
     pagecolor="#ffffff"
     bordercolor="#000000"
     borderopacity="0.25"
     inkscape:showpageshadow="2"
     inkscape:pageopacity="0.0"
     inkscape:pagecheckerboard="0"
     inkscape:deskcolor="#d1d1d1"
     inkscape:document-units="px"
     showgrid="false"
     inkscape:zoom="14.678168"
     inkscape:cx="19.246271"
     inkscape:cy="16.248622"
     inkscape:window-width="1854"
     inkscape:window-height="1048"
     inkscape:window-x="0"
     inkscape:window-y="0"
     inkscape:window-maximized="1"
     inkscape:current-layer="svg5" />
  <defs
     id="defs2">
    <style
       id="current-color-scheme"
       type="text/css">
   .ColorScheme-Text { color:#3d3d3d; } .ColorScheme-Highlight { color:#5294e2; }
  </style>
    <linearGradient
       inkscape:collect="always"
       xlink:href="#linearGradient2014"
       id="linearGradient2016"
       x1="9.921875"
       y1="11.1125"
       x2="2.7781253"
       y2="1.5874999"
       gradientUnits="userSpaceOnUse"
       gradientTransform="matrix(2.4356955,0,0,2.4356955,22.533337,-9.4666652)" />
    <linearGradient
       inkscape:collect="always"
       id="linearGradient2014">
      <stop
         style="stop-color:#e6e6e6;stop-opacity:1"
         offset="0"
         id="stop2010" />
      <stop
         style="stop-color:#d3d3d3;stop-opacity:1"
         offset="1"
         id="stop2012" />
    </linearGradient>
    <linearGradient
       inkscape:collect="always"
       xlink:href="#linearGradient1871"
       id="linearGradient1198"
       x1="6.3499999"
       y1="0.52916658"
       x2="6.3499994"
       y2="12.170834"
       gradientUnits="userSpaceOnUse"
       gradientTransform="matrix(2.405154,0,0,2.405154,22.727275,-9.2727273)" />
    <linearGradient
       inkscape:collect="always"
       id="linearGradient1871">
      <stop
         style="stop-color:#ffffff;stop-opacity:1;"
         offset="0"
         id="stop1867" />
      <stop
         style="stop-color:#ffffff;stop-opacity:0.1"
         offset="0.12"
         id="stop2515" />
      <stop
         style="stop-color:#ffffff;stop-opacity:0.102"
         offset="0.89999998"
         id="stop2581" />
      <stop
         style="stop-color:#ffffff;stop-opacity:0.502"
         offset="1"
         id="stop1869" />
    </linearGradient>
  </defs>
  <g
     id="16-16-configure"
     transform="translate(5.9999922,-60.000006)">
    <rect
       style="opacity:1;fill:none;fill-opacity:1;stroke-width:1.45455;stroke-linecap:round;stroke-linejoin:round"
       id="rect19183"
       width="16"
       height="16.000006"
       x="-21.999992"
       y="66" />
    <path
       id="path19200"
       class="ColorScheme-Text"
       style="opacity:1;fill:currentColor;fill-opacity:1;stroke-width:2;stroke-linecap:round;stroke-linejoin:round"
       d="m -15.326165,66.11912 v 1.005859 c -0.734874,0.139239 -1.44646,0.393165 -2.103516,0.757812 l -0.648437,-0.773437 -2.005859,1.705078 0.638672,0.759766 c -0.232345,0.285644 -0.446908,0.590853 -0.636719,0.919922 -0.191531,0.332051 -0.35082,0.67404 -0.482422,1.021484 l -0.996094,-0.177734 -0.439453,2.595703 0.986328,0.173828 c 0.01393,0.749824 0.147934,1.490685 0.394531,2.195312 l -0.888671,0.513672 h -0.002 l 1.332032,2.271485 0.878906,-0.507813 c 0.476856,0.54996 1.04736,1.033661 1.705078,1.425781 l -0.353516,0.97461 2.478516,0.884765 0.347656,-0.958984 c 0.742618,0.119532 1.492675,0.119007 2.222657,0.002 l 0.353515,0.972656 2.46875,-0.917968 -0.345703,-0.951172 c 0.6322452,-0.375539 1.2090074,-0.855367 1.7050789,-1.429688 l 0.890625,0.513672 1.3007813,-2.287109 -0.875,-0.50586 c 0.2487087,-0.716532 0.3734785,-1.456209 0.3828125,-2.191406 l 1.0176241,-0.179734 -0.4746094,-2.589844 -1.0019531,0.175781 c -0.2627237,-0.690987 -0.6358425,-1.343859 -1.109375,-1.927734 l 0.6621094,-0.789063 -2.0273438,-1.679687 -0.6503909,0.77539 c -0.669584,-0.375331 -1.375011,-0.629108 -2.091797,-0.767578 V 66.11912 Z m 1.310547,1.878906 c 3.313705,0 6.0000008,2.686293 6.0000008,6 0,3.313705 -2.6862958,6 -6.0000008,6 -3.313706,0 -6,-2.686295 -6,-6 0,-3.313707 2.686294,-6 6,-6 z m 0.0098,1.001953 c -0.120843,-2.39e-4 -0.241154,0.0033 -0.361329,0.01172 -1.602346,0.11249 -3.121863,0.990524 -3.982421,2.482422 -1.376888,2.387054 -0.553068,5.453418 1.835937,6.833984 2.389026,1.380578 5.453192,0.560874 6.830079,-1.826172 1.3768877,-2.387054 0.5530772,-5.451455 -1.835938,-6.832032 -0.783894,-0.453013 -1.640456,-0.668245 -2.486328,-0.669922 z m -0.0098,0.998047 c 2.209137,0 4,1.790863 4,4 0,2.209136 -1.790863,4 -4,4 -2.209137,0 -4,-1.790864 -4,-4 0,-2.209137 1.790863,-4 4,-4 z"
       sodipodi:nodetypes="ccccccsccccccccccccccccccccccccccccccccssssssccsccssssss" />
  </g>
  <g
     id="22-22-configure">
    <rect
       style="fill:none;stroke-width:2;stroke-linecap:round;stroke-linejoin:round"
       id="rect19327"
       width="22"
       height="22"
       x="0"
       y="0" />
    <path
       d="m 9.6738275,3.1191176 v 1.005859 c -0.734874,0.139239 -1.44646,0.393165 -2.103516,0.757812 l -0.648437,-0.773437 -2.005859,1.705078 0.638672,0.759766 c -0.232345,0.285644 -0.446908,0.590853 -0.636719,0.919922 -0.191531,0.332051 -0.35082,0.67404 -0.482422,1.021484 l -0.996094,-0.177734 -0.439453,2.5957024 0.986328,0.173828 c 0.01393,0.749824 0.147934,1.490685 0.394531,2.195312 l -0.888671,0.513672 h -0.002 l 1.332032,2.271485 0.878906,-0.507813 c 0.476856,0.54996 1.04736,1.033661 1.705078,1.425781 l -0.353516,0.97461 2.4785162,0.884765 0.3476558,-0.958984 c 0.7426175,0.119532 1.4926745,0.119007 2.2226565,0.002 l 0.353515,0.972656 2.46875,-0.917968 -0.345703,-0.951172 c 0.632245,-0.375539 1.209008,-0.855367 1.70508,-1.429688 l 0.890625,0.513672 1.300781,-2.287109 -0.875,-0.50586 c 0.248708,-0.716532 0.373478,-1.456209 0.382812,-2.191406 L 19,10.931617 18.525391,8.3417736 17.523437,8.5175546 c -0.262723,-0.690987 -0.635842,-1.343859 -1.109375,-1.927734 l 0.66211,-0.789063 -2.027344,-1.679687 -0.650391,0.77539 C 13.728853,4.5211296 13.023426,4.2673526 12.30664,4.1288826 v -1.009765 z m 1.3105465,1.878906 c 3.313705,0 6.000001,2.686293 6.000001,5.9999994 0,3.313705 -2.686296,6 -6.000001,6 -3.3137055,0 -5.9999995,-2.686295 -5.9999995,-6 0,-3.3137065 2.686294,-5.9999995 5.9999995,-5.9999994 z m 0.0098,1.001953 c -0.120843,-2.39e-4 -0.241154,0.0033 -0.361329,0.01172 -1.6023453,0.11249 -3.1218625,0.990524 -3.9824205,2.482422 -1.376888,2.3870534 -0.553068,5.4534174 1.835937,6.8339834 2.3890255,1.380578 5.4531915,0.560874 6.8300785,-1.826172 1.376888,-2.387054 0.553077,-5.4514544 -1.835938,-6.8320314 -0.783894,-0.453013 -1.640456,-0.668245 -2.486328,-0.669922 z m -0.0098,0.998047 c 2.209137,0 4,1.790863 4,3.9999994 0,2.209136 -1.790863,4 -4,4 -2.2091365,0 -3.9999995,-1.790864 -3.9999995,-4 0,-2.2091364 1.790863,-3.9999994 3.9999995,-3.9999994 z"
       style="fill:currentColor;fill-opacity:1;stroke-width:2;stroke-linecap:round;stroke-linejoin:round"
       class="ColorScheme-Text"
       id="path19337" />
  </g>
  <g
     id="configure">
    <rect
       style="fill:none;stroke-width:2.90909;stroke-linecap:round;stroke-linejoin:round"
       id="rect19361"
       width="32"
       height="32"
       x="22"
       y="-10" />
    <circle
       style="opacity:0.1;fill:#000000;fill-opacity:1;stroke-width:1.30435;stroke-linecap:round;stroke-linejoin:round"
       id="path3625"
       cx="38"
       cy="7.0000005"
       r="15" />
    <circle
       style="fill:url(#linearGradient2016);fill-opacity:1;stroke-width:1.28889;stroke-linecap:round;stroke-linejoin:round"
       id="path986"
       cx="38.000004"
       cy="6.000001"
       r="14.5" />
    <circle
       style="fill:#4d4d4d;fill-opacity:1;stroke-width:0.999999;stroke-linejoin:round"
       id="path1469"
       cx="38"
       cy="5.999999"
       r="11" />
    <path
       id="rect884"
       style="fill:#cdcdcd;fill-opacity:1;stroke-width:0.999999;stroke-linejoin:round"
       d="m 37.776914,-2.9670908 c -0.47647,0.010431 -0.658904,0.1145386 -0.738282,0.7968752 l -0.03318,0.2753915 c -0.0796,0.5057571 -0.09571,0.7354526 -0.574218,0.859375 -0.03205,0.00718 -0.0638,0.013871 -0.0957,0.021468 -0.0075,0.00156 -0.01376,0.00435 -0.02151,0.00586 -0.120201,0.028989 -0.241576,0.060737 -0.359377,0.0957052 -0.01905,0.006463 -0.03655,0.0119055 -0.05469,0.0175748 -0.01792,0.00548 -0.03489,0.0100157 -0.05274,0.0156095 -0.480851,0.13488755 -0.608598,-0.0553701 -0.93164,-0.4550781 l -0.167961,-0.2226556 c -0.234236,-0.314962 -0.402291,-0.4482459 -0.582029,-0.4628571 -0.02249,-0.00183 -0.04541,-0.0018 -0.06836,0 -0.16069,0.012624 -0.337304,0.1101127 -0.580078,0.2539048 -0.56211,0.316252 -0.744931,0.4511789 -0.433594,1.17187501 l 0.107421,0.25585887 c 0.198054,0.5144497 0.300628,0.7122747 -0.15625,1.1113285 l 0.01172,-0.002 c -0.09443,0.08951 -0.185881,0.1809524 -0.275391,0.27539152 l 0.002,-0.011717 c -0.399054,0.456889 -0.596879,0.3543043 -1.111328,0.1562495 L 31.405814,1.0817406 c -0.225222,-0.0973 -0.393329,-0.1462035 -0.527344,-0.1503912 -0.294822,-0.00918 -0.427104,0.1994872 -0.644531,0.5859371 -0.328674,0.5549359 -0.420994,0.7619928 0.208985,1.230469 l 0.222656,0.1679698 c 0.399712,0.3230438 0.589977,0.4507888 0.455078,0.9316399 -0.0056,0.017877 -0.01013,0.034809 -0.01561,0.052739 -0.0057,0.018142 -0.01111,0.037606 -0.01758,0.05664 -0.03496,0.1177966 -0.06671,0.2372221 -0.0957,0.3574224 -0.0015,0.00771 -0.0043,0.013946 -0.0059,0.021505 -0.0076,0.031899 -0.01432,0.06364 -0.02147,0.095701 -0.123935,0.4785082 -0.353617,0.4926671 -0.859375,0.5722651 l -0.275392,0.03515 c -0.77981,0.090697 -0.804049,0.3160025 -0.796874,0.9609267 -0.0072,0.6449242 0.01704,0.8702192 0.796874,0.9609381 l 0.275392,0.03515 c 0.505757,0.079601 0.735452,0.095709 0.859375,0.5742183 0.0072,0.032088 0.01387,0.063798 0.02147,0.095701 0.0016,0.00748 0.0043,0.013758 0.0059,0.021468 0.02914,0.1208126 0.06053,0.2390362 0.0957,0.3574224 0.0068,0.019767 0.01172,0.03792 0.01758,0.05664 0.0055,0.017915 0.01002,0.034885 0.01561,0.052732 0.134888,0.4808511 -0.05537,0.6085961 -0.455078,0.9316411 l -0.222656,0.167969 c -0.629973,0.468471 -0.537653,0.67554 -0.208979,1.2304777 0.316251,0.562109 0.45118,0.74493 1.171875,0.433594 l 0.255859,-0.107422 c 0.514449,-0.198055 0.712277,-0.300627 1.111328,0.156249 l -0.002,-0.01172 c 0.08951,0.09443 0.180952,0.185892 0.275391,0.275391 l -0.01172,-0.0039 c 0.456889,0.399053 0.354304,0.598832 0.15625,1.113282 l -0.107422,0.255859 c -0.311349,0.720684 -0.128518,0.853647 0.433591,1.16991 0.554936,0.328676 0.761993,0.420995 1.230469,-0.208985 l 0.16797,-0.220702 c 0.32304,-0.39971 0.450789,-0.589965 0.931639,-0.455079 0.01788,0.0056 0.03481,0.01013 0.05274,0.01565 0.01871,0.0058 0.03689,0.01081 0.05664,0.01757 l -0.002,-0.002 c 0.118386,0.03519 0.23856,0.06852 0.359376,0.09766 0.0077,0.0015 0.01395,0.0043 0.02151,0.0059 0.0319,0.0076 0.06364,0.01432 0.0957,0.02147 0.478507,0.123935 0.49462,0.351666 0.574218,0.857422 l 0.03318,0.277346 c 0.09071,0.779812 0.316003,0.802096 0.960938,0.794921 0.644925,0.0072 0.872173,-0.01512 0.962891,-0.794921 l 0.03319,-0.277346 c 0.07962,-0.505753 0.09572,-0.733496 0.57423,-0.857418 0.03205,-0.0072 0.0638,-0.01391 0.0957,-0.02147 0.0075,-0.0016 0.01376,-0.0044 0.02147,-0.0059 0.120812,-0.02914 0.239036,-0.06249 0.357422,-0.09766 v 0.002 c 0.01977,-0.0068 0.03791,-0.01175 0.05664,-0.01757 0.01792,-0.0055 0.03489,-0.01002 0.05273,-0.01565 0.480851,-0.134887 0.608598,0.05537 0.931641,0.455079 l 0.167966,0.220702 c 0.468474,0.629975 0.675544,0.537654 1.23048,0.20898 0.562109,-0.316249 0.744941,-0.449226 0.433593,-1.169921 l -0.107421,-0.255859 c -0.198057,-0.51445 -0.300627,-0.714229 0.156249,-1.113282 l -0.01172,0.0039 c 0.09443,-0.08951 0.185892,-0.182906 0.275391,-0.277345 l -0.0039,0.01368 c 0.399043,-0.456892 0.598821,-0.354308 1.113271,-0.156253 l 0.255859,0.107421 c 0.720696,0.311349 0.853671,0.128518 1.169922,-0.433593 0.328674,-0.5549367 0.420995,-0.7619947 -0.208984,-1.2304697 l -0.220703,-0.167968 c -0.39971,-0.323043 -0.589977,-0.45079 -0.455079,-0.9316411 0.0056,-0.017877 0.01013,-0.034847 0.01565,-0.052732 0.0058,-0.018709 0.01085,-0.036888 0.01758,-0.05664 0.03519,-0.1183861 0.06656,-0.2366059 0.0957,-0.3574223 0.0015,-0.00771 0.0043,-0.013946 0.0059,-0.021468 0.0076,-0.031899 0.01432,-0.06364 0.02147,-0.095701 C 45.160549,7.0915129 45.390231,7.0754 45.89599,6.995802 l 0.275391,-0.033184 c 0.779872,-0.090712 0.802157,-0.3179565 0.794982,-0.9628951 0.0072,-0.6449249 -0.01512,-0.8702188 -0.794922,-0.960938 L 45.89605,5.0056009 c -0.505755,-0.07964 -0.735451,-0.09575 -0.859373,-0.5742576 -0.0072,-0.03205 -0.01391,-0.063798 -0.02147,-0.095701 -0.0016,-0.00748 -0.0044,-0.013758 -0.0059,-0.021505 -0.02899,-0.1202003 -0.06074,-0.2396259 -0.0957,-0.3574224 v -0.002 c -0.0065,-0.019049 -0.0119,-0.036548 -0.01758,-0.05469 -0.0055,-0.017915 -0.01001,-0.034885 -0.01565,-0.05274 -0.134887,-0.48085 0.05537,-0.6085981 0.455079,-0.9316399 L 45.556173,2.7476822 C 46.18615,2.2792351 46.093829,2.0721661 45.765155,1.5172302 45.547728,1.1307803 45.417401,0.9220623 45.122577,0.9312931 44.988574,0.9354883 44.820456,0.9863343 44.595233,1.0836345 L 44.339374,1.1910562 C 43.824925,1.389114 43.625146,1.4916851 43.226093,1.0348083 l 0.0039,0.011717 C 43.140482,0.9520971 43.049037,0.8606363 42.954602,0.7711371 l 0.01172,0.002 C 42.509471,0.3740562 42.612062,0.1762652 42.810117,-0.3381845 l 0.107422,-0.25585886 c 0.311348,-0.72069654 0.128517,-0.85562454 -0.433594,-1.17187534 -0.277474,-0.1643369 -0.468699,-0.268506 -0.648438,-0.253906 -0.179738,0.014589 -0.347794,0.1478966 -0.582031,0.4628904 l -0.167966,0.2226557 c -0.323043,0.39971077 -0.450792,0.5899771 -0.931641,0.45507821 -0.01788,-0.005632 -0.03481,-0.0101291 -0.05273,-0.0156094 -0.01875,-0.005858 -0.03689,-0.0108095 -0.05664,-0.0175748 -0.118386,-0.0351874 -0.23661,-0.0665575 -0.357422,-0.0957052 -0.0077,-0.00152 -0.01395,-0.00431 -0.02147,-0.00586 -0.0319,-0.0076 -0.06364,-0.014324 -0.0957,-0.021468 -0.478523,-0.1239386 -0.494618,-0.3536167 -0.574215,-0.8593753 l -0.03319,-0.2753915 c -0.09073,-0.7798567 -0.318011,-0.8040824 -0.962936,-0.7969085 -0.08062,-8.961e-4 -0.15459,-0.00149 -0.222656,0 z m 0.222656,3.7070309 c 0.605657,3.59e-5 1.191343,0.104897 1.738281,0.2968743 a 1.43484,1.43484 0 0 0 0.654297,0.8222669 1.43484,1.43484 0 0 0 1.037109,0.1542954 c 0.861309,0.740222 1.484395,1.7583809 1.72461,2.9355469 0.06055,0.2965342 -0.164142,0.5742418 -0.466797,0.5742191 H 41.206601 C 40.995047,5.523162 40.80806,5.384078 40.747617,5.1813472 40.384831,3.9644829 39.271117,3.1323591 38.001523,3.130565 37.778467,3.131765 37.556171,3.159932 37.339414,3.212596 37.13312,3.262697 36.918237,3.169865 36.81207,2.9860322 L 36.073789,1.7067372 C 35.922785,1.4450465 36.049149,1.1097041 36.33551,1.0133783 36.871747,0.8328757 37.433791,0.7414943 37.99957,0.7399401 Z m -3.146484,1.2070322 c 0.162746,0.0076 0.311126,0.097179 0.392578,0.2382803 l 0.738281,1.2792971 c 0.105872,0.18336 0.07922,0.4146629 -0.06641,0.5683589 -0.503724,0.5316801 -0.785616,1.2344311 -0.78711,1.966797 8.36e-4,0.7328092 0.281408,1.438377 0.785157,1.9707031 0.145515,0.1536453 0.174118,0.3850578 0.06836,0.5683589 L 35.245661,9.8141593 C 35.094417,10.076137 34.741753,10.133736 34.515192,9.9333003 33.635372,9.1552583 33.049735,8.1124229 32.833551,6.9762678 A 1.43484,1.43484 0 0 0 33.21832,5.999706 1.43484,1.43484 0 0 0 32.833554,5.025097 c 0.215765,-1.1366559 0.799689,-2.1803448 1.679688,-2.9589849 0.09324,-0.0825 0.215478,-0.1249626 0.339844,-0.1191398 z m 6.353515,4.5312498 H 42.68121 C 42.983864,6.478193 43.210524,6.755904 43.149961,7.05244 42.909817,8.2289249 42.285992,9.2458963 41.42535,9.9860343 a 1.43484,1.43484 0 0 0 -0.34961,-0.03515 1.43484,1.43484 0 0 0 -0.683594,0.1914077 1.43484,1.43484 0 0 0 -0.652343,0.820313 c -0.547104,0.192794 -1.132203,0.298171 -1.73828,0.298817 -7.17e-4,3e-6 -0.0031,3e-6 -0.0039,0 -0.565549,-0.0022 -1.126347,-0.09635 -1.662116,-0.277344 -0.286024,-0.09657 -0.412569,-0.429907 -0.261719,-0.691406 l 0.738275,-1.2773407 c 0.106171,-0.183825 0.321048,-0.276662 0.527344,-0.226564 0.216899,0.05269 0.438907,0.07889 0.662109,0.08008 1.269953,-0.0013 2.385151,-0.8316068 2.748046,-2.0488285 0.06044,-0.2027301 0.245477,-0.3418205 0.457032,-0.3417967 z" />
    <path
       id="rect989"
       style="fill:#b3b3b3;fill-opacity:1;stroke-width:0.999999;stroke-linejoin:round"
       d="M 41.075742,-0.1018563 A 0.71741997,0.71741997 0 0 0 40.487851,0.2575182 0.71741997,0.71741997 0 0 0 40.751523,1.2360341 0.71741997,0.71741997 0 0 0 41.730039,0.974315 0.71741997,0.71741997 0 0 0 41.46832,-0.0061534 0.71741997,0.71741997 0 0 0 41.075742,-0.1018563 Z M 31.782773,5.2829091 A 0.71741997,0.71741997 0 0 0 31.065976,5.999706 0.71741997,0.71741997 0 0 0 31.782773,6.7184561 0.71741997,0.71741997 0 0 0 32.49957,5.999706 0.71741997,0.71741997 0 0 0 31.782773,5.2829091 Z m 9.310547,5.3847659 a 0.71741997,0.71741997 0 0 0 -0.341797,0.0957 0.71741997,0.71741997 0 0 0 -0.263672,0.980468 0.71741997,0.71741997 0 0 0 0.980469,0.261718 0.71741997,0.71741997 0 0 0 0.261717,-0.980468 0.71741997,0.71741997 0 0 0 -0.636717,-0.357418 z" />
    <path
       id="rect1112"
       style="opacity:0.1;fill:#000000;stroke-width:0.999999;stroke-linejoin:round"
       d="m 37.99957,-0.2170907 c -2.942498,0 -5.406537,2.0462067 -6.050781,4.7929689 0.338982,0.039689 0.652608,0.1990413 0.884765,0.4492188 0.215765,-1.136657 0.799689,-2.1803448 1.679688,-2.9589849 0.09324,-0.0825 0.215478,-0.1249626 0.339844,-0.1191383 0.162746,0.0076 0.311126,0.097179 0.392578,0.2382803 l 0.738281,1.2792971 c 0.105872,0.18336 0.07922,0.4146629 -0.06641,0.5683589 -0.503724,0.5316802 -0.785616,1.2344311 -0.78711,1.966797 8.36e-4,0.7328092 0.281408,1.438377 0.785157,1.9707031 0.145515,0.1536453 0.174106,0.3850579 0.06836,0.5683589 l -0.738281,1.2753902 c -0.151244,0.2619777 -0.503908,0.3195767 -0.730469,0.119141 -0.87982,-0.778042 -1.465457,-1.8208774 -1.681641,-2.9570325 -0.232157,0.250167 -0.545785,0.409522 -0.884765,0.4492192 0.644509,2.746404 3.108525,4.79297 6.050784,4.79297 0.623629,0 1.226845,-0.09263 1.794922,-0.263672 -0.135447,-0.313477 -0.155172,-0.66582 -0.05469,-0.992187 -0.547104,0.192805 -1.132205,0.298182 -1.738281,0.298829 -7.18e-4,2e-6 -0.0031,2e-6 -0.0039,0 -0.565549,-0.0022 -1.126347,-0.09635 -1.662116,-0.277345 -0.286024,-0.09657 -0.412568,-0.429908 -0.261719,-0.691407 l 0.738277,-1.2773437 c 0.106171,-0.183825 0.321048,-0.276662 0.527344,-0.226564 0.216899,0.05269 0.438908,0.08084 0.662109,0.08203 1.269953,-0.0013 2.385151,-0.8335604 2.748046,-2.0507822 0.06044,-0.2027301 0.245477,-0.3418205 0.457032,-0.3417978 h 1.474609 c 0.302657,-2.79e-5 0.529313,0.2776857 0.468751,0.5742183 -0.240144,1.1764849 -0.863969,2.1934557 -1.724611,2.9335937 0.333457,0.075219 0.629378,0.2671787 0.833985,0.5410157 1.205387,-1.1341907 1.958984,-2.7426396 1.958984,-4.5273416 0,-1.7850598 -0.755121,-3.3931029 -1.960938,-4.5273436 -0.203641,0.2728478 -0.496257,0.4650062 -0.828124,0.5410174 0.861312,0.740222 1.486346,1.758381 1.726563,2.9355469 0.06055,0.2965342 -0.166095,0.5742418 -0.468751,0.5742191 H 41.206594 C 40.995039,5.523161 40.808053,5.384077 40.74761,5.1813462 40.384823,3.9644819 39.271111,3.1323581 38.001516,3.130564 c -0.223058,0.0012 -0.445352,0.02938 -0.662109,0.08203 -0.206294,0.0501 -0.421178,-0.04273 -0.527344,-0.2265631 L 36.073789,1.7067372 c -0.151004,-0.2616907 -0.02464,-0.5970331 0.261718,-0.6933589 0.536234,-0.1805026 1.09828,-0.271884 1.664062,-0.2734374 0.605657,3.59e-5 1.191344,0.104897 1.738281,0.2968743 -0.0998,-0.3258746 -0.08054,-0.6773911 0.05469,-0.9902339 -0.567905,-0.170908 -1.169617,-0.263672 -1.79297,-0.263672 z" />
    <circle
       style="fill:#d9d9d9;fill-opacity:1;stroke-width:0.999999;stroke-linejoin:round"
       id="path1113"
       cx="38.000004"
       cy="5.999999"
       r="2" />
    <path
       id="path4344"
       style="opacity:0.4;fill:#000000;fill-opacity:1;stroke-width:2;stroke-linecap:round;stroke-linejoin:round"
       d="m 38.000001,-9 a 15,15 0 0 0 -15,15 15,15 0 0 0 15,15 15,15 0 0 0 15,-15 15,15 0 0 0 -15,-15 z m 0,1 a 14,14 0 0 1 14,14 14,14 0 0 1 -14,14 14,14 0 0 1 -14,-14 14,14 0 0 1 14,-14 z" />
    <path
       id="path1110"
       style="fill:url(#linearGradient1198);fill-opacity:1;stroke-width:1.27273;stroke-linecap:round;stroke-linejoin:round"
       d="m 38.000001,-8 c -7.731986,-10e-8 -14,6.2680134 -14,14 0,7.731988 6.268014,14 14,14 7.731986,0 14,-6.268014 14,-14 0,-7.7319866 -6.268013,-13.9999998 -14,-14 z m 0,1 a 13,13 0 0 1 13,13 13,13 0 0 1 -13,13 13,13 0 0 1 -13,-13 13,13 0 0 1 13,-13 z" />
  </g>
</svg>
