<?xml version="1.0" encoding="UTF-8" standalone="no"?>
<!-- Created with Inkscape (http://www.inkscape.org/) -->

<svg
   width="22"
   height="22"
   viewBox="0 0 22 22"
   version="1.1"
   id="svg375"
   inkscape:version="1.2 (dc2aedaf03, 2022-05-15)"
   sodipodi:docname="keyboard.svg"
   xmlns:inkscape="http://www.inkscape.org/namespaces/inkscape"
   xmlns:sodipodi="http://sodipodi.sourceforge.net/DTD/sodipodi-0.dtd"
   xmlns:xlink="http://www.w3.org/1999/xlink"
   xmlns="http://www.w3.org/2000/svg"
   xmlns:svg="http://www.w3.org/2000/svg">
  <sodipodi:namedview
     id="namedview377"
     pagecolor="#ffffff"
     bordercolor="#000000"
     borderopacity="0.25"
     inkscape:showpageshadow="2"
     inkscape:pageopacity="0.0"
     inkscape:pagecheckerboard="0"
     inkscape:deskcolor="#d1d1d1"
     inkscape:document-units="px"
     showgrid="false"
     inkscape:zoom="9.6931818"
     inkscape:cx="13.669402"
     inkscape:cy="22.954279"
     inkscape:window-width="1854"
     inkscape:window-height="1048"
     inkscape:window-x="0"
     inkscape:window-y="0"
     inkscape:window-maximized="1"
     inkscape:current-layer="svg375" />
  <defs
     id="defs372">
    <style
       id="current-color-scheme"
       type="text/css">
   .ColorScheme-Text { color:#3d3d3d; } .ColorScheme-Highlight { color:#5294e2; }
    </style>
    <linearGradient
       inkscape:collect="always"
       xlink:href="#linearGradient1374"
       id="linearGradient1376"
       x1="2.2490358"
       y1="1.0583555"
       x2="8.3342352"
       y2="4.2333555"
       gradientUnits="userSpaceOnUse"
       gradientTransform="matrix(3.7795275,0,0,3.7795275,22.000067,1.7e-7)" />
    <linearGradient
       inkscape:collect="always"
       id="linearGradient1374">
      <stop
         style="stop-color:#cdcdcd;stop-opacity:1;"
         offset="0"
         id="stop1370" />
      <stop
         style="stop-color:#d9d9d9;stop-opacity:1"
         offset="1"
         id="stop1372" />
    </linearGradient>
    <linearGradient
       inkscape:collect="always"
       xlink:href="#linearGradient1871"
       id="linearGradient867"
       x1="4.6278176"
       y1="11.864628"
       x2="4.6861434"
       y2="17.420876"
       gradientUnits="userSpaceOnUse"
       gradientTransform="matrix(3.7795275,0,0,3.7795275,12.288659,-39.842678)" />
    <linearGradient
       inkscape:collect="always"
       id="linearGradient1871">
      <stop
         style="stop-color:#ffffff;stop-opacity:1;"
         offset="0"
         id="stop1867" />
      <stop
         style="stop-color:#ffffff;stop-opacity:0.1"
         offset="0.12"
         id="stop2515" />
      <stop
         style="stop-color:#ffffff;stop-opacity:0.102"
         offset="0.89999998"
         id="stop2581" />
      <stop
         style="stop-color:#ffffff;stop-opacity:0.502"
         offset="1"
         id="stop1869" />
    </linearGradient>
  </defs>
  <g
     id="16-16-keyboard-layout">
    <rect
       style="fill:none;fill-opacity:1;stroke-width:2;stroke-linecap:round;stroke-linejoin:round"
       id="rect1380"
       width="16"
       height="16"
       x="-16"
       y="0" />
    <path
       d="m -12.00586,2 c -1.257999,0.015 -2.179642,-0.030234 -2.931641,0.3847656 -0.389385,0.2221173 -0.686476,0.5761104 -0.83789,0.9980469 -0.165,0.4389996 -0.22461,0.9601882 -0.22461,1.6171875 v 5 c 0,0.657999 0.05961,1.179188 0.22461,1.617188 0.164,0.438999 0.460891,0.790047 0.83789,0.998046 0.751999,0.416 1.673642,0.369766 2.931641,0.384766 h 7.011718 c 1.257999,-0.014 2.178642,0.03023 2.931641,-0.384766 0.389385,-0.222116 0.686477,-0.57611 0.837891,-0.998046 0.163999,-0.438 0.224609,-0.960189 0.224609,-1.617188 V 5 c 0,-0.6579993 -0.05961,-1.1781879 -0.224609,-1.6171875 C -1.375773,2.9610365 -1.673492,2.6070658 -2.062501,2.3847656 -2.8155,1.968766 -3.736143,2.015 -4.994142,2 h -7.007812 z M -12,3 h 7 c 1.258999,0.015 2.087125,0.059719 2.453125,0.2617188 0.184,0.1009998 0.289719,0.2136565 0.386719,0.4726562 C -2.063156,3.9943747 -2,4.4080006 -2,5 v 5 c 0,0.591999 -0.06316,1.005625 -0.160156,1.265625 -0.098,0.26 -0.202719,0.371656 -0.386719,0.472656 C -2.912875,11.940281 -3.741001,11.985 -5,12 h -7 c -1.257999,-0.015 -2.087125,-0.05972 -2.453125,-0.261719 -0.183,-0.1 -0.289719,-0.212656 -0.386719,-0.472656 C -14.936844,11.005625 -15,10.591999 -15,10 V 5 c 0,-0.5919994 0.06316,-1.0056253 0.160156,-1.265625 0.098,-0.2599997 0.203719,-0.3716564 0.386719,-0.4726562 C -14.087125,3.059719 -13.257999,3.015 -12,3 Z m -1,2 v 1 h 1 V 5 Z m 2,0 v 1 h 1 V 5 Z m 2,0 v 1 h 1 V 5 Z m 2,0 v 1 h 1 V 5 Z m 2,0 v 1 h 1 V 5 Z m -7.001953,2 0.0039,1 H -11 V 7 Z M -10,7 v 1 h 1 V 7 Z m 2,0 v 1 h 1 V 7 Z m 2,0 v 1 h 1 V 7 Z m -7,2 v 1 h 1 V 9 Z m 2,0 v 1 h 5 V 9 Z m 6,0 0.01172,1 h 0.99414 L -4.00586,9 Z"
       style="fill:currentColor;stroke-width:2;stroke-linecap:round;stroke-linejoin:round"
       class="ColorScheme-Text"
       id="path1390" />
  </g>
  <g
     id="22-22-keyboard-layout">
    <rect
       style="fill:none;stroke-width:2;stroke-linecap:round;stroke-linejoin:round"
       id="rect548"
       width="22"
       height="22"
       x="0"
       y="0" />
    <path
       id="rect1118"
       style="fill:currentColor;stroke-width:2;stroke-linecap:round;stroke-linejoin:round"
       class="ColorScheme-Text"
       d="M 6.9941406,5 C 5.7361419,5.015 4.8144991,4.969766 4.0625,5.3847656 3.6731151,5.6068829 3.3760232,5.960876 3.2246094,6.3828125 3.0596095,6.8218121 3,7.3430007 3,8 v 5 c 0,0.657999 0.05961,1.179188 0.2246094,1.617188 0.1639998,0.438999 0.460891,0.790047 0.8378906,0.998046 C 4.8144991,16.031234 5.7361419,15.985 6.9941406,16 h 7.0117184 c 1.257999,-0.014 2.178642,0.03023 2.931641,-0.384766 0.389385,-0.222116 0.686477,-0.57611 0.837891,-0.998046 C 17.93939,14.179188 18,13.656999 18,13 V 8 C 18,7.3420007 17.94039,6.8218121 17.775391,6.3828125 17.624228,5.9610365 17.326509,5.6070658 16.9375,5.3847656 16.184501,4.968766 15.263858,5.015 14.005859,5 H 6.9980469 Z M 7,6 h 7 c 1.258999,0.015 2.087125,0.059719 2.453125,0.2617188 0.184,0.1009998 0.289719,0.2136565 0.386719,0.4726562 C 16.936844,6.9943747 17,7.4080006 17,8 v 5 c 0,0.591999 -0.06316,1.005625 -0.160156,1.265625 -0.098,0.26 -0.202719,0.371656 -0.386719,0.472656 C 16.087125,14.940281 15.258999,14.985 14,15 H 7 C 5.7420013,14.985 4.9128746,14.940281 4.546875,14.738281 4.3638752,14.638281 4.2571561,14.525625 4.1601562,14.265625 4.0631563,14.005625 4,13.591999 4,13 V 8 C 4,7.4080006 4.0631563,6.9943747 4.1601562,6.734375 4.2581562,6.4743753 4.3638752,6.3627186 4.546875,6.2617188 4.9128746,6.059719 5.7420013,6.015 7,6 Z M 6,8 V 9 H 7 V 8 Z M 8,8 V 9 H 9 V 8 Z m 2,0 v 1 h 1 V 8 Z m 2,0 v 1 h 1 V 8 Z m 2,0 v 1 h 1 V 8 Z m -7.0019531,2 0.00391,1 H 8 V 10 Z M 9,10 v 1 h 1 v -1 z m 2,0 v 1 h 1 v -1 z m 2,0 v 1 h 1 v -1 z m -7,2 v 1 h 1 v -1 z m 2,0 v 1 h 5 v -1 z m 6,0 0.01172,1 h 0.99414 l -0.01172,-1 z"
       sodipodi:nodetypes="cccssccccccsscccccccccsscccccssscsccccccccccccccccccccccccccccccccccccccccccccccccccccccccccccc" />
  </g>
  <g
     id="keyboard-layout">
    <rect
       style="fill:none;fill-opacity:1;stroke-width:2.90909;stroke-linecap:round;stroke-linejoin:round"
       id="rect1552"
       width="32"
       height="32"
       x="22"
       y="0" />
    <path
       d="m 28.2583,4.000819 c -1.193185,0.00888 -2.160919,0.074683 -2.964843,0.2441423 -0.91928,0.1938142 -1.644206,0.539017 -2.160156,1.1113281 C 22.101411,6.500908 22.00049,8.2766582 22.00049,11.07504 v 9.85156 c 0,2.79769 0.10066,4.566313 1.132811,5.707031 0.51608,0.570361 1.241608,0.9161 2.160156,1.111327 0.918551,0.195251 2.050844,0.255859 3.490234,0.255859 h 9.216375 9.216399 c 1.439391,0 2.571684,-0.06057 3.490234,-0.255859 0.91855,-0.195212 1.644077,-0.540968 2.160156,-1.111328 1.032151,-1.140719 1.132813,-2.909342 1.132813,-5.707031 v -9.851561 c 0,-2.7983817 -0.100917,-4.5741394 -1.132813,-5.7187504 C 52.350908,4.7839764 51.625978,4.4387585 50.706699,4.2449594 49.787926,4.051259 48.655146,3.9935245 47.216465,4.000819 h -9.216399 -9.214422 -0.002 c -0.179834,-8.977e-4 -0.354936,-0.00127 -0.525391,0 z"
       style="color:#000000;display:inline;overflow:visible;visibility:visible;opacity:0.1;fill:#000000;fill-opacity:1;fill-rule:nonzero;stroke:none;stroke-width:0.999999;marker:none;enable-background:accumulate"
       id="path1438"
       sodipodi:nodetypes="cccssscscscssssccccccc" />
    <path
       d="m 53.499656,11.075235 c 0,-5.5617527 -0.584092,-6.6037004 -6.28227,-6.5744696 h -9.217252 -9.217387 c -5.69818,-0.02948 -6.28227,1.0127169 -6.28227,6.5744696 v 8.850369 c 0,5.560369 0.58403,6.574469 6.28227,6.574469 h 9.217387 9.217252 c 5.698239,0 6.28227,-1.0141 6.28227,-6.574469 z"
       style="color:#000000;display:inline;overflow:visible;visibility:visible;fill:url(#linearGradient1376);fill-opacity:1;fill-rule:nonzero;stroke:none;stroke-width:0.999999;marker:none;enable-background:accumulate"
       id="path908"
       sodipodi:nodetypes="scccssscsss" />
    <path
       id="path1133"
       style="color:#000000;opacity:0.05;fill:#000000;fill-rule:evenodd;stroke-width:2;stroke-linejoin:round"
       d="m 26.000067,8.0000001 a 1.0001,1.0001 0 0 0 -1,1.0000003 v 3.0000006 a 1.0001,1.0001 0 0 0 1,1 h 2.958984 a 1.0001,1.0001 0 0 0 -1,1.003906 l 0.01172,3 A 1.0001,1.0001 0 0 0 28.970773,18 h -2.005859 a 1.0001,1.0001 0 0 0 -1,1.000001 v 3 a 1.0001,1.0001 0 0 0 1,1 h 3 a 1.0001,1.0001 0 0 0 0.999999,-1 1.0001,1.0001 0 0 0 1.000001,1 h 12.999999 a 1.0001,1.0001 0 0 0 1,-1 v 0.01172 a 1.0001,1.0001 0 0 0 1,0.988285 h 2.982422 a 1.0001,1.0001 0 0 0 1,-1.011719 l -0.03515,-3 a 1.0001,1.0001 0 0 0 -1.00001,-0.988281 H 46.96491 a 1.0001,1.0001 0 0 0 1,-1 v -3 a 1.0001,1.0001 0 0 0 -1,-1 h 2 a 1.0001,1.0001 0 0 0 1,-1 V 9.0000004 a 1.0001,1.0001 0 0 0 -1,-1.0000003 h -3 A 1.0001,1.0001 0 0 0 44.982488,8.9824222 1.0001,1.0001 0 0 0 44.000067,8.0000001 h -3 a 1.0001,1.0001 0 0 0 -1.000001,1.0000003 1.0001,1.0001 0 0 0 -1,-1.0000003 h -2.999999 a 1.0001,1.0001 0 0 0 -1,1.0000003 1.0001,1.0001 0 0 0 -1,-1.0000003 h -3 a 1.0001,1.0001 0 0 0 -1,1.0000003 1.0001,1.0001 0 0 0 -1,-1.0000003 z m 4,4.0000009 a 1.0001,1.0001 0 0 0 1,1 h -2 a 1.0001,1.0001 0 0 0 1,-1 z m 5,0 a 1.0001,1.0001 0 0 0 1,1 h -2 a 1.0001,1.0001 0 0 0 1,-1 z m 4.999999,0 a 1.0001,1.0001 0 0 0 1.000001,1 h -2.000001 a 1.0001,1.0001 0 0 0 1,-1 z m 4.982422,0.01757 a 1.0001,1.0001 0 0 0 0.982422,0.98242 h -1.964843 a 1.0001,1.0001 0 0 0 0.982421,-0.98242 z m -13.017577,0.982425 h 2 a 1.0001,1.0001 0 0 0 -1,1 1.0001,1.0001 0 0 0 -1,-1 z m 5,0 h 1.999999 a 1.0001,1.0001 0 0 0 -0.999999,1 1.0001,1.0001 0 0 0 -1,-1 z m 4.999999,0 h 2 a 1.0001,1.0001 0 0 0 -1,1 1.0001,1.0001 0 0 0 -1,-1 z m -8.999999,4 a 1.0001,1.0001 0 0 0 1,0.999999 h -2 a 1.0001,1.0001 0 0 0 -1.000001,1.000001 1.0001,1.0001 0 0 0 -0.999999,-1.000001 h 2 a 1.0001,1.0001 0 0 0 1,-0.999999 z m 5,0 a 1.0001,1.0001 0 0 0 0.999999,0.999999 h -1.999999 a 1.0001,1.0001 0 0 0 1,-0.999999 z m 4.999999,0 a 1.0001,1.0001 0 0 0 1,0.999999 h -2 a 1.0001,1.0001 0 0 0 1,-0.999999 z m 2,0.999999 h 1.964844 a 1.0001,1.0001 0 0 0 -0.986329,0.978517 1.0001,1.0001 0 0 0 -0.978515,-0.978517 z" />
    <path
       d="m 26.000067,9.9999999 v 3.0000011 h 3 V 9.9999999 Z m 5,0 v 3.0000011 h 3 V 9.9999999 Z m 5,0 v 3.0000011 h 2.999999 V 9.9999999 Z m 5,0 v 3.0000011 h 3 V 9.9999999 Z m 4.964899,0 v 3.0000011 h 3 V 9.9999999 Z M 28.958967,15.000001 28.970947,18 h 2.993919 v -2.999999 z m 5.0059,0 V 18 h 3 v -2.999999 z m 5,0 V 18 h 3 v -2.999999 z m 4.999999,0 V 18 h 3 v -2.999999 z m -16.999999,5 v 3 h 3 v -3 z m 5,0 v 3 h 13 v -3 z m 14.964999,0 0.03511,3 h 2.9824 l -0.03511,-3 z"
       style="color:#000000;font-variant-ligatures:normal;font-variant-position:normal;font-variant-caps:normal;font-variant-numeric:normal;font-variant-alternates:normal;font-feature-settings:normal;text-indent:0;text-decoration-line:none;text-decoration-style:solid;text-decoration-color:#000000;text-transform:none;text-orientation:mixed;dominant-baseline:auto;white-space:normal;shape-padding:0;opacity:0.25;isolation:auto;mix-blend-mode:normal;solid-color:#000000;fill:#000000;fill-rule:evenodd;stroke-width:0.999999;color-rendering:auto;image-rendering:auto;shape-rendering:auto"
       id="path879" />
    <path
       id="path1017"
       style="color:#000000;font-variant-ligatures:normal;font-variant-position:normal;font-variant-caps:normal;font-variant-numeric:normal;font-variant-alternates:normal;font-feature-settings:normal;text-indent:0;text-decoration-line:none;text-decoration-style:solid;text-decoration-color:#000000;text-transform:none;text-orientation:mixed;dominant-baseline:auto;white-space:normal;shape-padding:0;isolation:auto;mix-blend-mode:normal;solid-color:#000000;fill:#f7f7f7;fill-rule:evenodd;stroke-width:0.999999;color-rendering:auto;image-rendering:auto;shape-rendering:auto"
       d="m 26.000067,9.0000001 v 3.0000009 h 3 V 9.0000001 Z m 5,0 v 3.0000009 h 3 V 9.0000001 Z m 5,0 v 3.0000009 h 3 V 9.0000001 Z m 5,0 v 3.0000009 h 3 V 9.0000001 Z m 4.964844,0 v 3.0000009 h 3 V 9.0000001 Z m -17.00586,5.0000009 0.01172,3 h 2.994141 v -3 z m 5.00586,0 v 3 h 3 v -3 z m 5,0 v 3 h 3 v -3 z m 5,0 v 3 h 3 v -3 z m -17,5 v 3 h 3 v -3 z m 5,0 v 3 h 13 v -3 z m 14.964844,0 0.03516,3 h 2.982422 l -0.03516,-3 z" />
    <path
       d="m 28.779367,4.9999998 c -1.409265,-0.0082 -2.48645,0.055521 -3.2793,0.222652 -0.79285,0.1671307 -1.28265,0.4229782 -1.625,0.80273 -0.6847,0.7594999 -0.875,2.2854576 -0.875,5.0488292 v 8.851686 c 0,2.76268 0.190579,4.280689 0.875,5.037108 0.342209,0.37821 0.83141,0.634073 1.625,0.802731 0.79359,0.16868 1.87347,0.234368 3.2832,0.234368 h 9.217007 9.21646 c 1.40973,0 2.48961,-0.06569 3.2832,-0.234368 0.793591,-0.168643 1.28279,-0.424521 1.625,-0.802731 0.68442,-0.756419 0.874999,-2.274428 0.874999,-5.037108 v -8.851686 c 0,-2.7633716 -0.1903,-4.2893407 -0.874999,-5.0488292 -0.342349,-0.3797291 -0.83215,-0.6355804 -1.625,-0.8027187 -0.79285,-0.1671685 -1.87003,-0.2296441 -3.2793,-0.222652 h -0.002 -9.21836 -9.218957 z m 7.357627,1.042972 c 2.72221,-0.003 6.44351,-0.002 9.16567,0.015496 1.70821,0.075591 3.46996,-0.1250645 5.16016,0.2480504 0.892519,0.1163339 1.308301,1.0352126 1.345699,1.83984 0.130621,4.9924318 0.03553,7.0044988 0.06452,12.0079468 -0.06501,1.35024 0.255118,2.82596 -0.50586,4.035152 -0.636381,0.685308 -1.704241,0.581919 -2.558601,0.705079 -5.32545,0.13319 -12.658607,0.07249 -17.992047,0.0644 -1.87955,-0.0864 -3.84814,0.167395 -5.67774,-0.40625 -0.91711,-0.35573 -0.90353,-1.533151 -0.98633,-2.355459 -0.13787,-4.665108 -0.02838,-6.360727 -0.0254,-11.033338 0.0729,-1.2515381 -0.105612,-2.5447603 0.214851,-3.7675773 0.18398,-0.9107905 1.18819,-1.1603829 1.978509,-1.2382828 2.937901,-0.1598362 6.871888,-0.07971 9.816618,-0.1152378 z"
       style="color:#000000;display:inline;overflow:visible;visibility:visible;opacity:0.7;fill:url(#linearGradient867);fill-opacity:1;fill-rule:nonzero;stroke:none;stroke-width:0.999999;marker:none;enable-background:accumulate"
       id="path1034"
       sodipodi:nodetypes="sscssscscscsssccccccsccccccccccccccc" />
    <path
       d="M 29.988348,4 C 27.477855,4.029001 25.614062,3.949985 24.125067,4.7714843 23.36413,5.1913229 22.779686,5.8803372 22.447333,6.765625 22.118891,7.6405856 22.000067,8.6861522 22.000067,9.9999999 V 21 c 0,1.313848 0.118833,2.359382 0.447266,3.234375 0.332333,0.885328 0.916781,1.574301 1.677734,1.994141 C 25.613992,27.050039 27.47786,26.97098 29.988348,27 h 0.002 0.0078 16.003905 0.0078 0.002 c 2.510494,-0.029 4.374287,0.05001 5.863282,-0.771484 0.760936,-0.419839 1.345381,-1.108853 1.677734,-1.994141 C 53.880816,23.359594 54.000107,22.313894 54.000107,21 V 9.9999999 c 0,-1.3138477 -0.118832,-2.3593826 -0.447266,-3.2343749 C 53.220467,5.8802397 52.636003,5.191315 51.875067,4.7714843 50.386143,3.9499609 48.522274,4.0290203 46.011786,4 h -0.002 -0.0078 -16.003906 -0.0059 z m 0.0059,0.9999998 h 0.0059 16.001953 c 2.526454,0.029178 4.252944,0.019843 5.388672,0.6464844 0.551662,0.3043691 0.965383,0.7800899 1.224608,1.4707034 0.263131,0.7010056 0.384769,1.6314625 0.384769,2.8828123 V 21 c 0,1.251303 -0.121901,2.181695 -0.384766,2.882812 -0.259245,0.690551 -0.673007,1.166363 -1.224609,1.470704 C 50.254917,25.980185 48.528553,25.970833 46.002103,26 h -16.002036 -0.0059 C 27.470215,25.97088 25.74444,25.97978 24.609401,25.353516 24.057755,25.049156 23.644017,24.573383 23.384792,23.882812 23.121665,23.181807 23.000026,22.25135 23.000026,21 V 9.9999999 c 0,-1.2513498 0.121648,-2.1818748 0.384766,-2.8828123 C 23.644037,6.4266369 24.057799,5.950825 24.609401,5.6464842 25.74457,5.0201957 27.47022,5.0291033 29.994165,4.9999998 Z"
       style="color:#000000;opacity:0.3;fill:#000000;stroke-width:0.999999"
       id="path1149" />
  </g>
</svg>
