<?xml version="1.0" encoding="UTF-8" standalone="no"?>
<!-- Created with Inkscape (http://www.inkscape.org/) -->

<svg
   width="22"
   height="22"
   viewBox="0 0 22 22.000001"
   version="1.1"
   id="svg363"
   inkscape:version="1.2 (dc2aedaf03, 2022-05-15)"
   sodipodi:docname="phone.svg"
   xmlns:inkscape="http://www.inkscape.org/namespaces/inkscape"
   xmlns:sodipodi="http://sodipodi.sourceforge.net/DTD/sodipodi-0.dtd"
   xmlns:xlink="http://www.w3.org/1999/xlink"
   xmlns="http://www.w3.org/2000/svg"
   xmlns:svg="http://www.w3.org/2000/svg"><sodipodi:namedview
   id="namedview365"
   pagecolor="#ffffff"
   bordercolor="#000000"
   borderopacity="0.25"
   inkscape:showpageshadow="2"
   inkscape:pageopacity="0.0"
   inkscape:pagecheckerboard="0"
   inkscape:deskcolor="#d1d1d1"
   inkscape:document-units="px"
   showgrid="false"
   inkscape:zoom="9.6931818"
   inkscape:cx="39.873388"
   inkscape:cy="29.453693"
   inkscape:window-width="1854"
   inkscape:window-height="1048"
   inkscape:window-x="0"
   inkscape:window-y="0"
   inkscape:window-maximized="1"
   inkscape:current-layer="svg363"
   showguides="false" />
<defs
   id="defs360">
  <style
     id="current-color-scheme"
     type="text/css">
   .ColorScheme-Text { color:#3d3d3d; } .ColorScheme-Highlight { color:#5294e2; }
  </style>
  <linearGradient
     inkscape:collect="always"
     xlink:href="#linearGradient27721"
     id="linearGradient27723"
     x1="-15.892673"
     y1="13.000044"
     x2="-2"
     y2="34.000046"
     gradientUnits="userSpaceOnUse"
     gradientTransform="translate(47.999999,-17.999879)" />
  <linearGradient
     inkscape:collect="always"
     id="linearGradient27721">
    <stop
       style="stop-color:#9a9a9a;stop-opacity:1;"
       offset="0"
       id="stop27717" />
    <stop
       style="stop-color:#c5c5c5;stop-opacity:1;"
       offset="1"
       id="stop27719" />
  </linearGradient>
  <linearGradient
     inkscape:collect="always"
     xlink:href="#linearGradient1871"
     id="linearGradient1659"
     x1="2.6654696"
     y1="0.52916664"
     x2="2.6654694"
     y2="8.2021704"
     gradientUnits="userSpaceOnUse"
     gradientTransform="matrix(3.7795275,0,0,3.7795275,25.000004,-11)" />
  <linearGradient
     inkscape:collect="always"
     id="linearGradient1871">
    <stop
       style="stop-color:#ffffff;stop-opacity:1;"
       offset="0"
       id="stop1867" />
    <stop
       style="stop-color:#ffffff;stop-opacity:0.1"
       offset="0.12"
       id="stop2515" />
    <stop
       style="stop-color:#ffffff;stop-opacity:0.102"
       offset="0.89999998"
       id="stop2581" />
    <stop
       style="stop-color:#ffffff;stop-opacity:0.502"
       offset="1"
       id="stop1869" />
  </linearGradient>
  <linearGradient
     inkscape:collect="always"
     xlink:href="#linearGradient27721"
     id="linearGradient22472"
     gradientUnits="userSpaceOnUse"
     gradientTransform="translate(47.999999,13.999935)"
     x1="-15.892673"
     y1="13.000044"
     x2="-2"
     y2="34.000046" />
  <linearGradient
     inkscape:collect="always"
     xlink:href="#linearGradient1871"
     id="linearGradient22474"
     gradientUnits="userSpaceOnUse"
     gradientTransform="matrix(3.7795275,0,0,3.7795275,25.000004,20.999814)"
     x1="2.6654696"
     y1="0.52916664"
     x2="2.6654694"
     y2="8.2021704" />
  <linearGradient
     inkscape:collect="always"
     xlink:href="#linearGradient1090"
     id="linearGradient1092"
     x1="5.9692979"
     y1="1.0583352"
     x2="5.953125"
     y2="9.5250015"
     gradientUnits="userSpaceOnUse"
     gradientTransform="matrix(2.325863,0,0,2.325863,23,21.846155)" />
  <linearGradient
     inkscape:collect="always"
     id="linearGradient1090">
    <stop
       style="stop-color:#111111;stop-opacity:1;"
       offset="0"
       id="stop1086" />
    <stop
       style="stop-color:#4d4d4d;stop-opacity:1"
       offset="1"
       id="stop1088" />
  </linearGradient>
</defs>

s
  <g
   id="22-22-phone">
  <rect
     style="fill:none;stroke-width:2;stroke-linecap:round;stroke-linejoin:round"
     id="rect26473"
     width="22"
     height="22"
     x="0"
     y="0" />
  <path
     id="path26452"
     style="fill:currentColor;stroke-width:2;stroke-linecap:round;stroke-linejoin:round"
     class="ColorScheme-Text"
     d="M 8.5019531,3 C 7.9599536,3 7.5166246,3.0644689 7.140625,3.2304688 6.7780476,3.3916392 6.4834058,3.6730867 6.3046875,4.0273438 5.9646878,4.7073431 6.0019531,5.500001 6.0019531,6.5 v 9 c 0,0.999999 -0.037265,1.79561 0.3027344,2.474609 0.1699998,0.34 0.461891,0.627922 0.8378906,0.794922 C 7.5175778,18.935531 7.9599536,19 8.5019531,19 h 4.9999999 c 0.542,0 0.983376,-0.06447 1.359375,-0.230469 0.375,-0.167 0.666938,-0.455922 0.835938,-0.794922 0.339999,-0.679999 0.304687,-1.47461 0.304687,-2.474609 v -9 c 0,-0.999999 0.03531,-1.7936569 -0.304687,-2.4726562 C 15.518112,3.6732922 15.222163,3.3911969 14.859375,3.2304688 14.484375,3.0634689 14.043953,3 13.501953,3 Z M 7.0703125,5 h 7.8613285 c 0.05,0.3729996 0.07031,0.8700006 0.07031,1.5 v 9 c 0,0.629999 -0.02031,1.126 -0.07031,1.5 H 7.0703125 c -0.05,-0.374 -0.068359,-0.870001 -0.068359,-1.5 v -9 c 0,-0.6299994 0.018359,-1.1270004 0.068359,-1.5 z"
     sodipodi:nodetypes="sccssccssccssccssccssccssc" />
</g>
<g
   id="16-16-phone">
  <rect
     style="fill:none;stroke-width:2;stroke-linecap:round;stroke-linejoin:round"
     id="rect26527"
     width="16"
     height="16"
     x="-19"
     y="3" />
  <path
     d="m -13.498795,2.9999994 c -0.541999,0 -0.985328,0.064469 -1.361328,0.2304688 -0.362577,0.1611705 -0.657219,0.442618 -0.835938,0.7968751 -0.339999,0.6799993 -0.302734,1.4726573 -0.302734,2.4726563 v 9.0000014 c 0,0.999999 -0.03726,1.79561 0.302734,2.474609 0.17,0.34 0.461891,0.627922 0.837891,0.794922 0.375,0.166 0.817376,0.230469 1.359375,0.230469 h 4.9999996 c 0.542,0 0.983376,-0.06447 1.359375,-0.230469 0.375,-0.167 0.666938,-0.455922 0.835938,-0.794922 0.339999,-0.679999 0.304687,-1.47461 0.304687,-2.474609 V 6.4999996 c 0,-0.999999 0.03531,-1.793657 -0.304687,-2.4726563 -0.179154,-0.3540516 -0.475103,-0.6361469 -0.837891,-0.7968751 -0.375,-0.1669999 -0.815422,-0.2304688 -1.357422,-0.2304688 z m -1.431641,2.0000001 h 7.8613286 c 0.05,0.3729996 0.07031,0.8700007 0.07031,1.5000001 v 9.0000014 c 0,0.629999 -0.02031,1.126 -0.07031,1.5 h -7.8613286 c -0.05,-0.374 -0.06836,-0.870001 -0.06836,-1.5 V 6.4999996 c 0,-0.6299994 0.01836,-1.1270005 0.06836,-1.5000001 z"
     style="fill:currentColor;stroke-width:2;stroke-linecap:round;stroke-linejoin:round"
     class="ColorScheme-Text"
     id="path26537" />
</g>
<g
   id="phone">
  <rect
     style="fill:none;stroke-width:2;stroke-linecap:round;stroke-linejoin:round"
     id="rect29207"
     width="32"
     height="32"
     x="22"
     y="-10" />
  <path
     d="m 33.285156,-10 c -1.14751,0 -2.07698,0.120979 -2.871094,0.46875 -0.794113,0.347771 -1.412841,0.971068 -1.763671,1.712891 C 27.948729,-6.334713 28.024905,-4.526936 28,-2.009766 v 0.0059 16.009765 0.0039 c 0.02495,2.517161 -0.05125,4.324951 0.650391,5.808593 0.350821,0.741827 0.969563,1.365124 1.763671,1.712897 0.794109,0.347773 1.723584,0.46875 2.871094,0.46875 h 9.429688 c 1.14751,0 2.07698,-0.120979 2.871093,-0.46875 0.794114,-0.347771 1.412842,-0.971068 1.763672,-1.712891 C 48.05127,18.334752 47.975095,16.526975 48,14.009805 v -0.0039 -16.009764 -0.0059 c -0.02495,-2.517168 0.05125,-4.324958 -0.650391,-5.8086 C 46.998788,-8.56018 46.380046,-9.183477 45.585937,-9.53125 44.791829,-9.879023 43.862354,-10 42.714844,-10 Z m 0,2 h 9.429688 c 0.995337,0 1.664928,0.124102 2.068359,0.300781 0.403431,0.176679 0.579172,0.358588 0.757813,0.736328 C 45.897601,-6.208881 45.974804,-4.51817 46,-2 v 15.990233 c -0.025,2.526325 -0.101697,4.219133 -0.458984,4.97461 -0.178644,0.377738 -0.354371,0.557693 -0.757813,0.734375 -0.403441,0.176681 -1.073022,0.300781 -2.068359,0.300781 h -9.429688 c -0.995337,0 -1.664928,-0.124102 -2.068359,-0.300781 C 30.813366,19.522539 30.637625,19.342583 30.458984,18.964843 30.102399,18.210833 30.025196,16.518172 30,13.999999 v -0.0098 -15.980467 -0.0098 c 0.02515,-2.518161 0.102392,-4.208885 0.458984,-4.962891 0.178644,-0.377738 0.354371,-0.559646 0.757813,-0.736328 0.403441,-0.176681 1.073022,-0.300781 2.068359,-0.300781 z"
     style="color:#000000;opacity:0.2;fill:#000000"
     id="path27455" />
  <path
     d="m 28.5,13.247969 c 0.0252,2.4378 -0.0131,4.1752 0.6123,5.4454 0.31271,0.6351 0.81569,1.1181 1.4962,1.4044 0.6805,0.28624 1.5338,0.4026 2.6415,0.4026 h 9.5 c 1.1077,0 1.961,-0.11636 2.6415,-0.4026 0.68051,-0.28624 1.1835,-0.76926 1.4962,-1.4044 0.62542,-1.2702 0.58714,-3.0076 0.61229,-5.4454 v -0.004 -15.487999 -0.004 c -0.0251,-2.4378 0.0131,-4.1752 -0.61229,-5.4454 -0.31272,-0.6351 -0.81569,-1.1181 -1.4962,-1.4044 C 44.711,-9.38346 43.8577,-9.5 42.75,-9.5 h -9.5 c -1.1077,0 -1.961,0.11636 -2.6415,0.4026 -0.68051,0.28624 -1.1835,0.76926 -1.4962,1.4044 -0.62542,1.2702 -0.58714,3.0076 -0.6123,5.4454 v 0.004 15.487999 z"
     style="color:#000000;fill:#4d4d4d"
     id="path27498" />
  <rect
     style="fill:url(#linearGradient27723);fill-opacity:1;stroke:none;stroke-width:2;stroke-linecap:round;stroke-linejoin:round"
     id="rect27611"
     width="16"
     height="21"
     x="30"
     y="-4.999835"
     ry="1" />
  <path
     d="m 36.9094,-4.999835 -6.9091,15.272999 v 4.7727 c 0,0.52881 0.38518,0.95454 0.86364,0.95454 h 3.2078 l 9.5,-20.999999 z"
     style="opacity:0.1;fill:#ffffff;enable-background:new"
     id="path28776" />
  <path
     d="m 30.90476,-4.999835 c -0.50124,0 -0.90476,0.446 -0.90476,1 v 14.272999 l 6.9094,-15.272999 z"
     style="opacity:0.2;fill:#f9f9f9;enable-background:new"
     id="path28748" />
  <path
     id="path2368"
     style="color:#000000;display:inline;opacity:0.3;fill:url(#linearGradient1659);fill-opacity:1;stroke-width:0.999999;enable-background:new"
     d="m 35.07422,-9 c -2.7633,0 -4.28936,0.1903 -5.04883,0.875 C 29.64566,-7.78265 29.3898,-7.29285 29.22266,-6.5 29.05551,-5.70715 28.993,-4.62997 29,-3.2207 v 0.002 17.437729 0.002 c 0,1.409277 0.0555,2.48645 0.22266,3.2793 0.167138,0.79285 0.422989,1.28265 0.802729,1.625 0.75948,0.6847 2.28553,0.875 5.04883,0.875 h 5.85156 c 2.76262,0 4.28071,-0.190579 5.03711,-0.875 0.3782,-0.34221 0.63408,-0.831419 0.80273,-1.625 0.168692,-0.79368 0.23438,-1.87358 0.23438,-3.283299 V -3.2168 c 0,-1.40972 -0.0657,-2.48962 -0.23438,-3.2832 -0.16865,-0.79358 -0.42453,-1.28279 -0.80273,-1.625 C 45.206489,-8.80942 43.688399,-9 40.925779,-9 Z m 0.4375,0.95312 h 5.02539 c 1.453119,0 2.55451,0.0404 3.324219,0.16407 0.76971,0.12365 1.15722,0.30849 1.40039,0.54101 0.243179,0.23252 0.43694,0.60316 0.5664,1.33985 0.12946,0.7367 0.171882,1.79163 0.171882,3.18164 v 16.593979 c 0,1.390011 -0.0424,2.444941 -0.171882,3.18164 -0.129449,0.736701 -0.323221,1.10732 -0.5664,1.33984 -0.24317,0.232521 -0.63068,0.41737 -1.40039,0.54102 -0.769709,0.12364 -1.8711,0.16406 -3.324219,0.16406 h -5.02539 c -1.45312,0 -2.55772,-0.0403 -3.33008,-0.164061 -0.77237,-0.123759 -1.16371,-0.308189 -1.4082,-0.541019 -0.24449,-0.232839 -0.43642,-0.60259 -0.56446,-1.337889 -0.12803,-0.735301 -0.1621,-1.788592 -0.1621,-3.17773 v -0.002 -16.599839 -0.002 c -0.007,-1.38911 0.0341,-2.44243 0.1621,-3.17773 0.12804,-0.73531 0.31997,-1.10506 0.56446,-1.33789 0.24449,-0.23284 0.63583,-0.41725 1.4082,-0.54102 0.77236,-0.12376 1.87696,-0.16406 3.33008,-0.16406 z"
     sodipodi:nodetypes="ssssccsssssssccsssscssssccsssssssssccsssscc" />
  <path
     d="m 33.25,-10 c -1.142714,0 -2.06238,0.1160235 -2.835938,0.4414062 -0.784647,0.3300429 -1.38782,0.9088915 -1.75,1.6445318 C 27.955255,-6.474506 28.025081,-4.682066 28,-2.251953 v 0.002 0.0059 15.488281 0.0059 0.0039 c 0.02512,2.430106 -0.04472,4.220598 0.664062,5.660156 0.362191,0.735592 0.965386,1.314434 1.75,1.644532 0.773558,0.325346 1.693224,0.44137 2.835938,0.44137 h 9.5 c 1.142714,0 2.062381,-0.116024 2.835937,-0.441406 0.784648,-0.330043 1.387821,-0.908892 1.75,-1.644532 C 48.044745,17.474592 47.974929,15.684106 48,13.253992 v -0.0039 -0.0059 -15.488281 -0.0059 -0.0039 c -0.02502,-2.430147 0.0447,-4.220635 -0.664063,-5.660173 -0.362197,-0.7355839 -0.965384,-1.3144329 -1.75,-1.6445318 h -0.002 C 44.810701,-9.8831683 43.892769,-10 42.75,-10 Z m 0,1 h 9.5 c 1.072629,0 1.859551,0.1165964 2.447266,0.3632812 0.576402,0.2425006 0.978945,0.6294472 1.242187,1.1640628 0.541845,1.100514 0.535396,2.784292 0.560547,5.228515 v 15.486327 c -0.02523,2.445482 -0.01852,4.129628 -0.560547,5.230469 -0.26322,0.534639 -0.665816,0.921626 -1.242187,1.164063 -0.587442,0.247096 -1.374583,0.363281 -2.447266,0.363281 h -9.5 c -1.072683,0 -1.859824,-0.116185 -2.447266,-0.363281 C 30.22633,19.394216 29.823776,19.007262 29.560547,18.472655 29.019043,17.372849 29.025197,15.689811 29,13.248046 v -0.0039 -15.486328 -0.0059 c 0.02516,-2.441763 0.01903,-4.124807 0.560547,-5.224614 0.26322,-0.5346392 0.665816,-0.9216261 1.242187,-1.1640628 C 31.390176,-8.8838555 32.177317,-9.00004 33.25,-9.00004 Z"
     style="color:#000000;opacity:0.3;fill:#000000;stroke:none"
     id="path27568" />
  <path
     id="rect28737"
     style="opacity:0.3;fill:#000000;stroke-width:2;stroke-linecap:round;stroke-linejoin:round"
     d="m 36.5,-8 h 3 c 0.277,0 0.5,0.223 0.5,0.5 0,0.277 -0.223,0.5 -0.5,0.5 h -3 C 36.223,-7 36,-7.223 36,-7.5 36,-7.777 36.223,-8 36.5,-8 Z" />
</g>
<g
   id="22-22-phone-battery">
  <rect
     style="fill:none;fill-opacity:1;stroke-width:2;stroke-linecap:round;stroke-linejoin:round"
     id="rect22090"
     width="22"
     height="22"
     x="-4.1723251e-07"
     y="22" />
  <path
     id="path22284"
     class="ColorScheme-Text"
     style="fill:currentColor;stroke-width:2;stroke-linecap:round;stroke-linejoin:round"
     d="M 8.5019531,25 C 7.9599542,25 7.5166242,25.06447 7.140625,25.230469 6.778048,25.391639 6.4834056,25.673087 6.3046875,26.027344 5.9646881,26.707342 6.0019531,27.500002 6.0019531,28.5 v 9 c 0,0.999998 -0.037265,1.795611 0.3027344,2.474609 0.1699996,0.34 0.4618914,0.627922 0.8378906,0.794922 C 7.5175775,40.935531 7.9599542,41 8.5019531,41 h 4.9999999 c 0.542,0 0.983377,-0.06447 1.359375,-0.230469 0.375,-0.167 0.666938,-0.455922 0.835938,-0.794922 0.339998,-0.679998 0.304687,-1.474611 0.304687,-2.474609 v -9 c 0,-0.999998 0.03531,-1.793658 -0.304687,-2.472656 C 15.518112,25.673292 15.222163,25.391197 14.859375,25.230469 14.484375,25.063469 14.043953,25 13.501953,25 Z m -1.4316406,2 h 7.8613285 c 0.05,0.373 0.07031,0.870002 0.07031,1.5 v 9 c 0,0.629998 -0.02031,1.126 -0.07031,1.5 H 7.0703125 c -0.05,-0.374 -0.068359,-0.870002 -0.068359,-1.5 v -9 c 0,-0.629998 0.018359,-1.127 0.068359,-1.5 z M 11.5,28 9,33 h 1.5 v 4 L 13,32 h -1.5 z" />
</g>
<g
   id="16-16-phone-battery"
   transform="translate(0,-4)">
  <rect
     style="fill:none;fill-opacity:1;stroke-width:2;stroke-linecap:round;stroke-linejoin:round"
     id="rect22304"
     width="16"
     height="16"
     x="-19"
     y="29.499998" />
  <path
     d="m -13.49992,29.499997 c -0.541999,0 -0.985328,0.06447 -1.361328,0.230469 -0.362577,0.16117 -0.657219,0.442618 -0.835938,0.796875 -0.339999,0.679999 -0.302734,1.472657 -0.302734,2.472656 v 9.000002 c 0,0.999999 -0.03726,1.79561 0.302734,2.474609 0.17,0.34 0.461891,0.627922 0.837891,0.794922 0.375,0.166 0.817376,0.230469 1.359375,0.230469 h 5.0000001 c 0.542,0 0.983376,-0.06447 1.359375,-0.230469 0.375,-0.167 0.666938,-0.455922 0.835938,-0.794922 0.339999,-0.679999 0.304687,-1.47461 0.304687,-2.474609 v -9.000002 c 0,-0.999999 0.03531,-1.793657 -0.304687,-2.472656 -0.179154,-0.354052 -0.475103,-0.636147 -0.837891,-0.796875 -0.375,-0.167 -0.815422,-0.230469 -1.357422,-0.230469 z m -1.431641,2 h 7.8613291 c 0.05,0.373 0.07031,0.870001 0.07031,1.5 v 9.000002 c 0,0.629999 -0.02031,1.126 -0.07031,1.5 h -7.8613291 c -0.05,-0.374 -0.06836,-0.870001 -0.06836,-1.5 v -9.000002 c 0,-0.629999 0.01836,-1.127 0.06836,-1.5 z m 3.429907,10 2.4995601,-4.999751 -1.4995601,-5e-4 -4.4e-4,-3.99975 -2.499559,5 h 1.499999 z"
     class="ColorScheme-Text"
     style="fill:currentColor;stroke-width:2;stroke-linecap:round;stroke-linejoin:round"
     id="path22314" />
</g>
<g
   id="phone-battery">
  <rect
     style="fill:none;fill-opacity:1;stroke-width:2;stroke-linecap:round;stroke-linejoin:round"
     id="rect22362"
     width="32"
     height="32"
     x="22"
     y="22" />
  <path
     d="m 33.285156,21.999814 c -1.14751,0 -2.07698,0.120979 -2.871094,0.46875 -0.794113,0.347771 -1.412841,0.971068 -1.763671,1.712891 C 27.948729,25.665101 28.024905,27.472878 28,29.990048 v 0.0059 16.009765 0.0039 c 0.02495,2.517161 -0.05125,4.324951 0.650391,5.808593 0.350821,0.741827 0.969563,1.365124 1.763671,1.712897 0.794109,0.347773 1.723584,0.46875 2.871094,0.46875 h 9.429688 c 1.14751,0 2.07698,-0.120979 2.871093,-0.46875 0.794114,-0.347771 1.412842,-0.971068 1.763672,-1.712891 C 48.05127,50.334566 47.975095,48.526789 48,46.009619 v -0.0039 -16.009764 -0.0059 c -0.02495,-2.517168 0.05125,-4.324958 -0.650391,-5.8086 -0.350821,-0.741821 -0.969563,-1.365118 -1.763672,-1.712891 -0.794108,-0.347773 -1.723583,-0.46875 -2.871093,-0.46875 z m 0,2 h 9.429688 c 0.995337,0 1.664928,0.124102 2.068359,0.300781 0.403431,0.176679 0.579172,0.358588 0.757813,0.736328 0.356585,0.75401 0.433788,2.444721 0.458984,4.962891 v 15.990233 c -0.025,2.526325 -0.101697,4.219133 -0.458984,4.97461 -0.178644,0.377738 -0.354371,0.557693 -0.757813,0.734375 -0.403441,0.176681 -1.073022,0.300781 -2.068359,0.300781 h -9.429688 c -0.995337,0 -1.664928,-0.124102 -2.068359,-0.300781 C 30.813366,51.522353 30.637625,51.342397 30.458984,50.964657 30.102399,50.210647 30.025196,48.517986 30,45.999813 v -0.0098 -15.980467 -0.0098 c 0.02515,-2.518161 0.102392,-4.208885 0.458984,-4.962891 0.178644,-0.377738 0.354371,-0.559646 0.757813,-0.736328 0.403441,-0.176681 1.073022,-0.300781 2.068359,-0.300781 z"
     style="color:#000000;opacity:0.2;fill:#000000"
     id="path27455-9" />
  <path
     d="m 28.5,45.247783 c 0.0252,2.4378 -0.0131,4.1752 0.6123,5.4454 0.31271,0.6351 0.81569,1.1181 1.4962,1.4044 0.6805,0.28624 1.5338,0.4026 2.6415,0.4026 h 9.5 c 1.1077,0 1.961,-0.11636 2.6415,-0.4026 0.68051,-0.28624 1.1835,-0.76926 1.4962,-1.4044 0.62542,-1.2702 0.58714,-3.0076 0.61229,-5.4454 v -0.004 -15.487999 -0.004 c -0.0251,-2.4378 0.0131,-4.1752 -0.61229,-5.4454 -0.31272,-0.6351 -0.81569,-1.1181 -1.4962,-1.4044 -0.6805,-0.28563 -1.5338,-0.40217 -2.6415,-0.40217 h -9.5 c -1.1077,0 -1.961,0.11636 -2.6415,0.4026 -0.68051,0.28624 -1.1835,0.76926 -1.4962,1.4044 -0.62542,1.2702 -0.58714,3.0076 -0.6123,5.4454 v 0.004 15.487999 z"
     style="color:#000000;fill:#4d4d4d"
     id="path27498-3" />
  <rect
     style="fill:url(#linearGradient22472);fill-opacity:1;stroke:none;stroke-width:2;stroke-linecap:round;stroke-linejoin:round"
     id="rect27611-1"
     width="16"
     height="21"
     x="29.999998"
     y="26.999977"
     ry="1" />
  <path
     d="m 36.9094,26.999979 -6.9091,15.272999 v 4.7727 c 0,0.52881 0.38518,0.95454 0.86364,0.95454 h 3.2078 l 9.5,-20.999999 z"
     style="opacity:0.1;fill:#ffffff;enable-background:new"
     id="path28776-9" />
  <path
     d="m 30.90476,26.999979 c -0.50124,0 -0.90476,0.446 -0.90476,1 v 14.272999 l 6.9094,-15.272999 z"
     style="opacity:0.2;fill:#f9f9f9;enable-background:new"
     id="path28748-4" />
  <path
     d="m 39,29 v 7 h 3 L 37,47 V 39.99999 L 34,40 Z"
     style="opacity:0.2;fill:#ffffff;fill-opacity:1;stroke-width:0.16282;stroke-linejoin:round"
     id="path1483" />
  <path
     id="rect1004"
     style="fill:url(#linearGradient1092);fill-opacity:1;stroke-width:0.615383;stroke-linejoin:round"
     d="m 39,28 v 7 h 3 L 37,45.999999 V 38.99999 l -3,9e-6 z"
     sodipodi:nodetypes="ccccccc" />
  <path
     id="path2368-7"
     style="color:#000000;display:inline;opacity:0.3;fill:url(#linearGradient22474);fill-opacity:1;stroke-width:0.999999;enable-background:new"
     d="m 35.07422,22.999814 c -2.7633,0 -4.28936,0.1903 -5.04883,0.875 -0.37973,0.34235 -0.63559,0.83215 -0.80273,1.625 -0.16715,0.79285 -0.22966,1.87003 -0.22266,3.2793 v 0.002 17.437729 0.002 c 0,1.409277 0.0555,2.48645 0.22266,3.2793 0.167138,0.79285 0.422989,1.28265 0.802729,1.625 0.75948,0.6847 2.28553,0.875 5.04883,0.875 h 5.85156 c 2.76262,0 4.28071,-0.190579 5.03711,-0.875 0.3782,-0.34221 0.63408,-0.831419 0.80273,-1.625 0.168692,-0.79368 0.23438,-1.87358 0.23438,-3.283299 v -17.43383 c 0,-1.40972 -0.0657,-2.48962 -0.23438,-3.2832 -0.16865,-0.79358 -0.42453,-1.28279 -0.80273,-1.625 -0.7564,-0.68442 -2.27449,-0.875 -5.03711,-0.875 z m 0.4375,0.95312 h 5.02539 c 1.453119,0 2.55451,0.0404 3.324219,0.16407 0.76971,0.12365 1.15722,0.30849 1.40039,0.54101 0.243179,0.23252 0.43694,0.60316 0.5664,1.33985 0.12946,0.7367 0.171882,1.79163 0.171882,3.18164 v 16.593978 c 0,1.390012 -0.0424,2.444941 -0.171882,3.181641 -0.129449,0.7367 -0.323221,1.10732 -0.5664,1.33984 -0.24317,0.232521 -0.63068,0.41737 -1.40039,0.54102 -0.769709,0.12364 -1.8711,0.16406 -3.324219,0.16406 h -5.02539 c -1.45312,0 -2.55772,-0.0403 -3.33008,-0.164061 -0.77237,-0.123759 -1.16371,-0.308189 -1.4082,-0.541019 -0.24449,-0.232839 -0.43642,-0.60259 -0.56446,-1.337889 -0.12803,-0.735301 -0.1621,-1.788592 -0.1621,-3.17773 v -0.002 -16.599839 -0.002 c -0.007,-1.38911 0.0341,-2.44243 0.1621,-3.17773 0.12804,-0.73531 0.31997,-1.10506 0.56446,-1.33789 0.24449,-0.23284 0.63583,-0.41725 1.4082,-0.54102 0.77236,-0.12376 1.87696,-0.16406 3.33008,-0.16406 z"
     sodipodi:nodetypes="ssssccsssssssccsssscssssccsssssssssccsssscc" />
  <path
     d="m 33.25,21.999814 c -1.142714,0 -2.06238,0.116023 -2.835938,0.441406 -0.784647,0.330043 -1.38782,0.908892 -1.75,1.644532 C 27.955255,25.525308 28.025081,27.317748 28,29.747861 v 0.002 0.0059 15.488281 0.0059 0.0039 c 0.02512,2.430106 -0.04472,4.220598 0.664062,5.660156 0.362191,0.735592 0.965386,1.314434 1.75,1.644532 0.773558,0.325346 1.693224,0.44137 2.835938,0.44137 h 9.5 c 1.142714,0 2.062381,-0.116024 2.835937,-0.441406 0.784648,-0.330044 1.387821,-0.908892 1.75,-1.644532 C 48.044745,49.474406 47.974929,47.68392 48,45.253806 v -0.0039 -0.0059 -15.488281 -0.0059 -0.0039 c -0.02502,-2.430147 0.0447,-4.220635 -0.664063,-5.660173 -0.362197,-0.735584 -0.965384,-1.314433 -1.75,-1.644532 h -0.002 C 44.810701,22.116646 43.892769,21.999814 42.75,21.999814 Z m 0,1 h 9.5 c 1.072629,0 1.859551,0.116596 2.447266,0.363281 0.576402,0.242501 0.978945,0.629447 1.242187,1.164063 C 46.981298,25.627672 46.974849,27.31145 47,29.755673 V 45.242 c -0.02523,2.445482 -0.01852,4.129628 -0.560547,5.230469 -0.26322,0.534639 -0.665816,0.921626 -1.242187,1.164063 -0.587442,0.247096 -1.374583,0.363281 -2.447266,0.363281 h -9.5 c -1.072683,0 -1.859824,-0.116185 -2.447266,-0.363281 C 30.22633,51.39403 29.823776,51.007076 29.560547,50.472469 29.019043,49.372663 29.025197,47.689625 29,45.24786 v -0.0039 -15.486328 -0.0059 c 0.02516,-2.441763 0.01903,-4.124808 0.560547,-5.224614 0.26322,-0.534639 0.665816,-0.921626 1.242187,-1.164063 0.587442,-0.247097 1.374583,-0.363281 2.447266,-0.363281 z"
     style="color:#000000;opacity:0.3;fill:#000000;stroke:none"
     id="path27568-8" />
  <path
     id="rect28737-4"
     style="opacity:0.3;fill:#000000;stroke-width:2;stroke-linecap:round;stroke-linejoin:round"
     d="m 36.5,23.999814 h 3 c 0.277,0 0.5,0.223 0.5,0.5 0,0.277 -0.223,0.5 -0.5,0.5 h -3 c -0.277,0 -0.5,-0.223 -0.5,-0.5 0,-0.277 0.223,-0.5 0.5,-0.5 z" />
</g>
</svg>
